<?xml version="1.0" standalone="no"?>
<!DOCTYPE svg PUBLIC "-//W3C//DTD SVG 20010904//EN"
 "http://www.w3.org/TR/2001/REC-SVG-20010904/DTD/svg10.dtd">
<svg version="1.0" xmlns="http://www.w3.org/2000/svg"
 width="592.000000pt" height="592.000000pt" viewBox="0 0 592.000000 592.000000"
 preserveAspectRatio="xMidYMid meet">
<metadata>
Created by potrace 1.11, written by Peter Selinger 2001-2013
</metadata>
<g transform="translate(0.000000,592.000000) scale(0.100000,-0.100000)"
fill="#000000" stroke="none">
<path d="M1175 5464 c-44 -7 -87 -15 -95 -17 -8 -2 -28 -7 -45 -11 -197 -48
-421 -176 -577 -329 -97 -96 -119 -121 -175 -202 -122 -179 -196 -365 -228
-579 -13 -86 -14 -336 -1 -396 6 -32 16 -89 20 -116 2 -11 6 -25 9 -31 3 -5 8
-20 11 -34 13 -72 92 -253 148 -344 120 -191 309 -371 499 -475 l48 -26 -54
-43 c-30 -24 -89 -80 -132 -125 -204 -212 -328 -478 -368 -786 -7 -56 -7 -276
0 -310 3 -14 8 -47 11 -75 3 -27 8 -54 11 -58 3 -5 7 -22 10 -39 13 -83 136
-371 173 -408 3 -3 23 -32 45 -65 57 -86 237 -261 330 -323 136 -90 336 -178
445 -197 19 -3 42 -8 50 -10 72 -21 326 -27 435 -10 121 19 136 23 221 51 190
63 375 177 519 320 l82 80 44 -37 c127 -107 414 -268 569 -319 36 -11 73 -25
82 -30 10 -6 27 -10 39 -10 11 0 28 -4 38 -10 10 -5 31 -12 47 -15 16 -2 40
-7 54 -10 165 -33 232 -40 420 -40 169 0 261 7 345 25 22 5 56 11 75 14 19 3
67 15 105 26 39 11 79 22 89 25 37 9 162 58 246 98 92 43 283 155 288 169 2 4
10 8 17 8 7 0 15 4 17 8 2 4 32 30 68 57 96 72 275 256 356 365 175 235 290
477 356 750 24 102 25 105 33 167 4 26 9 59 12 73 9 47 11 385 2 455 -5 39
-11 88 -14 110 -6 46 -12 80 -19 103 -3 9 -7 28 -10 42 -12 66 -75 259 -106
325 -5 11 -20 46 -34 77 -28 64 -92 178 -145 257 -20 29 -40 60 -46 69 -27 43
-160 197 -210 245 -67 65 -129 120 -170 152 -21 17 -43 35 -49 40 -38 35 -219
145 -321 194 -176 86 -387 155 -540 177 -27 3 -59 8 -70 11 -107 22 -384 21
-565 -2 -109 -14 -319 -68 -405 -105 -11 -4 -45 -18 -75 -30 -83 -34 -204 -96
-289 -149 -42 -26 -81 -51 -88 -55 -9 -5 -12 7 -12 46 0 78 -26 238 -54 333
-109 366 -376 678 -721 841 -225 106 -509 147 -751 108z m405 -70 c589 -103
1028 -612 1054 -1224 l3 -85 -61 -55 c-166 -150 -368 -382 -418 -480 -7 -14
-24 -43 -38 -65 -47 -76 -157 -319 -165 -365 -3 -19 -28 -18 -125 3 -96 20
-173 28 -282 28 -132 -1 -171 -7 -373 -56 -50 -12 -200 -78 -269 -118 l-49
-28 -72 36 c-216 111 -420 322 -535 552 -57 116 -76 164 -101 263 -30 121 -33
159 -33 320 0 176 0 175 25 288 43 192 133 384 244 522 63 78 214 217 296 271
82 53 188 110 204 109 3 0 18 6 33 14 39 20 196 64 257 72 28 3 52 8 54 9 10
10 278 1 351 -11z m2415 -1273 c0 -1 23 -4 50 -5 28 -2 64 -6 80 -10 17 -3 45
-8 64 -11 19 -3 37 -8 41 -10 4 -2 20 -7 37 -9 89 -16 321 -114 458 -194 110
-63 334 -265 427 -382 51 -66 141 -206 177 -277 60 -120 137 -336 146 -413 2
-14 6 -38 9 -55 20 -107 24 -169 21 -325 -2 -96 -6 -186 -9 -200 -3 -14 -10
-50 -16 -80 -61 -331 -217 -626 -460 -869 -181 -181 -403 -319 -635 -396 -11
-3 -20 -6 -20 -5 0 1 -17 -6 -37 -15 -21 -8 -38 -13 -38 -10 0 2 -11 0 -25 -5
-32 -12 -183 -38 -260 -45 -148 -12 -350 -1 -455 25 -19 5 -49 12 -66 14 -43
8 -162 44 -201 62 -17 8 -34 14 -38 14 -17 0 -213 104 -282 151 -87 58 -106
72 -158 118 l-36 32 36 101 c19 55 38 104 40 108 2 4 32 -20 67 -52 128 -119
333 -240 505 -297 84 -29 100 -33 168 -46 17 -3 36 -8 43 -10 20 -7 168 -18
247 -18 85 0 208 11 255 23 19 5 50 12 68 15 108 18 287 93 417 174 341 212
579 555 659 952 99 487 -50 976 -403 1329 -185 184 -377 298 -621 366 -88 25
-102 28 -210 43 -69 9 -338 7 -380 -3 -14 -3 -38 -9 -55 -11 -359 -64 -708
-295 -919 -610 -77 -115 -139 -240 -171 -345 -9 -30 -19 -62 -22 -70 -4 -8 -8
-23 -10 -34 -8 -44 -17 -47 -49 -18 -50 44 -77 65 -115 91 -38 26 -39 30 -11
101 3 8 6 17 7 20 6 25 23 66 52 130 153 331 417 610 738 780 85 45 268 115
350 134 39 9 81 19 95 23 14 3 39 7 55 9 17 2 59 7 95 12 54 6 295 9 295 3z
m80 -285 c17 -4 55 -11 85 -17 232 -46 488 -188 673 -374 77 -77 177 -211 233
-312 64 -117 135 -322 150 -436 24 -188 24 -303 -1 -472 -3 -24 -31 -136 -48
-200 -24 -85 -147 -331 -177 -355 -4 -3 -11 -12 -16 -21 -46 -82 -232 -263
-353 -344 -231 -153 -476 -229 -746 -228 -94 0 -232 10 -244 18 -3 1 -22 6
-42 9 -104 16 -288 89 -414 164 -123 73 -325 248 -312 270 13 20 21 123 21
257 0 177 -6 233 -45 375 -50 182 -160 386 -283 524 -14 16 -26 32 -26 35 0 5
8 37 44 182 20 79 165 353 205 389 4 3 18 21 33 40 67 89 204 214 314 288 111
74 277 148 398 178 97 23 99 24 146 30 24 3 46 7 48 9 6 6 325 -2 357 -9z
m-2386 -760 c64 -7 183 -30 214 -41 35 -14 12 -78 -35 -94 -18 -6 -34 -11 -36
-11 -1 0 -16 -6 -32 -15 -39 -20 -217 -62 -300 -71 -103 -10 -263 -5 -338 11
-12 3 -32 7 -44 10 -13 3 -34 8 -48 11 -14 3 -29 6 -35 8 -73 20 -95 28 -95
32 0 7 155 81 209 99 84 28 203 53 281 61 41 3 76 7 77 8 4 3 119 -2 182 -8z
m-722 -242 c40 -13 87 -26 105 -29 17 -3 34 -7 37 -9 31 -19 371 -29 456 -13
22 4 55 9 73 13 19 3 51 12 73 19 21 8 39 12 39 10 0 -2 28 7 62 21 65 25 82
29 74 16 -4 -7 -9 -38 -21 -124 -26 -183 -22 -434 9 -613 2 -11 7 -38 10 -60
4 -22 9 -47 12 -55 3 -8 8 -26 10 -40 7 -34 44 -158 59 -195 7 -16 16 -41 20
-55 11 -38 127 -275 137 -278 4 -2 8 -9 8 -15 0 -13 107 -172 127 -188 7 -6
13 -17 13 -24 0 -8 3 -15 8 -17 4 -1 22 -21 40 -43 19 -22 71 -77 115 -123
l81 -83 -84 -82 c-98 -94 -200 -167 -317 -226 -86 -43 -235 -96 -300 -106 -21
-3 -50 -8 -63 -11 -14 -4 -90 -8 -170 -9 -225 -5 -376 29 -575 126 -276 136
-500 380 -616 671 -27 68 -59 174 -65 217 -2 19 -7 37 -9 41 -7 11 -18 155
-19 230 -1 338 137 671 380 914 90 91 182 159 203 150 9 -4 49 -17 88 -30z
m1377 -31 c109 -88 107 -85 99 -178 -14 -174 -9 -276 22 -465 30 -176 148
-431 276 -597 l48 -62 -15 -53 c-24 -83 -46 -142 -59 -156 -12 -13 -50 22
-128 118 -42 51 -157 226 -157 238 0 6 -3 12 -7 14 -13 5 -91 179 -118 263
-76 234 -102 449 -81 685 9 112 34 250 44 250 2 0 37 -26 76 -57z m234 -247
c88 -124 184 -330 208 -449 11 -57 16 -86 24 -137 9 -61 10 -299 1 -345 l-6
-29 -32 40 c-98 124 -214 382 -237 528 -4 21 -8 41 -10 45 -20 31 -27 421 -8
421 4 0 31 -34 60 -74z"/>
<path d="M1543 5214 c-18 -8 -16 -22 5 -27 11 -3 9 -5 -8 -6 -35 -2 -88 -35
-137 -88 l-42 -45 -33 25 c-113 85 -224 57 -236 -61 -2 -30 0 -52 7 -56 6 -4
11 -4 12 1 1 4 3 26 4 48 3 29 11 46 31 62 27 21 44 22 44 3 0 -5 -8 -11 -18
-15 -25 -7 -39 -41 -38 -90 1 -35 4 -40 23 -38 13 2 22 -2 20 -8 -1 -6 3 -13
9 -16 7 -2 16 16 23 42 6 25 15 45 19 45 11 0 118 -104 124 -120 3 -8 1 -25
-3 -38 -6 -15 -5 -21 1 -17 6 3 10 -2 10 -12 0 -13 -17 -24 -64 -39 l-63 -21
-44 23 c-40 20 -48 21 -77 9 -17 -8 -32 -18 -33 -22 0 -4 -2 -18 -3 -31 -3
-24 14 -95 33 -145 18 -45 34 -22 26 37 -4 28 -8 61 -9 73 -4 27 24 39 52 22
16 -10 18 -18 10 -52 -5 -21 -17 -58 -28 -80 -11 -22 -20 -58 -20 -78 0 -36
-3 -39 -47 -59 -61 -27 -73 -30 -101 -19 -31 12 -43 48 -24 76 17 27 2 31 -21
5 -32 -36 -8 -118 36 -124 18 -2 50 -5 66 -7 11 -1 12 -15 8 -65 -6 -73 -21
-102 -54 -111 -28 -7 -44 -44 -45 -100 0 -36 -5 -43 -49 -75 -89 -63 -99 -95
-86 -265 5 -71 -11 -146 -33 -153 -5 -2 -10 -10 -10 -17 0 -7 -5 -15 -12 -17
-8 -3 -8 -7 -2 -11 16 -9 52 19 71 56 11 21 17 60 18 115 1 45 5 85 8 89 4 3
7 -2 8 -13 0 -10 2 -43 5 -73 6 -67 -9 -113 -51 -160 -24 -26 -35 -50 -39 -81
-7 -63 -27 -153 -36 -165 -11 -14 -4 -44 14 -63 8 -10 19 -29 25 -43 7 -21 18
-28 45 -31 31 -3 36 -1 36 17 0 11 -9 39 -20 62 -18 40 -18 47 -5 98 23 87 81
193 157 286 34 42 40 45 70 39 18 -3 65 -22 103 -40 61 -31 79 -35 145 -35 68
1 92 3 170 20 71 15 87 17 104 17 10 -1 20 -2 21 -4 2 -2 11 -41 20 -88 10
-47 21 -89 25 -95 8 -10 19 -62 25 -116 1 -15 12 -36 24 -48 11 -11 21 -27 21
-35 0 -7 11 -16 25 -18 14 -3 25 -1 25 6 0 6 5 4 10 -4 5 -8 21 -16 35 -17 36
-3 32 24 -9 67 -40 43 -48 66 -61 185 -1 17 -8 57 -14 90 -19 105 -16 136 14
195 39 76 83 112 152 123 25 4 37 -1 59 -24 29 -30 61 -42 174 -65 29 -5 33
-4 23 7 -7 7 -13 19 -13 27 0 10 4 10 16 -3 14 -13 19 -14 25 -3 16 24 9 49
-25 94 -19 25 -40 61 -47 81 -6 19 -28 51 -47 69 -28 26 -34 38 -27 49 6 8 29
41 53 75 47 68 48 70 27 70 -8 0 -15 -4 -15 -10 0 -5 -5 -10 -11 -10 -6 0 -9
7 -5 15 10 26 -27 1 -58 -39 -22 -29 -31 -34 -54 -30 -31 6 -109 -11 -239 -54
l-92 -29 -11 49 c-28 116 12 204 99 215 34 5 46 2 66 -17 24 -22 25 -22 60 -6
30 15 34 20 25 37 -6 10 -14 19 -18 19 -4 0 -22 25 -41 56 -33 55 -33 55 -16
90 9 20 15 38 12 40 -3 3 -22 -10 -42 -29 -21 -19 -76 -52 -124 -74 -102 -46
-106 -45 -123 47 -11 55 -10 63 8 88 11 15 34 34 50 42 54 28 54 28 42 61 -16
45 -48 53 -99 24 -44 -25 -66 -23 -87 7 -7 10 -20 18 -28 18 -8 0 -14 8 -15
18 -3 51 5 89 21 104 41 39 80 107 84 150 2 23 5 46 5 50 2 12 32 38 46 38 7
0 16 -11 19 -25 10 -41 44 -25 51 25 0 3 4 10 8 17 17 27 -63 73 -100 57z
m-343 -198 c0 -3 -4 -8 -10 -11 -5 -3 -10 -1 -10 4 0 6 5 11 10 11 6 0 10 -2
10 -4z m223 -425 c16 -2 39 -76 34 -108 -4 -24 -2 -33 8 -33 14 0 37 54 28 64
-4 3 -2 6 3 6 5 -1 16 -17 26 -36 16 -35 16 -35 -10 -45 -29 -11 -109 -10
-157 2 -24 6 -87 14 -157 18 -10 1 -10 43 0 57 11 16 75 53 117 67 32 11 73
14 108 8z m417 -216 c11 -13 10 -14 -4 -9 -9 3 -16 10 -16 15 0 13 6 11 20 -6z
m-528 -125 c34 -22 73 -41 87 -41 15 -1 50 -2 80 -3 l54 -1 23 -60 c13 -33 23
-65 23 -71 1 -7 -20 -22 -46 -35 -62 -29 -172 -31 -355 -5 -45 7 -82 30 -88
56 -8 33 9 67 41 80 33 14 85 68 94 98 3 12 11 22 16 22 5 0 38 -18 71 -40z
m-262 -156 c0 -31 -3 -34 -29 -34 -26 0 -29 3 -26 23 3 12 10 32 16 44 17 31
39 12 39 -33z"/>
<path d="M3660 2556 c-60 -61 -150 -154 -200 -206 -51 -52 -125 -129 -165
-170 l-74 -76 140 -144 c77 -80 200 -207 272 -283 l132 -137 238 1 c131 0 237
4 235 9 -2 5 -70 78 -153 163 -82 85 -160 165 -172 178 l-22 24 380 0 c210 0
386 3 392 7 8 5 12 62 12 188 l0 180 -120 0 c-66 1 -241 1 -388 1 -156 -1
-267 3 -265 8 2 5 77 87 168 181 91 94 166 175 168 179 1 4 -104 8 -234 8
l-236 0 -108 -111z"/>
<path d="M987 2432 l-28 -3 28 -26 c75 -69 180 -169 185 -179 5 -7 -60 -10
-207 -9 -118 0 -220 -2 -227 -5 -10 -4 -13 -32 -13 -107 0 -57 2 -104 5 -104
3 -1 104 -3 225 -4 121 -2 222 -3 225 -4 2 -1 -19 -22 -47 -48 -135 -125 -172
-163 -160 -164 67 -7 261 -3 276 6 15 8 212 190 329 304 13 13 3 26 -79 104
-52 49 -129 123 -172 164 l-79 76 -116 1 c-65 1 -130 0 -145 -2z"/>
</g>
</svg>
