<?xml version="1.0" encoding="UTF-8" standalone="no"?>
<svg
   xmlns:dc="http://purl.org/dc/elements/1.1/"
   xmlns:cc="http://creativecommons.org/ns#"
   xmlns:rdf="http://www.w3.org/1999/02/22-rdf-syntax-ns#"
   xmlns:svg="http://www.w3.org/2000/svg"
   xmlns="http://www.w3.org/2000/svg"
   xmlns:sodipodi="http://sodipodi.sourceforge.net/DTD/sodipodi-0.dtd"
   xmlns:inkscape="http://www.inkscape.org/namespaces/inkscape"
   id="svg2"
   version="1.1"
   inkscape:version="0.91 r13725"
   sodipodi:docname="calendar.svg"
   width="14.288"
   height="16">
  <defs
     id="defs10" />
  <sodipodi:namedview
     pagecolor="#ffffff"
     bordercolor="#666666"
     borderopacity="1"
     objecttolerance="10"
     gridtolerance="10"
     guidetolerance="10"
     inkscape:pageopacity="0"
     inkscape:pageshadow="2"
     inkscape:window-width="1680"
     inkscape:window-height="1025"
     id="namedview8"
     showgrid="false"
     fit-margin-top="0"
     fit-margin-left="0"
     fit-margin-right="0"
     fit-margin-bottom="0"
     inkscape:zoom="9.44"
     inkscape:cx="35.970823"
     inkscape:cy="24.39723"
     inkscape:window-x="0"
     inkscape:window-y="25"
     inkscape:window-maximized="1"
     inkscape:current-layer="svg2" />
  <metadata
     id="metadata4">Copyright (C) 2016 by original authors @ fontello.com<rdf:RDF>
  <cc:Work
     rdf:about="">
    <dc:format>image/svg+xml</dc:format>
    <dc:type
       rdf:resource="http://purl.org/dc/dcmitype/StillImage" />
    <dc:title></dc:title>
  </cc:Work>
</rdf:RDF>
</metadata>
  <path
     d="m 0,16 0,-10.384 14.288,0 0,10.384 L 0,16 Z M 0,4.72 0,1.184 l 1.744,0 0,2.256 3.2,0 0,-2.256 4.4,0 0,2.256 3.184,0 0,-2.256 1.76,0 0,3.536 L 0,4.72 Z M 2.688,2.496 2.688,0 4,0 l 0,2.496 -1.312,0 z M 3.632,12.4 q 0,1.792 1.968,1.792 0.752,0 1.344,-0.512 0.624,-0.496 0.624,-1.28 0,-1.088 -1.248,-1.44 Q 7.088,10.72 7.344,10.192 7.536,9.744 7.312,9.024 6.88,8.032 5.6,8.032 4.784,8.032 4.224,8.448 3.664,8.864 3.632,9.68 l 1.152,0 q 0,-0.72 0.784,-0.736 0.688,0 0.72,0.832 0,0.784 -1.344,0.752 l 0,0.912 q 0.768,0 1.088,0.128 0.368,0.176 0.368,0.736 0,0.912 -0.864,0.976 -0.688,0 -0.752,-0.88 l -1.152,0 z M 8.128,10.064 Q 8.912,9.84 9.536,9.312 l 0,4.752 1.12,0 0,-5.936 -1.024,0 Q 9.024,8.72 8.128,9.056 l 0,1.008 z m 2.16,-7.568 0,-2.496 1.312,0 0,2.496 -1.312,0 z"
     id="path6"
     inkscape:connector-curvature="0" />
</svg>
