<?xml version="1.0" encoding="utf-8"?>
<!-- Generator: Adobe Illustrator 19.2.1, SVG Export Plug-In . SVG Version: 6.00 Build 0)  -->
<svg version="1.1"
	 id="svg2" inkscape:version="0.48.4 r9939" sodipodi:docname="bremen_logo.svg" xmlns:cc="http://creativecommons.org/ns#" xmlns:dc="http://purl.org/dc/elements/1.1/" xmlns:inkscape="http://www.inkscape.org/namespaces/inkscape" xmlns:rdf="http://www.w3.org/1999/02/22-rdf-syntax-ns#" xmlns:sodipodi="http://sodipodi.sourceforge.net/DTD/sodipodi-0.dtd" xmlns:svg="http://www.w3.org/2000/svg"
	 xmlns="http://www.w3.org/2000/svg" xmlns:xlink="http://www.w3.org/1999/xlink" x="0px" y="0px" viewBox="0 0 1519.2 563" height="75" width="200"
	 style="enable-background:new 0 0 1519.2 563;" xml:space="preserve">
<style type="text/css">
	.st0{fill:#FE0000;}
	.st1{fill:#1D1D1B;}
</style>
<sodipodi:namedview  bordercolor="#666666" borderopacity="1.0" fit-margin-bottom="0" fit-margin-left="0" fit-margin-right="0" fit-margin-top="0" id="base" inkscape:current-layer="layer1" inkscape:cx="304.04227" inkscape:cy="236.12032" inkscape:document-units="px" inkscape:pageopacity="0.0" inkscape:pageshadow="2" inkscape:window-height="833" inkscape:window-maximized="0" inkscape:window-width="1387" inkscape:window-x="144" inkscape:window-y="26" inkscape:zoom="0.35" pagecolor="#ffffff" showgrid="false">
	</sodipodi:namedview>
<g id="layer1" transform="translate(397.14283,-205.14789)" inkscape:groupmode="layer" inkscape:label="Ebene 1">
	<path id="path3098" inkscape:connector-curvature="0" class="st0" d="M-246.7,361.2l10.9-11l-11.3-11c-6.2-6.1-11.6-11-12-11
		s-5.6,5-11.6,11l-11,11l11,11c6,6,11.4,11,12,11S-252.7,367.2-246.7,361.2L-246.7,361.2z M-283.6,375.1l-25-25l25-25l25-25l25,25
		l25,25l-25,25l-25,25L-283.6,375.1z M-189.7,419.2c9.9-10,10.8-11.1,9.5-12.7c-0.8-1-5.9-6.3-11.3-11.7l-9.8-9.9l-10.9,10.9
		c-6,6-10.9,11.3-10.9,11.9c0,1,21,22.5,22,22.5C-200.8,430.1-195.7,425.2-189.7,419.2z M-225.9,432.9
		c-13.3-13.3-24.2-24.7-24.2-25.3s11-12,24.5-25.5l24.5-24.5l24.5,24.5c13.5,13.5,24.5,24.9,24.5,25.5c0,1-48,49.5-49,49.5
		C-201.4,457.1-212.6,446.2-225.9,432.9z M-304.6,419.1l11-11l-11.5-11.5l-11.5-11.5l-11.3,11.2l-11.3,11.2l10.7,11.1
		c5.9,6.1,11.2,11.2,11.8,11.3C-316.1,430.1-310.7,425.2-304.6,419.1L-304.6,419.1z M-341.4,432.4l-24.7-24.8l24.8-24.7l24.8-24.7
		l25,25l25,25l-24.5,24.5c-13.5,13.5-24.7,24.5-25,24.5C-316.4,457.1-327.8,446-341.4,432.4L-341.4,432.4z M-247.6,454.2l-11.5-11.5
		l-11.2,11.2l-11.2,11.2l11.5,11.5l11.5,11.5l11.3-11.2l11.3-11.2L-247.6,454.2L-247.6,454.2z M-283.6,490.1l-25-25l24.7-24.7
		l24.7-24.7l25,25l25,25l-24.8,24.7l-24.8,24.7L-283.6,490.1L-283.6,490.1z M-80.1,693.6v-42.5H-121c-22.5,0-41.6,0.3-42.5,0.6
		c-1.4,0.5-1.6,5.2-1.6,41.8c0,22.7,0.3,41.5,0.7,41.9s19.5,0.7,42.5,0.7h41.8C-80.1,736.1-80.1,693.6-80.1,693.6z M-194.1,704.4
		v-60.8l-101.5-101.5c-55.8-55.8-101.5-101.8-101.5-102.1c0-0.8,20.1-20.9,20.9-20.9c0.3,0,46.3,45.7,102.1,101.5l101.5,101.5h61.3
		H-50v71.5v71.5h-72h-72v-60.7H-194.1z"/>
	<path id="path2996" inkscape:connector-curvature="0" class="st1" d="M374.9,217.6v-12.5h13h13v12.5v12.5h-13h-13V217.6z
		 M374.2,313c0.4-21.5,0.7-45.6,0.7-53.5v-14.3H388h13.2l-0.7,35.2c-0.4,19.4-0.7,43.5-0.7,53.5v18.2h-13.2h-13.2L374.2,313
		L374.2,313z M195.2,319c0.4-18.2,0.7-42.3,0.7-53.5v-20.3h13h13l0.3,9.2l0.3,9.2l2.7-5.2c3.8-7.2,8-11.7,13.3-14.2
		c4.4-2.1,12.8-2.8,15.1-1.3c0.8,0.5,0.6,4-0.9,12.8l-2,12h-6.3c-5.4,0-6.9,0.4-10.6,3c-2.4,1.7-6,5.5-8.1,8.4l-3.8,5.4v10.6
		c0,5.8-0.3,21-0.7,33.8l-0.7,23.2h-13h-13L195.2,319L195.2,319z M91.2,310c0.4-23.2,0.7-56.3,0.7-73.5v-31.3h41h41v11.5v11.5h-27
		h-27v8.3c0,4.6-0.3,13.1-0.7,19l-0.7,10.7h27.2h27.2v12v12h-27h-27v31v31h-14.2H90.5L91.2,310L91.2,310z M492.9,280.8
		c0-4.4-3.3-11.9-6.6-15.2c-10.6-10.6-27.9-3.8-32.9,12.9l-1.4,4.7h20.5H493L492.9,280.8L492.9,280.8z M460,353.6
		c-15.6-4.2-27.1-16.3-32.5-34.4c-0.9-3-1.9-10.2-2.2-16c-0.7-13.2,1.1-22.5,6.6-33.7c8.7-17.6,23.6-27.3,42-27.3
		c26.2,0,41.5,17.6,43.6,50.2l0.6,9.8h-33.7h-33.7v2.8c0,3.9,2.3,12,4.8,16.8c7.7,15.1,25.6,16.4,40.1,2.9l4.6-4.3l7.5,7l7.5,7
		l-6,5.4C495.1,352.6,476.1,357.9,460,353.6z M327.3,278.9c-1.5-8.9-6.9-15.7-14.2-17.8c-10.5-3.1-22.5,6-25.9,19.7l-0.6,2.3h20.7
		H328L327.3,278.9L327.3,278.9z M294.7,353.8c-21.9-6.3-34.9-26.5-34.9-54.1c0-35.3,21.6-59,52.2-57.3c24.4,1.4,38.9,20,40,51.3
		l0.3,8l-33.2,0.3l-33.2,0.3v3.4c0,6.1,3.9,16.4,7.8,20.8c9.1,10.1,20.9,10.4,33.3,1c3.4-2.6,6.8-5.1,7.5-5.7
		c0.9-0.6,2.9,0.6,6.7,4.3c3,2.9,6.3,5.9,7.4,6.7c1.8,1.4,1.6,1.7-3.3,6.2c-6.4,5.9-14.2,10.6-21.9,13.4
		C315.9,354.9,301.4,355.7,294.7,353.8L294.7,353.8z M350.9,517.9c0-22.7,0.3-47,0.7-54l0.7-12.8h12.3h12.3v6.6v6.6l4.8-3.9
		c10.4-8.5,18.3-11.5,30.3-11.5c12.6,0,20.2,4,24.8,13c3.7,7.2,4.1,13.5,3.4,56.2l-0.6,41h-13h-13l0.5-35.6
		c0.3-19.6,0.1-37.9-0.3-40.7c-1.1-6.7-4.1-9.8-10.3-10.5c-6.2-0.7-12.1,1.7-19.9,7.9l-6.2,5l-0.5,36.7l-0.5,36.7l-12.8,0.3
		l-12.8,0.3L350.9,517.9L350.9,517.9z M91.2,510.4c0.4-26.8,0.7-59.9,0.7-73.5v-24.8h14h14l-0.6,29.5l-0.6,29.5h32.7h32.7v-29.5
		v-29.5H198h14.2l-0.7,48.2c-0.4,26.5-0.7,59.6-0.7,73.5v25.3h-14.1h-14.1l0.7-32l0.7-32h-32.7h-32.7v23.8c0,13.1-0.3,27.5-0.6,32
		l-0.6,8.2H104H90.5L91.2,510.4L91.2,510.4z M1082.7,558.4c-6.6-3.4-10.3-8.5-12.5-17.2c-1.4-5.7-1.6-10.6-1.1-38.3l0.6-31.8h-7.5
		h-7.5l0.3-9.7l0.3-9.7l7.2,0.3l7.2,0.3V440c0-6.8,0.3-15.4,0.6-19.1l0.6-6.8h12.7h12.7l-0.5,19.1l-0.5,19.1l11.9-0.3l11.9-0.3
		l0.3,9.7l0.3,9.7H1108h-11.9l-0.7,16.2c-0.4,8.9-0.5,23.8-0.4,33.1l0.3,16.8l2.8,2.4c3.6,3.1,7.1,3,12.6-0.1
		c2.4-1.4,4.5-2.4,4.6-2.2s1.9,3.6,3.9,7.7c4.2,8.4,4.7,7.5-5.9,12.7c-6.4,3.2-7.7,3.4-16.1,3.4
		C1089.2,561.1,1087.5,560.8,1082.7,558.4L1082.7,558.4z M997.6,537.6c4.7-2,8.9-5.9,11.3-10.7c1.7-3.3,1.9-6,1.9-24.7
		c0-20.8,0-21-2.5-23.9c-1.4-1.6-4.8-4-7.7-5.2c-6.1-2.6-12.3-2.3-18.6,0.9c-17.9,9.1-21.3,42.8-5.8,58
		C983,538.7,990.4,540.6,997.6,537.6L997.6,537.6z M971.9,558.9c-7.4-2.5-9.6-4-16.1-10.3c-9.8-9.6-15.1-24.2-15-42
		c0.1-32.3,17.8-55.8,43-57.3c10-0.6,17.8,1.6,23,6.3l3.8,3.4l0.7-19.6c0.4-10.8,0.7-24.3,0.7-30v-10.3h13.2h13.2l-0.7,55.7
		c-0.4,30.6-0.7,66.6-0.7,80v24.3h-12.5H1012v-5.6V548l-5,4.5C997.3,561.1,984.9,563.3,971.9,558.9L971.9,558.9z M876.1,541.1
		c2-0.6,6-2.8,8.8-5l5-4v-12.4v-12.4l-7.2,2c-10.5,2.8-19.8,7.7-22.5,11.8c-4,6.1-2.5,16.2,2.9,18.8
		C868.2,542.4,870.6,542.6,876.1,541.1L876.1,541.1z M852.7,559.8c-15.9-5.7-23.5-22.1-18.3-39.6c3.8-12.6,20.9-22.8,46.7-27.7
		l8.9-1.7l-0.4-7.7c-0.3-6.4-0.7-8.1-2.7-10.2c-5.4-5.8-15.1-4-28.4,5.3l-8.7,6l-6-6.7c-7.2-8-7.5-7.3,6.9-16.7
		c11.5-7.5,17.7-10.2,26.4-11.5c12.9-1.8,22.9,1.2,30.2,9.2c7.2,7.8,7.5,10,7.2,47.8l-0.3,33.1l2.3,1.9c2.2,1.8,2.6,1.8,6.3,0.3
		c2.2-0.9,4.1-1.4,4.2-1.2c2.3,3.9,5.6,12.3,5.1,13c-0.4,0.6-3.8,2.6-7.7,4.4c-13,6.2-25.7,3.9-30.4-5.5l-2-4l-3.9,3.4
		c-2.2,1.9-6.6,4.8-9.8,6.4c-5.2,2.6-6.9,3-14,3C860,561.1,854.7,560.5,852.7,559.8L852.7,559.8z M784.3,558.8
		c-6.2-2.9-10.6-8.1-12.8-14.9c-1.4-4.3-1.6-10.3-1.6-38.9v-33.9h-7h-7v-9.8v-9.8l6.6,0.4c4.9,0.3,6.8,0.1,7.5-1
		c0.5-0.8,0.9-9.4,0.9-19.1V414H784h13l-0.2,18.8l-0.2,18.8h11.7H820v9.8v9.8h-12h-12V504c0,36.5,0,36.6,6.6,37.8
		c2.6,0.5,4.7,0.1,8.5-1.8l5-2.5l3.5,7c1.9,3.8,3.3,7.5,3.1,8.1s-3.5,2.7-7.3,4.6c-6.2,3.2-7.8,3.5-16.4,3.8
		C790.5,561.2,788.7,560.9,784.3,558.8z M687.1,560.2c-5.4-1.4-17.6-6.1-19.5-7.5c-1.7-1.3-1.6-1.9,2.7-10.4l4.5-9.1l7.4,3.5
		c14.8,7,27.4,6.8,32.3-0.6c3.3-4.9,3-9.5-1-13.5c-2.6-2.6-5.9-4.1-15.2-7c-19.3-6-24.2-9.3-28.7-19c-1.9-4.1-2.3-6.7-2.3-14.5
		c0-8.1,0.4-10.2,2.5-14.3c3.1-6.1,9.7-12.2,16.4-15.2c9-4.1,24.8-4.9,37.4-1.8c4.1,1,13,5,16.4,7.4l2.9,2.1l-5.1,7.7
		c-2.8,4.2-5.3,7.9-5.5,8.1s-2.6-0.8-5.4-2.4c-13-7.1-25.2-7.1-32-0.2c-2.3,2.4-2.9,3.9-2.9,7.1c0,6.6,5,10.4,19,14.5
		c18.6,5.5,27.5,12.2,30.7,22.9c3.6,12.3-1.1,27.6-10.5,34.5c-9.1,6.7-13.2,7.9-27.6,8.2C696.2,560.9,688.9,560.7,687.1,560.2
		L687.1,560.2z M624.4,485.9c-1.7-10.6-8-17.7-16.5-18.5c-7-0.7-11.3,1.2-16.4,6.8c-3.7,4.1-7.6,11.9-7.6,15.1
		c0,0.5,9.3,0.8,20.6,0.8h20.6L624.4,485.9L624.4,485.9z M590.4,559.7c-7.3-2.3-12.9-5.8-18.5-11.5c-23.2-23.7-19.2-72.3,7.5-91.3
		c9.4-6.7,21.1-9.4,33.3-7.6c22.3,3.2,34.1,19.4,36.8,50.6l0.7,8.2h-33.8h-33.8l0.6,6.2c0.7,6.7,4.4,15.9,7.9,19.7
		c3.7,3.9,9.7,6.5,15.7,6.5c6.6,0.1,14.3-3.3,20.8-9.4l4.3-4l5.7,4.9c10.3,8.9,10.1,8.1,3.5,14.1c-11.6,10.6-23,15.1-37.7,15
		C598.5,561,592.6,560.4,590.4,559.7L590.4,559.7z M482.7,559.6c-7.2-1.8-18.8-7-18.8-8.5c0-0.9,7.6-16.8,8.5-17.8
		c0.1-0.1,2.9,1.1,6.1,2.8c19.2,9.9,35.4,6.8,35.4-6.8c0-6.6-3.2-9.1-16.7-13.2c-19.5-6-25.4-9.8-30-19.8c-2.8-6-3.4-18.4-1.3-25
		c2.9-8.8,10.7-16.6,20.2-19.9c10.1-3.6,26.7-3.5,38.2,0.2c5.8,1.8,15.6,7.4,15.6,8.8c0,0.8-7.8,12.4-10,15c-0.4,0.4-4-0.8-7.9-2.7
		c-12.2-5.9-22.5-5.7-29.4,0.4c-2.7,2.5-3.2,3.5-3.2,7.5c0,6.7,3.3,9.3,17.6,14c16.2,5.3,21.1,7.9,26.1,13.4
		c5.2,5.8,6.7,10.3,6.7,20.3c0,13.3-6.5,22.8-20,29.2c-6.1,2.9-7.4,3.1-19,3.3C492.7,561,486.4,560.6,482.7,559.6L482.7,559.6z
		 M283.3,538.5c8.8-5.7,8.6-5.3,8.6-19.2c0-10.8-0.2-12.4-1.5-11.8c-0.8,0.3-4.3,1.3-7.7,2.2c-8.7,2.3-17.2,6.8-20.3,10.9
		c-4.9,6.4-2.9,17.1,3.8,20.2C270.7,542.8,278.2,541.8,283.3,538.5L283.3,538.5z M255.9,560.2c-8.3-2.5-14.1-7.4-18.1-15.1
		c-2-3.9-2.4-5.9-2.4-14.5c0-9.1,0.3-10.4,2.7-14.6c6.6-11.2,21.8-19.2,45-23.7l8.8-1.7v-6c0-8.2-2.3-12.6-7.5-14.3
		c-6.7-2.2-14.9,0.8-27.2,9.9l-5.2,3.9l-4.8-5.1c-7.7-8.2-7.9-8.6-5.2-11c5.4-4.6,20.5-14.1,25.6-15.9c21.7-8.1,42.6-0.9,47.8,16.5
		c1.3,4.3,1.4,9.9,0.8,37.2l-0.7,32.1l2.6,2.6c2.6,2.6,2.7,2.6,6.3,1.1c2-0.8,3.8-1.5,4-1.5s1.8,2.8,3.5,6.2
		c3.6,7.2,3.8,6.9-6.6,11.9c-11.7,5.6-24.2,3.2-28.9-5.6c-1.2-2.2-2.2-4.2-2.3-4.4s-1.9,1.3-4,3.3s-6.4,5-9.7,6.6
		c-5.2,2.6-6.9,2.9-14,2.9C262,561,257.2,560.6,255.9,560.2L255.9,560.2z M678.9,746.3c0-10.4,0.3-34.4,0.7-53.5l0.7-34.7h12.3h12.3
		v6.6v6.6l4.8-4.2c2.6-2.3,8.1-5.8,12.2-7.8c7.1-3.4,8-3.6,18-3.6c8.8,0,11.1,0.3,14.5,2.1c5.4,2.9,8.9,6.8,11.7,12.8
		c2.9,6.3,3.4,21,2.4,64.2l-0.7,30.3h-13h-13l0.7-36.8c0.7-40.3,0.4-43.8-4.7-47.5c-3.7-2.8-12-2.8-17.4,0c-2.2,1.2-6.6,4.2-9.8,6.7
		l-5.7,4.6v36.4v36.4h-13h-13V746.3L678.9,746.3z M395.9,711.6v-53.5h13h13v7.1v7.1l5-5.1c15.7-16.1,43-15.8,51.2,0.6l2.4,4.9
		l4.9-4.8c7.3-7.2,17.4-11.8,27.4-12.5c13.6-0.9,22.3,3.1,27.8,13l2.9,5.3l0.3,45.8l0.3,45.8h-13.2h-13.2l0.6-37.5
		c0.6-32.8,0.4-38-0.9-41.4c-3.9-9.7-14.3-10.1-25.7-1c-8.7,6.9-8.1,4-8.6,44.2l-0.4,35.8h-12.9h-12.9v-39c0-25.9-0.4-39.8-1.1-41.3
		c-1.5-3.4-6.6-6-11.5-6c-5.1,0-11.3,3.4-17.8,9.8l-4.6,4.5v36v36h-13h-13L395.9,711.6L395.9,711.6z M218.9,726.8
		c0-21.1,0.3-45.2,0.7-53.5l0.7-15.2H233h12.8v9.2v9.2l3-5.5c5.8-10.6,13.2-15.9,21.9-16c7.4,0,7.5,0.2,5.5,12.1
		c-2.4,14.6-1.9,13.8-6.6,13.1c-8.1-1.1-17.7,5.4-22.9,15.6c-2,3.9-2.1,5.7-2.1,36.6v32.5h-13h-13v-38.1L218.9,726.8L218.9,726.8z
		 M146.4,679c5-1.3,11.8-6.6,14.1-11.1c2-3.9,2-13.6,0-17.5c-4.2-8.1-12.5-11.3-29.3-11.3h-11.3v9.2c0,5.1-0.3,14.3-0.7,20.5
		l-0.6,11.2h11.7C136.7,680.1,143.9,679.7,146.4,679L146.4,679z M148.7,742.6c11.3-3.4,16.8-12.6,14.2-24.1
		c-2.8-12.5-14.1-18-35.6-17.2l-8,0.3l-0.3,21.2l-0.3,21.2H131C139.4,744.1,145.2,743.6,148.7,742.6z M91.2,723.9
		c0.4-22.7,0.7-55.8,0.7-73.5v-32.2h28.8c31.4,0,38,0.8,47.2,5.5c7,3.5,13,9.3,16.6,15.7c2.8,5,2.9,5.9,2.9,17.3
		c0,10.8-0.3,12.5-2.5,17c-3.4,6.9-9.7,12.9-15.9,15.2l-5.2,1.9l5.3,1.7c14,4.4,22.6,18.8,21.4,35.8c-0.9,13.6-7.8,24.4-19.6,30.7
		c-10.4,5.5-15.3,6.1-49.6,6.2H90.4L91.2,723.9L91.2,723.9z M634.9,694.8c0-3.3-3.3-11.9-5.6-14.7c-9.4-11.2-25.3-7.7-32.8,7.2
		c-4.6,9.2-5.5,8.7,17.9,8.7C630.7,696.1,634.9,695.9,634.9,694.8L634.9,694.8z M602.4,767c-16.1-3.8-29.8-18.8-34.1-37.5
		c-2.1-8.9-2.1-25.9,0-33.9c5.4-20.3,18.5-34.7,35.5-39.1c8.4-2.2,20.3-1.5,28.5,1.6c15.8,6,25.6,23.8,26.7,48.9l0.3,7.5l-33.7,0.3
		l-33.7,0.3l0.5,3.2c3.1,18.4,9.7,27.2,21.7,28.4c7.5,0.8,13.9-1.5,21.6-7.8l6.2-5l3.7,3c2,1.6,5.4,4.7,7.5,6.9l3.8,3.9l-6.8,5.7
		C635.8,765.6,618,770.7,602.4,767L602.4,767z M350.7,691.5c-3.2-17.2-18.9-23.5-31.1-12.6c-4,3.6-8.8,12-8.8,15.4
		c0,1.6,1.6,1.8,20.4,1.8h20.4L350.7,691.5L350.7,691.5z M317.9,766.5c-11.8-3.2-22.3-12.1-28-23.7c-4.9-10.1-6.5-17.7-6.4-31.2
		c0-10.2,0.5-13.2,2.7-20.1c7.9-24.2,26.6-37.8,49.7-36.1c11,0.8,18.4,3.9,25,10.6c9.2,9.4,13.6,20.9,14.7,38.8l0.6,10.2h-33.7
		h-33.7l0.7,4.2c2,13.2,6.6,21.3,14.4,25.4c8.6,4.5,18.9,2.5,28.6-5.7c3.2-2.7,6.1-5,6.4-4.9c0.3,0,3.7,2.9,7.5,6.5l7,6.5l-5.7,5.4
		c-7.2,6.9-14.4,10.9-23.8,13.5C335.2,768.5,325.7,768.7,317.9,766.5L317.9,766.5z"/>
</g>
</svg>
