<?xml version="1.0" encoding="utf-8"?>
<!-- Generator: Adobe Illustrator 19.0.0, SVG Export Plug-In . SVG Version: 6.00 Build 0)  -->
<svg version="1.1" id="Ebene_1" xmlns="http://www.w3.org/2000/svg" xmlns:xlink="http://www.w3.org/1999/xlink" x="0px" y="0px"
	 viewBox="0 0 10465 2013.4" style="enable-background:new 0 0 10465 2013.4;" xml:space="preserve">
<style type="text/css">
	.st0{fill:#FFFFFF;}
	.st1{fill:none;}
</style>
<g id="XMLID_2_">
	<path id="XMLID_89_" class="st0" d="M0,2162.3C0,1440.3,0,720.5,0,0c3476.6,0,6953.3,0,10429.7,0c0,720.8,0,1441.5,0,2162.3
		C6953.3,2162.3,3477.1,2162.3,0,2162.3z M3712.3,880.7c0-20,0.3-35.6-0.1-51.1c-1-40.6-26.7-67.7-64.2-68.3
		c-38-0.5-65.4,25.6-65.5,66.4c-0.6,204.3-0.4,408.5-0.2,612.8c0,27.2,11.6,48.5,36.9,60.4c45.1,21.1,92.6-10.7,92.8-62.9
		c0.5-134.2,0.1-268.3,0.3-402.5c0-10.8-0.9-23.6,4.3-31.9c46.2-73,103.4-129.8,197.5-132.5c87.2-2.5,133.5,33,148.6,118.2
		c3.8,21.5,5,43.7,5.1,65.6c0.5,125.2,0.2,250.3,0.3,375.5c0,48,24.7,76.9,64.9,76.6c40.4-0.3,65.1-29.3,65.1-76.8
		c0.1-131.2,0-262.3,0.2-393.5c0-10.8-0.4-22.7,3.6-32.3c31.2-75.2,127.8-136.2,209.1-133.1c86.4,3.2,124.1,36.2,138.6,122.9
		c3.3,19.6,4.6,39.8,4.6,59.7c0.4,126.2,0.1,252.3,0.2,378.5c0,45.9,24.3,74.4,63.4,74.8c40.6,0.4,65.9-28.5,66.1-75.8
		c0.2-63.1,0.5-126.2-0.1-189.2c-0.8-87,2.8-174.6-5.2-261c-9.3-101-55.7-185.9-158.9-215.7c-109.8-31.6-212.3-8.7-295.1,76.3
		c-16.5,17-30.4,36.5-45.9,55.3C4102.4,727.1,3857.5,689.2,3712.3,880.7z M2387.5,873.7c0-18.7,1.7-37.5-0.4-55.9
		c-4-36.2-31.9-58-68.8-56.2c-32.8,1.6-58.6,26-58.7,60.1c-0.6,208.2-0.5,416.4-0.1,624.6c0.1,30.7,23.4,55.5,52.8,60.2
		c29.5,4.8,60.9-11.4,70.5-39c4.5-12.8,5.1-27.5,5.2-41.3c0.4-129.1,0.1-258.2,0.4-387.4c0-11.8-1-25.9,4.7-35
		c46.5-74.1,104.8-131.5,200.2-132.8c82.4-1.1,131,34.3,145,109c4.6,24.4,6.8,49.6,7,74.5c0.7,126.1,0.2,252.2,0.5,378.4
		c0,11.8,0.6,24.4,4.7,35.1c11,28.7,40.5,43.7,70.5,38.2c31.1-5.8,52-30,52.1-63.8c0.5-134.1,0.1-268.3,0.4-402.4
		c0-11.8-0.9-25.8,4.8-34.9c46.3-74.2,104.1-131.9,199.5-134c84.3-1.8,133.8,35.1,147.4,113.4c4.2,24.5,6.2,49.7,6.3,74.6
		c0.6,125.1,0.1,250.2,0.6,375.4c0,12.6,1.4,26.4,6.5,37.7c12,26.8,41.4,39.8,70,33.7c30.7-6.6,50.4-31,50.5-65.2
		c0.2-142.1,0.3-284.3-0.4-426.4c-0.1-20.8-2.6-42.1-7.3-62.4c-22.2-96.5-72.6-172.7-174.6-192.2
		c-120.8-23.1-225.9,10.7-302.5,113.2c-5.8,7.8-11.5,15.6-17.8,24C2770.5,716.4,2526,699.6,2387.5,873.7z M9694.1,901.8
		c-50.6-64.2-98.9-125.4-147.2-186.6c-52-66-103.8-132.3-156.2-198c-21.3-26.7-58.8-34.7-85.8-19.9c-24.4,13.4-36.9,43.5-27.5,72.6
		c4.2,12.8,12.8,24.8,21.4,35.5c55.2,68.7,110.9,136.8,166.5,205.2c50.4,62,100.6,124.1,152.1,187.6
		c-57.5,70.8-113.6,139.8-169.7,208.8c-53,65.2-106.5,130.1-158.9,195.8c-31,38.9-19.8,85.5,22.8,100.9c26,9.4,51.8-0.6,74.8-30
		c91.9-117.4,183.7-235,275.6-352.4c7.2-9.2,14.9-17.9,23.8-28.6c11,13.6,19.9,24.3,28.5,35.1c91.6,115.1,183.1,230.3,275,345.3
		c8,10,17.2,20.2,28,26.3c25.9,14.8,58.1,8.2,76.5-13.3c22.1-25.7,22.1-55.2-1.6-84.5c-102.7-126.8-205.3-253.6-309.1-379.4
		c-15.5-18.8-17.5-30-1-50.1c101.9-123.5,202.2-248.4,303-372.8c30.1-37.1,29.6-73.4-1.3-97.2c-29.4-22.7-66.8-13.9-95,22.4
		c-7.4,9.5-14.7,19-22.1,28.4C9876.9,668.1,9786.9,783.1,9694.1,901.8z M886.6,1513.7c105.9,3.5,212.4-30.7,312.3-87.7
		c32-18.3,41.5-51.1,26.4-79.1c-14.8-27.5-48.3-36.7-81-19.8c-99.5,51.5-204.5,73.5-316.2,60.9c-140.7-15.8-243.6-83.7-298.8-217.2
		c-28.9-70-37.4-143.5-30-217.9c10.7-108.1,48.2-204.5,138.5-272.5c107.3-80.8,230-88,355.1-64.3c54.1,10.2,105.2,36.7,157.4,56.2
		c32,12,60.5,3.4,75-23.6c14-26.1,5.2-57.4-22-75.6c-10.8-7.2-22.2-13.5-33.8-19.4c-111.5-56.9-229.2-79.8-354.1-68.3
		c-133.5,12.4-248.2,62.9-332.8,168.8c-120.1,150.3-137.7,323-93.2,503C444.6,1380.6,632.7,1515.3,886.6,1513.7z M2073.9,1133.1
		c1.4-80.5-17.9-155.4-60.7-222.8c-68-107-170.4-152.7-293.8-156.8c-160.3-5.3-300.1,68.9-356.3,228.3
		c-21.4,60.7-26.9,122.5-24,185.9c13.1,284.2,322.3,446.3,565.1,295.9C2027.1,1387.6,2070.4,1270.4,2073.9,1133.1z M7830.5,1350.8
		c-6.5-14.3-10.8-22.8-14.4-31.7c-36.3-89.8-72.4-179.7-108.7-269.5c-33.3-82.4-66.2-165-100.2-247c-14.8-35.6-50.1-50.7-83.8-38.3
		c-29.1,10.7-45.4,45.4-36.7,79.7c2.2,8.6,6.1,16.9,9.5,25.2c84.1,205.1,168.8,410,251.7,615.6c6.6,16.4,6.6,39.4,0.7,56.2
		c-24.3,68.7-52.5,136-78.1,204.2c-5.1,13.5-9.2,29.7-6.7,43.3c4.8,26.2,21.1,45.1,49.6,49.1c30.9,4.4,53.3-9.5,65.7-36.4
		c18.4-39.9,34.3-80.9,51.2-121.5c112.9-271,225.9-542,338.4-813.1c6.3-15.3,11.1-32.7,10.7-49c-0.7-28.2-24.4-51.5-50.5-55.2
		c-34.5-4.9-57.6,7.1-71.6,40.5c-36.4,86.5-71.9,173.4-107.8,260.2C7910.6,1156.9,7871.8,1250.8,7830.5,1350.8z M5419.7,1389.7
		c0,14.2,0,27,0,39.8c0.2,47.3,24.9,77,64.6,77.5c39.8,0.5,64.9-28.8,64.9-76.9c0.2-198.2,0.2-396.4,0-594.7
		c0-47.4-23.1-73.8-63.5-74c-41.8-0.3-65.9,26.9-65.9,74.8c-0.1,132.1,0.2,264.3-0.4,396.4c0,11.3-1.1,25.6-7.7,33.5
		c-42.5,51.3-89.7,98.9-155.6,117.8c-103.7,29.7-215.1,10.5-231.6-125.8c-1.7-13.9-2-27.9-2-41.9c-0.1-127.1,0-254.3-0.1-381.4
		c0-46.9-23.1-73.4-63.5-73.5c-40.8,0-65.2,26.4-65.3,72.5c-0.3,134.1-0.4,268.3,0,402.4c0.2,58.1,14.1,112.9,43.9,163.1
		c83.8,141.2,267.6,135.9,366.2,76.2C5343.5,1451.4,5379,1420.2,5419.7,1389.7z M5907,879.6c0-19.6,0.4-36.3-0.1-52.9
		c-1.2-40.6-27.1-66-66-65.3c-36.9,0.7-61.2,26.3-61.3,66.6c-0.3,204.2-0.2,408.5,0.2,612.7c0,10.6,2.1,22.2,6.6,31.7
		c12.6,26.7,41.7,39.7,70.2,33.6c30.7-6.6,50.2-31,50.3-65.4c0.3-134.2,0-268.3,0.4-402.5c0-11.5,0.1-26.2,6.7-34.1
		c58.2-70.1,124.2-127.7,222-132.6c99.3-5,160.6,47.5,167.1,146.7c2.5,37.9,1.6,76,1.7,114.1c0.2,102.1-0.3,204.2,0.3,306.4
		c0.2,41.7,26.1,68.4,63.6,68.6c36.4,0.2,65.1-26.8,65.2-63.9c0.5-144.2,2.2-288.4-0.6-432.5c-2.4-124.3-80.1-224.7-191.6-249.7
		c-80.8-18.1-159.7-8.9-230.1,38.5C5977,822.8,5945.1,850.2,5907,879.6z M7059.6,876.7c0,15.6,0,27.3,0,39.1
		c0,140.1-0.6,280.2,0.3,420.4c0.4,59.8,17.3,115.5,72.6,146c82.3,45.4,168.9,42.7,254.2,6.4c28.1-12,39.4-39,31.6-63.8
		c-7.9-25.1-35.9-39.6-65.6-34.3c-19.7,3.5-39.3,8.3-59.1,9.5c-80.3,4.9-105.5-18.9-105.6-98.9c-0.2-130.1-0.1-260.2,0-390.3
		c0-10.6,1.2-21.3,1.8-32.3c10.2-0.7,17.1-1.5,24-1.5c48-0.2,96.1,0.6,144.1-0.8c28.6-0.8,49.3-25.2,49.4-53.9
		c0.1-29.2-19.9-51.4-49.4-53.6c-13.9-1-28-0.6-42-0.6c-41.6-0.1-83.2,0-128.1,0c0-38.4,1.4-72.3-0.7-106
		c-0.8-12.3-7.2-30.3-16.1-34.2c-8.8-3.8-27.1,3.5-35.8,11.8c-64.6,61.4-128.1,123.8-190.9,187c-7.6,7.7-14.1,24.5-10.7,32.9
		c3.4,8.5,19.5,15.7,30.5,16.5C6994,878.2,7024.1,876.7,7059.6,876.7z M9065.7,998.9c0-144.2,0.1-288.3-0.1-432.5
		c0-10.8-0.2-22.3-3.6-32.4c-10.6-32-38.4-47.5-73.3-42.4c-33.2,4.9-52.2,30.5-52.2,72.6c-0.2,289.3-0.2,578.7,0,868
		c0,46.7,24.1,74.5,63.5,74.8c40.4,0.3,65.7-28.6,65.7-75.7C9065.7,1287.2,9065.7,1143,9065.7,998.9z M6657.2,1134.1
		c0,100.1-0.1,200.1,0,300.2c0.1,43.9,24.1,71.8,62.1,72.7c39.8,0.9,66.7-27,66.7-71.8c0.3-201.1,0.3-402.3,0-603.4
		c-0.1-46-25.1-71.3-66.9-70.4c-38.5,0.8-61.8,27.8-61.8,72.5C6657.1,933.9,6657.2,1034,6657.2,1134.1z M8498.8,1153.4
		c45,0,90.1,0.5,135.1-0.1c36.3-0.5,59.1-21.1,60.3-52.7c1.3-32.7-19-59.1-53.7-59.9c-93-2-186.1-2-279.1,0
		c-34.5,0.7-54.1,27.4-52.5,60.8c1.5,31,23.3,51.2,57.8,51.8C8410.7,1153.8,8454.7,1153.3,8498.8,1153.4z M6721.8,614.2
		c44.6,0.2,77.1-30.5,77.7-73.5c0.6-42.7-31.5-75.2-75.4-76.5c-44.9-1.3-78.9,31.4-78.7,75.8C6645.5,583.6,6676.8,614,6721.8,614.2z
		"/>
	<path id="XMLID_88_" d="M3712.3,880.7c145.2-191.6,390-153.7,466.6,16.2c15.5-18.8,29.4-38.3,45.9-55.3
		c82.7-85,185.3-108,295.1-76.3c103.2,29.7,149.6,114.7,158.9,215.7c8,86.4,4.3,174,5.2,261c0.6,63.1,0.3,126.2,0.1,189.2
		c-0.2,47.3-25.5,76.1-66.1,75.8c-39-0.4-63.3-28.8-63.4-74.8c-0.1-126.2,0.2-252.3-0.2-378.5c-0.1-19.9-1.3-40.1-4.6-59.7
		c-14.5-86.7-52.2-119.6-138.6-122.9c-81.3-3-177.9,57.9-209.1,133.1c-4,9.6-3.6,21.5-3.6,32.3c-0.2,131.2-0.1,262.3-0.2,393.5
		c0,47.5-24.8,76.5-65.1,76.8c-40.2,0.3-64.8-28.7-64.9-76.6c-0.1-125.2,0.2-250.3-0.3-375.5c-0.1-21.9-1.3-44.1-5.1-65.6
		c-15.1-85.2-61.4-120.7-148.6-118.2c-94.1,2.7-151.3,59.5-197.5,132.5c-5.2,8.3-4.3,21.2-4.3,31.9c-0.3,134.2,0.1,268.3-0.3,402.5
		c-0.2,52.2-47.7,84-92.8,62.9c-25.3-11.8-36.9-33.2-36.9-60.4c-0.2-204.3-0.4-408.5,0.2-612.8c0.1-40.8,27.5-66.9,65.5-66.4
		c37.5,0.5,63.2,27.7,64.2,68.3C3712.6,845.2,3712.3,860.7,3712.3,880.7z"/>
	<path id="XMLID_87_" d="M2387.5,873.7c138.4-174.1,383-157.3,469,23.2c6.3-8.5,12-16.3,17.8-24c76.6-102.5,181.7-136.3,302.5-113.2
		c102,19.5,152.4,95.7,174.6,192.2c4.7,20.3,7.2,41.5,7.3,62.4c0.7,142.1,0.6,284.3,0.4,426.4c-0.1,34.1-19.7,58.6-50.5,65.2
		c-28.6,6.1-58.1-6.9-70-33.7c-5-11.3-6.4-25-6.5-37.7c-0.5-125.1,0.1-250.2-0.6-375.4c-0.1-24.9-2.1-50.1-6.3-74.6
		c-13.5-78.3-63.1-115.3-147.4-113.4c-95.4,2.1-153.2,59.8-199.5,134c-5.7,9.1-4.8,23.2-4.8,34.9c-0.3,134.1,0.1,268.3-0.4,402.4
		c-0.1,33.8-21.1,58.1-52.1,63.8c-30,5.6-59.5-9.5-70.5-38.2c-4.1-10.8-4.7-23.4-4.7-35.1c-0.3-126.1,0.2-252.2-0.5-378.4
		c-0.1-24.9-2.4-50.1-7-74.5c-14-74.6-62.7-110.1-145-109c-95.4,1.3-153.6,58.7-200.2,132.8c-5.7,9.1-4.7,23.2-4.7,35
		c-0.3,129.1,0,258.2-0.4,387.4c0,13.8-0.7,28.5-5.2,41.3c-9.6,27.5-41.1,43.7-70.5,39c-29.4-4.7-52.7-29.5-52.8-60.2
		c-0.5-208.2-0.5-416.4,0.1-624.6c0.1-34.1,25.9-58.5,58.7-60.1c36.9-1.8,64.7,20.1,68.8,56.2
		C2389.2,836.2,2387.5,855.1,2387.5,873.7z"/>
	<path id="XMLID_86_" d="M9694.1,901.8c92.8-118.7,182.8-233.8,272.7-348.8c7.4-9.5,14.8-18.9,22.1-28.4
		c28.3-36.3,65.6-45.1,95-22.4c30.9,23.8,31.4,60.1,1.3,97.2c-100.8,124.4-201.1,249.3-303,372.8c-16.5,20-14.6,31.2,1,50.1
		c103.8,125.8,206.4,252.7,309.1,379.4c23.7,29.3,23.6,58.7,1.6,84.5c-18.5,21.5-50.6,28.1-76.5,13.3c-10.9-6.2-20.1-16.4-28-26.3
		c-91.9-114.9-183.4-230.1-275-345.3c-8.6-10.8-17.5-21.5-28.5-35.1c-8.9,10.7-16.6,19.4-23.8,28.6
		c-91.9,117.5-183.6,235-275.6,352.4c-23,29.4-48.8,39.4-74.8,30c-42.6-15.3-53.9-62-22.8-100.9c52.4-65.7,105.9-130.6,158.9-195.8
		c56.1-69,112.1-138,169.7-208.8c-51.4-63.4-101.7-125.5-152.1-187.6c-55.5-68.4-111.3-136.6-166.5-205.2
		c-8.6-10.7-17.2-22.7-21.4-35.5c-9.5-29.1,3.1-59.2,27.5-72.6c27-14.8,64.5-6.9,85.8,19.9c52.4,65.7,104.1,132,156.2,198
		C9595.2,776.5,9643.5,837.7,9694.1,901.8z"/>
	<path id="XMLID_85_" d="M886.6,1513.7c-253.9,1.6-442-133.1-497.2-356.5c-44.5-180-26.9-352.7,93.2-503
		c84.6-105.9,199.3-156.4,332.8-168.8c124.9-11.6,242.7,11.4,354.1,68.3c11.6,5.9,23,12.2,33.8,19.4c27.2,18.2,36,49.6,22,75.6
		c-14.5,27.1-43,35.6-75,23.6c-52.3-19.6-103.3-46-157.4-56.2c-125.1-23.7-247.8-16.5-355.1,64.3c-90.4,68-127.8,164.4-138.5,272.5
		c-7.4,74.4,1.1,147.9,30,217.9c55.2,133.5,158.1,201.4,298.8,217.2c111.7,12.6,216.7-9.4,316.2-60.9c32.7-16.9,66.2-7.6,81,19.8
		c15.1,28,5.6,60.9-26.4,79.1C1099,1483,992.5,1517.2,886.6,1513.7z"/>
	<path id="XMLID_82_" d="M2073.9,1133.1c-3.5,137.3-46.8,254.5-169.7,330.6c-242.8,150.4-552-11.7-565.1-295.9
		c-2.9-63.4,2.6-125.2,24-185.9c56.2-159.4,196-233.6,356.3-228.3c123.4,4.1,225.8,49.7,293.8,156.8
		C2056,977.7,2075.3,1052.6,2073.9,1133.1z M1464,1130.3c2.6,22.8,4,45.7,7.9,68.3c17.6,101.2,84.8,172.8,180.4,193.5
		c96.4,20.8,196.7-15.2,247.4-95.3c58.1-91.7,61.9-190.6,20.6-289.7c-35.7-85.8-104.9-129.2-195.9-135.3
		c-87.1-5.8-162.2,21-213.1,96.4C1478.6,1016.7,1465.8,1071.8,1464,1130.3z"/>
	<path id="XMLID_81_" d="M7830.5,1350.8c41.3-100,80.1-193.9,118.9-287.8c35.9-86.7,71.3-173.7,107.8-260.2
		c14.1-33.4,37.2-45.4,71.6-40.5c26.1,3.7,49.8,27,50.5,55.2c0.4,16.3-4.4,33.7-10.7,49c-112.4,271.2-225.5,542.1-338.4,813.1
		c-16.9,40.6-32.8,81.6-51.2,121.5c-12.4,26.9-34.7,40.8-65.7,36.4c-28.5-4.1-44.8-22.9-49.6-49.1c-2.5-13.6,1.6-29.8,6.7-43.3
		c25.6-68.2,53.8-135.5,78.1-204.2c5.9-16.8,5.9-39.8-0.7-56.2c-82.9-205.6-167.5-410.5-251.7-615.6c-3.4-8.3-7.3-16.5-9.5-25.2
		c-8.7-34.3,7.6-69,36.7-79.7c33.7-12.3,69,2.8,83.8,38.3c34.1,82.1,67,164.6,100.2,247c36.3,89.8,72.4,179.7,108.7,269.5
		C7819.6,1328,7824,1336.5,7830.5,1350.8z"/>
	<path id="XMLID_80_" d="M5419.7,1389.7c-40.7,30.5-76.2,61.7-116,85.8c-98.6,59.8-282.4,65.1-366.2-76.2
		c-29.8-50.3-43.7-105.1-43.9-163.1c-0.5-134.1-0.3-268.3,0-402.4c0.1-46.1,24.5-72.5,65.3-72.5c40.4,0,63.5,26.5,63.5,73.5
		c0.1,127.1,0,254.3,0.1,381.4c0,14,0.4,28.1,2,41.9c16.4,136.3,127.9,155.5,231.6,125.8c65.9-18.9,113-66.5,155.6-117.8
		c6.6-7.9,7.7-22.2,7.7-33.5c0.5-132.1,0.3-264.3,0.4-396.4c0-47.8,24.1-75,65.9-74.8c40.4,0.3,63.5,26.7,63.5,74
		c0.2,198.2,0.2,396.4,0,594.7c0,48.1-25.1,77.4-64.9,76.9c-39.6-0.5-64.4-30.2-64.6-77.5
		C5419.7,1416.7,5419.7,1403.9,5419.7,1389.7z"/>
	<path id="XMLID_79_" d="M5907,879.6c38.1-29.4,69.9-56.8,104.6-80.1c70.4-47.4,149.3-56.6,230.1-38.5
		c111.6,25,189.2,125.4,191.6,249.7c2.8,144.1,1.1,288.3,0.6,432.5c-0.1,37.2-28.8,64.1-65.2,63.9c-37.5-0.2-63.3-26.9-63.6-68.6
		c-0.6-102.1-0.1-204.2-0.3-306.4c-0.1-38,0.8-76.2-1.7-114.1c-6.5-99.2-67.8-151.7-167.1-146.7c-97.8,4.9-163.8,62.5-222,132.6
		c-6.5,7.9-6.6,22.6-6.7,34.1c-0.4,134.2-0.1,268.3-0.4,402.5c-0.1,34.4-19.6,58.7-50.3,65.4c-28.6,6.2-57.6-6.9-70.2-33.6
		c-4.5-9.5-6.5-21-6.6-31.7c-0.4-204.2-0.4-408.5-0.2-612.7c0.1-40.3,24.4-65.9,61.3-66.6c38.9-0.7,64.8,24.7,66,65.3
		C5907.5,843.3,5907,860,5907,879.6z"/>
	<path id="XMLID_78_" d="M7059.6,876.7c-35.6,0-65.6,1.5-95.4-0.8c-11-0.8-27.1-8-30.5-16.5c-3.4-8.4,3-25.2,10.7-32.9
		c62.7-63.2,126.3-125.6,190.9-187c8.7-8.2,27-15.6,35.8-11.8c8.9,3.9,15.3,21.9,16.1,34.2c2.1,33.7,0.7,67.6,0.7,106
		c44.9,0,86.5,0,128.1,0c14,0,28.1-0.4,42,0.6c29.4,2.2,49.5,24.4,49.4,53.6c-0.1,28.6-20.9,53-49.4,53.9
		c-48,1.4-96.1,0.6-144.1,0.8c-6.9,0-13.8,0.8-24,1.5c-0.6,11.1-1.8,21.7-1.8,32.3c-0.1,130.1-0.2,260.2,0,390.3
		c0.1,80,25.3,103.8,105.6,98.9c19.8-1.2,39.4-6,59.1-9.5c29.7-5.3,57.7,9.2,65.6,34.3c7.8,24.8-3.5,51.9-31.6,63.8
		c-85.4,36.3-171.9,39-254.2-6.4c-55.3-30.5-72.2-86.2-72.6-146c-0.9-140.1-0.3-280.2-0.3-420.4
		C7059.6,904,7059.6,892.3,7059.6,876.7z"/>
	<path id="XMLID_77_" d="M9065.7,998.9c0,144.2,0,288.3,0,432.5c0,47.1-25.3,76-65.7,75.7c-39.4-0.3-63.4-28.2-63.5-74.8
		c-0.1-289.3-0.2-578.7,0-868c0-42.1,19-67.7,52.2-72.6c34.8-5.1,62.7,10.3,73.3,42.4c3.3,10.1,3.5,21.6,3.6,32.4
		C9065.8,710.5,9065.7,854.7,9065.7,998.9z"/>
	<path id="XMLID_76_" d="M6657.2,1134.1c0-100.1-0.1-200.1,0-300.2c0.1-44.7,23.3-71.7,61.8-72.5c41.8-0.9,66.8,24.4,66.9,70.4
		c0.4,201.1,0.3,402.3,0,603.4c-0.1,44.8-26.9,72.7-66.7,71.8c-38-0.9-62-28.8-62.1-72.7C6657.1,1334.2,6657.2,1234.2,6657.2,1134.1
		z"/>
	<path id="XMLID_75_" d="M8498.8,1153.3c-44,0-88.1,0.5-132.1-0.2c-34.5-0.5-56.3-20.7-57.8-51.8c-1.6-33.4,18-60,52.5-60.8
		c93-2,186.1-2,279.1,0c34.8,0.7,55,27.2,53.7,59.9c-1.2,31.6-24,52.2-60.3,52.7C8588.8,1153.8,8543.8,1153.4,8498.8,1153.3z"/>
	<path id="XMLID_74_" d="M6721.8,614.2c-45-0.2-76.3-30.6-76.5-74.2c-0.2-44.4,33.8-77.1,78.7-75.8c43.9,1.3,76,33.8,75.4,76.5
		C6798.9,583.7,6766.4,614.4,6721.8,614.2z"/>
	<path id="XMLID_73_" class="st0" d="M1464,1130.3c1.8-58.5,14.6-113.6,47.3-162.1c50.9-75.4,126-102.2,213.1-96.4
		c91,6.1,160.2,49.5,195.9,135.3c41.3,99.1,37.5,198-20.6,289.7c-50.7,80-151.1,116.1-247.4,95.3c-95.6-20.7-162.7-92.2-180.4-193.5
		C1468,1176,1466.6,1153.1,1464,1130.3z"/>
</g>
<rect id="_x3C_Slice_x3E_" x="-122" y="-339" class="st1" width="10587" height="2510"/>
</svg>
