<svg xmlns="http://www.w3.org/2000/svg" width="288" height="86"><path d="M105.2 27.31v31.44h15c3 0 5.3-.26 6.8-.72 3.6-1.15 6.4-3.42 8.2-6.81 1.2-2.31 1.8-5.13 1.8-8.41 0-5.4-1.8-9.57-5.4-12.56-2.4-1.95-5.5-2.94-9.6-2.94h-16.8zm34 0v31.44h8.8V27.31h-8.8zm27.8 0c-2.9 0-5.1.25-7 .72-1.8.48-3.4 1.26-4.6 2.38-3.3 2.77-4.9 6.94-4.9 12.53 0 4.62 1.4 8.44 4 11.44 1.5 1.61 3.1 2.76 5 3.4 1.9.64 4.4.97 7.5.97h11.9V40.5h-7.4V52h-2c-1.7 0-3.1-.1-4.3-.31-1-.24-1.8-.68-2.7-1.31-2.1-1.5-3.1-3.96-3.1-7.35 0-2.97.6-5.19 1.8-6.65 1.4-1.56 3.8-2.32 7.3-2.32h10.4v-6.75H167zm15.6 0v31.44h8.6V27.31h-8.6zm-68.7 6.75h6.3c2.7 0 4.8.9 6.2 2.72 1.2 1.56 1.8 3.58 1.8 6.03 0 3.55-1 6.1-3.1 7.63-1.3 1.05-3 1.56-4.9 1.56h-6.3V34.06z" fill="#c4161d"/><path d="M271.2 26.88c-5.4.12-9.6 1.7-12.6 4.96-2 2.17-3.1 4.77-3.6 7.75h-19.1c.2-2.11.7-3.57 1.7-4.37 1-.79 2.6-1.16 5-1.16h11.5v-6.75H242c-3.1 0-5.8.44-7.6 1.25-2 .83-3.6 2.19-5 4.13-2 2.81-3 6.11-3 9.93 0 5.84 1.8 10.26 5.6 13.19 1.5 1.08 3 1.81 4.5 2.25 1.6.44 3.6.69 6.1.69h11.5V52h-10.6c-2.5 0-4.5-.41-5.6-1.28-1.1-.86-1.9-2.33-2-4.41h19c.5 3.5 1.9 6.29 3.9 8.38 3 3 7.1 4.5 12.3 4.5 5.1 0 9.1-1.31 12-4 3.3-2.93 4.9-6.84 4.9-11.75 0-4.61-1.2-8.47-3.9-11.53-2.7-3.37-7-5.04-12.9-5.03zm-76.4.43v31.44h8.7V34.06h7.5c1.6 0 2.8.31 3.4 1 .7.68 1 1.83 1 3.38v20.31h8.7V39.41c0-4.38-1.1-7.57-3.3-9.57-1.1-.96-2.3-1.6-3.6-1.96-1.3-.37-3.2-.57-5.7-.57h-16.7zm76.6 6.19c5.1 0 7.7 3.24 7.7 9.5 0 6.38-2.6 9.56-7.7 9.56-2.9 0-5.2-1.14-6.5-3.44-.9-1.36-1.3-3.37-1.3-6 0-6.42 2.5-9.62 7.8-9.62zM42.97 0C25.21 0 9.954 10.78 3.406 26.16H29.12c5.58 0 10.5 2.73 13.57 6.9 3.07-4.17 8.02-6.9 13.59-6.9 9.28 0 16.85 7.55 16.84 16.84v13.06c0 4.32 2.68 8 6.44 9.53A42.79 42.79 0 0 0 85.97 43c0-23.75-19.25-43-43-43zm13.31 32.69c-5.69 0-10.31 4.62-10.31 10.31 0 9.29-7.56 16.84-16.85 16.84H3.406C9.954 75.22 25.21 86 42.97 86c13.06 0 24.77-5.83 32.65-15.03-5.36-2.81-9.03-8.45-9.03-14.91V43c0-5.69-4.63-10.31-10.31-10.31z" fill="#231f20"/><path d="M1.219 32.69A43.174 43.174 0 0 0 0 41.19h4.969c.638 0 1.198.37 1.437.93v1.26c-.238.53-.798.93-1.437.93H0c.092 3.09.51 6.1 1.219 9h8.25c.399-3.16.591-6.7.591-10.43 0-3.67-.206-7.1-.591-10.19h-8.25zm11.401 0c.38 3.12.57 6.56.57 10.19 0 3.72-.21 7.24-.6 10.43h16.53c5.69 0 10.32-4.62 10.32-10.31s-4.63-10.31-10.32-10.31h-16.5z" fill="#c4161d"/><path d="M174.152 77.31q0 .226-.169.395-.169.168-.394.168h-.263q-.244 0-.412-.15-.15-.168-.15-.412v-5.873q0-.526-.357-.863-.357-.338-.826-.338h-.806q-.47 0-.826.319-.357.319-.357.882v5.873q0 .225-.168.394-.17.168-.394.168h-.263q-.244 0-.413-.15-.15-.168-.15-.412v-7.862q0-.47.507-.47h.244q.206 0 .356.264l.169.337q.094.225.338.225.037 0 .994-.581.488-.3.976-.3h.281q.9 0 1.482.637.6.62.6 1.464v6.286zm8.208-4.446q0 .581-.3.863-.3.263-.788.263h-3.47v1.482q0 .525.3.844.318.3.919.3h1.932q.563 0 .563.526v.206q0 .225-.168.375-.15.15-.395.15h-2.495q-.826 0-1.445-.619-.6-.638-.6-1.52v-4.69q0-.863.638-1.464.638-.6 1.52-.6h1.632q.863 0 1.501.619.657.6.657 1.445v1.82zm-1.388-.038V71.25q0-.431-.3-.713-.281-.3-.713-.3h-1.144q-.413 0-.713.281-.3.282-.3.732v1.576h3.17zm8.179-3.114q0 .225-.168.375-.15.15-.394.15h-1.952v7.074q0 .225-.169.394-.169.168-.394.168h-.262q-.244 0-.413-.15-.15-.168-.15-.412v-7.074h-1.07q-.563 0-.563-.525v-.207q0-.225.15-.375.17-.15.413-.15h1.07v-3.227q0-.244.15-.394.169-.17.413-.17h.262q.244 0 .394.17.17.15.17.394v3.227h1.95q.563 0 .563.525v.207zm10.157-.188l-.019.131-1.313 7.337q-.056.375-.3.638-.225.243-.563.243h-.338q-.3 0-.544-.243-.225-.244-.319-.563l-.826-2.59-.431-1.444-.45 1.444-.826 2.59q-.094.281-.338.544-.244.262-.525.262h-.338q-.319 0-.563-.262-.244-.263-.3-.62l-1.313-7.336-.02-.131q0-.47.47-.525l.244-.038q.506-.094.6.432l.882 5.216q.094.563.169 1.444.019.263.056.676.057-.263.094-.45.113-.45.338-1.201l.882-2.796q.075-.244.244-.394.169-.15.431-.15h.507q.262 0 .431.15.17.15.244.394l.882 2.796q.188.638.32 1.182l.093.469q.037-.413.075-.9.056-.489.169-1.22l.882-5.216q.093-.526.6-.432l.244.038q.47.056.47.525zm7.936 6.248q0 .863-.6 1.482-.601.62-1.483.62h-1.783q-.881 0-1.482-.62-.6-.619-.6-1.482v-4.728q0-.863.638-1.464.638-.6 1.52-.6h1.632q.882 0 1.52.6t.638 1.464v4.728zm-1.389-.188V71.27q0-.432-.281-.732-.282-.3-.732-.3h-1.126q-.431 0-.732.3-.3.3-.3.732v4.315q0 .432.282.732.281.3.731.3h1.126q.432 0 .732-.3t.3-.732zm8.772-5.872q0 .225-.169.375-.15.15-.394.15h-2.045q-.45 0-.788.319t-.338.882v5.873q0 .225-.169.394-.169.168-.394.168h-.263q-.243 0-.412-.15-.15-.168-.15-.412v-7.862q0-.47.506-.47h.244q.206 0 .357.264l.168.337q.094.225.338.225.15 0 .75-.412.601-.413 1.202-.413h.994q.563 0 .563.525v.207zm6.981 7.542q0 .244-.244.413l-.244.169q-.112.094-.319.094-.337 0-.506-.263l-2.59-3.959-.619.62v2.983q0 .225-.169.394-.168.168-.394.168h-.262q-.244 0-.413-.15-.15-.168-.15-.412V65.753q0-.244.15-.394.169-.17.413-.17h.262q.244 0 .394.17.17.15.17.394v6.736l3.395-3.397q.17-.168.394-.168.207 0 .376.168l.15.15q.187.188.187.376 0 .206-.187.375l-2.702 2.72 2.796 4.222q.112.17.112.32zm10.762-1.482q0 .976-.525 1.539-.525.562-1.407.562h-3.17q-.564 0-.564-.525v-.206q0-.225.15-.376.17-.15.413-.15h2.89q.431 0 .656-.375.17-.281.17-.694v-.75q0-.32-.17-.526-.225-.281-.656-.281h-1.595q-.732 0-1.295-.507-.544-.507-.544-1.332v-1.22q0-.675.544-1.257.638-.694 1.595-.694h2.383q.563 0 .563.525v.207q0 .225-.169.375-.15.15-.394.15h-2.064q-.507 0-.788.263-.281.262-.281.694v.694q0 .357.262.657.282.281.77.281h1.538q.732 0 1.2.45.489.432.489 1.239v1.257zm8.002 0q0 .863-.6 1.482-.6.62-1.483.62h-1.782q-.882 0-1.482-.62-.6-.619-.6-1.482v-4.728q0-.863.637-1.464.638-.6 1.52-.6h1.632q.882 0 1.52.6t.638 1.464v4.728zm-1.388-.188V71.27q0-.432-.282-.732-.281-.3-.732-.3h-1.125q-.432 0-.732.3t-.3.732v4.315q0 .432.281.732t.732.3h1.126q.431 0 .731-.3t.3-.732zm5.526 1.726q0 .226-.17.395-.169.168-.394.168h-.262q-.244 0-.413-.15-.15-.168-.15-.412V65.753q0-.244.15-.394.169-.17.413-.17h.262q.244 0 .394.17.17.15.17.394V77.31zm8.725.094q0 .188-.131.338-.113.131-.3.131h-.282q-.263 0-.413-.262l-.169-.32q-.131-.187-.3-.187-.131 0-.732.413-.6.413-1.257.413h-.281q-.863 0-1.483-.62-.6-.637-.6-1.5v-6.267q0-.244.15-.394.169-.17.413-.17h.263q.243 0 .394.17.168.15.168.394v5.891q0 .507.338.845.338.337.845.337h.806q.507 0 .845-.337.337-.338.337-.845v-5.891q0-.244.15-.394.17-.17.413-.17h.263q.244 0 .394.17.169.15.169.394v7.861zm7.12-7.692q0 .225-.168.375-.15.15-.394.15h-1.952v7.074q0 .225-.169.394-.169.168-.394.168h-.262q-.244 0-.413-.15-.15-.168-.15-.412v-7.074h-1.07q-.563 0-.563-.525v-.207q0-.225.15-.375.17-.15.413-.15h1.07v-3.227q0-.244.15-.394.169-.17.413-.17h.262q.244 0 .394.17.17.15.17.394v3.227h1.95q.563 0 .563.525v.207zm3.027-2.927q0 .225-.169.394-.169.168-.394.168h-.262q-.244 0-.413-.15-.15-.169-.15-.412v-1.032q0-.244.15-.394.169-.17.413-.17h.262q.244 0 .394.17.17.15.17.394v1.032zm0 10.526q0 .225-.169.394-.169.168-.394.168h-.262q-.244 0-.413-.15-.15-.168-.15-.412v-7.768q0-.244.15-.394.169-.17.413-.17h.262q.244 0 .394.17.17.15.17.394v7.768zm8.726-1.539q0 .863-.6 1.482-.601.62-1.483.62h-1.782q-.882 0-1.483-.62-.6-.619-.6-1.482v-4.728q0-.863.638-1.464.638-.6 1.52-.6h1.632q.882 0 1.52.6t.638 1.464v4.728zm-1.389-.188V71.27q0-.432-.281-.732-.282-.3-.732-.3h-1.126q-.431 0-.731.3t-.3.732v4.315q0 .432.28.732.282.3.733.3h1.125q.432 0 .732-.3t.3-.732zm9.598 1.726q0 .226-.17.395-.168.168-.393.168h-.263q-.244 0-.413-.15-.15-.168-.15-.412v-5.873q0-.526-.356-.863-.357-.338-.826-.338h-.807q-.469 0-.825.319-.357.319-.357.882v5.873q0 .225-.169.394-.169.168-.394.168h-.262q-.244 0-.413-.15-.15-.168-.15-.412v-7.862q0-.47.506-.47h.244q.207 0 .357.264l.169.337q.093.225.337.225.038 0 .995-.581.488-.3.975-.3h.282q.9 0 1.482.637.6.62.6 1.464v6.286zM288 75.772q0 .976-.525 1.539-.526.562-1.408.562h-3.17q-.563 0-.563-.525v-.206q0-.225.15-.376.169-.15.412-.15h2.89q.432 0 .657-.375.169-.281.169-.694v-.75q0-.32-.17-.526-.224-.281-.656-.281h-1.595q-.732 0-1.295-.507-.544-.507-.544-1.332v-1.22q0-.675.544-1.257.638-.694 1.595-.694h2.383q.563 0 .563.525v.207q0 .225-.169.375-.15.15-.394.15h-2.064q-.506 0-.788.263-.281.262-.281.694v.694q0 .357.263.657.281.281.769.281h1.538q.732 0 1.201.45.488.432.488 1.239v1.257z" style="-inkscape-font-specification:'ChollaSansRegular Thin'" font-weight="100" font-size="15.01" font-family="ChollaSansRegular" letter-spacing="0" word-spacing="0" fill="#666"/></svg>