<svg baseProfile="basic" xmlns="http://www.w3.org/2000/svg" xmlns:xlink="http://www.w3.org/1999/xlink" width="112.177" height="39.076" viewBox="0 0 112.177 39.076"><defs><path id="a" d="M0 0h112.175v39.076H0z"/></defs><clipPath id="b"><use xlink:href="#a" overflow="visible"/></clipPath><path clip-path="url(#b)" fill="#D06" d="M55.245 22.254H0v5.67h55.353a14.01 14.01 0 0 1-.355-3.092c0-.883.092-1.742.247-2.578m51.432 0a19.372 19.372 0 0 1-1.701 5.67h7.201v-5.67h-5.5z"/><path clip-path="url(#b)" fill="#FC0" d="M100.642 5.247a19.565 19.565 0 0 1 4.221 5.669h7.314V5.247h-11.535zM0 10.916h69.837a19.547 19.547 0 0 1 4.221-5.669H0v5.669z"/><path clip-path="url(#b)" fill="#D06" d="M71.381 19.537c.002-8.821 7.148-15.967 15.971-15.969 8.818.002 15.965 7.148 15.967 15.969-.002 8.82-7.148 15.969-15.967 15.969-8.823 0-15.969-7.149-15.971-15.969m2.991 0c.015 7.166 5.811 12.965 12.979 12.977 7.166-.012 12.961-5.811 12.976-12.977-.015-7.165-5.81-12.963-12.976-12.978-7.168.015-12.964 5.813-12.979 12.978"/><path clip-path="url(#b)" fill="#D06" d="M75.99 19.538c0-6.275 5.085-11.36 11.358-11.36 6.274 0 11.357 5.085 11.359 11.36-.002 6.272-5.085 11.358-11.359 11.358-6.273 0-11.358-5.085-11.358-11.358m.599 0a10.772 10.772 0 0 0 10.76 10.759A10.774 10.774 0 0 0 98.11 19.538c-.012-5.943-4.818-10.752-10.761-10.762-5.943.01-10.75 4.819-10.76 10.762"/><path clip-path="url(#b)" fill="#D06" d="M58.287 24.832c0-5.913 4.792-10.705 10.703-10.705 5.914 0 10.703 4.792 10.705 10.705-.002 5.912-4.791 10.703-10.705 10.703-5.911 0-10.703-4.791-10.703-10.703m.599 0A10.118 10.118 0 0 0 68.99 34.939c5.582-.012 10.097-4.525 10.106-10.107A10.118 10.118 0 0 0 68.99 14.726a10.117 10.117 0 0 0-10.104 10.106"/><path clip-path="url(#b)" fill="#FC0" d="M82.332 22.551l3.993-4.563h4.218l-2.919 3.073h5.898v2.978H87.91l2.823 2.729H86.42zM66.719 25.002h-2.578l1.687-1.631h-3.355V21.59h3.526l-1.745-1.838h2.522l2.387 2.729z"/><path clip-path="url(#b)" d="M54.035 19.059c0 .191-.161.332-.301.332-.151 0-.27-.141-.27-.33v-3.072c0-.189.119-.33.27-.33s.301.17.301.33v3.072-.002zm1.007-6.149h-1.008v2.24s-.431-.44-.801-.44c-.549 0-.779.619-.779 1.07v3.49c0 .451.23 1.07.779 1.07.37 0 .801-.439.801-.439v.359h1.008v-7.35zm-4.637 2.779c.12 0 .24.03.24.24v4.331h1.009v-4.48c0-.451-.22-1.07-.759-1.07-.351 0-.741.49-.821.54v-.46h-1.009v5.47h1.009v-4.31c.001-.001.131-.261.331-.261m-4.866 3.301c0 1.149.539 1.35.809 1.35.41 0 .711-.33.811-.519h.07c0 .058 0 .338.09.439h.989a5.02 5.02 0 0 1-.07-.951v-3.36a1.23 1.23 0 0 0-1.229-1.239c-.771 0-1.36.66-1.36 1.459v.23h1.009c.009-.309-.05-.809.291-.809.28 0 .28.299.28.5v.6c-.102.33-1.69.451-1.69 2.3m.988-.15c0-.519.21-1.01.701-1.22v1.4c0 .18-.19.33-.421.33-.249 0-.28-.379-.28-.51m-1.676-5.93h-1.009v7.35h1.009v-7.35zm-3.081 2.779c.12 0 .24.03.24.24v4.331h1.009v-4.48c0-.451-.22-1.07-.759-1.07-.35 0-.741.49-.821.54v-.46H40.43v5.47h1.009v-4.31c-.001-.001.129-.261.331-.261m-3.175-1.77h1.009V12.91h-1.009v1.009zm1.009.871h-1.009v5.47h1.009v-5.47zm-3.438 1.36s0-.56.372-.56c.379 0 .36.56.36.56v.77h-.732v-.77zm.731 2.151v.6s.019.549-.36.549c-.372 0-.372-.549-.372-.549v-1.192h1.67v-1.59s.011-1.409-1.298-1.409c-1.3 0-1.31 1.44-1.31 1.44v2.751s0 1.439 1.3 1.439c1.308 0 1.308-1.41 1.308-1.41v-.629h-.938zm-3.689-2.612c.121 0 .241.03.241.24v4.331h1.008v-4.48c0-.451-.219-1.07-.758-1.07-.35 0-.742.49-.822.54v-2.34H31.87v7.35h1.008v-4.311c-.001 0 .13-.26.33-.26m-1.928-.979c-.741 0-.98.55-1.01.69v-.61h-1.008v5.47h1.008v-3.8c0-.17.04-.34.22-.5.321-.28.79-.13.79-.13v-1.12zm-6.688-1.8v7.35H25.6v-1.891l.13-.318.03-.08h.05l.02.08.5 2.209h.97l-.92-3.689.73-1.781h-.91l-.491 1.43-.059.18h-.05v-3.49h-1.008zm-2.077 2.779c.121 0 .241.03.241.24v4.331h1.009v-4.48c0-.451-.221-1.07-.759-1.07-.35 0-.741.49-.821.54v-.46h-1.009v5.47h1.009v-4.31c0-.001.129-.261.33-.261m-3.517 3.672c-.121 0-.24-.031-.24-.241v-4.33h-1.009v4.48c0 .451.22 1.07.759 1.07.35 0 .741-.49.821-.539v.459h1.008v-5.47h-1.008v4.31s-.13.261-.331.261m-2.416.899v-4.561h.51v-.909h-.51v-.14c0-.25-.02-.881.32-.881.17 0 .3.04.3.04v-.869s-.15-.07-.47-.07c-1.159 0-1.159 1.2-1.159 1.77V14.79h-.51v.909h.51v4.561h1.009zm-3.144-6.341h1.009V12.91h-1.009v1.009zm1.008.871h-1.009v5.47h1.009v-5.47zm-3.437 1.36s0-.56.37-.56c.381 0 .361.56.361.56v.77h-.731v-.77zm.732 2.151v.6s.02.549-.361.549c-.37 0-.37-.549-.37-.549v-1.192h1.67v-1.59s.01-1.409-1.3-1.409c-1.299 0-1.309 1.44-1.309 1.44v2.751s0 1.439 1.299 1.439c1.31 0 1.31-1.41 1.31-1.41v-.629h-.939zM9.527 14.71c-.74 0-.98.55-1.01.69v-.61H7.508v5.47h1.009v-3.8c0-.17.04-.34.22-.5.32-.28.79-.13.79-.13v-1.12zm-3.195 5.55v-4.561h.51v-.909h-.51v-.14c0-.25-.02-.881.32-.881.17 0 .3.04.3.04v-.869s-.15-.07-.47-.07c-1.159 0-1.159 1.2-1.159 1.77V14.79h-.51v.909h.51v4.561h1.009z"/></svg>