<svg id="Ebene_1" xmlns="http://www.w3.org/2000/svg" width="400" height="142.334" viewBox="0 0 400 142.334"><style>.st0{fill:#b2b2b2}.st1{fill:#fff}.st2{fill:#6eaa38}</style><path d="M6.99 61.99h36.179c12.618 0 15.668 6.89 15.668 16.12v4.03c0 7.021-2.811 15.081-12.199 15.081H20.266v11.83H6.99V61.99zm13.276 23.531h20.631c3.109 0 4.306-2.21 4.306-5.005v-1.82c0-3.185-1.436-5.005-5.441-5.005H20.266v11.83zM66.005 61.99H79.28v34.971h29.84v12.091H66.005V61.99zM114.734 61.99h13.275v27.171c0 5.98 1.974 8.32 7.415 8.32h13.155c5.442 0 7.416-2.34 7.416-8.32V61.99h13.275v30.291c0 11.7-5.562 17.291-17.761 17.291h-19.017c-12.198 0-17.76-5.591-17.76-17.291V61.99zM175.063 61.99h50.59v11.7h-18.657v35.361h-13.275V73.69h-18.657v-11.7zM231.447 61.99h47.361v10.92h-34.086v7.541h32.292v9.75h-32.292v7.54h34.863v11.311h-48.139V61.99zM304.754 85.456L285.021 61.99h17.162l13.455 16.445 13.455-16.445h17.162l-19.733 23.466 21.229 23.596h-17.82l-14.292-17.096-14.292 17.096h-17.82l21.227-23.596z"/><g><path class="st0" d="M371.295 11.167v35.569h-35.57V11.167h35.57m4.499-4.499h-44.567V51.235h44.567V6.668z"/><path class="st2" d="M353.237 28.982h40.069v40.069h-40.069z"/><path class="st1" d="M391.057 31.231v35.571h-35.57V31.231h35.57m4.499-4.498h-44.567V71.3h44.567V26.733z"/></g></svg>