<?xml version="1.0" encoding="UTF-8" standalone="no"?>
<svg
   xmlns:dc="http://purl.org/dc/elements/1.1/"
   xmlns:cc="http://creativecommons.org/ns#"
   xmlns:rdf="http://www.w3.org/1999/02/22-rdf-syntax-ns#"
   xmlns:svg="http://www.w3.org/2000/svg"
   xmlns="http://www.w3.org/2000/svg"
   xmlns:sodipodi="http://sodipodi.sourceforge.net/DTD/sodipodi-0.dtd"
   xmlns:inkscape="http://www.inkscape.org/namespaces/inkscape"
   version="1.2"
   width="170px"
   height="165px"
   viewBox="0 0 170 165"
   preserveAspectRatio="none"
   id="svg2"
   inkscape:version="0.48.4 r9939"
   sodipodi:docname="logo.pdf"
   inkscape:export-filename="/home/jplitza/Dokumente/Freifunk/Logo/logo.png"
   inkscape:export-xdpi="315"
   inkscape:export-ydpi="315">
  <metadata
     id="metadata50">
    <rdf:RDF>
      <cc:Work
         rdf:about="">
        <dc:format>image/svg+xml</dc:format>
        <dc:type
           rdf:resource="http://purl.org/dc/dcmitype/StillImage" />
        <dc:title></dc:title>
      </cc:Work>
    </rdf:RDF>
  </metadata>
  <defs
     id="defs48" />
  <sodipodi:namedview
     pagecolor="#ffffff"
     bordercolor="#666666"
     borderopacity="1"
     objecttolerance="10"
     gridtolerance="10"
     guidetolerance="10"
     inkscape:pageopacity="1"
     inkscape:pageshadow="2"
     inkscape:window-width="1366"
     inkscape:window-height="727"
     id="namedview46"
     showgrid="false"
     inkscape:zoom="2.8284271"
     inkscape:cx="36.648847"
     inkscape:cy="76.703069"
     inkscape:window-x="0"
     inkscape:window-y="23"
     inkscape:window-maximized="1"
     inkscape:current-layer="svg2" />
  <circle
     d="M 58,54 C 58,66.150264 48.150264,76 36,76 23.849736,76 14,66.150264 14,54 14,41.849736 23.849736,32 36,32 c 12.150264,0 22,9.849736 22,22 z"
     style="fill:none;stroke:#de2c68;stroke-width:1.14544892;stroke-miterlimit:4;stroke-opacity:1;stroke-dasharray:none"
     sodipodi:ry="22"
     sodipodi:rx="22"
     sodipodi:cy="54"
     sodipodi:cx="36"
     id="circle10-4"
     stroke-miterlimit="4"
     transform="matrix(-1.477616,0,0,1.5065066,95.592785,-36.839347)"
     r="22"
     cy="54"
     cx="36" />
  <!-- Designed by Monic Meisel and hand-coded as SVG by Alina Friedrichsen -->
  <circle
     style="fill:none;stroke:#de2c68;stroke-width:1.14544892;stroke-miterlimit:4;stroke-opacity:1;stroke-dasharray:none"
     sodipodi:ry="22"
     sodipodi:rx="22"
     sodipodi:cy="54"
     sodipodi:cx="36"
     id="circle10"
     stroke-miterlimit="4"
     transform="matrix(1.477616,0,0,1.5065066,-6.0998046,21.550322)"
     r="22"
     cy="54"
     cx="36" />
  <polygon
     style="fill:#ffcc33;fill-opacity:1"
     id="polygon16"
     transform="matrix(1.4493674,0,0,1.3737988,-5.6778406,26.489591)"
     points="31,44 26,44 30,48 22,48 22,52 30,52 26,56 31,56 37,50 " />
  <polygon
     style="fill:#ffcc33;fill-opacity:1"
     id="polygon18"
     transform="matrix(1.5159598,0,0,1.568926,-8.256112,16.75169)"
     points="81,59 75,53 88,53 88,47 75,47 81,41 73,41 64,50 73,59 " />
  <circle
     style="fill:none;stroke:#de2c68;stroke-width:1.06239557;stroke-miterlimit:4;stroke-opacity:1;stroke-dasharray:none"
     sodipodi:ry="22"
     sodipodi:rx="22"
     sodipodi:cy="44"
     sodipodi:cx="74"
     id="circle12"
     stroke-miterlimit="4"
     transform="matrix(1.5950476,0,0,1.6223254,-13.049816,14.807506)"
     r="22"
     cy="44"
     cx="74" />
  <g
     transform="scale(1.1199445,0.89290136)"
     id="g20">
    <text
       xml:space="preserve"
       style="font-size:24px;font-style:normal;font-variant:normal;font-weight:normal;font-stretch:normal;line-height:125%;letter-spacing:0px;word-spacing:0px;fill:#000000;fill-opacity:1;stroke:none;font-family:Swiss 911;-inkscape-font-specification:Swiss 911"
       x="15.927656"
       y="161.2103"
       id="text3002"
       sodipodi:linespacing="125%"
       transform="scale(0.89290139,1.1199445)"><tspan
         sodipodi:role="line"
         id="tspan3004"
         x="15.927656"
         y="161.2103">bremen.freifunk.net</tspan></text>
  </g>
  <path
     style="fill:#ffb400;fill-opacity:1"
     d="m 29.750021,68.040994 c -0.208874,-0.04524 -0.327139,-0.0539 -0.974549,-0.0712 -0.494678,-0.01326 -0.766389,-0.04779 -0.860549,-0.109497 -0.04541,-0.02976 -0.04389,-0.01158 -0.0512,-0.613105 -0.0032,-0.25941 -0.04595,-0.392184 -0.187942,-0.582788 -0.130414,-0.175078 -0.391999,-0.442194 -0.533605,-0.544894 -0.05956,-0.04319 -0.173454,-0.144377 -0.253105,-0.224845 -0.174889,-0.176691 -0.196947,-0.231929 -0.179321,-0.449019 0.01342,-0.165526 0.122426,-0.637214 0.169623,-0.734091 0.01694,-0.03474 0.04968,-0.124077 0.07278,-0.198517 0.02311,-0.07445 0.0773,-0.235381 0.120429,-0.357629 0.09287,-0.263258 0.15053,-0.529995 0.151515,-0.700971 5.41e-4,-0.116722 0.01353,-0.189424 0.106591,-0.601751 0.02127,-0.09429 0.0546,-0.248597 0.07405,-0.342898 0.01943,-0.0943 0.05141,-0.224958 0.07102,-0.29036 0.05905,-0.196925 0.08749,-0.357667 0.108464,-0.612937 0.02944,-0.358203 0.08734,-0.872012 0.116857,-1.03678 0.04384,-0.244549 0.06836,-0.458771 0.08169,-0.712866 0.01483,-0.282432 0.05766,-0.45258 0.159065,-0.631657 0.03653,-0.06451 0.07618,-0.139506 0.08809,-0.166646 0.02944,-0.06704 0.18142,-0.227069 0.248662,-0.261808 0.03009,-0.01553 0.09125,-0.05859 0.135923,-0.09566 0.04465,-0.03707 0.109638,-0.08163 0.144377,-0.09903 0.03474,-0.01743 0.08753,-0.05163 0.117306,-0.07609 0.172881,-0.141979 0.235685,-0.202521 0.285625,-0.27531 0.03063,-0.04465 0.07454,-0.09618 0.09756,-0.114471 0.07988,-0.06347 0.260206,-0.320434 0.372664,-0.53104 0.06219,-0.116452 0.135993,-0.24797 0.164015,-0.29226 0.02803,-0.04432 0.0618,-0.117388 0.07506,-0.16243 0.01326,-0.04503 0.06462,-0.20119 0.114141,-0.346995 0.04952,-0.145811 0.09826,-0.316353 0.108301,-0.378995 0.01007,-0.06264 0.05489,-0.243716 0.09966,-0.402401 0.123546,-0.437946 0.142141,-0.746544 0.08268,-1.371831 -0.0094,-0.09926 -0.02241,-0.273871 -0.02879,-0.388017 -0.02738,-0.487929 -0.04508,-0.67034 -0.0721,-0.74249 -0.01353,-0.03615 -0.02971,-0.129537 -0.03599,-0.207543 -0.0063,-0.07801 -0.02749,-0.218979 -0.04714,-0.313274 -0.01964,-0.0943 -0.04346,-0.224239 -0.05293,-0.288759 -0.0094,-0.06452 -0.02175,-0.129488 -0.02738,-0.144376 -0.0056,-0.01488 -0.02138,-0.08798 -0.03496,-0.162425 -0.01358,-0.07445 -0.0408,-0.212506 -0.06041,-0.306807 -0.01959,-0.0943 -0.05276,-0.260774 -0.07371,-0.369968 -0.04513,-0.235652 -0.07175,-0.324655 -0.09079,-0.303955 -0.02581,0.02809 -0.05754,0.623896 -0.0666,1.250839 -0.0049,0.342114 5.41e-4,1.012118 0.01245,1.488899 0.03004,1.213325 0.02619,1.541974 -0.02073,1.758333 -0.02057,0.09483 -0.05201,0.209637 -0.06996,0.25514 -0.01791,0.04551 -0.03842,0.122859 -0.04551,0.171906 -0.0071,0.04903 -0.03301,0.154145 -0.05764,0.233553 -0.04259,0.137395 -0.205876,0.574031 -0.238493,0.637728 -0.0084,0.01651 -0.0302,0.06657 -0.04838,0.111229 -0.02949,0.07263 -0.178525,0.326977 -0.232621,0.397038 -0.01147,0.01488 -0.03193,0.0555 -0.04541,0.09024 -0.02879,0.07414 -0.119173,0.214535 -0.202299,0.31421 -0.03236,0.0388 -0.07197,0.0916 -0.088,0.117307 -0.04551,0.073 -0.245236,0.249051 -0.403992,0.356103 -0.281133,0.189576 -0.511888,0.273199 -0.744401,0.269773 -0.135214,-0.0022 -0.209129,-0.04746 -0.217739,-0.134002 -0.0085,-0.08539 0.07921,-0.266023 0.1506,-0.310146 0.07937,-0.04903 0.287768,-0.272117 0.332556,-0.355962 0.01992,-0.03729 0.06758,-0.09215 0.105926,-0.121928 0.05964,-0.04633 0.183866,-0.221987 0.222447,-0.314551 0.0065,-0.01559 0.04849,-0.07092 0.09337,-0.122957 0.04486,-0.05201 0.102413,-0.138688 0.127898,-0.192563 0.02549,-0.0539 0.05657,-0.108756 0.06909,-0.121955 0.0965,-0.10184 0.164216,-0.254128 0.222393,-0.500155 0.02435,-0.103074 0.08001,-0.269557 0.123655,-0.369974 0.08384,-0.192909 0.126766,-0.328643 0.146211,-0.462299 0.0065,-0.04465 0.0276,-0.144414 0.04687,-0.221652 0.08051,-0.322571 0.0953,-0.898307 0.04064,-1.583075 -0.0038,-0.04465 -0.01088,-0.174607 -0.01624,-0.288753 -0.0054,-0.114152 -0.01845,-0.288759 -0.02906,-0.388017 -0.01061,-0.09926 -0.01824,-0.206531 -0.01694,-0.23838 0.0027,-0.06239 -0.01716,-0.192401 -0.05981,-0.393276 -0.09641,-0.454074 -0.151894,-0.909841 -0.174678,-1.43476 -0.01012,-0.23326 -0.02295,-0.527593 -0.02841,-0.654088 -0.0065,-0.150898 -0.0027,-0.250178 0.01055,-0.288753 0.01131,-0.03231 0.03301,-0.119683 0.04822,-0.194133 0.02543,-0.12445 0.06409,-0.262186 0.09884,-0.35192 0.02046,-0.05293 0.05898,-0.176636 0.06385,-0.205211 0.02814,-0.165092 0.04632,-0.213117 0.222036,-0.587236 0.07521,-0.160119 0.222393,-0.401064 0.271099,-0.443785 0.0057,-0.0049 0.02646,-0.04026 0.04622,-0.0784 0.03675,-0.07094 0.324996,-0.388509 0.487102,-0.536614 0.04963,-0.04535 0.203933,-0.168892 0.342898,-0.274542 0.138965,-0.105654 0.281084,-0.22597 0.315828,-0.267392 0.07035,-0.08386 0.136995,-0.130695 0.374206,-0.262998 0.03875,-0.02165 0.12583,-0.08947 0.193456,-0.150757 0.06763,-0.06127 0.176691,-0.137363 0.242363,-0.16906 0.06567,-0.03171 0.200621,-0.110385 0.29988,-0.17485 0.09926,-0.06447 0.200773,-0.127465 0.225591,-0.139982 0.02484,-0.01256 0.08167,-0.05517 0.126328,-0.09475 0.04465,-0.03961 0.122589,-0.09228 0.173151,-0.11709 l 0.09194,-0.04513 0.01212,-0.500058 c 0.0067,-0.275039 0.01634,-0.699044 0.02154,-0.942235 0.01055,-0.495825 0.01596,-0.559717 0.05347,-0.632246 0.03891,-0.07526 0.131686,-0.556162 0.151336,-0.784454 0.01705,-0.197862 0.01732,-0.198711 0.083,-0.255779 0.03626,-0.0315 0.09575,-0.07047 0.1322,-0.0866 0.03648,-0.01613 0.08039,-0.03707 0.09762,-0.04649 0.01726,-0.0094 0.04486,-0.01715 0.06142,-0.01715 0.03572,0 0.25652,-0.101526 0.295258,-0.135767 0.01488,-0.01315 0.09859,-0.05277 0.186004,-0.08795 0.163112,-0.06571 0.206163,-0.09119 0.367597,-0.217528 0.05136,-0.04021 0.126605,-0.09308 0.167188,-0.117496 0.09823,-0.05909 0.30022,-0.298219 0.383855,-0.45442 0.03702,-0.06915 0.0838,-0.146682 0.103961,-0.172323 0.02019,-0.0256 0.03664,-0.0548 0.03664,-0.06482 0,-0.01001 0.02841,-0.07733 0.06317,-0.149561 0.03474,-0.07223 0.06322,-0.142109 0.06328,-0.155297 5.4e-5,-0.01315 0.01218,-0.04714 0.02695,-0.07546 0.03669,-0.0704 0.09761,-0.380386 0.11643,-0.59267 0.0086,-0.09621 0.02159,-0.184803 0.02906,-0.196871 0.02711,-0.04389 0.04925,-0.565194 0.0551,-1.29757 l 0.006,-0.748959 -0.06145,-0.162425 -0.06146,-0.162419 -0.168166,0.0043 c -0.674643,0.01672 -1.058882,0.01077 -1.221215,-0.01883 -0.192893,-0.03523 -0.459117,-0.116219 -0.643389,-0.19581 -0.06948,-0.03004 -0.152727,-0.0623 -0.184987,-0.07179 -0.03226,-0.0094 -0.05865,-0.02484 -0.05865,-0.0342 0,-0.01515 -0.06435,-0.0634 -0.191655,-0.143749 -0.0236,-0.01488 -0.04291,-0.03474 -0.04291,-0.04405 -1.6e-5,-0.0093 -0.03253,-0.0473 -0.07222,-0.08432 -0.03972,-0.03702 -0.07219,-0.07119 -0.07219,-0.07593 0,-0.0111 -0.126193,-0.19889 -0.141655,-0.210769 -0.01705,-0.0131 -0.08847,-0.139132 -0.138093,-0.24364 -0.05826,-0.122696 -0.131047,-0.414447 -0.162657,-0.651961 -0.03312,-0.249019 -0.03485,-0.577305 -0.0032,-0.638416 0.01283,-0.02484 0.03826,-0.101964 0.05655,-0.171446 0.01829,-0.06948 0.06138,-0.187152 0.09575,-0.261483 0.03437,-0.07434 0.06676,-0.161521 0.07198,-0.193727 0.0054,-0.0322 0.02067,-0.0678 0.03426,-0.0791 0.01364,-0.01136 0.02473,-0.02787 0.02473,-0.03686 0,-0.0594 0.308414,-0.339315 0.505323,-0.458624 0.108469,-0.06572 0.127346,-0.07107 0.250508,-0.07107 0.175094,0 0.193018,0.02289 0.123054,0.157316 -0.07577,0.145562 -0.180858,0.314606 -0.224412,0.360974 -0.04156,0.04421 -0.148538,0.243943 -0.148922,0.278 -1.19e-4,0.01109 -0.01586,0.05582 -0.03496,0.09927 -0.06115,0.139013 -0.11157,0.453332 -0.100708,0.627744 0.01126,0.18089 0.01353,0.19022 0.08466,0.344581 0.112652,0.244603 0.130885,0.27196 0.255145,0.382826 0.06996,0.06241 0.14396,0.130469 0.164455,0.151245 0.06456,0.06544 0.142374,0.110665 0.24055,0.139791 0.05222,0.01548 0.141589,0.04795 0.198516,0.07213 0.05694,0.02419 0.140063,0.05385 0.184727,0.06595 0.04465,0.01207 0.09987,0.02928 0.12267,0.03815 0.02278,0.009 0.1414,0.01618 0.263555,0.01618 0.211732,0 0.232546,-0.0032 0.44582,-0.0741 0.123049,-0.04075 0.255703,-0.08949 0.294787,-0.108285 0.03907,-0.01878 0.08375,-0.0342 0.09926,-0.0342 0.01553,0 0.08458,-0.02847 0.15349,-0.06316 0.06892,-0.03469 0.137948,-0.06317 0.153404,-0.06323 0.01548,0 0.05136,-0.01223 0.0798,-0.02706 0.02841,-0.01483 0.06123,-0.02695 0.07289,-0.02695 0.02733,0 0.150747,-0.06287 0.188889,-0.09622 0.03566,-0.03117 0.325754,-0.181539 0.363479,-0.188423 0.05304,-0.0097 0.263085,-0.102278 0.344717,-0.151975 0.04578,-0.02787 0.09706,-0.05065 0.113978,-0.05065 0.01694,0 0.09229,-0.02841 0.167485,-0.06318 0.07519,-0.03474 0.152662,-0.06316 0.172161,-0.06316 0.05761,0 0.418371,-0.07434 0.434412,-0.08953 0.0081,-0.0076 0.0027,-0.05766 -0.01158,-0.111094 -0.04963,-0.183087 -0.05369,-1.228061 -0.0064,-1.65534 0.04768,-0.430872 0.07036,-0.510453 0.175624,-0.615713 0.218416,-0.218427 0.316332,-0.376089 0.403992,-0.650495 0.02695,-0.08437 0.06463,-0.194171 0.08373,-0.243992 0.0191,-0.04984 0.03474,-0.09679 0.03474,-0.104389 0,-0.0075 0.04562,-0.113004 0.101402,-0.234266 0.05577,-0.121246 0.124012,-0.305729 0.15165,-0.409955 0.02765,-0.104221 0.09267,-0.295074 0.144517,-0.424108 0.09196,-0.228866 0.136221,-0.375348 0.179959,-0.595565 0.01185,-0.05955 0.02803,-0.140253 0.03599,-0.179343 0.01061,-0.05195 0.0074,-0.08192 -0.01191,-0.111418 -0.02224,-0.03393 -0.02295,-0.05705 -0.0043,-0.145497 0.01207,-0.05784 0.02549,-0.149815 0.02976,-0.204415 0.0068,-0.08672 0.0171,-0.108832 0.08133,-0.175056 0.06713,-0.06917 0.07212,-0.08077 0.05715,-0.132703 -0.01201,-0.04156 -0.03826,-0.06825 -0.09762,-0.0991 -0.04465,-0.02322 -0.09339,-0.05385 -0.108285,-0.068 -0.01488,-0.01418 -0.07297,-0.04811 -0.129083,-0.07531 -0.0561,-0.02722 -0.126112,-0.07153 -0.155563,-0.09843 -0.02944,-0.0269 -0.081,-0.05892 -0.114557,-0.07114 -0.03355,-0.01223 -0.138083,-0.06034 -0.232291,-0.106937 -0.164872,-0.08152 -0.178141,-0.08493 -0.35395,-0.09078 -0.15691,-0.0054 -0.195702,0 -0.275245,0.03377 -0.129959,0.0559 -0.246692,0.14304 -0.313712,0.234186 l -0.05724,0.07783 0.0049,0.317424 c 0.0049,0.324082 0.02441,0.594916 0.05627,0.77566 0.0098,0.05568 0.03831,0.210888 0.06337,0.344879 0.02506,0.134007 0.04551,0.26559 0.04551,0.292422 -5e-6,0.02684 0.0074,0.06744 0.01634,0.09024 0.01732,0.04389 0.06473,0.358944 0.08367,0.555804 0.0062,0.06452 0.02354,0.166035 0.03853,0.225592 0.05374,0.213415 0.09551,1.051841 0.05619,1.127947 -0.03675,0.07113 -0.277155,0.184148 -0.389851,0.18326 -0.11052,-0.0011 -0.159816,-0.02912 -0.18523,-0.106077 -0.01061,-0.03215 -0.04643,-0.11427 -0.07964,-0.182475 -0.03317,-0.06819 -0.113205,-0.285587 -0.177806,-0.483092 -0.0646,-0.197504 -0.133239,-0.391582 -0.152532,-0.431278 -0.04421,-0.09106 -0.171359,-0.483 -0.210714,-0.649705 -0.04086,-0.173048 -0.12622,-0.575286 -0.189598,-0.893333 -0.01878,-0.0943 -0.05406,-0.248603 -0.07834,-0.342899 -0.05522,-0.214351 -0.128644,-0.58709 -0.159979,-0.812135 -0.02711,-0.194576 -0.01569,-0.654089 0.01997,-0.803098 0.01185,-0.04963 0.03047,-0.126783 0.04135,-0.171452 0.0223,-0.09168 0.0744,-0.203668 0.125906,-0.270705 0.07199,-0.09369 0.332529,-0.34746 0.384488,-0.37447 0.02976,-0.01548 0.08257,-0.05033 0.117312,-0.07749 0.09833,-0.0768 0.336745,-0.174232 0.502801,-0.205458 0.17359,-0.03263 0.651264,-0.0381 0.778052,-0.0088 0.04438,0.01028 0.129662,0.04151 0.189495,0.06952 0.05983,0.02798 0.165634,0.06782 0.235116,0.08849 0.06948,0.02067 0.165185,0.06228 0.212679,0.09247 0.04752,0.0302 0.09209,0.0549 0.0991,0.0549 0.0322,0 0.278693,0.133639 0.287146,0.155676 0.0054,0.01364 0.01813,0.02479 0.02863,0.02479 0.02051,0 0.415984,0.196563 0.586235,0.291383 0.05702,0.03177 0.184234,0.09759 0.282686,0.146304 0.231112,0.11434 0.237092,0.11361 0.498986,-0.06082 0.133531,-0.08893 0.444781,-0.243115 0.522148,-0.258674 0.03474,-0.0069 0.115954,-0.03961 0.180474,-0.07254 0.06452,-0.0329 0.153852,-0.06575 0.198521,-0.07298 0.04465,-0.0071 0.119515,-0.03247 0.166338,-0.05606 0.04681,-0.0236 0.0996,-0.04302 0.117307,-0.04313 0.0177,-1.19e-4 0.09715,-0.02928 0.17656,-0.0648 0.07941,-0.03555 0.21341,-0.08375 0.29778,-0.107151 0.246752,-0.06844 0.378622,-0.112203 0.42079,-0.139619 0.07128,-0.04633 0.162826,-0.06434 0.382313,-0.07513 0.256715,-0.01261 0.381257,-0.04384 0.374319,-0.09377 -0.01353,-0.09743 -0.07098,-0.266056 -0.09459,-0.27761 -0.01488,-0.0073 -0.07575,-0.02841 -0.135246,-0.04697 -0.172242,-0.05374 -0.274347,-0.150578 -0.415807,-0.394472 -0.01775,-0.03063 -0.02208,-0.03047 -0.09023,0.0038 -0.118237,0.05974 -0.280613,0.100692 -0.30409,0.0767 -0.0269,-0.02749 0.04308,-0.08323 0.204935,-0.163329 0.0751,-0.03713 0.135506,-0.08096 0.153392,-0.111235 0.03052,-0.05163 0.04957,-0.05905 0.195053,-0.07578 0.07883,-0.0091 0.253479,-0.07025 0.289652,-0.101477 0.0082,-0.0071 0.0056,-0.141811 -0.006,-0.299338 -0.01689,-0.231328 -0.02976,-0.308983 -0.0671,-0.403733 -0.06113,-0.155249 -0.05931,-0.327436 0.0049,-0.463598 0.08634,-0.183109 0.04362,-0.270953 -0.154372,-0.317554 -0.184992,-0.04357 -0.611546,-0.258783 -0.706388,-0.35645 -0.02879,-0.02966 -0.05287,-0.08035 -0.06086,-0.127995 -0.0204,-0.121993 -0.07788,-0.226917 -0.155687,-0.284147 -0.09475,-0.06967 -0.286231,-0.253257 -0.286231,-0.274428 0,-0.01586 -0.962681,-0.984036 -1.075318,-1.081438 -0.02868,-0.02484 -0.07888,-0.06168 -0.111521,-0.08195 -0.09003,-0.05587 -0.363495,-0.285549 -0.364415,-0.306065 -0.0011,-0.02349 -0.108323,-0.108908 -0.155623,-0.123909 -0.04346,-0.0138 -0.106299,0.0467 -0.170786,0.164519 -0.02311,0.04221 -0.0473,0.0767 -0.05385,0.0767 -0.0065,0 -0.02111,0.03047 -0.03242,0.06768 -0.15027,0.494732 -0.20218,0.686402 -0.218724,0.807616 -0.01082,0.0794 -0.02895,0.172621 -0.04021,0.207137 -0.02554,0.07812 -0.121025,0.215434 -0.203928,0.293326 -0.06221,0.05845 -0.06262,0.05983 -0.0433,0.147007 0.02056,0.09271 0.0132,0.575503 -0.0096,0.626921 -0.02019,0.04557 -0.0934,0.07013 -0.209107,0.07013 -0.117241,0 -0.192141,-0.02208 -0.236561,-0.06977 -0.04081,-0.04378 -0.08302,-0.184326 -0.106478,-0.354339 -0.03112,-0.225651 -0.106531,-0.572565 -0.129429,-0.595467 -0.0043,-0.0043 -0.03566,0.02939 -0.06999,0.07456 -0.03437,0.04513 -0.08839,0.111803 -0.120099,0.148095 -0.05125,0.05867 -0.06174,0.0635 -0.0945,0.04346 -0.02029,-0.01239 -0.06511,-0.02257 -0.09965,-0.02257 -0.0616,0 -0.06301,0.0016 -0.0746,0.08901 -0.01299,0.0978 -0.05931,0.187568 -0.111132,0.215309 -0.07336,0.03924 -0.25849,-0.109302 -0.353332,-0.283558 -0.03626,-0.06659 -0.05453,-0.134667 -0.06721,-0.250145 -0.0096,-0.08724 -0.02592,-0.199246 -0.03626,-0.248873 -0.0329,-0.157451 -0.01142,-0.829388 0.02857,-0.894151 0.0049,-0.0076 0.01651,-0.110612 0.02614,-0.22879 0.01678,-0.205584 0.06002,-0.393196 0.121615,-0.527858 0.01575,-0.03442 0.0594,-0.147353 0.09699,-0.250908 0.03761,-0.103555 0.07493,-0.193121 0.08299,-0.199047 0.0081,-0.006 0.0302,-0.03918 0.04919,-0.07394 0.019,-0.03474 0.0596,-0.09243 0.09024,-0.1282 0.03063,-0.03577 0.08006,-0.09586 0.109838,-0.133542 0.02976,-0.03767 0.06226,-0.07529 0.07219,-0.08358 0.08617,-0.07199 0.139095,-0.107852 0.216565,-0.146715 0.280884,-0.140902 0.34733,-0.182118 0.536906,-0.332983 0.136925,-0.108967 0.150048,-0.149659 0.08774,-0.272063 -0.01873,-0.03685 -0.04438,-0.101477 -0.057,-0.143662 -0.02116,-0.07092 -0.0276,-0.0767 -0.08493,-0.0767 -0.03409,0 -0.120131,0.01651 -0.191156,0.03675 -0.07102,0.02019 -0.173795,0.04957 -0.228389,0.06523 -0.14455,0.04151 -0.449051,0.196514 -0.46441,0.236426 -0.0049,0.01239 -0.01997,0.02257 -0.03382,0.02257 -0.01385,0 -0.02517,0.007 -0.02517,0.01564 0,0.0086 -0.03047,0.03588 -0.06767,0.06058 -0.09953,0.06607 -0.243618,0.209989 -0.303116,0.302758 -0.02863,0.04465 -0.06454,0.09452 -0.07977,0.110791 -0.10592,0.11314 -0.207343,0.250632 -0.231128,0.313317 -0.05568,0.146769 -0.119855,0.453841 -0.133899,0.640689 -0.0086,0.114135 -0.01845,0.472208 -0.02192,0.795689 -0.0064,0.595971 -0.01039,0.632338 -0.07695,0.698855 -0.04454,0.04454 -0.145297,0.06153 -0.218502,0.0368 -0.130268,-0.04394 -0.213951,-0.152083 -0.269693,-0.348499 -0.07902,-0.278471 -0.08413,-0.321527 -0.08478,-0.713646 -4.76e-4,-0.327712 0.0057,-0.423074 0.04048,-0.613602 0.03934,-0.21578 0.121328,-0.548466 0.144545,-0.586539 0.0061,-0.0099 0.01239,-0.02614 0.01407,-0.0361 0.02885,-0.170543 0.165851,-0.497455 0.258951,-0.617857 0.02121,-0.02744 0.07676,-0.0989 0.123416,-0.158772 0.07553,-0.09695 0.276809,-0.310806 0.635266,-0.675005 0.132325,-0.13444 0.238786,-0.19305 0.55955,-0.308084 0.488617,-0.17524 0.783858,-0.235068 1.290296,-0.261483 0.289992,-0.01515 0.654538,0.01515 0.736765,0.06118 0.0315,0.01764 0.112869,0.05428 0.180771,0.08138 0.148289,0.0592 0.248424,0.112777 0.275429,0.147326 0.02056,0.0263 0.184586,0.09326 0.382313,0.156028 0.0624,0.01981 0.163918,0.06986 0.225591,0.111234 0.06168,0.0414 0.136502,0.08685 0.166278,0.101071 0.02976,0.01423 0.07044,0.03999 0.09036,0.05726 0.03106,0.02695 0.227589,0.135728 0.43918,0.243082 0.03317,0.01683 0.06449,0.04151 0.06961,0.05482 0.0049,0.01331 0.01943,0.02425 0.03182,0.02425 0.01239,0 0.05846,0.02641 0.102348,0.05866 0.0935,0.06873 0.140696,0.09946 0.178049,0.115953 0.01488,0.0065 0.05217,0.0329 0.08288,0.05854 0.03069,0.0256 0.07442,0.05877 0.09717,0.07366 0.02273,0.01488 0.05449,0.03972 0.07053,0.05514 0.01602,0.01542 0.06556,0.05604 0.110055,0.09023 0.04448,0.0342 0.09363,0.07436 0.109194,0.08924 0.01559,0.01488 0.05632,0.04741 0.09056,0.0722 0.03426,0.02484 0.08719,0.07151 0.117675,0.103766 0.03047,0.03225 0.06172,0.05866 0.06941,0.05866 0.0077,0 0.03832,0.01732 0.068,0.03848 0.04768,0.03399 0.06176,0.03599 0.120088,0.01748 0.04091,-0.01299 0.08899,-0.04995 0.126323,-0.09713 0.07085,-0.08954 0.190642,-0.225137 0.392871,-0.444721 0.08047,-0.08736 0.173189,-0.198555 0.206022,-0.247061 0.03285,-0.04849 0.07022,-0.10039 0.08307,-0.115272 0.01283,-0.01488 0.08256,-0.09528 0.154919,-0.178655 0.151844,-0.174936 0.226219,-0.264464 0.337567,-0.406335 0.04384,-0.05583 0.125035,-0.139668 0.180468,-0.186296 0.127199,-0.106997 0.202575,-0.182654 0.325164,-0.326398 0.05352,-0.06277 0.142699,-0.143028 0.198159,-0.178368 0.05547,-0.03534 0.104908,-0.06926 0.109871,-0.07539 0.0049,-0.0061 0.06587,-0.04903 0.135355,-0.0953 0.06948,-0.04627 0.183179,-0.129434 0.252656,-0.184749 0.09086,-0.07233 0.273275,-0.173573 0.649705,-0.360562 l 0.523371,-0.26 0.288753,-0.04838 c 0.158815,-0.02663 0.309058,-0.05185 0.333877,-0.05606 0.02484,-0.0043 0.229878,-0.0081 0.455691,-0.0087 0.225819,-0.0011 0.410573,-0.0077 0.410573,-0.01597 0,-0.0081 -0.03599,-0.04216 -0.07997,-0.0756 -0.044,-0.03345 -0.08385,-0.07508 -0.08861,-0.09259 -0.01218,-0.04492 -0.116505,-0.08371 -0.278784,-0.103636 -0.155222,-0.01905 -0.422512,-0.06583 -0.542832,-0.09497 -0.08465,-0.02051 -0.182882,-0.09106 -0.182882,-0.131378 0,-0.04086 0.14791,-0.225629 0.203744,-0.254501 0.02895,-0.01499 0.152067,-0.03577 0.277881,-0.04692 l 0.225862,-0.02002 0.0388,-0.06513 c 0.02132,-0.03583 0.04773,-0.08105 0.05868,-0.100519 0.03972,-0.07075 0.289018,-0.04968 0.361634,0.03058 0.01656,0.01829 0.03961,0.03328 0.05125,0.03328 0.01163,0 0.04021,0.02029 0.06351,0.04513 0.048,0.05103 0.07219,0.05737 0.07219,0.01878 0,-0.05174 0.0947,-0.118048 0.16854,-0.118048 0.0772,0 0.190605,0.04649 0.205016,0.08406 0.0049,0.01331 0.01856,0.025 0.02993,0.02592 0.01136,0.0011 0.06529,0.05206 0.119888,0.11355 0.0937,0.105563 0.180473,0.171105 0.180473,0.136313 0,-0.03399 0.114168,-0.1433 0.149664,-0.1433 0.02284,0 0.08079,0.04557 0.147477,0.115943 0.121068,0.127805 0.164189,0.22209 0.182205,0.398402 0.0061,0.05956 0.01461,0.111846 0.01894,0.116208 0.0043,0.0043 0.06212,-0.01018 0.128455,-0.03236 0.11887,-0.03967 0.121257,-0.03978 0.166532,-0.0061 0.07536,0.05609 0.248846,0.328253 0.270223,0.423907 0.03729,0.166874 0.02803,0.211413 -0.06113,0.294457 -0.05417,0.05044 -0.125148,0.09124 -0.217116,0.124781 -0.07516,0.02738 -0.139712,0.05479 -0.143457,0.06086 -0.02127,0.03442 0.02625,0.126301 0.136048,0.263177 0.14699,0.1832 0.19015,0.266413 0.216413,0.41724 0.01683,0.09666 0.01532,0.118394 -0.0112,0.158831 -0.01689,0.02576 -0.03648,0.04687 -0.04351,0.04687 -0.0203,0 -0.08152,-0.07603 -0.109054,-0.135344 -0.02614,-0.05638 -0.140599,-0.171452 -0.170505,-0.171452 -0.0095,0 -0.07187,-0.03247 -0.138705,-0.07219 -0.127177,-0.07555 -0.159859,-0.08805 -0.127134,-0.0486 0.01077,0.01299 0.07322,0.120564 0.138819,0.239127 0.08267,0.149431 0.120256,0.237108 0.122518,0.285803 0.0016,0.03864 -0.0049,0.07266 -0.01478,0.07561 -0.0099,0.0032 -0.06678,-0.05033 -0.126328,-0.118406 -0.122382,-0.139874 -0.164546,-0.159513 -0.146059,-0.06806 0.04957,0.245045 0.04952,0.30615 -3.57e-4,0.449466 -0.05163,0.148262 -0.07531,0.174195 -0.233748,0.255865 -0.153094,0.07892 -0.198018,0.07861 -0.350696,-0.0022 -0.09943,-0.05277 -0.142537,-0.0874 -0.166755,-0.134067 -0.05401,-0.104047 -0.10284,-0.308706 -0.120602,-0.505258 -0.0092,-0.101994 -0.02489,-0.209803 -0.03485,-0.239573 -0.01,-0.02977 -0.02327,-0.100438 -0.0296,-0.157002 -0.01218,-0.108994 -0.05892,-0.195773 -0.135463,-0.251552 -0.04205,-0.03063 -0.05688,-0.03123 -0.217577,-0.0085 -0.09485,0.01342 -0.200426,0.03864 -0.234613,0.05598 -0.08711,0.04421 -0.471564,0.280797 -0.504311,0.310318 -0.01488,0.01342 -0.0486,0.04043 -0.07485,0.05996 -0.05676,0.04227 -0.144154,0.171489 -0.249988,0.369722 -0.04237,0.07941 -0.09084,0.164687 -0.107668,0.1895 -0.05457,0.0805 -0.108052,0.257478 -0.136324,0.451173 -0.01521,0.104226 -0.03139,0.201687 -0.03588,0.216575 -0.0082,0.02679 -0.02885,0.230165 -0.06417,0.630337 -0.01077,0.121988 -0.01169,0.225208 -0.0022,0.252662 0.02841,0.08279 -0.0067,0.572435 -0.05125,0.714181 -0.05499,0.174937 -0.237265,0.502974 -0.298836,0.5378 -0.01402,0.008 -0.02549,0.02424 -0.02549,0.03626 0,0.01201 -0.01943,0.04281 -0.04313,0.06838 -0.02376,0.0256 -0.05647,0.07017 -0.07275,0.09907 -0.01629,0.0289 -0.05839,0.08909 -0.09359,0.133758 -0.141357,0.179418 -0.158501,0.203165 -0.194874,0.269893 -0.02078,0.03815 -0.05406,0.09101 -0.07389,0.117496 -0.133889,0.178579 -0.20638,0.280689 -0.243873,0.343515 -0.0237,0.03972 -0.06111,0.09249 -0.08314,0.117307 -0.121804,0.137222 -0.241481,0.288541 -0.241481,0.305329 0,0.0105 -0.01623,0.02939 -0.0361,0.04178 -0.01986,0.01239 -0.0361,0.02993 -0.0361,0.03891 0,0.05157 -0.467218,0.552466 -0.515318,0.552466 -0.03485,0 -0.296806,0.228714 -0.296806,0.259139 0,0.0038 -0.03729,0.06242 -0.0829,0.130414 -0.130939,0.195269 -0.173855,0.293088 -0.189354,0.431603 -0.0078,0.06948 -0.02311,0.179115 -0.03409,0.24363 -0.01315,0.07736 -0.01813,0.40312 -0.01472,0.956511 l 0.0054,0.839189 0.0506,0.09025 c 0.02782,0.04963 0.0578,0.09748 0.06664,0.106342 0.02235,0.0224 0.32512,0.118762 0.373962,0.119022 0.0387,0 0.07544,0.01412 0.266813,0.101131 0.04963,0.02257 0.141471,0.05518 0.204096,0.0725 0.06779,0.01873 0.120992,0.04481 0.13148,0.06439 0.0097,0.01813 0.02657,0.0329 0.03756,0.0329 0.03832,0 0.06789,0.06383 0.06846,0.14771 5.41e-4,0.112339 0.02538,0.173265 0.100763,0.249328 0.03442,0.03474 0.111407,0.126101 0.171073,0.203024 0.05966,0.07693 0.118459,0.140962 0.130663,0.142288 0.03317,0.0038 0.387762,0.01207 0.653839,0.01564 l 0.234613,0.0032 0.108285,-0.06362 c 0.05955,-0.03501 0.140767,-0.08718 0.180474,-0.115991 0.07939,-0.05759 0.305551,-0.188375 0.511709,-0.295908 0.07299,-0.0381 0.154691,-0.08487 0.181544,-0.103999 0.06828,-0.0486 0.715546,-0.372908 0.811448,-0.406543 0.15421,-0.05412 0.602725,-0.02782 0.706086,0.04135 0.02484,0.01661 0.05412,0.03426 0.0651,0.03923 0.08501,0.03837 0.302077,0.249534 0.395106,0.384331 0.112783,0.163421 0.207587,0.288385 0.253983,0.334786 0.02338,0.02338 0.04784,0.05997 0.05432,0.0813 0.0065,0.02132 0.02148,0.05098 0.03334,0.06585 0.02208,0.02776 0.09142,0.265947 0.110347,0.379049 0.0058,0.03474 -0.0022,0.124093 -0.01764,0.198522 -0.03848,0.184435 -0.03642,0.207132 0.02684,0.299149 0.04578,0.06658 0.05419,0.09458 0.04963,0.165678 l -0.0055,0.08556 -0.134538,0.07633 c -0.074,0.042 -0.202835,0.101049 -0.286301,0.131253 -0.132173,0.04784 -0.171885,0.05427 -0.307619,0.05 l -0.155855,-0.0049 -0.135355,0.09274 c -0.07444,0.05103 -0.163777,0.108095 -0.198521,0.126863 -0.0878,0.04741 -0.271668,0.168568 -0.31966,0.210623 -0.02197,0.01927 -0.05532,0.044 -0.07412,0.05504 -0.110948,0.06506 -0.1983,0.134262 -0.315921,0.250264 -0.0729,0.07191 -0.172534,0.16728 -0.221408,0.211949 -0.04887,0.04465 -0.12129,0.12163 -0.160904,0.17104 -0.03961,0.04941 -0.128883,0.153457 -0.198365,0.231198 -0.06948,0.07775 -0.149215,0.171316 -0.177188,0.207943 -0.02798,0.03664 -0.07061,0.09049 -0.09475,0.119693 -0.02414,0.02922 -0.04389,0.06 -0.04389,0.06841 0,0.0083 -0.01699,0.03826 -0.03777,0.06638 -0.03631,0.04914 -0.03734,0.06493 -0.02673,0.418869 0.0061,0.202283 0.01082,0.400275 0.01061,0.439976 -2.38e-4,0.03972 0.0078,0.129039 0.01791,0.198522 0.01007,0.06948 0.03918,0.27144 0.06463,0.448807 0.02549,0.177361 0.05385,0.339776 0.06299,0.360936 0.01948,0.04497 0.143034,0.768083 0.143034,0.837197 0,0.06517 0.04275,0.195291 0.178493,0.543569 0.111316,0.285549 0.158068,0.344781 0.283271,0.358895 0.09217,0.01039 0.0884,0.0064 0.187979,0.193776 0.04221,0.07941 0.07896,0.146947 0.08165,0.150075 0.0027,0.0032 0.05421,-0.01921 0.114481,-0.04963 0.06028,-0.03041 0.124142,-0.05531 0.141909,-0.05531 0.114114,0 0.658786,-0.216738 0.979361,-0.389716 0.129623,-0.06994 0.732781,-0.368274 0.744563,-0.368274 0.02268,0 0.594883,-0.286723 0.623685,-0.312527 0.01672,-0.01499 0.08727,-0.04871 0.156748,-0.07498 0.06948,-0.02625 0.166933,-0.06431 0.216564,-0.08458 0.04963,-0.02029 0.183634,-0.07143 0.29778,-0.113686 0.392092,-0.145134 0.506958,-0.189971 0.60253,-0.235187 0.05266,-0.02489 0.104605,-0.0453 0.115402,-0.0453 0.05222,0 0.253766,-0.102586 0.301736,-0.153565 0.102332,-0.108754 0.451297,-0.418202 0.559468,-0.496116 0.05956,-0.04291 0.149437,-0.115266 0.199734,-0.160828 0.05033,-0.04557 0.139089,-0.123438 0.19731,-0.173075 0.280949,-0.23949 0.676764,-0.613089 0.676764,-0.638773 0,-0.01688 0.09499,-0.116051 0.282697,-0.295172 0.137731,-0.131426 0.181047,-0.146038 0.257943,-0.08694 0.03799,0.02917 0.04357,0.0466 0.03907,0.121414 -0.0056,0.09333 -0.08022,0.433622 -0.113086,0.515963 -0.01088,0.02728 -0.02695,0.04963 -0.03566,0.04963 -0.0087,0 -0.01586,0.01147 -0.01586,0.02554 0,0.01407 -0.0065,0.02825 -0.01461,0.03155 -0.02928,0.01207 -0.111716,0.204144 -0.111716,0.260319 0,0.06435 -0.06118,0.27584 -0.103929,0.359301 -0.02565,0.05011 -0.114373,0.167875 -0.189338,0.251374 -0.01737,0.01932 -0.0316,0.04091 -0.0316,0.048 0,0.007 -0.03242,0.0644 -0.07206,0.127432 -0.09359,0.148857 -0.198647,0.350723 -0.198647,0.381717 0,0.02457 0.01483,0.04151 0.12182,0.139646 0.03226,0.02955 0.05877,0.05979 0.05891,0.06715 2.38e-4,0.0074 0.05087,0.06774 0.112793,0.134186 0.144479,0.155108 0.186876,0.20526 0.19823,0.234505 0.01607,0.0414 0.180587,0.252164 0.203792,0.261061 0.03859,0.01483 0.178964,0.15757 0.219396,0.223135 0.02132,0.03458 0.05255,0.13188 0.0694,0.216245 0.01683,0.08438 0.03664,0.161521 0.044,0.171452 0.0074,0.0099 0.0178,0.04697 0.02322,0.08234 0.01066,0.06953 0.04373,0.148825 0.172518,0.413339 0.08372,0.17196 0.208447,0.325477 0.264432,0.325477 0.02332,0 0.189868,0.15053 0.189868,0.171593 0,0.0064 0.188667,0.190685 0.290431,0.283568 0.08358,0.0763 0.225278,0.248749 0.308144,0.375012 0.03583,0.0546 0.112744,0.142109 0.170926,0.194457 0.226112,0.203479 0.243435,0.224732 0.234202,0.287276 -0.0049,0.03171 -0.02673,0.0823 -0.04903,0.112468 -0.04232,0.05724 -0.240658,0.163134 -0.371591,0.198387 -0.04081,0.01099 -0.136351,0.04827 -0.212328,0.08293 -0.178525,0.08136 -0.222701,0.08038 -0.339932,-0.0075 -0.107966,-0.08094 -0.217122,-0.117832 -0.267999,-0.0906 -0.01845,0.0099 -0.0335,0.02424 -0.0335,0.03193 0,0.0076 -0.01699,0.03225 -0.03777,0.05456 -0.03951,0.04243 -0.03626,0.128676 0.0049,0.128676 0.0374,0 0.141227,0.09151 0.141227,0.124478 0,0.04903 -0.04676,0.132665 -0.103074,0.184277 -0.09366,0.08586 -0.305448,0.114477 -0.45548,0.06154 -0.04172,-0.01472 -0.140675,-0.07562 -0.219947,-0.135355 -0.07927,-0.05974 -0.146795,-0.10861 -0.150053,-0.10861 -0.0032,0 -0.0675,-0.06059 -0.142753,-0.134618 -0.07526,-0.07404 -0.163453,-0.148393 -0.196,-0.165202 -0.03252,-0.01683 -0.06728,-0.0401 -0.07721,-0.05174 -0.03805,-0.04459 -0.221371,-0.189884 -0.239571,-0.189884 -0.0105,0 -0.02181,-0.0065 -0.02511,-0.01461 -0.01743,-0.04232 -0.225678,-0.172978 -0.325217,-0.204025 -0.469627,-0.146493 -0.7252,-0.172978 -1.03434,-0.107176 -0.312635,0.06654 -0.681223,0.210482 -0.884318,0.345312 -0.03972,0.02636 -0.133098,0.07831 -0.207543,0.115466 -0.232578,0.11604 -0.347915,0.193862 -0.469226,0.316592 -0.06452,0.06527 -0.149794,0.142168 -0.189495,0.170872 -0.100476,0.07268 -0.189495,0.157068 -0.189516,0.179694 -1.7e-5,0.0105 -0.04741,0.07697 -0.105282,0.147809 -0.115921,0.141806 -0.351167,0.596133 -0.372528,0.719436 -0.01807,0.10421 -0.09446,0.365525 -0.13457,0.460205 -0.01894,0.04465 -0.05739,0.166489 -0.08548,0.270699 l -0.05109,0.1895 0.0054,0.658727 c 0.0027,0.37078 0.01304,0.683312 0.02316,0.714982 0.01569,0.04914 0.03729,0.1914 0.06138,0.403944 0.0038,0.03474 0.01564,0.111894 0.02592,0.171451 0.01034,0.05955 0.02717,0.205747 0.03745,0.324856 0.01023,0.119108 0.03464,0.27748 0.05425,0.351919 0.01959,0.07444 0.03577,0.15888 0.03593,0.18765 2.38e-4,0.02874 0.0158,0.09778 0.03474,0.153392 0.05987,0.175738 0.105038,0.331371 0.136724,0.471077 0.07679,0.338564 0.128325,0.487362 0.168714,0.487075 0.05276,0 0.206526,-0.04871 0.336891,-0.105839 0.187817,-0.08234 0.405248,-0.164666 0.434866,-0.164666 0.01434,0 0.09292,-0.03247 0.174602,-0.07216 0.08169,-0.03967 0.209426,-0.08893 0.283871,-0.109444 0.07444,-0.02051 0.184083,-0.0641 0.24364,-0.09686 0.05955,-0.0328 0.2301,-0.09783 0.37899,-0.144582 0.14889,-0.04676 0.311315,-0.09996 0.360947,-0.118227 0.04963,-0.01824 0.1146,-0.0368 0.144376,-0.04118 0.227811,-0.03345 0.485305,-0.113221 0.685797,-0.212393 0.282551,-0.139749 0.409436,-0.183395 0.836553,-0.287676 0.122626,-0.02993 0.259058,-0.0704 0.303192,-0.08992 0.07856,-0.03474 0.195258,-0.0656 0.412315,-0.108984 0.05956,-0.01196 0.152954,-0.03626 0.207543,-0.05406 0.0546,-0.01786 0.160169,-0.04605 0.234619,-0.06269 0.07444,-0.01667 0.147753,-0.03669 0.162917,-0.04459 0.01515,-0.0079 0.08825,-0.02398 0.162425,-0.03566 0.192315,-0.03041 0.38582,-0.07134 0.531901,-0.112431 0.490641,-0.138006 0.573192,-0.157841 1.037716,-0.249246 0.153852,-0.03025 0.323854,-0.06709 0.377777,-0.08183 0.05396,-0.01478 0.151385,-0.03177 0.216565,-0.03777 0.06519,-0.0061 0.150037,-0.01889 0.188553,-0.02857 0.155774,-0.03918 0.270542,-0.04817 0.443618,-0.03474 0.210276,0.01629 0.206531,0.01391 0.37151,0.236042 0.05909,0.07955 0.111505,0.14462 0.116468,0.14456 0.01532,0 0.182992,-0.165953 0.320122,-0.31658 0.11728,-0.128834 0.23535,-0.277751 0.41807,-0.527263 0.0338,-0.04611 0.0772,-0.10047 0.0966,-0.120759 0.1119,-0.11741 0.26939,-0.328189 0.36851,-0.493201 0.0196,-0.03258 0.0698,-0.101628 0.11157,-0.153392 0.0418,-0.05179 0.11223,-0.144907 0.15657,-0.206943 0.0443,-0.06205 0.13046,-0.149518 0.19139,-0.194376 0.0973,-0.07164 0.11869,-0.08021 0.17598,-0.07064 0.1137,0.019 0.18943,0.04643 0.26369,0.09552 0.17607,0.116387 0.17618,0.13279 0.005,0.74767 -0.0105,0.03756 -0.0143,0.07304 -0.008,0.0788 0.0121,0.01218 0.29127,-0.2395 0.51601,-0.465233 0.17316,-0.173936 0.20235,-0.206277 0.2911,-0.322577 0.18313,-0.239965 0.25021,-0.303738 0.34998,-0.332745 0.14687,-0.0427 0.21698,-0.03718 0.27118,0.02127 0.0252,0.02722 0.0458,0.071 0.0458,0.09736 0,0.07647 -0.13366,0.392654 -0.23603,0.558321 -0.0517,0.08366 -0.12258,0.200849 -0.15752,0.260406 -0.0349,0.05956 -0.0987,0.158041 -0.14178,0.218864 -0.043,0.06081 -0.0783,0.119288 -0.0783,0.129944 0,0.01066 -0.0103,0.02587 -0.023,0.03382 -0.0127,0.008 -0.0383,0.0388 -0.057,0.06858 -0.0187,0.02977 -0.0449,0.06064 -0.0582,0.06857 -0.0133,0.0079 -0.0243,0.02251 -0.0243,0.03236 0,0.0098 -0.0142,0.03323 -0.0316,0.0519 -0.0174,0.01873 -0.0835,0.1341 -0.14688,0.256423 -0.0634,0.122312 -0.12537,0.234581 -0.13769,0.249463 -0.0123,0.01488 -0.0351,0.05217 -0.0506,0.08284 -0.0155,0.03069 -0.0489,0.07535 -0.074,0.09927 -0.0252,0.02392 -0.046,0.05017 -0.0462,0.05834 -2.5e-4,0.0082 -0.047,0.06211 -0.10409,0.11985 -0.13504,0.136626 -0.14068,0.143867 -0.2475,0.317874 -0.0964,0.157051 -0.16108,0.246302 -0.2127,0.293542 -0.0174,0.01591 -0.0316,0.03929 -0.0316,0.05195 0,0.01266 -0.007,0.02305 -0.015,0.02305 -0.008,0 -0.0459,0.04481 -0.0836,0.0996 -0.0377,0.05477 -0.0917,0.125836 -0.12002,0.157912 -0.0283,0.03209 -0.0516,0.06438 -0.0517,0.07181 -2.4e-4,0.0074 -0.0285,0.0434 -0.063,0.07998 -0.0345,0.03658 -0.0795,0.102099 -0.0999,0.145583 -0.0378,0.08053 -0.11063,0.184089 -0.24783,0.352645 -0.11571,0.142158 -0.16361,0.215261 -0.17694,0.27005 -0.0115,0.04714 -0.009,0.04963 0.0524,0.04963 0.0458,0 0.07,0.01039 0.0836,0.03583 0.0167,0.03106 0.29647,0.180755 0.33797,0.180755 0.008,0 0.0281,0.01423 0.0441,0.03155 0.0401,0.04378 0.17143,0.161959 0.27566,0.248148 0.048,0.03972 0.10017,0.0864 0.11592,0.103766 0.0157,0.01737 0.0345,0.0316 0.0416,0.0316 0.007,0 0.10386,0.09137 0.21488,0.203035 0.21415,0.21538 0.41326,0.452526 0.45718,0.5445 0.0146,0.03058 0.0433,0.06751 0.0638,0.08211 0.0205,0.01461 0.0372,0.03491 0.0371,0.04513 -2.4e-4,0.02035 0.16295,0.171971 0.18497,0.171971 0.008,0 0.0136,0.01245 0.0136,0.02765 0,0.01521 0.0115,0.03204 0.0256,0.03745 0.0222,0.0085 0.1137,0.17557 0.1719,0.313891 0.0104,0.02484 0.0266,0.0573 0.0358,0.07219 0.0805,0.129661 0.10054,0.211153 0.11079,0.451172 0.01,0.230576 0.0468,0.410075 0.10865,0.527647 0.009,0.01721 0.0165,0.0401 0.0165,0.05087 0,0.01077 0.0568,0.11236 0.12633,0.225868 0.0695,0.113507 0.12633,0.213225 0.12633,0.221614 0,0.0084 0.0273,0.04335 0.0607,0.07771 0.0688,0.07086 0.28975,0.364567 0.46767,0.621748 0.084,0.121403 0.27123,0.358717 0.32298,0.409355 0.0181,0.01775 0.033,0.03972 0.033,0.04887 0,0.0091 0.0629,0.08069 0.13987,0.159048 0.0769,0.07837 0.17235,0.180089 0.21205,0.226062 0.0397,0.04595 0.0794,0.08371 0.0883,0.08388 0.0158,0 0.0411,0.02771 0.0924,0.100162 0.0143,0.02019 0.043,0.117637 0.0637,0.21657 0.0306,0.145654 0.041,0.289078 0.0549,0.75405 0.0155,0.520617 0.0143,0.580099 -0.0129,0.637518 -0.0165,0.03485 -0.0489,0.07566 -0.0718,0.09072 -0.0473,0.03101 -0.29382,0.05325 -0.39015,0.03518 -0.098,-0.0184 -0.22144,-0.111413 -0.30974,-0.233433 -0.0839,-0.115911 -0.35464,-0.385013 -0.46634,-0.463479 -0.10871,-0.07637 -0.11306,-0.07007 -0.11306,0.163778 0,0.199144 0.002,0.212641 0.0516,0.288769 0.0284,0.04389 0.11413,0.140756 0.19059,0.215201 0.21546,0.209783 0.43461,0.491799 0.43461,0.559273 0,0.01082 -0.0397,0.05876 -0.0883,0.106564 -0.0668,0.06576 -0.10661,0.08984 -0.16352,0.09894 -0.0413,0.0066 -0.0814,0.0082 -0.0889,0.0038 -0.008,-0.0049 -0.0781,-0.0256 -0.15682,-0.04665 -0.0787,-0.021 -0.16027,-0.0493 -0.18118,-0.06286 -0.0512,-0.03323 -0.23478,-0.09247 -0.42522,-0.137189 -0.16764,-0.03934 -0.30999,-0.12668 -0.33146,-0.203311 -0.0306,-0.109049 -0.0498,-0.137915 -0.0918,-0.137915 -0.0297,0 -0.0429,0.01028 -0.0429,0.03328 0,0.01829 -0.0161,0.0479 -0.0358,0.06571 -0.0296,0.02679 -0.0523,0.03009 -0.13084,0.0191 -0.0523,-0.0073 -0.16,-0.01986 -0.2394,-0.02792 -0.0815,-0.0082 -0.21512,-0.03967 -0.30681,-0.07211 -0.27203,-0.09631 -0.50941,-0.153501 -0.92943,-0.223914 -0.30088,-0.05044 -0.78747,-0.225375 -0.97039,-0.348884 -0.0271,-0.01829 -0.11376,-0.06095 -0.192572,-0.0948 -0.08897,-0.03821 -0.174006,-0.09095 -0.224309,-0.139154 -0.04454,-0.0427 -0.08837,-0.07763 -0.09736,-0.07763 -0.03258,0 -0.295555,-0.220012 -0.479232,-0.400945 -0.023,-0.02268 -0.07503,-0.09806 -0.115607,-0.167529 -0.04059,-0.06948 -0.09687,-0.15593 -0.125105,-0.192108 -0.02825,-0.03615 -0.05136,-0.07271 -0.05141,-0.0812 0,-0.0085 -0.02836,-0.04627 -0.06298,-0.08393 -0.07535,-0.08204 -0.191059,-0.138131 -0.28608,-0.138683 -0.03815,0 -0.115331,-0.01456 -0.171451,-0.03182 -0.08042,-0.02479 -0.168963,-0.0315 -0.417863,-0.0316 l -0.315828,0 -0.397038,0.137541 c -0.452428,0.156732 -0.920118,0.334688 -1.087862,0.413944 -0.113557,0.05363 -0.404063,0.245497 -0.568019,0.375121 -0.04719,0.03729 -0.164806,0.116121 -0.261407,0.175186 -0.0966,0.05905 -0.213903,0.145134 -0.260671,0.191269 -0.04676,0.04616 -0.09267,0.08676 -0.101992,0.09024 -0.02755,0.01028 -0.135555,0.160195 -0.219714,0.304859 -0.04308,0.07404 -0.111424,0.178503 -0.151888,0.23214 -0.04048,0.05363 -0.09941,0.131929 -0.130982,0.173989 -0.09725,0.129554 -0.150021,0.247548 -0.342693,0.766206 -0.02765,0.07445 -0.07971,0.196265 -0.115667,0.270704 -0.03593,0.07445 -0.07491,0.164503 -0.08656,0.200124 -0.01163,0.03561 -0.04129,0.09202 -0.06587,0.125321 -0.02457,0.03328 -0.0447,0.06688 -0.0447,0.07462 0,0.01429 -0.140924,0.254843 -0.201342,0.343656 -0.01829,0.0269 -0.03328,0.05594 -0.03328,0.06454 0,0.0086 -0.02105,0.03534 -0.04681,0.05938 -0.02576,0.02408 -0.06795,0.08029 -0.09375,0.124964 -0.02581,0.04465 -0.06448,0.105574 -0.08594,0.135355 -0.02148,0.02976 -0.07384,0.135355 -0.116381,0.234613 -0.07679,0.179142 -0.07737,0.18213 -0.07911,0.406065 -0.0016,0.218751 0.01478,0.438114 0.03539,0.47151 0.0056,0.009 0.02197,0.144128 0.03653,0.300302 0.01456,0.156174 0.04189,0.377345 0.06077,0.491491 0.01889,0.114151 0.03918,0.288206 0.04513,0.386793 0.006,0.09859 0.03047,0.278352 0.05459,0.399473 0.02408,0.121122 0.04903,0.308458 0.05544,0.41631 0.0064,0.107847 0.02722,0.259259 0.04632,0.336469 0.0191,0.07721 0.04606,0.221268 0.05994,0.320125 0.01385,0.09886 0.04151,0.234657 0.06146,0.301774 0.01992,0.06712 0.058,0.243851 0.0846,0.392741 0.04551,0.254756 0.114573,0.564225 0.153051,0.685796 0.0094,0.02976 0.04302,0.147537 0.07464,0.261689 l 0.0575,0.207543 0.0062,0.739936 c 0.0043,0.530624 0.01331,0.780779 0.03155,0.884313 0.01396,0.07941 0.03502,0.209351 0.04687,0.288758 0.0118,0.07941 0.0414,0.209346 0.06577,0.288753 0.04411,0.143836 0.08489,0.324834 0.150416,0.667748 0.01894,0.09926 0.04757,0.237325 0.06351,0.306807 0.01596,0.06948 0.03604,0.159286 0.04459,0.199572 0.07972,0.374725 0.176133,0.676899 0.284115,0.89046 0.0696,0.137639 0.119601,0.204989 0.265206,0.357191 0.09869,0.103165 0.190188,0.209567 0.203338,0.236442 0.02955,0.06039 0.103112,0.108258 0.266927,0.173693 0.445609,0.177989 0.412792,0.148614 0.586398,0.524876 0.09502,0.205946 0.137866,0.308603 0.15441,0.369968 0.0067,0.02484 0.02241,0.06948 0.03491,0.09926 0.0125,0.02976 0.0434,0.102868 0.06859,0.162425 0.02522,0.05956 0.06312,0.165131 0.08425,0.234613 0.02111,0.06948 0.063,0.156997 0.09306,0.194485 0.07878,0.09825 0.06571,0.127253 -0.06534,0.145004 -0.144399,0.01954 -0.592995,0.01391 -0.694602,-0.0087 -0.04465,-0.01 -0.236929,-0.0237 -0.427257,-0.03052 -0.433092,-0.01553 -0.412657,-0.0027 -0.426192,-0.269368 -0.0095,-0.186756 -0.0506,-0.386192 -0.110552,-0.536181 -0.02544,-0.06365 -0.02803,-0.06579 -0.02197,-0.01802 0.0038,0.02976 0.02067,0.130046 0.0375,0.222821 0.01683,0.09278 0.02592,0.173378 0.02019,0.179109 -0.0057,0.0057 -0.08109,0.03388 -0.167458,0.06258 -0.154887,0.05141 -0.162458,0.05212 -0.554809,0.05055 -0.449468,-0.0016 -0.577446,-0.01223 -0.608586,-0.04979 -0.01191,-0.01434 -0.02738,-0.06398 -0.03447,-0.110331 -0.07059,-0.463722 -0.156986,-0.796852 -0.253539,-0.977596 -0.04075,-0.07628 -0.07162,-0.108664 -0.133341,-0.139869 -0.04416,-0.02235 -0.08931,-0.04059 -0.100292,-0.04059 -0.01099,0 -0.04151,-0.01483 -0.06788,-0.03296 -0.02636,-0.01813 -0.07633,-0.04367 -0.111066,-0.05674 -0.105044,-0.03956 -0.285463,-0.149004 -0.295929,-0.179483 -0.0054,-0.01575 -0.02024,-0.04481 -0.0329,-0.06462 -0.01266,-0.01981 -0.03599,-0.05636 -0.05174,-0.08122 -0.05458,-0.0861 -0.07993,-0.236507 -0.09884,-0.586614 -0.0054,-0.09926 -0.01802,-0.23326 -0.02809,-0.29778 -0.01007,-0.06452 -0.02224,-0.161975 -0.02701,-0.216564 -0.0049,-0.05459 -0.01629,-0.139869 -0.02554,-0.189501 -0.0093,-0.04963 -0.0256,-0.167387 -0.03631,-0.261683 -0.01071,-0.09429 -0.03994,-0.248602 -0.06493,-0.342898 -0.025,-0.0943 -0.05679,-0.213593 -0.07059,-0.265103 -0.0138,-0.05152 -0.02993,-0.161153 -0.03577,-0.24364 -0.0132,-0.184678 -0.03312,-0.281853 -0.102863,-0.501903 -0.06394,-0.201655 -0.227842,-0.608932 -0.31224,-0.77586 -0.08649,-0.171046 -0.143088,-0.355042 -0.197158,-0.640846 -0.0263,-0.138964 -0.0628,-0.305454 -0.08115,-0.369968 -0.01835,-0.06452 -0.03837,-0.149793 -0.04443,-0.1895 -0.0061,-0.03972 -0.02332,-0.124975 -0.03821,-0.189495 -0.01494,-0.06452 -0.04275,-0.198522 -0.06185,-0.29778 -0.0191,-0.09926 -0.05528,-0.249501 -0.0804,-0.333871 -0.02511,-0.08438 -0.04589,-0.168535 -0.04611,-0.187032 -2.44e-4,-0.01851 -0.01667,-0.101737 -0.03653,-0.184982 -0.08867,-0.371835 -0.105969,-0.455713 -0.114942,-0.557422 -0.02029,-0.230414 -0.0717,-0.517998 -0.146698,-0.821146 -0.174829,-0.706611 -0.212906,-0.849878 -0.268648,-1.010646 l -0.02192,-0.06317 -0.179602,0.0057 c -0.192292,0.0061 -0.46034,0.04216 -0.621758,0.08376 -0.05459,0.01407 -0.200779,0.04308 -0.32485,0.0645 -0.124077,0.02143 -0.274839,0.05038 -0.335029,0.06433 -0.06019,0.01396 -0.148381,0.02538 -0.195978,0.02538 -0.04762,0 -0.168903,0.01959 -0.269558,0.04357 -0.100659,0.02397 -0.252044,0.05659 -0.336414,0.07254 -0.08437,0.01596 -0.238672,0.04524 -0.342899,0.06504 -0.10422,0.01981 -0.234164,0.04421 -0.288753,0.05425 -0.05459,0.01001 -0.204837,0.04205 -0.333876,0.07118 -0.450594,0.101742 -0.976774,0.199566 -1.164423,0.216478 -0.280013,0.02522 -0.455984,0.05904 -0.669929,0.128682 -0.09975,0.03247 -0.164076,0.04351 -0.56593,0.09743 -0.386431,0.05185 -0.488466,0.06571 -0.59556,0.08107 -0.05956,0.0086 -0.2098,0.0204 -0.333877,0.02641 -0.124071,0.006 -0.306801,0.0151 -0.406059,0.02024 -0.325537,0.01694 -1.457944,0.0095 -1.561088,-0.01023 -0.109908,-0.02105 -0.237048,-0.05839 -0.586538,-0.172318 -0.129034,-0.04205 -0.279688,-0.08188 -0.334786,-0.08848 -0.137779,-0.01651 -0.318258,-0.07527 -0.657812,-0.214157 -0.307824,-0.125911 -0.409176,-0.172615 -0.424849,-0.195767 -0.01418,-0.02094 -0.37591,-0.188991 -0.450961,-0.209513 -0.139896,-0.03826 -0.701313,-0.315466 -0.726781,-0.358868 -0.008,-0.01353 -0.02619,-0.02462 -0.04059,-0.02462 -0.0144,0 -0.02619,-0.0081 -0.02619,-0.01802 0,-0.0099 -0.01018,-0.01824 -0.02257,-0.01845 -0.01239,-2.43e-4 -0.04286,-0.01694 -0.06767,-0.03718 -0.07458,-0.06081 -0.267799,-0.183012 -0.478254,-0.302461 -0.228633,-0.129776 -0.267295,-0.152673 -0.279731,-0.165683 -0.0092,-0.0096 -0.07625,-0.05622 -0.160607,-0.111624 -0.06511,-0.04275 -0.324925,-0.187238 -0.386273,-0.214795 -0.06417,-0.02884 -0.101948,-0.0075 -0.270261,0.152548 -0.176296,0.167637 -0.264292,0.174277 -0.401048,0.03025 -0.02976,-0.03133 -0.08257,-0.07429 -0.117307,-0.09541 -0.03474,-0.02111 -0.06723,-0.04346 -0.07219,-0.04963 -0.01634,-0.02035 -0.222475,-0.12602 -0.245789,-0.12602 -0.01256,0 -0.06592,0.05201 -0.118616,0.115591 -0.05271,0.06358 -0.133423,0.136654 -0.179407,0.162398 -0.112014,0.06271 -0.332426,0.287573 -0.388147,0.395983 -0.02473,0.04811 -0.09593,0.135144 -0.158257,0.193445 -0.06596,0.0617 -0.137569,0.151499 -0.171339,0.214849 -0.03193,0.05987 -0.06438,0.108848 -0.07216,0.108848 -0.0078,0 -0.02966,0.03041 -0.0486,0.06763 -0.0506,0.09943 -0.119092,0.205941 -0.165266,0.25704 -0.02235,0.02473 -0.04059,0.05109 -0.04059,0.05865 0,0.0076 -0.01423,0.02852 -0.0316,0.0466 -0.01737,0.01808 -0.05336,0.06095 -0.08004,0.09529 -0.02668,0.03431 -0.07538,0.09092 -0.108285,0.125754 -0.21117,0.22359 -0.375646,0.427242 -0.375646,0.465162 0,0.01147 -0.0081,0.02089 -0.01808,0.02089 -0.0099,0 -0.01807,0.01218 -0.01807,0.02706 0,0.01488 -0.0061,0.02711 -0.01353,0.02722 -0.0075,0 -0.03366,0.03052 -0.05821,0.06767 -0.02457,0.03718 -0.07533,0.103215 -0.112798,0.146801 -0.03745,0.04357 -0.06812,0.08657 -0.06812,0.09553 0,0.009 -0.02051,0.03826 -0.04557,0.06514 -0.03664,0.03929 -0.225137,0.397033 -0.225137,0.427318 0,0.0043 -0.02046,0.03875 -0.04546,0.07642 -0.025,0.03767 -0.05545,0.08363 -0.06767,0.102148 -0.01223,0.01851 -0.03642,0.05228 -0.05379,0.07503 -0.01737,0.02273 -0.0316,0.04838 -0.0316,0.05697 0,0.0086 -0.02295,0.04384 -0.05103,0.07837 -0.02809,0.03453 -0.06636,0.08916 -0.08511,0.12142 -0.01872,0.03225 -0.03934,0.05865 -0.04578,0.05865 -0.0064,0 -0.03512,0.03437 -0.06378,0.07634 -0.02863,0.042 -0.06733,0.09428 -0.08597,0.116208 -0.03669,0.04319 -0.05201,0.06786 -0.117068,0.188505 -0.02349,0.04351 -0.07422,0.120505 -0.112793,0.171051 -0.03859,0.05055 -0.07013,0.102197 -0.07013,0.114779 0,0.01256 -0.0237,0.06868 -0.05266,0.124662 -0.02895,0.05599 -0.08619,0.174882 -0.127156,0.264215 -0.06795,0.148165 -0.141736,0.274396 -0.19133,0.327318 -0.01055,0.01131 -0.05119,0.09206 -0.09024,0.179488 -0.07669,0.171685 -0.143359,0.305411 -0.354674,0.711384 -0.07492,0.143922 -0.156797,0.318534 -0.181946,0.388011 -0.06114,0.168881 -0.09061,0.238028 -0.192303,0.451183 -0.04735,0.09926 -0.09603,0.212961 -0.108161,0.252662 -0.0296,0.09693 -0.10809,0.311996 -0.138277,0.378995 -0.01342,0.02976 -0.04021,0.09881 -0.05954,0.153398 -0.01932,0.05459 -0.06059,0.168291 -0.09168,0.252661 -0.09654,0.261965 -0.155195,0.509452 -0.190329,0.803103 -0.01461,0.122226 -0.03729,0.244219 -0.0988,0.532393 -0.04503,0.210769 -0.05277,0.2899 -0.05734,0.586538 -0.0054,0.341778 0.0057,0.428064 0.06577,0.514345 0.01034,0.01488 0.0513,0.09031 0.09102,0.167588 0.03967,0.07729 0.111197,0.182865 0.15888,0.234618 0.04768,0.05174 0.119812,0.142824 0.160276,0.202381 0.04048,0.05955 0.08394,0.116743 0.09661,0.127091 0.01266,0.01034 0.04865,0.07126 0.08002,0.135355 0.05689,0.116338 0.05698,0.116987 0.0513,0.370931 -0.0038,0.171208 0.0011,0.262673 0.01483,0.279732 0.01131,0.01396 0.03334,0.07001 0.04898,0.124607 0.01564,0.05459 0.05239,0.180468 0.08167,0.279731 0.05944,0.201525 0.09931,0.450004 0.08974,0.559463 -0.0055,0.06236 -0.01245,0.07257 -0.05141,0.07499 -0.02484,0.0016 -0.0573,2.38e-4 -0.07219,-0.0032 z m 22.984824,-2.199666 c -0.02663,-0.06969 -0.08287,-0.145534 -0.08287,-0.111727 0,0.02084 0.09898,0.205671 0.106381,0.198663 0.0038,-0.0038 -0.0067,-0.04281 -0.02354,-0.08694 z m -1.183748,-1.723745 c 0,-0.142093 -0.222069,-1.049871 -0.280733,-1.147592 -0.01191,-0.01986 -0.03929,-0.105125 -0.0608,-0.189495 -0.02154,-0.08437 -0.0665,-0.234613 -0.09995,-0.333871 -0.05396,-0.160201 -0.06094,-0.172367 -0.06195,-0.108285 -0.0011,0.07297 0.01115,0.135192 0.09442,0.478253 0.06355,0.261737 0.165255,0.727586 0.210801,0.965528 0.03745,0.195626 0.05888,0.249274 0.131556,0.329358 0.04508,0.04968 0.06665,0.05168 0.06665,0.0061 z M 43.447884,47.240759 c 0.134002,-0.0094 0.511639,-0.02522 0.839195,-0.03507 0.327561,-0.0098 0.632105,-0.02571 0.676775,-0.03523 0.04465,-0.0096 0.154301,-0.0178 0.243634,-0.01835 0.184034,-0.0011 0.315569,-0.03074 0.438736,-0.09877 0.15046,-0.08308 0.553867,-0.277848 0.599641,-0.289494 0.02446,-0.0062 0.101309,-0.04676 0.170791,-0.09013 0.121311,-0.0757 0.167783,-0.100016 0.453348,-0.23726 0.07067,-0.03399 0.174694,-0.102197 0.231155,-0.151596 0.05646,-0.04941 0.114087,-0.08982 0.12806,-0.08982 0.02587,0 0.147288,-0.0519 0.180035,-0.07699 0.0099,-0.0076 0.03918,-0.03247 0.06497,-0.05529 0.02581,-0.02278 0.08467,-0.06532 0.130809,-0.09446 0.07397,-0.04676 0.08384,-0.06047 0.08347,-0.116159 -5.41e-4,-0.09861 -0.0916,-0.350161 -0.225148,-0.622635 -0.08081,-0.164888 -0.198457,-0.502747 -0.289077,-0.830173 -0.02749,-0.09926 -0.05579,-0.188591 -0.06291,-0.198522 -0.0071,-0.0099 -0.01878,-0.04243 -0.02587,-0.07219 -0.0071,-0.02977 -0.02343,-0.0785 -0.03631,-0.108286 -0.107386,-0.248483 -0.133417,-0.31487 -0.145085,-0.369957 -0.0074,-0.03474 -0.01986,-0.0713 -0.02782,-0.08123 -0.008,-0.0099 -0.04405,-0.09926 -0.08026,-0.198522 -0.03621,-0.09925 -0.09374,-0.249793 -0.12786,-0.334547 -0.03409,-0.08474 -0.06204,-0.164027 -0.06204,-0.176204 0,-0.01218 -0.0077,-0.0362 -0.0171,-0.05347 -0.01991,-0.03648 -0.09934,-0.245248 -0.118389,-0.311072 -0.02673,-0.09242 -0.07833,-0.126328 -0.19219,-0.126328 -0.105449,0 -0.15382,0.006 -0.583724,0.07213 -0.359853,0.05537 -0.822369,0.0759 -1.506947,0.06689 -0.695284,-0.0092 -0.87711,-0.02571 -1.127358,-0.102754 -0.09473,-0.02917 -0.239186,-0.06896 -0.321023,-0.08844 -0.275381,-0.06556 -0.473242,-0.129423 -0.536815,-0.173254 -0.03474,-0.02397 -0.149983,-0.07935 -0.256092,-0.123113 -0.10611,-0.04378 -0.218984,-0.101499 -0.250838,-0.128298 -0.03188,-0.02679 -0.104129,-0.07206 -0.160612,-0.100579 -0.116966,-0.05904 -0.336042,-0.204539 -0.384905,-0.255638 -0.01802,-0.01883 -0.06676,-0.05565 -0.108285,-0.08176 -0.04151,-0.02614 -0.120175,-0.08586 -0.174769,-0.132769 -0.05459,-0.04692 -0.147986,-0.112241 -0.207538,-0.145188 -0.128482,-0.07111 -0.306866,-0.195464 -0.369974,-0.257922 -0.02484,-0.02457 -0.122269,-0.08471 -0.216564,-0.133682 -0.0943,-0.04898 -0.203934,-0.107847 -0.24364,-0.130853 -0.152998,-0.08863 -0.436377,-0.22741 -0.505323,-0.247455 -0.03972,-0.01158 -0.135561,-0.03415 -0.213015,-0.05028 -0.183201,-0.0381 -0.219292,-0.01965 -0.238553,0.121734 -0.0071,0.05255 -0.03653,0.164546 -0.06528,0.248916 -0.02874,0.08436 -0.0688,0.208052 -0.08899,0.274834 -0.02701,0.08923 -0.08738,0.196958 -0.227669,0.40607 -0.105022,0.156542 -0.216268,0.31664 -0.247212,0.355779 -0.03096,0.03913 -0.09352,0.13109 -0.139062,0.20435 -0.129202,0.207841 -0.504869,0.60187 -0.678296,0.711459 -0.05201,0.0329 -0.09907,0.07243 -0.104524,0.0879 -0.0055,0.01548 -0.05518,0.05608 -0.110515,0.09025 -0.05533,0.03415 -0.130403,0.08417 -0.166819,0.111164 -0.214016,0.158582 -0.344608,0.248705 -0.360357,0.248705 -0.0098,0 -0.04183,0.02641 -0.07099,0.05866 -0.04822,0.05331 -0.08299,0.07705 -0.221397,0.151152 -0.02484,0.01331 -0.106029,0.04979 -0.180474,0.08109 -0.4562,0.191865 -0.837002,0.570785 -0.940958,0.936321 -0.02776,0.09771 -0.02598,0.606767 0.0032,0.929436 0.04725,0.520238 0.08584,0.58867 0.424124,0.751875 0.134538,0.06492 0.215954,0.118107 0.285431,0.186491 0.123189,0.121235 0.135306,0.127253 0.308213,0.153398 0.07882,0.01196 0.160953,0.02836 0.182514,0.03658 0.02154,0.0082 0.115342,0.02803 0.20842,0.04411 0.223714,0.03859 0.802897,0.170505 1.243408,0.283152 0.131453,0.03361 0.491312,0.09768 0.785055,0.139728 0.07941,0.01136 0.197163,0.03252 0.261683,0.04697 0.06452,0.01445 0.222886,0.03069 0.351925,0.03604 0.129034,0.0054 0.299582,0.01759 0.37899,0.02722 0.25659,0.03101 0.640802,0.05851 1.028694,0.07357 0.581527,0.02257 1.042868,0.04871 1.082943,0.0613 0.120591,0.03788 1.218655,0.0557 1.633167,0.02646 z m -8.979986,-1.164921 c 0.06244,-0.02397 0.01813,-0.314226 -0.149815,-0.981644 -0.0587,-0.233266 -0.111062,-0.452537 -0.116349,-0.487275 -0.0054,-0.03474 -0.03453,-0.180922 -0.06492,-0.32485 -0.03042,-0.143933 -0.05534,-0.304317 -0.05538,-0.356433 -3.8e-5,-0.05212 -0.0038,-0.09475 -0.0087,-0.09475 -0.0049,0 -0.06343,0.02062 -0.130425,0.04584 -0.08029,0.0302 -0.149648,0.07271 -0.203447,0.124629 -0.04492,0.04335 -0.134651,0.127648 -0.199452,0.187384 -0.0814,0.07503 -0.14804,0.16065 -0.215537,0.276917 -0.159794,0.275278 -0.180435,0.324271 -0.207965,0.493726 -0.01445,0.08903 -0.04676,0.234959 -0.07174,0.324298 -0.025,0.08932 -0.05751,0.276111 -0.07226,0.415081 -0.03886,0.365855 -0.04827,0.332193 0.08526,0.303662 0.16256,-0.03474 0.486604,-0.04806 0.654208,-0.0269 0.198722,0.02506 0.510275,0.07385 0.586538,0.09181 0.08237,0.01943 0.134716,0.02203 0.169969,0.0085 z m 19.854877,-7.592613 c 0.04373,-0.03761 0.04627,-0.04605 0.02533,-0.08512 -0.02701,-0.05049 -0.402174,-0.426397 -0.530239,-0.5313 -0.04811,-0.0394 -0.125051,-0.106423 -0.170992,-0.148928 -0.07935,-0.07342 -0.235788,-0.149382 -0.307581,-0.149382 -0.01824,0 -0.04232,0.01099 -0.05342,0.02435 -0.04032,0.0486 0.259627,0.300513 0.357852,0.300513 0.02181,0 0.05498,0.05974 0.05498,0.09906 0,0.04286 0.06403,0.175711 0.102289,0.212198 0.11348,0.108204 0.196893,0.176014 0.216521,0.176014 0.01245,0 0.05266,0.03247 0.08942,0.07219 0.07852,0.08487 0.142103,0.09383 0.215823,0.03042 z m -9.232593,-1.577469 c 0.143927,-0.0078 0.27045,-0.01975 0.28116,-0.02673 0.01072,-0.0069 0.100037,-0.03361 0.198516,-0.05914 0.17977,-0.04665 0.434104,-0.130181 0.467803,-0.153679 0.0099,-0.0069 0.08708,-0.03096 0.171452,-0.05342 0.08437,-0.02246 0.165585,-0.04827 0.180473,-0.05743 0.01488,-0.0091 0.04936,-0.03058 0.07665,-0.04768 0.09023,-0.05654 0.103761,-0.175413 0.03988,-0.350399 -0.01559,-0.04275 -0.04097,-0.112625 -0.0564,-0.155308 -0.0316,-0.08755 -0.09432,-0.138705 -0.148798,-0.121415 -0.06379,0.02024 -0.105314,-0.01932 -0.127037,-0.121143 -0.02847,-0.133326 -0.09934,-0.309935 -0.266267,-0.663419 -0.04454,-0.0943 -0.09771,-0.207992 -0.118194,-0.252661 -0.09144,-0.19942 -0.179434,-0.375624 -0.220818,-0.442152 -0.04508,-0.07247 -0.05448,-0.09087 -0.106137,-0.207554 l -0.02798,-0.06316 -4.76e-4,0.135356 c -2.38e-4,0.07444 0.01147,0.180013 0.02603,0.234612 0.01791,0.06705 0.02701,0.196216 0.02798,0.397997 0.0016,0.328059 0.0064,0.305908 -0.180002,0.81726 -0.02955,0.08102 -0.07097,0.204155 -0.09206,0.273638 -0.02111,0.06948 -0.064,0.166565 -0.09533,0.215736 -0.03133,0.04919 -0.0702,0.114044 -0.08636,0.144177 -0.021,0.03918 -0.05141,0.06115 -0.106732,0.07716 -0.04254,0.01234 -0.09078,0.03453 -0.107197,0.04941 -0.04697,0.04254 -0.211023,0.01667 -0.271148,-0.0427 -0.118211,-0.11676 -0.129327,-0.143337 -0.124093,-0.296822 0.0043,-0.125809 0.01196,-0.154329 0.06322,-0.23529 0.03209,-0.05065 0.0826,-0.142753 0.112251,-0.204626 0.04578,-0.09553 0.05244,-0.126902 0.04405,-0.208149 -0.0078,-0.0762 -0.0022,-0.110261 0.02863,-0.167258 0.0309,-0.05744 0.03804,-0.100075 0.03626,-0.215948 -0.0027,-0.190506 -0.110303,-0.615967 -0.214005,-0.848216 -0.01775,-0.03972 -0.03788,-0.09249 -0.04475,-0.117301 -0.0069,-0.02484 -0.01959,-0.06137 -0.0282,-0.08122 -0.0087,-0.01986 -0.04118,-0.109194 -0.07234,-0.198522 -0.08715,-0.249917 -0.09215,-0.263019 -0.147033,-0.384769 -0.0283,-0.06272 -0.05141,-0.11788 -0.05141,-0.122567 0,-0.0049 -0.0243,-0.0605 -0.05401,-0.124017 -0.02971,-0.06352 -0.07018,-0.15875 -0.08996,-0.211602 -0.04015,-0.107246 -0.130695,-0.181113 -0.261937,-0.213648 -0.03978,-0.0099 -0.145448,-0.0427 -0.234786,-0.07297 -0.273373,-0.09262 -0.276847,-0.093 -0.757985,-0.08024 -0.462229,0.01223 -0.675996,0.03382 -0.992598,0.100221 -0.225077,0.04719 -0.529822,0.1318 -0.649699,0.180387 -0.01986,0.008 -0.09294,0.03133 -0.162425,0.05168 -0.06948,0.0204 -0.19942,0.05866 -0.288759,0.08504 -0.158409,0.04676 -0.27919,0.09793 -0.333871,0.141415 -0.0348,0.02766 -0.319254,0.148593 -0.381106,0.162025 -0.02598,0.0056 -0.08688,0.0374 -0.135355,0.07054 -0.04849,0.03317 -0.189646,0.109973 -0.313723,0.170683 -0.124082,0.06071 -0.244051,0.127585 -0.266602,0.148587 -0.02257,0.021 -0.06667,0.04714 -0.09805,0.05808 -0.03139,0.01099 -0.106315,0.05406 -0.166533,0.09586 -0.06022,0.04178 -0.137909,0.09026 -0.172648,0.107701 -0.218301,0.109682 -0.407141,0.263534 -0.542675,0.442141 -0.03388,0.04465 -0.08899,0.109633 -0.122421,0.144377 -0.06127,0.06365 -0.165076,0.204945 -0.165076,0.224682 0,0.0058 -0.02116,0.04422 -0.04708,0.08523 -0.02592,0.04102 -0.0652,0.14034 -0.08734,0.220716 -0.02214,0.08038 -0.05824,0.186719 -0.08021,0.236324 -0.02197,0.04957 -0.04432,0.122691 -0.04973,0.162424 -0.0088,0.06497 -0.0027,0.07988 0.05961,0.147997 0.137363,0.149973 0.145237,0.166933 0.162203,0.349469 l 0.01164,0.125218 0.336204,0 c 0.354977,0 0.881904,0.03566 1.183602,0.08014 0.09926,0.01461 0.286053,0.03534 0.415092,0.04606 0.487724,0.04043 1.734163,0.223584 1.90398,0.27978 0.04465,0.01477 0.174607,0.03117 0.288759,0.03637 0.292736,0.01342 0.506616,0.04113 0.694818,0.08994 0.214053,0.05551 0.47539,0.107208 0.730914,0.144576 0.114146,0.01667 0.232189,0.03777 0.262306,0.04681 0.03014,0.0091 0.103214,0.02132 0.162425,0.02728 0.05922,0.006 0.111699,0.01467 0.11663,0.01937 0.01093,0.0105 0.704651,-0.0061 1.064845,-0.02538 z m -3.005351,-9.619684 c -0.0064,-0.04714 -0.0191,-0.114151 -0.02809,-0.148895 -0.009,-0.03474 -0.0164,-0.08955 -0.01645,-0.121809 -1.19e-4,-0.07678 -0.02911,-0.07628 -0.204193,0.0032 l -0.136416,0.06216 0.05385,0.09941 c 0.07735,0.142801 0.141546,0.191351 0.253062,0.191351 l 0.08996,0 -0.01174,-0.08573 z m -4.460317,-4.599959 c 0.03648,-0.05098 0.06629,-0.101034 0.06629,-0.111273 0,-0.01764 0.127064,-0.132784 0.306806,-0.278086 0.04465,-0.0361 0.122616,-0.104854 0.173227,-0.152759 l 0.09202,-0.08712 -0.02885,-0.08146 c -0.04205,-0.118714 -0.111571,-0.2324 -0.149507,-0.244446 -0.05001,-0.01586 -0.223909,0.122897 -0.283996,0.226657 -0.09211,0.159059 -0.10999,0.204085 -0.154562,0.389229 -0.02614,0.108523 -0.05848,0.233845 -0.0719,0.278514 -0.06289,0.209248 -0.05908,0.213837 0.05049,0.06075 z"
     id="path3212"
     inkscape:connector-curvature="0" />
  <circle
     style="fill:none;stroke:#de2c68;stroke-width:5.81192684;stroke-miterlimit:4;stroke-opacity:1;stroke-dasharray:none"
     sodipodi:ry="29"
     sodipodi:rx="29"
     sodipodi:cy="44"
     sodipodi:cx="74"
     id="circle14"
     stroke-miterlimit="4"
     transform="matrix(1.5831269,0,0,1.5986441,-12.31739,15.849305)"
     r="29"
     cy="44"
     cx="74" />
</svg>
