<?xml version="1.0" encoding="UTF-8" standalone="no"?>
<svg
   xmlns:dc="http://purl.org/dc/elements/1.1/"
   xmlns:cc="http://creativecommons.org/ns#"
   xmlns:rdf="http://www.w3.org/1999/02/22-rdf-syntax-ns#"
   xmlns:svg="http://www.w3.org/2000/svg"
   xmlns="http://www.w3.org/2000/svg"
   xmlns:sodipodi="http://sodipodi.sourceforge.net/DTD/sodipodi-0.dtd"
   xmlns:inkscape="http://www.inkscape.org/namespaces/inkscape"
   version="1.1"
   width="128px"
   height="128px"
   id="RSSicon"
   viewBox="0 0 256 256"
   inkscape:version="0.91 r13725"
   sodipodi:docname="rss.svg">
  <metadata
     id="metadata34">
    <rdf:RDF>
      <cc:Work
         rdf:about="">
        <dc:format>image/svg+xml</dc:format>
        <dc:type
           rdf:resource="http://purl.org/dc/dcmitype/StillImage" />
        <dc:title></dc:title>
      </cc:Work>
    </rdf:RDF>
  </metadata>
  <sodipodi:namedview
     pagecolor="#ffffff"
     bordercolor="#666666"
     borderopacity="1"
     objecttolerance="10"
     gridtolerance="10"
     guidetolerance="10"
     inkscape:pageopacity="0"
     inkscape:pageshadow="2"
     inkscape:window-width="1280"
     inkscape:window-height="1002"
     id="namedview32"
     showgrid="false"
     inkscape:zoom="2.6074563"
     inkscape:cx="-204.11123"
     inkscape:cy="66.65074"
     inkscape:window-x="1680"
     inkscape:window-y="0"
     inkscape:window-maximized="1"
     inkscape:current-layer="RSSicon" />
  <defs
     id="defs3" />
  <path
     d="M 27.5 0 C 12.265 0 0 12.265 0 27.5 L 0 100.5 C 0 115.735 12.265 128 27.5 128 L 100.5 128 C 115.735 128 128 115.735 128 100.5 L 128 27.5 C 128 12.265 115.735 0 100.5 0 L 27.5 0 z M 22 19 A 87.5 87.5 0 0 1 109.5 106.5 L 92 106.5 A 70 70 0 0 0 22 36.5 L 22 19 z M 22 48.5 A 58 58 0 0 1 80 106.5 L 63 106.5 A 41 41 0 0 0 22 65.5 L 22 48.5 z M 34 82.5 A 12 12 0 0 1 46 94.5 A 12 12 0 0 1 34 106.5 A 12 12 0 0 1 22 94.5 A 12 12 0 0 1 34 82.5 z "
     transform="scale(2,2)"
     id="rect20"
     style="fill:#ffffff;fill-opacity:1" />
</svg>
