<svg xmlns="http://www.w3.org/2000/svg" viewBox="0 0 1600 1437.5" height="1437.5" width="1600"><g stroke-miterlimit="10"><path d="M82.178 182.325a19.93 19.93 0 0 0-.086 1.85c0 11.16 9.275 20.218 20.7 20.218 11.425 0 20.7-9.058 20.7-20.218 0-.625-.029-1.237-.086-1.85h40.843a19.716 19.716 0 0 0-.086 1.85c0 11.16 9.274 20.218 20.7 20.218 11.424 0 20.7-9.058 20.7-20.218 0-.625-.03-1.237-.086-1.85h39.047a19.716 19.716 0 0 0-.087 1.85c0 11.16 9.275 20.218 20.7 20.218 11.425 0 20.7-9.058 20.7-20.218 0-.625-.028-1.237-.086-1.85h37.045a19.716 19.716 0 0 0-.086 1.85c0 11.16 9.275 20.218 20.7 20.218 11.425 0 20.7-9.058 20.7-20.218 0-.625-.029-1.237-.086-1.85h40.142a19.716 19.716 0 0 0-.086 1.85c0 11.16 9.275 20.218 20.7 20.218 11.425 0 20.7-9.058 20.7-20.218 0-.625-.029-1.237-.086-1.85h40.36a20.15 20.15 0 0 0-.087 1.85c0 11.16 9.277 20.218 20.7 20.218 11.425 0 20.702-9.058 20.702-20.218 0-.625-.03-1.237-.087-1.85h39.514a20.15 20.15 0 0 0-.085 1.85c0 11.16 9.275 20.218 20.7 20.218 11.424 0 20.7-9.058 20.7-20.218 0-.625-.03-1.237-.086-1.85h38.687a20.15 20.15 0 0 0-.085 1.85c0 11.16 9.275 20.218 20.7 20.218 11.425 0 20.7-9.058 20.7-20.218 0-.625-.028-1.237-.086-1.85h41.584a20.15 20.15 0 0 0-.085 1.85c0 11.16 9.275 20.218 20.7 20.218 11.425 0 20.7-9.058 20.7-20.218 0-.625-.029-1.237-.086-1.85h38.89a20.15 20.15 0 0 0-.086 1.85c0 11.16 9.276 20.218 20.7 20.218 11.425 0 20.7-9.058 20.7-20.218 0-.625-.03-1.237-.085-1.85H888.5a20.15 20.15 0 0 0-.085 1.85c0 11.16 9.275 20.218 20.7 20.218 11.425 0 20.7-9.058 20.7-20.218 0-.625-.028-1.237-.086-1.85h40.303a20.15 20.15 0 0 0-.085 1.85c0 11.16 9.275 20.218 20.7 20.218 11.423 0 20.7-9.058 20.7-20.218 0-.625-.03-1.237-.087-1.85h40.165a20.15 20.15 0 0 0-.086 1.85c0 11.16 9.276 20.218 20.7 20.218 11.425 0 20.701-9.058 20.701-20.218 0-.625-.03-1.237-.086-1.85h38.663a20.15 20.15 0 0 0-.085 1.85c0 11.16 9.275 20.218 20.7 20.218 11.423 0 20.7-9.058 20.7-20.218 0-.625-.03-1.237-.087-1.85h39.974a20.15 20.15 0 0 0-.085 1.85c0 11.16 9.275 20.218 20.7 20.218 11.424 0 20.703-9.058 20.703-20.218 0-.625-.038-1.237-.088-1.85h38.95c-.05.613-.087 1.225-.087 1.85 0 11.16 9.275 20.218 20.7 20.218 11.425 0 20.7-9.058 20.7-20.218 0-.625-.025-1.237-.088-1.85h40.425c-.05.613-.075 1.225-.075 1.85 0 11.16 9.275 20.218 20.7 20.218 11.425 0 20.7-9.058 20.7-20.218 0-.625-.037-1.237-.087-1.85h135.125V398.32c-11.05.126-19.988 9.353-19.988 20.699 0 11.346 8.938 20.574 19.988 20.699v37.326c-11.05.126-19.988 9.352-19.988 20.699 0 11.346 8.938 20.572 19.988 20.698v197.583c-11.05.126-19.988 9.352-19.988 20.699 0 11.346 8.938 20.572 19.988 20.698v39.473c-11.05.126-19.988 9.352-19.988 20.699 0 11.346 8.938 20.572 19.988 20.698v39.19c-11.05.127-19.988 9.353-19.988 20.699 0 11.346 8.938 20.574 19.988 20.699v37.215c-11.05.126-19.988 9.352-19.988 20.699 0 11.347 8.938 20.573 19.988 20.698v39.935c-11.05.125-19.988 9.353-19.988 20.699 0 11.346 8.938 20.573 19.988 20.699v38.797c-11.05.127-19.988 9.353-19.988 20.699 0 11.346 8.938 20.573 19.988 20.699v131.58h-57.175c-1.6-9.605-10.15-16.948-20.438-16.948-10.287 0-18.825 7.343-20.425 16.948H1415.2c-1.6-9.605-10.137-16.948-20.425-16.948-10.287 0-18.837 7.343-20.437 16.948h-41.813c-1.6-9.605-10.137-16.948-20.425-16.948-10.287 0-18.837 7.343-20.437 16.948h-39.725c-1.6-9.605-10.147-16.948-20.433-16.948-10.285 0-18.829 7.343-20.43 16.948H1170.7c-1.601-9.605-10.145-16.948-20.43-16.948-10.286 0-18.83 7.343-20.431 16.948h-38.701c-1.6-9.605-10.144-16.948-20.43-16.948-10.287 0-18.83 7.343-20.432 16.948h-37.075c-1.601-9.605-10.145-16.948-20.43-16.948-10.286 0-18.83 7.343-20.431 16.948h-39.849c-1.6-9.605-10.143-16.948-20.43-16.948-10.286 0-18.83 7.343-20.431 16.948h-40.619c-1.6-9.605-10.143-16.948-20.43-16.948-10.286 0-18.83 7.343-20.431 16.948h-40.894c-1.601-9.605-10.145-16.948-20.431-16.948-10.285 0-18.829 7.343-20.43 16.948h-40.29c-1.601-9.605-10.145-16.948-20.431-16.948-10.285 0-18.829 7.343-20.43 16.948h-38.116c-1.602-9.605-10.145-16.948-20.432-16.948-10.286 0-18.83 7.343-20.43 16.948h-37.72c-1.601-9.605-10.145-16.948-20.431-16.948-10.285 0-18.829 7.343-20.43 16.948h-43.27c-1.601-9.605-10.145-16.948-20.431-16.948-10.285 0-18.829 7.343-20.43 16.948H367.03c-1.6-9.605-10.145-16.948-20.43-16.948-10.286 0-18.83 7.343-20.431 16.948h-37.58c-1.601-9.605-10.145-16.948-20.43-16.948-10.286 0-18.83 7.343-20.431 16.948H208.36c-1.601-9.605-10.145-16.948-20.431-16.948-10.286 0-18.83 7.343-20.43 16.948h-39.694c-1.601-9.605-10.145-16.948-20.431-16.948-10.286 0-18.83 7.343-20.43 16.948H20.725V1157.27a19.755 19.755 0 0 0 10.288 2.882c11.156 0 20.213-9.276 20.213-20.7 0-11.426-9.057-20.7-20.213-20.7a19.755 19.755 0 0 0-10.288 2.88v-45.118a19.744 19.744 0 0 0 10.288 2.882c11.156 0 20.213-9.276 20.213-20.7 0-11.425-9.057-20.7-20.213-20.7a19.755 19.755 0 0 0-10.288 2.882v-43.743a19.744 19.744 0 0 0 10.288 2.883c11.156 0 20.213-9.277 20.213-20.7 0-11.425-9.057-20.702-20.213-20.702a19.744 19.744 0 0 0-10.288 2.883v-43.866a19.744 19.744 0 0 0 10.288 2.882c11.156 0 20.213-9.276 20.213-20.701 0-11.424-9.057-20.7-20.213-20.7a19.744 19.744 0 0 0-10.288 2.882V514.532a19.755 19.755 0 0 0 10.288 2.882c11.156 0 20.213-9.275 20.213-20.7 0-11.425-9.057-20.7-20.213-20.7a19.744 19.744 0 0 0-10.288 2.882V436.42a19.755 19.755 0 0 0 10.288 2.881c11.156 0 20.213-9.275 20.213-20.7 0-11.424-9.057-20.7-20.213-20.7a19.744 19.744 0 0 0-10.288 2.882V356.12a19.744 19.744 0 0 0 10.288 2.882c11.156 0 20.213-9.275 20.213-20.7 0-11.425-9.057-20.7-20.213-20.7a19.755 19.755 0 0 0-10.288 2.882V182.325h61.452z" fill="#bba801" fill-rule="evenodd" stroke="#bca801" stroke-width="7.5"/><path d="M47.054 1261.914H1527.88V209.727H47.053v1052.187z" fill="#f6af1a" fill-rule="evenodd" stroke="#fbb21c" stroke-width="1.25"/><path d="M1466.987 532.804l37.8 40.065v673.326H70.1V234.343H1163.62l219.63 215.786" fill="none" stroke="#f7e3bd" stroke-width="31.25"/><path d="M1406.85 407.213h116.636V307.056H1406.85v100.157z" fill="#f7e3bd" fill-rule="evenodd" stroke="#f7e3bd" stroke-width="1.25"/><path d="M1461.012 322.543c22.263 0 40.338 16.263 40.338 36.295 0 20.03-18.075 36.295-40.338 36.295-22.25 0-40.325-16.264-40.325-36.295 0-20.032 18.075-36.295 40.325-36.295z" fill="#f7e3bd" fill-rule="evenodd" stroke="#efad29" stroke-width="3.125"/><path d="M1462.487 345.474c6.9 0 12.5 5.211 12.5 11.629 0 6.417-5.6 11.628-12.5 11.628s-12.5-5.211-12.5-11.628c0-6.418 5.6-11.63 12.5-11.63z" fill="#f8d16d" fill-rule="evenodd" stroke="#efad29" stroke-width="3.125"/><path d="M234.461 951.751h27.021V897.63h-27.02v54.122zM195.722 1026.4h27.021v-54.122h-27.02v54.122zM270.499 1027.01h27.02v-54.122H270.5v54.122zM269.23 1105.105h27.02v-54.122h-27.02v54.122zM200.542 1105.105h27.021v-54.122h-27.02v54.122zM231.144 1171.524h27.02V1117.4h-27.02v54.123zM1051.15 378.2h17.793v-54.122h-17.793V378.2zM1128.477 378.2h17.793v-54.122h-17.792V378.2z" fill="#c3c8bb" fill-rule="evenodd" stroke="#c3c8ba" stroke-width="7.5"/><path d="M1111.894 326.994h34.376V272.87h-34.376v54.123zM1053.33 326.994h17.793V272.87h-17.793v54.123z" fill="#c3c8bb" fill-rule="evenodd" stroke="#c3c8ba" stroke-width="7.5"/><path d="M137.851 820.902h322.031V327.045h-322.03v493.857zM564.361 999.803h463.285v-455.67H564.361v455.67zM1233.584 1194.148h233.167V877.35h-233.167v316.798zM1039.581 348.811h116.499v-43.515H1039.58v43.515zM193.551 988.05H301.49v-41.424H193.551v41.424zM196.885 1128.487h103.373v-35.533H196.885v35.533zM417.424 1155.676h102.63v-118.439h-102.63v118.44z" fill="#1a2129" fill-rule="evenodd" stroke="#1a2129" stroke-width="3.125"/><path d="M632.215 340.941h19.237v-40.575h-19.237v40.575z" fill="#cccebd" fill-rule="evenodd" stroke="#cecbbc" stroke-width="3.125"/><path d="M632.094 331.485h19.397v-19.334h-19.397v19.334z" fill="#0a0803" fill-rule="evenodd" stroke="#0a0703" stroke-width="3.125"/><path d="M664.273 340.941h19.236v-40.575h-19.236v40.575z" fill="#cccebd" fill-rule="evenodd" stroke="#cecbbc" stroke-width="3.125"/><path d="M664.151 331.485h19.397v-19.334h-19.397v19.334z" fill="#0a0803" fill-rule="evenodd" stroke="#0a0703" stroke-width="3.125"/><path d="M699.107 340.941h19.237v-40.575h-19.237v40.575z" fill="#cccebd" fill-rule="evenodd" stroke="#cecbbc" stroke-width="3.125"/><path d="M698.986 331.485h19.397v-19.334h-19.397v19.334z" fill="#0a0803" fill-rule="evenodd" stroke="#0a0703" stroke-width="3.125"/><path d="M740.768 413.724h19.236v-40.576h-19.236v40.576z" fill="#cccebd" fill-rule="evenodd" stroke="#cecbbc" stroke-width="3.125"/><path d="M740.646 404.269h19.397v-19.334h-19.397v19.334z" fill="#0a0803" fill-rule="evenodd" stroke="#0a0703" stroke-width="3.125"/><path d="M791.754 413.724h19.237v-40.576h-19.237v40.576z" fill="#cccebd" fill-rule="evenodd" stroke="#cecbbc" stroke-width="3.125"/><path d="M791.633 404.269h19.396v-19.334h-19.396v19.334z" fill="#0a0803" fill-rule="evenodd" stroke="#0a0703" stroke-width="3.125"/><path d="M807.876 493.813h19.237v-40.576h-19.237v40.575z" fill="#cccebd" fill-rule="evenodd" stroke="#cecbbc" stroke-width="3.125"/><path d="M807.755 484.357h19.397v-19.333h-19.397v19.333z" fill="#0a0803" fill-rule="evenodd" stroke="#0a0703" stroke-width="3.125"/><path d="M845.351 500.554h19.237v-40.576h-19.237v40.576z" fill="#cccebd" fill-rule="evenodd" stroke="#cecbbc" stroke-width="3.125"/><path d="M845.23 491.098h19.397v-19.334H845.23v19.334z" fill="#0a0803" fill-rule="evenodd" stroke="#0a0703" stroke-width="3.125"/><path d="M996.645 489.48h19.237v-40.575h-19.237v40.575z" fill="#cccebd" fill-rule="evenodd" stroke="#cecbbc" stroke-width="3.125"/><path d="M996.524 480.025h19.397v-19.334h-19.397v19.334z" fill="#0a0803" fill-rule="evenodd" stroke="#0a0703" stroke-width="3.125"/><path d="M1382.425 817.911h19.237v-40.575h-19.237v40.575z" fill="#cccebd" fill-rule="evenodd" stroke="#cecbbc" stroke-width="3.125"/><path d="M1382.3 808.456h19.397v-19.333H1382.3v19.333z" fill="#0a0803" fill-rule="evenodd" stroke="#0a0703" stroke-width="3.125"/><path d="M1429.6 815.428h19.237v-40.576H1429.6v40.576z" fill="#cccebd" fill-rule="evenodd" stroke="#cecbbc" stroke-width="3.125"/><path d="M1429.475 805.973h19.397v-19.334h-19.397v19.334z" fill="#0a0803" fill-rule="evenodd" stroke="#0a0703" stroke-width="3.125"/><path d="M1092.539 975.149h19.237v-40.576h-19.237v40.576z" fill="#cccebd" fill-rule="evenodd" stroke="#cecbbc" stroke-width="3.125"/><path d="M1092.418 965.694h19.396V946.36h-19.397v19.334z" fill="#0a0803" fill-rule="evenodd" stroke="#0a0703" stroke-width="3.125"/><path d="M1127.031 1166.959h19.237v-40.576h-19.237v40.576z" fill="#cccebd" fill-rule="evenodd" stroke="#cecbbc" stroke-width="3.125"/><path d="M1126.91 1157.504h19.397v-19.334h-19.397v19.334z" fill="#0a0803" fill-rule="evenodd" stroke="#0a0703" stroke-width="3.125"/><path d="M1212.116 1133.115v-19.238h-40.575v19.238h40.575z" fill="#cccebd" fill-rule="evenodd" stroke="#cecbbc" stroke-width="3.125"/><path d="M1200.33 1133.154v-19.398h-19.334v19.398h19.334z" fill="#0a0803" fill-rule="evenodd" stroke="#0a0703" stroke-width="3.125"/><path d="M1171.541 1090.818h40.576v-19.237h-40.576v19.237z" fill="#cccebd" fill-rule="evenodd" stroke="#cecbbc" stroke-width="3.125"/><path d="M1180.996 1090.855h19.334v-19.397h-19.334v19.397z" fill="#0a0803" fill-rule="evenodd" stroke="#0a0703" stroke-width="3.125"/><path d="M1171.541 1054.15h40.576v-19.237h-40.576v19.237z" fill="#cccebd" fill-rule="evenodd" stroke="#cecbbc" stroke-width="3.125"/><path d="M1180.996 1054.189h19.334v-19.397h-19.334v19.397z" fill="#0a0803" fill-rule="evenodd" stroke="#0a0703" stroke-width="3.125"/><path d="M1284.662 850.98h40.576v-19.237h-40.576v19.237z" fill="#cccebd" fill-rule="evenodd" stroke="#cecbbc" stroke-width="3.125"/><path d="M1294.125 851.018h19.334V831.62h-19.334v19.397z" fill="#0a0803" fill-rule="evenodd" stroke="#0a0703" stroke-width="3.125"/><path d="M1290.4 815.991h40.575v-19.237H1290.4v19.237z" fill="#cccebd" fill-rule="evenodd" stroke="#cecbbc" stroke-width="3.125"/><path d="M1299.85 816.03h19.334v-19.397h-19.334v19.397z" fill="#0a0803" fill-rule="evenodd" stroke="#0a0703" stroke-width="3.125"/><path d="M1403.95 745.485h40.575v-19.237h-40.575v19.237z" fill="#cccebd" fill-rule="evenodd" stroke="#cecbbc" stroke-width="3.125"/><path d="M1413.412 745.523h19.334v-19.397h-19.334v19.397z" fill="#0a0803" fill-rule="evenodd" stroke="#0a0703" stroke-width="3.125"/><path d="M1412.625 703.644h40.575v-19.237h-40.575v19.237z" fill="#cccebd" fill-rule="evenodd" stroke="#cecbbc" stroke-width="3.125"/><path d="M1422.088 703.683h19.333v-19.397h-19.333v19.397z" fill="#0a0803" fill-rule="evenodd" stroke="#0a0703" stroke-width="3.125"/><path d="M1062.908 1166.959h19.236v-40.576h-19.236v40.576z" fill="#cccebd" fill-rule="evenodd" stroke="#cecbbc" stroke-width="3.125"/><path d="M1062.786 1157.504h19.397v-19.334h-19.397v19.334z" fill="#0a0803" fill-rule="evenodd" stroke="#0a0703" stroke-width="3.125"/><path d="M1017.369 1166.959h19.237v-40.576h-19.237v40.576z" fill="#cccebd" fill-rule="evenodd" stroke="#cecbbc" stroke-width="3.125"/><path d="M1017.247 1157.504h19.397v-19.334h-19.397v19.334z" fill="#0a0803" fill-rule="evenodd" stroke="#0a0703" stroke-width="3.125"/><path d="M948.736 1166.959h19.237v-40.576h-19.237v40.576z" fill="#cccebd" fill-rule="evenodd" stroke="#cecbbc" stroke-width="3.125"/><path d="M948.615 1157.504h19.397v-19.334h-19.397v19.334z" fill="#0a0803" fill-rule="evenodd" stroke="#0a0703" stroke-width="3.125"/><path d="M901.446 1166.959h19.237v-40.576h-19.237v40.576z" fill="#cccebd" fill-rule="evenodd" stroke="#cecbbc" stroke-width="3.125"/><path d="M901.324 1157.504h19.397v-19.334h-19.397v19.334z" fill="#0a0803" fill-rule="evenodd" stroke="#0a0703" stroke-width="3.125"/><path d="M832.411 1166.959h19.237v-40.576h-19.237v40.576z" fill="#cccebd" fill-rule="evenodd" stroke="#cecbbc" stroke-width="3.125"/><path d="M832.289 1157.504h19.397v-19.334h-19.397v19.334z" fill="#0a0803" fill-rule="evenodd" stroke="#0a0703" stroke-width="3.125"/><path d="M784.31 1166.959h19.237v-40.576H784.31v40.576z" fill="#cccebd" fill-rule="evenodd" stroke="#cecbbc" stroke-width="3.125"/><path d="M784.189 1157.504h19.397v-19.334h-19.397v19.334z" fill="#0a0803" fill-rule="evenodd" stroke="#0a0703" stroke-width="3.125"/><path d="M721.305 1166.959h19.237v-40.576h-19.237v40.576z" fill="#cccebd" fill-rule="evenodd" stroke="#cecbbc" stroke-width="3.125"/><path d="M721.184 1157.504h19.397v-19.334h-19.397v19.334z" fill="#0a0803" fill-rule="evenodd" stroke="#0a0703" stroke-width="3.125"/><path d="M998.73 315.753h19.237v-40.576H998.73v40.576z" fill="#cccebd" fill-rule="evenodd" stroke="#cecbbc" stroke-width="3.125"/><path d="M998.609 306.296h19.397v-19.333h-19.397v19.333z" fill="#0a0803" fill-rule="evenodd" stroke="#0a0703" stroke-width="3.125"/><path d="M999.737 386.364h19.237v-40.576h-19.237v40.576z" fill="#cccebd" fill-rule="evenodd" stroke="#cecbbc" stroke-width="3.125"/><path d="M999.616 376.909h19.397v-19.334h-19.397v19.334z" fill="#0a0803" fill-rule="evenodd" stroke="#0a0703" stroke-width="3.125"/><path d="M521.849 481.075h19.237V440.5h-19.237v40.575z" fill="#cccebd" fill-rule="evenodd" stroke="#cecbbc" stroke-width="3.125"/><path d="M521.727 471.62h19.397v-19.334h-19.397v19.334z" fill="#0a0803" fill-rule="evenodd" stroke="#0a0703" stroke-width="3.125"/><path d="M521.849 546.956h19.237v-40.575h-19.237v40.575z" fill="#cccebd" fill-rule="evenodd" stroke="#cecbbc" stroke-width="3.125"/><path d="M521.727 537.501h19.397v-19.333h-19.397V537.5z" fill="#0a0803" fill-rule="evenodd" stroke="#0a0703" stroke-width="3.125"/><path d="M102.258 647.408h19.237v-40.576h-19.237v40.576z" fill="#cccebd" fill-rule="evenodd" stroke="#cecbbc" stroke-width="3.125"/><path d="M102.136 637.952h19.397V618.62h-19.397v19.333z" fill="#0a0803" fill-rule="evenodd" stroke="#0a0703" stroke-width="3.125"/><path d="M103.225 773.126h19.237v-40.575h-19.237v40.575z" fill="#cccebd" fill-rule="evenodd" stroke="#cecbbc" stroke-width="3.125"/><path d="M103.103 763.67H122.5v-19.334h-19.397v19.334z" fill="#0a0803" fill-rule="evenodd" stroke="#0a0703" stroke-width="3.125"/><path d="M103.64 843.653h19.236v-40.576H103.64v40.576z" fill="#cccebd" fill-rule="evenodd" stroke="#cecbbc" stroke-width="3.125"/><path d="M103.518 834.197h19.396v-19.333h-19.396v19.333z" fill="#0a0803" fill-rule="evenodd" stroke="#0a0703" stroke-width="3.125"/><path d="M325.355 955.285h29.979v-67.02h-29.979v67.02z" fill="#cccebd" fill-rule="evenodd" stroke="#cecbbc" stroke-width="3.125"/><path d="M325.165 939.668h30.229v-31.935h-30.229v31.935z" fill="#b9a36c" fill-rule="evenodd" stroke="#b9a36c" stroke-width="3.125"/><path d="M129.438 955.285h29.979v-67.02h-29.98v67.02z" fill="#cccebd" fill-rule="evenodd" stroke="#cecbbc" stroke-width="3.125"/><path d="M129.249 939.668h30.228v-31.935H129.25v31.935z" fill="#b9a36c" fill-rule="evenodd" stroke="#b9a36c" stroke-width="3.125"/><path d="M419.536 1004.524h29.98v-67.02h-29.98v67.02z" fill="#cccebd" fill-rule="evenodd" stroke="#cecbbc" stroke-width="3.125"/><path d="M419.348 988.906h30.228v-31.934h-30.229v31.934z" fill="#b9a36c" fill-rule="evenodd" stroke="#b9a36c" stroke-width="3.125"/><path d="M630.366 1144.153v-40.383h-74.798v40.383h74.798z" fill="#cccebd" fill-rule="evenodd" stroke="#cecbbc" stroke-width="3.125"/><path d="M572.998 1144.233h35.64v-40.719h-35.64v40.719z" fill="#b9a36c" fill-rule="evenodd" stroke="#b9a36c" stroke-width="3.125"/><path d="M142.244 1190.054h60.802v-31.8h-60.802v31.8z" fill="#cccebd" fill-rule="evenodd" stroke="#cecbbc" stroke-width="3.125"/><path d="M156.412 1190.118h28.972v-32.065h-28.971v32.064z" fill="#b9a36c" fill-rule="evenodd" stroke="#b9a36c" stroke-width="3.125"/><path d="M1068.784 1026.506h57.826v-26.85h-57.826v26.85z" fill="#cccebd" fill-rule="evenodd" stroke="#cecbbc" stroke-width="3.125"/><path d="M1082.259 1026.56h27.553v-27.073h-27.553v27.073z" fill="#b9a36c" fill-rule="evenodd" stroke="#b9a36c" stroke-width="3.125"/><path d="M1164.901 1003.329h43.807v-75.876H1164.9v75.876z" fill="#cccebd" fill-rule="evenodd" stroke="#cecbbc" stroke-width="3.125"/><path d="M1164.814 981.287h44.171v-36.153h-44.171v36.153z" fill="#b9a36c" fill-rule="evenodd" stroke="#b9a36c" stroke-width="3.125"/><path d="M895.116 489.266h16.655v-36.379h-16.655v36.38z" fill="#cccebd" fill-rule="evenodd" stroke="#cecbbc" stroke-width="3.125"/><path d="M895.082 478.697h16.793v-17.334h-16.793v17.334z" fill="#b9a36c" fill-rule="evenodd" stroke="#b9a36c" stroke-width="3.125"/><path d="M932.199 489.266h16.654v-36.379H932.2v36.38z" fill="#cccebd" fill-rule="evenodd" stroke="#cecbbc" stroke-width="3.125"/><path d="M932.165 478.697h16.793v-17.334h-16.793v17.334z" fill="#b9a36c" fill-rule="evenodd" stroke="#b9a36c" stroke-width="3.125"/><path d="M966.899 489.266h16.654v-36.379H966.9v36.38z" fill="#cccebd" fill-rule="evenodd" stroke="#cecbbc" stroke-width="3.125"/><path d="M966.866 478.697h16.793v-17.334h-16.793v17.334z" fill="#b9a36c" fill-rule="evenodd" stroke="#b9a36c" stroke-width="3.125"/><path d="M1032.276 451.249h16.655v-36.38h-16.655v36.38z" fill="#cccebd" fill-rule="evenodd" stroke="#cecbbc" stroke-width="3.125"/><path d="M1032.243 440.681h16.793v-17.334h-16.794v17.334z" fill="#b9a36c" fill-rule="evenodd" stroke="#b9a36c" stroke-width="3.125"/><path d="M1064.434 451.249h16.654v-36.38h-16.654v36.38z" fill="#cccebd" fill-rule="evenodd" stroke="#cecbbc" stroke-width="3.125"/><path d="M1064.4 440.681h16.793v-17.334H1064.4v17.334z" fill="#b9a36c" fill-rule="evenodd" stroke="#b9a36c" stroke-width="3.125"/><path d="M1179.654 480.674h16.654v-36.38h-16.654v36.38z" fill="#cccebd" fill-rule="evenodd" stroke="#cecbbc" stroke-width="3.125"/><path d="M1179.621 470.106h16.793v-17.334h-16.793v17.334z" fill="#b9a36c" fill-rule="evenodd" stroke="#b9a36c" stroke-width="3.125"/><path d="M1184.632 575.096h16.655v-36.379h-16.655v36.38z" fill="#cccebd" fill-rule="evenodd" stroke="#cecbbc" stroke-width="3.125"/><path d="M1184.6 564.529h16.793v-17.335H1184.6v17.335z" fill="#b9a36c" fill-rule="evenodd" stroke="#b9a36c" stroke-width="3.125"/><path d="M1282.725 608.809h16.655v-36.38h-16.655v36.38z" fill="#cccebd" fill-rule="evenodd" stroke="#cecbbc" stroke-width="3.125"/><path d="M1282.688 598.241h16.8v-17.335h-16.8v17.335z" fill="#b9a36c" fill-rule="evenodd" stroke="#b9a36c" stroke-width="3.125"/><path d="M1383.638 612.364h16.654v-36.38h-16.654v36.38z" fill="#cccebd" fill-rule="evenodd" stroke="#cecbbc" stroke-width="3.125"/><path d="M1383.6 601.796h16.8v-17.335h-16.8v17.335z" fill="#b9a36c" fill-rule="evenodd" stroke="#b9a36c" stroke-width="3.125"/><path d="M1422.838 603.942h16.654v-36.379h-16.654v36.38z" fill="#cccebd" fill-rule="evenodd" stroke="#cecbbc" stroke-width="3.125"/><path d="M1422.8 593.374h16.8V576.04h-16.8v17.334z" fill="#b9a36c" fill-rule="evenodd" stroke="#b9a36c" stroke-width="3.125"/><path d="M1081.693 646.199h16.654v-36.38h-16.654v36.38z" fill="#cccebd" fill-rule="evenodd" stroke="#cecbbc" stroke-width="3.125"/><path d="M1081.659 635.631h16.793v-17.335h-16.793v17.335z" fill="#b9a36c" fill-rule="evenodd" stroke="#b9a36c" stroke-width="3.125"/><path d="M775.828 491.907h16.654v-36.379h-16.654v36.38z" fill="#cccebd" fill-rule="evenodd" stroke="#cecbbc" stroke-width="3.125"/><path d="M775.795 481.34h16.793v-17.334h-16.793v17.334z" fill="#b9a36c" fill-rule="evenodd" stroke="#b9a36c" stroke-width="3.125"/><path d="M735.512 483.435h16.655v-36.38h-16.655v36.38z" fill="#cccebd" fill-rule="evenodd" stroke="#cecbbc" stroke-width="3.125"/><path d="M735.479 472.867h16.793v-17.334h-16.793v17.334z" fill="#b9a36c" fill-rule="evenodd" stroke="#b9a36c" stroke-width="3.125"/><path d="M490.541 481.678h16.655v-36.38H490.54v36.38z" fill="#cccebd" fill-rule="evenodd" stroke="#cecbbc" stroke-width="3.125"/><path d="M490.507 471.11H507.3v-17.334h-16.793v17.334z" fill="#b9a36c" fill-rule="evenodd" stroke="#b9a36c" stroke-width="3.125"/><path d="M489.83 544.862h16.655v-36.379H489.83v36.38z" fill="#cccebd" fill-rule="evenodd" stroke="#cecbbc" stroke-width="3.125"/><path d="M489.798 534.295h16.792V516.96h-16.792v17.335z" fill="#b9a36c" fill-rule="evenodd" stroke="#b9a36c" stroke-width="3.125"/><path d="M494.639 414.543h16.654v-36.38H494.64v36.38z" fill="#cccebd" fill-rule="evenodd" stroke="#cecbbc" stroke-width="3.125"/><path d="M494.606 403.975H511.4v-17.334h-16.793v17.334z" fill="#b9a36c" fill-rule="evenodd" stroke="#b9a36c" stroke-width="3.125"/><path d="M526.585 403.584h16.654v-36.38h-16.654v36.38z" fill="#cccebd" fill-rule="evenodd" stroke="#cecbbc" stroke-width="3.125"/><path d="M526.553 393.016h16.793v-17.334h-16.793v17.334z" fill="#b9a36c" fill-rule="evenodd" stroke="#b9a36c" stroke-width="3.125"/><path d="M493.02 345.769h16.655v-36.38H493.02v36.38z" fill="#cccebd" fill-rule="evenodd" stroke="#cecbbc" stroke-width="3.125"/><path d="M492.987 335.201h16.793v-17.334h-16.793v17.334z" fill="#b9a36c" fill-rule="evenodd" stroke="#b9a36c" stroke-width="3.125"/><path d="M518.86 649.223v-16.654h-36.379v16.654h36.379z" fill="#cccebd" fill-rule="evenodd" stroke="#cecbbc" stroke-width="3.125"/><path d="M508.293 649.256v-16.792h-17.334v16.792h17.334z" fill="#b9a36c" fill-rule="evenodd" stroke="#b9a36c" stroke-width="3.125"/><path d="M103.445 702.176h16.654v-36.379h-16.654v36.38z" fill="#cccebd" fill-rule="evenodd" stroke="#cecbbc" stroke-width="3.125"/><path d="M103.412 691.609h16.793v-17.334h-16.793v17.334z" fill="#b9a36c" fill-rule="evenodd" stroke="#b9a36c" stroke-width="3.125"/><path d="M329.654 1023.13h16.654v-36.38h-16.654v36.38z" fill="#cccebd" fill-rule="evenodd" stroke="#cecbbc" stroke-width="3.125"/><path d="M329.62 1012.563h16.793v-17.335H329.62v17.335z" fill="#b9a36c" fill-rule="evenodd" stroke="#b9a36c" stroke-width="3.125"/><path d="M152.042 1114.559h16.655v-36.38h-16.655v36.38z" fill="#cccebd" fill-rule="evenodd" stroke="#cecbbc" stroke-width="3.125"/><path d="M152.01 1103.99h16.793v-17.334H152.01v17.334z" fill="#b9a36c" fill-rule="evenodd" stroke="#b9a36c" stroke-width="3.125"/><path d="M486.474 861.379h16.654v-36.38h-16.654v36.38z" fill="#cccebd" fill-rule="evenodd" stroke="#cecbbc" stroke-width="3.125"/><path d="M486.441 850.811h16.793v-17.334h-16.793v17.334z" fill="#b9a36c" fill-rule="evenodd" stroke="#b9a36c" stroke-width="3.125"/><path d="M492.403 990.015h16.654v-36.38h-16.655v36.38z" fill="#cccebd" fill-rule="evenodd" stroke="#cecbbc" stroke-width="3.125"/><path d="M492.369 979.447h16.793v-17.334h-16.793v17.334z" fill="#b9a36c" fill-rule="evenodd" stroke="#b9a36c" stroke-width="3.125"/><path d="M714.488 1087.776h16.654v-36.379h-16.655v36.38z" fill="#cccebd" fill-rule="evenodd" stroke="#cecbbc" stroke-width="3.125"/><path d="M714.455 1077.209h16.793v-17.335h-16.793v17.335z" fill="#b9a36c" fill-rule="evenodd" stroke="#b9a36c" stroke-width="3.125"/><path d="M748.665 1087.776h16.655v-36.379h-16.655v36.38z" fill="#cccebd" fill-rule="evenodd" stroke="#cecbbc" stroke-width="3.125"/><path d="M748.631 1077.209h16.793v-17.335h-16.793v17.335z" fill="#b9a36c" fill-rule="evenodd" stroke="#b9a36c" stroke-width="3.125"/><path d="M781.531 1087.776h16.655v-36.379H781.53v36.38z" fill="#cccebd" fill-rule="evenodd" stroke="#cecbbc" stroke-width="3.125"/><path d="M781.499 1077.209h16.793v-17.335h-16.793v17.335z" fill="#b9a36c" fill-rule="evenodd" stroke="#b9a36c" stroke-width="3.125"/><path d="M827.146 1087.776h16.655v-36.379h-16.655v36.38z" fill="#cccebd" fill-rule="evenodd" stroke="#cecbbc" stroke-width="3.125"/><path d="M827.113 1077.209h16.793v-17.335h-16.793v17.335z" fill="#b9a36c" fill-rule="evenodd" stroke="#b9a36c" stroke-width="3.125"/><path d="M872.163 1087.776h16.654v-36.379h-16.655v36.38z" fill="#cccebd" fill-rule="evenodd" stroke="#cecbbc" stroke-width="3.125"/><path d="M872.129 1077.209h16.793v-17.335h-16.793v17.335z" fill="#b9a36c" fill-rule="evenodd" stroke="#b9a36c" stroke-width="3.125"/><path d="M983.825 1087.776h16.654v-36.379h-16.654v36.38z" fill="#cccebd" fill-rule="evenodd" stroke="#cecbbc" stroke-width="3.125"/><path d="M983.793 1077.209h16.793v-17.335h-16.793v17.335z" fill="#b9a36c" fill-rule="evenodd" stroke="#b9a36c" stroke-width="3.125"/><path d="M1033.49 1087.776h16.655v-36.379h-16.655v36.38z" fill="#cccebd" fill-rule="evenodd" stroke="#cecbbc" stroke-width="3.125"/><path d="M1033.456 1077.209h16.793v-17.335h-16.793v17.335z" fill="#b9a36c" fill-rule="evenodd" stroke="#b9a36c" stroke-width="3.125"/><path d="M1069.172 1087.776h16.655v-36.379h-16.655v36.38z" fill="#cccebd" fill-rule="evenodd" stroke="#cecbbc" stroke-width="3.125"/><path d="M1069.14 1077.209h16.793v-17.335h-16.793v17.335z" fill="#b9a36c" fill-rule="evenodd" stroke="#b9a36c" stroke-width="3.125"/><path d="M1100.619 1087.776h16.654v-36.379h-16.654v36.38z" fill="#cccebd" fill-rule="evenodd" stroke="#cecbbc" stroke-width="3.125"/><path d="M1100.585 1077.209h16.793v-17.335h-16.793v17.335z" fill="#b9a36c" fill-rule="evenodd" stroke="#b9a36c" stroke-width="3.125"/><path d="M1133.811 1087.776h16.655v-36.379h-16.655v36.38z" fill="#cccebd" fill-rule="evenodd" stroke="#cecbbc" stroke-width="3.125"/><path d="M1133.778 1077.209h16.793v-17.335h-16.793v17.335z" fill="#b9a36c" fill-rule="evenodd" stroke="#b9a36c" stroke-width="3.125"/><path d="M937.094 1094.291h16.654v-36.379h-16.654v36.38z" fill="#cccebd" fill-rule="evenodd" stroke="#cecbbc" stroke-width="3.125"/><path d="M937.06 1083.724h16.793v-17.334H937.06v17.334z" fill="#b9a36c" fill-rule="evenodd" stroke="#b9a36c" stroke-width="3.125"/><path d="M866.946 1169.54h16.655v-36.38h-16.655v36.38z" fill="#cccebd" fill-rule="evenodd" stroke="#cecbbc" stroke-width="3.125"/><path d="M866.912 1158.972h16.793v-17.334h-16.793v17.334z" fill="#b9a36c" fill-rule="evenodd" stroke="#b9a36c" stroke-width="3.125"/><path d="M752.23 1169.54h16.655v-36.38H752.23v36.38z" fill="#cccebd" fill-rule="evenodd" stroke="#cecbbc" stroke-width="3.125"/><path d="M752.196 1158.972h16.793v-17.334h-16.793v17.334z" fill="#b9a36c" fill-rule="evenodd" stroke="#b9a36c" stroke-width="3.125"/><path d="M982.842 1168.829h16.329v-35.667h-16.329v35.667z" fill="#cccebd" fill-rule="evenodd" stroke="#cecbbc" stroke-width="3.125"/><path d="M982.81 1158.467h16.464v-16.995H982.81v16.996z" fill="#b9a36c" fill-rule="evenodd" stroke="#b9a36c" stroke-width="3.125"/><path d="M1097.246 1168.829h16.329v-35.667h-16.329v35.667z" fill="#cccebd" fill-rule="evenodd" stroke="#cecbbc" stroke-width="3.125"/><path d="M1097.214 1158.467h16.464v-16.995h-16.464v16.996z" fill="#b9a36c" fill-rule="evenodd" stroke="#b9a36c" stroke-width="3.125"/><path d="M1126.406 957.924h16.329v-35.668h-16.329v35.668z" fill="#cccebd" fill-rule="evenodd" stroke="#cecbbc" stroke-width="3.125"/><path d="M1126.374 947.564h16.464v-16.995h-16.464v16.995z" fill="#b9a36c" fill-rule="evenodd" stroke="#b9a36c" stroke-width="3.125"/><path d="M571.414 1077.971h16.654v-36.379h-16.654v36.38z" fill="#cccebd" fill-rule="evenodd" stroke="#cecbbc" stroke-width="3.125"/><path d="M571.381 1067.404h16.793v-17.335h-16.793v17.335z" fill="#b9a36c" fill-rule="evenodd" stroke="#b9a36c" stroke-width="3.125"/><path d="M624.492 1077.971h16.655v-36.379h-16.655v36.38z" fill="#cccebd" fill-rule="evenodd" stroke="#cecbbc" stroke-width="3.125"/><path d="M624.459 1067.404h16.793v-17.335h-16.793v17.335z" fill="#b9a36c" fill-rule="evenodd" stroke="#b9a36c" stroke-width="3.125"/><path d="M479.56 928.241h36.38v-16.654h-36.38v16.654z" fill="#cccebd" fill-rule="evenodd" stroke="#cecbbc" stroke-width="3.125"/><path d="M488.038 928.275h17.334v-16.793h-17.334v16.793z" fill="#b9a36c" fill-rule="evenodd" stroke="#b9a36c" stroke-width="3.125"/><path d="M1087.104 799.243h36.379v-16.655h-36.38v16.655z" fill="#cccebd" fill-rule="evenodd" stroke="#cecbbc" stroke-width="3.125"/><path d="M1095.581 799.275h17.335v-16.793h-17.335v16.793z" fill="#b9a36c" fill-rule="evenodd" stroke="#b9a36c" stroke-width="3.125"/><path d="M1070.746 848.176h36.38v-16.654h-36.38v16.654z" fill="#cccebd" fill-rule="evenodd" stroke="#cecbbc" stroke-width="3.125"/><path d="M1079.224 848.21h17.334v-16.793h-17.334v16.793z" fill="#b9a36c" fill-rule="evenodd" stroke="#b9a36c" stroke-width="3.125"/><path d="M1170.055 897.764h36.38v-16.655h-36.38v16.655z" fill="#cccebd" fill-rule="evenodd" stroke="#cecbbc" stroke-width="3.125"/><path d="M1178.533 897.796h17.334v-16.793h-17.334v16.793z" fill="#b9a36c" fill-rule="evenodd" stroke="#b9a36c" stroke-width="3.125"/><path d="M1237.176 719.433h36.38v-16.655h-36.38v16.655z" fill="#cccebd" fill-rule="evenodd" stroke="#cecbbc" stroke-width="3.125"/><path d="M1245.654 719.466h17.334v-16.793h-17.334v16.793z" fill="#b9a36c" fill-rule="evenodd" stroke="#b9a36c" stroke-width="3.125"/><path d="M1312.637 717.329h36.38v-16.655h-36.38v16.655z" fill="#cccebd" fill-rule="evenodd" stroke="#cecbbc" stroke-width="3.125"/><path d="M1321.113 717.362h17.334V700.57h-17.334v16.793z" fill="#b9a36c" fill-rule="evenodd" stroke="#b9a36c" stroke-width="3.125"/><path d="M1175.128 687.872h36.379v-16.654h-36.38v16.655z" fill="#cccebd" fill-rule="evenodd" stroke="#cecbbc" stroke-width="3.125"/><path d="M1183.604 687.906h17.334v-16.793h-17.334v16.793z" fill="#b9a36c" fill-rule="evenodd" stroke="#b9a36c" stroke-width="3.125"/><path d="M1058.211 684.64h36.38v-16.655h-36.38v16.655z" fill="#cccebd" fill-rule="evenodd" stroke="#cecbbc" stroke-width="3.125"/><path d="M1066.688 684.674h17.334V667.88h-17.334v16.793z" fill="#b9a36c" fill-rule="evenodd" stroke="#b9a36c" stroke-width="3.125"/><path d="M1080.828 721.329h36.379v-16.655h-36.38v16.655z" fill="#cccebd" fill-rule="evenodd" stroke="#cecbbc" stroke-width="3.125"/><path d="M1089.304 721.363h17.334V704.57h-17.334v16.793z" fill="#b9a36c" fill-rule="evenodd" stroke="#b9a36c" stroke-width="3.125"/><path d="M1207.341 619.965h36.38V603.31h-36.38v16.655z" fill="#cccebd" fill-rule="evenodd" stroke="#cecbbc" stroke-width="3.125"/><path d="M1215.819 619.999h17.334v-16.793h-17.334v16.793z" fill="#b9a36c" fill-rule="evenodd" stroke="#b9a36c" stroke-width="3.125"/><path d="M1182.45 385.314h36.38v-16.655h-36.38v16.655z" fill="#cccebd" fill-rule="evenodd" stroke="#cecbbc" stroke-width="3.125"/><path d="M1190.928 385.348h17.334v-16.793h-17.334v16.793z" fill="#b9a36c" fill-rule="evenodd" stroke="#b9a36c" stroke-width="3.125"/><path d="M1204.732 655.651h36.38v-16.654h-36.38v16.654z" fill="#cccebd" fill-rule="evenodd" stroke="#cecbbc" stroke-width="3.125"/><path d="M1213.21 655.684h17.334V638.89h-17.334v16.793z" fill="#b9a36c" fill-rule="evenodd" stroke="#b9a36c" stroke-width="3.125"/><path d="M1284.963 652.245h36.379v-16.654h-36.38v16.654z" fill="#cccebd" fill-rule="evenodd" stroke="#cecbbc" stroke-width="3.125"/><path d="M1293.438 652.279h17.334v-16.793h-17.334v16.793z" fill="#b9a36c" fill-rule="evenodd" stroke="#b9a36c" stroke-width="3.125"/><path d="M1395.838 651.534h36.379v-16.655h-36.38v16.655z" fill="#cccebd" fill-rule="evenodd" stroke="#cecbbc" stroke-width="3.125"/><path d="M1404.313 651.566h17.334v-16.793h-17.334v16.793z" fill="#b9a36c" fill-rule="evenodd" stroke="#b9a36c" stroke-width="3.125"/><path d="M1080.55 568.942h36.38v-16.654h-36.38v16.655z" fill="#cccebd" fill-rule="evenodd" stroke="#cecbbc" stroke-width="3.125"/><path d="M1089.027 568.976h17.335v-16.793h-17.335v16.793z" fill="#b9a36c" fill-rule="evenodd" stroke="#b9a36c" stroke-width="3.125"/><path d="M386.617 902.75h36.38v-16.655h-36.38v16.655z" fill="#cccebd" fill-rule="evenodd" stroke="#cecbbc" stroke-width="3.125"/><path d="M395.095 902.784h17.334V885.99h-17.334v16.793z" fill="#b9a36c" fill-rule="evenodd" stroke="#b9a36c" stroke-width="3.125"/><path d="M1132.991 612.309h16.655v-36.38h-16.655v36.38z" fill="#cccebd" fill-rule="evenodd" stroke="#cecbbc" stroke-width="3.125"/><path d="M1132.886 603.832h16.793v-7.35h-16.793v7.35z" fill-rule="evenodd" stroke="#000" stroke-width="3.125"/><path d="M1132.886 594.734h16.793v-7.35h-16.793v7.35z" fill="#53a151" fill-rule="evenodd" stroke="#53a151" stroke-width="3.125"/><path d="M1350.588 679.475h16.654v-36.38h-16.654v36.38z" fill="#cccebd" fill-rule="evenodd" stroke="#cecbbc" stroke-width="3.125"/><path d="M1350.475 670.997h16.793v-7.35h-16.793v7.35z" fill-rule="evenodd" stroke="#000" stroke-width="3.125"/><path d="M1350.475 661.899h16.793v-7.35h-16.793v7.35z" fill="#53a151" fill-rule="evenodd" stroke="#53a151" stroke-width="3.125"/><path d="M1393.837 499.85h36.38v-16.655h-36.38v16.655z" fill="#cccebd" fill-rule="evenodd" stroke="#cecbbc" stroke-width="3.125"/><path d="M1414.388 499.956h7.35v-16.793h-7.35v16.793z" fill-rule="evenodd" stroke="#000" stroke-width="3.125"/><path d="M1405.287 499.956h7.35v-16.793h-7.35v16.793z" fill="#53a151" fill-rule="evenodd" stroke="#53a151" stroke-width="3.125"/><path d="M1114.855 487.848h36.38v-16.655h-36.38v16.655z" fill="#cccebd" fill-rule="evenodd" stroke="#cecbbc" stroke-width="3.125"/><path d="M1135.408 487.952h7.35V471.16h-7.35v16.793z" fill-rule="evenodd" stroke="#000" stroke-width="3.125"/><path d="M1126.309 487.952h7.35V471.16h-7.35v16.793z" fill="#53a151" fill-rule="evenodd" stroke="#53a151" stroke-width="3.125"/><path d="M1117.313 454.91h36.379v-16.655h-36.38v16.655z" fill="#cccebd" fill-rule="evenodd" stroke="#cecbbc" stroke-width="3.125"/><path d="M1137.864 455.015h7.35v-16.793h-7.35v16.793z" fill-rule="evenodd" stroke="#000" stroke-width="3.125"/><path d="M1128.765 455.015h7.35v-16.793h-7.35v16.793z" fill="#53a151" fill-rule="evenodd" stroke="#53a151" stroke-width="3.125"/><path d="M1221.001 453.233h36.38v-16.655H1221v16.655z" fill="#cccebd" fill-rule="evenodd" stroke="#cecbbc" stroke-width="3.125"/><path d="M1241.553 453.337h7.35v-16.793h-7.35v16.793z" fill-rule="evenodd" stroke="#000" stroke-width="3.125"/><path d="M1232.454 453.337h7.35v-16.793h-7.35v16.793z" fill="#53a151" fill-rule="evenodd" stroke="#53a151" stroke-width="3.125"/><path d="M1219.957 489.735h36.38V473.08h-36.38v16.655z" fill="#cccebd" fill-rule="evenodd" stroke="#cecbbc" stroke-width="3.125"/><path d="M1240.51 489.84h7.35v-16.793h-7.35v16.793z" fill-rule="evenodd" stroke="#000" stroke-width="3.125"/><path d="M1231.411 489.84h7.35v-16.793h-7.35v16.793z" fill="#53a151" fill-rule="evenodd" stroke="#53a151" stroke-width="3.125"/><path d="M1157.911 722.316h36.38v-16.654h-36.38v16.654z" fill="#cccebd" fill-rule="evenodd" stroke="#cecbbc" stroke-width="3.125"/><path d="M1166.388 722.349h7.35v-16.793h-7.35v16.793z" fill-rule="evenodd" stroke="#000" stroke-width="3.125"/><path d="M1175.486 722.349h7.35v-16.793h-7.35v16.793z" fill="#53a151" fill-rule="evenodd" stroke="#53a151" stroke-width="3.125"/><path d="M1317.725 618.879h36.38v-16.655h-36.38v16.655z" fill="#cccebd" fill-rule="evenodd" stroke="#cecbbc" stroke-width="3.125"/><path d="M1326.2 618.911h7.35v-16.793h-7.35v16.793z" fill-rule="evenodd" stroke="#000" stroke-width="3.125"/><path d="M1335.3 618.911h7.35v-16.793h-7.35v16.793z" fill="#53a151" fill-rule="evenodd" stroke="#53a151" stroke-width="3.125"/><path d="M1133.438 681.565h16.654v-36.38h-16.655v36.38z" fill="#cccebd" fill-rule="evenodd" stroke="#cecbbc" stroke-width="3.125"/><path d="M1133.404 661.014h16.792v-7.35h-16.792v7.35z" fill-rule="evenodd" stroke="#000" stroke-width="3.125"/><path d="M1133.404 670.113h16.792v-7.35h-16.792v7.35z" fill="#53a151" fill-rule="evenodd" stroke="#53a151" stroke-width="3.125"/><path d="M961.183 286.686a7.092 7.092 0 0 0-7.09-7.089H842.746a7.092 7.092 0 0 0-7.089 7.09v78.245a7.092 7.092 0 0 0 7.089 7.09h111.349a7.092 7.092 0 0 0 7.088-7.09v-78.246z" fill="#b5ae9a" fill-rule="evenodd" stroke="#decc75" stroke-width="7.5"/></g></svg>