<?xml version="1.0" encoding="UTF-8"?>
<!DOCTYPE svg  PUBLIC '-//W3C//DTD SVG 1.1//EN'  'http://www.w3.org/Graphics/SVG/1.1/DTD/svg11.dtd'>
<svg clip-rule="evenodd" fill-rule="evenodd" stroke-linecap="round" stroke-linejoin="round" stroke-miterlimit="1.4142" version="1.1" viewBox="0 0 1280 1150" xmlns="http://www.w3.org/2000/svg"><path d="m65.742 145.86c-0.045 0.488-0.069 0.982-0.069 1.481 0 8.924 7.421 16.17 16.56 16.17 9.14 0 16.561-7.246 16.561-16.17 0-0.499-0.024-0.993-0.069-1.481h32.674c-0.046 0.488-0.069 0.982-0.069 1.481 0 8.924 7.42 16.17 16.56 16.17s16.56-7.246 16.56-16.17c0-0.499-0.023-0.993-0.068-1.481h31.237c-0.046 0.488-0.069 0.982-0.069 1.481 0 8.924 7.42 16.17 16.56 16.17s16.56-7.246 16.56-16.17c0-0.499-0.023-0.993-0.069-1.481h29.636c-0.046 0.488-0.069 0.982-0.069 1.481 0 8.924 7.42 16.17 16.56 16.17s16.56-7.246 16.56-16.17c0-0.499-0.023-0.993-0.069-1.481h32.114c-0.046 0.488-0.069 0.982-0.069 1.481 0 8.924 7.42 16.17 16.56 16.17s16.56-7.246 16.56-16.17c0-0.499-0.023-0.993-0.069-1.481h32.288c-0.045 0.488-0.069 0.982-0.069 1.481 0 8.924 7.421 16.17 16.56 16.17 9.14 0 16.561-7.246 16.561-16.17 0-0.499-0.024-0.993-0.069-1.481h31.611c-0.045 0.488-0.068 0.982-0.068 1.481 0 8.924 7.42 16.17 16.56 16.17 9.139 0 16.56-7.246 16.56-16.17 0-0.499-0.024-0.993-0.069-1.481h30.95c-0.045 0.488-0.068 0.982-0.068 1.481 0 8.924 7.42 16.17 16.56 16.17s16.56-7.246 16.56-16.17c0-0.499-0.023-0.993-0.069-1.481h33.267c-0.045 0.488-0.068 0.982-0.068 1.481 0 8.924 7.42 16.17 16.56 16.17s16.56-7.246 16.56-16.17c0-0.499-0.023-0.993-0.069-1.481h31.112c-0.045 0.488-0.069 0.982-0.069 1.481 0 8.924 7.421 16.17 16.561 16.17 9.139 0 16.56-7.246 16.56-16.17 0-0.499-0.024-0.993-0.069-1.481h30.343c-0.045 0.488-0.068 0.982-0.068 1.481 0 8.924 7.42 16.17 16.56 16.17s16.56-7.246 16.56-16.17c0-0.499-0.023-0.993-0.069-1.481h32.242c-0.045 0.488-0.068 0.982-0.068 1.481 0 8.924 7.42 16.17 16.56 16.17 9.139 0 16.56-7.246 16.56-16.17 0-0.499-0.023-0.993-0.069-1.481h32.132c-0.045 0.488-0.069 0.982-0.069 1.481 0 8.924 7.421 16.17 16.56 16.17 9.14 0 16.561-7.246 16.561-16.17 0-0.499-0.024-0.993-0.069-1.481h30.93c-0.045 0.488-0.068 0.982-0.068 1.481 0 8.924 7.42 16.17 16.56 16.17 9.139 0 16.56-7.246 16.56-16.17 0-0.499-0.023-0.993-0.069-1.481h31.979c-0.045 0.488-0.068 0.982-0.068 1.481 0 8.924 7.42 16.17 16.56 16.17 9.139 0 16.562-7.246 16.562-16.17 0-0.499-0.02-0.993-0.07-1.481h31.16c-0.04 0.488-0.07 0.982-0.07 1.481 0 8.924 7.42 16.17 16.56 16.17s16.56-7.246 16.56-16.17c0-0.499-0.02-0.993-0.07-1.481h32.35c-0.05 0.488-0.07 0.982-0.07 1.481 0 8.924 7.42 16.17 16.56 16.17s16.56-7.246 16.56-16.17c0-0.499-0.03-0.993-0.07-1.481h108.1v172.79c-8.84 0.101-15.99 7.482-15.99 16.559s7.15 16.459 15.99 16.559v29.861c-8.84 0.101-15.99 7.482-15.99 16.559s7.15 16.458 15.99 16.559v158.07c-8.84 0.101-15.99 7.482-15.99 16.559s7.15 16.458 15.99 16.559v31.578c-8.84 0.101-15.99 7.482-15.99 16.559s7.15 16.458 15.99 16.559v31.352c-8.84 0.101-15.99 7.482-15.99 16.559s7.15 16.459 15.99 16.559v29.772c-8.84 0.101-15.99 7.482-15.99 16.559 0 9.078 7.15 16.459 15.99 16.559v31.948c-8.84 0.1-15.99 7.482-15.99 16.559s7.15 16.458 15.99 16.559v31.038c-8.84 0.101-15.99 7.482-15.99 16.559s7.15 16.458 15.99 16.559v105.26h-45.74c-1.28-7.68-8.12-13.56-16.35-13.56s-15.06 5.88-16.34 13.56h-29.98c-1.28-7.68-8.11-13.56-16.34-13.56s-15.06 5.88-16.35 13.56h-33.45c-1.28-7.68-8.11-13.56-16.34-13.56s-15.07 5.88-16.35 13.56h-31.78c-1.28-7.68-8.117-13.56-16.346-13.56-8.228 0-15.063 5.88-16.344 13.56h-32.3c-1.281-7.68-8.116-13.56-16.344-13.56-8.229 0-15.064 5.88-16.345 13.56h-30.961c-1.28-7.68-8.115-13.56-16.344-13.56s-15.064 5.88-16.345 13.56h-29.66c-1.281-7.68-8.116-13.56-16.344-13.56-8.229 0-15.064 5.88-16.345 13.56h-31.879c-1.28-7.68-8.115-13.56-16.344-13.56s-15.064 5.88-16.345 13.56h-32.495c-1.28-7.68-8.115-13.56-16.344-13.56s-15.064 5.88-16.345 13.56h-32.715c-1.281-7.68-8.116-13.56-16.345-13.56-8.228 0-15.063 5.88-16.344 13.56h-32.232c-1.281-7.68-8.116-13.56-16.345-13.56-8.228 0-15.063 5.88-16.344 13.56h-30.493c-1.281-7.68-8.116-13.56-16.345-13.56s-15.064 5.88-16.344 13.56h-30.176c-1.281-7.68-8.116-13.56-16.345-13.56-8.228 0-15.063 5.88-16.344 13.56h-34.616c-1.281-7.68-8.116-13.56-16.345-13.56-8.228 0-15.063 5.88-16.344 13.56h-30.819c-1.28-7.68-8.116-13.56-16.344-13.56-8.229 0-15.064 5.88-16.345 13.56h-30.064c-1.281-7.68-8.116-13.56-16.344-13.56-8.229 0-15.064 5.88-16.345 13.56h-31.494c-1.281-7.68-8.116-13.56-16.345-13.56s-15.064 5.88-16.344 13.56h-31.755c-1.281-7.68-8.116-13.56-16.345-13.56s-15.064 5.88-16.344 13.56h-52.974v-106.66c2.411 1.464 5.225 2.305 8.23 2.305 8.925 0 16.171-7.42 16.171-16.56s-7.246-16.56-16.171-16.56c-3.005 0-5.819 0.841-8.23 2.305v-36.095c2.411 1.465 5.225 2.306 8.23 2.306 8.925 0 16.171-7.421 16.171-16.56 0-9.14-7.246-16.56-16.171-16.56-3.005 0-5.819 0.841-8.23 2.305v-34.994c2.411 1.465 5.225 2.306 8.23 2.306 8.925 0 16.171-7.421 16.171-16.56 0-9.14-7.246-16.561-16.171-16.561-3.005 0-5.819 0.841-8.23 2.306v-35.093c2.411 1.465 5.225 2.306 8.23 2.306 8.925 0 16.171-7.421 16.171-16.561 0-9.139-7.246-16.56-16.171-16.56-3.005 0-5.819 0.841-8.23 2.306v-293.97c2.411 1.464 5.225 2.305 8.23 2.305 8.925 0 16.171-7.42 16.171-16.56s-7.246-16.56-16.171-16.56c-3.005 0-5.819 0.841-8.23 2.306v-33.982c2.411 1.464 5.225 2.305 8.23 2.305 8.925 0 16.171-7.42 16.171-16.56 0-9.139-7.246-16.56-16.171-16.56-3.005 0-5.819 0.841-8.23 2.306v-35.73c2.411 1.465 5.225 2.306 8.23 2.306 8.925 0 16.171-7.42 16.171-16.56s-7.246-16.56-16.171-16.56c-3.005 0-5.819 0.841-8.23 2.305v-110.52h49.161z" fill="#bba801" stroke="#bca801" stroke-width="6px"/><rect x="37.644" y="167.78" width="1184.7" height="841.75" fill="#f6af1a" stroke="#fbb21c" stroke-width="1px"/><path d="m1173.6 426.24 30.24 32.052v538.66h-1147.8v-809.48h874.82l175.7 172.63" fill="none" stroke="#f7e3bd" stroke-width="25px"/><g id="Antenne-sockel"><g transform="matrix(1.1184 0 0 1.1561 -133.24 -38.342)"><rect x="1125.5" y="245.64" width="83.431" height="69.307" fill="#f7e3bd" stroke="#f7e3bd" stroke-width=".88px"/></g><ellipse cx="1168.8" cy="287.07" rx="32.262" ry="29.036" fill="#f7e3bd" stroke="#efad29" stroke-width="2.5px"/><g transform="translate(-.43696 .57442)"><ellipse cx="1170.4" cy="285.11" rx="9.999" ry="9.303" fill="#f8d16d" stroke="#efad29" stroke-width="2.5px"/></g></g><g id="chips"><rect x="187.57" y="718.1" width="21.617" height="43.298" fill="#c3c8bb" stroke="#c3c8ba" stroke-width="6px"/><g transform="translate(-30.99 59.72)"><rect x="187.57" y="718.1" width="21.617" height="43.298" fill="#c3c8bb" stroke="#c3c8ba" stroke-width="6px"/></g><g transform="translate(28.83 60.208)"><rect x="187.57" y="718.1" width="21.617" height="43.298" fill="#c3c8bb" stroke="#c3c8ba" stroke-width="6px"/></g><g transform="translate(27.815 122.68)"><rect x="187.57" y="718.1" width="21.617" height="43.298" fill="#c3c8bb" stroke="#c3c8ba" stroke-width="6px"/></g><g transform="translate(-27.134 122.68)"><rect x="187.57" y="718.1" width="21.617" height="43.298" fill="#c3c8bb" stroke="#c3c8ba" stroke-width="6px"/></g><g transform="translate(-2.6535 175.82)"><rect x="187.57" y="718.1" width="21.617" height="43.298" fill="#c3c8bb" stroke="#c3c8ba" stroke-width="6px"/></g><g transform="matrix(.65848 0 0 1 717.41 -458.84)"><rect x="187.57" y="718.1" width="21.617" height="43.298" fill="#c3c8bb" stroke="#c3c8ba" stroke-width="7.09px"/></g><g transform="matrix(.65848 0 0 1 779.27 -458.84)"><rect x="187.57" y="718.1" width="21.617" height="43.298" fill="#c3c8bb" stroke="#c3c8ba" stroke-width="7.09px"/></g><g transform="matrix(1.2722 0 0 1 650.88 -499.8)"><rect x="187.57" y="718.1" width="21.617" height="43.298" fill="#c3c8bb" stroke="#c3c8ba" stroke-width="5.24px"/></g><g transform="matrix(.65848 0 0 1 719.15 -499.8)"><rect x="187.57" y="718.1" width="21.617" height="43.298" fill="#c3c8bb" stroke="#c3c8ba" stroke-width="7.09px"/></g><rect x="110.28" y="261.64" width="257.62" height="395.09" fill="#1a2129" stroke="#1a2129" stroke-width="2.5px"/><rect x="451.49" y="435.31" width="370.63" height="364.54" fill="#1a2129" stroke="#1a2129" stroke-width="2.5px"/><g transform="matrix(1.0211 0 0 1 -24.764 0)"><rect x="990.72" y="701.88" width="182.68" height="253.44" fill="#1a2129" stroke="#1a2129" stroke-width="2.47px"/></g><rect x="831.66" y="244.24" width="93.199" height="34.812" fill="#1a2129" stroke="#1a2129" stroke-width="2.5px"/><rect x="154.84" y="757.3" width="86.35" height="33.139" fill="#1a2129" stroke="#1a2129" stroke-width="2.5px"/><rect x="157.51" y="874.36" width="82.698" height="28.427" fill="#1a2129" stroke="#1a2129" stroke-width="2.5px"/><rect x="333.94" y="829.79" width="82.104" height="94.751" fill="#1a2129" stroke="#1a2129" stroke-width="2.5px"/></g><g id="widerstände-schwarz"><g id="widerstand"><rect x="505.77" y="240.29" width="15.389" height="32.46" fill="#cccebd" stroke="#cecbbc" stroke-width="2.5px"/><g transform="matrix(.96272 0 0 1 -5.9475 .49341)"><rect x="531.43" y="249.23" width="16.118" height="15.467" fill="#0a0803" stroke="#0a0703" stroke-width="2.55px"/></g></g><g id="widerstand1" transform="translate(25.646)"><rect x="505.77" y="240.29" width="15.389" height="32.46" fill="#cccebd" stroke="#cecbbc" stroke-width="2.5px"/><g transform="matrix(.96272 0 0 1 -5.9475 .49341)"><rect x="531.43" y="249.23" width="16.118" height="15.467" fill="#0a0803" stroke="#0a0703" stroke-width="2.55px"/></g></g><g id="widerstand2" transform="translate(53.514)"><rect x="505.77" y="240.29" width="15.389" height="32.46" fill="#cccebd" stroke="#cecbbc" stroke-width="2.5px"/><g transform="matrix(.96272 0 0 1 -5.9475 .49341)"><rect x="531.43" y="249.23" width="16.118" height="15.467" fill="#0a0803" stroke="#0a0703" stroke-width="2.55px"/></g></g><g id="widerstand3" transform="translate(86.842 58.227)"><rect x="505.77" y="240.29" width="15.389" height="32.46" fill="#cccebd" stroke="#cecbbc" stroke-width="2.5px"/><g transform="matrix(.96272 0 0 1 -5.9475 .49341)"><rect x="531.43" y="249.23" width="16.118" height="15.467" fill="#0a0803" stroke="#0a0703" stroke-width="2.55px"/></g></g><g id="widerstand4" transform="translate(127.63 58.227)"><rect x="505.77" y="240.29" width="15.389" height="32.46" fill="#cccebd" stroke="#cecbbc" stroke-width="2.5px"/><g transform="matrix(.96272 0 0 1 -5.9475 .49341)"><rect x="531.43" y="249.23" width="16.118" height="15.467" fill="#0a0803" stroke="#0a0703" stroke-width="2.55px"/></g></g><g id="widerstand5" transform="translate(140.53 122.3)"><rect x="505.77" y="240.29" width="15.389" height="32.46" fill="#cccebd" stroke="#cecbbc" stroke-width="2.5px"/><g transform="matrix(.96272 0 0 1 -5.9475 .49341)"><rect x="531.43" y="249.23" width="16.118" height="15.467" fill="#0a0803" stroke="#0a0703" stroke-width="2.55px"/></g></g><g id="widerstand6" transform="translate(170.51 127.69)"><rect x="505.77" y="240.29" width="15.389" height="32.46" fill="#cccebd" stroke="#cecbbc" stroke-width="2.5px"/><g transform="matrix(.96272 0 0 1 -5.9475 .49341)"><rect x="531.43" y="249.23" width="16.118" height="15.467" fill="#0a0803" stroke="#0a0703" stroke-width="2.55px"/></g></g><g id="widerstand7" transform="translate(291.54 118.83)"><rect x="505.77" y="240.29" width="15.389" height="32.46" fill="#cccebd" stroke="#cecbbc" stroke-width="2.5px"/><g transform="matrix(.96272 0 0 1 -5.9475 .49341)"><rect x="531.43" y="249.23" width="16.118" height="15.467" fill="#0a0803" stroke="#0a0703" stroke-width="2.55px"/></g></g><g id="widerstand8" transform="translate(600.17 381.58)"><rect x="505.77" y="240.29" width="15.389" height="32.46" fill="#cccebd" stroke="#cecbbc" stroke-width="2.5px"/><g transform="matrix(.96272 0 0 1 -5.9475 .49341)"><rect x="531.43" y="249.23" width="16.118" height="15.467" fill="#0a0803" stroke="#0a0703" stroke-width="2.55px"/></g></g><g id="widerstand9" transform="translate(637.91 379.59)"><rect x="505.77" y="240.29" width="15.389" height="32.46" fill="#cccebd" stroke="#cecbbc" stroke-width="2.5px"/><g transform="matrix(.96272 0 0 1 -5.9475 .49341)"><rect x="531.43" y="249.23" width="16.118" height="15.467" fill="#0a0803" stroke="#0a0703" stroke-width="2.55px"/></g></g><g id="widerstand10" transform="translate(368.26 507.37)"><rect x="505.77" y="240.29" width="15.389" height="32.46" fill="#cccebd" stroke="#cecbbc" stroke-width="2.5px"/><g transform="matrix(.96272 0 0 1 -5.9475 .49341)"><rect x="531.43" y="249.23" width="16.118" height="15.467" fill="#0a0803" stroke="#0a0703" stroke-width="2.55px"/></g></g><g id="widerstand11" transform="translate(395.85 660.82)"><rect x="505.77" y="240.29" width="15.389" height="32.46" fill="#cccebd" stroke="#cecbbc" stroke-width="2.5px"/><g transform="matrix(.96272 0 0 1 -5.9475 .49341)"><rect x="531.43" y="249.23" width="16.118" height="15.467" fill="#0a0803" stroke="#0a0703" stroke-width="2.55px"/></g></g><g id="widerstand12" transform="matrix(2.8328e-16 1 -1 2.8328e-16 1210 385.33)"><rect x="505.77" y="240.29" width="15.389" height="32.46" fill="#cccebd" stroke="#cecbbc" stroke-width="2.5px"/><g transform="matrix(.96272 0 0 1 -5.9475 .49341)"><rect x="531.43" y="249.23" width="16.118" height="15.467" fill="#0a0803" stroke="#0a0703" stroke-width="2.55px"/></g></g><g id="widerstand13" transform="matrix(2.8328e-16 1 -1 2.8328e-16 1210 351.49)"><rect x="505.77" y="240.29" width="15.389" height="32.46" fill="#cccebd" stroke="#cecbbc" stroke-width="2.5px"/><g transform="matrix(.96272 0 0 1 -5.9475 .49341)"><rect x="531.43" y="249.23" width="16.118" height="15.467" fill="#0a0803" stroke="#0a0703" stroke-width="2.55px"/></g></g><g id="widerstand14" transform="matrix(2.8328e-16 1 -1 2.8328e-16 1210 322.16)"><rect x="505.77" y="240.29" width="15.389" height="32.46" fill="#cccebd" stroke="#cecbbc" stroke-width="2.5px"/><g transform="matrix(.96272 0 0 1 -5.9475 .49341)"><rect x="531.43" y="249.23" width="16.118" height="15.467" fill="#0a0803" stroke="#0a0703" stroke-width="2.55px"/></g></g><g id="widerstand15" transform="matrix(2.8328e-16 1 -1 2.8328e-16 1300.5 159.62)"><rect x="505.77" y="240.29" width="15.389" height="32.46" fill="#cccebd" stroke="#cecbbc" stroke-width="2.5px"/><g transform="matrix(.96272 0 0 1 -5.9475 .49341)"><rect x="531.43" y="249.23" width="16.118" height="15.467" fill="#0a0803" stroke="#0a0703" stroke-width="2.55px"/></g></g><g id="widerstand16" transform="matrix(2.8328e-16 1 -1 2.8328e-16 1305.1 131.63)"><rect x="505.77" y="240.29" width="15.389" height="32.46" fill="#cccebd" stroke="#cecbbc" stroke-width="2.5px"/><g transform="matrix(.96272 0 0 1 -5.9475 .49341)"><rect x="531.43" y="249.23" width="16.118" height="15.467" fill="#0a0803" stroke="#0a0703" stroke-width="2.55px"/></g></g><g id="widerstand17" transform="matrix(2.8328e-16 1 -1 2.8328e-16 1395.9 75.226)"><rect x="505.77" y="240.29" width="15.389" height="32.46" fill="#cccebd" stroke="#cecbbc" stroke-width="2.5px"/><g transform="matrix(.96272 0 0 1 -5.9475 .49341)"><rect x="531.43" y="249.23" width="16.118" height="15.467" fill="#0a0803" stroke="#0a0703" stroke-width="2.55px"/></g></g><g id="widerstand18" transform="matrix(2.8328e-16 1 -1 2.8328e-16 1402.9 41.754)"><rect x="505.77" y="240.29" width="15.389" height="32.46" fill="#cccebd" stroke="#cecbbc" stroke-width="2.5px"/><g transform="matrix(.96272 0 0 1 -5.9475 .49341)"><rect x="531.43" y="249.23" width="16.118" height="15.467" fill="#0a0803" stroke="#0a0703" stroke-width="2.55px"/></g></g><g id="widerstand19" transform="translate(344.55 660.82)"><rect x="505.77" y="240.29" width="15.389" height="32.46" fill="#cccebd" stroke="#cecbbc" stroke-width="2.5px"/><g transform="matrix(.96272 0 0 1 -5.9475 .49341)"><rect x="531.43" y="249.23" width="16.118" height="15.467" fill="#0a0803" stroke="#0a0703" stroke-width="2.55px"/></g></g><g id="widerstand20" transform="translate(308.12 660.82)"><rect x="505.77" y="240.29" width="15.389" height="32.46" fill="#cccebd" stroke="#cecbbc" stroke-width="2.5px"/><g transform="matrix(.96272 0 0 1 -5.9475 .49341)"><rect x="531.43" y="249.23" width="16.118" height="15.467" fill="#0a0803" stroke="#0a0703" stroke-width="2.55px"/></g></g><g id="widerstand21" transform="translate(253.22 660.82)"><rect x="505.77" y="240.29" width="15.389" height="32.46" fill="#cccebd" stroke="#cecbbc" stroke-width="2.5px"/><g transform="matrix(.96272 0 0 1 -5.9475 .49341)"><rect x="531.43" y="249.23" width="16.118" height="15.467" fill="#0a0803" stroke="#0a0703" stroke-width="2.55px"/></g></g><g id="widerstand22" transform="translate(215.38 660.82)"><rect x="505.77" y="240.29" width="15.389" height="32.46" fill="#cccebd" stroke="#cecbbc" stroke-width="2.5px"/><g transform="matrix(.96272 0 0 1 -5.9475 .49341)"><rect x="531.43" y="249.23" width="16.118" height="15.467" fill="#0a0803" stroke="#0a0703" stroke-width="2.55px"/></g></g><g id="widerstand23" transform="translate(160.16 660.82)"><rect x="505.77" y="240.29" width="15.389" height="32.46" fill="#cccebd" stroke="#cecbbc" stroke-width="2.5px"/><g transform="matrix(.96272 0 0 1 -5.9475 .49341)"><rect x="531.43" y="249.23" width="16.118" height="15.467" fill="#0a0803" stroke="#0a0703" stroke-width="2.55px"/></g></g><g id="widerstand24" transform="translate(121.68 660.82)"><rect x="505.77" y="240.29" width="15.389" height="32.46" fill="#cccebd" stroke="#cecbbc" stroke-width="2.5px"/><g transform="matrix(.96272 0 0 1 -5.9475 .49341)"><rect x="531.43" y="249.23" width="16.118" height="15.467" fill="#0a0803" stroke="#0a0703" stroke-width="2.55px"/></g></g><g id="widerstand25" transform="translate(71.272 660.82)"><rect x="505.77" y="240.29" width="15.389" height="32.46" fill="#cccebd" stroke="#cecbbc" stroke-width="2.5px"/><g transform="matrix(.96272 0 0 1 -5.9475 .49341)"><rect x="531.43" y="249.23" width="16.118" height="15.467" fill="#0a0803" stroke="#0a0703" stroke-width="2.55px"/></g></g><g id="widerstand26" transform="translate(293.21 -20.151)"><rect x="505.77" y="240.29" width="15.389" height="32.46" fill="#cccebd" stroke="#cecbbc" stroke-width="2.5px"/><g transform="matrix(.96272 0 0 1 -5.9475 .49341)"><rect x="531.43" y="249.23" width="16.118" height="15.467" fill="#0a0803" stroke="#0a0703" stroke-width="2.55px"/></g></g><g id="widerstand27" transform="translate(294.02 36.338)"><rect x="505.77" y="240.29" width="15.389" height="32.46" fill="#cccebd" stroke="#cecbbc" stroke-width="2.5px"/><g transform="matrix(.96272 0 0 1 -5.9475 .49341)"><rect x="531.43" y="249.23" width="16.118" height="15.467" fill="#0a0803" stroke="#0a0703" stroke-width="2.55px"/></g></g><g id="widerstand28" transform="translate(-88.293 112.11)"><rect x="505.77" y="240.29" width="15.389" height="32.46" fill="#cccebd" stroke="#cecbbc" stroke-width="2.5px"/><g transform="matrix(.96272 0 0 1 -5.9475 .49341)"><rect x="531.43" y="249.23" width="16.118" height="15.467" fill="#0a0803" stroke="#0a0703" stroke-width="2.55px"/></g></g><g id="widerstand29" transform="translate(-88.293 164.81)"><rect x="505.77" y="240.29" width="15.389" height="32.46" fill="#cccebd" stroke="#cecbbc" stroke-width="2.5px"/><g transform="matrix(.96272 0 0 1 -5.9475 .49341)"><rect x="531.43" y="249.23" width="16.118" height="15.467" fill="#0a0803" stroke="#0a0703" stroke-width="2.55px"/></g></g><g id="widerstand30" transform="translate(-423.97 245.17)"><rect x="505.77" y="240.29" width="15.389" height="32.46" fill="#cccebd" stroke="#cecbbc" stroke-width="2.5px"/><g transform="matrix(.96272 0 0 1 -5.9475 .49341)"><rect x="531.43" y="249.23" width="16.118" height="15.467" fill="#0a0803" stroke="#0a0703" stroke-width="2.55px"/></g></g><g id="widerstand31" transform="translate(-423.19 345.75)"><rect x="505.77" y="240.29" width="15.389" height="32.46" fill="#cccebd" stroke="#cecbbc" stroke-width="2.5px"/><g transform="matrix(.96272 0 0 1 -5.9475 .49341)"><rect x="531.43" y="249.23" width="16.118" height="15.467" fill="#0a0803" stroke="#0a0703" stroke-width="2.55px"/></g></g><g id="widerstand32" transform="translate(-422.86 402.17)"><rect x="505.77" y="240.29" width="15.389" height="32.46" fill="#cccebd" stroke="#cecbbc" stroke-width="2.5px"/><g transform="matrix(.96272 0 0 1 -5.9475 .49341)"><rect x="531.43" y="249.23" width="16.118" height="15.467" fill="#0a0803" stroke="#0a0703" stroke-width="2.55px"/></g></g></g><g id="widerstände-gelb"><g id="widerstand33" transform="matrix(1.5584 0 0 1.6518 -527.92 313.71)"><rect x="505.77" y="240.29" width="15.389" height="32.46" fill="#cccebd" stroke="#cecbbc" stroke-width="1.56px"/><g transform="matrix(.96272 0 0 1 -5.9475 .49341)"><rect x="531.43" y="249.23" width="16.118" height="15.467" fill="#b9a36c" stroke="#b9a36c" stroke-width="1.58px"/></g></g><g id="widerstand34" transform="matrix(1.5584 0 0 1.6518 -684.65 313.71)"><rect x="505.77" y="240.29" width="15.389" height="32.46" fill="#cccebd" stroke="#cecbbc" stroke-width="1.56px"/><g transform="matrix(.96272 0 0 1 -5.9475 .49341)"><rect x="531.43" y="249.23" width="16.118" height="15.467" fill="#b9a36c" stroke="#b9a36c" stroke-width="1.58px"/></g></g><g id="widerstand35" transform="matrix(1.5584 0 0 1.6518 -452.58 353.1)"><rect x="505.77" y="240.29" width="15.389" height="32.46" fill="#cccebd" stroke="#cecbbc" stroke-width="1.56px"/><g transform="matrix(.96272 0 0 1 -5.9475 .49341)"><rect x="531.43" y="249.23" width="16.118" height="15.467" fill="#b9a36c" stroke="#b9a36c" stroke-width="1.58px"/></g></g><g id="widerstand36" transform="matrix(5.9466e-16 2.0992 -1.8435 5.2221e-16 947.26 -178.71)"><rect x="505.77" y="240.29" width="15.389" height="32.46" fill="#cccebd" stroke="#cecbbc" stroke-width="1.27px"/><g transform="matrix(.96272 0 0 1 -5.9475 .49341)"><rect x="531.43" y="249.23" width="16.118" height="15.467" fill="#b9a36c" stroke="#b9a36c" stroke-width="1.29px"/></g></g><g id="widerstand37" transform="matrix(4.6828e-16 1.6531 -1.4985 4.2449e-16 522.51 90.516)"><rect x="505.77" y="240.29" width="15.389" height="32.46" fill="#cccebd" stroke="#cecbbc" stroke-width="1.58px"/><g transform="matrix(.96272 0 0 1 -5.9475 .49341)"><rect x="531.43" y="249.23" width="16.118" height="15.467" fill="#b9a36c" stroke="#b9a36c" stroke-width="1.62px"/></g></g><g id="widerstand38" transform="matrix(3.9538e-16 1.3957 -1.4252 4.0371e-16 1243.7 93.805)"><rect x="505.77" y="240.29" width="15.389" height="32.46" fill="#cccebd" stroke="#cecbbc" stroke-width="1.77px"/><g transform="matrix(.96272 0 0 1 -5.9475 .49341)"><rect x="531.43" y="249.23" width="16.118" height="15.467" fill="#b9a36c" stroke="#b9a36c" stroke-width="1.81px"/></g></g><g id="widerstand39" transform="matrix(-2.2772 1.2902e-15 -1.0595e-15 -1.87 2118.7 1252)"><rect x="505.77" y="240.29" width="15.389" height="32.46" fill="#cccebd" stroke="#cecbbc" stroke-width="1.2px"/><g transform="matrix(.96272 0 0 1 -5.9475 .49341)"><rect x="531.43" y="249.23" width="16.118" height="15.467" fill="#b9a36c" stroke="#b9a36c" stroke-width="1.23px"/></g></g><g id="widerstand40" transform="matrix(-.86576 4.905e-16 -5.0796e-16 -.89658 1167.3 606.85)"><rect x="505.77" y="240.29" width="15.389" height="32.46" fill="#cccebd" stroke="#cecbbc" stroke-width="2.84px"/><g transform="matrix(.96272 0 0 1 -5.9475 .49341)"><rect x="531.43" y="249.23" width="16.118" height="15.467" fill="#b9a36c" stroke="#b9a36c" stroke-width="2.89px"/></g></g><g id="widerstand41" transform="matrix(-.86576 4.905e-16 -5.0796e-16 -.89658 1197 606.85)"><rect x="505.77" y="240.29" width="15.389" height="32.46" fill="#cccebd" stroke="#cecbbc" stroke-width="2.84px"/><g transform="matrix(.96272 0 0 1 -5.9475 .49341)"><rect x="531.43" y="249.23" width="16.118" height="15.467" fill="#b9a36c" stroke="#b9a36c" stroke-width="2.89px"/></g></g><g id="widerstand42" transform="matrix(-.86576 4.905e-16 -5.0796e-16 -.89658 1224.7 606.85)"><rect x="505.77" y="240.29" width="15.389" height="32.46" fill="#cccebd" stroke="#cecbbc" stroke-width="2.84px"/><g transform="matrix(.96272 0 0 1 -5.9475 .49341)"><rect x="531.43" y="249.23" width="16.118" height="15.467" fill="#b9a36c" stroke="#b9a36c" stroke-width="2.89px"/></g></g><g id="widerstand43" transform="matrix(-.86576 4.905e-16 -5.0796e-16 -.89658 1277 576.44)"><rect x="505.77" y="240.29" width="15.389" height="32.46" fill="#cccebd" stroke="#cecbbc" stroke-width="2.84px"/><g transform="matrix(.96272 0 0 1 -5.9475 .49341)"><rect x="531.43" y="249.23" width="16.118" height="15.467" fill="#b9a36c" stroke="#b9a36c" stroke-width="2.89px"/></g></g><g id="widerstand44" transform="matrix(-.86576 4.905e-16 -5.0796e-16 -.89658 1302.8 576.44)"><rect x="505.77" y="240.29" width="15.389" height="32.46" fill="#cccebd" stroke="#cecbbc" stroke-width="2.84px"/><g transform="matrix(.96272 0 0 1 -5.9475 .49341)"><rect x="531.43" y="249.23" width="16.118" height="15.467" fill="#b9a36c" stroke="#b9a36c" stroke-width="2.89px"/></g></g><g id="widerstand45" transform="matrix(-.86576 4.905e-16 -5.0796e-16 -.89658 1394.9 599.98)"><rect x="505.77" y="240.29" width="15.389" height="32.46" fill="#cccebd" stroke="#cecbbc" stroke-width="2.84px"/><g transform="matrix(.96272 0 0 1 -5.9475 .49341)"><rect x="531.43" y="249.23" width="16.118" height="15.467" fill="#b9a36c" stroke="#b9a36c" stroke-width="2.89px"/></g></g><g id="widerstand46" transform="matrix(-.86576 4.905e-16 -5.0796e-16 -.89658 1398.9 675.52)"><rect x="505.77" y="240.29" width="15.389" height="32.46" fill="#cccebd" stroke="#cecbbc" stroke-width="2.84px"/><g transform="matrix(.96272 0 0 1 -5.9475 .49341)"><rect x="531.43" y="249.23" width="16.118" height="15.467" fill="#b9a36c" stroke="#b9a36c" stroke-width="2.89px"/></g></g><g id="widerstand47" transform="matrix(-.86576 4.905e-16 -5.0796e-16 -.89658 1477.4 702.49)"><rect x="505.77" y="240.29" width="15.389" height="32.46" fill="#cccebd" stroke="#cecbbc" stroke-width="2.84px"/><g transform="matrix(.96272 0 0 1 -5.9475 .49341)"><rect x="531.43" y="249.23" width="16.118" height="15.467" fill="#b9a36c" stroke="#b9a36c" stroke-width="2.89px"/></g></g><g id="widerstand48" transform="matrix(-.86576 4.905e-16 -5.0796e-16 -.89658 1558.1 705.33)"><rect x="505.77" y="240.29" width="15.389" height="32.46" fill="#cccebd" stroke="#cecbbc" stroke-width="2.84px"/><g transform="matrix(.96272 0 0 1 -5.9475 .49341)"><rect x="531.43" y="249.23" width="16.118" height="15.467" fill="#b9a36c" stroke="#b9a36c" stroke-width="2.89px"/></g></g><g id="widerstand49" transform="matrix(-.86576 4.905e-16 -5.0796e-16 -.89658 1589.5 698.6)"><rect x="505.77" y="240.29" width="15.389" height="32.46" fill="#cccebd" stroke="#cecbbc" stroke-width="2.84px"/><g transform="matrix(.96272 0 0 1 -5.9475 .49341)"><rect x="531.43" y="249.23" width="16.118" height="15.467" fill="#b9a36c" stroke="#b9a36c" stroke-width="2.89px"/></g></g><g id="widerstand50" transform="matrix(-.86576 4.905e-16 -5.0796e-16 -.89658 1316.6 732.4)"><rect x="505.77" y="240.29" width="15.389" height="32.46" fill="#cccebd" stroke="#cecbbc" stroke-width="2.84px"/><g transform="matrix(.96272 0 0 1 -5.9475 .49341)"><rect x="531.43" y="249.23" width="16.118" height="15.467" fill="#b9a36c" stroke="#b9a36c" stroke-width="2.89px"/></g></g><g id="widerstand51" transform="matrix(-.86576 4.905e-16 -5.0796e-16 -.89658 1071.9 608.97)"><rect x="505.77" y="240.29" width="15.389" height="32.46" fill="#cccebd" stroke="#cecbbc" stroke-width="2.84px"/><g transform="matrix(.96272 0 0 1 -5.9475 .49341)"><rect x="531.43" y="249.23" width="16.118" height="15.467" fill="#b9a36c" stroke="#b9a36c" stroke-width="2.89px"/></g></g><g id="widerstand52" transform="matrix(-.86576 4.905e-16 -5.0796e-16 -.89658 1039.6 602.19)"><rect x="505.77" y="240.29" width="15.389" height="32.46" fill="#cccebd" stroke="#cecbbc" stroke-width="2.84px"/><g transform="matrix(.96272 0 0 1 -5.9475 .49341)"><rect x="531.43" y="249.23" width="16.118" height="15.467" fill="#b9a36c" stroke="#b9a36c" stroke-width="2.89px"/></g></g><g id="widerstand53" transform="matrix(-.86576 4.905e-16 -5.0796e-16 -.89658 843.63 600.78)"><rect x="505.77" y="240.29" width="15.389" height="32.46" fill="#cccebd" stroke="#cecbbc" stroke-width="2.84px"/><g transform="matrix(.96272 0 0 1 -5.9475 .49341)"><rect x="531.43" y="249.23" width="16.118" height="15.467" fill="#b9a36c" stroke="#b9a36c" stroke-width="2.89px"/></g></g><g id="widerstand54" transform="matrix(-.86576 4.905e-16 -5.0796e-16 -.89658 843.06 651.33)"><rect x="505.77" y="240.29" width="15.389" height="32.46" fill="#cccebd" stroke="#cecbbc" stroke-width="2.84px"/><g transform="matrix(.96272 0 0 1 -5.9475 .49341)"><rect x="531.43" y="249.23" width="16.118" height="15.467" fill="#b9a36c" stroke="#b9a36c" stroke-width="2.89px"/></g></g><g id="widerstand55" transform="matrix(-.86576 4.905e-16 -5.0796e-16 -.89658 846.91 547.08)"><rect x="505.77" y="240.29" width="15.389" height="32.46" fill="#cccebd" stroke="#cecbbc" stroke-width="2.84px"/><g transform="matrix(.96272 0 0 1 -5.9475 .49341)"><rect x="531.43" y="249.23" width="16.118" height="15.467" fill="#b9a36c" stroke="#b9a36c" stroke-width="2.89px"/></g></g><g id="widerstand56" transform="matrix(-.86576 4.905e-16 -5.0796e-16 -.89658 872.47 538.31)"><rect x="505.77" y="240.29" width="15.389" height="32.46" fill="#cccebd" stroke="#cecbbc" stroke-width="2.84px"/><g transform="matrix(.96272 0 0 1 -5.9475 .49341)"><rect x="531.43" y="249.23" width="16.118" height="15.467" fill="#b9a36c" stroke="#b9a36c" stroke-width="2.89px"/></g></g><g id="widerstand57" transform="matrix(-.86576 4.905e-16 -5.0796e-16 -.89658 845.62 492.06)"><rect x="505.77" y="240.29" width="15.389" height="32.46" fill="#cccebd" stroke="#cecbbc" stroke-width="2.84px"/><g transform="matrix(.96272 0 0 1 -5.9475 .49341)"><rect x="531.43" y="249.23" width="16.118" height="15.467" fill="#b9a36c" stroke="#b9a36c" stroke-width="2.89px"/></g></g><g id="widerstand58" transform="matrix(6.4954e-16 .86576 -.89658 6.7266e-16 630.53 68.179)"><rect x="505.77" y="240.29" width="15.389" height="32.46" fill="#cccebd" stroke="#cecbbc" stroke-width="2.84px"/><g transform="matrix(.96272 0 0 1 -5.9475 .49341)"><rect x="531.43" y="249.23" width="16.118" height="15.467" fill="#b9a36c" stroke="#b9a36c" stroke-width="2.89px"/></g></g><g id="widerstand59" transform="matrix(-.86576 -2.7845e-16 2.8836e-16 -.89658 533.96 777.18)"><rect x="505.77" y="240.29" width="15.389" height="32.46" fill="#cccebd" stroke="#cecbbc" stroke-width="2.84px"/><g transform="matrix(.96272 0 0 1 -5.9475 .49341)"><rect x="531.43" y="249.23" width="16.118" height="15.467" fill="#b9a36c" stroke="#b9a36c" stroke-width="2.89px"/></g></g><g id="widerstand60" transform="matrix(-.86576 -2.7845e-16 2.8836e-16 -.89658 714.92 1034)"><rect x="505.77" y="240.29" width="15.389" height="32.46" fill="#cccebd" stroke="#cecbbc" stroke-width="2.84px"/><g transform="matrix(.96272 0 0 1 -5.9475 .49341)"><rect x="531.43" y="249.23" width="16.118" height="15.467" fill="#b9a36c" stroke="#b9a36c" stroke-width="2.89px"/></g></g><g id="widerstand61" transform="matrix(-.86576 -2.7845e-16 2.8836e-16 -.89658 572.83 1107.1)"><rect x="505.77" y="240.29" width="15.389" height="32.46" fill="#cccebd" stroke="#cecbbc" stroke-width="2.84px"/><g transform="matrix(.96272 0 0 1 -5.9475 .49341)"><rect x="531.43" y="249.23" width="16.118" height="15.467" fill="#b9a36c" stroke="#b9a36c" stroke-width="2.89px"/></g></g><g id="widerstand62" transform="matrix(-.86576 -2.7845e-16 2.8836e-16 -.89658 840.38 904.54)"><rect x="505.77" y="240.29" width="15.389" height="32.46" fill="#cccebd" stroke="#cecbbc" stroke-width="2.84px"/><g transform="matrix(.96272 0 0 1 -5.9475 .49341)"><rect x="531.43" y="249.23" width="16.118" height="15.467" fill="#b9a36c" stroke="#b9a36c" stroke-width="2.89px"/></g></g><g id="widerstand63" transform="matrix(-.86576 -2.7845e-16 2.8836e-16 -.89658 845.12 1007.4)"><rect x="505.77" y="240.29" width="15.389" height="32.46" fill="#cccebd" stroke="#cecbbc" stroke-width="2.84px"/><g transform="matrix(.96272 0 0 1 -5.9475 .49341)"><rect x="531.43" y="249.23" width="16.118" height="15.467" fill="#b9a36c" stroke="#b9a36c" stroke-width="2.89px"/></g></g><g id="widerstand64" transform="matrix(-.86576 -2.7845e-16 2.8836e-16 -.89658 1022.8 1085.7)"><rect x="505.77" y="240.29" width="15.389" height="32.46" fill="#cccebd" stroke="#cecbbc" stroke-width="2.84px"/><g transform="matrix(.96272 0 0 1 -5.9475 .49341)"><rect x="531.43" y="249.23" width="16.118" height="15.467" fill="#b9a36c" stroke="#b9a36c" stroke-width="2.89px"/></g></g><g id="widerstand65" transform="matrix(-.86576 -2.7845e-16 2.8836e-16 -.89658 1050.1 1085.7)"><rect x="505.77" y="240.29" width="15.389" height="32.46" fill="#cccebd" stroke="#cecbbc" stroke-width="2.84px"/><g transform="matrix(.96272 0 0 1 -5.9475 .49341)"><rect x="531.43" y="249.23" width="16.118" height="15.467" fill="#b9a36c" stroke="#b9a36c" stroke-width="2.89px"/></g></g><g id="widerstand66" transform="matrix(-.86576 -2.7845e-16 2.8836e-16 -.89658 1076.4 1085.7)"><rect x="505.77" y="240.29" width="15.389" height="32.46" fill="#cccebd" stroke="#cecbbc" stroke-width="2.84px"/><g transform="matrix(.96272 0 0 1 -5.9475 .49341)"><rect x="531.43" y="249.23" width="16.118" height="15.467" fill="#b9a36c" stroke="#b9a36c" stroke-width="2.89px"/></g></g><g id="widerstand67" transform="matrix(-.86576 -2.7845e-16 2.8836e-16 -.89658 1112.9 1085.7)"><rect x="505.77" y="240.29" width="15.389" height="32.46" fill="#cccebd" stroke="#cecbbc" stroke-width="2.84px"/><g transform="matrix(.96272 0 0 1 -5.9475 .49341)"><rect x="531.43" y="249.23" width="16.118" height="15.467" fill="#b9a36c" stroke="#b9a36c" stroke-width="2.89px"/></g></g><g id="widerstand68" transform="matrix(-.86576 -2.7845e-16 2.8836e-16 -.89658 1148.9 1085.7)"><rect x="505.77" y="240.29" width="15.389" height="32.46" fill="#cccebd" stroke="#cecbbc" stroke-width="2.84px"/><g transform="matrix(.96272 0 0 1 -5.9475 .49341)"><rect x="531.43" y="249.23" width="16.118" height="15.467" fill="#b9a36c" stroke="#b9a36c" stroke-width="2.89px"/></g></g><g id="widerstand69" transform="matrix(-.86576 -2.7845e-16 2.8836e-16 -.89658 1238.3 1085.7)"><rect x="505.77" y="240.29" width="15.389" height="32.46" fill="#cccebd" stroke="#cecbbc" stroke-width="2.84px"/><g transform="matrix(.96272 0 0 1 -5.9475 .49341)"><rect x="531.43" y="249.23" width="16.118" height="15.467" fill="#b9a36c" stroke="#b9a36c" stroke-width="2.89px"/></g></g><g id="widerstand70" transform="matrix(-.86576 -2.7845e-16 2.8836e-16 -.89658 1278 1085.7)"><rect x="505.77" y="240.29" width="15.389" height="32.46" fill="#cccebd" stroke="#cecbbc" stroke-width="2.84px"/><g transform="matrix(.96272 0 0 1 -5.9475 .49341)"><rect x="531.43" y="249.23" width="16.118" height="15.467" fill="#b9a36c" stroke="#b9a36c" stroke-width="2.89px"/></g></g><g id="widerstand71" transform="matrix(-.86576 -2.7845e-16 2.8836e-16 -.89658 1306.5 1085.7)"><rect x="505.77" y="240.29" width="15.389" height="32.46" fill="#cccebd" stroke="#cecbbc" stroke-width="2.84px"/><g transform="matrix(.96272 0 0 1 -5.9475 .49341)"><rect x="531.43" y="249.23" width="16.118" height="15.467" fill="#b9a36c" stroke="#b9a36c" stroke-width="2.89px"/></g></g><g id="widerstand72" transform="matrix(-.86576 -2.7845e-16 2.8836e-16 -.89658 1331.7 1085.7)"><rect x="505.77" y="240.29" width="15.389" height="32.46" fill="#cccebd" stroke="#cecbbc" stroke-width="2.84px"/><g transform="matrix(.96272 0 0 1 -5.9475 .49341)"><rect x="531.43" y="249.23" width="16.118" height="15.467" fill="#b9a36c" stroke="#b9a36c" stroke-width="2.89px"/></g></g><g id="widerstand73" transform="matrix(-.86576 -2.7845e-16 2.8836e-16 -.89658 1358.2 1085.7)"><rect x="505.77" y="240.29" width="15.389" height="32.46" fill="#cccebd" stroke="#cecbbc" stroke-width="2.84px"/><g transform="matrix(.96272 0 0 1 -5.9475 .49341)"><rect x="531.43" y="249.23" width="16.118" height="15.467" fill="#b9a36c" stroke="#b9a36c" stroke-width="2.89px"/></g></g><g id="widerstand74" transform="matrix(-.86576 -2.7845e-16 2.8836e-16 -.89658 1200.9 1090.9)"><rect x="505.77" y="240.29" width="15.389" height="32.46" fill="#cccebd" stroke="#cecbbc" stroke-width="2.84px"/><g transform="matrix(.96272 0 0 1 -5.9475 .49341)"><rect x="531.43" y="249.23" width="16.118" height="15.467" fill="#b9a36c" stroke="#b9a36c" stroke-width="2.89px"/></g></g><g id="widerstand75" transform="matrix(-.86576 -2.7845e-16 2.8836e-16 -.89658 1144.8 1151.1)"><rect x="505.77" y="240.29" width="15.389" height="32.46" fill="#cccebd" stroke="#cecbbc" stroke-width="2.84px"/><g transform="matrix(.96272 0 0 1 -5.9475 .49341)"><rect x="531.43" y="249.23" width="16.118" height="15.467" fill="#b9a36c" stroke="#b9a36c" stroke-width="2.89px"/></g></g><g id="widerstand76" transform="matrix(-.86576 -2.7845e-16 2.8836e-16 -.89658 1053 1151.1)"><rect x="505.77" y="240.29" width="15.389" height="32.46" fill="#cccebd" stroke="#cecbbc" stroke-width="2.84px"/><g transform="matrix(.96272 0 0 1 -5.9475 .49341)"><rect x="531.43" y="249.23" width="16.118" height="15.467" fill="#b9a36c" stroke="#b9a36c" stroke-width="2.89px"/></g></g><g id="widerstand77" transform="matrix(-.84881 -2.73e-16 2.8272e-16 -.87904 1228.6 1146.3)"><rect x="505.77" y="240.29" width="15.389" height="32.46" fill="#cccebd" stroke="#cecbbc" stroke-width="2.89px"/><g transform="matrix(.96272 0 0 1 -5.9475 .49341)"><rect x="531.43" y="249.23" width="16.118" height="15.467" fill="#b9a36c" stroke="#b9a36c" stroke-width="2.95px"/></g></g><g id="widerstand78" transform="matrix(-.84881 -2.73e-16 2.8272e-16 -.87904 1320.2 1146.3)"><rect x="505.77" y="240.29" width="15.389" height="32.46" fill="#cccebd" stroke="#cecbbc" stroke-width="2.89px"/><g transform="matrix(.96272 0 0 1 -5.9475 .49341)"><rect x="531.43" y="249.23" width="16.118" height="15.467" fill="#b9a36c" stroke="#b9a36c" stroke-width="2.95px"/></g></g><g id="widerstand79" transform="matrix(-.84881 -2.73e-16 2.8272e-16 -.87904 1343.5 977.56)"><rect x="505.77" y="240.29" width="15.389" height="32.46" fill="#cccebd" stroke="#cecbbc" stroke-width="2.89px"/><g transform="matrix(.96272 0 0 1 -5.9475 .49341)"><rect x="531.43" y="249.23" width="16.118" height="15.467" fill="#b9a36c" stroke="#b9a36c" stroke-width="2.95px"/></g></g><g id="widerstand80" transform="matrix(-.86576 -2.7845e-16 2.8836e-16 -.89658 908.33 1077.8)"><rect x="505.77" y="240.29" width="15.389" height="32.46" fill="#cccebd" stroke="#cecbbc" stroke-width="2.84px"/><g transform="matrix(.96272 0 0 1 -5.9475 .49341)"><rect x="531.43" y="249.23" width="16.118" height="15.467" fill="#b9a36c" stroke="#b9a36c" stroke-width="2.89px"/></g></g><g id="widerstand81" transform="matrix(-.86576 -2.7845e-16 2.8836e-16 -.89658 950.79 1077.8)"><rect x="505.77" y="240.29" width="15.389" height="32.46" fill="#cccebd" stroke="#cecbbc" stroke-width="2.84px"/><g transform="matrix(.96272 0 0 1 -5.9475 .49341)"><rect x="531.43" y="249.23" width="16.118" height="15.467" fill="#b9a36c" stroke="#b9a36c" stroke-width="2.89px"/></g></g><g id="widerstand82" transform="matrix(-1.1941e-16 .86576 -.89658 -1.2366e-16 628.19 291.39)"><rect x="505.77" y="240.29" width="15.389" height="32.46" fill="#cccebd" stroke="#cecbbc" stroke-width="2.84px"/><g transform="matrix(.96272 0 0 1 -5.9475 .49341)"><rect x="531.43" y="249.23" width="16.118" height="15.467" fill="#b9a36c" stroke="#b9a36c" stroke-width="2.89px"/></g></g><g id="widerstand83" transform="matrix(-1.1941e-16 .86576 -.89658 -1.2366e-16 1114.2 188.19)"><rect x="505.77" y="240.29" width="15.389" height="32.46" fill="#cccebd" stroke="#cecbbc" stroke-width="2.84px"/><g transform="matrix(.96272 0 0 1 -5.9475 .49341)"><rect x="531.43" y="249.23" width="16.118" height="15.467" fill="#b9a36c" stroke="#b9a36c" stroke-width="2.89px"/></g></g><g id="widerstand84" transform="matrix(-1.1941e-16 .86576 -.89658 -1.2366e-16 1101.1 227.34)"><rect x="505.77" y="240.29" width="15.389" height="32.46" fill="#cccebd" stroke="#cecbbc" stroke-width="2.84px"/><g transform="matrix(.96272 0 0 1 -5.9475 .49341)"><rect x="531.43" y="249.23" width="16.118" height="15.467" fill="#b9a36c" stroke="#b9a36c" stroke-width="2.89px"/></g></g><g id="widerstand85" transform="matrix(-1.1941e-16 .86576 -.89658 -1.2366e-16 1180.6 267.01)"><rect x="505.77" y="240.29" width="15.389" height="32.46" fill="#cccebd" stroke="#cecbbc" stroke-width="2.84px"/><g transform="matrix(.96272 0 0 1 -5.9475 .49341)"><rect x="531.43" y="249.23" width="16.118" height="15.467" fill="#b9a36c" stroke="#b9a36c" stroke-width="2.89px"/></g></g><g id="widerstand86" transform="matrix(-1.1941e-16 .86576 -.89658 -1.2366e-16 1234.3 124.35)"><rect x="505.77" y="240.29" width="15.389" height="32.46" fill="#cccebd" stroke="#cecbbc" stroke-width="2.84px"/><g transform="matrix(.96272 0 0 1 -5.9475 .49341)"><rect x="531.43" y="249.23" width="16.118" height="15.467" fill="#b9a36c" stroke="#b9a36c" stroke-width="2.89px"/></g></g><g id="widerstand87" transform="matrix(-1.1941e-16 .86576 -.89658 -1.2366e-16 1294.6 122.66)"><rect x="505.77" y="240.29" width="15.389" height="32.46" fill="#cccebd" stroke="#cecbbc" stroke-width="2.84px"/><g transform="matrix(.96272 0 0 1 -5.9475 .49341)"><rect x="531.43" y="249.23" width="16.118" height="15.467" fill="#b9a36c" stroke="#b9a36c" stroke-width="2.89px"/></g></g><g id="widerstand88" transform="matrix(-1.1941e-16 .86576 -.89658 -1.2366e-16 1184.6 99.098)"><rect x="505.77" y="240.29" width="15.389" height="32.46" fill="#cccebd" stroke="#cecbbc" stroke-width="2.84px"/><g transform="matrix(.96272 0 0 1 -5.9475 .49341)"><rect x="531.43" y="249.23" width="16.118" height="15.467" fill="#b9a36c" stroke="#b9a36c" stroke-width="2.89px"/></g></g><g id="widerstand89" transform="matrix(-1.1941e-16 .86576 -.89658 -1.2366e-16 1091.1 96.513)"><rect x="505.77" y="240.29" width="15.389" height="32.46" fill="#cccebd" stroke="#cecbbc" stroke-width="2.84px"/><g transform="matrix(.96272 0 0 1 -5.9475 .49341)"><rect x="531.43" y="249.23" width="16.118" height="15.467" fill="#b9a36c" stroke="#b9a36c" stroke-width="2.89px"/></g></g><g id="widerstand90" transform="matrix(-1.1941e-16 .86576 -.89658 -1.2366e-16 1109.2 125.86)"><rect x="505.77" y="240.29" width="15.389" height="32.46" fill="#cccebd" stroke="#cecbbc" stroke-width="2.84px"/><g transform="matrix(.96272 0 0 1 -5.9475 .49341)"><rect x="531.43" y="249.23" width="16.118" height="15.467" fill="#b9a36c" stroke="#b9a36c" stroke-width="2.89px"/></g></g><g id="widerstand91" transform="matrix(-1.1941e-16 .86576 -.89658 -1.2366e-16 1210.4 44.772)"><rect x="505.77" y="240.29" width="15.389" height="32.46" fill="#cccebd" stroke="#cecbbc" stroke-width="2.84px"/><g transform="matrix(.96272 0 0 1 -5.9475 .49341)"><rect x="531.43" y="249.23" width="16.118" height="15.467" fill="#b9a36c" stroke="#b9a36c" stroke-width="2.89px"/></g></g><g id="widerstand92" transform="matrix(-1.1941e-16 .86576 -.89658 -1.2366e-16 1190.5 -142.95)"><rect x="505.77" y="240.29" width="15.389" height="32.46" fill="#cccebd" stroke="#cecbbc" stroke-width="2.84px"/><g transform="matrix(.96272 0 0 1 -5.9475 .49341)"><rect x="531.43" y="249.23" width="16.118" height="15.467" fill="#b9a36c" stroke="#b9a36c" stroke-width="2.89px"/></g></g><g id="widerstand93" transform="matrix(-1.1941e-16 .86576 -.89658 -1.2366e-16 1208.3 73.321)"><rect x="505.77" y="240.29" width="15.389" height="32.46" fill="#cccebd" stroke="#cecbbc" stroke-width="2.84px"/><g transform="matrix(.96272 0 0 1 -5.9475 .49341)"><rect x="531.43" y="249.23" width="16.118" height="15.467" fill="#b9a36c" stroke="#b9a36c" stroke-width="2.89px"/></g></g><g id="widerstand94" transform="matrix(-1.1941e-16 .86576 -.89658 -1.2366e-16 1272.5 70.597)"><rect x="505.77" y="240.29" width="15.389" height="32.46" fill="#cccebd" stroke="#cecbbc" stroke-width="2.84px"/><g transform="matrix(.96272 0 0 1 -5.9475 .49341)"><rect x="531.43" y="249.23" width="16.118" height="15.467" fill="#b9a36c" stroke="#b9a36c" stroke-width="2.89px"/></g></g><g id="widerstand95" transform="matrix(-1.1941e-16 .86576 -.89658 -1.2366e-16 1361.2 70.027)"><rect x="505.77" y="240.29" width="15.389" height="32.46" fill="#cccebd" stroke="#cecbbc" stroke-width="2.84px"/><g transform="matrix(.96272 0 0 1 -5.9475 .49341)"><rect x="531.43" y="249.23" width="16.118" height="15.467" fill="#b9a36c" stroke="#b9a36c" stroke-width="2.89px"/></g></g><g id="widerstand96" transform="matrix(-1.1941e-16 .86576 -.89658 -1.2366e-16 1109 3.9547)"><rect x="505.77" y="240.29" width="15.389" height="32.46" fill="#cccebd" stroke="#cecbbc" stroke-width="2.84px"/><g transform="matrix(.96272 0 0 1 -5.9475 .49341)"><rect x="531.43" y="249.23" width="16.118" height="15.467" fill="#b9a36c" stroke="#b9a36c" stroke-width="2.89px"/></g></g><g id="widerstand97" transform="matrix(-1.1941e-16 .86576 -.89658 -1.2366e-16 553.84 271)"><rect x="505.77" y="240.29" width="15.389" height="32.46" fill="#cccebd" stroke="#cecbbc" stroke-width="2.84px"/><g transform="matrix(.96272 0 0 1 -5.9475 .49341)"><rect x="531.43" y="249.23" width="16.118" height="15.467" fill="#b9a36c" stroke="#b9a36c" stroke-width="2.89px"/></g></g></g><g id="wiederstände-gruen"><g id="widerstand98" transform="matrix(.86576 0 -1.9722e-31 .89658 468.52 245.3)"><rect x="505.77" y="240.29" width="15.389" height="32.46" fill="#cccebd" stroke="#cecbbc" stroke-width="2.84px"/><g transform="matrix(.96272 -9.4932e-32 -1.4042e-31 .42402 -5.9475 152.95)"><rect x="531.43" y="249.23" width="16.118" height="15.467" stroke="#000" stroke-width="3.86px"/></g><g transform="matrix(.96272 -9.4932e-32 -1.4042e-31 .42402 -5.9475 144.83)"><rect x="531.43" y="249.23" width="16.118" height="15.467" fill="#53a151" stroke="#53a151" stroke-width="3.86px"/></g></g><g id="widerstand99" transform="matrix(.86576 0 -1.9722e-31 .89658 642.59 299.04)"><rect x="505.77" y="240.29" width="15.389" height="32.46" fill="#cccebd" stroke="#cecbbc" stroke-width="2.84px"/><g transform="matrix(.96272 -9.4932e-32 -1.4042e-31 .42402 -5.9475 152.95)"><rect x="531.43" y="249.23" width="16.118" height="15.467" stroke="#000" stroke-width="3.86px"/></g><g transform="matrix(.96272 -9.4932e-32 -1.4042e-31 .42402 -5.9475 144.83)"><rect x="531.43" y="249.23" width="16.118" height="15.467" fill="#53a151" stroke="#53a151" stroke-width="3.86px"/></g></g><g id="widerstand100" transform="matrix(-1.3922e-16 -.86576 .89658 -1.4418e-16 899.63 837.76)"><rect x="505.77" y="240.29" width="15.389" height="32.46" fill="#cccebd" stroke="#cecbbc" stroke-width="2.84px"/><g transform="matrix(.96272 -9.4932e-32 -1.4042e-31 .42402 -5.9475 152.95)"><rect x="531.43" y="249.23" width="16.118" height="15.467" stroke="#000" stroke-width="3.86px"/></g><g transform="matrix(.96272 -9.4932e-32 -1.4042e-31 .42402 -5.9475 144.83)"><rect x="531.43" y="249.23" width="16.118" height="15.467" fill="#53a151" stroke="#53a151" stroke-width="3.86px"/></g></g><g id="widerstand101" transform="matrix(-1.3922e-16 -.86576 .89658 -1.4418e-16 676.44 828.15)"><rect x="505.77" y="240.29" width="15.389" height="32.46" fill="#cccebd" stroke="#cecbbc" stroke-width="2.84px"/><g transform="matrix(.96272 -9.4932e-32 -1.4042e-31 .42402 -5.9475 152.95)"><rect x="531.43" y="249.23" width="16.118" height="15.467" stroke="#000" stroke-width="3.86px"/></g><g transform="matrix(.96272 -9.4932e-32 -1.4042e-31 .42402 -5.9475 144.83)"><rect x="531.43" y="249.23" width="16.118" height="15.467" fill="#53a151" stroke="#53a151" stroke-width="3.86px"/></g></g><g id="widerstand102" transform="matrix(-1.3922e-16 -.86576 .89658 -1.4418e-16 678.41 801.8)"><rect x="505.77" y="240.29" width="15.389" height="32.46" fill="#cccebd" stroke="#cecbbc" stroke-width="2.84px"/><g transform="matrix(.96272 -9.4932e-32 -1.4042e-31 .42402 -5.9475 152.95)"><rect x="531.43" y="249.23" width="16.118" height="15.467" stroke="#000" stroke-width="3.86px"/></g><g transform="matrix(.96272 -9.4932e-32 -1.4042e-31 .42402 -5.9475 144.83)"><rect x="531.43" y="249.23" width="16.118" height="15.467" fill="#53a151" stroke="#53a151" stroke-width="3.86px"/></g></g><g id="widerstand103" transform="matrix(-1.3922e-16 -.86576 .89658 -1.4418e-16 761.36 800.46)"><rect x="505.77" y="240.29" width="15.389" height="32.46" fill="#cccebd" stroke="#cecbbc" stroke-width="2.84px"/><g transform="matrix(.96272 -9.4932e-32 -1.4042e-31 .42402 -5.9475 152.95)"><rect x="531.43" y="249.23" width="16.118" height="15.467" stroke="#000" stroke-width="3.86px"/></g><g transform="matrix(.96272 -9.4932e-32 -1.4042e-31 .42402 -5.9475 144.83)"><rect x="531.43" y="249.23" width="16.118" height="15.467" fill="#53a151" stroke="#53a151" stroke-width="3.86px"/></g></g><g id="widerstand104" transform="matrix(-1.3922e-16 -.86576 .89658 -1.4418e-16 760.52 829.66)"><rect x="505.77" y="240.29" width="15.389" height="32.46" fill="#cccebd" stroke="#cecbbc" stroke-width="2.84px"/><g transform="matrix(.96272 -9.4932e-32 -1.4042e-31 .42402 -5.9475 152.95)"><rect x="531.43" y="249.23" width="16.118" height="15.467" stroke="#000" stroke-width="3.86px"/></g><g transform="matrix(.96272 -9.4932e-32 -1.4042e-31 .42402 -5.9475 144.83)"><rect x="531.43" y="249.23" width="16.118" height="15.467" fill="#53a151" stroke="#53a151" stroke-width="3.86px"/></g></g><g id="widerstand105" transform="matrix(2.4525e-16 .86576 -.89658 2.5398e-16 1170.9 126.65)"><rect x="505.77" y="240.29" width="15.389" height="32.46" fill="#cccebd" stroke="#cecbbc" stroke-width="2.84px"/><g transform="matrix(.96272 -9.4932e-32 -1.4042e-31 .42402 -5.9475 152.95)"><rect x="531.43" y="249.23" width="16.118" height="15.467" stroke="#000" stroke-width="3.86px"/></g><g transform="matrix(.96272 -9.4932e-32 -1.4042e-31 .42402 -5.9475 144.83)"><rect x="531.43" y="249.23" width="16.118" height="15.467" fill="#53a151" stroke="#53a151" stroke-width="3.86px"/></g></g><g id="widerstand106" transform="matrix(2.4525e-16 .86576 -.89658 2.5398e-16 1298.7 43.903)"><rect x="505.77" y="240.29" width="15.389" height="32.46" fill="#cccebd" stroke="#cecbbc" stroke-width="2.84px"/><g transform="matrix(.96272 -9.4932e-32 -1.4042e-31 .42402 -5.9475 152.95)"><rect x="531.43" y="249.23" width="16.118" height="15.467" stroke="#000" stroke-width="3.86px"/></g><g transform="matrix(.96272 -9.4932e-32 -1.4042e-31 .42402 -5.9475 144.83)"><rect x="531.43" y="249.23" width="16.118" height="15.467" fill="#53a151" stroke="#53a151" stroke-width="3.86px"/></g></g><g id="widerstand107" transform="matrix(-.86576 4.905e-16 -5.0796e-16 -.89658 1358 760.69)"><rect x="505.77" y="240.29" width="15.389" height="32.46" fill="#cccebd" stroke="#cecbbc" stroke-width="2.84px"/><g transform="matrix(.96272 -9.4932e-32 -1.4042e-31 .42402 -5.9475 152.95)"><rect x="531.43" y="249.23" width="16.118" height="15.467" stroke="#000" stroke-width="3.86px"/></g><g transform="matrix(.96272 -9.4932e-32 -1.4042e-31 .42402 -5.9475 144.83)"><rect x="531.43" y="249.23" width="16.118" height="15.467" fill="#53a151" stroke="#53a151" stroke-width="3.86px"/></g></g></g><g transform="matrix(.96762 0 0 .97999 21.647 4.4764)"><path d="m772.31 229.46c0-3.194-2.626-5.787-5.861-5.787h-92.06c-3.235 0-5.861 2.593-5.861 5.787v63.876c0 3.194 2.626 5.787 5.861 5.787h92.06c3.235 0 5.861-2.593 5.861-5.787v-63.876z" fill="#b5ae9a" stroke="#decc75" stroke-width="6.16px"/></g></svg>
