<?xml version="1.0" encoding="UTF-8"?>
<!DOCTYPE svg  PUBLIC '-//W3C//DTD SVG 1.1//EN'  'http://www.w3.org/Graphics/SVG/1.1/DTD/svg11.dtd'>
<svg clip-rule="evenodd" fill-rule="evenodd" stroke-linecap="round" stroke-linejoin="round" stroke-miterlimit="1.4142" version="1.1" viewBox="0 0 1280 1150" xmlns="http://www.w3.org/2000/svg"><path d="m259.48 148.86 38.985-43.461h555.39l46.539 43.461v826.46l-46.539 40.138h-546.51l-47.861-40.138v-826.46z" fill="#007841" stroke="#000" stroke-width="4.5px"/><path d="m547.2 528.56v123.24h117.52v-123.24h-117.52" fill="#302f2e" stroke="#1e2020" stroke-linecap="square" stroke-width="3px"/><path d="m719.4 729.62v82.443h-139.1v-82.443h139.1" fill="none" stroke="#fff" stroke-width="2.5px"/><rect x="409.23" y="729.62" width="137.9" height="82.443" fill="none" stroke="#fff" stroke-width="2.5px"/><g transform="translate(0 -.66458)"><path d="m274.64 458.92h131.54" fill="none" stroke="#fff" stroke-linecap="square" stroke-width="3px"/></g><g transform="translate(0 27.876)"><path d="m274.64 458.92h131.54" fill="none" stroke="#fff" stroke-linecap="square" stroke-width="3px"/></g><g transform="translate(0 13.472)"><path d="m274.64 458.92h131.54" fill="none" stroke="#fff" stroke-linecap="square" stroke-width="3px"/></g><g transform="translate(0 42.013)"><path d="m274.64 458.92h131.54" fill="none" stroke="#fff" stroke-linecap="square" stroke-width="3px"/></g><g transform="translate(0 6.5112)"><path d="m274.64 458.92h131.54" fill="none" stroke="#fff" stroke-linecap="square" stroke-width="3px"/></g><g transform="translate(0 35.052)"><path d="m274.64 458.92h131.54" fill="none" stroke="#fff" stroke-linecap="square" stroke-width="3px"/></g><g transform="translate(0 20.648)"><path d="m274.64 458.92h131.54" fill="none" stroke="#fff" stroke-linecap="square" stroke-width="3px"/></g><g transform="translate(0 49.189)"><path d="m274.64 458.92h131.54" fill="none" stroke="#fff" stroke-linecap="square" stroke-width="3px"/></g><g transform="translate(0 89.196)"><g transform="translate(0 -.66458)"><path d="m274.64 458.92h131.54" fill="none" stroke="#fff" stroke-linecap="square" stroke-width="3px"/></g><g transform="translate(0 27.876)"><path d="m274.64 458.92h131.54" fill="none" stroke="#fff" stroke-linecap="square" stroke-width="3px"/></g><g transform="translate(0 13.472)"><path d="m274.64 458.92h131.54" fill="none" stroke="#fff" stroke-linecap="square" stroke-width="3px"/></g><g transform="translate(0 42.013)"><path d="m274.64 458.92h131.54" fill="none" stroke="#fff" stroke-linecap="square" stroke-width="3px"/></g><g transform="translate(0 6.5112)"><path d="m274.64 458.92h131.54" fill="none" stroke="#fff" stroke-linecap="square" stroke-width="3px"/></g><g transform="translate(0 35.052)"><path d="m274.64 458.92h131.54" fill="none" stroke="#fff" stroke-linecap="square" stroke-width="3px"/></g><g transform="translate(0 20.648)"><path d="m274.64 458.92h131.54" fill="none" stroke="#fff" stroke-linecap="square" stroke-width="3px"/></g><g transform="translate(0 49.189)"><path d="m274.64 458.92h131.54" fill="none" stroke="#fff" stroke-linecap="square" stroke-width="3px"/></g></g><g transform="translate(0 55.587)"><g transform="translate(0 -.66458)"><path d="m274.64 458.92h131.54" fill="none" stroke="#fff" stroke-linecap="square" stroke-width="3px"/></g><g transform="translate(0 26.876)"><path d="m274.64 458.92h131.54" fill="none" stroke="#fff" stroke-linecap="square" stroke-width="3px"/></g><g transform="translate(0 13.472)"><path d="m274.64 458.92h131.54" fill="none" stroke="#fff" stroke-linecap="square" stroke-width="3px"/></g><g transform="translate(0 6.5112)"><path d="m274.64 458.92h131.54" fill="none" stroke="#fff" stroke-linecap="square" stroke-width="3px"/></g><g transform="translate(0 20.648)"><path d="m274.64 458.92h131.54" fill="none" stroke="#fff" stroke-linecap="square" stroke-width="3px"/></g></g><g transform="translate(0 146.13)"><g transform="translate(0 -.66458)"><path d="m274.64 458.92h131.54" fill="none" stroke="#fff" stroke-linecap="square" stroke-width="3px"/></g><g transform="translate(0 27.876)"><path d="m274.64 458.92h131.54" fill="none" stroke="#fff" stroke-linecap="square" stroke-width="3px"/></g><g transform="translate(0 13.472)"><path d="m274.64 458.92h131.54" fill="none" stroke="#fff" stroke-linecap="square" stroke-width="3px"/></g><g transform="translate(0 42.013)"><path d="m274.64 458.92h131.54" fill="none" stroke="#fff" stroke-linecap="square" stroke-width="3px"/></g><g transform="translate(0 63.641)"><path d="m274.64 458.92h131.54" fill="none" stroke="#fff" stroke-linecap="square" stroke-width="3px"/></g><g transform="translate(0 6.5112)"><path d="m274.64 458.92h131.54" fill="none" stroke="#fff" stroke-linecap="square" stroke-width="3px"/></g><g transform="translate(0 35.052)"><path d="m274.64 458.92h131.54" fill="none" stroke="#fff" stroke-linecap="square" stroke-width="3px"/></g><g transform="translate(0 56.68)"><path d="m274.64 458.92h131.54" fill="none" stroke="#fff" stroke-linecap="square" stroke-width="3px"/></g><g transform="translate(0 20.648)"><path d="m274.64 458.92h131.54" fill="none" stroke="#fff" stroke-linecap="square" stroke-width="3px"/></g><g transform="translate(0 49.189)"><path d="m274.64 458.92h131.54" fill="none" stroke="#fff" stroke-linecap="square" stroke-width="3px"/></g><g transform="translate(0 70.817)"><path d="m274.64 458.92h131.54" fill="none" stroke="#fff" stroke-linecap="square" stroke-width="3px"/></g></g><g transform="matrix(1 0 0 1.913 -264.85 -563.56)"><path d="m547.2 528.56v123.24h117.52v-123.24h-117.52" fill="#302f2e" stroke="#1e2020" stroke-linecap="square" stroke-width="1.97px"/></g><g id="bohrungen"><g id="bohrung"><path d="m259.48 814.96c10.785-22.794 40.653-23.652 49.74-18.587 32.503 18.115 25.675 67.232 0 75.778-13.553 4.512-30.947 9.743-49.74-19.908" fill="#ecaa21" stroke="#ecaa20" stroke-width=".75px"/><g transform="matrix(.81894 0 0 .88949 119.8 -112.15)"><ellipse cx="212.16" cy="1065" rx="22.216" ry="19.948" fill="#fff" stroke="#007841" stroke-linecap="butt" stroke-width="6.43px"/></g></g><g id="bohrung1"><path d="m810.81 105.4c-53.315 33.337 28.188 113.87 62.146 44.448 4.126-8.436 4.745-17.586 0-25.702l-20.026-18.746h-42.12" fill="#ecaa21" stroke="#ecaa20" stroke-width=".75px"/><g transform="matrix(.81894 0 0 .88949 659.64 -809.34)"><ellipse cx="212.16" cy="1065" rx="22.216" ry="19.948" fill="#fff" stroke="#007841" stroke-linecap="butt" stroke-width="6.43px"/></g></g><g id="bohrung2" transform="matrix(-1 0 0 1 1154.2 0)"><path d="m810.81 105.4c-53.315 33.337 28.188 113.87 62.146 44.448 4.126-8.436 4.745-17.586 0-25.702l-20.026-18.746h-42.12" fill="#ecaa21" stroke="#ecaa20" stroke-width=".75px"/><g transform="matrix(.81894 0 0 .88949 659.64 -809.34)"><ellipse cx="212.16" cy="1065" rx="22.216" ry="19.948" fill="#fff" stroke="#007841" stroke-linecap="butt" stroke-width="6.43px"/></g></g></g><ellipse cx="863.17" cy="739.45" rx="7.909" ry="7.827" stroke="#ecaa21" stroke-width="1.5px"/><g transform="translate(-56.247)"><ellipse cx="863.17" cy="739.45" rx="7.909" ry="7.827" stroke="#ecaa21" stroke-width="1.5px"/></g><g transform="translate(-56.247 28.286)"><ellipse cx="863.17" cy="739.45" rx="7.909" ry="7.827" stroke="#ecaa21" stroke-width="1.5px"/></g><g transform="translate(-56.247 55.176)"><ellipse cx="863.17" cy="739.45" rx="7.909" ry="7.827" stroke="#ecaa21" stroke-width="1.5px"/></g><g transform="translate(-.84183 55.176)"><ellipse cx="863.17" cy="739.45" rx="7.909" ry="7.827" stroke="#ecaa21" stroke-width="1.5px"/></g><path d="m899.22 721.96h-101.86v90.101h101.86" fill="none" stroke="#fff" stroke-width="2.5px"/><g transform="matrix(1.2138 0 0 .65434 -263.64 388.92)"><path d="m547.2 528.56v123.24h117.52v-123.24h-117.52" fill="#302f2e" stroke="#1e2020" stroke-linecap="square" stroke-width="3.08px"/></g><g transform="matrix(1.2138 0 0 .65434 -93.382 388.92)"><path d="m547.2 528.56v123.24h117.52v-123.24h-117.52" fill="#302f2e" stroke="#1e2020" stroke-linecap="square" stroke-width="3.08px"/></g><path d="m643.66 382.03h-113.24v290.07h156.82v-72.986h134.85v-107.37" fill="none" stroke="url(#_Linear1)" stroke-linecap="square" stroke-width="10px"/><path d="m668.96 382.03h82.025" fill="none" stroke="#ecaa22" stroke-linecap="square" stroke-width="10px"/><path d="m771.98 382.03h50.117v89.389" fill="none" stroke="#ecaa22" stroke-linecap="square" stroke-width="10px"/><path d="m259.48 148.86 38.985-43.461h555.39l46.539 43.461v826.46l-46.539 40.138h-546.51l-47.861-40.138v-826.46z" fill="none" stroke="#000" stroke-width="4.5px"/><g id="Taster" stroke-width=".75px"><path d="m321.67 396.72c0-3.605-2.926-6.532-6.531-6.532h-13.064c-3.604 0-6.531 2.927-6.531 6.532v38.164c0 3.605 2.927 6.532 6.531 6.532h13.064c3.605 0 6.531-2.927 6.531-6.532v-38.164z" fill="#a89d86" stroke="#a89d86"/><circle cx="309.83" cy="417.15" r="7.891" stroke="#3c3933"/></g><g transform="translate(76.337 -435.81)"><path d="m197.93 624.16h8.472l6.862 4.902 5.549-4.902h12.244l6.478 4.902 5.93-4.902h13.057l4.994 4.902 6.699-4.902h11.652l6.506 4.902v9.963l-6.506 5.968h-11.652l-6.699-5.968-4.994 5.968h-13.057l-5.93-5.968-6.478 5.968h-12.244l-5.549-5.968-6.862 5.968h-8.472l-7.125-5.968v-9.963l7.125-4.902z" fill="#23241f" stroke="#131210" stroke-width="2px"/><g transform="matrix(.52982 0 0 .49431 -3.0896 488.47)"><rect x="381.48" y="287.99" width="11.716" height="12.521" fill="#c1ad70" stroke="#5b4925" stroke-linecap="square" stroke-linejoin="miter" stroke-width="1.95px"/></g><g transform="matrix(.52982 0 0 .49431 45.857 488.47)"><rect x="381.48" y="287.99" width="11.716" height="12.521" fill="#c1ad70" stroke="#5b4925" stroke-linecap="square" stroke-linejoin="miter" stroke-width="1.95px"/></g><g transform="matrix(.52982 0 0 .49431 19.772 488.47)"><rect x="381.48" y="287.99" width="11.716" height="12.521" fill="#c1ad70" stroke="#5b4925" stroke-linecap="square" stroke-linejoin="miter" stroke-width="1.95px"/></g><g transform="matrix(.52982 0 0 .49431 68.718 488.47)"><rect x="381.48" y="287.99" width="11.716" height="12.521" fill="#c1ad70" stroke="#5b4925" stroke-linecap="square" stroke-linejoin="miter" stroke-width="1.95px"/></g></g><g transform="matrix(1.186 0 0 1.186 230.55 87.799)"><path d="m197.93 624.16h33.127l6.478 4.902v9.963l-6.478 5.968h-33.127l-7.125-5.968v-9.963l7.125-4.902z" fill="#23241f" stroke="#131210" stroke-width="1.69px"/><g transform="matrix(.52982 0 0 .49431 -3.0896 488.47)"><rect x="381.48" y="287.99" width="11.716" height="12.521" fill="#c1ad70" stroke="#5b4925" stroke-linecap="square" stroke-linejoin="miter" stroke-width="1.65px"/></g><g transform="matrix(.52982 0 0 .49431 19.772 488.47)"><rect x="381.48" y="287.99" width="11.716" height="12.521" fill="#c1ad70" stroke="#5b4925" stroke-linecap="square" stroke-linejoin="miter" stroke-width="1.65px"/></g></g><g transform="matrix(1.186 0 0 1.186 422.38 86.554)"><path d="m197.93 624.16h33.127l6.478 4.902v9.963l-6.478 5.968h-33.127l-7.125-5.968v-9.963l7.125-4.902z" fill="#23241f" stroke="#131210" stroke-width="1.69px"/><g transform="matrix(.52982 0 0 .49431 -3.0896 488.47)"><rect x="381.48" y="287.99" width="11.716" height="12.521" fill="#c1ad70" stroke="#5b4925" stroke-linecap="square" stroke-linejoin="miter" stroke-width="1.65px"/></g><g transform="matrix(.52982 0 0 .49431 19.772 488.47)"><rect x="381.48" y="287.99" width="11.716" height="12.521" fill="#c1ad70" stroke="#5b4925" stroke-linecap="square" stroke-linejoin="miter" stroke-width="1.65px"/></g></g><g transform="matrix(1.186 0 0 1.186 608.9 86.554)"><path d="m197.93 624.16h33.127l6.478 4.902v9.963l-6.478 5.968h-33.127l-7.125-5.968v-9.963l7.125-4.902z" fill="#23241f" stroke="#131210" stroke-width="1.69px"/><g transform="matrix(.52982 0 0 .49431 -3.0896 488.47)"><rect x="381.48" y="287.99" width="11.716" height="12.521" fill="#c1ad70" stroke="#5b4925" stroke-linecap="square" stroke-linejoin="miter" stroke-width="1.65px"/></g><g transform="matrix(.52982 0 0 .49431 19.772 488.47)"><rect x="381.48" y="287.99" width="11.716" height="12.521" fill="#c1ad70" stroke="#5b4925" stroke-linecap="square" stroke-linejoin="miter" stroke-width="1.65px"/></g></g><g transform="matrix(1.186 0 0 1.186 608.9 116.05)"><path d="m197.93 624.16h33.127l6.478 4.902v9.963l-6.478 5.968h-33.127l-7.125-5.968v-9.963l7.125-4.902z" fill="#23241f" stroke="#131210" stroke-width="1.69px"/><g transform="matrix(.52982 0 0 .49431 -3.0896 488.47)"><rect x="381.48" y="287.99" width="11.716" height="12.521" fill="#c1ad70" stroke="#5b4925" stroke-linecap="square" stroke-linejoin="miter" stroke-width="1.65px"/></g><g transform="matrix(.52982 0 0 .49431 19.772 488.47)"><rect x="381.48" y="287.99" width="11.716" height="12.521" fill="#c1ad70" stroke="#5b4925" stroke-linecap="square" stroke-linejoin="miter" stroke-width="1.65px"/></g></g><g id="usb"><rect x="503.35" y="74.755" width="147.04" height="140.06" fill="#908e5b" stroke="#5c5940" stroke-linecap="square" stroke-width="3px"/><path d="m514.26 224.85-10.791-9.995h146.96v9.995h-136.17z" fill="#bfd1af" stroke="#5c5940" stroke-width="3px"/><path d="m521.94 144.26 7.276-54.976h17.619l8.668 54.976" fill="none" stroke="#000" stroke-width="5px"/><g transform="translate(67.43)"><path d="m521.94 144.26 7.276-54.976h17.619l8.668 54.976" fill="none" stroke="#000" stroke-width="5px"/></g></g><g id="lan" stroke="#1a1a1a" stroke-width="3px"><rect x="378.02" y="875.35" width="167.64" height="190.86" fill="#333"/><path d="m397 861.96-18.983 13.391h167.74l5.914-13.391h-154.68z" fill="#262626"/><path d="m551.67 1055.1-5.914 10.84v-190.72l5.914-12.914v192.79z" fill="#1a1a1a"/><g transform="translate(172.16)"><rect x="378.02" y="875.35" width="167.64" height="190.86" fill="#333"/><path d="m381.21 861.96-3.196 13.391h167.74v-13.391h-164.55z" fill="#262626"/></g></g><g transform="matrix(.0052538 .99999 -.99999 .0052538 1562.4 92.825)"><g transform="matrix(1.1833 -4.9697e-18 2.8278e-18 1.0886 -146.56 -71.407)"><path d="m899.22 721.96h-101.86v90.101h101.86" fill="none" stroke="#fff" stroke-width="2.2px"/></g><g transform="matrix(.0052538 -.99999 .99999 .0052538 -101.03 1561.9)"><rect x="757.94" y="899.11" width="92.864" height="166.35" stroke="#1a1a1a" stroke-width="3px"/><path d="m756.54 929.87c0.095-40.906 91.025-45.001 91.849 0l-13.525 22.334h-63.068l-15.256-22.334z" fill="#1a1a1a" stroke="#1a1a1a" stroke-width="3px"/><path d="m756.54 929.87c23.247 9.162 67.272 9.488 91.849 0v93.018c-22.677 9.63-64.977 9.64-91.849 0v-93.018z" fill="#333" stroke="#000" stroke-width="3px"/><g transform="matrix(1 0 0 .21807 0 833.12)"><rect x="757.94" y="899.11" width="92.864" height="166.35" fill="#333" stroke="#1a1a1a" stroke-width="4.15px"/></g></g></g><defs><linearGradient id="_Linear1" x2="1" gradientTransform="matrix(291.68 0 0 290.07 530.42 527.07)" gradientUnits="userSpaceOnUse"><stop stop-color="#fff" offset="0"/><stop stop-color="#fff" offset=".12"/><stop stop-color="#fff" offset=".25"/><stop stop-color="#ecaa22" offset=".27"/><stop stop-color="#ecaa22" offset=".37"/><stop stop-color="#fff" offset=".39"/><stop stop-color="#fff" offset=".63"/><stop stop-color="#ecaa22" offset=".64"/><stop stop-color="#ecaa21" offset="1"/></linearGradient></defs></svg>
