<?xml version="1.0" encoding="UTF-8"?>
<!DOCTYPE svg  PUBLIC '-//W3C//DTD SVG 1.1//EN'  'http://www.w3.org/Graphics/SVG/1.1/DTD/svg11.dtd'>
<svg clip-rule="evenodd" fill-rule="evenodd" stroke-linecap="round" stroke-linejoin="round" stroke-miterlimit="1.4142" version="1.1" viewBox="0 0 1280 1150" xmlns="http://www.w3.org/2000/svg"><g transform="matrix(1.0543 0 0 1.0565 -35.287 -59.288)"><path d="m601.85 1048.1-6.846 1.89v27c41.69 11.23 84.69 11.23 129 0v-27l-8.743-1.89h-113.41z" fill="#636468" stroke="#000" stroke-width="3.79px"/></g><path d="m592 1050h136c-19.147 13.91-130.45 11.32-136 0" fill="none" stroke="#000" stroke-width="4px"/><g id="Stecker" transform="matrix(1.0675 0 0 1.0675 -176.08 .56489)"><path d="m711.85 198.92v-11.18c5.754-2.481 11.958-4.428 18.796-5.62v-4.672l2.556-0.354v-2.37c34.191-4.599 68.866-5.55 104.4 0v2.37l2.613 0.354v4.672c7.127 1.457 13.898 3.177 19.691 5.62v11.18h-148.06z" fill="#ccc" stroke="#666" stroke-linecap="butt" stroke-width="2.34px"/><g transform="translate(0 -.93673)"><path d="m743.23 174.41v-7.783c29.548-3.689 59.088-3.701 88.62 0v8.092c-29.691-3.599-59.231-3.908-88.62-0.309z" fill="#ccc" stroke="#666" stroke-linecap="butt" stroke-width="2.34px"/></g><path d="m737.09 166.63v-90.646c32.107-7.921 64.706-7.921 97.798 0v90.646c-31.105-3.663-63.715-3.635-97.798 0z" fill="#ccc" stroke="#666" stroke-linecap="butt" stroke-width="2.34px"/><path d="m733.53 104.15c36.921-5.808 72.482-5.506 106.88 0v53.563c-37.208-5.072-72.644-4.323-106.88 0v-53.563z" fill="#ccc" stroke="#666" stroke-linecap="butt" stroke-width="2.34px"/><g id="Rauten"><g transform="translate(-102 .068137)"><g transform="translate(88.506 -.3498)"><path d="m750.32 107.11 2.373 2.295-2.373 2.296-2.372-2.296 2.372-2.295z" fill="none" stroke="#666" stroke-linecap="butt" stroke-width=".94px"/></g><g transform="translate(88.352 7.4069)"><path d="m750.32 107.11 2.373 2.295-2.373 2.296-2.372-2.296 2.372-2.295z" fill="none" stroke="#666" stroke-linecap="butt" stroke-width=".94px"/></g><g transform="translate(88.352 14.233)"><path d="m750.32 107.11 2.373 2.295-2.373 2.296-2.372-2.296 2.372-2.295z" fill="none" stroke="#666" stroke-linecap="butt" stroke-width=".94px"/></g><g transform="translate(88.415 21.803)"><path d="m750.32 107.11 2.373 2.295-2.373 2.296-2.372-2.296 2.372-2.295z" fill="none" stroke="#666" stroke-linecap="butt" stroke-width=".94px"/></g><g transform="translate(88.261 29.56)"><path d="m750.32 107.11 2.373 2.295-2.373 2.296-2.372-2.296 2.372-2.295z" fill="none" stroke="#666" stroke-linecap="butt" stroke-width=".94px"/></g><g transform="translate(88.261 36.386)"><path d="m750.32 107.11 2.373 2.295-2.373 2.296-2.372-2.296 2.372-2.295z" fill="none" stroke="#666" stroke-linecap="butt" stroke-width=".94px"/></g><g transform="translate(88.203 43.662)"><path d="m750.32 107.11 2.373 2.295-2.373 2.296-2.372-2.296 2.372-2.295z" fill="none" stroke="#666" stroke-linecap="butt" stroke-width=".94px"/></g></g><g transform="translate(-94.413 -1.077)"><g transform="translate(88.506 -.3498)"><path d="m750.32 107.11 2.373 2.295-2.373 2.296-2.372-2.296 2.372-2.295z" fill="none" stroke="#666" stroke-linecap="butt" stroke-width=".94px"/></g><g transform="translate(88.352 7.4069)"><path d="m750.32 107.11 2.373 2.295-2.373 2.296-2.372-2.296 2.372-2.295z" fill="none" stroke="#666" stroke-linecap="butt" stroke-width=".94px"/></g><g transform="translate(88.352 14.233)"><path d="m750.32 107.11 2.373 2.295-2.373 2.296-2.372-2.296 2.372-2.295z" fill="none" stroke="#666" stroke-linecap="butt" stroke-width=".94px"/></g><g transform="translate(88.415 21.803)"><path d="m750.32 107.11 2.373 2.295-2.373 2.296-2.372-2.296 2.372-2.295z" fill="none" stroke="#666" stroke-linecap="butt" stroke-width=".94px"/></g><g transform="translate(88.261 29.56)"><path d="m750.32 107.11 2.373 2.295-2.373 2.296-2.372-2.296 2.372-2.295z" fill="none" stroke="#666" stroke-linecap="butt" stroke-width=".94px"/></g><g transform="translate(88.261 36.386)"><path d="m750.32 107.11 2.373 2.295-2.373 2.296-2.372-2.296 2.372-2.295z" fill="none" stroke="#666" stroke-linecap="butt" stroke-width=".94px"/></g><g transform="translate(88.203 43.662)"><path d="m750.32 107.11 2.373 2.295-2.373 2.296-2.372-2.296 2.372-2.295z" fill="none" stroke="#666" stroke-linecap="butt" stroke-width=".94px"/></g></g><g transform="translate(-86.824 -1.968)"><g transform="translate(88.506 -.3498)"><path d="m750.32 107.11 2.373 2.295-2.373 2.296-2.372-2.296 2.372-2.295z" fill="none" stroke="#666" stroke-linecap="butt" stroke-width=".94px"/></g><g transform="translate(88.352 7.4069)"><path d="m750.32 107.11 2.373 2.295-2.373 2.296-2.372-2.296 2.372-2.295z" fill="none" stroke="#666" stroke-linecap="butt" stroke-width=".94px"/></g><g transform="translate(88.352 14.233)"><path d="m750.32 107.11 2.373 2.295-2.373 2.296-2.372-2.296 2.372-2.295z" fill="none" stroke="#666" stroke-linecap="butt" stroke-width=".94px"/></g><g transform="translate(88.415 21.803)"><path d="m750.32 107.11 2.373 2.295-2.373 2.296-2.372-2.296 2.372-2.295z" fill="none" stroke="#666" stroke-linecap="butt" stroke-width=".94px"/></g><g transform="translate(88.261 29.56)"><path d="m750.32 107.11 2.373 2.295-2.373 2.296-2.372-2.296 2.372-2.295z" fill="none" stroke="#666" stroke-linecap="butt" stroke-width=".94px"/></g><g transform="translate(88.261 36.386)"><path d="m750.32 107.11 2.373 2.295-2.373 2.296-2.372-2.296 2.372-2.295z" fill="none" stroke="#666" stroke-linecap="butt" stroke-width=".94px"/></g><g transform="translate(88.203 43.662)"><path d="m750.32 107.11 2.373 2.295-2.373 2.296-2.372-2.296 2.372-2.295z" fill="none" stroke="#666" stroke-linecap="butt" stroke-width=".94px"/></g></g><g transform="translate(-79.235 -2.6881)"><g transform="translate(88.506 -.3498)"><path d="m750.32 107.11 2.373 2.295-2.373 2.296-2.372-2.296 2.372-2.295z" fill="none" stroke="#666" stroke-linecap="butt" stroke-width=".94px"/></g><g transform="translate(88.352 7.4069)"><path d="m750.32 107.11 2.373 2.295-2.373 2.296-2.372-2.296 2.372-2.295z" fill="none" stroke="#666" stroke-linecap="butt" stroke-width=".94px"/></g><g transform="translate(88.352 14.233)"><path d="m750.32 107.11 2.373 2.295-2.373 2.296-2.372-2.296 2.372-2.295z" fill="none" stroke="#666" stroke-linecap="butt" stroke-width=".94px"/></g><g transform="translate(88.415 21.803)"><path d="m750.32 107.11 2.373 2.295-2.373 2.296-2.372-2.296 2.372-2.295z" fill="none" stroke="#666" stroke-linecap="butt" stroke-width=".94px"/></g><g transform="translate(88.261 29.56)"><path d="m750.32 107.11 2.373 2.295-2.373 2.296-2.372-2.296 2.372-2.295z" fill="none" stroke="#666" stroke-linecap="butt" stroke-width=".94px"/></g><g transform="translate(88.261 36.386)"><path d="m750.32 107.11 2.373 2.295-2.373 2.296-2.372-2.296 2.372-2.295z" fill="none" stroke="#666" stroke-linecap="butt" stroke-width=".94px"/></g><g transform="translate(88.203 43.662)"><path d="m750.32 107.11 2.373 2.295-2.373 2.296-2.372-2.296 2.372-2.295z" fill="none" stroke="#666" stroke-linecap="butt" stroke-width=".94px"/></g></g><g transform="translate(-71.646 -3.476)"><g transform="translate(88.506 -.3498)"><path d="m750.32 107.11 2.373 2.295-2.373 2.296-2.372-2.296 2.372-2.295z" fill="none" stroke="#666" stroke-linecap="butt" stroke-width=".94px"/></g><g transform="translate(88.352 7.4069)"><path d="m750.32 107.11 2.373 2.295-2.373 2.296-2.372-2.296 2.372-2.295z" fill="none" stroke="#666" stroke-linecap="butt" stroke-width=".94px"/></g><g transform="translate(88.352 14.233)"><path d="m750.32 107.11 2.373 2.295-2.373 2.296-2.372-2.296 2.372-2.295z" fill="none" stroke="#666" stroke-linecap="butt" stroke-width=".94px"/></g><g transform="translate(88.415 21.803)"><path d="m750.32 107.11 2.373 2.295-2.373 2.296-2.372-2.296 2.372-2.295z" fill="none" stroke="#666" stroke-linecap="butt" stroke-width=".94px"/></g><g transform="translate(88.261 29.56)"><path d="m750.32 107.11 2.373 2.295-2.373 2.296-2.372-2.296 2.372-2.295z" fill="none" stroke="#666" stroke-linecap="butt" stroke-width=".94px"/></g><g transform="translate(88.261 36.386)"><path d="m750.32 107.11 2.373 2.295-2.373 2.296-2.372-2.296 2.372-2.295z" fill="none" stroke="#666" stroke-linecap="butt" stroke-width=".94px"/></g><g transform="translate(88.203 43.662)"><path d="m750.32 107.11 2.373 2.295-2.373 2.296-2.372-2.296 2.372-2.295z" fill="none" stroke="#666" stroke-linecap="butt" stroke-width=".94px"/></g></g><g transform="translate(-64.057 -3.856)"><g transform="translate(88.506 -.3498)"><path d="m750.32 107.11 2.373 2.295-2.373 2.296-2.372-2.296 2.372-2.295z" fill="none" stroke="#666" stroke-linecap="butt" stroke-width=".94px"/></g><g transform="translate(88.352 7.4069)"><path d="m750.32 107.11 2.373 2.295-2.373 2.296-2.372-2.296 2.372-2.295z" fill="none" stroke="#666" stroke-linecap="butt" stroke-width=".94px"/></g><g transform="translate(88.352 14.233)"><path d="m750.32 107.11 2.373 2.295-2.373 2.296-2.372-2.296 2.372-2.295z" fill="none" stroke="#666" stroke-linecap="butt" stroke-width=".94px"/></g><g transform="translate(88.415 21.803)"><path d="m750.32 107.11 2.373 2.295-2.373 2.296-2.372-2.296 2.372-2.295z" fill="none" stroke="#666" stroke-linecap="butt" stroke-width=".94px"/></g><g transform="translate(88.261 29.56)"><path d="m750.32 107.11 2.373 2.295-2.373 2.296-2.372-2.296 2.372-2.295z" fill="none" stroke="#666" stroke-linecap="butt" stroke-width=".94px"/></g><g transform="translate(88.261 36.386)"><path d="m750.32 107.11 2.373 2.295-2.373 2.296-2.372-2.296 2.372-2.295z" fill="none" stroke="#666" stroke-linecap="butt" stroke-width=".94px"/></g><g transform="translate(88.203 43.662)"><path d="m750.32 107.11 2.373 2.295-2.373 2.296-2.372-2.296 2.372-2.295z" fill="none" stroke="#666" stroke-linecap="butt" stroke-width=".94px"/></g></g><g transform="translate(-56.468 -4.2879)"><g transform="translate(88.506 -.3498)"><path d="m750.32 107.11 2.373 2.295-2.373 2.296-2.372-2.296 2.372-2.295z" fill="none" stroke="#666" stroke-linecap="butt" stroke-width=".94px"/></g><g transform="translate(88.352 7.4069)"><path d="m750.32 107.11 2.373 2.295-2.373 2.296-2.372-2.296 2.372-2.295z" fill="none" stroke="#666" stroke-linecap="butt" stroke-width=".94px"/></g><g transform="translate(88.352 14.233)"><path d="m750.32 107.11 2.373 2.295-2.373 2.296-2.372-2.296 2.372-2.295z" fill="none" stroke="#666" stroke-linecap="butt" stroke-width=".94px"/></g><g transform="translate(88.415 21.803)"><path d="m750.32 107.11 2.373 2.295-2.373 2.296-2.372-2.296 2.372-2.295z" fill="none" stroke="#666" stroke-linecap="butt" stroke-width=".94px"/></g><g transform="translate(88.261 29.56)"><path d="m750.32 107.11 2.373 2.295-2.373 2.296-2.372-2.296 2.372-2.295z" fill="none" stroke="#666" stroke-linecap="butt" stroke-width=".94px"/></g><g transform="translate(88.261 36.386)"><path d="m750.32 107.11 2.373 2.295-2.373 2.296-2.372-2.296 2.372-2.295z" fill="none" stroke="#666" stroke-linecap="butt" stroke-width=".94px"/></g><g transform="translate(88.203 43.662)"><path d="m750.32 107.11 2.373 2.295-2.373 2.296-2.372-2.296 2.372-2.295z" fill="none" stroke="#666" stroke-linecap="butt" stroke-width=".94px"/></g></g><g transform="translate(-48.88 -4.2811)"><g transform="translate(88.506 -.3498)"><path d="m750.32 107.11 2.373 2.295-2.373 2.296-2.372-2.296 2.372-2.295z" fill="none" stroke="#666" stroke-linecap="butt" stroke-width=".94px"/></g><g transform="translate(88.352 7.4069)"><path d="m750.32 107.11 2.373 2.295-2.373 2.296-2.372-2.296 2.372-2.295z" fill="none" stroke="#666" stroke-linecap="butt" stroke-width=".94px"/></g><g transform="translate(88.352 14.233)"><path d="m750.32 107.11 2.373 2.295-2.373 2.296-2.372-2.296 2.372-2.295z" fill="none" stroke="#666" stroke-linecap="butt" stroke-width=".94px"/></g><g transform="translate(88.415 21.803)"><path d="m750.32 107.11 2.373 2.295-2.373 2.296-2.372-2.296 2.372-2.295z" fill="none" stroke="#666" stroke-linecap="butt" stroke-width=".94px"/></g><g transform="translate(88.261 29.56)"><path d="m750.32 107.11 2.373 2.295-2.373 2.296-2.372-2.296 2.372-2.295z" fill="none" stroke="#666" stroke-linecap="butt" stroke-width=".94px"/></g><g transform="translate(88.261 36.386)"><path d="m750.32 107.11 2.373 2.295-2.373 2.296-2.372-2.296 2.372-2.295z" fill="none" stroke="#666" stroke-linecap="butt" stroke-width=".94px"/></g><g transform="translate(88.203 43.662)"><path d="m750.32 107.11 2.373 2.295-2.373 2.296-2.372-2.296 2.372-2.295z" fill="none" stroke="#666" stroke-linecap="butt" stroke-width=".94px"/></g></g><g transform="translate(-41.291 -4.1367)"><g transform="translate(88.506 -.3498)"><path d="m750.32 107.11 2.373 2.295-2.373 2.296-2.372-2.296 2.372-2.295z" fill="none" stroke="#666" stroke-linecap="butt" stroke-width=".94px"/></g><g transform="translate(88.352 7.4069)"><path d="m750.32 107.11 2.373 2.295-2.373 2.296-2.372-2.296 2.372-2.295z" fill="none" stroke="#666" stroke-linecap="butt" stroke-width=".94px"/></g><g transform="translate(88.352 14.233)"><path d="m750.32 107.11 2.373 2.295-2.373 2.296-2.372-2.296 2.372-2.295z" fill="none" stroke="#666" stroke-linecap="butt" stroke-width=".94px"/></g><g transform="translate(88.415 21.803)"><path d="m750.32 107.11 2.373 2.295-2.373 2.296-2.372-2.296 2.372-2.295z" fill="none" stroke="#666" stroke-linecap="butt" stroke-width=".94px"/></g><g transform="translate(88.261 29.56)"><path d="m750.32 107.11 2.373 2.295-2.373 2.296-2.372-2.296 2.372-2.295z" fill="none" stroke="#666" stroke-linecap="butt" stroke-width=".94px"/></g><g transform="translate(88.261 36.386)"><path d="m750.32 107.11 2.373 2.295-2.373 2.296-2.372-2.296 2.372-2.295z" fill="none" stroke="#666" stroke-linecap="butt" stroke-width=".94px"/></g><g transform="translate(88.203 43.662)"><path d="m750.32 107.11 2.373 2.295-2.373 2.296-2.372-2.296 2.372-2.295z" fill="none" stroke="#666" stroke-linecap="butt" stroke-width=".94px"/></g></g><g transform="translate(-33.702 -3.9849)"><g transform="translate(88.506 -.3498)"><path d="m750.32 107.11 2.373 2.295-2.373 2.296-2.372-2.296 2.372-2.295z" fill="none" stroke="#666" stroke-linecap="butt" stroke-width=".94px"/></g><g transform="translate(88.352 7.4069)"><path d="m750.32 107.11 2.373 2.295-2.373 2.296-2.372-2.296 2.372-2.295z" fill="none" stroke="#666" stroke-linecap="butt" stroke-width=".94px"/></g><g transform="translate(88.352 14.233)"><path d="m750.32 107.11 2.373 2.295-2.373 2.296-2.372-2.296 2.372-2.295z" fill="none" stroke="#666" stroke-linecap="butt" stroke-width=".94px"/></g><g transform="translate(88.415 21.803)"><path d="m750.32 107.11 2.373 2.295-2.373 2.296-2.372-2.296 2.372-2.295z" fill="none" stroke="#666" stroke-linecap="butt" stroke-width=".94px"/></g><g transform="translate(88.261 29.56)"><path d="m750.32 107.11 2.373 2.295-2.373 2.296-2.372-2.296 2.372-2.295z" fill="none" stroke="#666" stroke-linecap="butt" stroke-width=".94px"/></g><g transform="translate(88.261 36.386)"><path d="m750.32 107.11 2.373 2.295-2.373 2.296-2.372-2.296 2.372-2.295z" fill="none" stroke="#666" stroke-linecap="butt" stroke-width=".94px"/></g><g transform="translate(88.203 43.662)"><path d="m750.32 107.11 2.373 2.295-2.373 2.296-2.372-2.296 2.372-2.295z" fill="none" stroke="#666" stroke-linecap="butt" stroke-width=".94px"/></g></g><g transform="translate(-26.113 -3.6802)"><g transform="translate(88.506 -.3498)"><path d="m750.32 107.11 2.373 2.295-2.373 2.296-2.372-2.296 2.372-2.295z" fill="none" stroke="#666" stroke-linecap="butt" stroke-width=".94px"/></g><g transform="translate(88.352 7.4069)"><path d="m750.32 107.11 2.373 2.295-2.373 2.296-2.372-2.296 2.372-2.295z" fill="none" stroke="#666" stroke-linecap="butt" stroke-width=".94px"/></g><g transform="translate(88.352 14.233)"><path d="m750.32 107.11 2.373 2.295-2.373 2.296-2.372-2.296 2.372-2.295z" fill="none" stroke="#666" stroke-linecap="butt" stroke-width=".94px"/></g><g transform="translate(88.415 21.803)"><path d="m750.32 107.11 2.373 2.295-2.373 2.296-2.372-2.296 2.372-2.295z" fill="none" stroke="#666" stroke-linecap="butt" stroke-width=".94px"/></g><g transform="translate(88.261 29.56)"><path d="m750.32 107.11 2.373 2.295-2.373 2.296-2.372-2.296 2.372-2.295z" fill="none" stroke="#666" stroke-linecap="butt" stroke-width=".94px"/></g><g transform="translate(88.261 36.386)"><path d="m750.32 107.11 2.373 2.295-2.373 2.296-2.372-2.296 2.372-2.295z" fill="none" stroke="#666" stroke-linecap="butt" stroke-width=".94px"/></g><g transform="translate(88.203 43.662)"><path d="m750.32 107.11 2.373 2.295-2.373 2.296-2.372-2.296 2.372-2.295z" fill="none" stroke="#666" stroke-linecap="butt" stroke-width=".94px"/></g></g><g transform="translate(-18.524 -3.0348)"><g transform="translate(88.506 -.3498)"><path d="m750.32 107.11 2.373 2.295-2.373 2.296-2.372-2.296 2.372-2.295z" fill="none" stroke="#666" stroke-linecap="butt" stroke-width=".94px"/></g><g transform="translate(88.352 7.4069)"><path d="m750.32 107.11 2.373 2.295-2.373 2.296-2.372-2.296 2.372-2.295z" fill="none" stroke="#666" stroke-linecap="butt" stroke-width=".94px"/></g><g transform="translate(88.352 14.233)"><path d="m750.32 107.11 2.373 2.295-2.373 2.296-2.372-2.296 2.372-2.295z" fill="none" stroke="#666" stroke-linecap="butt" stroke-width=".94px"/></g><g transform="translate(88.415 21.803)"><path d="m750.32 107.11 2.373 2.295-2.373 2.296-2.372-2.296 2.372-2.295z" fill="none" stroke="#666" stroke-linecap="butt" stroke-width=".94px"/></g><g transform="translate(88.261 29.56)"><path d="m750.32 107.11 2.373 2.295-2.373 2.296-2.372-2.296 2.372-2.295z" fill="none" stroke="#666" stroke-linecap="butt" stroke-width=".94px"/></g><g transform="translate(88.261 36.386)"><path d="m750.32 107.11 2.373 2.295-2.373 2.296-2.372-2.296 2.372-2.295z" fill="none" stroke="#666" stroke-linecap="butt" stroke-width=".94px"/></g><g transform="translate(88.203 43.662)"><path d="m750.32 107.11 2.373 2.295-2.373 2.296-2.372-2.296 2.372-2.295z" fill="none" stroke="#666" stroke-linecap="butt" stroke-width=".94px"/></g></g><g transform="translate(-10.935 -1.934)"><g transform="translate(88.506 -.3498)"><path d="m750.32 107.11 2.373 2.295-2.373 2.296-2.372-2.296 2.372-2.295z" fill="none" stroke="#666" stroke-linecap="butt" stroke-width=".94px"/></g><g transform="translate(88.352 7.4069)"><path d="m750.32 107.11 2.373 2.295-2.373 2.296-2.372-2.296 2.372-2.295z" fill="none" stroke="#666" stroke-linecap="butt" stroke-width=".94px"/></g><g transform="translate(88.352 14.233)"><path d="m750.32 107.11 2.373 2.295-2.373 2.296-2.372-2.296 2.372-2.295z" fill="none" stroke="#666" stroke-linecap="butt" stroke-width=".94px"/></g><g transform="translate(88.415 21.803)"><path d="m750.32 107.11 2.373 2.295-2.373 2.296-2.372-2.296 2.372-2.295z" fill="none" stroke="#666" stroke-linecap="butt" stroke-width=".94px"/></g><g transform="translate(88.261 29.56)"><path d="m750.32 107.11 2.373 2.295-2.373 2.296-2.372-2.296 2.372-2.295z" fill="none" stroke="#666" stroke-linecap="butt" stroke-width=".94px"/></g><g transform="translate(88.261 36.386)"><path d="m750.32 107.11 2.373 2.295-2.373 2.296-2.372-2.296 2.372-2.295z" fill="none" stroke="#666" stroke-linecap="butt" stroke-width=".94px"/></g><g transform="translate(88.203 43.662)"><path d="m750.32 107.11 2.373 2.295-2.373 2.296-2.372-2.296 2.372-2.295z" fill="none" stroke="#666" stroke-linecap="butt" stroke-width=".94px"/></g></g><g transform="translate(-3.346 -.99723)"><g transform="translate(88.506 -.3498)"><path d="m750.32 107.11 2.373 2.295-2.373 2.296-2.372-2.296 2.372-2.295z" fill="none" stroke="#666" stroke-linecap="butt" stroke-width=".94px"/></g><g transform="translate(88.352 7.4069)"><path d="m750.32 107.11 2.373 2.295-2.373 2.296-2.372-2.296 2.372-2.295z" fill="none" stroke="#666" stroke-linecap="butt" stroke-width=".94px"/></g><g transform="translate(88.352 14.233)"><path d="m750.32 107.11 2.373 2.295-2.373 2.296-2.372-2.296 2.372-2.295z" fill="none" stroke="#666" stroke-linecap="butt" stroke-width=".94px"/></g><g transform="translate(88.415 21.803)"><path d="m750.32 107.11 2.373 2.295-2.373 2.296-2.372-2.296 2.372-2.295z" fill="none" stroke="#666" stroke-linecap="butt" stroke-width=".94px"/></g><g transform="translate(88.261 29.56)"><path d="m750.32 107.11 2.373 2.295-2.373 2.296-2.372-2.296 2.372-2.295z" fill="none" stroke="#666" stroke-linecap="butt" stroke-width=".94px"/></g><g transform="translate(88.261 36.386)"><path d="m750.32 107.11 2.373 2.295-2.373 2.296-2.372-2.296 2.372-2.295z" fill="none" stroke="#666" stroke-linecap="butt" stroke-width=".94px"/></g><g transform="translate(88.203 43.662)"><path d="m750.32 107.11 2.373 2.295-2.373 2.296-2.372-2.296 2.372-2.295z" fill="none" stroke="#666" stroke-linecap="butt" stroke-width=".94px"/></g></g></g><g transform="translate(0 .93673)"><path d="m730.64 181.18c36.062-4.841 72.583-5.736 109.57 0" fill="none" stroke="#666" stroke-linecap="butt" stroke-width="2.34px"/></g></g><g id="body"><g id="ösen"><path id="öse" d="m775 779h8v54h-8v6h14v-66h-14v6z" fill="#fff" stroke="#000" stroke-width="3px"/><g id="öse1" transform="translate(-10 -540)"><path d="m775 779h8v54h-8v6h14v-66h-14v6z" fill="#fff" stroke="#000" stroke-width="3px"/></g><g id="öse2" transform="matrix(-1,0,0,1,1318,0)"><path d="m775 779h8v54h-8v6h14v-66h-14v6z" fill="#fff" stroke="#000" stroke-width="3px"/></g><g id="öse3" transform="matrix(-1,0,0,1,1329,-540)"><path d="m775 779h8v54h-8v6h14v-66h-14v6z" fill="#fff" stroke="#000" stroke-width="3px"/></g></g><path d="m599 1026v28c25.348 8.2 94.802 8.43 120 0v-28c-39.945 1.57-79.94 1.7-120 0" fill="#fff" stroke="#000" stroke-width="4px"/><path d="m542 855c77.759 7.919 153.5 7.836 233 0v81c-15.661 1.962-29.834 5.439-40 13v76c-49.317 3.02-98.649 3.25-148 0v-76c-12.21-7.028-28.336-10.274-45-13v-81" fill="#fff" stroke="#000" stroke-width="4.5px"/><path d="m542 1010c12.581 6.12 27.487 11.18 45 15v-76c-13.381-6.682-28.488-10.86-45-13v74" fill="#ccc" stroke="#000" stroke-width="4.5px"/><path d="m776 1010c-12.66 7.62-26.168 13.03-41 15v-76c9.135-6.772 22.692-10.975 40-13l1 74z" fill="#ccc" stroke="#000" stroke-width="4.5px"/><path d="m542 844v11c77.363 7.983 155.7 7.684 233 0v-11c-77.294 6.028-155.62 6.713-233 0z" stroke="#000" stroke-width="4.5px"/><path d="m542 844 13-612c0.2-9.415 11.225-17.696 23-21 42.558-11.943 118.75-12.288 164 0 12.147 3.299 21.843 12.29 22 21l11 612c-78.552 6.363-156.24 6.526-233 0" fill="#fff" stroke="#000" stroke-width="4.5px"/><path d="m603 222c31.973-5.653 65.241-5.928 100 0v531c-34.885 5.293-68.262 5.439-100 0v-531z" fill="#b3b3b3" stroke="#000" stroke-width="4px"/><path d="m603 222c33.389 2.192 66.718 2.003 100 0v531c-33.43-1.93-66.766-1.994-100 0v-531z" fill="#fff" stroke="#000" stroke-width="4px"/></g><g id="anzeige" transform="matrix(1.122 0 0 1.122 -85.809 -300.92)"><g transform="matrix(1.1056 0 0 1.2018 -70.026 -105.87)"><path d="m642.42 524.12h8.441v61.83h-2.662c-0.883-20.993-2.384-41.759-5.779-61.83z" fill="#1c0c79" stroke="#808080" stroke-width=".02px"/></g><g id="LED"><g transform="translate(2.9114 105.88)"><rect x="654.97" y="523.87" width="13.363" height="9.089" fill="#636468" stroke="#898989" stroke-width=".89px"/></g><g transform="translate(2.0697 84.748)"><rect x="654.97" y="523.87" width="13.363" height="9.089" fill="#636468" stroke="#898989" stroke-width=".89px"/></g><g transform="translate(1.9178 64.757)"><rect x="654.97" y="523.87" width="13.363" height="9.089" fill="#636468" stroke="#898989" stroke-width=".89px"/></g><g transform="translate(1.833 42.682)"><rect x="654.97" y="523.87" width="13.363" height="9.089" fill="#636468" stroke="#898989" stroke-width=".89px"/></g><g transform="translate(2.468 21.055)"><rect x="654.97" y="523.87" width="13.363" height="9.089" fill="#636468" stroke="#898989" stroke-width=".89px"/></g><g transform="translate(2.2857 .55224)"><rect x="654.97" y="523.87" width="13.363" height="9.089" fill="#636468" stroke="#898989" stroke-width=".89px"/></g></g><g id="Powerknopf" transform="translate(-.99046 17.713)"><ellipse cx="647.41" cy="617.8" rx="3.388" ry="3.046" fill="none" stroke="#737373" stroke-linecap="butt" stroke-width=".8px"/><path d="m648.44 613.78c0-0.519-0.421-0.94-0.94-0.94s-0.94 0.421-0.94 0.94v3.82c0 0.519 0.421 0.94 0.94 0.94s0.94-0.421 0.94-0.94v-3.82z" fill="#666" stroke="#fff" stroke-width=".45px"/></g><g id="Ethernet-.--Beschriftung" transform="translate(-.48243 14.37)"><path d="m644.22 597.17-1.944 1.932 1.944 1.946" fill="none" stroke="#666" stroke-width=".76px"/><path d="m650.24 597.17 2.026 1.932-2.026 1.97" fill="none" stroke="#666" stroke-width=".76px"/><path d="m645.04 599.41h0.448" fill="none" stroke="#666" stroke-width=".76px"/><g transform="translate(1.9716)"><path d="m645.04 599.41h0.448" fill="none" stroke="#666" stroke-width=".76px"/></g><g transform="translate(3.9777 .010644)"><path d="m645.04 599.41h0.448" fill="none" stroke="#666" stroke-width=".76px"/></g></g></g><g id="Tube-beschriftung" transform="matrix(1.4309e-16 -2.3369 2.3369 1.4309e-16 -898.91 1158.8)"><g transform="matrix(1.0535 0 0 .61633 .81437 518.78)"><text x="209px" y="246px" font-family="'PTSans-BoldItalic', 'PT Sans', sans-serif" font-size="22.337px" font-style="italic" font-weight="700">UBE</text></g><g transform="matrix(2.6203e-17 .42792 -.42792 2.6203e-17 495.89 393.65)"><path d="m661 453.72v247.28" fill="none" stroke="#000" stroke-width="4px"/></g><g transform="matrix(1.1684 0 0 .84356 25.802 461.43)"><text x="209px" y="246px" font-family="'PTSans-BoldItalic', 'PT Sans', sans-serif" font-size="22.337px" font-style="italic" font-weight="700">2H</text></g><g transform="translate(0 424.51)"><path d="m210 230.98h55-42l-9 14.019" fill="none" stroke="#000" stroke-miterlimit="1.5" stroke-width=".86px"/></g></g></svg>
