<svg xmlns="http://www.w3.org/2000/svg" viewBox="0 0 1600 1437.5" height="1437.5" width="1600"><path d="M1097.64 173.05h87.929v-2.862c-29.06-2.438-58.353-2.6-87.929 0v2.862z" fill="#ccc" fill-rule="evenodd" stroke="#666" stroke-miterlimit="10" stroke-width="1.25"/><path d="M1091.931 170.188v-3.325c33.016-3.525 65.856-3.5 98.525 0v3.325c-32.49-2.813-65.333-2.788-98.525 0z" fill="#ccc" fill-rule="evenodd" stroke="#666" stroke-miterlimit="10" stroke-width="1.25"/><path d="M1091.931 145.425c2.185-6.425 95.115-5.975 98.525 0v21.787c-32.02-3.787-64.788-4.037-98.525 0v-21.787z" fill="#ccc" fill-rule="evenodd" stroke="#666" stroke-miterlimit="10" stroke-width="1.25"/><path d="M1116.35 83.425c16.621-1.763 33.236-1.875 49.843 0v58.35c-16.688-1.663-33.29-1.4-49.843 0v-58.35z" fill="#ccc" fill-rule="evenodd" stroke="#666" stroke-miterlimit="10" stroke-width="1.25"/><path d="M1111.946 94.963c17.985-3.6 37.335-3.538 57.025-2.575M1112.321 101.838c17.984-3.6 37.335-3.538 57.024-2.575M1112.415 108.6c17.985-3.587 37.335-3.537 57.025-2.575M1112.567 115.662c17.984-3.587 37.335-3.537 57.024-2.575M1112.264 122.438c17.985-3.6 37.335-3.538 57.024-2.576M1112.259 129.625c17.983-3.6 37.335-3.538 57.023-2.575M1112.106 136.113c17.985-3.6 37.335-3.538 57.024-2.575" fill="none" stroke="#666" stroke-width="1.875" stroke-miterlimit="10"/><path d="M1233.756 189.28c0-9.155-7.434-16.593-16.59-16.593H359.96c-9.158 0-16.591 7.438-16.591 16.593v1079.05c0 9.156 7.433 16.59 16.59 16.59h857.208c9.157 0 16.59-7.434 16.59-16.59V189.28z" fill="#4c4c4c" fill-rule="evenodd" stroke="#000" stroke-width="3.75" stroke-miterlimit="10"/><path d="M1233.129 921.991c-5.629-5.096-16.464-7.641-27.553-7.641H367.08c-10.903 0-17.703 2.335-23.03 7.641v135.744c5.327-5.305 12.127-7.64 23.03-7.64h838.497c11.089 0 21.924 2.545 27.553 7.64" fill="#1d1918" fill-rule="evenodd" stroke="#000" stroke-width="3.75" stroke-miterlimit="10"/><path d="M1196.001 765.401c0-11.293-9.168-20.462-20.461-20.462h-93.79c-11.293 0-20.461 9.169-20.461 20.462v40.924c0 11.293 9.168 20.461 20.461 20.461h93.79c11.293 0 20.461-9.168 20.461-20.461v-40.924z" fill="#c7cacf" fill-rule="evenodd" stroke="#000" stroke-width="5.625" stroke-miterlimit="10"/><text style="-inkscape-font-specification:Impact" transform="matrix(1.25 0 0 1.25 1102.28 796.966)" font-weight="400" font-size="23.602" font-family="Impact"><tspan y="0" x="0 19.223829 31.069674">WPS</tspan></text><text style="-inkscape-font-specification:Impact" transform="matrix(1.40065 0 0 1.0785 799.542 868.438)" font-weight="400" font-size="21.063" font-family="Impact" fill="#fff"><tspan y="0" x="0 8.5369959 19.23299 74.328529 85.848099 96.739983 144.94568 161.8954 172.5914">LANUSBWAN</tspan></text><text style="-inkscape-font-specification:Impact" transform="matrix(1.40065 0 0 1.0785 698.193 1091.239)" font-weight="400" font-size="21.063" font-family="Impact" fill="#fff"><tspan y="0" x="0 17.156139 25.693136 36.38913 301.02969 311.60141 328.75754">WLANPWR</tspan></text></svg>