<?xml version="1.0" encoding="UTF-8"?>
<!DOCTYPE svg  PUBLIC '-//W3C//DTD SVG 1.1//EN'  'http://www.w3.org/Graphics/SVG/1.1/DTD/svg11.dtd'>
<svg clip-rule="evenodd" fill-rule="evenodd" stroke-linecap="round" stroke-linejoin="round" stroke-miterlimit="1.4142" version="1.1" viewBox="0 0 1280 1150" xmlns="http://www.w3.org/2000/svg"><g id="AntennenKupplung" transform="matrix(1.5078 0 0 1.5078 294.43 15.767)"><path d="m387.1 81.357h46.652v-1.521c-15.418-1.292-30.96-1.375-46.652 0v1.521z" fill="#ccc" stroke="#666" stroke-width=".66px"/><path d="m384.08 79.836v-1.764c17.517-1.87 34.941-1.856 52.274 0v1.764c-17.238-1.488-34.664-1.476-52.274 0z" fill="#ccc" stroke="#666" stroke-width=".66px"/><path d="m384.08 66.701c1.159-3.409 50.465-3.168 52.274 0v11.561c-16.989-2.01-34.374-2.144-52.274 0v-11.561z" fill="#ccc" stroke="#666" stroke-width=".66px"/><path d="m397.03 33.804c8.819-0.933 17.634-0.993 26.445 0v30.957c-8.854-0.876-17.663-0.737-26.445 0v-30.957z" fill="#ccc" stroke="#666" stroke-width=".66px"/><path d="m394.7 39.926c9.542-1.907 19.808-1.876 30.255-1.366" fill="none" stroke="#666" stroke-width=".99px"/><g transform="translate(.19842 3.6457)"><path d="m394.7 39.926c9.542-1.907 19.808-1.876 30.255-1.366" fill="none" stroke="#666" stroke-width=".99px"/></g><g transform="translate(.24877 7.237)"><path d="m394.7 39.926c9.542-1.907 19.808-1.876 30.255-1.366" fill="none" stroke="#666" stroke-width=".99px"/></g><g transform="translate(.32929 10.984)"><path d="m394.7 39.926c9.542-1.907 19.808-1.876 30.255-1.366" fill="none" stroke="#666" stroke-width=".99px"/></g><g transform="translate(.16826 14.577)"><path d="m394.7 39.926c9.542-1.907 19.808-1.876 30.255-1.366" fill="none" stroke="#666" stroke-width=".99px"/></g><g transform="translate(.16525 18.39)"><path d="m394.7 39.926c9.542-1.907 19.808-1.876 30.255-1.366" fill="none" stroke="#666" stroke-width=".99px"/></g><g transform="translate(.084734 21.832)"><path d="m394.7 39.926c9.542-1.907 19.808-1.876 30.255-1.366" fill="none" stroke="#666" stroke-width=".99px"/></g></g><g transform="translate(-145.76 -1.2023)"><path d="m1132.8 152.63c0-7.325-5.95-13.272-13.27-13.272h-685.77c-7.325 0-13.272 5.947-13.272 13.272v863.24c0 7.32 5.947 13.27 13.272 13.27h685.77c7.32 0 13.27-5.95 13.27-13.27v-863.24z" fill="#4d4d4d" stroke="#000" stroke-width="3px"/></g><path d="m986.5 737.59c-4.503-4.077-13.171-6.113-22.042-6.113h-670.8c-8.722 0-14.162 1.868-18.424 6.113v108.6c4.262-4.244 9.702-6.112 18.424-6.112h670.8c8.871 0 17.539 2.036 22.042 6.112" fill="#1d1918" stroke="#000" stroke-width="3px"/><g transform="translate(-26.689)"><path d="m983.49 612.32c0-9.035-7.335-16.37-16.37-16.37h-75.032c-9.034 0-16.369 7.335-16.369 16.37v32.739c0 9.034 7.335 16.369 16.369 16.369h75.032c9.035 0 16.37-7.335 16.37-16.369v-32.739z" fill="#c7cacf" stroke="#000" stroke-width="4.5px"/></g><g transform="translate(29.154 -1.327)" fill-rule="nonzero"><path d="m871.89 620.24-2.155 18.658h-6.062c-0.553-2.866-1.041-6.124-1.463-9.773-0.192 1.56-0.642 4.817-1.349 9.773h-6.027l-2.166-18.658h4.713l0.496 6.511 0.507 6.281c0.176-3.25 0.622-7.514 1.336-12.792h5.048c0.069 0.545 0.246 2.597 0.53 6.154l0.53 7.087c0.269-4.51 0.719-8.923 1.349-13.241h4.713z"/><path d="m872.86 620.24h4.887c1.321 0 2.337 0.103 3.048 0.311 0.711 0.207 1.245 0.507 1.602 0.899s0.599 0.866 0.726 1.423 0.19 1.419 0.19 2.587v1.625c0 1.191-0.123 2.059-0.369 2.605-0.246 0.545-0.697 0.964-1.354 1.256s-1.515 0.438-2.576 0.438h-1.302v7.514h-4.852v-18.658zm4.852 3.192v4.748c0.138 8e-3 0.258 0.012 0.357 0.012 0.446 0 0.755-0.11 0.928-0.329s0.259-0.674 0.259-1.366v-1.532c0-0.638-0.099-1.053-0.299-1.245s-0.615-0.288-1.245-0.288z"/><path d="m894.99 625.89h-4.506v-1.383c0-0.646-0.057-1.057-0.173-1.233-0.115-0.177-0.307-0.265-0.576-0.265-0.292 0-0.513 0.119-0.663 0.357-0.149 0.238-0.224 0.599-0.224 1.083 0 0.622 0.084 1.091 0.253 1.406 0.162 0.315 0.619 0.695 1.372 1.141 2.159 1.283 3.518 2.336 4.079 3.158s0.842 2.147 0.842 3.976c0 1.329-0.156 2.308-0.467 2.938s-0.912 1.159-1.804 1.585c-0.891 0.426-1.928 0.64-3.111 0.64-1.299 0-2.407-0.246-3.325-0.738s-1.519-1.118-1.804-1.878c-0.284-0.761-0.426-1.841-0.426-3.239v-1.221h4.506v2.27c0 0.699 0.063 1.148 0.19 1.348s0.352 0.3 0.674 0.3c0.323 0 0.563-0.127 0.721-0.38 0.157-0.254 0.236-0.63 0.236-1.13 0-1.098-0.15-1.817-0.45-2.155-0.307-0.338-1.064-0.903-2.27-1.694-1.206-0.799-2.005-1.379-2.397-1.74s-0.716-0.861-0.974-1.498c-0.257-0.638-0.386-1.452-0.386-2.444 0-1.429 0.183-2.473 0.548-3.134 0.364-0.661 0.954-1.178 1.769-1.55 0.814-0.373 1.797-0.559 2.95-0.559 1.26 0 2.333 0.203 3.221 0.611 0.887 0.407 1.475 0.92 1.763 1.538 0.288 0.619 0.432 1.669 0.432 3.152v0.738z"/></g><g transform="matrix(1 0 0 .77 -173.96 202.8)" fill="#fff" fill-rule="nonzero"><path d="m819.41 620.24v14.924h2.95v3.734h-7.802v-18.658h4.852z"/><path d="m832.5 620.24 2.777 18.658h-4.967l-0.242-3.354h-1.74l-0.288 3.354h-5.025l2.466-18.658h7.019zm-2.57 11.997c-0.246-2.113-0.492-4.722-0.738-7.825-0.491 3.564-0.799 6.173-0.922 7.825h1.66z"/><path d="m846.94 620.24v18.658h-4.253l-2.523-8.482v8.482h-4.057v-18.658h4.057l2.719 8.401v-8.401h4.057z"/><path d="m908.87 620.24v12.469c0 1.414-0.046 2.407-0.138 2.979-0.092 0.573-0.365 1.16-0.818 1.763-0.454 0.604-1.051 1.061-1.792 1.372-0.742 0.311-1.616 0.467-2.622 0.467-1.114 0-2.098-0.185-2.95-0.554-0.853-0.368-1.491-0.849-1.913-1.44-0.423-0.592-0.673-1.216-0.75-1.873-0.076-0.657-0.115-2.038-0.115-4.143v-11.04h4.852v13.99c0 0.815 0.044 1.335 0.133 1.562 0.088 0.227 0.266 0.34 0.535 0.34 0.308 0 0.506-0.125 0.594-0.375 0.088-0.249 0.132-0.839 0.132-1.769v-13.748h4.852z"/><path d="m921.03 625.89h-4.507v-1.383c0-0.646-0.057-1.057-0.172-1.233-0.116-0.177-0.308-0.265-0.577-0.265-0.292 0-0.512 0.119-0.662 0.357s-0.225 0.599-0.225 1.083c0 0.622 0.084 1.091 0.254 1.406 0.161 0.315 0.618 0.695 1.371 1.141 2.159 1.283 3.519 2.336 4.08 3.158 0.56 0.822 0.841 2.147 0.841 3.976 0 1.329-0.156 2.308-0.467 2.938s-0.912 1.159-1.803 1.585c-0.892 0.426-1.929 0.64-3.112 0.64-1.298 0-2.407-0.246-3.325-0.738s-1.519-1.118-1.803-1.878c-0.285-0.761-0.427-1.841-0.427-3.239v-1.221h4.506v2.27c0 0.699 0.064 1.148 0.19 1.348 0.127 0.2 0.352 0.3 0.675 0.3 0.322 0 0.562-0.127 0.72-0.38 0.157-0.254 0.236-0.63 0.236-1.13 0-1.098-0.15-1.817-0.449-2.155-0.308-0.338-1.064-0.903-2.271-1.694-1.206-0.799-2.005-1.379-2.397-1.74s-0.716-0.861-0.974-1.498c-0.257-0.638-0.386-1.452-0.386-2.444 0-1.429 0.183-2.473 0.548-3.134s0.954-1.178 1.769-1.55c0.814-0.373 1.798-0.559 2.95-0.559 1.26 0 2.334 0.203 3.221 0.611 0.887 0.407 1.475 0.92 1.763 1.538 0.288 0.619 0.433 1.669 0.433 3.152v0.738z"/><path d="m922.96 620.24h4.84c1.529 0 2.687 0.119 3.475 0.357 0.787 0.238 1.423 0.72 1.907 1.446s0.726 1.896 0.726 3.509c0 1.091-0.171 1.852-0.513 2.282-0.341 0.431-1.016 0.761-2.022 0.991 1.122 0.254 1.882 0.675 2.282 1.262 0.399 0.588 0.599 1.489 0.599 2.703v1.728c0 1.26-0.144 2.194-0.432 2.801s-0.747 1.022-1.377 1.245c-0.63 0.222-1.921 0.334-3.873 0.334h-5.612v-18.658zm4.852 3.192v4.149c0.207-8e-3 0.369-0.012 0.484-0.012 0.476 0 0.78-0.117 0.91-0.351 0.131-0.235 0.196-0.905 0.196-2.011 0-0.584-0.054-0.993-0.161-1.228-0.108-0.234-0.248-0.382-0.421-0.443-0.173-0.062-0.509-0.096-1.008-0.104zm0 7.053v5.22c0.684-0.023 1.12-0.13 1.308-0.322s0.282-0.665 0.282-1.418v-1.74c0-0.799-0.084-1.283-0.253-1.452s-0.615-0.265-1.337-0.288z"/><path d="m995.23 620.24-2.155 18.658h-6.062c-0.553-2.866-1.041-6.124-1.464-9.773-0.192 1.56-0.641 4.817-1.348 9.773h-6.027l-2.167-18.658h4.714l0.495 6.511 0.507 6.281c0.177-3.25 0.623-7.514 1.337-12.792h5.048c0.069 0.545 0.246 2.597 0.53 6.154l0.53 7.087c0.269-4.51 0.718-8.923 1.348-13.241h4.714z"/><path d="m1004.3 620.24 2.78 18.658h-4.97l-0.24-3.354h-1.74l-0.287 3.354h-5.025l2.466-18.658h7.016zm-2.57 11.997c-0.24-2.113-0.49-4.722-0.74-7.825-0.49 3.564-0.79 6.173-0.92 7.825h1.66z"/><path d="m1018.8 620.24v18.658h-4.25l-2.52-8.482v8.482h-4.06v-18.658h4.06l2.72 8.401v-8.401h4.05z"/></g><g transform="matrix(1 0 0 .77 -255.03 381.04)" fill="#fff" fill-rule="nonzero"><path d="m832.81 620.24-2.155 18.658h-6.062c-0.553-2.866-1.041-6.124-1.464-9.773-0.192 1.56-0.641 4.817-1.348 9.773h-6.027l-2.167-18.658h4.714l0.495 6.511 0.507 6.281c0.177-3.25 0.623-7.514 1.337-12.792h5.048c0.069 0.545 0.246 2.597 0.53 6.154l0.53 7.087c0.269-4.51 0.718-8.923 1.348-13.241h4.714z"/><path d="m838.63 620.24v14.924h2.95v3.734h-7.802v-18.658h4.852z"/><path d="m851.72 620.24 2.777 18.658h-4.967l-0.242-3.354h-1.74l-0.288 3.354h-5.025l2.466-18.658h7.019zm-2.57 11.997c-0.246-2.113-0.492-4.722-0.738-7.825-0.492 3.564-0.799 6.173-0.922 7.825h1.66z"/><path d="m866.16 620.24v18.658h-4.253l-2.524-8.482v8.482h-4.056v-18.658h4.056l2.72 8.401v-8.401h4.057z"/><path d="m1151.9 620.24h4.88c1.33 0 2.34 0.103 3.05 0.311 0.71 0.207 1.25 0.507 1.6 0.899 0.36 0.392 0.6 0.866 0.73 1.423s0.19 1.419 0.19 2.587v1.625c0 1.191-0.12 2.059-0.37 2.605-0.25 0.545-0.7 0.964-1.35 1.256-0.66 0.292-1.52 0.438-2.58 0.438h-1.3v7.514h-4.85v-18.658zm4.85 3.192v4.748c0.14 8e-3 0.26 0.012 0.36 0.012 0.44 0 0.75-0.11 0.92-0.329 0.18-0.219 0.26-0.674 0.26-1.366v-1.532c0-0.638-0.1-1.053-0.3-1.245s-0.61-0.288-1.24-0.288z"/><path d="m1182 620.24-2.16 18.658h-6.06c-0.55-2.866-1.04-6.124-1.46-9.773-0.19 1.56-0.64 4.817-1.35 9.773h-6.03l-2.16-18.658h4.71l0.49 6.511 0.51 6.281c0.18-3.25 0.63-7.514 1.34-12.792h5.05c0.07 0.545 0.24 2.597 0.53 6.154l0.53 7.087c0.27-4.51 0.71-8.923 1.35-13.241h4.71z"/><path d="m1182.9 620.24h3.43c2.29 0 3.84 0.088 4.65 0.265 0.81 0.176 1.47 0.628 1.98 1.354s0.77 1.884 0.77 3.474c0 1.453-0.18 2.428-0.54 2.928-0.36 0.499-1.07 0.799-2.13 0.899 0.96 0.238 1.6 0.557 1.93 0.956 0.33 0.4 0.54 0.767 0.62 1.101s0.12 1.254 0.12 2.76v4.921h-4.51v-6.2c0-0.999-0.08-1.618-0.23-1.856-0.16-0.238-0.57-0.357-1.24-0.357v8.413h-4.85v-18.658zm4.85 3.192v4.149c0.54 0 0.93-0.075 1.14-0.225 0.22-0.15 0.33-0.636 0.33-1.458v-1.025c0-0.592-0.1-0.98-0.31-1.164-0.21-0.185-0.6-0.277-1.16-0.277z"/></g></svg>
