<?xml version="1.0" encoding="UTF-8"?>
<!DOCTYPE svg  PUBLIC '-//W3C//DTD SVG 1.1//EN'  'http://www.w3.org/Graphics/SVG/1.1/DTD/svg11.dtd'>
<svg clip-rule="evenodd" fill-rule="evenodd" stroke-linecap="round" stroke-linejoin="round" stroke-miterlimit="1.4142" version="1.1" viewBox="0 0 1280 1150" xmlns="http://www.w3.org/2000/svg"><path d="m1012 952 18-1 26-11 24-540c-409.35-59.342-709.97-36.733-900 20l28 545 34 3 770-16z" fill="#dfe0e5" stroke="#7d7e83" stroke-width="1px"/><g transform="matrix(.998 -.063194 .063194 .998 -27.801 23.019)"><path d="m373 442h-46l-1.647 18.461 47.647-0.461v-18z" stroke="#000" stroke-width="1px"/></g><path d="m637 427 321-1.5c24.533-0.115 49.59 0.324 74 2.5 5.74 0.512 10.2 7.102 13.5 11l-0.5 9-408-3v-18z" stroke="#7d7e83" stroke-width="1px"/><rect x="371" y="416" width="127" height="42" fill="#dfe0e5" stroke="#000" stroke-width="1px"/><rect x="515" y="412" width="126" height="34" fill="#dfe0e5" stroke="#000" stroke-width="1px"/><rect x="724" y="413" width="12" height="25" fill="#dfe0e5" stroke="#7d7e83" stroke-width="1px"/><rect x="832" y="411" width="13" height="26" fill="#dfe0e5" stroke="#7d7e83" stroke-width="1px"/><rect x="939" y="411" width="11" height="27" fill="#dfe0e5" stroke="#7d7e83" stroke-width="1px"/><path d="m230 980c182.87 46.97 720 15.205 787-22 9.73-9.563 12.05-20.248 16-35 16.67-62.165 26.26-241.8 26-471-6.9-12.47-17.72-17.176-30-19-295.3-0.788-538.49 4.717-709 19-5.535 137.67-18.809 202.87-38.5 208-1.902 0.495-4.15 0.567-5 0-20.188-13.462-36.775-58.649-40.5-195-0.069-2.537-3.166-4.897-6-5-7.649-0.278-15.312-0.049-23 1-6.048 0.825-10.958 7.615-11 13.5-1.092 154.68 9.31 322.15 34 505.5z" fill="#981831" stroke="#000" stroke-width="1px"/><g id="Schlitze"><g transform="matrix(1 0 0 1.1875 0 -104.44)"><path d="m1033 542.58c0-1.104-1.06-2-2.38-2-230.89-1.937-461.45 1.288-691.24 16.421-1.311 0-2.375 0.896-2.375 2v4c0 1.104 1.064 2 2.375 2 229.11-12.544 459.66-17.328 691.24-16.421 1.32 0 2.38-0.896 2.38-2v-4z" fill="none" stroke="#880a20" stroke-width=".91px"/></g><g transform="matrix(1 0 0 1.1875 0 -124.6)"><path d="m1033 542.58c0-1.104-1.06-2-2.38-2-230.89-1.937-461.45 1.288-691.24 16.421-1.311 0-2.375 0.896-2.375 2v4c0 1.104 1.064 2 2.375 2 229.11-12.544 459.66-17.328 691.24-16.421 1.32 0 2.38-0.896 2.38-2v-4z" fill="none" stroke="#880a20" stroke-width=".91px"/></g><g transform="matrix(1 0 0 1.1875 0 -144.58)"><path d="m1033 542.58c0-1.104-1.06-2-2.38-2-230.89-1.937-461.45 1.288-691.24 16.421-1.311 0-2.375 0.896-2.375 2v4c0 1.104 1.064 2 2.375 2 229.11-12.544 459.66-17.328 691.24-16.421 1.32 0 2.38-0.896 2.38-2v-4z" fill="none" stroke="#880a20" stroke-width=".91px"/></g><path d="m391.85 491.48 8.15 6.236c1.436 1.098 1.936 2.311 1.73 3.298-20.797 1.201-41.582 2.476-62.355 3.827-1.311 0-2.375-1.065-2.375-2.375v-4.75c0-1.311 1.064-2.375 2.375-2.375 17.487-1.368 34.979-2.654 52.475-3.861zm141.6-8.125 8.55 6.65c2.245 1.746 3.314 3.053 2.964 3.893-23.122 0.966-46.231 2.018-69.326 3.159-1.096-0.906 0.043-2.638 3.362-5.052l8.77-6.378c15.224-0.811 30.45-1.568 45.68-2.272zm94.394-3.72c134.09-4.395 268.38-5.133 402.78-3.794 1.32 0 2.38 1.064 2.38 2.375v4.75c0 1.31-1.06 2.375-2.38 2.375-136.9-0.637-273.43 1.088-409.52 5.682-4.735 0.065-6.354-0.472-2.099-4.018l8.844-7.37z" fill="none" stroke="#880a20" stroke-width="1px"/><path d="m374.23 472.21 6.081 9.555c-13.649 0.821-27.293 1.675-40.932 2.562-1.311 0-2.375-1.064-2.375-2.375v-4.75c0-1.311 1.064-2.375 2.375-2.375 11.615-0.908 23.232-1.78 34.851-2.617zm143.77-8.213 5.274 10.319c-9.397 0.415-27.274 0.681-27.274 0.681l6.39-10.645c5.154-0.263 10.458-0.238 15.61-0.355zm125.75-6c128.8-3.946 257.79-3.956 386.87-2.67 1.32 0 2.38 1.064 2.38 2.375v4.75c0 1.311-1.06 2.375-2.38 2.375-131.29-0.61-390.62 3.17-390.62 3.17l3.752-10z" fill="none" stroke="#880a20" stroke-width="1px"/><g id="Stege"><path d="m695 453v103l345 1 1-65-105 1v-44l-241 4z" fill="#e3dddd" stroke="#880a20" stroke-width="1px"/><g transform="matrix(.86667 0 0 1 52 0)"><rect x="390" y="480.5" width="15" height="104.5" fill="#911834" stroke="#880a20" stroke-width="1.07px"/></g><g transform="matrix(.86667 0 0 1.1962 163.85 -114.76)"><rect x="390" y="480.5" width="15" height="104.5" fill="#911834" stroke="#880a20" stroke-width=".96px"/></g><g transform="matrix(.86667 0 0 1.0526 280.75 -30.79)"><rect x="390" y="480.5" width="15" height="104.5" fill="#911834" stroke="#880a20" stroke-width="1.04px"/></g><g transform="matrix(.86667 0 0 1.0526 387 -55.79)"><rect x="390" y="480.5" width="15" height="104.5" fill="#911834" stroke="#880a20" stroke-width="1.04px"/></g><g transform="matrix(.86667 0 0 1.0526 494.34 -55.79)"><rect x="390" y="480.5" width="15" height="104.5" fill="#911834" stroke="#880a20" stroke-width="1.04px"/></g><g transform="matrix(.86667 0 0 1.0526 603.94 -55.79)"><rect x="390" y="480.5" width="15" height="104.5" fill="#911834" stroke="#880a20" stroke-width="1.04px"/></g></g></g><path d="m230 980c182.87 46.97 720 15.205 787-22 9.73-9.563 12.05-20.248 16-35 16.67-62.165 26.26-241.8 26-471-6.9-12.47-17.72-17.176-30-19-295.3-0.788-538.49 4.717-709 19-5.535 137.67-18.809 202.87-38.5 208-1.902 0.495-4.15 0.567-5 0-20.188-13.462-36.775-58.649-40.5-195-0.069-2.537-3.166-4.897-6-5-7.649-0.278-15.312-0.049-23 1-6.048 0.825-10.958 7.615-11 13.5-1.092 154.68 9.31 322.15 34 505.5zm803-460.29c0-1.311-1.06-2.375-2.38-2.375-230.89-2.3-461.45 1.529-691.24 19.5-1.311 0-2.375 1.064-2.375 2.375v4.75c0 1.31 1.064 2.375 2.375 2.375 229.11-14.896 459.66-20.577 691.24-19.5 1.32 0 2.38-1.065 2.38-2.375v-4.75zm0-19.98c0-1.31-1.06-2.375-2.38-2.375-230.89-2.299-461.45 1.53-691.24 19.5-1.311 0-2.375 1.065-2.375 2.375v4.75c0 1.311 1.064 2.375 2.375 2.375 229.11-14.895 459.66-20.576 691.24-19.5 1.32 0 2.38-1.064 2.38-2.375v-4.75zm-641.15-8.254 8.15 6.236c1.436 1.098 1.936 2.311 1.73 3.298-20.797 1.201-41.582 2.476-62.355 3.827-1.311 0-2.375-1.065-2.375-2.375v-4.75c0-1.311 1.064-2.375 2.375-2.375 17.487-1.368 34.979-2.654 52.475-3.861zm141.6-8.125 8.55 6.65c2.245 1.746 3.314 3.053 2.964 3.893-23.122 0.966-46.231 2.018-69.326 3.159-1.096-0.906 0.043-2.638 3.362-5.052l8.77-6.378c15.224-0.811 30.45-1.568 45.68-2.272zm94.394-3.72c134.09-4.395 268.38-5.133 402.78-3.794 1.32 0 2.38 1.064 2.38 2.375v4.75c0 1.31-1.06 2.375-2.38 2.375-136.9-0.637-273.43 1.088-409.52 5.682-4.735 0.065-6.354-0.472-2.099-4.018l8.844-7.37zm-253.62-7.417 6.081 9.555c-13.649 0.821-27.293 1.675-40.932 2.562-1.311 0-2.375-1.064-2.375-2.375v-4.75c0-1.311 1.064-2.375 2.375-2.375 11.615-0.908 23.232-1.78 34.851-2.617zm143.77-8.213 5.274 10.319c-9.397 0.415-27.274 0.681-27.274 0.681l6.39-10.645c5.154-0.263 10.458-0.238 15.61-0.355zm125.75-6c128.8-3.946 257.79-3.956 386.87-2.67 1.32 0 2.38 1.064 2.38 2.375v4.75c0 1.311-1.06 2.375-2.38 2.375-131.29-0.61-390.62 3.17-390.62 3.17l3.752-10z" fill="#981831" stroke="#5f0f22" stroke-width="1px"/><g id="Buttons"><g transform="matrix(1.1053 0 0 1.1053 95.947 -56.553)"><circle cx="437.5" cy="437.5" r="47.5" stroke="#000" stroke-width=".9px"/></g><g transform="matrix(1.1053 0 0 1.1053 -47.553 -50.553)"><circle cx="437.5" cy="437.5" r="47.5" stroke="#000" stroke-width=".9px"/></g><g transform="translate(-1.5 -4.5)"><circle cx="437.5" cy="437.5" r="47.5" fill="#eeeef0" stroke="#000" stroke-width="1px"/></g><g transform="translate(142 -10.5)"><circle cx="437.5" cy="437.5" r="47.5" fill="#eeeef0" stroke="#000" stroke-width="1px"/></g><g transform="matrix(.80565 0 0 1 105.23 -3)"><text x="543px" y="440px" font-family="'Arial-Black', 'Arial Black', sans-serif" font-size="27.769px" font-weight="900">WLAN</text></g><g transform="matrix(.9413 0 0 1 -103.45 2.9932)"><text x="543px" y="440px" font-family="'Arial-Black', 'Arial Black', sans-serif" font-size="27.769px" font-weight="900">WPS</text></g></g><path d="m180 240c-19.525 1.732-28.792 16.526-30 30-21.073 235.08-2.439 468.1 40 700 10.348 6.22 34.241 8.649 34 5-21.65-171.7-34.136-343.36-34-515 6e-3 -7.389 7.978-15.029 16-16 9.222-1.117 18.543-1.533 28-1 5.894 1.946 5.577 8.03 6 20 4.204 119.02 17.723 174 37 191 1.3 1.147 3.872 1.37 5 0 18.958-23.029 29.739-92.04 32-211 0.084-4.396 3.784-8.241 7-8.5l62-3.5c4.988-27.342 22.092-48.673 51-50 20.784-0.954 50.475 15.722 53 42l40-1c5.037-24.883 24.775-47.1 53-47.023 26.215 0.071 50.046 24.068 50 43.023 138.4-3.574 275.71-3.137 412 1 7.32 0.018 19.96 11.558 20 19 0.92 197.4-3.22 367.91-21 466-4.26 23.484-8.53 41.141-19 53 54.81-8.9 109.51-21.22 164-40 52.26-156 70.59-365.39 43-647-1.33-13.543-10.63-28.796-24-30-341.65-30.755-683.31-30.308-1025 0z" fill="#dbdee3" stroke="#000" stroke-width="1px"/><path d="m434 1002.1c14.782-118.84 22.025-105.42 24 0.9l-24-0.9z" fill="#493d51" stroke="#5f0f22" stroke-width="1px"/><g transform="translate(92 1.1369e-13)"><path d="m434 1003.5c14.782-118.83 22.025-106.42 24-0.09l-24 0.09z" fill="#493d51" stroke="#5f0f22" stroke-width="1px"/></g><g transform="translate(182.69 1.1369e-13)"><path d="m434.31 1002.3c14.782-118.84 21.711-107.04 23.686-0.72l-23.686 0.72z" fill="#493d51" stroke="#5f0f22" stroke-width="1px"/></g><g transform="translate(274 -3.5351)"><path d="m434 1002.2c14.782-118.84 22.025-107.65 24-1.33l-24 1.33z" fill="#493d51" stroke="#5f0f22" stroke-width="1px"/></g><g transform="translate(362 -13.535)"><path d="m433.84 1006.5c14.782-118.83 22.189-108.32 24.164-2l-24.164 2z" fill="#493d51" stroke="#5f0f22" stroke-width="1px"/></g><g transform="matrix(6.0926e-17 -.995 1.1806 7.2292e-17 -602.61 1368.7)"><text x="472px" y="900px" fill="white" font-family="'ArialMT', 'Arial', sans-serif" font-size="20.827px">Power</text></g><g transform="matrix(6.6287e-17 -1.0826 1.1806 7.2292e-17 -508.81 1410.2)"><text x="472px" y="900px" fill="white" font-family="'ArialMT', 'Arial', sans-serif" font-size="20.827px">InteÍrnet</text></g><g transform="matrix(6.1976e-17 -1.0121 1.1806 7.2292e-17 -416.76 1376.9)"><text x="472px" y="900px" fill="white" font-family="'ArialMT', 'Arial', sans-serif" font-size="20.827px">WLAN</text></g><g transform="matrix(6.6287e-17 -1.0826 1.1806 7.2292e-17 -324.76 1407)"><text x="472px" y="900px" fill="white" font-family="'ArialMT', 'Arial', sans-serif" font-size="20.827px">LAN</text></g><g transform="matrix(6.6287e-17 -1.0826 1.1806 7.2292e-17 -236.56 1398.1)"><text x="472px" y="900px" fill="white" font-family="'ArialMT', 'Arial', sans-serif" font-size="20.827px">Info</text></g><g transform="translate(.28223 11.259)"><path d="m1111 248c-12.33 100.33-10.63 200.66 0 301 3.9 36.859 17.12 48.012 29 0 23.97-96.854 28.51-196.53 0-301-4.94-18.111-26.17-23.027-29 0z" fill="#61636f" stroke="#373535" stroke-width="3.5px"/></g><g transform="matrix(-1 -1.2246e-16 1.2246e-16 -1 1402.4 826.74)"><path d="m1105.4 247.74c-17.02 147.04 0.35 265.42 5.62 301.26 5.39 36.67 31 49.095 37 0 12.12-99.158 8.1-197.24-8-301-5.54-35.678-29.48-44.633-34.62-0.259z" fill="#61636f" stroke="#373535" stroke-width="3.5px"/></g></svg>
