<?xml version="1.0" encoding="UTF-8"?>
<!DOCTYPE svg  PUBLIC '-//W3C//DTD SVG 1.1//EN'  'http://www.w3.org/Graphics/SVG/1.1/DTD/svg11.dtd'>
<svg clip-rule="evenodd" fill-rule="evenodd" stroke-linecap="round" stroke-linejoin="round" stroke-miterlimit="1.4142" version="1.1" viewBox="0 0 1280 1150" xmlns="http://www.w3.org/2000/svg"><path d="m284 960c1.226 2.506 3.005 4.651 6 6h14c2.439 12.041 5.43 12.254 15 16 16.553 6.479 36.149 10.006 59 10h51v26l448-1v-26h71c22.381-1.197 21.389-1.379 42-9 9.437-3.489 13-6.084 13-16h14c2.78-0.511 5.2-2.215 7-6-0.42 6.766-2.3 15.047-8.5 20.5-6.68 5.876-39.4 15.116-60.5 17.5l-53 0.5h-5l-0.5 17.5-3.5 3.5-13.5 5.5-63.5 2h-376l-26-8-6-18v-3h-39c-25.572-0.499-48.567-5.508-69-15-9.456-4.393-14.689-7.05-16-23z" fill="#e2e2e0" stroke="#000" stroke-width="1.5px"/><path d="m284 960c1.226 2.506 3.005 4.651 6 6h14c2.439 12.041 5.43 12.254 15 16 16.553 6.479 36.149 10.006 59 10h51v26l448-1v-26h71c22.381-1.197 21.389-1.379 42-9 9.437-3.489 13-6.084 13-16h14c2.78-0.511 5.2-2.215 7-6-14.67-25.906-52.513-33-99-33h-545c-48.279 0-80.395 10.014-96 33z" fill="#e2e2e0" stroke="#000" stroke-width="1.5px"/><g transform="translate(0 3)"><path d="m284.02 956.96 35.975-779.96c1.184-26.749 38.661-37 80-37h502c40.265 0 86.891 9.9 88 37 0 0 32.2 783.77 34 779.99h-1.87c-15.83-23.448-52.499-29.987-97.13-29.987h-545c-45.938 0-77.129 9.283-93.5 29.964h-2.475z" fill="#ebece9" stroke="#000" stroke-width="1.5px"/></g><path d="m284 960c1.226 2.506 36-783 36-783 1.184-26.749 38.661-37 80-37h502c40.265 0 86.891 9.9 88 37 0 0 32.2 786.78 34 783-14.67-25.906-52.513-33-99-33h-545c-48.279 0-80.395 10.014-96 33z" fill="#ebece9" stroke="#000" stroke-width="1.5px"/><g id="Kontakte"><path d="m756 973v24.5c0 1.777 2.5 1.833 2.5 0v-24.5" fill="#e3c42a" stroke="#cfab1d" stroke-width=".45px"/><g transform="translate(13.532)"><path d="m756 973v24.5c0 1.777 2.5 1.833 2.5 0v-24.5" fill="#e3c42a" stroke="#cfab1d" stroke-width=".45px"/></g><g transform="translate(26.31)"><path d="m756 973v24.5c0 1.777 2.5 1.833 2.5 0v-24.5" fill="#e3c42a" stroke="#cfab1d" stroke-width=".45px"/></g><g transform="translate(39.802)"><path d="m756 964v33.5c0 1.777 2.5 1.833 2.5 0v-33.5" fill="#e3c42a" stroke="#cfab1d" stroke-width=".45px"/></g><g transform="translate(51.636)"><path d="m756 964v33.5c0 1.777 2.5 1.833 2.5 0v-33.5" fill="#e3c42a" stroke="#cfab1d" stroke-width=".45px"/></g><g transform="translate(64.686)"><path d="m756 964v33.5c0 1.777 2.5 1.833 2.5 0v-33.5" fill="#e3c42a" stroke="#cfab1d" stroke-width=".45px"/></g><g transform="translate(76.75)"><path d="m756 973v24.5c0 1.777 2.5 1.833 2.5 0v-24.5" fill="#e3c42a" stroke="#cfab1d" stroke-width=".45px"/></g><g transform="translate(89.532)"><path d="m756 973v24.5c0 1.777 2.5 1.833 2.5 0v-24.5" fill="#e3c42a" stroke="#cfab1d" stroke-width=".45px"/></g></g><path d="m732 964h63v2h-9v7h-42v12h-6v13h5v12h123v-12h6v-12h-6v-13h-39v-7h-8v-2h58v53h-145v-53z" fill="#d2d2d2" stroke="#373535" stroke-width="1.5px"/><path d="m897 998.5h5c-0.114 5.85-0.937 11.01-3 16.5-1.02 2.71-2.767 5.51-7 8-21.362 10.95-42.691 15.81-64 17l-334 1c-29.179-0.02-61.671-8.2-76-16-5.292-2.88-7.456-6.6-9-12-1.436-5.03-2.326-10.02-3-15h4.5c0.046 5.73 0.945 11.39 3.5 17 2.38 3.46 5.932 6.34 12 8h452c6.376 0 16.66-4.84 18-10 1.264-4.87 1.217-9.56 1-14.5z" fill="#e2e2e0" stroke="#000" stroke-width="1.5px"/><path d="m819 964h-24" fill="none" stroke="#373535" stroke-width="1.5px"/><rect x="738" y="985" width="4.5" height="13" fill="#d2d2d2" stroke="#373535" stroke-width="1.5px"/><rect x="867" y="986" width="5" height="12" fill="#d2d2d2" stroke="#373535" stroke-width="1.5px"/><path d="m688 160c-0.024-4.335 3.199-7 8-7h176.5c5.312 0 9.324 2.528 9.5 7l29 737c0.169 4.29-4.649 8-9 8h-201c-5.108 0-8.976-3.505-9-8l-4-737z" fill="#ae0f0e" stroke="#953332" stroke-width="1.5px"/><g id="Led"><g transform="matrix(1 0 0 .93333 0 28.2)"><path d="m765 417.38c0-1.035-0.784-1.875-1.75-1.875h-51.5c-0.966 0-1.75 0.84-1.75 1.875v3.75c0 1.035 0.784 1.875 1.75 1.875h51.5c0.966 0 1.75-0.84 1.75-1.875v-3.75z" fill="#fff" stroke="#953332" stroke-width="1.55px"/></g><g transform="matrix(.83636 0 0 .93333 125.18 57.301)"><path d="m765 417.38c0-1.035-0.938-1.875-2.092-1.875h-50.816c-1.154 0-2.092 0.84-2.092 1.875v3.75c0 1.035 0.938 1.875 2.092 1.875h50.816c1.154 0 2.092-0.84 2.092-1.875v-3.75z" fill="#fff" stroke="#953332" stroke-width="1.69px"/></g><g transform="matrix(.66364 0 0 .93333 257.32 87.229)"><path d="m765 417.38c0-1.035-1.182-1.875-2.637-1.875h-49.726c-1.455 0-2.637 0.84-2.637 1.875v3.75c0 1.035 1.182 1.875 2.637 1.875h49.726c1.455 0 2.637-0.84 2.637-1.875v-3.75z" fill="#fff" stroke="#953332" stroke-width="1.85px"/></g><g transform="matrix(.50909 0 0 .93333 375.54 117.12)"><path d="m765 417.38c0-1.035-1.54-1.875-3.437-1.875h-48.125c-1.898 0-3.438 0.84-3.438 1.875v3.75c0 1.035 1.54 1.875 3.438 1.875h48.125c1.897 0 3.437-0.84 3.437-1.875v-3.75z" fill="#fff" stroke="#953332" stroke-width="2px"/></g><g transform="matrix(.35454 0 0 .93333 493.77 147.45)"><path d="m765 417.38c0-1.035-2.212-1.875-4.936-1.875h-45.128c-2.724 0-4.936 0.84-4.936 1.875v3.75c0 1.035 2.212 1.875 4.936 1.875h45.128c2.724 0 4.936-0.84 4.936-1.875v-3.75z" fill="#fff" stroke="#953332" stroke-width="2.12px"/></g><g transform="matrix(.97059 0 0 1.0714 22.941 -35.857)"><path d="m814 509c0-3.863-3.462-7-7.727-7h-18.546c-4.265 0-7.727 3.137-7.727 7s3.462 7 7.727 7h18.546c4.265 0 7.727-3.137 7.727-7z" fill="#edf583" stroke="#7f1203" stroke-width="1.47px"/></g><g transform="matrix(.97059 0 0 1.0714 22.941 -65.592)"><path d="m814 509c0-3.863-3.462-7-7.727-7h-18.546c-4.265 0-7.727 3.137-7.727 7s3.462 7 7.727 7h18.546c4.265 0 7.727-3.137 7.727-7z" fill="#edf583" stroke="#7f1203" stroke-width="1.47px"/></g><g transform="matrix(.97059 0 0 1.0714 22.941 -95.891)"><path d="m814 509c0-3.863-3.462-7-7.727-7h-18.546c-4.265 0-7.727 3.137-7.727 7s3.462 7 7.727 7h18.546c4.265 0 7.727-3.137 7.727-7z" fill="#edf583" stroke="#7f1203" stroke-width="1.47px"/></g><g transform="matrix(.97059 0 0 1.0714 22.941 -125.31)"><path d="m814 509c0-3.863-3.462-7-7.727-7h-18.546c-4.265 0-7.727 3.137-7.727 7s3.462 7 7.727 7h18.546c4.265 0 7.727-3.137 7.727-7z" fill="#edf583" stroke="#7f1203" stroke-width="1.47px"/></g><g transform="matrix(.97059 0 0 1.0714 22.941 -5.8122)"><path d="m814 509c0-3.863-3.462-7-7.727-7h-18.546c-4.265 0-7.727 3.137-7.727 7s3.462 7 7.727 7h18.546c4.265 0 7.727-3.137 7.727-7z" fill="#edf583" stroke="#7f1203" stroke-width="1.47px"/></g><g transform="matrix(.97059 0 0 1.0714 25.941 97.643)"><path d="m814 509c0-3.863-3.462-7-7.727-7h-18.546c-4.265 0-7.727 3.137-7.727 7s3.462 7 7.727 7h18.546c4.265 0 7.727-3.137 7.727-7z" fill="#edf583" stroke="#7f1203" stroke-width="1.47px"/></g><g transform="matrix(.97059 0 0 1.0714 25.941 129.26)"><path d="m814 509c0-3.863-3.462-7-7.727-7h-18.546c-4.265 0-7.727 3.137-7.727 7s3.462 7 7.727 7h18.546c4.265 0 7.727-3.137 7.727-7z" fill="#edf583" stroke="#7f1203" stroke-width="1.47px"/></g><g transform="matrix(.97059 0 0 1.0714 25.941 161.21)"><path d="m814 509c0-3.863-3.462-7-7.727-7h-18.546c-4.265 0-7.727 3.137-7.727 7s3.462 7 7.727 7h18.546c4.265 0 7.727-3.137 7.727-7z" fill="#edf583" stroke="#7f1203" stroke-width="1.47px"/></g></g><g transform="matrix(.98598 0 0 1.0168 12.346 -10.676)"><ellipse cx="898.5" cy="592.25" rx="53.5" ry="44.75" fill="#979895" stroke="#373535" stroke-width="1.5px"/></g><g transform="matrix(.89601 0 -1.0335e-32 .98993 285.63 -242.24)"><g transform="matrix(1.011 0 0 1 -5.2148 0)"><text x="472px" y="900px" fill="white" font-family="'Arial-Black', 'Arial Black', sans-serif" font-size="20.827px" font-weight="900">P<tspan x="486.064px " y="900px ">o</tspan></text></g><g transform="matrix(1.011 0 0 1 -5.5179 0)"><text x="499.442px" y="900px" fill="white" font-family="'Arial-Black', 'Arial Black', sans-serif" font-size="20.827px" font-weight="900">w</text></g><g transform="matrix(1.011 0 0 1 -5.7271 0)"><text x="518.369px" y="900px" fill="white" font-family="'Arial-Black', 'Arial Black', sans-serif" font-size="20.827px" font-weight="900">e<tspan x="531.823px " y="900px ">r</tspan></text></g></g><g transform="matrix(.90591 0 -1.0335e-32 .98993 282.78 -210.18)"><text x="472px" y="900px" fill="white" font-family="'Arial-Black', 'Arial Black', sans-serif" font-size="20.827px" font-weight="900">W<tspan x="492.39px 505.844px 521.607px " y="900px 900px 900px ">LAN</tspan></text></g><g transform="matrix(1.6591 0 -1.9138e-32 1.8331 71.295 -1046.1)"><g transform="matrix(1.0994 0 0 1 -46.933 0)"><text x="472px" y="900px" fill="rgb(132,132,130)" font-family="'Arial-Black', 'Arial Black', sans-serif" font-size="20.827px" font-weight="900" stroke="rgb(72,73,70)" stroke-linecap="butt" stroke-width=".55px">W</text></g><g transform="matrix(1.011 0 0 1 -5.4677 0)"><text x="494.898px" y="900px" fill="rgb(132,132,130)" font-family="'Arial-Black', 'Arial Black', sans-serif" font-size="20.827px" font-weight="900" stroke="rgb(72,73,70)" stroke-linecap="butt" stroke-width=".57px">PS</text></g></g><g transform="matrix(.90591 0 -1.0335e-32 .98993 302.77 -178.18)"><text x="472px" y="900px" fill="white" font-family="'Arial-Black', 'Arial Black', sans-serif" font-size="20.827px" font-weight="900">L<tspan x="485.454px 501.217px " y="900px 900px ">AN</tspan></text></g></svg>
