<svg xmlns="http://www.w3.org/2000/svg" viewBox="0 0 1600 1437.5" height="1437.5" width="1600"><defs><clipPath id="a"><path d="M0 0h1280v1150H0V0z" clip-rule="evenodd"/></clipPath></defs><g clip-path="url(#a)" transform="matrix(1.25 0 0 -1.25 0 1437.5)"><path d="M608.452 829.383h41.134v324.701h-41.134V829.383z" fill="#14191d" fill-rule="evenodd" stroke="#000" stroke-width="3" stroke-miterlimit="10"/><path d="M604.159 829.383v11.843c0 3.184 52.174 2.868 52.174 0v-11.843h-52.174z" fill="#14191d" fill-rule="evenodd" stroke="#000" stroke-width="3" stroke-miterlimit="10"/><path d="M604.159 848.796c16.375.669 33.724.547 52.174 0v53.974c-17.783 2.44-35.146 2.698-52.174 0v-53.974" fill="#5d6268" fill-rule="evenodd" stroke="#000" stroke-width="3" stroke-miterlimit="10"/><path d="M621.323 849.233h16.55v55.259c-.538.205-15.717.149-16.55 0v-55.259z" fill="#14191d" fill-rule="evenodd" stroke="#000" stroke-width="3" stroke-miterlimit="10"/><path d="M602.889 912.671c17.112 2.638 34.833 2.99 53.444 0v148.979l-1.372 93.25h-52.072V912.671z" fill="#5a5e61" fill-rule="evenodd" stroke="#000" stroke-width="3" stroke-miterlimit="10"/><path d="M616.271 1163.03h23.818V914.569c-7.321.642-17.886.558-23.818-.353v248.814z" fill="#14191d" fill-rule="evenodd" stroke="#000" stroke-width="3" stroke-miterlimit="10"/><path d="M492.601 132.917v-31.818h267.618v30.493l-267.618 1.325z" fill="#43413f" fill-rule="evenodd" stroke="#262626" stroke-width="3" stroke-miterlimit="10"/><path d="M768.656 142.419v-34.265c0-2.263-5.089-6.97-8.242-6.97v41.235h8.242z" fill="#787772" fill-rule="evenodd" stroke="#262626" stroke-width="3" stroke-miterlimit="10"/><path d="M516.544 165.395c67.187 1.566 165.979 2.444 233.255 0 16.211-.589 25.251-31.154 10.465-33.817-68.264-12.296-194.839-11.19-261.287-2.717-19.54 2.492 6.726 36.282 17.567 36.534z" fill="#2e3231" fill-rule="evenodd" stroke="#262626" stroke-width="3" stroke-miterlimit="10"/><path d="M533.501 160.189c67.194-1.09 134.426-1.289 201.687 0 10.842.208 11.493-23.76 0-24.702-67.253-5.512-134.463-3.491-201.687 0-19.672 1.021-10.842 24.878 0 24.702z" fill="#131514" fill-rule="evenodd" stroke="#262626" stroke-width="3" stroke-miterlimit="10"/><path d="M562.966 817.143l15.951 17.689H682.18l21.59-17.689v-650.61l-21.59-48.067c-5.992-1.746-12.279-2.199-18.639-2.338h-72.693c-7.276.349-12.6 1.219-19.368 2.338l-8.514 48.067v650.61z" fill="#15191a" fill-rule="evenodd" stroke="#000" stroke-width="3" stroke-miterlimit="10"/><path d="M594.088 834.832h-15.171c-2.946-239.825-3.204-477.624 0-717.277l11.11-1.763c-1.757 240.738-.209 478.389 4.061 719.04zM663.265 834.832h15.171c2.946-239.825 3.204-477.624 0-717.277l-11.11-1.763c1.757 240.738.209 478.389-4.061 719.04z" fill="#7b8890" fill-rule="evenodd" stroke="#313131" stroke-width=".1" stroke-miterlimit="10"/><path d="M562.966 817.143l15.951 17.689H682.18l21.59-17.689v-650.61l-21.59-48.067c-5.992-1.746-12.279-2.199-18.639-2.338h-72.693c-7.276.349-12.6 1.219-19.368 2.338l-8.514 48.067v650.61z" fill="none" stroke="#000" stroke-width="3" stroke-miterlimit="10"/><path d="M603.963 800.048c15.992 2.73 33.088 2.631 51.173 0V152.951c-18.247-1.224-36.517-1.345-54.819 0l3.646 647.097" fill="#0f1110" fill-rule="evenodd" stroke="#262626" stroke-width="4.5" stroke-miterlimit="10"/><path d="M631.595 541.155c-4.981 2.137-9.522 1.766-10.134-.828-.611-2.594 2.936-6.435 7.918-8.571 4.982-2.137 9.523-1.766 10.134.827.612 2.594-2.936 6.435-7.918 8.572z" fill="none" stroke="#52b332" stroke-width="2.5" stroke-miterlimit="10"/><path d="M629.135 542.209c-3.807 0-6.898-3.514-6.898-7.842 0-4.328 3.091-7.842 6.898-7.842 3.807 0 6.898 3.514 6.898 7.842 0 4.328-3.091 7.842-6.898 7.842z" fill="none" stroke="#52b332" stroke-width="2.5" stroke-miterlimit="10"/><path d="M623.395 573.695a2.106 2.106 0 0 0 0-4.209 2.105 2.105 0 0 0 0 4.209z" fill="#52b332" fill-rule="evenodd"/><path d="M623.345 579.626c4.418-1.722 7.465-4.429 8.894-8.298M623.345 586.439c8.326-2.225 13.562-7.138 15.282-15.111" fill="none" stroke="#52b332" stroke-width="3.5" stroke-miterlimit="10"/><path d="M623.858 614.472H636.8v9.53h-12.942v-9.53zM625.523 624.002c-.02 8.795 9.657 8.572 9.675 0" fill="none" stroke="#ec9440" stroke-width="2.5" stroke-miterlimit="10"/><path d="M620.82 308.375h16.44v12.783h-16.44v-12.783z" fill="none" stroke="#48a8d0" stroke-width="3" stroke-miterlimit="10"/><path d="M619.327 177.893h18.746v67.074h-18.746v-67.074z" fill-rule="evenodd" stroke="#000" stroke-width="3.5" stroke-miterlimit="10"/><path d="M617.486 181.867h17.92v49.023h-17.92v-49.023z" fill="#323a3d" fill-rule="evenodd" stroke="#21292c" stroke-width="2.5" stroke-miterlimit="10"/><path d="M617.416 223.721h17.865M617.416 214.58h17.865M617.416 205.865h17.865M617.416 196.92h17.865M617.416 189.729h17.865" fill="none" stroke="#21292c" stroke-width="2.5" stroke-miterlimit="10"/><path d="M630.377 673.178c4.55 0 8.244-3.077 8.244-6.867 0-3.789-3.694-6.866-8.244-6.866s-8.244 3.077-8.244 6.866c0 3.79 3.694 6.867 8.244 6.867z" fill="none" stroke="#52b332" stroke-width="2.5" stroke-miterlimit="10"/><path d="M632.141 677.204c0 .46-.374.833-.834.833h-1.666a.834.834 0 0 1-.833-.833v-9.753c0-.46.374-.833.833-.833h1.666c.46 0 .834.373.834.833v9.753z" fill="#52b332" fill-rule="evenodd" stroke="#0f1110" stroke-width="2.5" stroke-miterlimit="10"/><path d="M613.239 735.483h31.698v54.17H613.24v-54.17z" fill="#2a2e2f" fill-rule="evenodd" stroke="#000" stroke-width="2.5" stroke-miterlimit="10"/><path d="M629.198 766.974v-10.375M621.212 765.83l-3.682-3.769 3.682-4.455M637.237 765.83l3.682-3.769-3.682-4.455M634.995 763.216v-3M625.021 763.202V760.3" fill="none" stroke="#323c40" stroke-width="2.5" stroke-miterlimit="10"/></g></svg>