<svg xmlns="http://www.w3.org/2000/svg" viewBox="0 0 1600 1437.5" height="1437.5" width="1600"><path d="M741.734 401.995v-36.659l9.427-12.497h71.1l9.428 12.497v36.659h-89.955z" fill="#15191a" fill-rule="evenodd" stroke="#000" stroke-width="3.125" stroke-miterlimit="10"/><path d="M831.689 365.336h-89.955l9.427-12.497h71.1l9.428 12.497z" fill="#272b2c" fill-rule="evenodd" stroke="#000" stroke-width="3.125" stroke-miterlimit="10"/><path d="M766.46 401.634h41.01v-38.608h-41.01v38.608z" fill="#2a2e2f" fill-rule="evenodd" stroke="#000" stroke-width="3.125" stroke-miterlimit="10"/><path d="M615.751 1271.354v39.772h334.523v-38.116l-334.523-1.656z" fill="#43413f" fill-rule="evenodd" stroke="#262626" stroke-width="3.75" stroke-miterlimit="10"/><path d="M960.82 1259.476v42.831c0 2.83-6.361 8.713-10.303 8.713v-51.544h10.303z" fill="#787772" fill-rule="evenodd" stroke="#262626" stroke-width="3.75" stroke-miterlimit="10"/><path d="M645.68 1230.756c83.984-1.957 207.474-3.055 291.569 0 20.263.736 31.563 38.943 13.081 42.271-85.33 15.37-243.549 13.988-326.609 3.397-24.425-3.115 8.408-45.353 21.959-45.668z" fill="#2e3231" fill-rule="evenodd" stroke="#262626" stroke-width="3.75" stroke-miterlimit="10"/><path d="M666.876 1237.264c83.993 1.362 168.033 1.611 252.109 0 13.553-.26 14.366 29.7 0 30.877-84.066 6.89-168.079 4.364-252.109 0-24.59-1.276-13.552-31.097 0-30.877z" fill="#131514" fill-rule="evenodd" stroke="#262626" stroke-width="3.75" stroke-miterlimit="10"/><path d="M703.707 416.071l19.94-22.111h129.078l26.988 22.111v813.263l-26.988 60.083c-7.49 2.183-15.349 2.75-23.299 2.923H738.56c-9.095-.436-15.75-1.524-24.21-2.923l-10.643-60.083V416.07z" fill="#15191a" fill-rule="evenodd" stroke="#000" stroke-width="3.75" stroke-miterlimit="10"/><path d="M742.61 393.96h-18.964c-3.682 299.781-4.005 597.03 0 896.596l13.888 2.204c-2.197-300.923-.262-597.986 5.076-898.8zM829.081 393.96h18.964c3.683 299.781 4.005 597.03 0 896.596l-13.887 2.204c2.196-300.923.26-597.986-5.077-898.8z" fill="#7b8890" fill-rule="evenodd" stroke="#313131" stroke-width=".125" stroke-miterlimit="10"/><path d="M703.707 416.071l19.94-22.111h129.078l26.988 22.111v813.263l-26.988 60.083c-7.49 2.183-15.349 2.75-23.299 2.923H738.56c-9.095-.436-15.75-1.524-24.21-2.923l-10.643-60.083V416.07z" fill="none" stroke="#000" stroke-width="3.75" stroke-miterlimit="10"/><path d="M754.954 437.44c19.99-3.412 41.36-3.289 63.966 0v808.871c-22.809 1.53-45.646 1.682-68.524 0l4.558-808.871" fill="#0f1110" fill-rule="evenodd" stroke="#262626" stroke-width="5.625" stroke-miterlimit="10"/><path d="M789.494 761.056c-6.226-2.671-11.903-2.207-12.668 1.035-.763 3.243 3.67 8.044 9.898 10.714 6.227 2.671 11.904 2.208 12.667-1.034.765-3.242-3.67-8.043-9.897-10.715z" fill="none" stroke="#52b332" stroke-width="3.125" stroke-miterlimit="10"/><path d="M786.419 759.739c-4.759 0-8.623 4.392-8.623 9.802 0 5.41 3.864 9.803 8.623 9.803 4.759 0 8.622-4.393 8.622-9.803 0-5.41-3.864-9.802-8.622-9.802z" fill="none" stroke="#52b332" stroke-width="3.125" stroke-miterlimit="10"/><path d="M779.244 720.381a2.632 2.632 0 0 1 0 5.261 2.63 2.63 0 0 1 0-5.26z" fill="#52b332" fill-rule="evenodd"/><path d="M779.181 712.967c5.523 2.153 9.332 5.537 11.118 10.373M779.181 704.451c10.408 2.782 16.953 8.923 19.103 18.889" fill="none" stroke="#52b332" stroke-width="4.375" stroke-miterlimit="10"/><path d="M779.244 664.225a2.632 2.632 0 0 1 0 5.261 2.631 2.631 0 0 1 0-5.261z" fill="#52b332" fill-rule="evenodd"/><path d="M779.181 656.811c5.523 2.153 9.332 5.536 11.118 10.373M779.181 648.295c10.408 2.781 16.953 8.922 19.103 18.889" fill="none" stroke="#52b332" stroke-width="4.375" stroke-miterlimit="10"/><path d="M799.692 816.4h-5.706M775.559 816.4h6.129M787.626 804.332v5.708M787.626 828.466v-6.128M796.159 807.867l-4.035 4.035M779.094 824.933l4.333-4.334M779.094 807.867l4.035 4.035M796.159 824.933l-4.334-4.334" fill="none" stroke="#4c4c4c" stroke-width="3.125" stroke-miterlimit="10"/><path d="M776.025 1052.031h20.55v-15.979h-20.55v15.98z" fill="none" stroke="#48a8d0" stroke-width="3.75" stroke-miterlimit="10"/><path d="M774.159 1215.134h23.432v-83.843H774.16v83.843z" fill-rule="evenodd" stroke="#000" stroke-width="4.375" stroke-miterlimit="10"/><path d="M771.857 1210.166h22.4v-61.278h-22.4v61.278z" fill="#323a3d" fill-rule="evenodd" stroke="#21292c" stroke-width="3.125" stroke-miterlimit="10"/><path d="M771.77 1157.849h22.331M771.77 1169.275h22.331M771.77 1180.169h22.331M771.77 1191.35h22.331M771.77 1200.339h22.331" fill="none" stroke="#21292c" stroke-width="3.125" stroke-miterlimit="10"/><path d="M787.971 596.028c5.688 0 10.305 3.846 10.305 8.583s-4.617 8.583-10.305 8.583c-5.687 0-10.305-3.846-10.305-8.583s4.618-8.583 10.305-8.583z" fill="none" stroke="#52b332" stroke-width="3.125" stroke-miterlimit="10"/><path d="M790.176 590.995c0-.575-.467-1.041-1.042-1.041h-2.083c-.574 0-1.041.466-1.041 1.041v12.191c0 .575.468 1.042 1.041 1.042h2.083c.575 0 1.042-.467 1.042-1.042v-12.191z" fill="#52b332" fill-rule="evenodd" stroke="#0f1110" stroke-width="3.125" stroke-miterlimit="10"/><path d="M766.549 518.146h39.623v-67.711h-39.623v67.711z" fill="#2a2e2f" fill-rule="evenodd" stroke="#000" stroke-width="3.125" stroke-miterlimit="10"/><path d="M786.497 478.782v12.97M776.515 480.212l-4.603 4.712 4.603 5.569M796.546 480.212l4.603 4.712-4.603 5.569M793.744 483.48v3.75M781.276 483.497v3.628" fill="none" stroke="#323c40" stroke-width="3.125" stroke-miterlimit="10"/></svg>