<?xml version="1.0" encoding="UTF-8"?>
<!DOCTYPE svg  PUBLIC '-//W3C//DTD SVG 1.1//EN'  'http://www.w3.org/Graphics/SVG/1.1/DTD/svg11.dtd'>
<svg clip-rule="evenodd" fill-rule="evenodd" stroke-linecap="round" stroke-linejoin="round" stroke-miterlimit="1.4142" version="1.1" viewBox="0 0 1280 1150" xmlns="http://www.w3.org/2000/svg"><g id="Antenne" transform="translate(-106.07)" stroke="#000" stroke-width="3px"><rect x="714.52" y="-4.084" width="41.134" height="324.7" fill="#14191d"/><path d="m710.23 320.62v-11.843c0-3.184 52.173-2.868 52.173 0v11.843h-52.173z" fill="#14191d"/><path d="m710.23 301.2c16.374-0.669 33.723-0.547 52.173 0v-53.974c-17.782-2.44-35.146-2.698-52.173 0v53.974" fill="#5d6268"/><path d="m727.39 300.77h16.549v-55.259c-0.537-0.205-15.717-0.149-16.549 0v55.259z" fill="#14191d"/><path d="m708.96 237.33c17.111-2.638 34.832-2.99 53.443 0v-148.98l-1.372-93.245h-52.071v242.23z" fill="#5a5e61"/><path d="m722.34-13.033h23.817v248.46c-7.32-0.642-17.885-0.558-23.817 0.353v-248.82z" fill="#14191d"/></g><g id="Sockel" transform="translate(-106.07)" stroke="#262626" stroke-width="3px"><path d="m598.67 1017.1v31.82h267.62v-30.49l-267.62-1.33z" fill="#43413f"/><path d="m874.72 1007.6v34.27c0 2.26-5.089 6.97-8.242 6.97v-41.24h8.242z" fill="#787772"/><path d="m622.61 984.6c67.188-1.566 165.98-2.444 233.26 0 16.212 0.589 25.252 31.155 10.465 33.815-68.264 12.3-194.84 11.19-261.29 2.72-19.541-2.49 6.725-36.283 17.566-36.535z" fill="#2e3231" stroke-linecap="butt"/><path d="m639.57 989.81c67.194 1.09 134.43 1.289 201.69 0 10.841-0.208 11.493 23.759 0 24.699-67.253 5.51-134.46 3.49-201.69 0-19.672-1.02-10.842-24.875 0-24.699z" fill="#131514" stroke-linecap="butt"/></g><g id="rumpf" transform="translate(-106.07)"><path d="m669.04 332.86 15.95-17.689h103.26l21.591 17.689v650.61l-21.591 48.063c-5.992 1.75-12.279 2.2-18.639 2.34h-72.693c-7.276-0.35-12.599-1.22-19.367-2.34l-8.514-48.063v-650.61z" fill="#15191a" stroke="#000" stroke-linecap="butt" stroke-width="3px"/><path d="m700.16 315.17h-15.171c-2.946 239.82-3.203 477.62 0 717.27l11.11 1.77c-1.757-240.74-0.209-478.39 4.061-719.04z" fill="#7b8890" stroke="#313131" stroke-linecap="butt" stroke-width=".1px"/><g transform="matrix(-1 0 0 1 1469.5 0)"><path d="m700.16 315.17h-15.171c-2.946 239.82-3.203 477.62 0 717.27l11.11 1.77c-1.757-240.74-0.209-478.39 4.061-719.04z" fill="#7b8890" stroke="#313131" stroke-linecap="butt" stroke-width=".1px"/></g><path d="m669.04 332.86 15.95-17.689h103.26l21.591 17.689v650.61l-21.591 48.063c-5.992 1.75-12.279 2.2-18.639 2.34h-72.693c-7.276-0.35-12.599-1.22-19.367-2.34l-8.514-48.063v-650.61z" fill="none" stroke="#000" stroke-linecap="butt" stroke-width="3px"/><path d="m710.03 349.95c15.991-2.73 33.088-2.631 51.172 0v647.1c-18.246 1.224-36.516 1.345-54.819 0l3.647-647.1" fill="#0f1110" stroke="#262626" stroke-width="4.5px"/></g><g id="anzeige-USB" transform="matrix(.75755 0 0 .82215 353.39 -309.46)"><g id="Inet" transform="matrix(-1.5325 2.7863e-16 3.7577e-16 2.2965 1493.9 -1153.9)"><g transform="matrix(1.219 -.32155 .67973 1.7726 -757.46 -350.5)"><ellipse cx="729.35" cy="889.27" rx="6.378" ry="1.404" fill="none" stroke="#52b332" stroke-width="1.01px"/></g><g transform="matrix(1.095 0 0 1.0978 -70.618 8.1974)"><ellipse cx="737.8" cy="896.54" rx="5.426" ry="3.783" fill="none" stroke="#52b332" stroke-width="1.45px"/></g></g><g id="wifi" transform="matrix(-1.5325 2.7863e-16 3.7577e-16 2.2965 1493.9 -1153.1)"><g transform="matrix(-2.717 3.2965e-16 4.0965e-16 1.6707 1697.9 4.1071)"><circle cx="351.75" cy="579.56" r=".667" fill="#52b332"/></g><g transform="matrix(-.86136 1.0451e-16 1.2987e-16 .52965 1046.1 665.04)"><path d="m352.76 572.24c4.419 1.722 7.465 4.43 8.895 8.298" fill="none" stroke="#52b332" stroke-width="3.5px"/></g><g transform="matrix(-.86136 1.0451e-16 1.2987e-16 .52965 1046.1 665.04)"><path d="m352.76 565.43c8.326 2.225 13.562 7.139 15.282 15.111" fill="none" stroke="#52b332" stroke-width="3.5px"/></g></g><g id="lock" transform="matrix(1.32 0 0 1.2163 -637.16 -3.8885)"><g transform="matrix(.81206 0 0 1 126.41 .5938)"><rect x="771.78" y="838.06" width="15.937" height="9.53" fill="none" stroke="#ec9440" stroke-width="2.74px"/></g><g transform="matrix(.81206 0 0 1 126.41 .5938)"><path d="m773.83 838.06c-0.024-8.796 11.892-8.573 11.915 0" fill="none" stroke="#ec9440" stroke-width="2.74px"/></g></g><g id="movieEngineLED" transform="matrix(1.32 0 0 1.3164 -109.31 288.58)"><rect x="350.24" y="832.58" width="16.44" height="11.812" fill="none" stroke="#48a8d0" stroke-width="2.88px"/></g><g id="schalter" transform="translate(0 -10.98)"><g transform="matrix(1.32 0 0 1.2163 -109.31 376.4)"><rect x="348.74" y="914.06" width="18.746" height="67.074" stroke="#000" stroke-width="3.5px"/></g><g id="schalter1" transform="translate(20.353 .06064)"><g transform="matrix(1.32 0 0 1.2163 -127.69 377.33)"><rect x="345.41" y="927.32" width="17.92" height="49.023" fill="#323a3d" stroke="#21292c" stroke-width="2.5px"/></g><g transform="matrix(1.32 0 0 1.2163 -127.86 374.85)"><path d="m345.47 936.53h17.865" fill="none" stroke="#21292c" stroke-width="2.5px"/></g><g transform="matrix(1.32 0 0 1.2163 -127.86 385.97)"><path d="m345.47 936.53h17.865" fill="none" stroke="#21292c" stroke-width="2.5px"/></g><g transform="matrix(1.32 0 0 1.2163 -127.86 396.57)"><path d="m345.47 936.53h17.865" fill="none" stroke="#21292c" stroke-width="2.5px"/></g><g transform="matrix(1.32 0 0 1.2163 -127.86 407.45)"><path d="m345.47 936.53h17.865" fill="none" stroke="#21292c" stroke-width="2.5px"/></g><g transform="matrix(1.32 0 0 1.2163 -127.86 416.2)"><path d="m345.47 936.53h17.865" fill="none" stroke="#21292c" stroke-width="2.5px"/></g></g></g><g id="power" transform="matrix(3.3358 -1.1821e-15 9.2371e-16 2.56 -1187.4 -1542.5)"><g transform="matrix(.74223 0 0 .74223 119.22 252.8)"><circle cx="466.64" cy="978.91" r="4.395" fill="none" stroke="#52b332" stroke-width="1.45px"/></g><g transform="matrix(1 9.8608e-32 9.8608e-32 1.2148 -.14312 -210.64)"><path d="m466.41 975.36c0-0.18-0.148-0.326-0.33-0.326h-0.659c-0.182 0-0.33 0.146-0.33 0.326v3.814c0 0.18 0.148 0.326 0.33 0.326h0.659c0.182 0 0.33-0.146 0.33-0.326v-3.814z" fill="#52b332" stroke="#0f1110" stroke-width=".98px"/></g></g><g id="Taster" transform="matrix(.87325 0 0 .77047 46.848 194.99)"><g transform="matrix(1.32 0 0 1.2163 -109.31 376.4)"><rect x="339.73" y="351.83" width="36.299" height="70.307" fill="#2a2e2f" stroke="#000" stroke-width="3.04px"/></g><g transform="matrix(1.32 0 0 1.2163 -109.31 376.4)"><path d="m358.01 381.26v13.467" fill="none" stroke="#323c40" stroke-width="3.04px"/></g><g transform="matrix(1.32 0 0 1.2163 -109.31 376.4)"><path d="m348.86 382.75-4.216 4.891 4.216 5.783" fill="none" stroke="#323c40" stroke-width="3.04px"/></g><g transform="matrix(-1.32 0 0 1.2163 835.95 376.4)"><path d="m348.86 382.75-4.216 4.891 4.216 5.783" fill="none" stroke="#323c40" stroke-width="3.04px"/></g><g transform="matrix(1.32 0 0 1.2163 -109.31 376.4)"><path d="m364.64 386.14v3.894" fill="none" stroke="#323c40" stroke-width="3.04px"/></g><g transform="matrix(1.32 0 0 1.2163 -109.31 376.4)"><path d="m353.22 386.16v3.767" fill="none" stroke="#323c40" stroke-width="3.04px"/></g></g></g></svg>
