<?xml version="1.0" encoding="UTF-8"?>
<!DOCTYPE svg  PUBLIC '-//W3C//DTD SVG 1.1//EN'  'http://www.w3.org/Graphics/SVG/1.1/DTD/svg11.dtd'>
<svg clip-rule="evenodd" fill-rule="evenodd" stroke-linecap="round" stroke-linejoin="round" stroke-miterlimit="1.4142" version="1.1" viewBox="0 0 1280 1150" xmlns="http://www.w3.org/2000/svg"><g id="dir825" transform="translate(-37.741 12.238)"><g id="Antenne-links"><path d="m169.87 133.35-5.622-26.583c-4.654-22.001 20.63-29.734 27.302-6.985l5.129 26.108 33.797 154.72-10.544 13.583-16.755-8.256-33.307-152.59z" fill="#1a1a1a" stroke="#000" stroke-width="1px"/><path d="m199.76 280.61c10.618 1.489 21.468-0.344 32.6-6.186l41.795 149.85 34.957 153.44h-60.411l-27.056-142.13-21.885-154.97z" fill="#1a1a1a" stroke="#000" stroke-width="1px"/><path d="m244.71 554.68c20.259 2.243 39.044-1.725 56.339-11.974" fill="none" stroke="#313131" stroke-linecap="butt" stroke-width="1px"/><g transform="matrix(1.0094 0 0 1.0263 -1.7433 -2.0508)"><path d="m170.36 132.97c9.181-0.296 18.072-2.224 26.608-6.119" fill="none" stroke="#313131" stroke-linecap="butt" stroke-width="1.96px"/></g><path d="m222.38 437.35c18.326 0.469 35.763-3.099 51.901-12.564" fill="none" stroke="#313131" stroke-linecap="butt" stroke-width="2px"/><g transform="matrix(1.008 0 0 1.0246 1.1168 4.7385)"><path d="m222.38 437.35c18.326 0.469 35.763-3.099 51.901-12.564" fill="none" stroke="#313131" stroke-linecap="butt" stroke-width="1.97px"/></g><g transform="matrix(1.0235 0 0 1.0111 .40042 26.439)"><path d="m222.38 437.35c18.326 0.469 35.763-3.099 51.901-12.564" fill="none" stroke="#313131" stroke-linecap="butt" stroke-width="1.97px"/></g><path d="m199.76 280.61c10.618 1.489 21.468-0.344 32.6-6.186l41.795 149.85 34.957 153.44h-60.411l-27.056-142.13-21.885-154.97z" fill="none" stroke="#000" stroke-width="1px"/><path d="m169.87 133.35-5.622-26.583c-4.654-22.001 20.63-29.734 27.302-6.985l5.129 26.108 32.756 149.98c-8.589 3.954-17.63 5.96-27.354 5.014l-32.211-147.53z" fill="none" stroke="#000" stroke-width="1px"/></g><g id="Antenne-links1" transform="matrix(-1 0 0 1 1340.3 0)"><path d="m169.87 133.35-5.622-26.583c-4.654-22.001 20.63-29.734 27.302-6.985l5.129 26.108 33.797 154.72-10.544 13.583-16.755-8.256-33.307-152.59z" fill="#1a1a1a" stroke="#000" stroke-width="1px"/><path d="m199.76 280.61c10.618 1.489 21.468-0.344 32.6-6.186l41.795 149.85 34.957 153.44h-60.411l-27.056-142.13-21.885-154.97z" fill="#1a1a1a" stroke="#000" stroke-width="1px"/><path d="m244.71 554.68c20.259 2.243 39.044-1.725 56.339-11.974" fill="none" stroke="#313131" stroke-linecap="butt" stroke-width="1px"/><g transform="matrix(1.0094 0 0 1.0263 -1.7433 -2.0508)"><path d="m170.36 132.97c9.181-0.296 18.072-2.224 26.608-6.119" fill="none" stroke="#313131" stroke-linecap="butt" stroke-width="1.96px"/></g><path d="m222.38 437.35c18.326 0.469 35.763-3.099 51.901-12.564" fill="none" stroke="#313131" stroke-linecap="butt" stroke-width="2px"/><g transform="matrix(1.008 0 0 1.0246 1.1168 4.7385)"><path d="m222.38 437.35c18.326 0.469 35.763-3.099 51.901-12.564" fill="none" stroke="#313131" stroke-linecap="butt" stroke-width="1.97px"/></g><g transform="matrix(1.0235 0 0 1.0111 .40042 26.439)"><path d="m222.38 437.35c18.326 0.469 35.763-3.099 51.901-12.564" fill="none" stroke="#313131" stroke-linecap="butt" stroke-width="1.97px"/></g><path d="m199.76 280.61c10.618 1.489 21.468-0.344 32.6-6.186l41.795 149.85 34.957 153.44h-60.411l-27.056-142.13-21.885-154.97z" fill="none" stroke="#000" stroke-width="1px"/><path d="m169.87 133.35-5.622-26.583c-4.654-22.001 20.63-29.734 27.302-6.985l5.129 26.108 32.756 149.98c-8.589 3.954-17.63 5.96-27.354 5.014l-32.211-147.53z" fill="none" stroke="#000" stroke-width="1px"/></g><path d="m176.2 600.5-28.322 83.491 13.103-66.51c1.948-9.577 15.219-16.981 15.219-16.981z" fill="#1f1f24" stroke="#000" stroke-width="3px"/><path d="m110.39 815.88 1.333 26.065-11.665-6.355 6.574-18.588 3.758-1.122z" fill="#0d0d0d" stroke="#000" stroke-width="1px"/><g transform="matrix(-1.0589 0 0 1.1346 1371.6 -109.78)"><path d="m110.39 815.88 1.333 26.065-11.665-6.355 6.574-18.588 3.758-1.122z" fill="#0d0d0d" stroke="#000" stroke-width=".91px"/></g><path d="m1168.1 600.22c5.02 1.6 9.35 6.044 12.03 13.191 13.84 36.923 14.96 45.385 15.43 52.408-12.82-21.401-23.83-43.031-27.46-65.599" fill="#1f1f24" stroke="#000" stroke-width="1px"/><g id="Hülle-weis" stroke="#000" stroke-width="3px"><path d="m121 950.99c-2.414-34.727-8.088-80.509-10.398-113-1.221-17.17-0.788-31.579 0-36.612 0.997-6.374 2.027-12.747 4.067-19.068h1132.2c6.51 12.454 9.88 23.406 8.99 32.302l-5.31 118.2c-1.04 23.087-6.32 31.789-23.01 31.789h-1072.2c-19.851-2e-3 -32.637-3.828-34.412-13.612z"/><path d="m233.3 574.52c-26.463 0.178-51.615 7.463-56.26 21.346l-62.369 186.44c-4.215 12.598-0.935 15.16 13.455 15.118 368.76-1.091 739.75-0.071 1108.6 4.396 16.86 0.204 17.33-2.774 10.09-19.514l-80.61-186.44c-7.66-17.721-23.58-23.017-39.98-23.189-298.07-3.139-594.75-0.168-892.92 1.843z" fill="#0d0d0d"/></g><path d="m101.3 913.37c0.627 5.471 16.742 14.188 31.353 14.214 368 5.804 738.34 6.933 1107.3 2.816 13.67-0.152 26.32-9.248 26.56-15.359l4-75.709-26.25 8.278c-367.05 4.445-732.68 3.69-1097.5 0-25.811-0.843-42.467-4.632-45.499-12.807h-4.609l4.609 78.567" fill="#212020" stroke="#000" stroke-width="1px"/><path d="m1256.2 804.51c6.79 11.301 13.75 22.71 14.36 34.823-0.67 9.122-14.62 11.337-28.29 12.418-369.92 4.909-739.72 3.683-1109.4-2.165-22.605-0.357-37.209-10.825-36.114-15.197 3.066-12.244 7.587-22.826 12.63-34.602v18.992c-2.267 3.993-5.299 9.022-4.643 14.613 0.414 3.535 8.735 9.363 28.127 9.586 369.79 4.258 739.6 4.439 1109.4 0 10.54-0.126 20.41-3.279 20.06-7.264-0.63-7.345-4.38-10.509-6.13-14.692v-16.512z" fill="#2b2a2d" stroke="#000" stroke-width="1px"/><g id="Panel"><path d="m1221 854.78v70.137c-356.98 1.352-713.99 0.564-1071-2.998v-67.139c356.98 2.209 713.99 2.083 1071 0z" fill="#1a1c1b"/><g id="wifi-5" transform="translate(84.51 5.3823)"><path d="m583.7 877.35c-4.362 3.501-4.643 6.954 0 10.348" fill="none" stroke="#6dbd48" stroke-width="3px"/><g transform="matrix(1 0 0 1.6552 -4.4233 -577.94)"><path d="m583.7 877.35c-7.035 3.786-5.715 7.172 0 10.348" fill="none" stroke="#6dbd48" stroke-width="2.19px"/></g><g transform="matrix(1 0 0 2.3611 -8.1293 -1200.9)"><path d="m583.7 877.35c-9.015 3.408-8.081 6.862 0 10.348" fill="none" stroke="#6dbd48" stroke-width="1.65px"/></g></g><g id="lan1"><path d="m708.78 902.09h25.05l-4.95-4.355v-2.787c1.956 0 3.267-1.04 3.267-2.964v-11.97c0-2.112-1.299-2.879-3.267-2.879h-16.747c-1.897 0-3.353 1.535-3.353 2.879v11.97c0 1.668 1.57 2.964 3.353 2.964v2.787l-3.353 4.355z" fill="#6dbd48" stroke="#6dbd48" stroke-width=".55px"/><path d="m711.86 895.21 17.297 3e-3v2.395l-17.297 0.03v-2.428z" fill="#5fa83d"/><g transform="matrix(.65007 0 0 .70215 252.21 263.86)"><path d="m712.14 894.94h16.747c1.956 0 3.267-1.04 3.267-2.964v-11.97c0-2.112-1.299-2.879-3.267-2.879h-16.747c-1.897 0-3.353 1.535-3.353 2.879v11.97c0 1.668 1.57 2.964 3.353 2.964z" fill="#221816" stroke="#6dbd48" stroke-width=".81px"/></g><g transform="translate(1.2042 .095066)"><path d="m720.88 882.58v6.801h-1.697v-3.646c0-0.527-0.013-0.843-0.038-0.949-0.025-0.107-0.094-0.187-0.208-0.242-0.113-0.055-0.366-0.082-0.758-0.082h-0.168v-0.794c0.82-0.176 1.444-0.539 1.869-1.088h1z" fill="#6dbd48" fill-rule="nonzero" stroke="#5fa83d" stroke-linecap="butt" stroke-width=".1px"/></g></g><g id="lan2" transform="translate(73.845)"><path d="m708.78 902.09h25.05l-4.95-4.355v-2.787c1.956 0 3.267-1.04 3.267-2.964v-11.97c0-2.112-1.299-2.879-3.267-2.879h-16.747c-1.897 0-3.353 1.535-3.353 2.879v11.97c0 1.668 1.57 2.964 3.353 2.964v2.787l-3.353 4.355z" fill="#6dbd48" stroke="#6dbd48" stroke-width=".55px"/><path d="m711.86 895.21 17.297 3e-3v2.395l-17.297 0.03v-2.428z" fill="#5fa83d"/><g transform="matrix(.65007 0 0 .70215 252.21 263.86)"><path d="m712.14 894.94h16.747c1.956 0 3.267-1.04 3.267-2.964v-11.97c0-2.112-1.299-2.879-3.267-2.879h-16.747c-1.897 0-3.353 1.535-3.353 2.879v11.97c0 1.668 1.57 2.964 3.353 2.964z" fill="#221816" stroke="#6dbd48" stroke-width=".81px"/></g><g transform="translate(1.2042 .095066)"><path d="m721.92 888.22v1.159h-3.735v-0.97c1.107-1.809 1.764-2.929 1.973-3.359 0.208-0.43 0.313-0.765 0.313-1.006 0-0.185-0.032-0.323-0.095-0.414s-0.159-0.136-0.288-0.136-0.224 0.05-0.287 0.151-0.095 0.301-0.095 0.601v0.647h-1.521v-0.248c0-0.381 0.02-0.681 0.059-0.901s0.136-0.436 0.29-0.649 0.354-0.374 0.601-0.483c0.246-0.11 0.542-0.164 0.886-0.164 0.675 0 1.185 0.167 1.531 0.502 0.346 0.334 0.519 0.758 0.519 1.271 0 0.389-0.097 0.801-0.292 1.235-0.194 0.434-0.768 1.355-1.72 2.764h1.861z" fill="#6dbd48" fill-rule="nonzero" stroke="#5fa83d" stroke-linecap="butt" stroke-width=".1px"/></g></g><g id="lan3" transform="translate(143.55)"><path d="m708.78 902.09h25.05l-4.95-4.355v-2.787c1.956 0 3.267-1.04 3.267-2.964v-11.97c0-2.112-1.299-2.879-3.267-2.879h-16.747c-1.897 0-3.353 1.535-3.353 2.879v11.97c0 1.668 1.57 2.964 3.353 2.964v2.787l-3.353 4.355z" fill="#6dbd48" stroke="#6dbd48" stroke-width=".55px"/><path d="m711.86 895.21 17.297 3e-3v2.395l-17.297 0.03v-2.428z" fill="#5fa83d"/><g transform="matrix(.65007 0 0 .70215 252.21 263.86)"><path d="m712.14 894.94h16.747c1.956 0 3.267-1.04 3.267-2.964v-11.97c0-2.112-1.299-2.879-3.267-2.879h-16.747c-1.897 0-3.353 1.535-3.353 2.879v11.97c0 1.668 1.57 2.964 3.353 2.964z" fill="#221816" stroke="#6dbd48" stroke-width=".81px"/></g><g transform="translate(1.2042 .095066)"><path d="m721.45 885.53c0.258 0.087 0.45 0.229 0.576 0.426 0.126 0.198 0.189 0.661 0.189 1.389 0 0.54-0.062 0.96-0.185 1.258s-0.336 0.525-0.638 0.681c-0.303 0.155-0.691 0.233-1.164 0.233-0.538 0-0.96-0.091-1.267-0.271-0.306-0.181-0.508-0.402-0.605-0.664-0.096-0.262-0.144-0.716-0.144-1.363v-0.538h1.697v1.105c0 0.294 0.017 0.481 0.052 0.561s0.113 0.119 0.233 0.119c0.132 0 0.219-0.05 0.261-0.151s0.063-0.364 0.063-0.79v-0.47c0-0.26-0.03-0.451-0.088-0.571-0.059-0.121-0.146-0.2-0.261-0.238-0.115-0.037-0.337-0.059-0.668-0.065v-0.987c0.403 0 0.653-0.015 0.748-0.046s0.164-0.098 0.206-0.202c0.042-0.103 0.063-0.266 0.063-0.487v-0.378c0-0.238-0.025-0.395-0.074-0.471-0.049-0.075-0.125-0.113-0.229-0.113-0.117 0-0.198 0.04-0.241 0.12-0.044 0.079-0.065 0.25-0.065 0.51v0.559h-1.697v-0.58c0-0.65 0.148-1.089 0.445-1.317s0.769-0.342 1.416-0.342c0.809 0 1.358 0.158 1.646 0.474 0.289 0.317 0.433 0.756 0.433 1.319 0 0.381-0.052 0.656-0.155 0.826-0.104 0.169-0.286 0.324-0.547 0.464z" fill="#6dbd48" fill-rule="nonzero" stroke="#5fa83d" stroke-linecap="butt" stroke-width=".1px"/></g></g><g id="lan4" transform="translate(218.04)"><path d="m708.78 902.09h25.05l-4.95-4.355v-2.787c1.956 0 3.267-1.04 3.267-2.964v-11.97c0-2.112-1.299-2.879-3.267-2.879h-16.747c-1.897 0-3.353 1.535-3.353 2.879v11.97c0 1.668 1.57 2.964 3.353 2.964v2.787l-3.353 4.355z" fill="#6dbd48" stroke="#6dbd48" stroke-width=".55px"/><path d="m711.86 895.21 17.297 3e-3v2.395l-17.297 0.03v-2.428z" fill="#5fa83d"/><g transform="matrix(.65007 0 0 .70215 252.21 263.86)"><path d="m712.14 894.94h16.747c1.956 0 3.267-1.04 3.267-2.964v-11.97c0-2.112-1.299-2.879-3.267-2.879h-16.747c-1.897 0-3.353 1.535-3.353 2.879v11.97c0 1.668 1.57 2.964 3.353 2.964z" fill="#221816" stroke="#6dbd48" stroke-width=".81px"/></g><g transform="translate(1.2042 .095066)"><path d="m721.72 882.58v4.445h0.484v1.159h-0.484v1.197h-1.697v-1.197h-2.016v-1.159l1.466-4.445h2.247zm-1.697 4.445v-2.895l-0.747 2.895h0.747z" fill="#6dbd48" fill-rule="nonzero" stroke="#5fa83d" stroke-linecap="butt" stroke-width=".1px"/></g></g><g id="Globe" transform="translate(175.38 -.35769)"><g transform="matrix(.90867 0 0 1 39.854 0)"><ellipse cx="430.36" cy="888.68" rx="17.566" ry="15.305" fill="#6dbd48" stroke="#6dbd48" stroke-width="1.05px"/></g><path d="m436.47 886.42h5.937v1.516h-4.761l-2.33 2.251 4.747 4.699h2.344l1.321-3.159v-7.896l-2.15-2.702-5.108 5.291z" fill="#221815"/><path d="m422.18 888.05 1.711-1.965 1.866-0.821 2.721-2.674 0.595-2.811-3.316 0.527-3.577-1.764-2.67 4.048 1.045 3.495 1.625 1.965z" fill="#221815"/><path d="m426.64 888.72 3.366 2.798-1.558 6.43-1.808-0.588v-3.341l-3.035-2.501 3.035-2.798z" fill="#221815"/></g><g id="Power" transform="translate(65.18)" stroke="#6dbd48"><path d="m350.11 880.78c-5.564 4.804-2.185 15.455 3.582 17.129 2.933 0.851 5.837 1.06 8.683 0 7.882-2.935 9.889-12.38 4.313-17.129" fill="none" stroke-width="3px"/><path d="m358.25 875.58v13.69" fill="#6dbd48" stroke-width="5.5px"/></g><g id="USB"><ellipse cx="1001.2" cy="888.58" rx="3.679" ry="3.487" fill="#6dbd48" stroke="#6dbd48" stroke-width=".5px"/><g transform="matrix(1.0593 0 0 2.2873 -59.758 -1145.2)"><path d="m1004.1 889.67v-0.98h16.23v-0.981l3.53 1.471-3.53 1.471v-0.981h-16.23z" fill="#6dbd48" stroke="#6dbd48" stroke-width=".28px"/></g><g transform="translate(-.42636)"><ellipse cx="1020" cy="880.37" rx="2.168" ry="2.058" fill="#6dbd48" stroke="#6dbd48" stroke-width=".5px"/></g><g transform="matrix(.82732 0 0 .82732 175.88 155.16)"><rect x="1018.2" y="895.71" width="4.584" height="4.584" fill="#6dbd48" stroke="#6dbd48" stroke-width=".6px"/></g><path d="m1019.6 880.41h-5.89c-2.89 0-6 4.29-5.97 7.739" fill="none" stroke="#6dbd48" stroke-width="1.5px"/><path d="m1007.8 889.5c0.13 2.565 3.39 8.487 7.14 8.487h5.62" fill="none" stroke="#6dbd48" stroke-width="1.5px"/></g><g transform="matrix(1.05 0 0 1 -57.081 -.72465)" fill="#fff" fill-rule="nonzero"><path id="dir-615" d="m1149.8 883.9h3.75c0.84 0 1.49 0.065 1.93 0.194 0.59 0.175 1.1 0.487 1.53 0.934 0.42 0.448 0.75 0.996 0.97 1.644s0.33 1.447 0.33 2.398c0 0.835-0.1 1.555-0.31 2.159-0.26 0.739-0.62 1.336-1.09 1.793-0.35 0.346-0.83 0.616-1.44 0.81-0.45 0.143-1.05 0.214-1.81 0.214h-3.86v-10.146zm2.05 1.716v6.721h1.53c0.57 0 0.99-0.033 1.24-0.097 0.33-0.083 0.61-0.224 0.83-0.422 0.22-0.199 0.4-0.525 0.53-0.98 0.14-0.454 0.21-1.074 0.21-1.858s-0.07-1.387-0.21-1.806c-0.13-0.42-0.33-0.748-0.58-0.983-0.25-0.236-0.56-0.395-0.95-0.478-0.28-0.064-0.84-0.097-1.68-0.097h-0.92z"/><rect x="1159.9" y="883.9" width="2.049" height="10.146"/><path d="m1163.9 894.05v-10.146h4.31c1.09 0 1.88 0.091 2.37 0.273 0.49 0.183 0.88 0.507 1.18 0.973 0.29 0.466 0.44 0.999 0.44 1.598 0 0.762-0.22 1.39-0.67 1.886s-1.12 0.809-2.01 0.938c0.45 0.259 0.81 0.542 1.1 0.852 0.29 0.309 0.68 0.858 1.17 1.647l1.23 1.979h-2.45l-1.48-2.208c-0.52-0.789-0.88-1.286-1.08-1.491-0.19-0.205-0.4-0.346-0.61-0.422-0.22-0.076-0.56-0.115-1.03-0.115h-0.42v4.236h-2.05zm2.05-5.855h1.52c0.98 0 1.59-0.042 1.84-0.125 0.24-0.083 0.43-0.226 0.57-0.429s0.21-0.457 0.21-0.761c0-0.341-0.09-0.617-0.27-0.827-0.19-0.21-0.44-0.343-0.78-0.398-0.16-0.023-0.66-0.035-1.49-0.035h-1.6v2.575z"/><rect x="1173.9" y="889.4" width="3.82" height="1.945"/><path d="m1185 886.38-1.88 0.207c-0.05-0.387-0.17-0.673-0.36-0.858s-0.45-0.277-0.76-0.277c-0.41 0-0.75 0.185-1.04 0.554-0.28 0.369-0.46 1.137-0.53 2.305 0.48-0.573 1.08-0.859 1.8-0.859 0.82 0 1.51 0.309 2.09 0.928 0.58 0.618 0.87 1.416 0.87 2.394 0 1.039-0.31 1.871-0.92 2.499-0.61 0.627-1.39 0.941-2.34 0.941-1.03 0-1.87-0.398-2.53-1.194s-0.99-2.1-0.99-3.914c0-1.859 0.35-3.199 1.03-4.021 0.69-0.821 1.58-1.232 2.68-1.232 0.77 0 1.41 0.216 1.92 0.648 0.5 0.431 0.82 1.057 0.96 1.879zm-4.41 4.242c0 0.632 0.15 1.12 0.44 1.464s0.62 0.516 1 0.516c0.35 0 0.66-0.141 0.9-0.423 0.23-0.281 0.36-0.742 0.36-1.384 0-0.66-0.13-1.143-0.39-1.45s-0.58-0.46-0.97-0.46c-0.38 0-0.69 0.146-0.95 0.439s-0.39 0.726-0.39 1.298z"/><path d="m1191.3 894.05h-1.94v-7.329c-0.71 0.664-1.55 1.156-2.52 1.474v-1.765c0.51-0.166 1.06-0.481 1.66-0.945 0.59-0.463 1-1.004 1.22-1.623h1.58v10.188z"/><path d="m1194.3 891.44 1.93-0.201c0.06 0.439 0.22 0.786 0.49 1.042 0.28 0.256 0.59 0.384 0.95 0.384 0.4 0 0.75-0.165 1.03-0.495s0.42-0.827 0.42-1.491c0-0.623-0.14-1.09-0.42-1.402-0.28-0.311-0.64-0.467-1.09-0.467-0.56 0-1.06 0.247-1.5 0.74l-1.58-0.228 1-5.281h5.14v1.821h-3.67l-0.3 1.723c0.43-0.217 0.87-0.325 1.33-0.325 0.86 0 1.59 0.313 2.19 0.941 0.6 0.627 0.9 1.442 0.9 2.443 0 0.835-0.24 1.58-0.73 2.235-0.66 0.896-1.57 1.343-2.74 1.343-0.94 0-1.7-0.251-2.29-0.754-0.6-0.503-0.95-1.179-1.06-2.028z"/></g><g transform="matrix(1.05 0 0 .69 47.879 276.59)" fill="#fff" fill-rule="nonzero"><path d="m183.52 869.92h5.502c3.552 0 5.954 0.163 7.206 0.489s2.204 0.862 2.856 1.607c0.652 0.746 1.059 1.575 1.222 2.489 0.163 0.915 0.245 2.711 0.245 5.389v9.904c0 2.539-0.119 4.236-0.358 5.092s-0.655 1.526-1.249 2.009-1.328 0.821-2.201 1.013-2.189 0.288-3.948 0.288h-9.275v-28.28zm7.354 4.839v18.603c1.059 0 1.712-0.213 1.956-0.638 0.245-0.425 0.367-1.581 0.367-3.467v-10.987c0-1.281-0.041-2.102-0.122-2.463-0.082-0.361-0.268-0.626-0.559-0.795s-0.839-0.253-1.642-0.253z"/><rect x="202.45" y="884.17" width="9.275" height="4.874"/><path d="m221.18 869.92v22.621h4.472v5.659h-11.826v-28.28h7.354z"/><path d="m234.49 869.92v3.686h-7.267v-3.686h7.267zm0 5.101v23.179h-7.267v-23.179h7.267z"/><path d="m244.2 875.02-0.122 2.131c0.512-0.85 1.138-1.488 1.877-1.913 0.74-0.425 1.593-0.638 2.559-0.638 1.212 0 2.201 0.286 2.97 0.856 0.769 0.571 1.264 1.29 1.485 2.158 0.221 0.867 0.332 2.314 0.332 4.34v16.245h-7.057v-16.052c0-1.596-0.053-2.568-0.158-2.918-0.104-0.349-0.395-0.524-0.873-0.524-0.501 0-0.815 0.201-0.943 0.603s-0.192 1.476-0.192 3.223v15.668h-7.057v-23.179h7.179z"/><path d="m270.92 875.02-2.865 9.24 3.721 13.939h-6.795l-2.201-10.096v10.096h-7.057v-28.28h7.057v11.878l2.201-6.777h5.939z"/></g></g></g></svg>
