<svg xmlns="http://www.w3.org/2000/svg" viewBox="0 0 1600 1437.5" height="1437.5" width="1600"><path d="M165.156 181.975l-7.027-33.225c-5.818-27.5 25.787-37.162 34.127-8.725l6.411 32.625 42.247 193.409-13.18 16.98-20.944-10.32-41.634-190.744z" fill="#1a1a1a" fill-rule="evenodd" stroke="#000" stroke-miterlimit="10" stroke-width="1.25"/><path d="M202.526 366.059c13.273 1.862 26.835-.429 40.75-7.733l52.244 187.311 43.696 191.795h-75.514l-33.82-177.657-27.356-193.716z" fill="#1a1a1a" fill-rule="evenodd" stroke="#000" stroke-miterlimit="10" stroke-width="1.25"/><path d="M258.71 708.641c25.324 2.804 48.805-2.156 70.424-14.967" fill="none" stroke="#313131" stroke-miterlimit="10" stroke-width="1.25"/><path d="M165.604 183.313c11.583-.375 22.802-2.85 33.572-7.85M230.796 561.99c22.908.586 44.704-3.874 64.876-15.705M234.414 581.355c23.091.601 45.061-3.969 65.394-16.091M237.841 601.086c23.448.594 45.756-3.916 66.404-15.878" fill="none" stroke="#313131" stroke-width="2.5" stroke-miterlimit="10"/><path d="M202.526 366.059c13.273 1.862 26.835-.429 40.75-7.733l52.244 187.311 43.696 191.795h-75.514l-33.82-177.657-27.356-193.716z" fill="none" stroke="#000" stroke-miterlimit="10" stroke-width="1.25"/><path d="M165.156 181.975l-7.027-33.225c-5.818-27.5 25.787-37.162 34.127-8.725l6.411 32.625 40.945 187.476c-10.736 4.943-22.037 7.45-34.192 6.268l-40.264-184.419z" fill="none" stroke="#000" stroke-miterlimit="10" stroke-width="1.25"/><path d="M1415.888 181.975l7.037-33.225c5.813-27.5-25.787-37.162-34.137-8.725l-6.413 32.625-42.237 193.409 13.175 16.98 20.95-10.32 41.625-190.744z" fill="#1a1a1a" fill-rule="evenodd" stroke="#000" stroke-miterlimit="10" stroke-width="1.25"/><path d="M1378.525 366.059c-13.275 1.862-26.838-.429-40.75-7.733l-52.25 187.311-43.693 191.795h75.518l33.812-177.657 27.363-193.716z" fill="#1a1a1a" fill-rule="evenodd" stroke="#000" stroke-miterlimit="10" stroke-width="1.25"/><path d="M1322.337 708.641c-25.325 2.804-48.8-2.156-70.425-14.967" fill="none" stroke="#313131" stroke-miterlimit="10" stroke-width="1.25"/><path d="M1415.45 183.313c-11.588-.375-22.813-2.85-33.575-7.85M1350.25 561.99c-22.9.586-44.7-3.874-64.875-15.705M1346.637 581.355c-23.1.601-45.062-3.969-65.4-16.091M1343.212 601.086c-23.45.594-45.762-3.916-66.412-15.878" fill="none" stroke="#313131" stroke-width="2.5" stroke-miterlimit="10"/><path d="M1378.525 366.059c-13.275 1.862-26.838-.429-40.75-7.733l-52.25 187.311-43.693 191.795h75.518l33.812-177.657 27.363-193.716z" fill="none" stroke="#000" stroke-miterlimit="10" stroke-width="1.25"/><path d="M1415.888 181.975l7.037-33.225c5.813-27.5-25.787-37.162-34.137-8.725l-6.413 32.625-40.938 187.476c10.738 4.943 22.038 7.45 34.188 6.268l40.263-184.419z" fill="none" stroke="#000" stroke-miterlimit="10" stroke-width="1.25"/><path d="M173.07 765.923l-35.402 104.363 16.378-83.137c2.435-11.971 19.024-21.226 19.024-21.226z" fill="#1f1f24" fill-rule="evenodd" stroke="#000" stroke-width="3.75" stroke-miterlimit="10"/><path d="M90.807 1035.142l1.667 32.582-14.581-7.945 8.216-23.234 4.698-1.403zM1521.163 1035.142l-1.763 36.965 15.438-9.013-8.7-26.362-4.975-1.59z" fill="#0d0d0d" fill-rule="evenodd" stroke="#000" stroke-miterlimit="10" stroke-width="1.25"/><path d="M1412.912 765.565c6.275 2 11.688 7.556 15.038 16.49 17.3 46.153 18.7 56.73 19.287 65.51-16.025-26.751-29.787-53.789-34.325-82" fill="#1f1f24" fill-rule="evenodd" stroke="#000" stroke-miterlimit="10" stroke-width="1.25"/><path d="M104.072 1204.03c-3.016-43.409-10.109-100.636-12.997-141.252-1.526-21.463-.984-39.474 0-45.766 1.246-7.967 2.534-15.933 5.083-23.835H1511.45c8.137 15.568 12.35 29.257 11.238 40.378l-6.638 147.752c-1.3 28.86-7.9 39.738-28.775 39.738H147.087c-24.813-.003-40.795-4.785-43.015-17.015z" fill-rule="evenodd" stroke="#000" stroke-width="3.75" stroke-miterlimit="10"/><path d="M244.445 733.446c-33.079.224-64.519 9.329-70.325 26.684L96.158 993.178c-5.268 15.747-1.168 18.95 16.82 18.896 460.953-1.364 924.687-.089 1385.747 5.496 21.075.255 21.662-3.469 12.613-24.392L1410.574 760.13c-9.575-22.151-29.475-28.771-49.975-28.988-372.59-3.922-743.436-.208-1116.155 2.304z" fill="#0d0d0d" fill-rule="evenodd" stroke="#000" stroke-width="3.75" stroke-miterlimit="10"/><path d="M79.447 1157.014c.783 6.839 20.926 17.736 39.19 17.769 460.002 7.253 922.93 8.666 1384.175 3.52 17.088-.192 32.888-11.56 33.2-19.2l5-94.636-32.812 10.348c-458.814 5.556-915.85 4.612-1371.88 0-32.263-1.054-53.084-5.79-56.873-16.009h-5.762l5.762 98.208" fill="#212020" fill-rule="evenodd" stroke="#000" stroke-miterlimit="10" stroke-width="1.25"/><path d="M1523.063 1020.939c8.474 14.126 17.187 28.386 17.95 43.529-.838 11.4-18.275 14.17-35.375 15.522-462.387 6.135-924.644 4.603-1386.797-2.706-28.257-.447-46.511-13.533-45.143-18.998 3.833-15.303 9.484-28.531 15.789-43.251v23.739c-2.835 4.992-6.625 11.279-5.805 18.267.518 4.419 10.919 11.704 35.159 11.983 462.24 5.322 924.506 5.547 1386.797 0 13.187-.158 25.512-4.099 25.087-9.08-.787-9.183-5.475-13.136-7.662-18.366v-20.64z" fill="#2b2a2d" fill-rule="evenodd" stroke="#000" stroke-miterlimit="10" stroke-width="1.25"/><path d="M1479.1 1083.767v87.67c-446.215 1.692-892.474.706-1338.783-3.747v-83.923c446.223 2.762 892.488 2.604 1338.783 0z" fill="#1a1c1b" fill-rule="evenodd"/><path d="M788.09 1118.713c-5.451 4.376-5.804 8.692 0 12.935M782.561 1114.874c-8.794 7.833-7.144 14.84 0 21.411M777.929 1110.29c-11.269 10.061-10.1 20.254 0 30.541" fill="none" stroke="#6dbd48" stroke-width="3.75" stroke-miterlimit="10"/><path d="M838.803 1142.904h31.312l-6.188-5.443v-3.484c2.445 0 4.084-1.3 4.084-3.705v-14.962c0-2.641-1.623-3.599-4.083-3.599h-20.934c-2.372 0-4.192 1.918-4.192 3.599v14.962c0 2.085 1.963 3.705 4.192 3.705v3.484l-4.192 5.443z" fill="#6dbd48" fill-rule="evenodd" stroke="#6dbd48" stroke-width=".6875" stroke-miterlimit="10"/><path d="M842.65 1134.309l21.621.004v2.992l-21.621.039v-3.035z" fill="#5fa83d" fill-rule="evenodd"/><path d="M846.757 1130.605h13.61c1.588 0 2.653-.912 2.653-2.601v-10.506c0-1.854-1.056-2.527-2.654-2.527h-13.609c-1.54 0-2.725 1.347-2.725 2.527v10.506c0 1.464 1.275 2.601 2.725 2.601z" fill="#221816" fill-rule="evenodd" stroke="#6dbd48" stroke-width=".6875" stroke-miterlimit="10"/><text style="-inkscape-font-specification:Impact" transform="matrix(1.25 0 0 1.25 851.774 1127.142)" font-weight="400" font-size="8.603" font-family="Impact" fill="#6dbd48" stroke="#5fa83d" stroke-width=".1" stroke-miterlimit="10"><tspan y="0" x="0">1</tspan></text><path d="M931.109 1142.904h31.312l-6.187-5.443v-3.484c2.445 0 4.083-1.3 4.083-3.705v-14.962c0-2.641-1.623-3.599-4.083-3.599H935.3c-2.371 0-4.191 1.918-4.191 3.599v14.962c0 2.085 1.962 3.705 4.191 3.705v3.484l-4.191 5.443z" fill="#6dbd48" fill-rule="evenodd" stroke="#6dbd48" stroke-width=".6875" stroke-miterlimit="10"/><path d="M934.956 1134.309l21.622.004v2.992l-21.622.039v-3.035z" fill="#5fa83d" fill-rule="evenodd"/><path d="M939.063 1130.605h13.608c1.59 0 2.655-.912 2.655-2.601v-10.506c0-1.854-1.056-2.527-2.655-2.527h-13.609c-1.54 0-2.723 1.347-2.723 2.527v10.506c0 1.464 1.275 2.601 2.723 2.601z" fill="#221816" fill-rule="evenodd" stroke="#6dbd48" stroke-width=".6875" stroke-miterlimit="10"/><text style="-inkscape-font-specification:Impact" transform="matrix(1.25 0 0 1.25 944.08 1127.142)" font-weight="400" font-size="8.603" font-family="Impact" fill="#6dbd48" stroke="#5fa83d" stroke-width=".1" stroke-miterlimit="10"><tspan y="0" x="0">2</tspan></text><path d="M1018.238 1142.904h31.312l-6.186-5.443v-3.484c2.445 0 4.082-1.3 4.082-3.705v-14.962c0-2.641-1.623-3.599-4.082-3.599h-20.935c-2.37 0-4.191 1.918-4.191 3.599v14.962c0 2.085 1.962 3.705 4.19 3.705v3.484l-4.19 5.443z" fill="#6dbd48" fill-rule="evenodd" stroke="#6dbd48" stroke-width=".6875" stroke-miterlimit="10"/><path d="M1022.085 1134.309l21.622.004v2.992l-21.622.039v-3.035z" fill="#5fa83d" fill-rule="evenodd"/><path d="M1026.192 1130.605h13.61c1.588 0 2.653-.912 2.653-2.601v-10.506c0-1.854-1.055-2.527-2.654-2.527h-13.608c-1.542 0-2.726 1.347-2.726 2.527v10.506c0 1.464 1.277 2.601 2.725 2.601z" fill="#221816" fill-rule="evenodd" stroke="#6dbd48" stroke-width=".6875" stroke-miterlimit="10"/><text style="-inkscape-font-specification:Impact" transform="matrix(1.25 0 0 1.25 1031.209 1127.142)" font-weight="400" font-size="8.603" font-family="Impact" fill="#6dbd48" stroke="#5fa83d" stroke-width=".1" stroke-miterlimit="10"><tspan y="0" x="0">3</tspan></text><path d="M1111.349 1142.904h31.311l-6.186-5.443v-3.484c2.445 0 4.083-1.3 4.083-3.705v-14.962c0-2.641-1.625-3.599-4.083-3.599h-20.935c-2.37 0-4.19 1.918-4.19 3.599v14.962c0 2.085 1.962 3.705 4.19 3.705v3.484l-4.19 5.443z" fill="#6dbd48" fill-rule="evenodd" stroke="#6dbd48" stroke-width=".6875" stroke-miterlimit="10"/><path d="M1115.195 1134.309l21.622.004v2.992l-21.622.039v-3.035z" fill="#5fa83d" fill-rule="evenodd"/><path d="M1119.303 1130.605h13.608c1.59 0 2.655-.912 2.655-2.601v-10.506c0-1.854-1.056-2.527-2.655-2.527h-13.608c-1.542 0-2.726 1.347-2.726 2.527v10.506c0 1.464 1.277 2.601 2.726 2.601z" fill="#221816" fill-rule="evenodd" stroke="#6dbd48" stroke-width=".6875" stroke-miterlimit="10"/><text style="-inkscape-font-specification:Impact" transform="matrix(1.25 0 0 1.25 1124.319 1127.142)" font-weight="400" font-size="8.603" font-family="Impact" fill="#6dbd48" stroke="#5fa83d" stroke-width=".1" stroke-miterlimit="10"><tspan y="0" x="0">4</tspan></text><path d="M710.69 1106.563c11.013 0 19.953 8.572 19.953 19.13 0 10.56-8.94 19.132-19.953 19.132-11.011 0-19.951-8.573-19.951-19.131 0-10.559 8.94-19.132 19.951-19.132z" fill="#6dbd48" fill-rule="evenodd" stroke="#6dbd48" stroke-miterlimit="10" stroke-width="1.25"/><path d="M717.644 1122.87h7.421v1.895h-5.953l-2.91 2.814 5.932 5.873h2.931l1.651-3.948v-9.87l-2.687-3.378-6.385 6.614zM699.773 1124.912l2.138-2.456 2.333-1.025 3.402-3.344.743-3.513-4.145.658-4.472-2.205-3.336 5.06 1.306 4.37 2.03 2.455zM705.353 1125.749l4.207 3.497-1.947 8.038-2.26-.735v-4.177l-3.794-3.126 3.794-3.497z" fill="#221815" fill-rule="evenodd"/><path d="M471.934 1116.276c-6.956 6.006-2.731 19.32 4.476 21.411 3.666 1.066 7.296 1.327 10.855 0 9.851-3.668 12.361-15.473 5.391-21.41" fill="none" stroke="#6dbd48" stroke-width="3.75" stroke-miterlimit="10"/><path d="M482.106 1109.771v17.112" fill="#6dbd48" fill-rule="evenodd" stroke="#6dbd48" stroke-width="6.875" stroke-miterlimit="10"/><path d="M1204.375 1121.664c2.539 0 4.6 1.953 4.6 4.358 0 2.407-2.061 4.36-4.6 4.36-2.537 0-4.599-1.953-4.599-4.36 0-2.404 2.061-4.358 4.599-4.358z" fill="#6dbd48" fill-rule="evenodd" stroke="#6dbd48" stroke-width=".625" stroke-miterlimit="10"/><path d="M1207.649 1127.428v-2.804h21.484v-2.803l4.672 4.205-4.673 4.204v-2.803h-21.483zM1227.346 1113.188c1.495 0 2.709 1.152 2.709 2.572 0 1.42-1.214 2.572-2.709 2.572-1.496 0-2.71-1.152-2.71-2.572 0-1.42 1.214-2.572 2.71-2.572zM1225.66 1140.276h4.741v-4.74h-4.741v4.74z" fill="#6dbd48" fill-rule="evenodd" stroke="#6dbd48" stroke-width=".625" stroke-miterlimit="10"/><path d="M1227.389 1115.813h-7.364c-3.609 0-7.505 5.362-7.464 9.672M1212.561 1127.171c.165 3.206 4.239 10.609 8.92 10.609h7.03" fill="none" stroke="#6dbd48" stroke-width="1.875" stroke-miterlimit="10"/><text style="-inkscape-font-specification:Arial-BoldMT" transform="matrix(1.28011 0 0 1.21915 1389.19 1131.946)" font-weight="700" font-size="14.533" font-family="Arial" fill="#fff"><tspan y="0" x="0 10.495661 14.5329 25.028561 29.869469 37.952667 46.035866">DIR-615</tspan></text><text style="-inkscape-font-specification:Impact" transform="matrix(1.47734 0 0 .97082 251.611 1135.729)" font-weight="400" font-size="31.783" font-family="Impact" fill="#fff"><tspan y="0" x="0 17.566242 26.92304 39.013142 47.718395 64.337517">D-Link</tspan></text></svg>