<svg xmlns="http://www.w3.org/2000/svg" viewBox="0 0 1600 1437.5" height="1437.5" width="1600"><g fill-rule="evenodd" stroke="#000" stroke-width="3" stroke-miterlimit="10"><path d="M412.434 208.348c-64.691 0-114 48.148-114 99.835v864.034c0 58.44 26.646 77.133 77.134 77.133h807.12c47.166 0 77.137-19.346 77.137-77.133V308.183c0-69.72-34.001-99.835-99.838-99.835H412.434z" fill="#fff" stroke-width="3.75"/><path d="M1159.987 240.91c40.794 0 67.272 14.029 67.272 67.272v871.124c0 24.399-8.664 41.915-41.914 41.915H375.729c-30.718 0-41.915-16.055-41.915-41.915V308.182c0-38.098 37.275-67.272 76.65-67.272h749.524z" fill="#fff" stroke-width="3.75"/><path d="M1108.496 1094.197a7.594 7.594 0 0 0-7.59-7.59h-47.445a7.594 7.594 0 0 0-7.59 7.59v67.67a7.594 7.594 0 0 0 7.59 7.59h47.445a7.594 7.594 0 0 0 7.59-7.59v-67.67z" fill="#090909" stroke-width="3.75"/></g></svg>