<?xml version="1.0" encoding="UTF-8"?>
<!DOCTYPE svg  PUBLIC '-//W3C//DTD SVG 1.1//EN'  'http://www.w3.org/Graphics/SVG/1.1/DTD/svg11.dtd'>
<svg clip-rule="evenodd" fill-rule="evenodd" stroke-linecap="round" stroke-linejoin="round" stroke-miterlimit="1.4142" version="1.1" viewBox="0 0 1280 1150" xmlns="http://www.w3.org/2000/svg"><g id="Antenne rechts"><g transform="matrix(1.0289 0 0 .89626 -24.388 42.81)"><rect x="824.25" y="373.01" width="30.241" height="36.613" fill="#0e0e0e" stroke="#252525" stroke-width=".83px"/></g><path d="m837.28 402.88v-24.163h3.566v24.163h-3.566" fill="#d9d9d9" stroke="#7a7a7a" stroke-width=".8px"/><path d="m828.09 142.6v-12.952h20.469v12.952h-20.469" fill="#4d4d4d" stroke="#252525" stroke-opacity=".99216" stroke-width=".8px"/><path d="m830.92 413.1v-27.677h4.737v15.167h7.35v-15.167h5.312v27.677h-17.399z" fill="#4d4d4d" stroke="#252525" stroke-opacity=".99216" stroke-width=".8px"/><path d="m823.72 409.94c3.371 0 5.744-2.109 5.744-9.348v-20.192h20.9v20.192c0 7.382 1.665 9.348 4.479 9.348v-87.317l-4.479-78.168v-102.69c-8.045-3.647-16.124-3.346-24.227 0v102.69l-2.417 78.168v87.317z" fill="#4d4d4d" stroke="#252525" stroke-opacity=".99216" stroke-width=".8px"/><g transform="translate(0 1.4411)"><path d="m829.46 378.96h20.9c0-5.587-3.299-8.686-10.212-8.712-7.442-0.029-10.579 3.303-10.688 8.712" fill="#585858" stroke="#252525" stroke-width=".8px"/></g><g transform="translate(0 -4.2333)"><path d="m826.14 137.59v-20.092c0-4.218 5.579-9.407 13.159-9.452 7.061-0.042 11.068 4.919 11.068 9.452v20.092c-7.857-3.763-15.95-3.453-24.227 0z" fill="#4d4d4d" stroke="#252525" stroke-opacity=".99216" stroke-width=".8px"/></g><path d="m850.36 135.79v2.548c-8.366-3.053-16.362-2.694-24.105 0v-2.548c8.616-3.189 16.635-3.102 24.105 0" fill="#4d4d4d" stroke="#252525" stroke-opacity=".99216" stroke-width=".8px"/><path d="m823.67 432.66 31.578 4.079v-23.883c-10.544-4.648-21.071-4.948-31.578 0v19.804" fill="#4d4d4d" stroke="#252525" stroke-opacity=".99216" stroke-width=".8px"/></g><g id="Antenne links" transform="translate(-441.44)"><g transform="matrix(1.0289 0 0 .89626 -24.388 42.81)"><rect x="824.25" y="373.01" width="30.241" height="36.613" fill="#0e0e0e" stroke="#252525" stroke-width=".83px"/></g><path d="m837.28 402.88v-24.163h3.566v24.163h-3.566" fill="#d9d9d9" stroke="#7a7a7a" stroke-width=".8px"/><path d="m828.09 142.6v-12.952h20.469v12.952h-20.469" fill="#4d4d4d" stroke="#252525" stroke-opacity=".99216" stroke-width=".8px"/><path d="m830.92 413.1v-27.677h4.737v15.167h7.35v-15.167h5.312v27.677h-17.399z" fill="#4d4d4d" stroke="#252525" stroke-opacity=".99216" stroke-width=".8px"/><path d="m823.72 409.94c3.371 0 5.744-2.109 5.744-9.348v-20.192h20.9v20.192c0 7.382 1.665 9.348 4.479 9.348v-87.317l-4.479-78.168v-102.69c-8.045-3.647-16.124-3.346-24.227 0v102.69l-2.417 78.168v87.317z" fill="#4d4d4d" stroke="#252525" stroke-opacity=".99216" stroke-width=".8px"/><g transform="translate(0 1.4411)"><path d="m829.46 378.96h20.9c0-5.587-3.299-8.686-10.212-8.712-7.442-0.029-10.579 3.303-10.688 8.712" fill="#585858" stroke="#252525" stroke-width=".8px"/></g><g transform="translate(0 -4.2333)"><path d="m826.14 137.59v-20.092c0-4.218 5.579-9.407 13.159-9.452 7.061-0.042 11.068 4.919 11.068 9.452v20.092c-7.857-3.763-15.95-3.453-24.227 0z" fill="#4d4d4d" stroke="#252525" stroke-opacity=".99216" stroke-width=".8px"/></g><path d="m850.36 135.79v2.548c-8.366-3.053-16.362-2.694-24.105 0v-2.548c8.616-3.189 16.635-3.102 24.105 0" fill="#4d4d4d" stroke="#252525" stroke-opacity=".99216" stroke-width=".8px"/><path d="m823.67 432.66 31.578-3.997v-15.807c-10.544-4.648-21.071-4.948-31.578 0v19.804" fill="#4d4d4d" stroke="#252525" stroke-opacity=".99216" stroke-width=".8px"/></g><path d="m395.52 986.37c159.56 28.329 314.67 26.769 466.04 0 27.11-4.794 50.189-35.616 64.203-79.493 39.392-123.33 65.539-247.23 66.593-372.19 0.448-53.183-18.701-79.862-66.593-88.48-211.16-31.762-421.41-40.329-632.04 0-44.997 8.616-51.805 47.105-51.712 88.48 0.29 128.08 22.407 251.89 62.449 372.19 19.695 59.17 46.349 71.556 91.06 79.493z" fill="#1a1a1a" stroke="#000" stroke-width="3px"/><path d="m433.3 979.19c113.81 13.535 227.19 8.902 341.28 7.177 63.918-0.966 68.391-46.348 100.06-235.16 8.133-55.735 12.117-110.79 9.144-164.56-3.523-63.706-50.901-87.021-117.21-92.509-131.88-10.916-225.22-9.47-293.56 0-87.509 12.125-118.25 14.69-126.2 92.509-5.929 57.993-8.134 123.4 0 164.56 34.137 172.74 38.431 222.26 86.49 227.98z" fill="#0d0d0d" stroke="#000" stroke-width="3px"/><path d="m442.33 893.82c113.16-0.511 226.34 0.78 339.56 5.213 15.78 0.618 24.317 5.457 20.016 18.311-2.943 8.797-6.813 17.443-12.572 25.783-7.304 10.578-17.675 14.461-31.936 15.403-92.72 6.119-185.45 3.807-278.18-3.846-19.115-1.578-35.544-1.501-43.492-11.557-8.633-10.922-15.072-22.793-16.582-36.793-2.256-7.204 3.081-12.423 23.181-12.514z" fill="#252525" fill-opacity=".90196" stroke="#000" stroke-width=".8px"/><g id="wifi" fill="none" stroke="#00d4cf" stroke-opacity=".99216" stroke-width=".8px"><path d="m656.81 927.32c7.209-6.256 13.434-6.734 18.676-1.434"/><path d="m660.28 932.19c3.733-4.505 7.922-5.853 12.867-1.948"/><path d="m663.2 935.81c2.753-3.205 5.105-3.877 6.9-1.024"/></g><g id="lan LED"><g transform="translate(62.967 1.2277)"><path d="m487.35 931.63h4.819v1.477l4.903 0.477v2.283h-15.19v-2.283l5.468-0.477v-1.477" fill="#00d4cf" fill-opacity=".90196"/><path d="m495.46 928.83c2.041-0.019 2.811-0.889 2.811-2.694v-6.474c0-2.198-0.015-3.582-2.811-3.582h-11.129c-2.735 0-2.842 0.784-2.842 3.582v6.474c0 1.749 1.009 2.681 2.842 2.694" fill="none" stroke="#00d4cf" stroke-width=".8px"/><g transform="translate(-62.967 -1.2277)"><path d="m550.96 921.24c-2.382 4.877-0.351 6.056 4.285 5.052v-5.052 8.814" fill="none" stroke="#00d4cf" stroke-opacity=".99216" stroke-width=".8px"/></g></g><g transform="translate(31.366 .12358)"><path d="m487.35 931.63h4.819v1.477l4.903 0.477v2.283h-15.19v-2.283l5.468-0.477v-1.477" fill="#00d4cf" fill-opacity=".90196"/><path d="m495.46 928.83c2.041-0.019 2.811-0.889 2.811-2.694v-6.474c0-2.198-0.015-3.582-2.811-3.582h-11.129c-2.735 0-2.842 0.784-2.842 3.582v6.474c0 1.749 1.009 2.681 2.842 2.694" fill="none" stroke="#00d4cf" stroke-width=".8px"/><g transform="translate(-31.366 -.12358)"><path d="m519.06 922.06c0.019-2.323 4.491-2.364 4.458 0-0.028 1.948-0.545 2.404-1.788 2.447 1.27-0.044 1.788 0.486 1.788 2.594 0 2.209-4.364 2.208-4.458 0" fill="none" stroke="#00d4cf" stroke-opacity=".99216" stroke-width=".8px"/></g></g><path d="m487.35 931.63h4.819v1.477l4.903 0.477v2.283h-15.19v-2.283l5.468-0.477v-1.477" fill="#00d4cf" fill-opacity=".90196"/><path d="m495.46 928.83c2.041-0.019 2.811-0.889 2.811-2.694v-6.474c0-2.198-0.015-3.582-2.811-3.582h-11.129c-2.735 0-2.842 0.784-2.842 3.582v6.474c0 1.749 1.009 2.681 2.842 2.694" fill="none" stroke="#00d4cf" stroke-width=".8px"/><path d="m487.55 920.95c4.599-1.837 7.316 2.152 2.858 3.667-2.063 0.478-3.016 1.776-2.858 3.893h4.865" fill="none" stroke="#00d4cf" stroke-opacity=".99216" stroke-width=".8px"/><g transform="translate(-32.021 -1.0426)"><path d="m487.35 931.63h4.819v1.477l4.903 0.477v2.283h-15.19v-2.283l5.468-0.477v-1.477" fill="#00d4cf" fill-opacity=".90196"/><path d="m495.46 928.83c2.041-0.019 2.811-0.889 2.811-2.694v-6.474c0-2.198-0.015-3.582-2.811-3.582h-11.129c-2.735 0-2.842 0.784-2.842 3.582v6.474c0 1.749 1.009 2.681 2.842 2.694" fill="none" stroke="#00d4cf" stroke-width=".8px"/><g transform="translate(32.021 1.0426)"><path d="m456.98 922.06 1.266-1.308v6.781" fill="none" stroke="#00d4cf" stroke-opacity=".99216" stroke-width=".8px"/></g></g></g><g id="uplink" fill="none" stroke="#00d4cf" stroke-width=".8px"><path d="m713.76 937.5c1.506-0.913 2.89-1.995 3.895-3.606"/><path d="m716.75 927.28c-4.895-7.654-16.922-3.194-6.554 7.897"/><path d="m714.53 920.61c18.117-3.383-11.617 33.483-9.755 12.78"/></g><g id="power" fill="none" stroke="#00d4cf" stroke-width=".8px"><path d="m762.41 925.5c4.29 17.229-14.61 14.614-9.221 0"/><path d="m757.89 920.47v10.328"/></g><path d="m597.72 941.68c7.725 0.443 15.487 0.502 23.302 0 3.683-0.237 5.071-1.907 5.824-5.226l3.585-15.807c0.862-3.798-0.51-5.252-4.943-5.856-15.957-2.178-21.695-2.146-33.499 0-3.484 0.633-5.462 1.336-4.247 5.856l4.247 15.807c0.831 3.093 1.947 5.009 5.731 5.226z" fill="none" stroke="#000" stroke-width=".8px"/><path d="m614.75 923.42h1.869c-0.717-2.67-2.687-4.316-5.558-5.227-1.715 2.42-1.984 4.869-1.056 7.344l1.829-1.508c1.136 3.069 0.183 6.188-1.829 9.333 3.754-1.879 6.875-4.175 4.745-9.942z" fill="#d9d9d9" stroke="#000" stroke-width=".8px"/><g transform="matrix(-1 3.2162e-16 -3.2162e-16 -1 1218.2 1852.3)"><path d="m614.75 923.42h1.869c-0.717-2.67-2.687-4.316-5.558-5.227-1.715 2.42-1.984 4.869-1.056 7.344l1.829-1.508c1.136 3.069 0.183 6.188-1.829 9.333 3.754-1.879 6.875-4.175 4.745-9.942z" fill="#d9d9d9" stroke="#000" stroke-width=".8px"/></g></svg>
