<svg xmlns="http://www.w3.org/2000/svg" viewBox="0 0 1600 1437.5" height="1437.5" width="1600"><path d="M1029.649 512.421h38.895v-41.019h-38.895v41.02z" fill="#161616" fill-rule="evenodd" stroke="#252525" stroke-width="1" stroke-miterlimit="10"/><path d="M1046.604 503.604V473.4h4.457v30.204h-4.457" fill="#d9d9d9" fill-rule="evenodd" stroke="#797979" stroke-width="1" stroke-miterlimit="10"/><path d="M1035.109 178.25v-16.188h25.586v16.188h-25.586M1038.655 516.375v-34.596h5.921v18.959h9.188v-18.96h6.64v34.597h-21.749z" fill="#4d4d4d" fill-rule="evenodd" stroke="#252525" stroke-width="1" stroke-miterlimit="10" stroke-opacity=".992"/><path d="M1029.648 512.423c4.213 0 7.18-2.637 7.18-11.685v-25.24h26.125v25.24c0 9.227 2.08 11.685 5.598 11.685V403.276l-5.598-97.71V177.2c-10.057-4.55-20.155-4.175-30.284 0v128.366l-3.022 97.71v109.146z" fill="#4d4d4d" fill-rule="evenodd" stroke="#252525" stroke-width="1" stroke-miterlimit="10" stroke-opacity=".992"/><path d="M1036.827 475.5h26.125c0-6.984-4.123-10.857-12.765-10.89-9.302-.036-13.223 4.129-13.36 10.89" fill="#595959" fill-rule="evenodd" stroke="#252525" stroke-width="1" stroke-miterlimit="10"/><path d="M1032.669 166.688v-25.113c0-5.275 6.973-11.762 16.448-11.813 8.827-.05 13.836 6.15 13.836 11.813v25.113c-9.822-4.7-19.938-4.313-30.284 0z" fill="#4d4d4d" fill-rule="evenodd" stroke="#252525" stroke-width="1" stroke-miterlimit="10" stroke-opacity=".992"/><path d="M1062.952 169.737v3.188c-10.457-3.825-20.452-3.375-30.13 0v-3.188c10.77-3.987 20.793-3.875 30.13 0M1029.586 540.821l39.473 5.099v-29.854c-13.18-5.81-26.339-6.185-39.473 0v24.755" fill="#4d4d4d" fill-rule="evenodd" stroke="#252525" stroke-width="1" stroke-miterlimit="10" stroke-opacity=".992"/><path d="M477.855 512.421h38.895v-41.019h-38.895v41.02z" fill="#161616" fill-rule="evenodd" stroke="#252525" stroke-width="1" stroke-miterlimit="10"/><path d="M494.81 503.604V473.4h4.457v30.204h-4.457" fill="#d9d9d9" fill-rule="evenodd" stroke="#797979" stroke-width="1" stroke-miterlimit="10"/><path d="M483.315 178.25v-16.188h25.587v16.188h-25.587M486.863 516.375v-34.596h5.92v18.959h9.187v-18.96h6.64v34.597h-21.747z" fill="#4d4d4d" fill-rule="evenodd" stroke="#252525" stroke-width="1" stroke-miterlimit="10" stroke-opacity=".992"/><path d="M477.855 512.423c4.213 0 7.179-2.637 7.179-11.685v-25.24h26.125v25.24c0 9.227 2.081 11.685 5.599 11.685V403.276l-5.6-97.71V177.2c-10.055-4.55-20.154-4.175-30.283 0v128.366l-3.02 97.71v109.146z" fill="#4d4d4d" fill-rule="evenodd" stroke="#252525" stroke-width="1" stroke-miterlimit="10" stroke-opacity=".992"/><path d="M485.034 475.5h26.125c0-6.984-4.124-10.857-12.765-10.89-9.301-.036-13.223 4.129-13.36 10.89" fill="#595959" fill-rule="evenodd" stroke="#252525" stroke-width="1" stroke-miterlimit="10"/><path d="M480.875 166.688v-25.113c0-5.275 6.974-11.762 16.449-11.813 8.826-.05 13.835 6.15 13.835 11.813v25.113c-9.82-4.7-19.938-4.313-30.284 0z" fill="#4d4d4d" fill-rule="evenodd" stroke="#252525" stroke-width="1" stroke-miterlimit="10" stroke-opacity=".992"/><path d="M511.159 169.737v3.188c-10.458-3.825-20.453-3.375-30.131 0v-3.188c10.77-3.987 20.793-3.875 30.13 0M477.794 540.821l39.471-4.996v-19.759c-13.18-5.81-26.339-6.185-39.471 0v24.755" fill="#4d4d4d" fill-rule="evenodd" stroke="#252525" stroke-width="1" stroke-miterlimit="10" stroke-opacity=".992"/><path d="M494.394 1232.964c199.448 35.408 393.34 33.46 582.543 0 33.888-5.993 62.737-44.52 80.254-99.367 49.24-154.163 81.924-309.033 83.242-465.238.56-66.479-23.377-99.828-83.242-110.6-263.956-39.703-526.762-50.412-790.043 0-56.247 10.77-64.757 58.881-64.64 110.6.362 160.098 28.008 314.86 78.06 465.238 24.62 73.963 57.937 89.445 113.826 99.367z" fill="#191919" fill-rule="evenodd" stroke="#000" stroke-width="3.75" stroke-miterlimit="10"/><path d="M541.62 1223.993c142.264 16.918 283.983 11.127 426.6 8.97 79.897-1.207 85.489-57.934 125.07-293.943 10.166-69.669 15.146-138.484 11.43-205.704-4.404-79.632-63.626-108.776-146.507-115.636-164.847-13.645-281.528-11.837-366.953 0-109.386 15.156-147.807 18.363-157.752 115.636-7.412 72.492-10.168 154.249 0 205.704 42.67 215.926 48.038 277.829 108.112 284.973z" fill="#0d0d0d" fill-rule="evenodd" stroke="#000" stroke-width="3.75" stroke-miterlimit="10"/><path d="M552.916 1117.281c141.449-.638 282.926.975 424.455 6.517 19.725.772 30.397 6.82 25.02 22.888-3.678 10.997-8.516 21.804-15.715 32.229-9.13 13.223-22.094 18.076-39.92 19.254-115.9 7.648-231.81 4.758-347.723-4.808-23.894-1.972-44.43-1.876-54.365-14.446-10.792-13.652-18.84-28.491-20.728-45.991-2.82-9.005 3.851-15.529 28.976-15.643z" fill="#252525" fill-opacity=".902" fill-rule="evenodd" stroke="#000" stroke-width="1" stroke-miterlimit="10"/><path d="M821.014 1159.156c9.011-7.82 16.792-8.417 23.345-1.792M825.354 1165.243c4.666-5.632 9.902-7.317 16.083-2.435M829.005 1169.757c3.441-4.006 6.381-4.846 8.625-1.28" fill="none" stroke="#00d4cf" stroke-width="1" stroke-miterlimit="10" stroke-opacity=".992"/><path d="M687.892 1166.07h6.024v1.846l6.129.597v2.855h-18.988v-2.855l6.835-.597v-1.846" fill="#00d4cf" fill-opacity=".902" fill-rule="evenodd"/><path d="M698.034 1162.575c2.551-.025 3.514-1.113 3.514-3.369v-8.091c0-2.749-.02-4.478-3.514-4.478H684.12c-3.417 0-3.551.98-3.551 4.478v8.091c0 2.188 1.261 3.353 3.551 3.369" fill="none" stroke="#00d4cf" stroke-width="1" stroke-miterlimit="10"/><path d="M688.701 1151.545c-2.977 6.096-.438 7.57 5.357 6.315v-6.315 11.018" fill="none" stroke="#00d4cf" stroke-width="1" stroke-miterlimit="10" stroke-opacity=".992"/><path d="M648.391 1164.69h6.024v1.846l6.129.597v2.855h-18.988v-2.855l6.835-.597v-1.846" fill="#00d4cf" fill-opacity=".902" fill-rule="evenodd"/><path d="M658.533 1161.195c2.55-.025 3.513-1.113 3.513-3.369v-8.091c0-2.749-.019-4.478-3.514-4.478h-13.91c-3.418 0-3.553.98-3.553 4.478v8.091c0 2.186 1.261 3.351 3.552 3.369" fill="none" stroke="#00d4cf" stroke-width="1" stroke-miterlimit="10"/><path d="M648.829 1152.572c.024-2.903 5.614-2.954 5.572 0-.035 2.436-.681 3.006-2.235 3.06 1.588-.056 2.235.607 2.235 3.242 0 2.761-5.455 2.76-5.572 0" fill="none" stroke="#00d4cf" stroke-width="1" stroke-miterlimit="10" stroke-opacity=".992"/><path d="M609.184 1164.536h6.023v1.847l6.13.596v2.854h-18.988v-2.854l6.835-.596v-1.847" fill="#00d4cf" fill-opacity=".902" fill-rule="evenodd"/><path d="M619.325 1161.04c2.551-.024 3.514-1.111 3.514-3.367v-8.093c0-2.748-.019-4.478-3.514-4.478h-13.911c-3.419 0-3.553.98-3.553 4.478v8.093c0 2.186 1.261 3.35 3.553 3.367" fill="none" stroke="#00d4cf" stroke-width="1" stroke-miterlimit="10"/><path d="M609.441 1151.19c5.749-2.296 9.145 2.69 3.573 4.584-2.579.597-3.77 2.22-3.573 4.866h6.081" fill="none" stroke="#00d4cf" stroke-width="1" stroke-miterlimit="10" stroke-opacity=".992"/><path d="M569.159 1163.233h6.022v1.846l6.129.596v2.855h-18.987v-2.855l6.836-.596v-1.846" fill="#00d4cf" fill-opacity=".902" fill-rule="evenodd"/><path d="M579.299 1159.737c2.551-.025 3.515-1.112 3.515-3.368v-8.092c0-2.748-.019-4.477-3.515-4.477h-13.911c-3.418 0-3.552.98-3.552 4.478v8.09c0 2.187 1.26 3.352 3.552 3.37" fill="none" stroke="#00d4cf" stroke-width="1" stroke-miterlimit="10"/><path d="M571.228 1152.581l1.582-1.635v8.477" fill="none" stroke="#00d4cf" stroke-width="1" stroke-miterlimit="10" stroke-opacity=".992"/><path d="M892.194 1171.871c1.882-1.141 3.612-2.493 4.869-4.507M895.939 1159.105c-6.119-9.567-21.153-3.992-8.193 9.871M893.164 1150.761c22.646-4.228-14.522 41.854-12.194 15.975M953.016 1156.874c5.363 21.536-18.262 18.267-11.526 0M947.368 1150.592v12.91" fill="none" stroke="#00d4cf" stroke-width="1" stroke-miterlimit="10"/><path d="M747.144 1177.095c9.656.554 19.359.627 29.127 0 4.604-.296 6.339-2.384 7.28-6.532l4.481-19.76c1.078-4.747-.637-6.564-6.178-7.32-19.947-2.722-27.119-2.682-41.874 0-4.355.792-6.827 1.67-5.309 7.32l5.309 19.76c1.039 3.866 2.434 6.26 7.164 6.532z" fill="none" stroke="#000" stroke-width="1" stroke-miterlimit="10"/><path d="M768.433 1154.27h2.336c-.897-3.337-3.359-5.395-6.948-6.534-2.144 3.025-2.48 6.086-1.32 9.18l2.286-1.885c1.42 3.837.23 7.735-2.286 11.667 4.693-2.35 8.594-5.22 5.931-12.428zM754.294 1161.077h-2.337c.895 3.338 3.36 5.395 6.948 6.534 2.144-3.025 2.48-6.087 1.32-9.18l-2.286 1.885c-1.42-3.836-.229-7.735 2.286-11.666-4.692 2.349-8.594 5.219-5.931 12.427z" fill="#d9d9d9" fill-rule="evenodd" stroke="#000" stroke-width="1" stroke-miterlimit="10"/></svg>