<?xml version="1.0" encoding="UTF-8"?>
<!DOCTYPE svg  PUBLIC '-//W3C//DTD SVG 1.1//EN'  'http://www.w3.org/Graphics/SVG/1.1/DTD/svg11.dtd'>
<svg clip-rule="evenodd" fill-rule="evenodd" stroke-linecap="round" stroke-linejoin="round" stroke-miterlimit="1.4142" version="1.1" viewBox="0 0 1280 1150" xmlns="http://www.w3.org/2000/svg"><path d="m913.07 45.71c62.773 0.115 120.74 54.519 120.74 133.6v782.62c0 79.22-66.283 140.12-120.74 140.12h-507.35c-78.135 0-138.11-54.2-138.11-140.12v-782.62c0-85.786 49.979-133.6 138.11-133.6h507.35" fill="#e8e8e8" stroke="#000" stroke-width="3px"/><g id="power" fill="none" stroke="#b6b7bc" stroke-width="1.5px"><path d="m908.01 408.98v7.066"/><path d="m904.85 412c-2.669 2.655-2.702 5.318 0 8.009 1.732 1.413 4.052 1.483 6.151 0 2.861-2.575 2.941-5.349 0-8.009"/></g><g id="LEDS"><g transform="matrix(.71862 -1.2088e-17 -1.2088e-17 .76798 263.78 42.48)"><ellipse cx="936.62" cy="182.05" rx="3.688" ry="3.465" fill="#a2e625" stroke="#90df00" stroke-width="2.69px"/></g><g transform="matrix(.71862 -1.2088e-17 -1.2088e-17 .76798 263.78 81.764)"><ellipse cx="936.62" cy="182.05" rx="3.688" ry="3.465" fill="#a2e625" stroke="#90df00" stroke-width="2.69px"/></g><g transform="matrix(.68668 -1.1551e-17 -1.1551e-17 .73384 293.58 126.72)"><ellipse cx="936.62" cy="182.05" rx="3.688" ry="3.465" fill="#a2e625" stroke="#90df00" stroke-width="2.81px"/></g><g transform="matrix(.68668 -1.1551e-17 -1.1551e-17 .73384 293.58 165.71)"><ellipse cx="936.62" cy="182.05" rx="3.688" ry="3.465" fill="#a2e625" stroke="#90df00" stroke-width="2.81px"/></g><g transform="matrix(.68668 -1.1551e-17 -1.1551e-17 .73384 293.58 243.46)"><ellipse cx="936.62" cy="182.05" rx="3.688" ry="3.465" fill="#a2e625" stroke="#90df00" stroke-width="2.81px"/></g><g transform="matrix(.68668 -1.1551e-17 -1.1551e-17 .73384 293.58 283.22)"><ellipse cx="936.62" cy="182.05" rx="3.688" ry="3.465" fill="#a2e625" stroke="#90df00" stroke-width="2.81px"/></g></g><g id="wifi-signal"><path d="m903.5 234.23h9.362" fill="none" stroke="#b6b7bc" stroke-width="2px"/><g transform="matrix(.74368 0 0 .74368 233.98 64.272)"><path d="m903.5 234.23h9.362" fill="none" stroke="#b6b7bc" stroke-width="2.69px"/></g><g transform="matrix(.4767 0 0 .4767 477.71 130.8)"><path d="m903.5 234.23h9.362" fill="none" stroke="#b6b7bc" stroke-width="4.2px"/></g><g transform="matrix(.24826 0 0 .24826 686.24 188.37)"><path d="m903.5 234.23h9.362" fill="none" stroke="#b6b7bc" stroke-width="8.06px"/></g></g><g id="ethernet"><path d="m912.51 373.65 3.72 3.675-3.72 3.405" fill="none" stroke="#b6b7bc" stroke-width="2px"/><path d="m904.85 377.87v-1.279" fill="none" stroke="#b6b7bc" stroke-linecap="butt" stroke-width="1.5px"/><g transform="translate(3.0069)"><path d="m904.85 377.87v-1.279" fill="none" stroke="#b6b7bc" stroke-linecap="butt" stroke-width="1.5px"/></g><g transform="translate(6.4787)"><path d="m904.85 377.87v-1.279" fill="none" stroke="#b6b7bc" stroke-linecap="butt" stroke-width="1.5px"/></g><path d="m903.2 373.69-3.146 3.637 3.146 3.421" fill="none" stroke="#b6b7bc" stroke-width="2px"/></g><g id="meraki"><g transform="translate(39.822 -.90396)" fill-rule="nonzero"><path d="m583.61 1005.6h-2.548v-9.004c0-1.436-0.086-2.487-0.258-3.154-0.172-0.668-0.546-1.229-1.122-1.684-0.576-0.454-1.334-0.682-2.274-0.682-0.941 0-1.825 0.303-2.654 0.91-0.829 0.606-1.405 1.43-1.729 2.472-0.323 1.041-0.485 2.582-0.485 4.625v6.517h-2.456v-8.458c0-1.658-0.086-2.851-0.258-3.579s-0.551-1.324-1.137-1.789c-0.587-0.465-1.325-0.698-2.214-0.698-0.89 0-1.734 0.278-2.533 0.834-0.798 0.556-1.39 1.284-1.774 2.184-0.384 0.899-0.576 2.39-0.576 4.473v7.033h-2.487v-16.525h2.487v2.335c1.415-1.84 3.184-2.76 5.307-2.76 1.153 0 2.199 0.308 3.139 0.925s1.613 1.491 2.017 2.623c0.687-1.152 1.547-2.032 2.578-2.638 1.031-0.607 2.123-0.91 3.275-0.91 1.577 0 2.922 0.556 4.034 1.668s1.668 3.205 1.668 6.278v9.004z"/><path d="m603.84 997.73h-14.497c0.101 1.82 0.713 3.282 1.835 4.382s2.462 1.65 4.019 1.65c2.648 0 4.67-1.3 6.065-3.909l2.123 1.089c-0.95 1.76-2.072 3.06-3.366 3.9s-2.841 1.26-4.641 1.26c-2.486 0-4.538-0.85-6.156-2.56-1.617-1.71-2.426-3.77-2.426-6.175 0-2.406 0.814-4.469 2.441-6.187 1.628-1.719 3.645-2.578 6.051-2.578 2.405 0 4.417 0.814 6.035 2.441 1.617 1.628 2.456 3.857 2.517 6.687zm-2.79-2.213c-0.304-1.416-0.991-2.518-2.063-3.306-1.071-0.789-2.304-1.183-3.699-1.183-2.831 0-4.711 1.496-5.641 4.489h11.403z"/><path d="m614.24 989.27-1.304 2.123c-0.344-0.182-0.677-0.273-1.001-0.273-0.627 0-1.193 0.308-1.698 0.925-0.506 0.617-0.885 1.425-1.137 2.426-0.253 1.001-0.38 2.806-0.38 5.414v5.668h-2.547v-16.525h2.547v1.789c0.506-0.748 1.016-1.304 1.532-1.668s1.102-0.546 1.759-0.546 1.4 0.222 2.229 0.667z"/><path d="m632.86 1005.6h-2.457v-2.42c-1.799 1.98-3.871 2.97-6.217 2.97-2.345 0-4.352-0.87-6.02-2.59-1.668-1.73-2.502-3.795-2.502-6.191s0.839-4.448 2.518-6.156c1.678-1.709 3.725-2.563 6.141-2.563s4.443 0.981 6.08 2.942v-2.517h2.457v16.525zm-8.492-1.79c1.678 0 3.124-0.6 4.337-1.82 1.213-1.21 1.82-2.72 1.82-4.53s-0.597-3.326-1.79-4.549c-1.192-1.223-2.653-1.835-4.382-1.835s-3.189 0.632-4.382 1.896c-1.193 1.263-1.789 2.754-1.789 4.473 0 1.718 0.606 3.205 1.819 4.475 1.213 1.26 2.669 1.89 4.367 1.89z"/><path d="m650.09 1005.6h-3.609l-7.764-6.972v6.972h-2.517v-22.743h2.517v12.465l7.127-6.217 3.73-0.03-9.098 7.885 9.614 8.64z"/><path d="m653.27 982.81c0.546 0 1.006 0.187 1.38 0.562 0.374 0.374 0.561 0.828 0.561 1.364s-0.187 0.991-0.561 1.365-0.829 0.561-1.365 0.561-0.99-0.192-1.364-0.576c-0.375-0.384-0.562-0.834-0.562-1.35 0-0.515 0.187-0.965 0.562-1.349 0.374-0.384 0.823-0.577 1.349-0.577zm1.274 22.743h-2.517v-16.525h2.517v16.525z"/></g><g transform="translate(-4.1153 -.20924)"><path d="m697.56 978.64c8.719-9.912 27.757-6.915 36.62-7.482 4.587-0.293 8.352-2.438 11.127-7.167 3.087-5.26-0.172-11.158-4.277-14.166-5.426-3.977-15.968-2.465-21.537 0-11.169 4.943-15.048 17.891-21.933 28.815z" fill="#6c7f8a" stroke="#6c7f8a" stroke-width="2px"/><g transform="translate(-.70476 -1.559)"><circle cx="727.13" cy="956.61" r=".946" fill="#fff" stroke="#fff" stroke-width="2px"/></g><g transform="translate(-3.5337 -2.309)"><path d="m726.02 962.63c-0.164 6.715 15.836 6.347 15.841 0" fill="none" stroke="#fff" stroke-width="2px"/></g><g transform="translate(7.9227 -1.559)"><circle cx="727.13" cy="956.61" r=".946" fill="#fff" stroke="#fff" stroke-width="2px"/></g></g></g></svg>
