<svg xmlns="http://www.w3.org/2000/svg" viewBox="0 0 1600 1437.5" height="1437.5" width="1600"><defs><clipPath id="a"><path d="M0 0h1280v1150H0V0z" clip-rule="evenodd"/></clipPath></defs><g clip-path="url(#a)" transform="matrix(1.25 0 0 -1.25 0 1437.5)"><path d="M401.745 938.53h76.051v67.454h-76.051V938.53z" fill="#e2e2e2" fill-rule="evenodd" stroke="#1d0000" stroke-width="1.5" stroke-miterlimit="10"/><path d="M407.177 1011v144.16h64.814l4.162-144.16h-68.976z" fill="#f5f5f5" fill-rule="evenodd" stroke="#1d0000" stroke-width="1.5" stroke-miterlimit="10"/><path d="M395.576 995.361c14.433 8.739 73.2 9.579 86.844 0 .286 7.749-1.689 17.019-8.173 18.059-22.309 3.58-44.109 3.33-65.499 0-6.323-.98-12.152-9.89-13.172-18.059z" fill="#f0f0f0" fill-rule="evenodd" stroke="#1d0000" stroke-width="1.5" stroke-miterlimit="10"/><path d="M787.19 938.53h76.051v67.454H787.19V938.53z" fill="#e2e2e2" fill-rule="evenodd" stroke="#1d0000" stroke-width="1.5" stroke-miterlimit="10"/><path d="M792.622 1011v144.16h64.814l4.162-144.16h-68.976z" fill="#f5f5f5" fill-rule="evenodd" stroke="#1d0000" stroke-width="1.5" stroke-miterlimit="10"/><path d="M781.021 995.361c14.433 8.739 73.2 9.579 86.845 0 .285 7.749-1.69 17.019-8.174 18.059-22.309 3.58-44.109 3.33-65.499 0-6.323-.98-12.151-9.89-13.172-18.059z" fill="#f0f0f0" fill-rule="evenodd" stroke="#1d0000" stroke-width="1.5" stroke-miterlimit="10"/><path d="M453.965 145.112l9.293-36.259c1.773-6.917 5.686-11.604 14.56-11.604h323.443c6.702 0 13.032 4.792 15.394 11.604l8.015 36.259H453.965z" fill="#c2c3c3" fill-rule="evenodd" stroke="#1d0000" stroke-width="1.5" stroke-miterlimit="10"/><path d="M488.581 129.601c4.264 0 7.725-3.312 7.725-7.391 0-4.08-3.461-7.392-7.725-7.392-4.263 0-7.724 3.312-7.724 7.392 0 4.079 3.461 7.391 7.724 7.391zM795.518 129.601c4.263 0 7.724-3.312 7.724-7.391 0-4.08-3.461-7.392-7.724-7.392-4.264 0-7.725 3.312-7.725 7.392 0 4.079 3.461 7.391 7.725 7.391z" fill="#fff" fill-rule="evenodd" stroke="#fff" stroke-width="2" stroke-miterlimit="10"/><path d="M824.67 958.402l-9.293 36.26c-1.773 6.918-5.686 11.608-14.56 11.608H477.374c-6.702 0-13.032-4.8-15.394-11.608l-8.015-36.26H824.67z" fill="#c2c3c3" fill-rule="evenodd" stroke="#1d0000" stroke-width="1.5" stroke-miterlimit="10"/><path d="M790.054 973.913c-4.264 0-7.725 3.312-7.725 7.392 0 4.079 3.461 7.391 7.725 7.391 4.263 0 7.724-3.312 7.724-7.391 0-4.08-3.461-7.392-7.724-7.392zM483.118 973.913c-4.264 0-7.725 3.312-7.725 7.392 0 4.079 3.461 7.391 7.725 7.391 4.263 0 7.724-3.312 7.724-7.391 0-4.08-3.461-7.392-7.724-7.392z" fill="#fff" fill-rule="evenodd" stroke="#fff" stroke-width="2" stroke-miterlimit="10"/><path d="M859.731 957.23c54.53-.089 104.881-41.915 104.881-102.71V252.835c0-60.904-57.577-107.723-104.881-107.723H418.998c-67.875 0-119.976 41.665-119.976 107.723V854.52c0 65.953 43.416 102.71 119.976 102.71h440.733" fill="#e8e8e8" fill-rule="evenodd" stroke="#000" stroke-width="3" stroke-miterlimit="10"/><path d="M812.145 609.432V604M809.401 607.116c-2.32-2.041-2.348-4.088 0-6.157 1.504-1.087 3.519-1.14 5.343 0 2.485 1.979 2.554 4.112 0 6.157" fill="none" stroke="#b6b7bc" stroke-width="1.5" stroke-miterlimit="10"/><path d="M839.893 778.904c2.805 0 5.083-2.025 5.083-4.518s-2.278-4.518-5.083-4.518c-2.806 0-5.083 2.025-5.083 4.518s2.277 4.518 5.083 4.518zM839.893 749.3c2.805 0 5.083-2.024 5.083-4.518 0-2.493-2.278-4.517-5.083-4.517-2.806 0-5.083 2.024-5.083 4.517 0 2.494 2.277 4.518 5.083 4.518zM839.893 722.917c2.805 0 5.083-2.024 5.083-4.517 0-2.494-2.278-4.518-5.083-4.518-2.806 0-5.083 2.024-5.083 4.518 0 2.493 2.277 4.517 5.083 4.517zM839.893 692.129c2.805 0 5.083-2.025 5.083-4.518s-2.278-4.518-5.083-4.518c-2.806 0-5.083 2.025-5.083 4.518s2.277 4.518 5.083 4.518zM839.893 637.917c2.805 0 5.083-2.024 5.083-4.518 0-2.493-2.278-4.517-5.083-4.517-2.806 0-5.083 2.024-5.083 4.517 0 2.494 2.277 4.518 5.083 4.518zM839.893 608.377c2.805 0 5.083-2.024 5.083-4.517 0-2.494-2.278-4.518-5.083-4.518-2.806 0-5.083 2.024-5.083 4.518 0 2.493 2.277 4.517 5.083 4.517z" fill="#a2e625" fill-rule="evenodd" stroke="#90df00" stroke-width="2" stroke-miterlimit="10"/><path d="M806.067 740.989h8.133M808.152 737.734h6.048M810.323 734.665h3.877M812.181 731.543h2.019M816.054 636.256l3.231-2.825-3.231-2.618" fill="none" stroke="#b6b7bc" stroke-width="2" stroke-miterlimit="10"/><path d="M809.402 633.013v.983M812.014 633.013v.983M815.03 633.013v.983" fill="none" stroke="#b6b7bc" stroke-width="1.5" stroke-miterlimit="10"/><path d="M807.973 636.227l-2.733-2.796 2.733-2.63" fill="none" stroke="#b6b7bc" stroke-width="2" stroke-miterlimit="10"/><text style="-inkscape-font-specification:LucidaGrande-Bold" transform="matrix(1.05903 0 0 -.93726 600.574 238.771)" font-weight="700" font-size="23.431" font-family="LucidaGrande" fill="#6c7f8a"><tspan y="0" x="0 16.692387 24.459829 37.846073 54.53846">CISCO</tspan></text><path d="M590.103 271.475v-4.055M638.814 271.475v-4.055M638.814 271.475v-4.055M688.301 271.475v-4.055M675.321 276.66v-9.24M651.142 276.66v-9.24M626.014 276.794v-9.239M602.219 276.794v-9.239M614.453 284.194v-20.275M663.508 284.194v-20.275" fill="none" stroke="#6c7f8a" stroke-width="6" stroke-miterlimit="10"/></g></svg>