<svg xmlns="http://www.w3.org/2000/svg" viewBox="0 0 1600 1437.5" height="1437.5" width="1600"><path d="M1141.339 57.138c78.466.15 150.924 68.15 150.924 166.995v978.28c0 99.023-82.854 175.146-150.924 175.146h-634.19c-97.669 0-172.64-67.742-172.64-175.147v-978.28c0-107.232 62.474-166.995 172.64-166.995h634.19" fill="#e8e8e8" fill-rule="evenodd" stroke="#000" stroke-width="3.75" stroke-miterlimit="10"/><path d="M1135.009 511.231v8.833M1131.059 514.996c-3.337 3.319-3.378 6.648 0 10.011 2.165 1.767 5.065 1.854 7.688 0 3.577-3.218 3.677-6.686 0-10.01" fill="none" stroke="#b6b7bc" stroke-width="1.875" stroke-miterlimit="10"/><path d="M1171.07 224.536a3.322 3.322 0 0 1 3.313 3.328 3.322 3.322 0 0 1-3.313 3.326 3.321 3.321 0 0 1-3.313-3.326 3.321 3.321 0 0 1 3.313-3.328zM1171.07 273.641a3.321 3.321 0 0 1 3.313 3.327 3.321 3.321 0 0 1-3.313 3.326 3.32 3.32 0 0 1-3.313-3.326 3.32 3.32 0 0 1 3.313-3.327zM1170.923 322.21a3.174 3.174 0 0 1 3.165 3.179 3.173 3.173 0 0 1-3.165 3.179 3.173 3.173 0 0 1-3.165-3.18 3.173 3.173 0 0 1 3.165-3.178zM1170.923 370.956a3.173 3.173 0 0 1 3.165 3.179 3.174 3.174 0 0 1-3.165 3.179 3.173 3.173 0 0 1-3.165-3.179 3.173 3.173 0 0 1 3.165-3.179zM1170.923 468.144a3.173 3.173 0 0 1 3.165 3.178 3.174 3.174 0 0 1-3.165 3.18 3.173 3.173 0 0 1-3.165-3.18 3.173 3.173 0 0 1 3.165-3.178zM1170.923 517.835a3.174 3.174 0 0 1 3.165 3.179 3.173 3.173 0 0 1-3.165 3.179 3.173 3.173 0 0 1-3.165-3.18 3.173 3.173 0 0 1 3.165-3.178z" fill="#a2e625" fill-rule="evenodd" stroke="#90df00" stroke-width="2.5" stroke-miterlimit="10"/><path d="M1129.381 292.787h11.703M1132.381 298.08h8.703M1135.505 303.069h5.579M1138.179 308.146h2.905M1140.632 467.064l4.65 4.593-4.65 4.257" fill="none" stroke="#b6b7bc" stroke-width="2.5" stroke-miterlimit="10"/><path d="M1131.061 472.337v-1.598M1134.819 472.337v-1.598M1139.159 472.337v-1.598" fill="none" stroke="#b6b7bc" stroke-width="1.875" stroke-miterlimit="10"/><path d="M1129.005 467.111l-3.933 4.546 3.933 4.277" fill="none" stroke="#b6b7bc" stroke-width="2.5" stroke-miterlimit="10"/><text style="-inkscape-font-specification:LucidaGrande-Bold" transform="matrix(1.25 0 0 1.25 757.056 1258.735)" font-weight="700" font-size="28.565" font-family="LucidaGrande" fill="#6c7f8a"><tspan y="0" x="0 20.349848 29.819212 46.138512 66.488358">CISCO</tspan></text><path d="M741.989 1205.568v6.592M812.081 1205.568v6.592M812.081 1205.568v6.592M883.29 1205.568v6.592M864.613 1197.138v15.022M829.821 1197.138v15.022M793.664 1196.92v15.021M759.424 1196.92v15.021M777.027 1184.888v32.965M847.615 1184.888v32.965" fill="none" stroke="#6c7f8a" stroke-width="7.5" stroke-miterlimit="10"/></svg>