<?xml version="1.0" encoding="UTF-8"?>
<!DOCTYPE svg  PUBLIC '-//W3C//DTD SVG 1.1//EN'  'http://www.w3.org/Graphics/SVG/1.1/DTD/svg11.dtd'>
<svg clip-rule="evenodd" fill-rule="evenodd" stroke-linecap="round" stroke-linejoin="round" stroke-miterlimit="1.4142" version="1.1" viewBox="0 0 1280 1150" xmlns="http://www.w3.org/2000/svg"><g id="meraki-base" transform="matrix(.86869 0 0 .7688 66.554 157.63)"><g id="antennen-oben"><g id="antenne-oben-links"><g transform="matrix(1.1512 0 0 1.3007 -76.614 -205.03)"><rect x="401.74" y="144.02" width="76.051" height="67.454" fill="#e2e2e2" stroke="#1d0000" stroke-width="1.5px"/></g><g transform="matrix(1.1512 0 0 1.3007 -76.614 -205.03)"><path d="m407.18 139v-144.16h64.814l4.162 144.16h-68.976z" fill="#f5f5f5" stroke="#1d0000" stroke-width="1.5px"/></g><g transform="matrix(1.1512 0 0 1.3007 -76.614 -205.03)"><path d="m395.58 154.64c14.433-8.744 73.2-9.583 86.844 0 0.286-7.751-1.689-17.019-8.173-18.059-22.309-3.577-44.109-3.326-65.499 0-6.323 0.983-12.152 9.891-13.172 18.059z" fill="#f0f0f0" stroke="#1d0000" stroke-width="1.5px"/></g></g><g id="antenne-oben-rechts" transform="translate(443.71 -2.8422e-14)"><g transform="matrix(1.1512 0 0 1.3007 -76.614 -205.03)"><rect x="401.74" y="144.02" width="76.051" height="67.454" fill="#e2e2e2" stroke="#1d0000" stroke-width="1.5px"/></g><g transform="matrix(1.1512 0 0 1.3007 -76.614 -205.03)"><path d="m407.18 139v-144.16h64.814l4.162 144.16h-68.976z" fill="#f5f5f5" stroke="#1d0000" stroke-width="1.5px"/></g><g transform="matrix(1.1512 0 0 1.3007 -76.614 -205.03)"><path d="m395.58 154.64c14.433-8.744 73.2-9.583 86.844 0 0.286-7.751-1.689-17.019-8.173-18.059-22.309-3.577-44.109-3.326-65.499 0-6.323 0.983-12.152 9.891-13.172 18.059z" fill="#f0f0f0" stroke="#1d0000" stroke-width="1.5px"/></g></g></g><g id="antennen-unten"><g id="antenne-unten-links" transform="matrix(-1 6.4016e-16 -5.0141e-16 -1 857.51 1139.4)"><g transform="matrix(1.1512 0 0 1.3007 -76.614 -205.03)"><rect x="401.74" y="144.02" width="76.051" height="67.454" fill="#e2e2e2" stroke="#1d0000" stroke-width="1.5px"/></g><g transform="matrix(1.1512 0 0 1.3007 -76.614 -205.03)"><path d="m407.18 139v-144.16h64.814l4.162 144.16h-68.976z" fill="#f5f5f5" stroke="#1d0000" stroke-width="1.5px"/></g><g transform="matrix(1.1512 0 0 1.3007 -76.614 -205.03)"><path d="m395.58 154.64c14.433-8.744 73.2-9.583 86.844 0 0.286-7.751-1.689-17.019-8.173-18.059-22.309-3.577-44.109-3.326-65.499 0-6.323 0.983-12.152 9.891-13.172 18.059z" fill="#f0f0f0" stroke="#1d0000" stroke-width="1.5px"/></g></g><g id="antenne-unten-rechts" transform="matrix(-1 3.6341e-16 -2.8464e-16 -1 1301.2 1137.3)"><g transform="matrix(1.1512 0 0 1.3007 -76.614 -205.03)"><rect x="401.74" y="144.02" width="76.051" height="67.454" fill="#e2e2e2" stroke="#1d0000" stroke-width="1.5px"/></g><g transform="matrix(1.1512 0 0 1.3007 -76.614 -205.03)"><path d="m407.18 139v-144.16h64.814l4.162 144.16h-68.976z" fill="#f5f5f5" stroke="#1d0000" stroke-width="1.5px"/></g><g transform="matrix(1.1512 0 0 1.3007 -76.614 -205.03)"><path d="m395.58 154.64c14.433-8.744 73.2-9.583 86.844 0 0.286-7.751-1.689-17.019-8.173-18.059-22.309-3.577-44.109-3.326-65.499 0-6.323 0.983-12.152 9.891-13.172 18.059z" fill="#f0f0f0" stroke="#1d0000" stroke-width="1.5px"/></g></g></g><g id="blech-unten"><g transform="matrix(1.1512 0 0 1.3007 -76.614 -205.03)"><path d="m453.96 1004.9 9.293 36.26c1.773 6.91 5.686 11.6 14.56 11.6h323.44c6.702 0 13.032-4.79 15.394-11.6l8.015-36.26h-370.7z" fill="#c2c3c3" stroke="#1d0000" stroke-width="1.5px"/></g><g transform="matrix(.99402 0 0 1.1232 .30182 -24.102)"><ellipse cx="488.44" cy="1029.2" rx="8.946" ry="8.56" fill="#fff" stroke="#fff" stroke-width="2.32px"/></g><g transform="matrix(.99402 0 0 1.1232 353.63 -24.102)"><ellipse cx="488.44" cy="1029.2" rx="8.946" ry="8.56" fill="#fff" stroke="#fff" stroke-width="2.32px"/></g></g><g id="blech-unten1" transform="matrix(-1 3.6341e-16 -2.8464e-16 -1 1318.7 1146.2)"><g transform="matrix(1.1512 0 0 1.3007 -76.614 -205.03)"><path d="m453.96 1004.9 9.293 36.26c1.773 6.91 5.686 11.6 14.56 11.6h323.44c6.702 0 13.032-4.79 15.394-11.6l8.015-36.26h-370.7z" fill="#c2c3c3" stroke="#1d0000" stroke-width="1.5px"/></g><g transform="matrix(.99402 0 0 1.1232 .30182 -24.102)"><ellipse cx="488.44" cy="1029.2" rx="8.946" ry="8.56" fill="#fff" stroke="#fff" stroke-width="2.32px"/></g><g transform="matrix(.99402 0 0 1.1232 353.63 -24.102)"><ellipse cx="488.44" cy="1029.2" rx="8.946" ry="8.56" fill="#fff" stroke="#fff" stroke-width="2.32px"/></g></g><path d="m913.07 45.71c62.773 0.115 120.74 54.519 120.74 133.6v782.62c0 79.22-66.283 140.12-120.74 140.12h-507.35c-78.135 0-138.11-54.2-138.11-140.12v-782.62c0-85.786 49.979-133.6 138.11-133.6h507.35" fill="#e8e8e8" stroke="#000" stroke-width="3.66px"/><g id="power" transform="translate(-49.714 89.113)" fill="none" stroke="#b6b7bc" stroke-width="1.83px"><path d="m908.01 408.98v7.066"/><path d="m904.85 412c-2.669 2.655-2.702 5.318 0 8.009 1.732 1.413 4.052 1.483 6.151 0 2.861-2.575 2.941-5.349 0-8.009"/></g><g id="LEDS" transform="translate(-49.714 92.472)"><g transform="matrix(1.5867 -2.6691e-17 -2.6691e-17 1.6957 -546.22 -117.64)"><ellipse cx="936.62" cy="182.05" rx="3.688" ry="3.465" fill="#a2e625" stroke="#90df00" stroke-width="1.49px"/></g><g transform="matrix(1.5867 -2.6691e-17 -2.6691e-17 1.6957 -546.22 -79.132)"><ellipse cx="936.62" cy="182.05" rx="3.688" ry="3.465" fill="#a2e625" stroke="#90df00" stroke-width="1.49px"/></g><g transform="matrix(1.5867 -2.6691e-17 -2.6691e-17 1.6957 -546.22 -44.815)"><ellipse cx="936.62" cy="182.05" rx="3.688" ry="3.465" fill="#a2e625" stroke="#90df00" stroke-width="1.49px"/></g><g transform="matrix(1.5867 -2.6691e-17 -2.6691e-17 1.6957 -546.22 -4.7678)"><ellipse cx="936.62" cy="182.05" rx="3.688" ry="3.465" fill="#a2e625" stroke="#90df00" stroke-width="1.49px"/></g><g transform="matrix(1.5867 -2.6691e-17 -2.6691e-17 1.6957 -546.22 65.747)"><ellipse cx="936.62" cy="182.05" rx="3.688" ry="3.465" fill="#a2e625" stroke="#90df00" stroke-width="1.49px"/></g><g transform="matrix(1.5867 -2.6691e-17 -2.6691e-17 1.6957 -546.22 104.17)"><ellipse cx="936.62" cy="182.05" rx="3.688" ry="3.465" fill="#a2e625" stroke="#90df00" stroke-width="1.49px"/></g></g><g id="wifi-signal" transform="translate(-52.209 92.749)"><path d="m903.5 234.23h9.362" fill="none" stroke="#b6b7bc" stroke-width="2.44px"/><g transform="matrix(.74368 0 0 .74368 233.98 64.272)"><path d="m903.5 234.23h9.362" fill="none" stroke="#b6b7bc" stroke-width="3.28px"/></g><g transform="matrix(.4767 0 0 .4767 477.71 130.8)"><path d="m903.5 234.23h9.362" fill="none" stroke="#b6b7bc" stroke-width="5.11px"/></g><g transform="matrix(.24826 0 0 .24826 686.24 188.37)"><path d="m903.5 234.23h9.362" fill="none" stroke="#b6b7bc" stroke-width="9.82px"/></g></g><g id="ethernet" transform="translate(-49.714 89.556)"><path d="m912.51 373.65 3.72 3.675-3.72 3.405" fill="none" stroke="#b6b7bc" stroke-width="2.44px"/><path d="m904.85 377.87v-1.279" fill="none" stroke="#b6b7bc" stroke-linecap="butt" stroke-width="1.83px"/><g transform="translate(3.0069)"><path d="m904.85 377.87v-1.279" fill="none" stroke="#b6b7bc" stroke-linecap="butt" stroke-width="1.83px"/></g><g transform="translate(6.4787)"><path d="m904.85 377.87v-1.279" fill="none" stroke="#b6b7bc" stroke-linecap="butt" stroke-width="1.83px"/></g><path d="m903.2 373.69-3.146 3.637 3.146 3.421" fill="none" stroke="#b6b7bc" stroke-width="2.44px"/></g><g id="cisco" transform="translate(9.0963 -26.769)"><g transform="translate(6.3667 .77938)" fill="#6c7f8a" fill-rule="nonzero"><path d="m618.47 1005.4c-1.999 0.89-4.385 1.34-7.155 1.34-3.385 0-6.021-0.96-7.909-2.86-1.888-1.91-2.831-4.57-2.831-7.982 0-3.478 0.95-6.154 2.852-8.027 1.902-1.874 4.614-2.811 8.139-2.811 2.25 0 4.486 0.265 6.709 0.795v3.362c-2.52-0.884-4.631-1.326-6.333-1.326-2.176 0-3.854 0.691-5.035 2.072s-1.771 3.34-1.771 5.879c0 2.492 0.634 4.438 1.904 5.828 1.269 1.4 3.033 2.09 5.293 2.09 2.027 0 4.072-0.51 6.137-1.53v3.17z"/><rect x="622.21" y="985.57" width="4.296" height="20.643"/><path d="m630.52 1006v-3.54c2.222 0.93 4.124 1.39 5.704 1.39 1.107 0 1.979-0.25 2.616-0.74s0.955-1.16 0.955-2.01c0-0.67-0.2-1.232-0.6-1.693-0.4-0.46-1.157-1.006-2.273-1.639l-1.381-0.767c-1.85-1.041-3.157-2.038-3.919-2.992-0.763-0.953-1.144-2.066-1.144-3.34 0-1.702 0.625-3.069 1.876-4.101s2.903-1.548 4.958-1.548c1.646 0 3.501 0.237 5.566 0.711v3.306c-2.111-0.79-3.78-1.186-5.008-1.186-0.948 0-1.708 0.212-2.28 0.635s-0.858 0.979-0.858 1.667c0 0.567 0.2 1.065 0.6 1.492 0.4 0.428 1.153 0.953 2.259 1.576l1.479 0.823c1.99 1.116 3.361 2.144 4.114 3.083 0.754 0.939 1.13 2.083 1.13 3.433 0 1.91-0.711 3.41-2.134 4.5s-3.385 1.64-5.886 1.64c-1.655 0-3.58-0.24-5.774-0.7z"/><path d="m664.61 1005.4c-1.999 0.89-4.384 1.34-7.155 1.34-3.385 0-6.021-0.96-7.908-2.86-1.888-1.91-2.832-4.57-2.832-7.982 0-3.478 0.951-6.154 2.853-8.027 1.901-1.874 4.614-2.811 8.138-2.811 2.25 0 4.487 0.265 6.709 0.795v3.362c-2.52-0.884-4.631-1.326-6.332-1.326-2.176 0-3.855 0.691-5.035 2.072-1.181 1.381-1.772 3.34-1.772 5.879 0 2.492 0.635 4.438 1.904 5.828 1.269 1.4 3.034 2.09 5.293 2.09 2.027 0 4.073-0.51 6.137-1.53v3.17z"/><path d="m677.4 1006.7c-3.134 0-5.64-0.99-7.518-2.96-1.879-1.97-2.818-4.6-2.818-7.882 0-3.32 0.944-5.956 2.832-7.909 1.887-1.953 4.435-2.929 7.643-2.929 3.189 0 5.73 0.976 7.623 2.929 1.892 1.953 2.838 4.575 2.838 7.867 0 3.366-0.946 6.024-2.838 7.964-1.893 1.94-4.48 2.92-7.762 2.92zm0.055-2.85c1.841 0 3.299-0.72 4.373-2.17s1.611-3.405 1.611-5.878c0-2.399-0.539-4.324-1.618-5.775-1.079-1.45-2.506-2.176-4.282-2.176-1.795 0-3.229 0.726-4.303 2.176-1.074 1.451-1.611 3.39-1.611 5.817 0 2.408 0.535 4.346 1.604 5.806 1.069 1.47 2.478 2.2 4.226 2.2z"/></g><g id="sf-gg-bridge"><path d="m593.59 964.45v5.274" fill="none" stroke="#6c7f8a" stroke-width="7.31px"/><g transform="translate(56.074)"><path d="m593.59 964.45v5.274" fill="none" stroke="#6c7f8a" stroke-width="7.31px"/></g><g transform="translate(56.074)"><path d="m593.59 964.45v5.274" fill="none" stroke="#6c7f8a" stroke-width="7.31px"/></g><g transform="translate(113.04)"><path d="m593.59 964.45v5.274" fill="none" stroke="#6c7f8a" stroke-width="7.31px"/></g><g transform="matrix(2.2788 0 0 2.2788 -660.99 -1240.1)"><path d="m593.59 964.45v5.274" fill="none" stroke="#6c7f8a" stroke-width="3.21px"/></g><g transform="matrix(2.2788 0 0 2.2788 -688.82 -1240.1)"><path d="m593.59 964.45v5.274" fill="none" stroke="#6c7f8a" stroke-width="3.21px"/></g><g transform="matrix(2.2788 0 0 2.2788 -717.75 -1240.3)"><path d="m593.59 964.45v5.274" fill="none" stroke="#6c7f8a" stroke-width="3.21px"/></g><g transform="matrix(2.2788 0 0 2.2788 -745.14 -1240.3)"><path d="m593.59 964.45v5.274" fill="none" stroke="#6c7f8a" stroke-width="3.21px"/></g><g transform="matrix(5.0008 0 0 5.0008 -2346.8 -3875.1)"><path d="m593.59 964.45v5.274" fill="none" stroke="#6c7f8a" stroke-width="1.46px"/></g><g transform="matrix(5.0008 0 0 5.0008 -2290.3 -3875.1)"><path d="m593.59 964.45v5.274" fill="none" stroke="#6c7f8a" stroke-width="1.46px"/></g></g></g></g></svg>
