<svg xmlns="http://www.w3.org/2000/svg" viewBox="0 0 1600 1437.5" height="1437.5" width="1600"><path d="M1141.339 57.138c78.466.15 150.924 68.15 150.924 166.995v978.28c0 99.023-82.854 175.146-150.924 175.146h-634.19c-97.669 0-172.64-67.742-172.64-175.147v-978.28c0-107.232 62.474-166.995 172.64-166.995h634.19" fill="#e8e8e8" fill-rule="evenodd" stroke="#000" stroke-width="3.75" stroke-miterlimit="10"/><path d="M1135.009 511.231v8.833M1131.059 514.996c-3.337 3.319-3.378 6.648 0 10.011 2.165 1.767 5.065 1.854 7.688 0 3.577-3.218 3.677-6.686 0-10.01" fill="none" stroke="#b6b7bc" stroke-width="1.875" stroke-miterlimit="10"/><path d="M1171.07 224.536a3.322 3.322 0 0 1 3.313 3.328 3.322 3.322 0 0 1-3.313 3.326 3.321 3.321 0 0 1-3.313-3.326 3.321 3.321 0 0 1 3.313-3.328zM1171.07 273.641a3.321 3.321 0 0 1 3.313 3.327 3.321 3.321 0 0 1-3.313 3.326 3.32 3.32 0 0 1-3.313-3.326 3.32 3.32 0 0 1 3.313-3.327zM1170.923 322.21a3.174 3.174 0 0 1 3.165 3.179 3.173 3.173 0 0 1-3.165 3.179 3.173 3.173 0 0 1-3.165-3.18 3.173 3.173 0 0 1 3.165-3.178zM1170.923 370.956a3.173 3.173 0 0 1 3.165 3.179 3.174 3.174 0 0 1-3.165 3.179 3.173 3.173 0 0 1-3.165-3.179 3.173 3.173 0 0 1 3.165-3.179zM1170.923 468.144a3.173 3.173 0 0 1 3.165 3.178 3.174 3.174 0 0 1-3.165 3.18 3.173 3.173 0 0 1-3.165-3.18 3.173 3.173 0 0 1 3.165-3.178zM1170.923 517.835a3.174 3.174 0 0 1 3.165 3.179 3.173 3.173 0 0 1-3.165 3.179 3.173 3.173 0 0 1-3.165-3.18 3.173 3.173 0 0 1 3.165-3.178z" fill="#a2e625" fill-rule="evenodd" stroke="#90df00" stroke-width="2.5" stroke-miterlimit="10"/><path d="M1129.381 292.787h11.703M1132.381 298.08h8.703M1135.505 303.069h5.579M1138.179 308.146h2.905M1140.632 467.064l4.65 4.593-4.65 4.257" fill="none" stroke="#b6b7bc" stroke-width="2.5" stroke-miterlimit="10"/><path d="M1131.061 472.337v-1.598M1134.819 472.337v-1.598M1139.159 472.337v-1.598" fill="none" stroke="#b6b7bc" stroke-width="1.875" stroke-miterlimit="10"/><path d="M1129.005 467.111l-3.933 4.546 3.933 4.277" fill="none" stroke="#b6b7bc" stroke-width="2.5" stroke-miterlimit="10"/><text style="-inkscape-font-specification:STHeitiSC-Medium" transform="matrix(1.25 0 0 1.25 746.044 1258.086)" font-weight="500" font-size="30.327" font-family="STHeitiSC"><tspan y="0" x="0 28.446913 48.156559 57.288082 77.998528 93.225815">meraki</tspan></text><path d="M866.799 1223.034c10.9-12.39 34.697-8.645 45.776-9.353 5.734-.366 10.44-3.047 13.909-8.96 3.858-6.573-.215-13.946-5.347-17.707-6.782-4.97-19.96-3.08-26.922 0-13.961 6.18-18.809 22.365-27.416 36.02z" fill="#6c7f8a" fill-rule="evenodd" stroke="#6c7f8a" stroke-width="2.5" stroke-miterlimit="10"/><path d="M902.892 1192.371a1.184 1.184 0 1 1-.002 2.367 1.184 1.184 0 0 1 .002-2.367z" fill="#fff" fill-rule="evenodd" stroke="#fff" stroke-width="2.5" stroke-miterlimit="10"/><path d="M897.959 1200.138c-.205 8.392 19.795 7.933 19.801 0" fill="none" stroke="#fff" stroke-width="2.5" stroke-miterlimit="10"/><path d="M913.676 1192.371a1.184 1.184 0 1 1-.002 2.367 1.184 1.184 0 0 1 .002-2.367z" fill="#fff" fill-rule="evenodd" stroke="#fff" stroke-width="2.5" stroke-miterlimit="10"/></svg>