<?xml version="1.0" encoding="UTF-8"?>
<!DOCTYPE svg  PUBLIC '-//W3C//DTD SVG 1.1//EN'  'http://www.w3.org/Graphics/SVG/1.1/DTD/svg11.dtd'>
<svg clip-rule="evenodd" fill-rule="evenodd" stroke-linecap="round" stroke-linejoin="round" stroke-miterlimit="1.4142" version="1.1" viewBox="0 0 1280 1150" xmlns="http://www.w3.org/2000/svg"><g id="Netgear Front"><g transform="matrix(7.6372 0 0 1 -863.44 0)"><rect x="130.09" y="641.89" width="137.21" height="123.81" fill="#fff" stroke="#000" stroke-width=".18px"/></g><g id="boden"><rect x="1122.6" y="766.36" width="49.355" height="8.411" stroke="#000" stroke-width="1px"/><g transform="translate(-1016.8)"><rect x="1122.6" y="766.36" width="49.355" height="8.411" stroke="#000" stroke-width="1px"/></g><rect x="64.872" y="727.85" width="79.556" height="32.669" fill="#fff" stroke="#000" stroke-width="3px"/><g transform="translate(1075)"><rect x="64.872" y="727.85" width="79.556" height="32.669" fill="#fff" stroke="#000" stroke-width="3px"/></g><rect x="45.343" y="757.8" width="1190.5" height="14.923" fill="#fff" stroke="#000" stroke-width="3px"/></g><path d="m107.46 624.84h1070.4c-356.82-37.391-713.63-34.463-1070.4 0z" fill="#e8e8e8" stroke="#000" stroke-width="3px"/><path d="m45.705 740.17h86.228c6.826 0 12.418-3.394 12.418-9.913v-70.299c1.893-7.459 7.122-10.072 14.039-10.234h964.92c10.81-0.51 16.07 3.007 16.19 10.234v71.899c0 3.397 3.11 8.313 8.31 8.313h85.39v-115.33h-1187.5v115.33z" fill="#fff" stroke="#010000" stroke-width="2.5px"/><g id="red"><path d="m144.6 659.96c1.47-5.62 5.076-9.68 13.792-10.011h967.58c7.77 0.079 13.01 2.615 13.27 10.011v72.269h-994.64v-72.269z" fill="#fff"/><path d="m1126.2 649.95 0.19 3e-3 0.18 4e-3 0.17 5e-3 0.18 6e-3 0.18 7e-3 0.17 8e-3 0.18 9e-3 0.17 9e-3 0.18 0.011 0.34 0.024 0.17 0.014 0.34 0.03 0.16 0.017 0.17 0.017 0.16 0.019 0.17 0.02 0.16 0.02 0.16 0.022 0.16 0.023 0.16 0.024 0.16 0.025 0.16 0.026 0.15 0.027 0.16 0.028 0.15 0.029 0.31 0.062 0.15 0.032 0.15 0.034 0.14 0.034 0.15 0.036 0.15 0.037 0.14 0.038 0.15 0.04 0.14 0.04 0.28 0.084 0.14 0.044 0.13 0.045 0.28 0.094 0.13 0.049 0.13 0.05 0.13 0.051 0.14 0.052 0.12 0.054 0.13 0.055 0.13 0.056 0.12 0.057 0.13 0.059 0.12 0.059 0.24 0.124 0.12 0.064 0.12 0.065 0.11 0.066 0.12 0.067 0.11 0.069 0.11 0.07 0.11 0.072 0.11 0.073 0.11 0.074 0.11 0.076 0.1 0.076 0.1 0.079 0.11 0.079 0.1 0.081 0.1 0.083 0.09 0.083 0.2 0.172 0.09 0.088 0.09 0.089 0.09 0.091 0.09 0.092 0.09 0.094 0.09 0.095 0.08 0.097 0.08 0.098 0.09 0.099 0.08 0.101 0.07 0.103 0.08 0.104 0.08 0.105 0.07 0.107 0.07 0.108 0.08 0.11 0.07 0.112 0.06 0.113 0.07 0.114 0.06 0.116 0.07 0.118 0.06 0.119 0.06 0.12 0.06 0.123 0.06 0.124 0.05 0.125 0.05 0.127 0.06 0.129 0.05 0.13 0.04 0.132 0.05 0.133 0.05 0.135 0.04 0.137 0.04 0.138 0.04 0.14 0.04 0.141 0.04 0.144 0.03 0.145 0.04 0.146 0.03 0.148 0.03 0.15 0.03 0.152 0.02 0.153 0.03 0.155 0.02 0.157 0.02 0.159 0.02 0.16 0.02 0.162 0.01 0.163 0.02 0.166 0.01 0.167 0.01 0.169 0.01 0.17 0.01 0.173v72.269h-994.64v-72.269l0.035-0.132 0.036-0.131 0.036-0.13 0.037-0.129 0.038-0.13 0.039-0.128 0.04-0.128 0.082-0.254 0.042-0.126 0.043-0.125 0.044-0.125 0.045-0.124 0.046-0.124 0.094-0.244 0.049-0.122 0.049-0.121 0.051-0.12 0.051-0.119 0.052-0.119 0.053-0.118 0.11-0.234 0.056-0.116 0.057-0.115 0.058-0.114 0.059-0.114 0.061-0.113 0.061-0.112 0.062-0.111 0.063-0.111 0.065-0.11 0.065-0.109 0.134-0.216 0.069-0.106 0.07-0.106 0.071-0.106 0.072-0.104 0.073-0.103 0.074-0.103 0.075-0.102 0.077-0.101 0.078-0.1 0.078-0.099 0.08-0.099 0.164-0.194 0.084-0.096 0.084-0.095 0.086-0.094 0.088-0.093 0.088-0.092 0.09-0.092 0.091-0.09 0.092-0.09 0.188-0.176 0.096-0.087 0.098-0.086 0.098-0.084 0.1-0.084 0.102-0.083 0.102-0.082 0.104-0.081 0.105-0.08 0.107-0.079 0.108-0.078 0.109-0.077 0.111-0.076 0.112-0.075 0.114-0.074 0.115-0.073 0.116-0.072 0.118-0.071 0.119-0.07 0.121-0.069 0.122-0.067 0.123-0.067 0.125-0.066 0.127-0.064 0.128-0.064 0.129-0.062 0.131-0.061 0.266-0.12 0.136-0.058 0.137-0.056 0.138-0.056 0.141-0.055 0.141-0.053 0.143-0.052 0.145-0.052 0.147-0.05 0.147-0.048 0.15-0.048 0.151-0.047 0.153-0.045 0.154-0.044 0.156-0.043 0.158-0.042 0.159-0.04 0.161-0.04 0.163-0.038 0.164-0.037 0.166-0.035 0.168-0.035 0.169-0.033 0.172-0.032 0.172-0.031 0.175-0.029 0.176-0.028 0.178-0.027 0.18-0.026 0.182-0.024 0.183-0.023 0.185-0.022 0.187-0.02 0.189-0.019 0.19-0.018 0.192-0.017 0.194-0.015 0.196-0.014 0.198-0.012 0.2-0.011 0.201-0.01 0.204-9e-3h967.58l0.18 3e-3zm-967.73 1.498-0.168 6e-3 -0.19 0.01-0.189 0.01-0.187 0.012-0.185 0.013-0.182 0.014-0.181 0.016-0.179 0.016-0.177 0.018-0.175 0.02-0.173 0.02-0.171 0.021-0.17 0.023-0.167 0.024-0.165 0.025-0.164 0.026-0.162 0.027-0.16 0.029-0.158 0.029-0.156 0.031-0.154 0.032-0.153 0.032-0.151 0.034-0.148 0.035-0.148 0.036-0.145 0.037-0.143 0.038-0.142 0.039-0.141 0.04-0.138 0.041-0.137 0.042-0.135 0.043-0.133 0.044-0.131 0.045-0.13 0.046-0.129 0.047-0.126 0.048-0.125 0.049-0.124 0.049-0.242 0.102-0.119 0.053-0.116 0.053-0.116 0.054-0.114 0.055-0.113 0.056-0.111 0.056-0.11 0.058-0.108 0.059-0.107 0.059-0.105 0.06-0.104 0.061-0.103 0.061-0.101 0.063-0.099 0.063-0.099 0.064-0.098 0.066-0.095 0.065-0.095 0.067-0.093 0.067-0.092 0.069-0.091 0.069-0.09 0.069-0.088 0.071-0.087 0.071-0.086 0.073-0.085 0.073-0.084 0.074-0.083 0.074-0.162 0.152-0.079 0.077-0.078 0.078-0.077 0.078-0.077 0.08-0.074 0.08-0.075 0.081-0.073 0.082-0.072 0.082-0.071 0.084-0.07 0.084-0.069 0.085-0.068 0.086-0.068 0.087-0.066 0.087-0.13 0.178-0.064 0.09-0.124 0.182-0.061 0.093-0.06 0.093-0.059 0.094-0.058 0.095-0.058 0.096-0.112 0.194-0.055 0.098-0.054 0.099-0.053 0.1-0.053 0.101-0.052 0.102-0.05 0.102-0.05 0.103-0.05 0.104-0.048 0.105-0.048 0.106-0.047 0.106-0.046 0.108-0.09 0.216-0.043 0.11-0.086 0.222-0.041 0.112-0.041 0.113-0.04 0.113-0.078 0.23-0.038 0.116-0.037 0.116-0.037 0.117-0.105 0.357-0.033 0.12-0.017 0.061v70.572h991.64v-70.739l-0.01-0.134v-0.154l-0.02-0.152-0.01-0.15-0.01-0.148-0.01-0.146-0.02-0.144-0.02-0.142-0.01-0.14-0.02-0.138-0.03-0.136-0.02-0.134-0.02-0.133-0.03-0.13-0.03-0.129-0.03-0.126-0.03-0.125-0.03-0.123-0.03-0.121-0.04-0.12-0.03-0.117-0.04-0.116-0.04-0.114-0.04-0.113-0.04-0.11-0.04-0.109-0.04-0.108-0.05-0.105-0.04-0.105-0.05-0.102-0.05-0.101-0.05-0.099-0.05-0.098-0.05-0.097-0.05-0.095-0.06-0.094-0.05-0.091-0.06-0.091-0.06-0.09-0.06-0.088-0.06-0.087-0.12-0.17-0.07-0.083-0.06-0.081-0.07-0.081-0.06-0.079-0.07-0.079-0.07-0.077-0.08-0.076-0.07-0.075-0.07-0.074-0.08-0.073-0.07-0.072-0.08-0.071-0.16-0.138-0.08-0.068-0.08-0.067-0.09-0.065-0.08-0.065-0.09-0.064-0.09-0.063-0.09-0.062-0.09-0.061-0.09-0.06-0.1-0.059-0.09-0.058-0.1-0.057-0.2-0.112-0.1-0.054-0.1-0.053-0.11-0.053-0.1-0.051-0.11-0.051-0.11-0.05-0.11-0.049-0.22-0.094-0.12-0.046-0.11-0.045-0.12-0.044-0.12-0.043-0.24-0.084-0.12-0.04-0.13-0.039-0.12-0.038-0.13-0.038-0.26-0.072-0.26-0.068-0.13-0.033-0.28-0.062-0.13-0.03-0.14-0.029-0.14-0.027-0.15-0.027-0.14-0.026-0.14-0.025-0.3-0.048-0.14-0.022-0.15-0.021-0.16-0.02-0.15-0.02-0.15-0.018-0.16-0.018-0.15-0.016-0.16-0.016-0.32-0.028-0.16-0.013-0.16-0.012-0.16-0.011-0.16-0.01-0.17-0.01-0.17-8e-3 -0.16-7e-3 -0.17-7e-3 -0.17-6e-3 -0.34-8e-3 -0.18-3e-3 -0.17-2e-3h-967.54z" fill="#717171"/></g><g id="buttons" transform="matrix(.95099 0 0 1 48.557 0)"><path d="m1137.7 685.1c0-7.103-6.06-12.87-13.53-12.87h-119.88c-7.47 0-13.534 5.767-13.534 12.87v25.739c0 7.103 6.064 12.869 13.534 12.869h119.88c7.47 0 13.53-5.766 13.53-12.869v-25.739z" fill="#e8e8e8" stroke="#222420" stroke-width="3.07px"/><g transform="matrix(.99174 0 0 1 9.3367 0)"><path d="m1130 685.73c0-3.346-2.88-6.061-6.43-6.061h-52.98c-3.54 0-6.42 2.715-6.42 6.061v26.252c0 3.346 2.88 6.061 6.42 6.061h52.98c3.55 0 6.43-2.715 6.43-6.061v-26.252z" fill="#e8e8e8" stroke="#222420" stroke-width="2.57px"/></g><g transform="matrix(.98348 0 0 1 -49.252 0)"><path d="m1130 685.73c0-3.346-2.9-6.061-6.48-6.061h-52.87c-3.58 0-6.48 2.715-6.48 6.061v26.252c0 3.346 2.9 6.061 6.48 6.061h52.87c3.58 0 6.48-2.715 6.48-6.061v-26.252z" fill="#e8e8e8" stroke="#222420" stroke-width="2.07px"/></g></g><g id="Beschriftung" transform="translate(0 185.87)"><g id="wifi" stroke="#9d9d9b" stroke-width="1.5px"><path d="m1019.6 502.8c-5.99 6.103-4.95 11.344 0 16.105" fill="none"/><path d="m1037 502.8c4.41 5.759 4.28 11.115 0 16.105" fill="none"/><ellipse cx="1027.8" cy="510.54" rx="1.654" ry="1.591" fill="#9d9d9b"/><path d="m1023.6 506.9c-3.49 2.805-3.27 5.455 0 7.977" fill="none"/><path d="m1032.7 506.9c3.04 2.625 2.86 5.286 0 7.977" fill="none"/></g><g id="wifi secure" transform="translate(63.461)"><path d="m1019.6 502.8c-5.99 6.103-4.95 11.344 0 16.105" fill="none" stroke="#9d9d9b" stroke-width="1.5px"/><path d="m1037 502.8c4.41 5.759 4.28 11.115 0 16.105" fill="none" stroke="#9d9d9b" stroke-width="1.5px"/><g transform="translate(-1.7523)"><path d="m1023.6 506.9c-3.49 2.805-3.27 5.455 0 7.977" fill="none" stroke="#9d9d9b" stroke-width="1.5px"/></g><g transform="translate(-68.992)"><rect x="1091.5" y="518.16" width="11.528" height="5.96" fill="#9d9d9b" stroke="#9d9d9b" stroke-width="1.5px"/></g><g transform="translate(-68.992)"><path d="m1093.8 518.14v-4.549c0-3.188 6.76-3.248 6.76 0v4.549h-6.76z" fill="none" stroke="#9d9d9b" stroke-width="1.5px"/></g><g transform="translate(1.7873)"><path d="m1032.7 506.9c3.04 2.625 2.86 5.286 0 7.977" fill="none" stroke="#9d9d9b" stroke-width="1.5px"/></g></g><g id="usb" transform="translate(-1.1338)" stroke-width="1.5px"><ellipse cx="571.01" cy="512.69" rx="2.363" ry="2.68" fill="#9d9d9b" stroke="#9d9d9b"/><path d="m571.37 512.64h19.654l-1.919-1.938v3.741l1.919-1.803h-14.417c0.638-4.011 3.636-5.944 8.89-5.885h2.215l-2.215-1.788v3.73-1.942c-4.936-0.053-8.162 1.64-8.89 5.885 2.061 4.381 5.544 6.632 11.105 5.771v-1.963l1.393 1.963-1.393 2.049v-2.049" fill="none" stroke="#9d9d9b"/><path d="m587.71 506.84-2.215 1.853" fill="none" stroke="#aaaaa9"/></g><g id="online" stroke="#9d9d9b" stroke-width="1.5px"><ellipse cx="649.02" cy="512.28" rx="9.557" ry="9.754" fill="#fff"/><path d="m639.22 510.14c-4.376 2.859-5.008 5.266-3.967 6.704 2.978 4.24 10.461 2.936 17.662-4.869" fill="none"/></g><g id="wifi1" transform="translate(-513.82 1.7007)" stroke="#9d9d9b" stroke-width="1.5px"><path d="m1019.6 502.8c-5.99 6.103-4.95 11.344 0 16.105" fill="none"/><path d="m1037 502.8c4.41 5.759 4.28 11.115 0 16.105" fill="none"/><ellipse cx="1027.8" cy="510.54" rx="1.654" ry="1.591" fill="#9d9d9b"/><path d="m1023.6 506.9c-3.49 2.805-3.27 5.455 0 7.977" fill="none"/><path d="m1032.7 506.9c3.04 2.625 2.86 5.286 0 7.977" fill="none"/></g><g id="power"><g transform="translate(-.1464)"><ellipse cx="383.59" cy="513.47" rx="8.626" ry="8.604" fill="#fff" stroke="#717171" stroke-width="1.5px"/></g><g transform="translate(-.60928 -.50189)"><path d="m385.97 503.47c0-0.552-0.447-0.999-0.999-0.999h-1.997c-0.552 0-0.999 0.447-0.999 0.999v10.775c0 0.551 0.447 0.999 0.999 0.999h1.997c0.552 0 0.999-0.448 0.999-0.999v-10.775z" fill="#717171" stroke="#fff" stroke-width="1.5px"/></g></g></g><g id="net" transform="translate(-1.349 -1.598)"><path d="m703.4 699.43h17.698-8.512v-5.414 5.414h-4.138v5.549-5.549h8.515v5.549" fill="none" stroke="#9d9d9b" stroke-width="1.5px"/><g transform="translate(-.22361)"><rect x="710.39" y="691.09" width="4.838" height="2.974" fill="#9d9d9b" stroke="#9d9d9b" stroke-linecap="square" stroke-linejoin="miter" stroke-width="1.5px"/></g><g transform="translate(4.2082 14.207)"><rect x="710.39" y="691.09" width="4.838" height="2.974" fill="#9d9d9b" stroke="#9d9d9b" stroke-linecap="square" stroke-linejoin="miter" stroke-width="1.5px"/></g><g transform="translate(-4.4104 14.207)"><rect x="710.39" y="691.09" width="4.838" height="2.974" fill="#9d9d9b" stroke="#9d9d9b" stroke-linecap="square" stroke-linejoin="miter" stroke-width="1.5px"/></g></g><g id="led"><g transform="translate(-.56074 .66674)"><path d="m386.86 739.79c0-0.174-0.141-0.314-0.314-0.314h-6.353c-0.173 0-0.314 0.14-0.314 0.314v10.355c0 0.173 0.141 0.314 0.314 0.314h6.353c0.173 0 0.314-0.141 0.314-0.314v-10.355z" fill="#a0b638" stroke="#3d6237" stroke-width="1.5px"/></g><g transform="translate(130.87 .66674)"><path d="m386.86 739.79c0-0.174-0.141-0.314-0.314-0.314h-6.353c-0.173 0-0.314 0.14-0.314 0.314v10.355c0 0.173 0.141 0.314 0.314 0.314h6.353c0.173 0 0.314-0.141 0.314-0.314v-10.355z" fill="#93b5da" stroke="#47557e" stroke-width="1.5px"/></g><g transform="translate(197.35 .66674)"><path d="m386.86 739.79c0-0.174-0.141-0.314-0.314-0.314h-6.353c-0.173 0-0.314 0.14-0.314 0.314v10.355c0 0.173 0.141 0.314 0.314 0.314h6.353c0.173 0 0.314-0.141 0.314-0.314v-10.355z" fill="#a0b638" stroke="#3d6237" stroke-width="1.5px"/></g><g transform="translate(263.37 .66674)"><path d="m386.86 739.79c0-0.174-0.141-0.314-0.314-0.314h-6.353c-0.173 0-0.314 0.14-0.314 0.314v10.355c0 0.173 0.141 0.314 0.314 0.314h6.353c0.173 0 0.314-0.141 0.314-0.314v-10.355z" fill="#a0b638" stroke="#3d6237" stroke-width="1.5px"/></g><g transform="translate(329.51 .66674)"><path d="m386.86 739.79c0-0.174-0.141-0.314-0.314-0.314h-6.353c-0.173 0-0.314 0.14-0.314 0.314v10.355c0 0.173 0.141 0.314 0.314 0.314h6.353c0.173 0 0.314-0.141 0.314-0.314v-10.355z" fill="#a0b638" stroke="#3d6237" stroke-width="1.5px"/></g><g transform="translate(644.37 .66674)"><path d="m386.86 739.79c0-0.174-0.141-0.314-0.314-0.314h-6.353c-0.173 0-0.314 0.14-0.314 0.314v10.355c0 0.173 0.141 0.314 0.314 0.314h6.353c0.173 0 0.314-0.141 0.314-0.314v-10.355z" fill="#a0b638" stroke="#3d6237" stroke-width="1.5px"/></g><g transform="translate(707.8 .66674)"><path d="m386.86 739.79c0-0.174-0.141-0.314-0.314-0.314h-6.353c-0.173 0-0.314 0.14-0.314 0.314v10.355c0 0.173 0.141 0.314 0.314 0.314h6.353c0.173 0 0.314-0.141 0.314-0.314v-10.355z" fill="#a0b638" stroke="#3d6237" stroke-width="1.5px"/></g></g></g></svg>
