<svg xmlns="http://www.w3.org/2000/svg" viewBox="0 0 1600 1437.5" height="1437.5" width="1600"><path d="M162.615 957.125h1309.9V802.358h-1309.9v154.767z" fill="#fff" fill-rule="evenodd" stroke="#000" stroke-miterlimit="10" stroke-width="1.25"/><path d="M1403.25 968.465h61.694v-10.514h-61.694v10.514zM132.289 968.465h61.694v-10.514h-61.694v10.514z" fill-rule="evenodd" stroke="#000" stroke-miterlimit="10" stroke-width="1.25"/><path d="M81.09 950.652h99.445v-40.836H81.09v40.836zM1424.787 950.652h99.445v-40.836h-99.444v40.836z" fill="#fff" fill-rule="evenodd" stroke="#000" stroke-width="3.75" stroke-miterlimit="10"/><path d="M56.679 965.905h1488.125v-18.654H56.679v18.654z" fill="#fff" fill-rule="evenodd" stroke="#000" stroke-width="3.75" stroke-miterlimit="10"/><path d="M134.328 781.055h1338.047c-446.019-46.739-892.036-43.079-1338.047 0z" fill="#e8e8e8" fill-rule="evenodd" stroke="#000" stroke-width="3.75" stroke-miterlimit="10"/><path d="M57.131 925.212h107.785c8.533 0 15.523-4.242 15.523-12.39v-87.875c2.366-9.323 8.902-12.59 17.549-12.792h1206.15c13.524-.637 20.087 3.759 20.237 12.793v89.873c0 4.246 3.887 10.391 10.387 10.391H1541.5V781.055H57.131v144.157z" fill="#fff" fill-rule="evenodd" stroke="#010000" stroke-width="3.125" stroke-miterlimit="10"/><path d="M180.748 824.947c1.837-7.025 6.345-12.1 17.24-12.513h1209.475c9.712.099 16.262 3.269 16.587 12.514v90.336H180.748v-90.336z" fill="#fff" fill-rule="evenodd"/><path d="M1407.688 812.438l.237.003.213.005.225.006.224.008.225.009.213.01.225.011.212.011.225.014.213.015.212.015.213.018.213.018.212.019.2.021.213.021.2.024.212.025.2.025.2.028.2.028.2.03.2.032.2.032.188.034.2.035.187.036.188.038.2.04.187.04.188.042.175.043.187.045.188.046.175.047.187.05.175.05.175.053.175.052.175.055.175.057.163.058.175.06.162.06.163.063.162.064.175.065.15.067.163.069.162.07.15.071.163.074.15.074.15.077.15.078.15.08.15.081.137.082.15.084.138.086.137.088.138.09.137.091.138.093.137.095.125.095.125.098.138.1.125.1.125.104.112.104.125.107.125.108.113.11.112.111.113.114.112.115.113.117.112.12.1.12.1.123.113.124.1.126.087.129.1.13.1.131.088.134.087.135.1.137.088.14.075.141.087.143.075.145.088.147.075.15.075.15.075.153.062.155.075.156.063.159.075.161.062.163.05.165.063.166.062.169.05.171.05.172.05.175.05.177.05.18.038.181.05.182.037.185.038.188.037.19.025.191.038.194.025.196.025.199.025.2.025.202.025.204.012.208.013.208.012.212.013.212.012.216v90.337H180.748v-90.337l.043-.165.045-.163.045-.163.047-.161.047-.163.049-.16.05-.16.051-.158.051-.159.053-.158.054-.156.055-.156.056-.155.057-.155.059-.153.059-.152.061-.153.061-.15.064-.15.064-.15.065-.148.066-.148.069-.146.069-.146.07-.145.07-.144.073-.143.074-.142.076-.141.077-.14.077-.139.079-.139.081-.137.081-.137.084-.135.084-.135.086-.132.088-.133.088-.132.09-.13.092-.129.092-.129.094-.127.096-.126.098-.125.097-.124.1-.124.103-.121.102-.121.105-.12.105-.119.108-.118.11-.116.11-.115.112-.115.114-.112.115-.113.117-.11.118-.11.12-.109.122-.107.123-.105.125-.105.127-.104.128-.102.13-.102.131-.1.134-.098.135-.098.136-.096.139-.095.14-.094.142-.092.144-.092.145-.09.148-.088.148-.088.152-.086.152-.084.154-.084.156-.082.159-.08.16-.08.161-.078.164-.076.166-.075.166-.075.17-.072.172-.07.172-.07.176-.069.177-.066.178-.065.182-.065.183-.063.184-.06.188-.06.188-.059.192-.056.192-.055.195-.054.198-.052.198-.05.202-.05.203-.048.205-.046.208-.044.21-.043.211-.042.215-.04.215-.038.219-.037.22-.035.222-.033.225-.033.228-.03.229-.029.23-.027.235-.025.236-.024.237-.022.24-.022.243-.018.245-.018.247-.015.25-.014.252-.012.255-.011h1209.475l.225.003zM198.025 814.31l-.21.007-.237.013-.237.013-.233.015-.232.016-.227.017-.226.02-.224.02-.221.023-.219.025-.216.025-.214.026-.213.029-.208.03-.207.031-.205.033-.202.033-.2.037-.198.036-.195.039-.192.04-.191.04-.189.042-.185.044-.185.045-.181.046-.179.048-.178.048-.176.05-.172.052-.172.052-.168.054-.167.055-.163.056-.163.057-.161.06-.158.06-.156.06-.155.062-.151.063-.151.064-.149.067-.145.066-.145.067-.143.069-.14.07-.14.07-.137.073-.135.073-.134.074-.131.075-.13.076-.129.077-.126.078-.124.079-.124.08-.122.083-.119.08-.119.085-.116.083-.115.087-.114.086-.112.086-.11.089-.109.088-.107.092-.107.091-.105.092-.103.093-.102.095-.1.095-.1.096-.097.098-.096.097-.097.1-.092.1-.094.101-.091.103-.09.102-.089.105-.087.105-.087.107-.085.107-.085.109-.082.109-.081.111-.082.111-.08.113-.077.113-.078.114-.076.116-.075.117-.074.117-.072.119-.073.12-.07.121-.07.121-.068.123-.068.124-.066.125-.066.126-.065.127-.063.128-.062.129-.063.13-.06.131-.06.133-.059.132-.057.135-.056.135-.057.135-.053.138-.054.138-.054.139-.051.14-.051.141-.05.142-.049.143-.049.144-.047.145-.047.145-.046.146-.044.149-.043.149-.044.148-.041.15-.022.077v88.215h1239.553v-88.424l-.013-.168-.012-.192v-.19l-.025-.188-.013-.185-.012-.182-.025-.18-.025-.178-.013-.175-.025-.172-.037-.17-.025-.168-.025-.166-.038-.162-.037-.162-.038-.157-.037-.156-.038-.154-.037-.151-.05-.15-.038-.147-.05-.145-.05-.142-.05-.141-.05-.138-.05-.136-.05-.135-.062-.131-.05-.132-.062-.127-.063-.126-.062-.124-.063-.123-.062-.12-.063-.12-.075-.117-.062-.114-.075-.114-.075-.112-.075-.11-.075-.109-.075-.106-.076-.106-.087-.104-.075-.101-.088-.102-.075-.098-.087-.099-.088-.096-.087-.095-.1-.094-.088-.093-.1-.09-.087-.09-.1-.09-.1-.086-.1-.086-.1-.085-.1-.084-.113-.081-.1-.081-.112-.08-.112-.079-.113-.078-.112-.076-.113-.075-.125-.074-.112-.072-.125-.071-.125-.07-.125-.07-.125-.068-.125-.066-.138-.066-.125-.064-.137-.064-.138-.062-.137-.062-.138-.058-.138-.059-.15-.058-.137-.056-.15-.055-.15-.054-.15-.052-.15-.053-.15-.05-.163-.048-.15-.048-.162-.047-.163-.045-.162-.045-.163-.043-.162-.042-.163-.042-.175-.038-.174-.039-.163-.038-.175-.036-.175-.034-.187-.033-.175-.033-.175-.031-.188-.03-.187-.03-.188-.028-.175-.026-.2-.025-.187-.025-.188-.022-.2-.023-.187-.02-.2-.02-.2-.017-.2-.018-.2-.016-.2-.015-.2-.014-.213-.012-.2-.013-.213-.01-.2-.009-.212-.008-.213-.008-.212-.005-.225-.005-.213-.004-.212-.002H198.026z" fill="#717171" fill-rule="evenodd"/><path d="M1413.088 856.375c0-8.879-7.213-16.087-16.088-16.087h-142.5c-8.884 0-16.093 7.208-16.093 16.087v32.174c0 8.879 7.21 16.086 16.093 16.086H1397c8.875 0 16.087-7.207 16.087-16.086v-32.174z" fill="#e8e8e8" fill-rule="evenodd" stroke="#222420" stroke-width="3.75" stroke-miterlimit="10"/><path d="M1404 857.158a7.574 7.574 0 0 0-7.575-7.577h-62.462c-4.176 0-7.576 3.394-7.576 7.577v32.815c0 4.182 3.4 7.576 7.575 7.576h62.463a7.574 7.574 0 0 0 7.575-7.576v-32.815z" fill="#e8e8e8" fill-rule="evenodd" stroke="#222420" stroke-width="3.125" stroke-miterlimit="10"/><path d="M1323.262 857.158c0-4.183-3.4-7.577-7.575-7.577h-61.812c-4.188 0-7.583 3.394-7.583 7.577v32.815c0 4.182 3.395 7.576 7.583 7.576h61.812c4.175 0 7.575-3.394 7.575-7.576v-32.815z" fill="#e8e8e8" fill-rule="evenodd" stroke="#222420" stroke-width="2.5" stroke-miterlimit="10"/><path d="M1274.463 860.832c-7.488 7.63-6.188 14.18 0 20.132M1296.263 860.832c5.537 7.198 5.362 13.894 0 20.132" fill="none" stroke="#9d9d9b" stroke-width="1.875" stroke-miterlimit="10"/><path d="M1284.7 868.521c1.137 0 2.063.892 2.063 1.989s-.925 1.989-2.063 1.989c-1.15 0-2.075-.892-2.075-1.989s.925-1.989 2.075-1.989z" fill="#9d9d9b" fill-rule="evenodd" stroke="#9d9d9b" stroke-width="1.875" stroke-miterlimit="10"/><path d="M1279.5 865.957c-4.363 3.507-4.1 6.82 0 9.972M1290.925 865.957c3.8 3.282 3.575 6.608 0 9.972M1353.787 860.832c-7.487 7.63-6.187 14.18 0 20.132M1375.6 860.832c5.525 7.198 5.35 13.894 0 20.132M1356.637 865.957c-4.362 3.507-4.1 6.82 0 9.972" fill="none" stroke="#9d9d9b" stroke-width="1.875" stroke-miterlimit="10"/><path d="M1357.475 887.487h14.41v-7.45h-14.41v7.45z" fill="#9d9d9b" fill-rule="evenodd" stroke="#9d9d9b" stroke-width="1.875" stroke-miterlimit="10"/><path d="M1360.4 880.009v-5.687c0-3.985 8.437-4.06 8.437 0v5.687h-8.437zM1372.487 865.957c3.8 3.282 3.575 6.608 0 9.972" fill="none" stroke="#9d9d9b" stroke-width="1.875" stroke-miterlimit="10"/><path d="M712.34 869.851c1.63 0 2.954 1.501 2.954 3.35 0 1.849-1.324 3.35-2.954 3.35-1.63 0-2.954-1.501-2.954-3.35 0-1.849 1.324-3.35 2.954-3.35z" fill="#9d9d9b" fill-rule="evenodd" stroke="#9d9d9b" stroke-width="1.875" stroke-miterlimit="10"/><path d="M712.793 873.138h24.566l-2.398-2.423v4.676l2.398-2.253h-18.022c.798-5.014 4.545-7.43 11.113-7.357h2.769l-2.769-2.235v4.663-2.428c-6.17-.066-10.203 2.05-11.113 7.357 2.577 5.475 6.93 8.29 13.882 7.213v-2.453l1.742 2.453-1.742 2.56v-2.56" fill="none" stroke="#9d9d9b" stroke-width="1.875" stroke-miterlimit="10"/><path d="M733.219 865.893l-2.769 2.316" fill="none" stroke="#aaaaa9" stroke-width="1.875" stroke-miterlimit="10"/><path d="M811.274 860.491c6.594 0 11.946 5.464 11.946 12.194 0 6.729-5.353 12.192-11.946 12.192s-11.946-5.463-11.946-12.192c0-6.73 5.353-12.194 11.946-12.194z" fill="#fff" fill-rule="evenodd" stroke="#9d9d9b" stroke-width="1.875" stroke-miterlimit="10"/><path d="M799.027 870.01c-5.47 3.573-6.26 6.582-4.958 8.38 3.722 5.3 13.076 3.67 22.077-6.086M632.188 862.959c-7.492 7.627-6.195 14.18 0 20.131M653.99 862.959c5.526 7.197 5.356 13.892 0 20.131" fill="none" stroke="#9d9d9b" stroke-width="1.875" stroke-miterlimit="10"/><path d="M642.416 870.646c1.141 0 2.068.892 2.068 1.99 0 1.098-.927 1.989-2.068 1.989s-2.069-.891-2.069-1.989.928-1.99 2.07-1.99z" fill="#9d9d9b" fill-rule="evenodd" stroke="#9d9d9b" stroke-width="1.875" stroke-miterlimit="10"/><path d="M637.227 868.084c-4.363 3.506-4.1 6.819 0 9.97M648.649 868.084c3.802 3.28 3.572 6.606 0 9.97" fill="none" stroke="#9d9d9b" stroke-width="1.875" stroke-miterlimit="10"/><path d="M479.309 863.424c5.95 0 10.782 4.818 10.782 10.755 0 5.935-4.832 10.755-10.782 10.755-5.951 0-10.783-4.82-10.783-10.755 0-5.937 4.831-10.755 10.783-10.755z" fill="#fff" fill-rule="evenodd" stroke="#717171" stroke-width="1.875" stroke-miterlimit="10"/><path d="M481.705 861.048c0-.69-.56-1.25-1.249-1.25h-2.497a1.25 1.25 0 0 0-1.249 1.25v13.468c0 .689.56 1.249 1.249 1.249h2.497a1.25 1.25 0 0 0 1.249-1.249v-13.468z" fill="#717171" fill-rule="evenodd" stroke="#fff" stroke-width="1.875" stroke-miterlimit="10"/><path d="M877.565 872.295h22.123-10.64v-6.767 6.767h-5.173v6.936-6.936h10.644v6.936" fill="none" stroke="#9d9d9b" stroke-width="1.875" stroke-miterlimit="10"/><path d="M886.026 865.581h6.048v-3.718h-6.048v3.718zM891.566 883.34h6.048v-3.718h-6.048v3.718zM880.794 883.34h6.047v-3.718h-6.047v3.718z" fill="#9d9d9b" fill-rule="evenodd" stroke="#9d9d9b" stroke-width="1.875" stroke-miterlimit="10"/><path d="M482.879 925.57a.393.393 0 0 0-.393-.393h-7.941a.393.393 0 0 0-.393.393v12.944c0 .217.177.392.393.392h7.941a.392.392 0 0 0 .393-.392V925.57z" fill="#a0b638" fill-rule="evenodd" stroke="#3d6237" stroke-width="1.875" stroke-miterlimit="10"/><path d="M647.164 925.57a.392.392 0 0 0-.393-.393h-7.941a.393.393 0 0 0-.393.393v12.944c0 .217.177.392.393.392h7.941a.392.392 0 0 0 .393-.392V925.57z" fill="#93b5da" fill-rule="evenodd" stroke="#47557e" stroke-width="1.875" stroke-miterlimit="10"/><path d="M730.265 925.57a.393.393 0 0 0-.393-.393h-7.94a.393.393 0 0 0-.393.393v12.944c0 .217.176.392.392.392h7.941a.392.392 0 0 0 .393-.392V925.57zM812.79 925.57a.393.393 0 0 0-.393-.393h-7.94a.393.393 0 0 0-.393.393v12.944c0 .217.176.392.392.392h7.941a.392.392 0 0 0 .393-.392V925.57zM895.462 925.57a.393.393 0 0 0-.392-.393h-7.941a.393.393 0 0 0-.393.393v12.944c0 .217.176.392.393.392h7.941a.392.392 0 0 0 .392-.392V925.57zM1289.037 925.57a.391.391 0 0 0-.387-.393h-7.938c-.225 0-.4.177-.4.393v12.944c0 .217.175.392.4.392h7.938a.39.39 0 0 0 .387-.392V925.57zM1368.325 925.57a.391.391 0 0 0-.388-.393h-7.95a.391.391 0 0 0-.387.393v12.944a.39.39 0 0 0 .388.392h7.95a.39.39 0 0 0 .387-.392V925.57z" fill="#a0b638" fill-rule="evenodd" stroke="#3d6237" stroke-width="1.875" stroke-miterlimit="10"/></svg>