<svg xmlns="http://www.w3.org/2000/svg" viewBox="0 0 1600 1437.5" height="1437.5" width="1600"><path d="M358.136 336.57h916.401l111.488 111.485v590.57c-38.988 37.016-75.988 69.677-97.313 68.138H138.914V523.089l162.165-162.752c18.273-17.243 36.891-23.767 57.057-23.767z" fill="#e0ba2e" fill-rule="evenodd" stroke="#000" stroke-width="3.75" stroke-miterlimit="10"/><path d="M305.464 992.344h-108.4l-32.313-62.375V557.34h27.086v-29.881H150.92v546.276l13.831 25.928h140.713v-30.94h-94.25l-14.15-14.96v-28.456h108.4v-32.963z" fill="#ffe9ae" fill-rule="evenodd" stroke="#2c2c49" stroke-miterlimit="10" stroke-width="1.25"/><path d="M301.079 1054.974v47.645h38.151v-47.645h1027.007l18.488-17.456V448.793l-58.05-57.515H339.23v-47.865h-7.74l-30.411 27.22v684.34z" fill="#a3377c" fill-rule="evenodd" stroke="#000" stroke-width="1" stroke-miterlimit="10"/><path d="M433.85 688.056c0-19.22-15.604-34.823-34.824-34.823h-29.672c-19.22 0-34.825 15.603-34.825 34.823v27.772c0 19.22 15.605 34.825 34.825 34.825h29.672c19.22 0 34.824-15.605 34.824-34.825v-27.772z" fill="#f0e8af" fill-rule="evenodd"/><path d="M399.251 653.233l.225.002.224.004.225.005.223.006.223.008.224.008.223.012.22.012.223.013.222.015.22.016.222.017.22.019.22.02.22.023.219.022.219.024.218.026.218.028.217.027.218.03.216.031.216.033.217.034.215.035.215.036.215.037.213.039.214.041.213.042.213.042.212.044.212.046.211.046.21.049.211.049.21.05.21.052.208.053.209.055.207.055.208.057.206.058.206.06.206.06.206.062.205.063.203.064.204.066.203.066.202.068.203.07.2.07.202.07.2.073.2.074.199.075.199.076.197.078.198.079.196.08.196.08.196.082.195.084.194.085.194.085.194.086.192.088.191.09.192.09.19.09.19.092.19.094.188.095.188.095.187.097.188.098.186.099.185.1.185.1.184.103.182.103.184.105.181.105.182.106.18.108.18.108.18.11.178.112.178.11.176.113.176.114.177.115.175.116.173.117.174.118.173.119.17.12.172.12.17.123.17.122.169.124.167.125.168.126.166.128.166.127.165.129.164.13.164.13.162.132.162.133.16.134.16.133.16.137.158.136.158.137.156.138.156.14.155.14.154.14.154.142.152.143.152.144.15.145.15.145.15.147.148.146.148.149.146.149.145.15.145.151.144.151.142.153.143.154.14.153.14.155.14.157.137.156.138.157.136.159.136.159.134.16.134.161.132.163.133.16.13.165.13.163.129.165.127.167.128.166.126.167.125.168.124.169.122.17.122.17.12.17.12.172.12.173.118.173.116.174.116.175.115.176.114.177.113.176.111.177.111.179.11.18.109.179.107.181.107.181.105.182.105.183.102.183.103.184.101.185.1.185.099.186.097.187.098.188.095.187.095.189.094.189.09.19.092.191.09.191.09.192.088.192.086.194.086.194.084.193.084.195.08.197.082.196.08.196.079.198.077.197.077.199.075.199.073.2.073.2.071.2.07.202.07.203.068.202.066.203.066.203.064.204.062.205.063.205.06.206.06.207.057.206.058.207.055.208.055.209.052.208.053.21.05.209.049.211.048.21.047.212.046.212.044.211.042.214.043.213.04.213.038.214.038.215.036.215.035.215.034.216.032.217.032.216.03.217.027.218.028.217.026.219.024.219.022.218.023.22.02.22.018.22.018.222.016.221.015.221.014.223.011.221.011.223.009.223.008.224.006.224.005.224.004.223.002.225v28.222l-.002.225-.004.223-.005.225-.006.224-.008.223-.009.223-.011.223-.011.222-.014.222-.015.22-.016.222-.018.221-.018.22-.02.22-.023.22-.022.219-.024.219-.026.219-.028.217-.027.218-.03.217-.032.216-.032.217-.034.216-.035.215-.036.215-.038.215-.038.214-.04.213-.043.214-.042.213-.044.212-.046.211-.047.212-.048.21-.05.21-.05.21-.052.21-.052.208-.055.209-.055.208-.058.207-.057.206-.06.207-.06.206-.063.205-.062.205-.064.204-.066.203-.066.203-.068.202-.07.203-.07.201-.071.201-.073.2-.073.2-.075.199-.077.199-.077.197-.079.198-.08.196-.081.196-.081.197-.084.195-.084.193-.086.194-.086.194-.088.192-.09.192-.09.19-.091.192-.091.19-.094.189-.095.189-.095.188-.098.187-.097.187-.099.186-.1.185-.101.185-.103.184-.102.184-.105.182-.105.182-.107.18-.107.182-.109.18-.11.179-.111.179-.111.177-.113.176-.114.177-.115.176-.116.175-.116.173-.119.174-.119.173-.12.171-.12.171-.122.17-.122.17-.124.169-.125.168-.126.167-.128.166-.128.167-.128.165-.13.163-.13.164-.133.163-.132.16-.134.162-.134.16-.136.159-.136.159-.138.157-.137.156-.14.157-.14.155-.14.153-.143.154-.142.153-.144.15-.145.152-.145.15-.146.149-.148.149-.148.147-.15.146-.15.145-.15.145-.152.144-.152.143-.154.142-.154.141-.155.14-.156.139-.156.139-.158.136-.158.138-.16.135-.16.135-.16.132-.162.134-.162.131-.164.13-.164.13-.165.129-.166.128-.166.127-.168.126-.167.125-.169.124-.17.122-.17.123-.171.12-.171.12-.173.12-.174.117-.173.116-.175.117-.177.115-.176.113-.176.113-.178.112-.178.11-.18.11-.18.11-.18.107-.182.106-.181.105-.184.105-.182.102-.184.103-.185.101-.185.1-.186.099-.188.097-.187.098-.188.095-.188.095-.19.094-.19.092-.19.09-.192.091-.191.09-.192.087-.194.086-.194.086-.194.084-.195.084-.196.081-.196.081-.196.08-.198.079-.198.077-.198.077-.199.075-.2.073-.2.073-.201.071-.201.07-.203.07-.203.068-.202.066-.204.066-.204.064-.205.064-.205.061-.206.06-.206.06-.206.057-.208.058-.207.055-.209.055-.209.052-.21.053-.208.05-.212.05-.21.047-.211.047-.212.046-.212.044-.213.042-.213.043-.214.04-.213.038-.215.038-.215.036-.215.035-.217.034-.216.032-.216.032-.218.03-.217.028-.218.027-.218.026-.22.024-.218.023-.22.022-.22.02-.22.018-.221.018-.221.016-.222.015-.222.014-.221.011-.223.011-.224.01-.223.007-.223.006-.225.005-.224.004-.225.002-.225.001H369.13l-.225-.003-.225-.004-.224-.005-.224-.006-.224-.008-.222-.009-.223-.01-.222-.012-.221-.014-.223-.015-.221-.016-.22-.018-.22-.018-.22-.02-.22-.022-.219-.023-.219-.024-.218-.026-.219-.027-.218-.028-.216-.03-.217-.032-.217-.032-.215-.034-.216-.035-.215-.036-.214-.038-.213-.038-.214-.04-.214-.043-.212-.042-.213-.044-.211-.046-.211-.047-.212-.047-.21-.05-.21-.05-.208-.053-.209-.052-.209-.055-.207-.055-.208-.058-.207-.057-.207-.06-.205-.06-.205-.061-.205-.064-.203-.064-.204-.066-.204-.066-.202-.068-.202-.07-.2-.07-.202-.071-.2-.073-.2-.073-.199-.075-.199-.077-.197-.077-.198-.079-.197-.08-.196-.081-.195-.081-.195-.084-.195-.084-.194-.086-.193-.086-.192-.088-.193-.089-.19-.09-.19-.09-.19-.093-.19-.094-.188-.095-.189-.095-.188-.098-.186-.097-.186-.099-.185-.1-.185-.101-.184-.103-.184-.102-.182-.105-.183-.105-.18-.106-.18-.108-.18-.109-.18-.11-.178-.11-.178-.112-.177-.113-.177-.113-.175-.115-.175-.117-.173-.116-.174-.117-.173-.12-.17-.12-.172-.12-.171-.123-.169-.122-.169-.124-.168-.125-.167-.126-.167-.127-.165-.128-.165-.129-.164-.13-.164-.13-.162-.131-.162-.134-.16-.133-.16-.135-.16-.135-.158-.137-.158-.136-.157-.139-.155-.139-.155-.14-.155-.141-.153-.143-.152-.142-.153-.144-.15-.145-.15-.145-.15-.146-.147-.147-.148-.15-.146-.148-.145-.15-.145-.151-.144-.151-.142-.153-.143-.154-.141-.153-.14-.155-.139-.157-.138-.156-.138-.157-.136-.16-.135-.158-.135-.16-.134-.161-.132-.161-.132-.163-.131-.164-.13-.163-.129-.165-.127-.167-.126-.166-.127-.168-.125-.167-.123-.169-.123-.17-.122-.17-.122-.171-.12-.171-.118-.173-.118-.173-.117-.174-.115-.175-.115-.176-.114-.177-.113-.176-.112-.177-.11-.18-.11-.178-.109-.18-.107-.181-.107-.181-.106-.182-.104-.182-.103-.184-.102-.184-.101-.185-.1-.185-.099-.186-.098-.187-.097-.187-.096-.188-.094-.19-.093-.188-.093-.19-.091-.191-.09-.191-.089-.192-.087-.192-.088-.194-.085-.194-.084-.193-.083-.195-.083-.197-.08-.196-.08-.196-.079-.198-.077-.197-.076-.199-.075-.199-.074-.2-.073-.2-.071-.201-.071-.201-.069-.203-.067-.202-.068-.203-.065-.203-.064-.204-.063-.205-.062-.205-.061-.206-.059-.207-.058-.206-.057-.207-.056-.208-.054-.209-.053-.208-.052-.21-.05-.21-.05-.21-.047-.21-.048-.212-.045-.211-.043-.212-.044-.213-.041-.214-.04-.213-.04-.214-.037-.215-.037-.215-.035-.215-.034-.216-.031-.217-.031-.216-.03-.217-.03-.218-.025-.217-.027-.22-.023-.218-.024-.219-.021-.22-.02-.22-.02-.22-.018-.221-.015-.221-.015-.221-.014-.222-.012-.222-.01-.223-.009-.223-.009-.223-.006-.224-.005-.225-.004-.223-.001-.225-.001-.225v-27.772l.001-.225.001-.225.004-.223.005-.224.006-.224.009-.224.009-.223.01-.223.012-.221.014-.223.015-.221.015-.221.019-.221.019-.22.02-.22.02-.22.025-.22.023-.218.027-.219.026-.217.029-.218.03-.217.03-.216.032-.217.034-.216.035-.215.037-.215.038-.215.039-.214.04-.213.04-.213.045-.214.043-.211.045-.212.048-.212.047-.21.05-.211.05-.209.052-.21.053-.208.054-.21.056-.207.057-.207.058-.206.059-.207.061-.206.062-.205.063-.205.064-.204.065-.203.068-.203.067-.202.069-.203.071-.201.071-.201.073-.2.074-.2.075-.2.076-.198.077-.197.079-.198.08-.196.08-.196.083-.197.083-.195.084-.193.085-.194.088-.194.087-.192.089-.192.09-.191.091-.191.093-.19.093-.189.094-.189.096-.187.097-.188.098-.187.099-.186.1-.185.101-.185.102-.184.103-.183.104-.183.106-.182.107-.181.107-.181.109-.179.11-.18.11-.179.112-.177.113-.176.114-.177.115-.176.115-.175.117-.174.118-.173.118-.173.12-.171.122-.171.122-.17.123-.17.123-.17.125-.167.127-.167.126-.166.127-.167.129-.165.13-.163.131-.164.132-.161.132-.163.134-.161.135-.16.135-.159.136-.159.138-.157.138-.156.139-.157.14-.155.141-.153.143-.154.142-.153.144-.151.145-.151.145-.15.146-.149.148-.149.147-.146.15-.147.15-.145.15-.145.153-.144.152-.143.153-.142.155-.14.155-.14.155-.14.157-.138.158-.137.158-.136.16-.137.16-.133.16-.134.162-.133.162-.132.164-.13.164-.13.165-.129.165-.127.167-.128.167-.126.168-.125.169-.124.169-.122.171-.123.171-.12.171-.12.173-.119.174-.118.173-.117.175-.116.175-.115.177-.114.177-.112.178-.111.178-.112.18-.11.18-.108.18-.108.18-.106.183-.105.182-.105.184-.103.184-.102.185-.101.185-.1.186-.1.186-.097.188-.097.189-.095.187-.095.19-.094.19-.091.19-.091.191-.09.193-.09.192-.088.193-.086.194-.085.195-.085.195-.084.195-.081.196-.081.197-.08.198-.08.197-.077.2-.076.198-.075.2-.074.2-.072.201-.071.201-.07.202-.07.202-.068.204-.066.204-.066.203-.064.205-.063.205-.062.205-.06.207-.06.207-.058.208-.057.207-.055.209-.055.209-.053.208-.052.21-.05.21-.049.212-.049.211-.046.211-.046.213-.044.212-.042.214-.042.214-.041.213-.039.214-.037.215-.036.216-.035.215-.034.217-.033.217-.031.216-.03.218-.027.219-.028.218-.026.22-.024.218-.022.22-.023.22-.02.22-.019.22-.017.221-.016.223-.015.221-.013.222-.012.223-.012.222-.008.224-.008.224-.006.224-.005.225-.004.225-.002H399.25zm-29.888 6.25h-.194l-.185.002-.186.003-.184.003-.185.005-.183.007-.183.008-.184.008-.183.01-.181.011-.182.013-.183.013-.181.014-.181.015-.18.018-.18.017-.18.019-.18.02-.18.021-.18.023-.178.022-.176.025-.178.025-.177.026-.178.029-.176.029-.176.029-.178.03-.175.033-.173.033-.175.034-.174.035-.175.036-.174.037-.172.039-.173.039-.172.04-.173.042-.171.043-.17.042-.173.045-.168.045-.17.047-.17.048-.17.049-.167.049-.168.051-.168.051-.166.053-.168.054-.166.055-.166.055-.165.057-.164.056-.166.059-.164.06-.162.06-.165.063-.162.062-.162.063-.161.065-.163.065-.16.066-.16.067-.16.068-.16.07-.159.07-.157.071-.158.071-.159.074-.155.074-.156.074-.157.076-.155.076-.154.078-.154.078-.154.079-.153.081-.153.082-.152.08-.152.085-.15.083-.15.085-.15.085-.15.087-.148.087-.149.089-.147.089-.147.09-.146.09-.146.092-.145.093-.145.093-.144.094-.144.095-.144.096-.14.097-.143.098-.141.098-.14.1-.14.1-.14.101-.138.101-.139.103-.136.104-.138.103-.136.105-.135.107-.135.106-.134.107-.133.108-.133.11-.132.11-.133.11-.13.111-.13.113-.13.112-.129.114-.128.115-.127.115-.126.115-.126.117-.126.118-.124.117-.125.119-.123.12-.122.12-.123.121-.12.122-.12.122-.12.124-.118.124-.119.125-.118.125-.116.126-.116.126-.115.128-.114.128-.114.129-.113.129-.112.13-.11.131-.112.131-.11.133-.109.132-.109.134-.106.135-.107.134-.105.136-.105.135-.105.138-.104.137-.103.138-.1.138-.1.139-.1.14-.1.141-.1.142-.097.14-.096.143-.097.143-.095.144-.095.143-.092.145-.093.145-.092.147-.091.146-.089.147-.09.148-.088.147-.087.149-.088.15-.085.15-.084.15-.084.151-.083.152-.082.152-.081.151-.08.154-.08.154-.078.154-.077.155-.077.155-.076.156-.075.156-.074.156-.072.158-.073.157-.071.159-.07.159-.069.159-.069.16-.066.16-.066.16-.066.162-.064.161-.064.164-.062.161-.062.163-.06.165-.06.164-.058.163-.058.165-.056.167-.056.165-.054.166-.054.167-.052.167-.053.168-.05.168-.05.169-.049.168-.047.17-.046.169-.045.171-.045.17-.044.172-.043.17-.04.173-.04.172-.04.172-.038.174-.038.174-.036.173-.035.174-.034.175-.034.175-.03.175-.032.176-.03.177-.029.176-.027.177-.027.178-.026.177-.024.179-.023.178-.023.178-.02.18-.02.179-.019.18-.018.18-.017.181-.015.182-.015.18-.013.182-.012.183-.01.182-.01.183-.01.182-.007.184-.006.184-.005.183-.005.185-.003.185-.001.185-.001.195v27.752l.001.196.001.184.003.185.005.185.005.183.006.184.007.184.01.182.01.183.01.184.012.18.013.182.015.181.015.182.017.18.018.18.02.18.02.18.02.18.022.178.023.179.024.179.026.177.027.177.027.177.029.176.03.177.031.176.031.175.034.175.034.175.035.173.036.174.038.174.037.174.04.172.04.172.041.172.043.171.044.172.045.17.045.17.046.17.047.17.05.168.05.169.05.168.052.168.052.167.054.167.054.166.056.165.056.167.058.165.058.163.06.165.06.164.062.163.062.162.064.163.064.16.066.162.066.161.066.16.07.16.068.159.07.159.071.159.073.157.072.158.074.156.075.156.076.156.077.155.077.155.079.154.079.154.08.154.08.152.083.151.083.153.084.15.085.15.085.15.087.15.088.149.087.147.09.149.089.146.091.146.092.147.093.146.092.144.094.143.096.144.097.143.096.142.097.141.1.142.1.14.1.14.1.14.1.138.103.138.104.137.105.138.105.135.105.136.107.135.106.134.11.134.108.132.11.133.111.13.11.13.113.132.113.129.114.129.114.128.115.128.116.126.116.126.118.127.119.123.118.124.12.124.12.122.12.122.123.122.122.119.123.12.125.119.124.118.126.118.126.116.126.116.127.114.128.115.13.114.13.114.13.11.13.112.132.11.132.11.133.11.133.108.134.107.135.107.135.105.136.105.138.104.136.104.139.103.139.102.139.1.14.101.14.099.14.098.143.098.141.096.144.097.144.095.144.095.145.092.145.093.146.092.146.09.146.09.148.09.149.088.149.087.148.087.15.085.151.086.15.082.152.084.152.081.153.082.153.08.154.08.154.078.154.078.155.076.157.076.156.075.155.073.16.073.157.073.157.07.159.07.16.07.16.068.16.067.16.066.163.065.16.065.163.064.162.061.165.063.162.06.164.06.166.058.164.058.165.056.166.055.166.055.168.054.166.052.168.052.168.051.168.05.169.047.17.05.17.045.168.045.173.045.17.044.171.041.173.043.172.04.173.039.172.038.174.038.175.036.174.035.175.034.173.034.175.031.178.031.176.03.176.029.178.027.177.027.178.025.176.025.179.022.18.023.179.021.18.02.18.019.18.017.18.018.18.015.182.015.183.012.182.013.181.011.183.01.184.009.183.007.183.007.185.005.184.003.186.004.185.001.194.002h29.653l.195-.002.185-.001.185-.004.185-.003.185-.005.183-.007.184-.007.182-.009.182-.01.183-.011.181-.013.183-.012.182-.015.181-.015.18-.018.18-.017.18-.019.18-.02.178-.021.18-.023.179-.022.177-.025.178-.025.177-.027.178-.027.176-.029.176-.03.176-.031.175-.031.175-.034.174-.034.175-.035.174-.036.174-.037.173-.04.173-.038.171-.04.173-.043.171-.04.171-.045.171-.045.17-.045.17-.046.17-.049.168-.047.169-.05.168-.051.168-.052.166-.052.168-.054.166-.055.166-.055.165-.056.164-.057.165-.06.164-.06.163-.06.165-.062.162-.061.161-.064.162-.065.162-.065.161-.066.159-.068.16-.067.16-.07.158-.07.158-.07.159-.073.157-.073.156-.073.157-.075.156-.076.155-.076.154-.078.155-.079.153-.078.153-.082.154-.08.151-.082.151-.083.151-.084.152-.085.148-.085.15-.087.15-.087.147-.089.148-.089.147-.09.146-.09.146-.092.145-.093.144-.092.145-.095.144-.095.142-.097.143-.096.142-.099.14-.097.141-.1.14-.1.14-.1.137-.103.138-.102.138-.104.137-.104.137-.105.133-.105.137-.107.133-.108.133-.107.134-.11.132-.11.131-.11.132-.111.13-.112.129-.113.128-.114.129-.114.128-.115.126-.116.126-.116.125-.118.125-.119.124-.118.124-.12.12-.119.123-.122.122-.123.12-.121.12-.124.118-.124.118-.123.117-.127.118-.126.115-.126.116-.128.114-.128.114-.13.112-.128.112-.13.112-.131.11-.131.11-.133.109-.133.108-.133.108-.134.106-.135.106-.136.105-.135.104-.136.104-.14.102-.137.101-.138.102-.14.1-.14.1-.14.099-.142.097-.141.096-.142.097-.143.095-.144.093-.143.094-.145.093-.145.09-.147.092-.146.09-.146.089-.149.089-.147.087-.15.086-.148.087-.151.083-.15.084-.15.084-.153.082-.152.08-.151.08-.154.08-.154.079-.154.077-.155.077-.155.076-.156.074-.156.074-.156.073-.158.072-.157.07-.16.07-.158.07-.159.068-.16.068-.16.066-.161.065-.161.065-.161.063-.163.063-.162.062-.164.06-.163.06-.165.058-.165.058-.163.056-.167.055-.165.055-.166.054-.166.052-.168.052-.168.05-.168.05-.169.048-.168.048-.17.047-.17.045-.17.045-.17.043-.172.042-.171.042-.171.04-.173.04-.172.038-.174.038-.174.036-.172.035-.175.034-.175.032-.175.033-.175.031-.176.03-.177.028-.176.028-.176.027-.178.025-.178.025-.178.022-.179.023-.178.02-.18.02-.18.02-.18.017-.18.018-.18.015-.18.013-.183.014-.181.013-.181.01-.184.01-.183.008-.182.009-.184.006-.184.005-.183.004-.185.003-.184.002-.186V687.87l-.002-.186-.003-.184-.004-.185-.005-.183-.006-.184-.009-.184-.007-.182-.01-.183-.011-.182-.013-.183-.014-.181-.013-.183-.015-.18-.018-.181-.017-.18-.02-.18-.02-.179-.02-.18-.023-.178-.022-.178-.025-.179-.025-.177-.027-.178-.028-.177-.028-.176-.03-.177-.031-.175-.033-.176-.032-.175-.034-.175-.035-.174-.036-.173-.038-.174-.038-.174-.04-.172-.04-.173-.042-.171-.042-.171-.043-.172-.045-.17-.045-.171-.047-.169-.048-.17-.048-.168-.05-.17-.05-.167-.052-.168-.052-.167-.054-.167-.055-.166-.055-.165-.056-.167-.058-.163-.058-.165-.06-.165-.06-.163-.062-.162-.063-.164-.063-.163-.065-.161-.065-.161-.066-.16-.068-.161-.068-.16-.07-.16-.07-.158-.07-.159-.072-.157-.073-.158-.074-.156-.074-.156-.076-.157-.076-.155-.078-.155-.079-.153-.08-.154-.08-.154-.08-.151-.082-.152-.084-.152-.084-.151-.083-.15-.087-.15-.086-.15-.088-.149-.088-.147-.089-.148-.09-.147-.091-.146-.091-.147-.093-.145-.094-.143-.093-.145-.095-.144-.097-.143-.096-.142-.097-.141-.1-.142-.1-.141-.1-.139-.1-.14-.102-.138-.102-.138-.104-.137-.104-.138-.105-.135-.106-.136-.106-.135-.108-.134-.109-.134-.108-.132-.109-.131-.111-.133-.111-.131-.113-.13-.112-.129-.114-.129-.114-.127-.116-.129-.115-.126-.118-.127-.117-.125-.118-.125-.118-.123-.12-.124-.12-.121-.122-.123-.122-.121-.121-.12-.124-.12-.124-.119-.125-.117-.125-.118-.126-.117-.126-.116-.128-.114-.129-.115-.128-.114-.13-.112-.13-.113-.13-.111-.132-.11-.132-.11-.134-.11-.133-.108-.133-.107-.136-.106-.134-.107-.137-.105-.137-.103-.138-.104-.138-.103-.138-.101-.139-.101-.14-.1-.14-.1-.14-.098-.143-.098-.143-.097-.142-.095-.144-.096-.145-.095-.144-.093-.145-.092-.146-.092-.146-.09-.146-.09-.15-.09-.147-.088-.15-.088-.149-.086-.148-.085-.151-.085-.152-.084-.151-.083-.151-.082-.154-.08-.152-.082-.154-.079-.155-.078-.154-.078-.155-.076-.156-.076-.156-.074-.157-.074-.157-.074-.159-.071-.157-.071-.16-.07-.16-.07-.16-.068-.158-.067-.161-.066-.162-.065-.162-.065-.161-.063-.162-.063-.165-.062-.163-.06-.164-.06-.165-.059-.164-.056-.165-.057-.166-.055-.166-.055-.168-.054-.166-.053-.168-.051-.168-.051-.169-.049-.169-.049-.17-.048-.169-.047-.17-.045-.17-.045-.172-.042-.171-.043-.173-.042-.171-.04-.173-.039-.173-.039-.174-.037-.174-.037-.175-.035-.174-.033-.175-.033-.175-.032-.176-.032-.176-.03-.176-.027-.178-.029-.177-.026-.178-.025-.177-.025-.179-.022-.18-.023-.179-.021-.178-.02-.18-.019-.18-.018-.18-.017-.182-.015-.182-.014-.183-.014-.181-.012-.182-.011-.183-.01-.182-.008-.184-.009-.183-.006-.185-.005-.185-.004-.185-.002-.185-.003h-29.848z" fill="#2c2c49" fill-rule="evenodd"/><text style="-inkscape-font-specification:AppleSDGothicNeo-Heavy-Identity-H" transform="matrix(1.25 0 0 1.25 431.049 727.654)" font-size="48" font-family="AppleSDGothicNeo-Heavy-Identity" fill="#f0e8af"><tspan y="0" x="0 34.703999 76.559998 103.152 129.84">Omega</tspan></text><path d="M427.713 342.45c13.066 0 23.673 10.355 23.673 23.111 0 12.755-10.607 23.112-23.674 23.112-13.064 0-23.673-10.357-23.673-23.112 0-12.756 10.609-23.111 23.674-23.111z" fill="#959a93" fill-rule="evenodd" stroke="#728072" stroke-width="3.75" stroke-miterlimit="10"/><path d="M421.493 371.953h11.448v-12.235h-11.448v12.235z" fill="#f1f1e3" fill-rule="evenodd" stroke="#728072" stroke-miterlimit="10" stroke-width="1.25"/><path d="M954.842 342.45c13.067 0 23.674 10.355 23.674 23.111 0 12.755-10.607 23.112-23.673 23.112-13.067 0-23.674-10.357-23.674-23.112 0-12.756 10.607-23.111 23.673-23.111z" fill="#959a93" fill-rule="evenodd" stroke="#728072" stroke-width="3.75" stroke-miterlimit="10"/><path d="M948.623 371.953h11.448v-12.235h-11.448v12.235z" fill="#f1f1e3" fill-rule="evenodd" stroke="#728072" stroke-miterlimit="10" stroke-width="1.25"/><path d="M607.724 342.45c13.066 0 23.673 10.355 23.673 23.111 0 12.755-10.607 23.112-23.673 23.112-13.067 0-23.674-10.357-23.674-23.112 0-12.756 10.608-23.111 23.674-23.111z" fill="#959a93" fill-rule="evenodd" stroke="#728072" stroke-width="3.75" stroke-miterlimit="10"/><path d="M601.504 371.953h11.448v-12.235h-11.448v12.235z" fill="#f1f1e3" fill-rule="evenodd" stroke="#728072" stroke-miterlimit="10" stroke-width="1.25"/><path d="M1134.854 342.45c13.066 0 23.673 10.355 23.673 23.111 0 12.755-10.607 23.112-23.673 23.112-13.067 0-23.674-10.357-23.674-23.112 0-12.756 10.608-23.111 23.674-23.111z" fill="#959a93" fill-rule="evenodd" stroke="#728072" stroke-width="3.75" stroke-miterlimit="10"/><path d="M1128.634 371.953h11.448v-12.235h-11.448v12.235z" fill="#f1f1e3" fill-rule="evenodd" stroke="#728072" stroke-miterlimit="10" stroke-width="1.25"/><path d="M780.607 342.45c13.065 0 23.674 10.355 23.674 23.111 0 12.755-10.608 23.112-23.673 23.112-13.067 0-23.674-10.357-23.674-23.112 0-12.756 10.607-23.111 23.673-23.111z" fill="#959a93" fill-rule="evenodd" stroke="#728072" stroke-width="3.75" stroke-miterlimit="10"/><path d="M774.386 371.953h11.449v-12.235h-11.449v12.235z" fill="#f1f1e3" fill-rule="evenodd" stroke="#728072" stroke-miterlimit="10" stroke-width="1.25"/><path d="M367.999 342.45c13.065 0 23.673 10.355 23.673 23.111 0 12.755-10.608 23.112-23.673 23.112-13.067 0-23.674-10.357-23.674-23.112 0-12.756 10.608-23.111 23.674-23.111z" fill="#959a93" fill-rule="evenodd" stroke="#728072" stroke-width="3.75" stroke-miterlimit="10"/><path d="M361.778 371.953h11.448v-12.235h-11.448v12.235z" fill="#f1f1e3" fill-rule="evenodd" stroke="#728072" stroke-miterlimit="10" stroke-width="1.25"/><path d="M895.129 342.45c13.065 0 23.673 10.355 23.673 23.111 0 12.755-10.608 23.112-23.673 23.112-13.067 0-23.674-10.357-23.674-23.112 0-12.756 10.607-23.111 23.674-23.111z" fill="#959a93" fill-rule="evenodd" stroke="#728072" stroke-width="3.75" stroke-miterlimit="10"/><path d="M888.908 371.953h11.448v-12.235h-11.449v12.235z" fill="#f1f1e3" fill-rule="evenodd" stroke="#728072" stroke-miterlimit="10" stroke-width="1.25"/><path d="M548.009 342.45c13.066 0 23.673 10.355 23.673 23.111 0 12.755-10.607 23.112-23.673 23.112-13.065 0-23.674-10.357-23.674-23.112 0-12.756 10.609-23.111 23.674-23.111z" fill="#959a93" fill-rule="evenodd" stroke="#728072" stroke-width="3.75" stroke-miterlimit="10"/><path d="M541.789 371.953h11.448v-12.235H541.79v12.235z" fill="#f1f1e3" fill-rule="evenodd" stroke="#728072" stroke-miterlimit="10" stroke-width="1.25"/><path d="M1075.139 342.45c13.066 0 23.674 10.355 23.674 23.111 0 12.755-10.608 23.112-23.674 23.112-13.065 0-23.674-10.357-23.674-23.112 0-12.756 10.609-23.111 23.674-23.111z" fill="#959a93" fill-rule="evenodd" stroke="#728072" stroke-width="3.75" stroke-miterlimit="10"/><path d="M1068.919 371.953h11.448v-12.235h-11.448v12.235z" fill="#f1f1e3" fill-rule="evenodd" stroke="#728072" stroke-miterlimit="10" stroke-width="1.25"/><path d="M720.893 342.45c13.066 0 23.673 10.355 23.673 23.111 0 12.755-10.607 23.112-23.673 23.112-13.067 0-23.674-10.357-23.674-23.112 0-12.756 10.607-23.111 23.673-23.111z" fill="#959a93" fill-rule="evenodd" stroke="#728072" stroke-width="3.75" stroke-miterlimit="10"/><path d="M714.673 371.953h11.448v-12.235h-11.448v12.235z" fill="#f1f1e3" fill-rule="evenodd" stroke="#728072" stroke-miterlimit="10" stroke-width="1.25"/><path d="M1248.023 342.45c13.065 0 23.677 10.355 23.677 23.111 0 12.755-10.613 23.112-23.678 23.112-13.066 0-23.673-10.357-23.673-23.112 0-12.756 10.607-23.111 23.674-23.111z" fill="#959a93" fill-rule="evenodd" stroke="#728072" stroke-width="3.75" stroke-miterlimit="10"/><path d="M1241.803 371.953h11.448v-12.235h-11.449v12.235z" fill="#f1f1e3" fill-rule="evenodd" stroke="#728072" stroke-miterlimit="10" stroke-width="1.25"/><path d="M484.06 342.45c13.066 0 23.674 10.355 23.674 23.111 0 12.755-10.608 23.112-23.674 23.112-13.066 0-23.674-10.357-23.674-23.112 0-12.756 10.608-23.111 23.674-23.111z" fill="#959a93" fill-rule="evenodd" stroke="#728072" stroke-width="3.75" stroke-miterlimit="10"/><path d="M477.84 371.953h11.448v-12.235H477.84v12.235z" fill="#f1f1e3" fill-rule="evenodd" stroke="#728072" stroke-miterlimit="10" stroke-width="1.25"/><path d="M1011.19 342.45c13.066 0 23.674 10.355 23.674 23.111 0 12.755-10.608 23.112-23.674 23.112-13.066 0-23.674-10.357-23.674-23.112 0-12.756 10.608-23.111 23.674-23.111z" fill="#959a93" fill-rule="evenodd" stroke="#728072" stroke-width="3.75" stroke-miterlimit="10"/><path d="M1004.97 371.953h11.448v-12.235h-11.448v12.235z" fill="#f1f1e3" fill-rule="evenodd" stroke="#728072" stroke-miterlimit="10" stroke-width="1.25"/><path d="M664.071 342.45c13.066 0 23.674 10.355 23.674 23.111 0 12.755-10.608 23.112-23.674 23.112-13.066 0-23.674-10.357-23.674-23.112 0-12.756 10.608-23.111 23.674-23.111z" fill="#959a93" fill-rule="evenodd" stroke="#728072" stroke-width="3.75" stroke-miterlimit="10"/><path d="M657.85 371.953h11.448v-12.235H657.85v12.235z" fill="#f1f1e3" fill-rule="evenodd" stroke="#728072" stroke-miterlimit="10" stroke-width="1.25"/><path d="M1191.201 342.45c13.065 0 23.674 10.355 23.674 23.111 0 12.755-10.609 23.112-23.674 23.112-13.066 0-23.673-10.357-23.673-23.112 0-12.756 10.607-23.111 23.673-23.111z" fill="#959a93" fill-rule="evenodd" stroke="#728072" stroke-width="3.75" stroke-miterlimit="10"/><path d="M1184.98 371.953h11.448v-12.235h-11.448v12.235z" fill="#f1f1e3" fill-rule="evenodd" stroke="#728072" stroke-miterlimit="10" stroke-width="1.25"/><path d="M836.954 342.45c13.066 0 23.674 10.355 23.674 23.111 0 12.755-10.608 23.112-23.674 23.112-13.065 0-23.674-10.357-23.674-23.112 0-12.756 10.609-23.111 23.674-23.111z" fill="#959a93" fill-rule="evenodd" stroke="#728072" stroke-width="3.75" stroke-miterlimit="10"/><path d="M830.734 371.953h11.448v-12.235h-11.448v12.235z" fill="#f1f1e3" fill-rule="evenodd" stroke="#728072" stroke-miterlimit="10" stroke-width="1.25"/><path d="M427.713 1052.964c13.066 0 23.673 10.356 23.673 23.111s-10.607 23.111-23.674 23.111c-13.064 0-23.673-10.356-23.673-23.111s10.609-23.111 23.674-23.111z" fill="#959a93" fill-rule="evenodd" stroke="#728072" stroke-width="3.75" stroke-miterlimit="10"/><path d="M421.493 1082.466h11.448v-12.234h-11.448v12.234z" fill="#f1f1e3" fill-rule="evenodd" stroke="#728072" stroke-miterlimit="10" stroke-width="1.25"/><path d="M954.842 1052.964c13.067 0 23.674 10.356 23.674 23.111s-10.607 23.111-23.673 23.111c-13.067 0-23.674-10.356-23.674-23.111s10.607-23.111 23.673-23.111z" fill="#959a93" fill-rule="evenodd" stroke="#728072" stroke-width="3.75" stroke-miterlimit="10"/><path d="M948.623 1082.466h11.448v-12.234h-11.448v12.234z" fill="#f1f1e3" fill-rule="evenodd" stroke="#728072" stroke-miterlimit="10" stroke-width="1.25"/><path d="M607.724 1052.964c13.066 0 23.673 10.356 23.673 23.111s-10.607 23.111-23.673 23.111c-13.067 0-23.674-10.356-23.674-23.111s10.608-23.111 23.674-23.111z" fill="#959a93" fill-rule="evenodd" stroke="#728072" stroke-width="3.75" stroke-miterlimit="10"/><path d="M601.504 1082.466h11.448v-12.234h-11.448v12.234z" fill="#f1f1e3" fill-rule="evenodd" stroke="#728072" stroke-miterlimit="10" stroke-width="1.25"/><path d="M1134.854 1052.964c13.066 0 23.673 10.356 23.673 23.111s-10.607 23.111-23.673 23.111c-13.067 0-23.674-10.356-23.674-23.111s10.608-23.111 23.674-23.111z" fill="#959a93" fill-rule="evenodd" stroke="#728072" stroke-width="3.75" stroke-miterlimit="10"/><path d="M1128.634 1082.466h11.448v-12.234h-11.448v12.234z" fill="#f1f1e3" fill-rule="evenodd" stroke="#728072" stroke-miterlimit="10" stroke-width="1.25"/><path d="M780.607 1052.964c13.065 0 23.674 10.356 23.674 23.111s-10.608 23.111-23.673 23.111c-13.067 0-23.674-10.356-23.674-23.111s10.607-23.111 23.673-23.111z" fill="#959a93" fill-rule="evenodd" stroke="#728072" stroke-width="3.75" stroke-miterlimit="10"/><path d="M774.386 1082.466h11.449v-12.234h-11.449v12.234z" fill="#f1f1e3" fill-rule="evenodd" stroke="#728072" stroke-miterlimit="10" stroke-width="1.25"/><path d="M367.999 1052.964c13.065 0 23.673 10.356 23.673 23.111s-10.608 23.111-23.673 23.111c-13.067 0-23.674-10.356-23.674-23.111s10.608-23.111 23.674-23.111z" fill="#959a93" fill-rule="evenodd" stroke="#728072" stroke-width="3.75" stroke-miterlimit="10"/><path d="M361.778 1082.466h11.448v-12.234h-11.448v12.234z" fill="#f1f1e3" fill-rule="evenodd" stroke="#728072" stroke-miterlimit="10" stroke-width="1.25"/><path d="M895.129 1052.964c13.065 0 23.673 10.356 23.673 23.111s-10.608 23.111-23.673 23.111c-13.067 0-23.674-10.356-23.674-23.111s10.607-23.111 23.674-23.111z" fill="#959a93" fill-rule="evenodd" stroke="#728072" stroke-width="3.75" stroke-miterlimit="10"/><path d="M888.908 1082.466h11.448v-12.234h-11.449v12.234z" fill="#f1f1e3" fill-rule="evenodd" stroke="#728072" stroke-miterlimit="10" stroke-width="1.25"/><path d="M548.009 1052.964c13.066 0 23.673 10.356 23.673 23.111s-10.607 23.111-23.673 23.111c-13.065 0-23.674-10.356-23.674-23.111s10.609-23.111 23.674-23.111z" fill="#959a93" fill-rule="evenodd" stroke="#728072" stroke-width="3.75" stroke-miterlimit="10"/><path d="M541.789 1082.466h11.448v-12.234H541.79v12.234z" fill="#f1f1e3" fill-rule="evenodd" stroke="#728072" stroke-miterlimit="10" stroke-width="1.25"/><path d="M1075.139 1052.964c13.066 0 23.674 10.356 23.674 23.111s-10.608 23.111-23.674 23.111c-13.065 0-23.674-10.356-23.674-23.111s10.609-23.111 23.674-23.111z" fill="#959a93" fill-rule="evenodd" stroke="#728072" stroke-width="3.75" stroke-miterlimit="10"/><path d="M1068.919 1082.466h11.448v-12.234h-11.448v12.234z" fill="#f1f1e3" fill-rule="evenodd" stroke="#728072" stroke-miterlimit="10" stroke-width="1.25"/><path d="M720.893 1052.964c13.066 0 23.673 10.356 23.673 23.111s-10.607 23.111-23.673 23.111c-13.067 0-23.674-10.356-23.674-23.111s10.607-23.111 23.673-23.111z" fill="#959a93" fill-rule="evenodd" stroke="#728072" stroke-width="3.75" stroke-miterlimit="10"/><path d="M714.673 1082.466h11.448v-12.234h-11.448v12.234z" fill="#f1f1e3" fill-rule="evenodd" stroke="#728072" stroke-miterlimit="10" stroke-width="1.25"/><path d="M1248.023 1052.964c13.065 0 23.677 10.356 23.677 23.111s-10.613 23.111-23.678 23.111c-13.066 0-23.673-10.356-23.673-23.111s10.607-23.111 23.674-23.111z" fill="#959a93" fill-rule="evenodd" stroke="#728072" stroke-width="3.75" stroke-miterlimit="10"/><path d="M1241.803 1082.466h11.448v-12.234h-11.449v12.234z" fill="#f1f1e3" fill-rule="evenodd" stroke="#728072" stroke-miterlimit="10" stroke-width="1.25"/><path d="M484.06 1052.964c13.066 0 23.674 10.356 23.674 23.111s-10.608 23.111-23.674 23.111c-13.066 0-23.674-10.356-23.674-23.111s10.608-23.111 23.674-23.111z" fill="#959a93" fill-rule="evenodd" stroke="#728072" stroke-width="3.75" stroke-miterlimit="10"/><path d="M477.84 1082.466h11.448v-12.234H477.84v12.234z" fill="#f1f1e3" fill-rule="evenodd" stroke="#728072" stroke-miterlimit="10" stroke-width="1.25"/><path d="M1011.19 1052.964c13.066 0 23.674 10.356 23.674 23.111s-10.608 23.111-23.674 23.111c-13.066 0-23.674-10.356-23.674-23.111s10.608-23.111 23.674-23.111z" fill="#959a93" fill-rule="evenodd" stroke="#728072" stroke-width="3.75" stroke-miterlimit="10"/><path d="M1004.97 1082.466h11.448v-12.234h-11.448v12.234z" fill="#f1f1e3" fill-rule="evenodd" stroke="#728072" stroke-miterlimit="10" stroke-width="1.25"/><path d="M664.071 1052.964c13.066 0 23.674 10.356 23.674 23.111s-10.608 23.111-23.674 23.111c-13.066 0-23.674-10.356-23.674-23.111s10.608-23.111 23.674-23.111z" fill="#959a93" fill-rule="evenodd" stroke="#728072" stroke-width="3.75" stroke-miterlimit="10"/><path d="M657.85 1082.466h11.448v-12.234H657.85v12.234z" fill="#f1f1e3" fill-rule="evenodd" stroke="#728072" stroke-miterlimit="10" stroke-width="1.25"/><path d="M1191.201 1052.964c13.065 0 23.674 10.356 23.674 23.111s-10.609 23.111-23.674 23.111c-13.066 0-23.673-10.356-23.673-23.111s10.607-23.111 23.673-23.111z" fill="#959a93" fill-rule="evenodd" stroke="#728072" stroke-width="3.75" stroke-miterlimit="10"/><path d="M1184.98 1082.466h11.448v-12.234h-11.448v12.234z" fill="#f1f1e3" fill-rule="evenodd" stroke="#728072" stroke-miterlimit="10" stroke-width="1.25"/><path d="M836.954 1052.964c13.066 0 23.674 10.356 23.674 23.111s-10.608 23.111-23.674 23.111c-13.065 0-23.674-10.356-23.674-23.111s10.609-23.111 23.674-23.111z" fill="#959a93" fill-rule="evenodd" stroke="#728072" stroke-width="3.75" stroke-miterlimit="10"/><path d="M830.734 1082.466h11.448v-12.234h-11.448v12.234z" fill="#f1f1e3" fill-rule="evenodd" stroke="#728072" stroke-miterlimit="10" stroke-width="1.25"/><path d="M692.29 855.895h332.82V523.332H692.29v332.563z" fill="#617873" fill-rule="evenodd" stroke="#728072" stroke-miterlimit="10" stroke-width="1.25"/><path d="M1125.734 899.366H1363.1V531.401h-237.366v367.965z" fill="#607973" fill-rule="evenodd" stroke="#728072" stroke-miterlimit="10" stroke-width="1.25"/><path d="M979.409 476.179h95.04v-49.496h-95.04v49.496z" fill="#f2f9ff" fill-rule="evenodd" stroke="#728072" stroke-miterlimit="10" stroke-width="1.25"/><path d="M990.85 481.906h76.066v-62.861H990.85v62.861z" fill="#8f9e9f" fill-rule="evenodd" stroke="#728072" stroke-miterlimit="10" stroke-width="1.25"/><path d="M364.29 464.428h264.266v-23.944H364.29v23.944zM364.29 504.731h264.266v-23.943H364.29v23.943zM364.29 541.947h264.266v-23.943H364.29v23.944zM364.29 580.201h264.266v-23.943H364.29V580.2z" fill="#cad0c8" fill-rule="evenodd" stroke="#728072" stroke-miterlimit="10" stroke-width="1.25"/><path d="M422.059 583.655H576.34V427.92H422.059v155.735z" fill="#426259" fill-rule="evenodd" stroke="#728072" stroke-miterlimit="10" stroke-width="1.25"/><path d="M817.945 938.101c0-9.804-7.96-17.764-17.764-17.764h-58.497c-9.804 0-17.764 7.96-17.764 17.764v35.529c0 9.805 7.96 17.765 17.764 17.765h58.497c9.804 0 17.764-7.96 17.764-17.765v-35.529z" fill="#dadeda" fill-rule="evenodd"/><path d="M800.41 920.339l.229.003.228.008.228.01.226.014.226.015.225.018.224.022.224.025.222.026.222.03.221.032.22.035.219.038.219.04.216.044.216.045.216.048.214.052.214.053.212.055.211.06.21.06.21.064.207.066.207.07.205.07.205.074.204.076.203.078.2.081.2.083.198.086.198.087.196.09.195.093.194.095.191.097.191.1.19.1.188.104.186.106.186.108.184.111.182.111.18.115.18.117.178.118.176.122.175.122.174.125.172.128.17.128.17.132.165.132.167.135.162.136.163.14.16.14.158.143.158.144.155.146.154.147.151.15.15.153.147.152.147.155.145.158.142.159.14.16.139.162.136.164.135.165.134.168.13.167.129.171.127.172.125.173.123.175.121.177.119.177.116.18.115.181.112.181.11.185.108.185.106.187.104.188.101.19.1.19.096.193.095.192.093.195.09.197.088.197.086.199.082.2.081.201.08.201.074.204.074.205.071.205.069.208.066.207.064.209.061.211.059.211.056.212.053.213.051.214.049.216.045.217.043.217.04.218.038.218.035.22.032.222.03.221.028.222.024.224.021.225.019.225.015.225.013.226.01.228.008.229.004.228.001.23v35.528l-.001.23-.004.229-.008.227-.01.228-.013.226-.015.226-.019.225-.021.224-.024.224-.028.222-.03.223-.032.22-.035.22-.038.22-.04.217-.043.218-.045.216-.049.215-.051.215-.053.212-.056.213-.059.211-.061.21-.064.209-.066.209-.069.206-.071.206-.074.205-.075.203-.079.202-.08.201-.083.2-.087.2-.087.197-.09.195-.092.195-.095.193-.097.193-.1.19-.101.19-.104.187-.106.188-.108.185-.11.184-.112.182-.115.181-.116.18-.119.178-.121.176-.123.175-.125.174-.127.171-.129.17-.13.169-.134.167-.135.165-.136.164-.139.163-.14.16-.142.158-.145.157-.147.155-.147.153-.15.152-.151.15-.154.148-.155.147-.158.143-.158.143-.16.14-.163.139-.162.137-.167.135-.166.133-.169.131-.17.129-.172.126-.174.125-.175.124-.176.12-.178.118-.18.118-.18.114-.182.112-.184.11-.186.109-.186.105-.188.104-.19.102-.191.099-.191.097-.194.094-.195.093-.196.091-.198.087-.199.085-.198.084-.202.08-.202.079-.204.076-.205.074-.205.071-.207.068-.208.066-.209.064-.21.061-.21.059-.213.056-.214.054-.214.051-.216.047-.216.047-.216.042-.22.041-.218.038-.22.035-.221.032-.221.03-.223.027-.224.023-.223.022-.225.018-.227.017-.226.012-.228.01-.228.008-.229.005-.229.001h-58.497l-.229-.001-.229-.005-.229-.008-.226-.01-.227-.012-.225-.017-.225-.018-.225-.022-.223-.023-.222-.028-.223-.029-.221-.032-.22-.035-.219-.038-.217-.04-.218-.043-.216-.047-.215-.047-.215-.051-.213-.054-.212-.056-.211-.059-.21-.061-.21-.064-.208-.066-.207-.068-.205-.071-.205-.074-.204-.076-.201-.079-.202-.08-.2-.084-.198-.085-.198-.087-.196-.091-.194-.093-.194-.094-.192-.097-.191-.099-.189-.102-.189-.104-.186-.105-.185-.109-.184-.11-.182-.112-.182-.114-.18-.118-.177-.118-.176-.12-.175-.124-.174-.125-.171-.126-.17-.129-.169-.131-.168-.133-.165-.135-.163-.137-.163-.139-.16-.14-.158-.143-.157-.143-.156-.147-.152-.148-.153-.15-.149-.152-.149-.153-.146-.155-.144-.157-.142-.158-.141-.16-.139-.163-.136-.164-.135-.165-.133-.167-.131-.169-.129-.17-.127-.171-.125-.174-.123-.175-.121-.176-.118-.179-.117-.179-.114-.18-.112-.183-.111-.184-.108-.185-.106-.188-.104-.187-.101-.19-.099-.19-.098-.193-.095-.193-.092-.195-.09-.195-.088-.198-.085-.199-.083-.2-.082-.2-.077-.203-.076-.203-.074-.205-.071-.206-.069-.206-.066-.209-.064-.209-.06-.21-.059-.211-.056-.213-.054-.212-.051-.215-.047-.215-.047-.216-.043-.218-.04-.217-.038-.22-.035-.22-.032-.22-.03-.223-.027-.222-.025-.224-.021-.224-.019-.225-.015-.226-.012-.226-.011-.228-.007-.227-.005-.229-.001-.23v-35.529l.001-.229.005-.228.007-.229.01-.228.013-.226.015-.225.019-.225.021-.225.025-.224.027-.222.03-.221.032-.222.035-.22.038-.218.04-.218.043-.217.047-.217.047-.216.051-.214.054-.213.056-.212.059-.21.06-.212.064-.209.066-.207.069-.208.071-.205.074-.205.076-.204.077-.2.082-.202.083-.2.085-.199.088-.197.09-.197.092-.195.095-.192.098-.193.099-.19.101-.19.104-.188.106-.187.108-.185.11-.185.113-.18.114-.182.117-.18.118-.177.121-.177.123-.175.125-.173.127-.172.129-.171.131-.167.133-.168.135-.165.136-.164.139-.162.141-.16.143-.159.143-.158.146-.155.15-.152.148-.153.152-.15.153-.147.156-.146.156-.144.16-.143.16-.14.162-.14.163-.136.166-.135.167-.132.169-.132.17-.128.171-.128.174-.125.175-.122.176-.122.177-.118.18-.117.182-.115.182-.11.184-.112.185-.108.186-.106.189-.104.189-.1.191-.1.192-.097.194-.095.194-.093.196-.09.198-.087.198-.086.2-.083.202-.081.201-.078.204-.076.205-.074.205-.07.207-.07.208-.066.21-.064.21-.06.211-.06.213-.055.212-.053.215-.052.215-.048.216-.045.218-.044.217-.04.219-.038.22-.035.221-.032.223-.03.222-.026.223-.025.225-.022.225-.018.225-.015.227-.014.226-.01.23-.007.228-.004.229-.002h58.497l.229.002zm-58.708 5.623l-.175.002-.158.002-.158.005-.155.008-.156.009-.155.01-.154.013-.152.014-.154.016-.152.019-.152.02-.15.022-.15.024-.148.026-.15.028-.148.029-.146.031-.148.034-.146.033-.145.037-.145.038-.144.04-.143.042-.142.043-.141.046-.141.046-.14.048-.14.05-.138.052-.137.053-.138.055-.136.058-.135.057-.135.06-.134.062-.132.063-.133.065-.13.065-.131.07-.13.068-.126.07-.129.074-.127.074-.125.075-.124.076-.124.079-.124.08-.121.08-.121.083-.12.084-.119.086-.117.087-.117.088-.116.09-.114.09-.112.093-.113.094-.111.095-.111.097-.108.098-.107.098-.106.1-.105.102-.105.102-.103.105-.101.104-.1.106-.099.109-.098.109-.096.11-.096.11-.094.113-.092.113-.09.114-.09.116-.089.116-.086.118-.085.118-.085.12-.083.122-.081.12-.08.125-.078.122-.077.125-.075.125-.074.128-.072.127-.072.128-.068.13-.069.13-.065.13-.065.133-.064.133-.061.134-.06.135-.058.135-.056.135-.056.137-.053.139-.052.139-.05.138-.048.14-.047.142-.045.14-.043.142-.042.144-.04.144-.038.145-.037.145-.034.145-.034.147-.03.148-.03.147-.027.15-.026.148-.024.15-.021.15-.022.152-.017.153-.018.153-.013.153-.013.155-.011.154-.009.155-.007.157-.005.156-.003.158-.001.176v35.493l.001.176.003.156.005.158.007.156.009.155.011.155.013.154.013.153.018.153.017.153.022.15.021.152.024.15.026.148.027.15.03.148.03.147.034.147.034.146.037.145.038.144.04.143.041.144.044.143.045.141.047.141.048.139.05.14.052.139.054.138.054.137.057.135.058.136.06.135.061.134.064.132.065.133.065.13.069.131.069.129.07.128.073.128.074.126.075.126.076.124.079.124.08.124.081.121.083.12.085.121.085.118.086.117.089.118.09.115.09.113.092.114.094.113.095.111.098.11.097.109.099.107.1.106.101.105.103.104.105.104.105.101.106.1.107.099.108.097.111.097.111.095.113.093.112.094.114.09.116.09.117.088.117.087.12.086.119.084.12.083.122.081.124.08.124.077.123.078.125.075.128.074.129.072.127.071.129.07.13.067.131.066.133.065.132.062.134.062.135.061.135.057.136.057.137.055.138.053.139.053.14.05.139.047.141.048.141.045.141.042.144.042.145.041.144.037.145.037.146.035.146.032.147.031.15.03.148.028.15.025.15.025.15.021.15.02.153.019.154.016.152.015.155.013.155.011.154.009.157.006.157.005.157.004.176.001h58.46l.177-.001.157-.004.158-.005.156-.006.155-.009.155-.011.154-.013.153-.015.153-.016.152-.019.152-.02.15-.021.151-.025.149-.025.148-.028.15-.03.145-.03.147-.033.146-.035.146-.037.144-.037.144-.04.143-.043.142-.042.142-.045.141-.048.14-.047.138-.05.14-.053.137-.053.138-.055.135-.057.135-.057.135-.061.134-.06.132-.064.133-.065.132-.066.129-.068.129-.069.128-.07.128-.073.127-.074.125-.075.125-.078.124-.077.123-.08.122-.081.12-.083.12-.084.119-.086.117-.087.117-.088.116-.09.114-.091.112-.091.113-.095.112-.095.11-.097.108-.097.107-.099.108-.1.105-.102.103-.102.103-.105.102-.106.1-.105.098-.107.099-.109.096-.11.095-.111.094-.112.092-.113.091-.115.09-.117.088-.116.087-.117.085-.119.084-.12.083-.12.081-.121.08-.124.079-.124.076-.124.076-.126.074-.126.072-.128.07-.128.07-.129.068-.131.066-.132.064-.13.064-.133.061-.135.06-.134.059-.135.056-.138.055-.136.054-.137.051-.139.05-.139.049-.14.046-.141.045-.141.044-.144.041-.143.04-.142.039-.145.036-.145.035-.146.032-.148.032-.146.028-.148.028-.148.026-.152.024-.148.022-.152.02-.15.02-.153.015-.153.015-.154.013-.152.01-.155.01-.156.006-.157.005-.157.003-.156.001-.175v-35.495l-.001-.175-.003-.158-.005-.156-.006-.156-.01-.157-.01-.155-.013-.153-.015-.153-.016-.154-.019-.15-.02-.153-.022-.15-.024-.15-.026-.15-.028-.149-.028-.148-.032-.147-.032-.148-.035-.145-.036-.145-.039-.145-.04-.143-.041-.143-.044-.144-.045-.14-.046-.14-.049-.14-.05-.14-.051-.138-.054-.138-.055-.137-.058-.138-.057-.135-.06-.134-.061-.133-.064-.134-.064-.131-.066-.132-.069-.13-.069-.13-.07-.127-.072-.128-.074-.127-.076-.125-.076-.125-.079-.123-.08-.123-.081-.122-.083-.12-.084-.12-.085-.12-.087-.117-.088-.116-.09-.117-.09-.113-.093-.114-.094-.111-.095-.112-.096-.11-.098-.108-.1-.109-.1-.105-.101-.106-.103-.104-.103-.103-.105-.1-.108-.1-.107-.1-.108-.097-.11-.098-.112-.095-.113-.093-.112-.093-.114-.09-.116-.09-.117-.089-.117-.086-.119-.086-.12-.084-.121-.082-.121-.082-.123-.08-.124-.078-.125-.077-.125-.075-.127-.075-.128-.072-.127-.07-.13-.069-.13-.069-.131-.065-.133-.066-.132-.062-.134-.062-.135-.06-.134-.057-.136-.058-.139-.055-.136-.052-.139-.053-.14-.05-.14-.048-.141-.047-.14-.045-.143-.043-.143-.042-.144-.04-.144-.037-.146-.038-.145-.033-.148-.034-.147-.031-.148-.029-.148-.028-.149-.026-.151-.024-.15-.022-.152-.02-.152-.018-.153-.017-.153-.014-.154-.014-.155-.01-.156-.008-.155-.008-.158-.005-.157-.002-.177-.002h-58.46z" fill="#fbd689" fill-rule="evenodd"/></svg>