<?xml version="1.0" encoding="UTF-8"?>
<!DOCTYPE svg  PUBLIC '-//W3C//DTD SVG 1.1//EN'  'http://www.w3.org/Graphics/SVG/1.1/DTD/svg11.dtd'>
<svg clip-rule="evenodd" fill-rule="evenodd" stroke-linecap="round" stroke-linejoin="round" stroke-miterlimit="1.4142" version="1.1" viewBox="0 0 1280 1150" xmlns="http://www.w3.org/2000/svg"><path id="Außen" d="m286.51 269.26h733.13l89.187 89.188v472.46c-31.195 29.613-60.794 55.742-77.855 54.51h-919.84v-466.94l129.73-130.2c14.619-13.795 29.513-19.014 45.646-19.014z" fill="#e0ba2e" stroke="#000" stroke-width="3px"/><path d="m244.37 793.88h-86.72l-25.85-49.9v-298.1h21.669v-23.905h-32.734v437.02l11.065 20.742h112.57v-24.752h-75.4l-11.32-11.968v-22.764h86.72v-26.371z" fill="#ffe9ae" stroke="#2c2c49" stroke-width="1px"/><path d="m240.86 843.98v38.116h30.521v-38.116h821.61l14.787-13.965v-470.98l-46.439-46.012h-789.96v-38.292h-6.192l-24.329 21.777v547.47z" fill="#a3377c" stroke="#000" stroke-width=".8px"/><path d="m347.08 550.44c0-15.376-12.483-27.859-27.859-27.859h-23.738c-15.376 0-27.86 12.483-27.86 27.859v22.217c0 15.376 12.484 27.86 27.86 27.86h23.738c15.376 0 27.859-12.484 27.859-27.86v-22.217z" fill="#f0e8af"/><path d="m319.4 522.59 0.18 2e-3 0.179 3e-3 0.18 4e-3 0.178 5e-3 0.179 6e-3 0.179 7e-3 0.178 9e-3 0.177 0.01 0.178 0.01 0.177 0.012 0.177 0.013 0.177 0.014 0.176 0.015 0.176 0.016 0.176 0.018 0.175 0.018 0.175 0.019 0.175 0.021 0.348 0.044 0.174 0.024 0.173 0.025 0.173 0.026 0.173 0.027 0.172 0.028 0.172 0.029 0.172 0.03 0.171 0.031 0.171 0.033 0.17 0.033 0.171 0.034 0.169 0.035 0.17 0.037 0.169 0.037 0.168 0.039 0.169 0.039 0.167 0.04 0.168 0.042 0.167 0.042 0.167 0.044 0.166 0.044 0.166 0.046 0.165 0.046 0.33 0.096 0.328 0.1 0.163 0.051 0.163 0.053 0.162 0.053 0.162 0.054 0.162 0.056 0.161 0.056 0.161 0.057 0.16 0.058 0.16 0.059 0.159 0.06 0.159 0.061 0.158 0.062 0.158 0.063 0.157 0.064 0.314 0.13 0.156 0.067 0.31 0.136 0.155 0.069 0.154 0.07 0.306 0.144 0.153 0.073 0.152 0.073 0.151 0.075 0.151 0.076 0.15 0.076 0.3 0.156 0.149 0.079 0.148 0.08 0.148 0.081 0.147 0.082 0.146 0.082 0.147 0.084 0.145 0.084 0.145 0.085 0.145 0.086 0.143 0.087 0.144 0.088 0.143 0.089 0.142 0.089 0.141 0.09 0.141 0.091 0.141 0.092 0.14 0.093 0.139 0.093 0.139 0.095 0.138 0.095 0.274 0.192 0.272 0.196 0.135 0.099 0.134 0.1 0.134 0.101 0.266 0.204 0.132 0.103 0.262 0.208 0.13 0.106 0.129 0.106 0.129 0.107 0.128 0.107 0.254 0.218 0.126 0.11 0.125 0.11 0.125 0.112 0.124 0.112 0.123 0.112 0.123 0.114 0.122 0.114 0.121 0.115 0.121 0.116 0.12 0.116 0.119 0.118 0.119 0.117 0.118 0.119 0.117 0.119 0.116 0.12 0.116 0.121 0.115 0.121 0.114 0.122 0.114 0.123 0.112 0.123 0.112 0.124 0.112 0.125 0.11 0.125 0.11 0.126 0.218 0.254 0.107 0.128 0.107 0.129 0.106 0.13 0.106 0.129 0.208 0.262 0.103 0.132 0.204 0.266 0.101 0.134 0.1 0.134 0.099 0.135 0.196 0.272 0.192 0.274 0.095 0.138 0.095 0.139 0.093 0.139 0.093 0.14 0.092 0.141 0.091 0.141 0.09 0.141 0.089 0.142 0.089 0.143 0.088 0.144 0.087 0.143 0.086 0.145 0.085 0.145 0.084 0.145 0.084 0.147 0.082 0.146 0.082 0.147 0.081 0.148 0.08 0.148 0.079 0.149 0.156 0.3 0.076 0.15 0.076 0.151 0.075 0.151 0.073 0.152 0.073 0.153 0.144 0.306 0.07 0.154 0.138 0.31 0.067 0.155 0.067 0.156 0.13 0.314 0.064 0.157 0.063 0.158 0.062 0.158 0.061 0.159 0.06 0.159 0.059 0.16 0.058 0.16 0.057 0.161 0.056 0.161 0.056 0.162 0.054 0.162 0.053 0.162 0.053 0.163 0.051 0.163 0.1 0.328 0.096 0.33 0.046 0.165 0.046 0.166 0.044 0.166 0.044 0.167 0.042 0.167 0.042 0.168 0.04 0.167 0.039 0.169 0.039 0.168 0.037 0.169 0.037 0.17 0.035 0.169 0.034 0.171 0.034 0.17 0.032 0.171 0.031 0.171 0.03 0.172 0.029 0.172 0.028 0.172 0.027 0.173 0.026 0.173 0.025 0.173 0.024 0.174 0.044 0.348 0.021 0.175 0.019 0.175 0.018 0.175 0.018 0.176 0.016 0.176 0.015 0.176 0.014 0.177 0.013 0.177 0.012 0.177 0.011 0.178 9e-3 0.177 9e-3 0.178 7e-3 0.179 6e-3 0.179 5e-3 0.179 4e-3 0.179 3e-3 0.179 2e-3 0.18v0.18 22.217 0.18l-2e-3 0.18-3e-3 0.179-4e-3 0.18-5e-3 0.179-6e-3 0.178-7e-3 0.179-0.018 0.356-0.011 0.177-0.012 0.177-0.013 0.177-0.014 0.177-0.015 0.176-0.016 0.176-0.018 0.176-0.018 0.175-0.019 0.175-0.021 0.175-0.044 0.348-0.024 0.174-0.025 0.173-0.026 0.173-0.027 0.173-0.028 0.172-0.029 0.172-0.03 0.172-0.031 0.171-0.032 0.171-0.034 0.171-0.034 0.17-0.035 0.17-0.074 0.338-0.039 0.169-0.039 0.168-0.04 0.168-0.084 0.334-0.044 0.167-0.044 0.166-0.046 0.166-0.046 0.165-0.096 0.33-0.1 0.328-0.051 0.163-0.053 0.163-0.053 0.162-0.054 0.162-0.056 0.162-0.056 0.161-0.057 0.161-0.058 0.16-0.059 0.16-0.06 0.159-0.061 0.159-0.062 0.158-0.063 0.158-0.064 0.157-0.13 0.314-0.067 0.156-0.067 0.155-0.138 0.31-0.07 0.154-0.144 0.306-0.073 0.153-0.073 0.152-0.075 0.151-0.152 0.302-0.078 0.149-0.078 0.15-0.079 0.149-0.08 0.148-0.081 0.148-0.164 0.294-0.084 0.146-0.084 0.145-0.085 0.145-0.086 0.145-0.087 0.144-0.088 0.143-0.089 0.143-0.089 0.142-0.09 0.141-0.091 0.141-0.092 0.141-0.093 0.14-0.093 0.139-0.095 0.139-0.095 0.138-0.192 0.274-0.196 0.272-0.099 0.135-0.1 0.134-0.101 0.134-0.204 0.266-0.103 0.132-0.208 0.262-0.106 0.13-0.106 0.129-0.107 0.129-0.107 0.128-0.218 0.254-0.11 0.126-0.11 0.125-0.112 0.125-0.112 0.124-0.112 0.123-0.114 0.123-0.114 0.122-0.115 0.121-0.116 0.121-0.116 0.12-0.117 0.119-0.118 0.119-0.119 0.118-0.119 0.117-0.12 0.116-0.121 0.116-0.121 0.115-0.122 0.114-0.123 0.114-0.123 0.113-0.124 0.112-0.25 0.222-0.126 0.109-0.127 0.11-0.127 0.108-0.128 0.108-0.129 0.106-0.129 0.107-0.13 0.105-0.262 0.208-0.132 0.103-0.133 0.103-0.133 0.101-0.134 0.101-0.134 0.1-0.135 0.099-0.272 0.196-0.274 0.192-0.138 0.096-0.139 0.094-0.139 0.093-0.14 0.093-0.141 0.092-0.141 0.091-0.141 0.09-0.142 0.09-0.143 0.088-0.144 0.088-0.143 0.087-0.145 0.086-0.145 0.085-0.145 0.084-0.147 0.084-0.146 0.082-0.147 0.082-0.148 0.081-0.148 0.08-0.149 0.079-0.3 0.156-0.15 0.076-0.151 0.076-0.151 0.075-0.152 0.074-0.153 0.072-0.153 0.073-0.153 0.071-0.154 0.07-0.31 0.138-0.155 0.067-0.156 0.067-0.314 0.13-0.157 0.064-0.158 0.063-0.158 0.062-0.159 0.061-0.159 0.06-0.16 0.059-0.16 0.058-0.161 0.057-0.161 0.056-0.162 0.056-0.162 0.054-0.162 0.053-0.163 0.053-0.163 0.051-0.164 0.051-0.164 0.049-0.33 0.096-0.165 0.046-0.166 0.046-0.166 0.044-0.167 0.044-0.167 0.042-0.168 0.042-0.167 0.04-0.169 0.04-0.168 0.038-0.169 0.037-0.17 0.037-0.169 0.035-0.171 0.034-0.17 0.034-0.171 0.032-0.171 0.031-0.172 0.03-0.172 0.029-0.172 0.028-0.173 0.027-0.173 0.026-0.173 0.025-0.174 0.024-0.174 0.023-0.174 0.021-0.175 0.021-0.35 0.038-0.176 0.017-0.176 0.016-0.176 0.015-0.177 0.014-0.177 0.013-0.177 0.012-0.178 0.011-0.177 9e-3 -0.178 9e-3 -0.179 7e-3 -0.179 6e-3 -0.178 5e-3 -0.18 4e-3 -0.179 3e-3 -0.18 2e-3 -0.18 1e-3h-23.738l-0.18-1e-3 -0.18-2e-3 -0.18-3e-3 -0.179-4e-3 -0.179-5e-3 -0.179-6e-3 -0.178-7e-3 -0.356-0.018-0.177-0.011-0.178-0.012-0.177-0.013-0.176-0.014-0.176-0.015-0.176-0.016-0.176-0.017-0.35-0.038-0.35-0.042-0.174-0.023-0.173-0.024-0.174-0.025-0.173-0.026-0.172-0.027-0.173-0.028-0.172-0.029-0.171-0.03-0.171-0.031-0.171-0.032-0.171-0.034-0.17-0.034-0.17-0.035-0.338-0.074-0.169-0.038-0.336-0.08-0.334-0.084-0.167-0.044-0.166-0.044-0.332-0.092-0.165-0.048-0.164-0.048-0.164-0.049-0.164-0.051-0.163-0.051-0.326-0.106-0.162-0.054-0.322-0.112-0.161-0.057-0.16-0.058-0.16-0.059-0.159-0.06-0.159-0.061-0.158-0.062-0.158-0.063-0.158-0.064-0.157-0.065-0.156-0.065-0.312-0.134-0.155-0.069-0.154-0.069-0.154-0.07-0.154-0.071-0.153-0.073-0.152-0.072-0.152-0.074-0.152-0.075-0.15-0.076-0.151-0.076-0.15-0.078-0.149-0.078-0.149-0.079-0.148-0.08-0.148-0.081-0.294-0.164-0.292-0.168-0.145-0.085-0.144-0.086-0.144-0.087-0.286-0.176-0.284-0.18-0.141-0.091-0.14-0.092-0.14-0.093-0.139-0.093-0.139-0.094-0.138-0.096-0.274-0.192-0.137-0.098-0.135-0.098-0.135-0.099-0.135-0.1-0.133-0.101-0.134-0.101-0.264-0.206-0.262-0.208-0.13-0.105-0.129-0.107-0.129-0.106-0.128-0.108-0.127-0.108-0.127-0.11-0.126-0.109-0.126-0.111-0.124-0.111-0.124-0.112-0.124-0.113-0.244-0.228-0.122-0.115-0.24-0.232-0.12-0.117-0.118-0.118-0.118-0.119-0.117-0.119-0.116-0.12-0.116-0.121-0.115-0.121-0.114-0.122-0.114-0.123-0.113-0.123-0.112-0.124-0.222-0.25-0.11-0.126-0.109-0.127-0.108-0.127-0.108-0.128-0.107-0.129-0.106-0.129-0.105-0.13-0.105-0.131-0.104-0.131-0.103-0.132-0.102-0.133-0.101-0.133-0.101-0.134-0.1-0.134-0.099-0.135-0.196-0.272-0.097-0.137-0.096-0.137-0.095-0.138-0.188-0.278-0.092-0.14-0.092-0.141-0.091-0.141-0.09-0.141-0.09-0.142-0.176-0.286-0.087-0.144-0.086-0.145-0.17-0.29-0.083-0.146-0.083-0.147-0.081-0.147-0.081-0.148-0.08-0.148-0.079-0.149-0.079-0.15-0.077-0.149-0.077-0.151-0.15-0.302-0.074-0.152-0.073-0.153-0.072-0.153-0.071-0.153-0.07-0.154-0.07-0.155-0.068-0.155-0.067-0.155-0.067-0.156-0.066-0.157-0.128-0.314-0.063-0.158-0.062-0.158-0.061-0.159-0.06-0.159-0.059-0.16-0.058-0.16-0.114-0.322-0.055-0.162-0.108-0.324-0.052-0.163-0.051-0.163-0.051-0.164-0.049-0.164-0.049-0.165-0.094-0.33-0.09-0.332-0.086-0.334-0.041-0.167-0.08-0.336-0.076-0.338-0.036-0.169-0.07-0.34-0.033-0.171-0.032-0.171-0.031-0.171-0.06-0.344-0.028-0.172-0.027-0.173-0.05-0.346-0.024-0.174-0.023-0.174-0.021-0.174-0.021-0.175-0.038-0.35-0.017-0.176-0.016-0.176-0.015-0.176-0.015-0.177-0.024-0.354-0.011-0.177-0.01-0.178-8e-3 -0.178-7e-3 -0.179-7e-3 -0.178-5e-3 -0.179-4e-3 -0.18-3e-3 -0.179-2e-3 -0.36v-22.217l2e-3 -0.36 3e-3 -0.179 4e-3 -0.179 5e-3 -0.179 0.014-0.358 8e-3 -0.178 0.01-0.177 0.011-0.178 0.024-0.354 0.015-0.177 0.015-0.176 0.016-0.176 0.017-0.176 0.038-0.35 0.021-0.175 0.021-0.174 0.023-0.174 0.024-0.174 0.05-0.346 0.027-0.173 0.028-0.172 0.06-0.344 0.031-0.171 0.032-0.171 0.033-0.17 0.035-0.171 0.035-0.169 0.036-0.17 0.038-0.169 0.038-0.168 0.04-0.169 0.04-0.167 0.041-0.168 0.086-0.334 0.09-0.332 0.094-0.33 0.049-0.165 0.049-0.164 0.051-0.164 0.051-0.163 0.052-0.163 0.108-0.324 0.055-0.162 0.114-0.322 0.058-0.16 0.059-0.16 0.06-0.159 0.061-0.159 0.062-0.158 0.063-0.158 0.128-0.314 0.066-0.157 0.067-0.156 0.067-0.155 0.068-0.155 0.07-0.155 0.07-0.154 0.071-0.153 0.072-0.153 0.073-0.153 0.074-0.152 0.15-0.302 0.154-0.3 0.079-0.15 0.079-0.149 0.08-0.148 0.081-0.148 0.081-0.147 0.083-0.146 0.083-0.147 0.17-0.29 0.086-0.145 0.087-0.143 0.088-0.144 0.088-0.143 0.09-0.142 0.09-0.141 0.091-0.141 0.092-0.141 0.092-0.14 0.188-0.278 0.095-0.138 0.096-0.137 0.097-0.137 0.196-0.272 0.099-0.135 0.1-0.134 0.101-0.134 0.101-0.133 0.102-0.133 0.103-0.132 0.104-0.131 0.105-0.131 0.105-0.129 0.106-0.13 0.107-0.129 0.108-0.128 0.108-0.127 0.109-0.127 0.11-0.126 0.222-0.25 0.112-0.124 0.113-0.123 0.114-0.123 0.114-0.122 0.115-0.121 0.116-0.121 0.116-0.12 0.117-0.119 0.118-0.119 0.118-0.117 0.12-0.118 0.24-0.232 0.122-0.115 0.244-0.228 0.372-0.336 0.252-0.22 0.254-0.218 0.128-0.107 0.129-0.107 0.129-0.106 0.13-0.106 0.262-0.208 0.132-0.103 0.132-0.102 0.134-0.102 0.133-0.101 0.135-0.1 0.135-0.099 0.135-0.098 0.137-0.098 0.274-0.192 0.138-0.095 0.139-0.095 0.139-0.093 0.14-0.093 0.14-0.092 0.141-0.091 0.142-0.09 0.142-0.089 0.143-0.089 0.143-0.088 0.144-0.087 0.144-0.086 0.145-0.085 0.292-0.168 0.294-0.164 0.148-0.081 0.148-0.08 0.149-0.079 0.149-0.078 0.15-0.078 0.151-0.076 0.15-0.076 0.152-0.075 0.304-0.146 0.153-0.072 0.154-0.072 0.154-0.07 0.154-0.069 0.155-0.068 0.156-0.068 0.156-0.067 0.156-0.065 0.157-0.065 0.158-0.064 0.158-0.063 0.158-0.062 0.159-0.061 0.159-0.06 0.16-0.059 0.16-0.058 0.161-0.057 0.322-0.112 0.162-0.054 0.326-0.106 0.163-0.051 0.328-0.1 0.164-0.048 0.165-0.048 0.332-0.092 0.166-0.044 0.167-0.044 0.334-0.084 0.168-0.04 0.168-0.039 0.169-0.039 0.338-0.074 0.17-0.035 0.17-0.034 0.342-0.066 0.171-0.031 0.171-0.03 0.172-0.029 0.173-0.028 0.172-0.027 0.173-0.026 0.174-0.025 0.173-0.024 0.174-0.022 0.175-0.022 0.175-0.021 0.175-0.019 0.175-0.018 0.176-0.018 0.176-0.016 0.176-0.015 0.176-0.014 0.177-0.013 0.178-0.012 0.177-0.01 0.178-0.01 0.178-9e-3 0.178-7e-3 0.179-6e-3 0.179-5e-3 0.179-4e-3 0.18-3e-3 0.18-2e-3h0.18 23.738 0.18zm-23.911 5h-0.155l-0.148 2e-3 -0.149 2e-3 -0.147 3e-3 -0.148 4e-3 -0.146 5e-3 -0.147 7e-3 -0.147 6e-3 -0.146 8e-3 -0.145 9e-3 -0.146 0.01-0.146 0.011-0.145 0.011-0.145 0.012-0.288 0.028-0.144 0.015-0.144 0.016-0.143 0.017-0.144 0.018-0.143 0.018-0.141 0.02-0.142 0.02-0.142 0.021-0.142 0.023-0.282 0.046-0.142 0.025-0.14 0.026-0.139 0.026-0.14 0.027-0.139 0.028-0.14 0.029-0.139 0.03-0.276 0.062-0.138 0.032-0.138 0.034-0.137 0.034-0.136 0.034-0.138 0.036-0.135 0.036-0.135 0.037-0.137 0.039-0.135 0.039-0.134 0.039-0.135 0.041-0.134 0.041-0.133 0.042-0.134 0.043-0.266 0.088-0.132 0.046-0.131 0.045-0.133 0.047-0.131 0.048-0.13 0.048-0.132 0.05-0.129 0.05-0.13 0.05-0.129 0.052-0.13 0.052-0.128 0.053-0.256 0.108-0.128 0.056-0.127 0.056-0.252 0.114-0.127 0.059-0.124 0.059-0.125 0.059-0.126 0.061-0.124 0.061-0.123 0.062-0.246 0.126-0.123 0.065-0.244 0.13-0.121 0.067-0.12 0.067-0.121 0.068-0.12 0.068-0.119 0.069-0.119 0.07-0.119 0.071-0.118 0.071-0.234 0.144-0.117 0.074-0.116 0.074-0.116 0.075-0.115 0.075-0.115 0.076-0.115 0.077-0.113 0.077-0.114 0.079-0.113 0.078-0.224 0.16-0.222 0.162-0.111 0.082-0.109 0.083-0.11 0.083-0.109 0.084-0.216 0.17-0.214 0.172-0.318 0.264-0.104 0.089-0.208 0.18-0.103 0.091-0.103 0.092-0.202 0.184-0.202 0.188-0.099 0.094-0.1 0.095-0.196 0.192-0.098 0.097-0.097 0.097-0.096 0.098-0.19 0.198-0.095 0.1-0.094 0.1-0.186 0.202-0.092 0.102-0.273 0.309-0.089 0.104-0.178 0.21-0.088 0.106-0.087 0.106-0.087 0.107-0.085 0.108-0.086 0.107-0.084 0.109-0.084 0.108-0.084 0.11-0.083 0.11-0.082 0.11-0.081 0.111-0.08 0.111-0.08 0.112-0.08 0.113-0.079 0.113-0.078 0.113-0.154 0.228-0.152 0.23-0.148 0.232-0.074 0.117-0.073 0.117-0.071 0.118-0.072 0.118-0.07 0.118-0.07 0.119-0.07 0.12-0.136 0.24-0.067 0.121-0.066 0.121-0.066 0.122-0.065 0.121-0.064 0.123-0.126 0.246-0.062 0.124-0.061 0.124-0.061 0.125-0.06 0.125-0.059 0.125-0.116 0.252-0.057 0.127-0.056 0.127-0.055 0.127-0.055 0.128-0.053 0.129-0.053 0.128-0.053 0.129-0.051 0.129-0.051 0.131-0.05 0.129-0.049 0.13-0.048 0.132-0.048 0.131-0.047 0.131-0.046 0.132-0.045 0.133-0.045 0.132-0.043 0.133-0.043 0.134-0.042 0.133-0.042 0.135-0.04 0.134-0.04 0.135-0.039 0.135-0.038 0.136-0.037 0.135-0.036 0.137-0.036 0.136-0.035 0.137-0.034 0.137-0.033 0.138-0.032 0.137-0.032 0.138-0.06 0.278-0.029 0.139-0.028 0.139-0.054 0.28-0.025 0.14-0.025 0.141-0.024 0.141-0.023 0.141-0.022 0.142-0.042 0.284-0.019 0.143-0.019 0.142-0.018 0.143-0.016 0.144-0.016 0.143-0.03 0.288-0.013 0.145-0.024 0.29-0.011 0.145-0.018 0.292-8e-3 0.146-7e-3 0.146-6e-3 0.147-5e-3 0.147-4e-3 0.147-4e-3 0.148-2e-3 0.148-1e-3 0.148-1e-3 0.156v22.201l1e-3 0.157 1e-3 0.147 2e-3 0.148 4e-3 0.148 4e-3 0.147 5e-3 0.147 6e-3 0.147 7e-3 0.146 8e-3 0.146 9e-3 0.147 9e-3 0.145 0.011 0.145 0.024 0.29 0.013 0.145 0.03 0.288 0.016 0.143 0.016 0.144 0.018 0.143 0.038 0.286 0.021 0.142 0.021 0.141 0.022 0.142 0.023 0.141 0.024 0.141 0.025 0.141 0.025 0.14 0.054 0.28 0.028 0.139 0.029 0.139 0.06 0.278 0.032 0.138 0.032 0.137 0.033 0.138 0.034 0.137 0.035 0.137 0.036 0.137 0.036 0.136 0.037 0.136 0.038 0.135 0.039 0.135 0.04 0.135 0.04 0.134 0.042 0.135 0.042 0.133 0.043 0.134 0.043 0.133 0.045 0.132 0.045 0.133 0.046 0.132 0.047 0.131 0.048 0.132 0.048 0.131 0.049 0.13 0.05 0.13 0.051 0.13 0.051 0.129 0.106 0.258 0.053 0.128 0.055 0.128 0.055 0.127 0.056 0.127 0.057 0.127 0.116 0.252 0.059 0.125 0.06 0.125 0.061 0.125 0.061 0.124 0.062 0.124 0.126 0.246 0.064 0.123 0.065 0.122 0.066 0.121 0.066 0.122 0.067 0.12 0.136 0.24 0.07 0.12 0.07 0.119 0.07 0.118 0.072 0.119 0.071 0.117 0.073 0.117 0.148 0.234 0.074 0.115 0.075 0.115 0.077 0.115 0.154 0.228 0.078 0.113 0.079 0.113 0.08 0.113 0.08 0.112 0.08 0.111 0.081 0.111 0.082 0.11 0.083 0.11 0.084 0.11 0.084 0.108 0.084 0.109 0.086 0.108 0.085 0.107 0.087 0.107 0.087 0.106 0.088 0.106 0.089 0.105 0.088 0.104 0.09 0.105 0.273 0.309 0.092 0.102 0.186 0.202 0.094 0.101 0.285 0.297 0.096 0.098 0.195 0.195 0.098 0.095 0.098 0.096 0.1 0.095 0.099 0.095 0.101 0.094 0.202 0.186 0.101 0.091 0.103 0.092 0.103 0.091 0.104 0.091 0.208 0.178 0.318 0.264 0.214 0.172 0.108 0.086 0.108 0.084 0.109 0.084 0.11 0.083 0.109 0.083 0.222 0.164 0.111 0.08 0.112 0.081 0.112 0.079 0.113 0.078 0.114 0.079 0.113 0.077 0.115 0.077 0.23 0.152 0.232 0.148 0.117 0.074 0.234 0.144 0.118 0.072 0.238 0.14 0.119 0.069 0.12 0.068 0.121 0.069 0.12 0.066 0.121 0.067 0.244 0.13 0.123 0.065 0.246 0.126 0.123 0.062 0.124 0.061 0.126 0.061 0.125 0.06 0.124 0.058 0.127 0.059 0.126 0.058 0.126 0.056 0.127 0.056 0.128 0.056 0.256 0.108 0.128 0.053 0.13 0.052 0.129 0.052 0.13 0.051 0.129 0.049 0.132 0.05 0.13 0.048 0.131 0.048 0.133 0.047 0.131 0.046 0.132 0.045 0.266 0.088 0.134 0.043 0.133 0.042 0.134 0.041 0.135 0.041 0.134 0.04 0.135 0.038 0.137 0.039 0.135 0.037 0.135 0.036 0.138 0.036 0.136 0.035 0.137 0.033 0.138 0.034 0.138 0.032 0.276 0.062 0.139 0.03 0.14 0.029 0.139 0.028 0.14 0.027 0.139 0.027 0.14 0.025 0.142 0.025 0.141 0.024 0.141 0.023 0.142 0.022 0.142 0.021 0.142 0.02 0.141 0.02 0.143 0.018 0.144 0.018 0.143 0.017 0.144 0.016 0.144 0.015 0.288 0.028 0.29 0.024 0.292 0.02 0.145 9e-3 0.146 8e-3 0.147 7e-3 0.147 6e-3 0.146 5e-3 0.148 4e-3 0.147 3e-3 0.149 3e-3 0.148 1e-3 0.155 1e-3h23.723l0.156-1e-3 0.148-1e-3 0.296-6e-3 0.148-4e-3 0.146-5e-3 0.147-6e-3 0.146-7e-3 0.146-8e-3 0.146-9e-3 0.145-0.01 0.146-0.01 0.146-0.012 0.145-0.012 0.288-0.028 0.144-0.015 0.143-0.016 0.143-0.017 0.144-0.018 0.143-0.018 0.284-0.04 0.142-0.021 0.142-0.022 0.141-0.023 0.141-0.024 0.141-0.025 0.14-0.025 0.14-0.027 0.139-0.027 0.14-0.028 0.139-0.029 0.139-0.03 0.139-0.031 0.138-0.031 0.137-0.032 0.138-0.034 0.137-0.033 0.137-0.035 0.137-0.036 0.136-0.036 0.135-0.037 0.136-0.039 0.135-0.038 0.135-0.04 0.135-0.041 0.134-0.041 0.133-0.042 0.134-0.043 0.266-0.088 0.132-0.045 0.131-0.046 0.132-0.047 0.262-0.096 0.132-0.05 0.129-0.049 0.129-0.051 0.13-0.052 0.129-0.052 0.129-0.053 0.127-0.054 0.128-0.054 0.128-0.056 0.127-0.056 0.126-0.056 0.127-0.058 0.126-0.059 0.125-0.058 0.125-0.06 0.125-0.061 0.124-0.061 0.123-0.062 0.124-0.063 0.123-0.063 0.122-0.065 0.123-0.065 0.121-0.065 0.121-0.066 0.242-0.136 0.119-0.068 0.119-0.069 0.12-0.07 0.118-0.071 0.119-0.071 0.234-0.144 0.117-0.074 0.116-0.074 0.115-0.074 0.116-0.076 0.115-0.076 0.228-0.154 0.114-0.079 0.112-0.078 0.113-0.08 0.112-0.08 0.111-0.08 0.11-0.082 0.111-0.082 0.22-0.166 0.109-0.084 0.107-0.084 0.109-0.086 0.107-0.086 0.106-0.086 0.107-0.088 0.106-0.088 0.105-0.088 0.105-0.089 0.104-0.089 0.309-0.273 0.102-0.092 0.202-0.186 0.1-0.094 0.1-0.095 0.099-0.095 0.099-0.096 0.097-0.095 0.098-0.098 0.097-0.098 0.096-0.097 0.096-0.099 0.095-0.099 0.094-0.099 0.188-0.202 0.092-0.101 0.093-0.102 0.182-0.206 0.09-0.103 0.09-0.104 0.089-0.105 0.088-0.105 0.088-0.106 0.087-0.106 0.087-0.107 0.086-0.107 0.085-0.108 0.085-0.109 0.084-0.108 0.083-0.109 0.083-0.111 0.082-0.11 0.162-0.222 0.08-0.112 0.08-0.113 0.079-0.113 0.078-0.113 0.154-0.228 0.076-0.115 0.075-0.115 0.075-0.116 0.074-0.116 0.146-0.234 0.072-0.117 0.071-0.119 0.071-0.118 0.07-0.119 0.069-0.119 0.069-0.121 0.134-0.24 0.067-0.122 0.066-0.122 0.064-0.121 0.128-0.246 0.063-0.123 0.062-0.124 0.061-0.124 0.061-0.125 0.118-0.25 0.059-0.126 0.057-0.126 0.057-0.127 0.056-0.127 0.055-0.127 0.055-0.128 0.054-0.128 0.053-0.129 0.104-0.258 0.05-0.13 0.051-0.13 0.049-0.131 0.048-0.13 0.048-0.132 0.047-0.132 0.046-0.131 0.045-0.133 0.044-0.132 0.044-0.133 0.043-0.133 0.042-0.134 0.041-0.135 0.041-0.134 0.078-0.27 0.038-0.135 0.038-0.136 0.036-0.136 0.036-0.137 0.068-0.274 0.033-0.137 0.033-0.138 0.031-0.138 0.031-0.139 0.03-0.139 0.029-0.138 0.028-0.14 0.027-0.14 0.052-0.28 0.025-0.141 0.024-0.141 0.022-0.141 0.023-0.141 0.021-0.142 0.02-0.143 0.02-0.142 0.036-0.286 0.017-0.144 0.016-0.143 0.015-0.144 0.014-0.144 0.014-0.145 0.012-0.144 0.011-0.146 0.011-0.145 0.01-0.145 9e-3 -0.147 8e-3 -0.146 6e-3 -0.146 7e-3 -0.147 5e-3 -0.147 4e-3 -0.147 3e-3 -0.148 2e-3 -0.147 2e-3 -0.149v-0.156-22.201-0.156l-2e-3 -0.149-2e-3 -0.147-3e-3 -0.148-4e-3 -0.147-5e-3 -0.147-7e-3 -0.147-6e-3 -0.146-8e-3 -0.146-9e-3 -0.146-0.01-0.146-0.011-0.145-0.011-0.146-0.012-0.144-0.014-0.145-0.014-0.144-0.015-0.144-0.016-0.143-0.017-0.144-0.018-0.143-0.018-0.142-0.02-0.143-0.02-0.142-0.021-0.142-0.023-0.142-0.022-0.141-0.024-0.141-0.025-0.14-0.026-0.141-0.026-0.14-0.027-0.14-0.028-0.139-0.029-0.139-0.03-0.139-0.031-0.139-0.031-0.138-0.033-0.138-0.033-0.137-0.068-0.274-0.036-0.136-0.036-0.137-0.038-0.135-0.038-0.136-0.078-0.27-0.041-0.134-0.041-0.135-0.042-0.133-0.043-0.134-0.044-0.133-0.044-0.132-0.045-0.133-0.046-0.131-0.047-0.132-0.048-0.132-0.048-0.13-0.049-0.13-0.051-0.131-0.05-0.13-0.104-0.258-0.053-0.128-0.054-0.129-0.055-0.128-0.055-0.127-0.056-0.127-0.057-0.127-0.057-0.126-0.059-0.126-0.118-0.25-0.061-0.125-0.061-0.124-0.062-0.124-0.063-0.123-0.128-0.246-0.064-0.121-0.066-0.122-0.134-0.242-0.067-0.12-0.138-0.24-0.07-0.119-0.142-0.236-0.072-0.118-0.146-0.234-0.074-0.116-0.075-0.115-0.075-0.116-0.076-0.115-0.154-0.228-0.078-0.113-0.079-0.113-0.08-0.113-0.08-0.111-0.081-0.112-0.081-0.111-0.082-0.11-0.166-0.22-0.084-0.108-0.085-0.109-0.085-0.108-0.086-0.107-0.087-0.107-0.087-0.106-0.087-0.105-0.089-0.106-0.089-0.105-0.09-0.104-0.09-0.103-0.091-0.103-0.091-0.102-0.093-0.103-0.092-0.101-0.094-0.101-0.188-0.2-0.095-0.099-0.096-0.099-0.096-0.097-0.097-0.098-0.098-0.097-0.097-0.096-0.099-0.096-0.099-0.095-0.2-0.188-0.101-0.094-0.101-0.093-0.102-0.091-0.103-0.092-0.103-0.091-0.103-0.09-0.104-0.09-0.105-0.089-0.105-0.088-0.106-0.088-0.107-0.088-0.106-0.086-0.107-0.086-0.109-0.085-0.107-0.085-0.109-0.084-0.22-0.166-0.111-0.082-0.11-0.081-0.111-0.081-0.112-0.08-0.113-0.08-0.112-0.078-0.114-0.079-0.114-0.077-0.114-0.076-0.115-0.077-0.116-0.076-0.115-0.074-0.116-0.074-0.117-0.074-0.234-0.144-0.119-0.071-0.118-0.071-0.12-0.07-0.119-0.069-0.119-0.068-0.121-0.068-0.242-0.134-0.121-0.065-0.123-0.065-0.122-0.065-0.123-0.063-0.124-0.063-0.123-0.062-0.124-0.061-0.125-0.061-0.25-0.118-0.126-0.059-0.127-0.057-0.126-0.057-0.127-0.056-0.128-0.056-0.128-0.054-0.127-0.054-0.129-0.053-0.129-0.052-0.13-0.052-0.258-0.1-0.132-0.05-0.262-0.096-0.132-0.047-0.131-0.045-0.132-0.046-0.266-0.088-0.134-0.043-0.133-0.042-0.134-0.041-0.135-0.041-0.27-0.078-0.136-0.039-0.135-0.037-0.136-0.036-0.137-0.036-0.274-0.068-0.138-0.034-0.137-0.032-0.138-0.031-0.139-0.031-0.139-0.03-0.139-0.029-0.14-0.028-0.139-0.027-0.28-0.052-0.141-0.025-0.141-0.024-0.141-0.022-0.142-0.023-0.142-0.021-0.284-0.04-0.143-0.018-0.144-0.018-0.143-0.017-0.143-0.016-0.144-0.015-0.288-0.028-0.145-0.012-0.292-0.022-0.145-0.01-0.146-9e-3 -0.146-8e-3 -0.146-6e-3 -0.147-7e-3 -0.146-5e-3 -0.148-4e-3 -0.148-3e-3 -0.296-4e-3h-0.156-23.723z" fill="#2c2c49"/><text x="344.839px" y="582.123px" fill="#f0e8af" font-family="'AppleSDGothicNeo-Heavy'" font-size="48px">Omega</text><g id="lötoben" stroke="#728072"><g id="Lötp"><ellipse cx="342.17" cy="292.45" rx="18.939" ry="18.489" fill="#959a93" stroke-width="3px"/><rect x="337.19" y="287.77" width="9.159" height="9.787" fill="#f1f1e3" stroke-linecap="square" stroke-linejoin="miter" stroke-width="1px"/></g><g id="Lötp1"><ellipse cx="763.87" cy="292.45" rx="18.939" ry="18.489" fill="#959a93" stroke-width="3px"/><rect x="758.9" y="287.77" width="9.159" height="9.787" fill="#f1f1e3" stroke-linecap="square" stroke-linejoin="miter" stroke-width="1px"/></g><g id="Lötp2"><ellipse cx="486.18" cy="292.45" rx="18.939" ry="18.489" fill="#959a93" stroke-width="3px"/><rect x="481.2" y="287.77" width="9.159" height="9.787" fill="#f1f1e3" stroke-linecap="square" stroke-linejoin="miter" stroke-width="1px"/></g><g id="Lötp3"><ellipse cx="907.88" cy="292.45" rx="18.939" ry="18.489" fill="#959a93" stroke-width="3px"/><rect x="902.91" y="287.77" width="9.159" height="9.787" fill="#f1f1e3" stroke-linecap="square" stroke-linejoin="miter" stroke-width="1px"/></g><g id="Lötp4"><ellipse cx="624.49" cy="292.45" rx="18.939" ry="18.489" fill="#959a93" stroke-width="3px"/><rect x="619.51" y="287.77" width="9.159" height="9.787" fill="#f1f1e3" stroke-linecap="square" stroke-linejoin="miter" stroke-width="1px"/></g><g id="Lötp5"><ellipse cx="294.4" cy="292.45" rx="18.939" ry="18.489" fill="#959a93" stroke-width="3px"/><rect x="289.42" y="287.77" width="9.159" height="9.787" fill="#f1f1e3" stroke-linecap="square" stroke-linejoin="miter" stroke-width="1px"/></g><g id="Lötp6"><ellipse cx="716.1" cy="292.45" rx="18.939" ry="18.489" fill="#959a93" stroke-width="3px"/><rect x="711.13" y="287.77" width="9.159" height="9.787" fill="#f1f1e3" stroke-linecap="square" stroke-linejoin="miter" stroke-width="1px"/></g><g id="Lötp7"><ellipse cx="438.41" cy="292.45" rx="18.939" ry="18.489" fill="#959a93" stroke-width="3px"/><rect x="433.43" y="287.77" width="9.159" height="9.787" fill="#f1f1e3" stroke-linecap="square" stroke-linejoin="miter" stroke-width="1px"/></g><g id="Lötp8"><ellipse cx="860.11" cy="292.45" rx="18.939" ry="18.489" fill="#959a93" stroke-width="3px"/><rect x="855.14" y="287.77" width="9.159" height="9.787" fill="#f1f1e3" stroke-linecap="square" stroke-linejoin="miter" stroke-width="1px"/></g><g id="Lötp9"><ellipse cx="576.71" cy="292.45" rx="18.939" ry="18.489" fill="#959a93" stroke-width="3px"/><rect x="571.74" y="287.77" width="9.159" height="9.787" fill="#f1f1e3" stroke-linecap="square" stroke-linejoin="miter" stroke-width="1px"/></g><g id="Lötp10"><ellipse cx="998.42" cy="292.45" rx="18.939" ry="18.489" fill="#959a93" stroke-width="3px"/><rect x="993.44" y="287.77" width="9.159" height="9.787" fill="#f1f1e3" stroke-linecap="square" stroke-linejoin="miter" stroke-width="1px"/></g><g id="Lötp11"><ellipse cx="387.25" cy="292.45" rx="18.939" ry="18.489" fill="#959a93" stroke-width="3px"/><rect x="382.27" y="287.77" width="9.159" height="9.787" fill="#f1f1e3" stroke-linecap="square" stroke-linejoin="miter" stroke-width="1px"/></g><g id="Lötp12"><ellipse cx="808.95" cy="292.45" rx="18.939" ry="18.489" fill="#959a93" stroke-width="3px"/><rect x="803.98" y="287.77" width="9.159" height="9.787" fill="#f1f1e3" stroke-linecap="square" stroke-linejoin="miter" stroke-width="1px"/></g><g id="Lötp13"><ellipse cx="531.26" cy="292.45" rx="18.939" ry="18.489" fill="#959a93" stroke-width="3px"/><rect x="526.28" y="287.77" width="9.159" height="9.787" fill="#f1f1e3" stroke-linecap="square" stroke-linejoin="miter" stroke-width="1px"/></g><g id="Lötp14"><ellipse cx="952.96" cy="292.45" rx="18.939" ry="18.489" fill="#959a93" stroke-width="3px"/><rect x="947.98" y="287.77" width="9.159" height="9.787" fill="#f1f1e3" stroke-linecap="square" stroke-linejoin="miter" stroke-width="1px"/></g><g id="Lötp15"><ellipse cx="669.56" cy="292.45" rx="18.939" ry="18.489" fill="#959a93" stroke-width="3px"/><rect x="664.59" y="287.77" width="9.159" height="9.787" fill="#f1f1e3" stroke-linecap="square" stroke-linejoin="miter" stroke-width="1px"/></g></g><g id="lötoben1" stroke="#728072"><g id="Lötp16"><ellipse cx="342.17" cy="860.86" rx="18.939" ry="18.489" fill="#959a93" stroke-width="3px"/><rect x="337.19" y="856.19" width="9.159" height="9.787" fill="#f1f1e3" stroke-linecap="square" stroke-linejoin="miter" stroke-width="1px"/></g><g id="Lötp17"><ellipse cx="763.87" cy="860.86" rx="18.939" ry="18.489" fill="#959a93" stroke-width="3px"/><rect x="758.9" y="856.19" width="9.159" height="9.787" fill="#f1f1e3" stroke-linecap="square" stroke-linejoin="miter" stroke-width="1px"/></g><g id="Lötp18"><ellipse cx="486.18" cy="860.86" rx="18.939" ry="18.489" fill="#959a93" stroke-width="3px"/><rect x="481.2" y="856.19" width="9.159" height="9.787" fill="#f1f1e3" stroke-linecap="square" stroke-linejoin="miter" stroke-width="1px"/></g><g id="Lötp19"><ellipse cx="907.88" cy="860.86" rx="18.939" ry="18.489" fill="#959a93" stroke-width="3px"/><rect x="902.91" y="856.19" width="9.159" height="9.787" fill="#f1f1e3" stroke-linecap="square" stroke-linejoin="miter" stroke-width="1px"/></g><g id="Lötp20"><ellipse cx="624.49" cy="860.86" rx="18.939" ry="18.489" fill="#959a93" stroke-width="3px"/><rect x="619.51" y="856.19" width="9.159" height="9.787" fill="#f1f1e3" stroke-linecap="square" stroke-linejoin="miter" stroke-width="1px"/></g><g id="Lötp21"><ellipse cx="294.4" cy="860.86" rx="18.939" ry="18.489" fill="#959a93" stroke-width="3px"/><rect x="289.42" y="856.19" width="9.159" height="9.787" fill="#f1f1e3" stroke-linecap="square" stroke-linejoin="miter" stroke-width="1px"/></g><g id="Lötp22"><ellipse cx="716.1" cy="860.86" rx="18.939" ry="18.489" fill="#959a93" stroke-width="3px"/><rect x="711.13" y="856.19" width="9.159" height="9.787" fill="#f1f1e3" stroke-linecap="square" stroke-linejoin="miter" stroke-width="1px"/></g><g id="Lötp23"><ellipse cx="438.41" cy="860.86" rx="18.939" ry="18.489" fill="#959a93" stroke-width="3px"/><rect x="433.43" y="856.19" width="9.159" height="9.787" fill="#f1f1e3" stroke-linecap="square" stroke-linejoin="miter" stroke-width="1px"/></g><g id="Lötp24"><ellipse cx="860.11" cy="860.86" rx="18.939" ry="18.489" fill="#959a93" stroke-width="3px"/><rect x="855.14" y="856.19" width="9.159" height="9.787" fill="#f1f1e3" stroke-linecap="square" stroke-linejoin="miter" stroke-width="1px"/></g><g id="Lötp25"><ellipse cx="576.71" cy="860.86" rx="18.939" ry="18.489" fill="#959a93" stroke-width="3px"/><rect x="571.74" y="856.19" width="9.159" height="9.787" fill="#f1f1e3" stroke-linecap="square" stroke-linejoin="miter" stroke-width="1px"/></g><g id="Lötp26"><ellipse cx="998.42" cy="860.86" rx="18.939" ry="18.489" fill="#959a93" stroke-width="3px"/><rect x="993.44" y="856.19" width="9.159" height="9.787" fill="#f1f1e3" stroke-linecap="square" stroke-linejoin="miter" stroke-width="1px"/></g><g id="Lötp27"><ellipse cx="387.25" cy="860.86" rx="18.939" ry="18.489" fill="#959a93" stroke-width="3px"/><rect x="382.27" y="856.19" width="9.159" height="9.787" fill="#f1f1e3" stroke-linecap="square" stroke-linejoin="miter" stroke-width="1px"/></g><g id="Lötp28"><ellipse cx="808.95" cy="860.86" rx="18.939" ry="18.489" fill="#959a93" stroke-width="3px"/><rect x="803.98" y="856.19" width="9.159" height="9.787" fill="#f1f1e3" stroke-linecap="square" stroke-linejoin="miter" stroke-width="1px"/></g><g id="Lötp29"><ellipse cx="531.26" cy="860.86" rx="18.939" ry="18.489" fill="#959a93" stroke-width="3px"/><rect x="526.28" y="856.19" width="9.159" height="9.787" fill="#f1f1e3" stroke-linecap="square" stroke-linejoin="miter" stroke-width="1px"/></g><g id="Lötp30"><ellipse cx="952.96" cy="860.86" rx="18.939" ry="18.489" fill="#959a93" stroke-width="3px"/><rect x="947.98" y="856.19" width="9.159" height="9.787" fill="#f1f1e3" stroke-linecap="square" stroke-linejoin="miter" stroke-width="1px"/></g><g id="Lötp31"><ellipse cx="669.56" cy="860.86" rx="18.939" ry="18.489" fill="#959a93" stroke-width="3px"/><rect x="664.59" y="856.19" width="9.159" height="9.787" fill="#f1f1e3" stroke-linecap="square" stroke-linejoin="miter" stroke-width="1px"/></g></g><rect x="553.83" y="418.67" width="266.26" height="266.05" fill="#617873" stroke="#728072" stroke-linecap="square" stroke-linejoin="miter" stroke-width="1px"/><rect x="900.59" y="425.12" width="189.89" height="294.37" fill="#607973" stroke="#728072" stroke-linecap="square" stroke-linejoin="miter" stroke-width="1px"/><g stroke="#728072" stroke-linecap="square" stroke-linejoin="miter" stroke-width="1px"><rect x="783.53" y="341.35" width="76.033" height="39.596" fill="#f2f9ff"/><rect x="792.68" y="335.24" width="60.853" height="50.289" fill="#8f9e9f"/></g><g stroke="#728072" stroke-linecap="square" stroke-linejoin="miter" stroke-width="1px"><rect x="291.43" y="352.39" width="211.41" height="19.155" fill="#cad0c8"/><rect x="291.43" y="384.63" width="211.41" height="19.155" fill="#cad0c8"/><rect x="291.43" y="414.4" width="211.41" height="19.155" fill="#cad0c8"/><rect x="291.43" y="445.01" width="211.41" height="19.155" fill="#cad0c8"/><rect x="337.65" y="342.34" width="123.42" height="124.59" fill="#426259"/></g><path d="m654.36 750.48c0-7.843-6.368-14.211-14.211-14.211h-46.798c-7.843 0-14.211 6.368-14.211 14.211v28.423c0 7.844 6.368 14.212 14.211 14.212h46.798c7.843 0 14.211-6.368 14.211-14.212v-28.423z" fill="#dadeda"/><path d="m640.33 736.27 0.183 3e-3 0.183 6e-3 0.182 8e-3 0.181 0.011 0.181 0.012 0.18 0.015 0.179 0.017 0.179 0.02 0.178 0.021 0.177 0.024 0.177 0.026 0.176 0.028 0.175 0.03 0.175 0.032 0.173 0.035 0.173 0.036 0.173 0.039 0.171 0.041 0.171 0.043 0.17 0.044 0.169 0.047 0.168 0.049 0.167 0.051 0.166 0.053 0.166 0.055 0.164 0.057 0.164 0.059 0.163 0.061 0.162 0.062 0.161 0.065 0.159 0.066 0.159 0.069 0.158 0.07 0.157 0.072 0.156 0.074 0.155 0.076 0.153 0.078 0.153 0.079 0.152 0.081 0.15 0.083 0.149 0.085 0.149 0.086 0.147 0.089 0.146 0.089 0.144 0.092 0.144 0.093 0.142 0.095 0.141 0.097 0.14 0.098 0.139 0.1 0.138 0.102 0.136 0.103 0.135 0.105 0.133 0.106 0.133 0.108 0.13 0.109 0.13 0.111 0.128 0.113 0.127 0.114 0.126 0.115 0.124 0.117 0.123 0.118 0.121 0.12 0.12 0.122 0.118 0.122 0.117 0.124 0.116 0.126 0.114 0.127 0.112 0.128 0.111 0.13 0.109 0.131 0.108 0.132 0.107 0.134 0.104 0.134 0.103 0.137 0.102 0.137 0.1 0.139 0.098 0.14 0.097 0.141 0.095 0.142 0.093 0.144 0.092 0.145 0.09 0.145 0.088 0.148 0.086 0.148 0.085 0.149 0.083 0.151 0.081 0.151 0.08 0.153 0.077 0.154 0.076 0.154 0.074 0.156 0.072 0.157 0.07 0.158 0.069 0.159 0.066 0.16 0.065 0.161 0.063 0.161 0.06 0.163 0.059 0.164 0.057 0.164 0.055 0.166 0.053 0.166 0.051 0.167 0.049 0.169 0.047 0.169 0.045 0.169 0.042 0.171 0.041 0.171 0.039 0.173 0.036 0.173 0.035 0.174 0.032 0.174 0.03 0.175 0.028 0.176 0.026 0.177 0.024 0.177 0.022 0.178 0.019 0.179 0.017 0.18 0.015 0.18 0.012 0.18 0.011 0.181 8e-3 0.182 6e-3 0.183 3e-3 0.183 1e-3 0.183v28.423l-1e-3 0.184-3e-3 0.183-6e-3 0.182-8e-3 0.182-0.011 0.181-0.012 0.181-0.015 0.18-0.017 0.179-0.019 0.179-0.022 0.178-0.024 0.178-0.026 0.176-0.028 0.176-0.03 0.176-0.032 0.174-0.035 0.174-0.036 0.173-0.039 0.172-0.041 0.172-0.042 0.17-0.045 0.17-0.047 0.169-0.049 0.168-0.051 0.167-0.053 0.167-0.055 0.165-0.057 0.165-0.059 0.164-0.06 0.162-0.063 0.162-0.065 0.161-0.066 0.16-0.069 0.159-0.07 0.158-0.072 0.156-0.074 0.156-0.076 0.155-0.077 0.154-0.08 0.152-0.081 0.152-0.083 0.15-0.085 0.15-0.086 0.148-0.088 0.147-0.09 0.146-0.092 0.145-0.093 0.143-0.095 0.143-0.097 0.141-0.098 0.14-0.1 0.139-0.102 0.137-0.103 0.136-0.104 0.135-0.107 0.134-0.108 0.132-0.109 0.131-0.111 0.13-0.112 0.128-0.114 0.127-0.116 0.125-0.117 0.124-0.118 0.123-0.12 0.121-0.121 0.12-0.123 0.119-0.124 0.117-0.126 0.115-0.127 0.114-0.128 0.112-0.13 0.111-0.13 0.11-0.133 0.108-0.133 0.106-0.135 0.105-0.136 0.103-0.138 0.101-0.139 0.1-0.14 0.099-0.141 0.096-0.142 0.095-0.144 0.094-0.144 0.091-0.146 0.09-0.147 0.088-0.149 0.087-0.149 0.084-0.15 0.083-0.152 0.082-0.153 0.079-0.153 0.078-0.155 0.075-0.156 0.074-0.157 0.073-0.158 0.07-0.159 0.068-0.159 0.067-0.161 0.064-0.162 0.063-0.163 0.061-0.164 0.059-0.164 0.057-0.166 0.054-0.166 0.053-0.167 0.051-0.168 0.049-0.169 0.047-0.17 0.045-0.171 0.043-0.171 0.041-0.173 0.038-0.173 0.037-0.173 0.034-0.175 0.033-0.175 0.03-0.176 0.028-0.177 0.026-0.177 0.023-0.178 0.022-0.179 0.019-0.179 0.017-0.18 0.015-0.181 0.013-0.181 0.01-0.182 8e-3 -0.183 6e-3 -0.183 4e-3 -0.183 1e-3h-46.798l-0.183-1e-3 -0.183-4e-3 -0.183-6e-3 -0.181-8e-3 -0.182-0.01-0.18-0.013-0.18-0.015-0.18-0.017-0.178-0.019-0.178-0.022-0.178-0.023-0.177-0.026-0.176-0.028-0.175-0.03-0.174-0.033-0.174-0.034-0.173-0.037-0.172-0.038-0.172-0.041-0.17-0.043-0.17-0.045-0.169-0.047-0.168-0.049-0.168-0.051-0.166-0.053-0.166-0.054-0.164-0.057-0.164-0.059-0.163-0.061-0.161-0.063-0.161-0.064-0.16-0.067-0.159-0.068-0.158-0.07-0.157-0.073-0.155-0.074-0.155-0.075-0.154-0.078-0.153-0.079-0.151-0.082-0.151-0.083-0.149-0.084-0.148-0.087-0.147-0.088-0.146-0.09-0.145-0.091-0.144-0.094-0.142-0.095-0.141-0.096-0.14-0.099-0.139-0.1-0.137-0.101-0.136-0.103-0.135-0.105-0.134-0.106-0.132-0.108-0.131-0.11-0.13-0.111-0.128-0.112-0.127-0.114-0.125-0.115-0.125-0.117-0.122-0.119-0.122-0.12-0.119-0.121-0.119-0.123-0.117-0.124-0.115-0.125-0.114-0.127-0.113-0.128-0.111-0.13-0.109-0.131-0.108-0.132-0.106-0.134-0.105-0.135-0.103-0.136-0.102-0.137-0.1-0.139-0.098-0.14-0.097-0.141-0.188-0.286-0.091-0.145-0.09-0.146-0.089-0.147-0.086-0.148-0.085-0.15-0.083-0.15-0.081-0.152-0.079-0.152-0.078-0.154-0.076-0.155-0.074-0.156-0.072-0.156-0.07-0.158-0.068-0.159-0.067-0.16-0.065-0.161-0.062-0.162-0.061-0.162-0.059-0.164-0.057-0.165-0.055-0.165-0.053-0.167-0.051-0.167-0.048-0.168-0.047-0.169-0.045-0.17-0.043-0.17-0.041-0.172-0.038-0.172-0.037-0.173-0.035-0.174-0.032-0.174-0.03-0.176-0.028-0.176-0.026-0.176-0.024-0.178-0.021-0.178-0.02-0.179-0.017-0.179-0.015-0.18-0.012-0.181-0.01-0.181-9e-3 -0.182-5e-3 -0.182-4e-3 -0.183-1e-3 -0.184v-28.423l1e-3 -0.183 4e-3 -0.183 5e-3 -0.183 9e-3 -0.182 0.01-0.181 0.012-0.18 0.015-0.18 0.017-0.18 0.02-0.179 0.021-0.178 0.024-0.177 0.026-0.177 0.028-0.176 0.03-0.175 0.032-0.174 0.035-0.174 0.037-0.173 0.038-0.173 0.041-0.171 0.043-0.171 0.045-0.169 0.047-0.169 0.048-0.169 0.051-0.167 0.053-0.166 0.055-0.166 0.057-0.164 0.059-0.164 0.061-0.163 0.062-0.161 0.065-0.161 0.067-0.16 0.068-0.159 0.07-0.158 0.072-0.157 0.074-0.156 0.076-0.154 0.078-0.154 0.079-0.153 0.081-0.151 0.083-0.151 0.085-0.149 0.086-0.148 0.089-0.148 0.09-0.145 0.091-0.145 0.094-0.144 0.094-0.142 0.097-0.141 0.098-0.14 0.1-0.139 0.102-0.137 0.103-0.137 0.105-0.134 0.106-0.134 0.108-0.132 0.109-0.131 0.111-0.13 0.113-0.128 0.114-0.127 0.115-0.126 0.117-0.124 0.238-0.244 0.122-0.12 0.122-0.118 0.125-0.117 0.125-0.115 0.127-0.114 0.128-0.113 0.13-0.111 0.131-0.109 0.132-0.108 0.134-0.106 0.135-0.105 0.136-0.103 0.137-0.102 0.139-0.1 0.14-0.098 0.141-0.097 0.142-0.095 0.144-0.093 0.145-0.092 0.146-0.089 0.147-0.089 0.148-0.086 0.149-0.085 0.151-0.083 0.151-0.081 0.153-0.079 0.154-0.078 0.155-0.076 0.155-0.074 0.157-0.072 0.158-0.07 0.159-0.069 0.16-0.066 0.161-0.065 0.161-0.062 0.163-0.061 0.164-0.059 0.164-0.057 0.166-0.055 0.166-0.053 0.168-0.051 0.168-0.049 0.169-0.047 0.17-0.044 0.17-0.043 0.172-0.041 0.172-0.039 0.173-0.036 0.174-0.035 0.174-0.032 0.175-0.03 0.176-0.028 0.177-0.026 0.178-0.024 0.178-0.021 0.178-0.02 0.18-0.017 0.18-0.015 0.18-0.012 0.182-0.011 0.181-8e-3 0.183-6e-3 0.183-3e-3 0.183-1e-3h46.798l0.183 1e-3zm-46.966 4.499-0.14 1e-3 -0.127 2e-3 -0.126 4e-3 -0.124 6e-3 -0.125 7e-3 -0.124 8e-3 -0.123 0.011-0.122 0.011-0.123 0.013-0.122 0.015-0.121 0.016-0.12 0.018-0.12 0.019-0.119 0.021-0.119 0.022-0.119 0.023-0.117 0.025-0.118 0.027-0.117 0.027-0.116 0.029-0.116 0.031-0.115 0.032-0.115 0.033-0.113 0.035-0.113 0.036-0.113 0.037-0.112 0.039-0.112 0.04-0.11 0.041-0.11 0.043-0.11 0.044-0.109 0.046-0.108 0.046-0.108 0.048-0.107 0.049-0.106 0.051-0.106 0.052-0.104 0.052-0.105 0.055-0.104 0.055-0.101 0.056-0.103 0.059-0.102 0.059-0.1 0.06-0.099 0.061-0.099 0.063-0.099 0.064-0.097 0.065-0.097 0.066-0.096 0.067-0.095 0.069-0.094 0.069-0.093 0.071-0.093 0.072-0.091 0.072-0.09 0.074-0.09 0.075-0.089 0.076-0.089 0.078-0.086 0.078-0.086 0.079-0.085 0.08-0.084 0.081-0.084 0.082-0.082 0.084-0.081 0.083-0.08 0.085-0.079 0.087-0.078 0.087-0.077 0.088-0.077 0.089-0.075 0.09-0.074 0.09-0.072 0.091-0.072 0.093-0.071 0.093-0.069 0.094-0.068 0.095-0.068 0.096-0.066 0.097-0.065 0.097-0.064 0.099-0.062 0.098-0.062 0.1-0.06 0.1-0.059 0.102-0.058 0.102-0.057 0.102-0.11 0.208-0.052 0.105-0.052 0.106-0.051 0.106-0.049 0.107-0.048 0.108-0.046 0.108-0.045 0.108-0.045 0.11-0.084 0.222-0.04 0.111-0.038 0.112-0.038 0.113-0.036 0.112-0.034 0.114-0.034 0.115-0.032 0.115-0.06 0.232-0.027 0.116-0.027 0.118-0.025 0.118-0.023 0.118-0.022 0.12-0.021 0.118-0.019 0.121-0.017 0.12-0.017 0.121-0.014 0.122-0.014 0.123-0.011 0.122-0.01 0.124-9e-3 0.123-7e-3 0.124-6e-3 0.126-4e-3 0.125-2e-3 0.126-1e-3 0.141v28.394l1e-3 0.141 2e-3 0.125 4e-3 0.126 6e-3 0.125 7e-3 0.124 9e-3 0.124 0.01 0.123 0.011 0.123 0.014 0.122 0.014 0.123 0.017 0.12 0.017 0.121 0.019 0.12 0.021 0.119 0.022 0.119 0.023 0.119 0.025 0.118 0.054 0.234 0.03 0.116 0.03 0.115 0.032 0.115 0.033 0.115 0.035 0.114 0.036 0.113 0.038 0.113 0.038 0.111 0.04 0.112 0.042 0.111 0.043 0.111 0.043 0.109 0.046 0.108 0.046 0.109 0.048 0.108 0.049 0.107 0.051 0.106 0.052 0.106 0.052 0.104 0.055 0.105 0.055 0.103 0.057 0.103 0.058 0.102 0.059 0.101 0.06 0.101 0.061 0.099 0.063 0.099 0.064 0.099 0.065 0.097 0.066 0.096 0.068 0.097 0.068 0.094 0.069 0.094 0.071 0.094 0.072 0.092 0.072 0.091 0.074 0.091 0.075 0.09 0.076 0.089 0.078 0.088 0.078 0.087 0.079 0.086 0.08 0.085 0.081 0.084 0.082 0.083 0.084 0.083 0.084 0.081 0.085 0.08 0.086 0.079 0.086 0.078 0.089 0.077 0.089 0.076 0.18 0.15 0.091 0.072 0.093 0.072 0.093 0.07 0.094 0.07 0.096 0.069 0.095 0.067 0.096 0.066 0.098 0.065 0.099 0.064 0.198 0.124 0.1 0.06 0.102 0.059 0.103 0.058 0.102 0.057 0.103 0.055 0.104 0.054 0.105 0.053 0.106 0.052 0.106 0.05 0.107 0.049 0.108 0.049 0.108 0.046 0.109 0.045 0.109 0.044 0.111 0.043 0.111 0.042 0.112 0.04 0.111 0.038 0.113 0.038 0.113 0.036 0.113 0.034 0.115 0.033 0.116 0.033 0.115 0.03 0.116 0.029 0.117 0.028 0.117 0.026 0.117 0.025 0.12 0.024 0.119 0.022 0.119 0.02 0.12 0.02 0.12 0.017 0.121 0.016 0.122 0.015 0.123 0.013 0.122 0.012 0.124 0.01 0.124 9e-3 0.123 7e-3 0.126 5e-3 0.125 4e-3 0.126 3e-3 0.141 1e-3h46.768l0.141-1e-3 0.126-3e-3 0.126-4e-3 0.125-5e-3 0.124-7e-3 0.124-9e-3 0.123-0.01 0.123-0.012 0.122-0.013 0.122-0.015 0.121-0.016 0.12-0.017 0.121-0.02 0.119-0.02 0.119-0.022 0.119-0.024 0.117-0.025 0.117-0.026 0.117-0.028 0.117-0.029 0.115-0.03 0.115-0.032 0.115-0.034 0.113-0.034 0.114-0.036 0.113-0.038 0.111-0.038 0.111-0.04 0.112-0.042 0.11-0.043 0.11-0.044 0.108-0.045 0.108-0.046 0.108-0.049 0.107-0.048 0.106-0.051 0.106-0.052 0.106-0.053 0.103-0.054 0.103-0.055 0.103-0.057 0.102-0.058 0.102-0.059 0.1-0.06 0.1-0.062 0.099-0.062 0.098-0.064 0.098-0.065 0.096-0.066 0.096-0.067 0.095-0.069 0.094-0.07 0.093-0.07 0.093-0.072 0.091-0.073 0.09-0.073 0.18-0.152 0.088-0.077 0.086-0.078 0.086-0.079 0.086-0.08 0.084-0.082 0.083-0.081 0.082-0.084 0.082-0.085 0.08-0.084 0.078-0.086 0.079-0.087 0.077-0.088 0.076-0.089 0.075-0.089 0.074-0.091 0.073-0.092 0.072-0.093 0.07-0.093 0.07-0.094 0.068-0.095 0.067-0.096 0.066-0.096 0.065-0.097 0.064-0.099 0.063-0.099 0.061-0.099 0.061-0.101 0.059-0.101 0.058-0.102 0.056-0.103 0.055-0.103 0.055-0.105 0.053-0.105 0.051-0.105 0.051-0.106 0.049-0.108 0.048-0.107 0.047-0.108 0.045-0.11 0.044-0.109 0.043-0.11 0.041-0.111 0.04-0.111 0.039-0.112 0.037-0.113 0.036-0.113 0.035-0.115 0.033-0.114 0.032-0.114 0.031-0.116 0.029-0.116 0.028-0.117 0.026-0.118 0.025-0.117 0.023-0.118 0.022-0.119 0.021-0.121 0.019-0.119 0.018-0.121 0.016-0.121 0.015-0.122 0.013-0.122 0.012-0.123 0.01-0.122 8e-3 -0.124 8e-3 -0.125 5e-3 -0.125 4e-3 -0.126 2e-3 -0.125 1e-3 -0.14v-28.396l-1e-3 -0.14-2e-3 -0.126-4e-3 -0.125-5e-3 -0.125-8e-3 -0.125-8e-3 -0.124-0.01-0.123-0.012-0.122-0.013-0.123-0.015-0.121-0.016-0.122-0.018-0.12-0.019-0.12-0.021-0.12-0.022-0.119-0.023-0.118-0.025-0.118-0.026-0.118-0.028-0.116-0.029-0.116-0.031-0.116-0.032-0.115-0.033-0.114-0.035-0.115-0.036-0.112-0.037-0.113-0.039-0.112-0.04-0.112-0.041-0.11-0.043-0.11-0.044-0.11-0.046-0.11-0.046-0.108-0.048-0.107-0.049-0.107-0.051-0.107-0.051-0.105-0.053-0.105-0.11-0.208-0.056-0.102-0.058-0.102-0.059-0.102-0.122-0.2-0.063-0.098-0.064-0.099-0.065-0.097-0.066-0.097-0.067-0.095-0.068-0.096-0.07-0.094-0.07-0.093-0.072-0.093-0.073-0.091-0.074-0.091-0.075-0.089-0.076-0.089-0.077-0.088-0.078-0.087-0.08-0.087-0.08-0.084-0.081-0.085-0.082-0.083-0.083-0.082-0.084-0.081-0.086-0.08-0.086-0.079-0.086-0.078-0.088-0.078-0.09-0.076-0.09-0.075-0.09-0.074-0.091-0.072-0.093-0.072-0.093-0.071-0.094-0.069-0.095-0.069-0.096-0.067-0.097-0.066-0.097-0.065-0.098-0.064-0.099-0.063-0.1-0.061-0.1-0.06-0.102-0.06-0.102-0.058-0.102-0.056-0.208-0.11-0.105-0.052-0.106-0.053-0.106-0.05-0.107-0.049-0.108-0.048-0.107-0.046-0.109-0.046-0.111-0.044-0.109-0.042-0.111-0.042-0.112-0.04-0.112-0.039-0.113-0.037-0.112-0.036-0.114-0.035-0.115-0.033-0.115-0.032-0.115-0.03-0.117-0.03-0.116-0.027-0.118-0.027-0.118-0.025-0.118-0.023-0.119-0.022-0.119-0.021-0.121-0.019-0.12-0.018-0.121-0.016-0.244-0.028-0.246-0.022-0.124-8e-3 -0.125-7e-3 -0.124-6e-3 -0.126-4e-3 -0.126-2e-3 -0.141-1e-3h-46.768z" fill="#fbd689"/></svg>
