<?xml version="1.0" encoding="UTF-8"?>
<!DOCTYPE svg  PUBLIC '-//W3C//DTD SVG 1.1//EN'  'http://www.w3.org/Graphics/SVG/1.1/DTD/svg11.dtd'>
<svg clip-rule="evenodd" fill-rule="evenodd" stroke-linecap="round" stroke-linejoin="round" stroke-miterlimit="1.4142" version="1.1" viewBox="0 0 1280 1150" xmlns="http://www.w3.org/2000/svg"><g id="openmesh-mr600-v1"><g transform="matrix(1.2189 0 0 1.1293 -47.184 -31.851)"><ellipse cx="563.5" cy="552.62" rx="399.74" ry="444.69" fill="#dbdbdb" stroke="#000" stroke-width="3.83px"/></g><g id="LED"><g transform="translate(.18865 .9565)"><circle cx="497.49" cy="984.88" r="3.302" stroke="#000" stroke-width="4.5px"/></g><g transform="translate(73.106 24.473)"><circle cx="497.49" cy="984.88" r="3.302" stroke="#000" stroke-width="4.5px"/></g><g transform="translate(146.4 32.025)"><circle cx="497.49" cy="984.88" r="3.302" stroke="#000" stroke-width="4.5px"/></g><g transform="translate(219.07 26.523)"><circle cx="497.49" cy="984.88" r="3.302" stroke="#000" stroke-width="4.5px"/></g><g transform="translate(290.84 7.1208)"><circle cx="497.49" cy="984.88" r="3.302" stroke="#000" stroke-width="4.5px"/></g><g transform="translate(199.7 -815.53)"><circle cx="497.49" cy="984.88" r="3.302" stroke="#000" stroke-width="4.5px"/></g></g><g id="arrows" transform="translate(-296.1 413.02)"><path d="m797.25 596.72 2.086-0.771c-2.354-3.085-4.571-4.679-6.662-4.916-1.685 1.808-2.198 5.089-2.261 8.109l2.88-1.023c1.706 4.286-0.218 7.91-2.88 11.653 5.385-2.577 7.716-7.589 6.837-13.052z" fill="#9fa4a9" stroke="#9fa4a8" stroke-width=".9px"/><g transform="matrix(-1 3.2162e-16 -3.2162e-16 -1 1578.2 1201.7)"><path d="m797.25 596.72 2.086-0.771c-2.354-3.085-4.571-4.679-6.662-4.916-1.685 1.808-2.198 5.089-2.261 8.109l2.88-1.023c1.706 4.286-0.218 7.91-2.88 11.653 5.385-2.577 7.716-7.589 6.837-13.052z" fill="#9fa4a9" stroke="#9fa4a8" stroke-width=".9px"/></g></g><g id="power" transform="matrix(1.7831 0 0 1.7831 -836 281.58)" fill="none" stroke="#9fa4a8" stroke-width=".84px"><path d="m908.01 408.98v7.066"/><path d="m904.85 412c-2.669 2.655-2.702 5.318 0 8.009 1.732 1.413 4.052 1.483 6.151 0 2.861-2.575 2.941-5.349 0-8.009"/></g><g id="lan" transform="translate(4.3842 -2.4711)"><g transform="matrix(.54158 0 0 .56215 443.05 480.92)"><circle cx="497.49" cy="984.88" r="3.302" fill="#9fa4a8"/></g><g transform="matrix(.54158 0 0 .56215 437.54 493.56)"><circle cx="497.49" cy="984.88" r="3.302" fill="#9fa4a8"/></g><g transform="matrix(.54158 0 0 .56215 446.2 493.56)"><circle cx="497.49" cy="984.88" r="3.302" fill="#9fa4a8"/></g><path d="m706.95 1047.2v-5.91h8.675v5.91" fill="none" stroke="#9fa4a8" stroke-width=".8px"/><path d="m712.67 1034.6v6.7h-7.615 13.392" fill="none" stroke="#9fa4a8" stroke-width=".8px"/></g><g transform="matrix(.86 0 0 1 78.205 0)" fill="#9fa4a9" fill-rule="nonzero"><path d="m566.6 1031.1h-4.117l-0.529 2.87c0.459-0.12 0.892-0.18 1.298-0.18 1.036 0 1.901 0.37 2.595 1.1s1.042 1.66 1.042 2.79c0 1.14-0.374 2.11-1.122 2.91-0.748 0.81-1.746 1.21-2.996 1.21-0.961 0-1.773-0.29-2.435-0.88s-1.063-1.39-1.202-2.42h1.394c0.139 0.64 0.422 1.13 0.849 1.48 0.428 0.34 0.914 0.51 1.458 0.51 0.727 0 1.351-0.28 1.875-0.83 0.523-0.55 0.785-1.23 0.785-2.04 0-0.73-0.227-1.32-0.681-1.79s-1.066-0.71-1.835-0.71-1.666 0.22-2.691 0.66l1.121-5.99h5.191v1.31z"/><path d="m580.81 1035.8c-0.032 1.9-0.585 3.38-1.658 4.44-1.074 1.05-2.486 1.58-4.238 1.58-2.008 0-3.61-0.62-4.806-1.85s-1.795-2.68-1.795-4.33c0-1.66 0.599-3.09 1.795-4.3 1.196-1.22 2.739-1.82 4.63-1.82 1.025 0 1.978 0.19 2.86 0.57 0.881 0.38 1.743 0.96 2.587 1.73l-1.057 1.01c-0.652-0.63-1.357-1.11-2.115-1.45-0.758-0.33-1.538-0.5-2.339-0.5s-1.597 0.21-2.387 0.64c-0.791 0.43-1.41 1-1.859 1.73-0.448 0.73-0.673 1.51-0.673 2.35 0 1.32 0.494 2.46 1.482 3.44s2.225 1.47 3.709 1.47c1.1 0 2.051-0.3 2.852-0.91 0.801-0.6 1.292-1.43 1.474-2.47h-3.653v-1.33h5.191z"/></g><g transform="matrix(.86 0 0 1 145.82 7.7988)" fill="#9fa4a9" fill-rule="nonzero"><path d="m567.02 1041.6h-8.187l4.566-4.93c0.769-0.81 1.314-1.45 1.634-1.92 0.321-0.47 0.481-1.01 0.481-1.61 0-0.59-0.233-1.12-0.697-1.57-0.465-0.44-1.042-0.67-1.73-0.67-0.689 0-1.263 0.24-1.723 0.73-0.459 0.49-0.721 1.18-0.785 2.07h-1.329c0.053-1.26 0.453-2.26 1.201-3s1.653-1.11 2.716-1.11c1.062 0 1.944 0.34 2.643 1.03 0.7 0.69 1.05 1.53 1.05 2.52 0 0.73-0.193 1.41-0.577 2.04-0.385 0.63-0.967 1.36-1.747 2.19l-2.691 2.9h5.175v1.33z"/><path d="m569.9 1038.8c0.299 0 0.552 0.11 0.761 0.32 0.208 0.2 0.312 0.46 0.312 0.76 0 0.31-0.104 0.57-0.312 0.77-0.209 0.21-0.46 0.32-0.753 0.32-0.294 0-0.548-0.11-0.761-0.32-0.214-0.22-0.321-0.47-0.321-0.77s0.107-0.56 0.321-0.76c0.213-0.21 0.464-0.32 0.753-0.32z"/><path d="m580.47 1038.9h-1.393v2.67h-1.362v-2.67h-5.624l6.585-9.34h0.401v8.01h1.393v1.33zm-2.755-1.33v-4.33l-3.06 4.33h3.06z"/><path d="m594.12 1035.8c-0.032 1.9-0.584 3.38-1.658 4.44-1.073 1.05-2.486 1.58-4.237 1.58-2.008 0-3.611-0.62-4.807-1.85s-1.794-2.68-1.794-4.33c0-1.66 0.598-3.09 1.794-4.3 1.196-1.22 2.74-1.82 4.63-1.82 1.026 0 1.979 0.19 2.86 0.57s1.744 0.96 2.587 1.73l-1.057 1.01c-0.651-0.63-1.356-1.11-2.115-1.45-0.758-0.33-1.538-0.5-2.339-0.5s-1.597 0.21-2.387 0.64-1.41 1-1.858 1.73c-0.449 0.73-0.673 1.51-0.673 2.35 0 1.32 0.494 2.46 1.482 3.44s2.224 1.47 3.709 1.47c1.1 0 2.05-0.3 2.851-0.91 0.801-0.6 1.293-1.43 1.474-2.47h-3.653v-1.33h5.191z"/></g></g></svg>
