<svg xmlns="http://www.w3.org/2000/svg" viewBox="0 0 1600 1437.5" height="1437.5" width="1600"><path d="M799.592 112.55c336.15 0 609.058 281.274 609.058 627.725s-272.907 627.727-609.058 627.727c-336.15 0-609.06-281.276-609.06-627.727 0-346.451 272.91-627.725 609.06-627.725z" fill="#dbdbdb" fill-rule="evenodd" stroke="#000" stroke-width="5.625" stroke-miterlimit="10"/><path d="M622.095 1228.166a4.13 4.13 0 0 1 4.128 4.127 4.13 4.13 0 0 1-4.128 4.127 4.13 4.13 0 0 1-4.128-4.128 4.13 4.13 0 0 1 4.128-4.126zM713.241 1257.561a4.13 4.13 0 0 1 4.128 4.127 4.13 4.13 0 0 1-4.128 4.127 4.13 4.13 0 0 1-4.127-4.128 4.13 4.13 0 0 1 4.127-4.126zM804.865 1267.001a4.129 4.129 0 0 1 0 8.255 4.128 4.128 0 0 1 0-8.255zM895.701 1260.124a4.13 4.13 0 0 1 4.127 4.127 4.13 4.13 0 0 1-4.127 4.128 4.13 4.13 0 0 1-4.127-4.128 4.13 4.13 0 0 1 4.127-4.127zM985.414 1235.871a4.13 4.13 0 0 1 4.127 4.128 4.13 4.13 0 0 1-4.127 4.127 4.13 4.13 0 0 1-4.128-4.127 4.13 4.13 0 0 1 4.128-4.128zM871.491 207.554a4.13 4.13 0 0 1 4.128 4.126 4.129 4.129 0 0 1-8.255 0 4.128 4.128 0 0 1 4.127-4.126z" fill-rule="evenodd" stroke="#000" stroke-width="5.625" stroke-miterlimit="10"/><path d="M626.439 1262.176l2.609-.963c-2.944-3.857-5.715-5.85-8.328-6.145-2.107 2.26-2.749 6.36-2.828 10.136l3.6-1.279c2.133 5.358-.272 9.888-3.6 14.565 6.733-3.22 9.647-9.485 8.547-16.314zM606.101 1272.513l-2.607.965c2.943 3.854 5.713 5.847 8.327 6.144 2.106-2.26 2.748-6.36 2.826-10.136l-3.6 1.278c-2.13-5.358.273-9.887 3.6-14.565-6.73 3.221-9.645 9.486-8.546 16.313z" fill="#9fa4a9" fill-rule="evenodd" stroke="#9fa4a8" stroke-width="1.125" stroke-miterlimit="10"/><path d="M978.817 1263.55v15.75M971.775 1270.265c-5.951 5.916-6.022 11.852 0 17.851 3.86 3.149 9.03 3.305 13.709 0 6.376-5.74 6.555-11.922 0-17.851" fill="none" stroke="#9fa4a8" stroke-width="1.875" stroke-miterlimit="10"/><path d="M896.08 1287.805c1.234 0 2.235 1.04 2.235 2.32 0 1.281-1.001 2.321-2.235 2.321s-2.235-1.04-2.235-2.321c0-1.28 1.001-2.32 2.235-2.32zM889.2 1303.6c1.234 0 2.236 1.04 2.236 2.32 0 1.281-1.002 2.32-2.236 2.32-1.234 0-2.235-1.039-2.235-2.32 0-1.28 1.001-2.32 2.235-2.32zM900.02 1303.6c1.234 0 2.235 1.04 2.235 2.32 0 1.281-1.001 2.32-2.235 2.32s-2.235-1.039-2.235-2.32c0-1.28 1.001-2.32 2.235-2.32z" fill="#9fa4a8" fill-rule="evenodd"/><path d="M889.171 1305.92v-7.379h10.844v7.379M896.317 1290.159v8.382H886.8h16.74" fill="none" stroke="#9fa4a8" stroke-width="1" stroke-miterlimit="10"/><text style="-inkscape-font-specification:STHeitiSC-Medium" transform="matrix(1.15265 0 0 1.3403 698.256 1303.148)" font-weight="500" font-size="14.942" font-family="STHeitiSC" fill="#9fa4a9"><tspan y="0" x="0 8.2762079">5G</tspan></text><text style="-inkscape-font-specification:STHeitiSC-Medium" transform="matrix(1.15265 0 0 1.3403 782.78 1312.898)" font-weight="500" font-size="14.942" font-family="STHeitiSC" fill="#9fa4a9"><tspan y="0" x="0 8.2762079 12.416553 20.69276">2.4G</tspan></text></svg>