<?xml version="1.0" encoding="UTF-8"?>
<svg width="1600" height="1437.5" viewBox="0 0 1600 1437.5" xmlns="http://www.w3.org/2000/svg"><path d="m799.59 112.55c336.15 0 609.06 281.27 609.06 627.72s-272.91 627.73-609.06 627.73c-336.15 0-609.06-281.28-609.06-627.73s272.91-627.72 609.06-627.72z" fill="#dbdbdb" fill-rule="evenodd" stroke="#000" stroke-miterlimit="10" stroke-width="5.625"/><path d="m622.1 1228.2a4.13 4.13 0 0 1 4.128 4.127 4.13 4.13 0 0 1-4.128 4.127 4.13 4.13 0 0 1-4.128-4.128 4.13 4.13 0 0 1 4.128-4.126zm91.146 29.395a4.13 4.13 0 0 1 4.128 4.127 4.13 4.13 0 0 1-4.128 4.127 4.13 4.13 0 0 1-4.127-4.128 4.13 4.13 0 0 1 4.127-4.126zm91.624 9.44a4.129 4.129 0 0 1 0 8.255 4.128 4.128 0 0 1 0-8.255zm90.836-6.877a4.13 4.13 0 0 1 4.127 4.127 4.13 4.13 0 0 1-4.127 4.128 4.13 4.13 0 0 1-4.127-4.128 4.13 4.13 0 0 1 4.127-4.127zm89.713-24.253a4.13 4.13 0 0 1 4.127 4.128 4.13 4.13 0 0 1-4.127 4.127 4.13 4.13 0 0 1-4.128-4.127 4.13 4.13 0 0 1 4.128-4.128zm-113.92-1028.3a4.13 4.13 0 0 1 4.128 4.126 4.129 4.129 0 0 1-8.255 0 4.128 4.128 0 0 1 4.127-4.126z" fill-rule="evenodd" stroke="#000" stroke-miterlimit="10" stroke-width="5.625"/><path d="m626.44 1262.2 2.609-0.963c-2.944-3.857-5.715-5.85-8.328-6.145-2.107 2.26-2.749 6.36-2.828 10.136l3.6-1.279c2.133 5.358-0.272 9.888-3.6 14.565 6.733-3.22 9.647-9.485 8.547-16.314zm-20.338 10.337-2.607 0.965c2.943 3.854 5.713 5.847 8.327 6.144 2.106-2.26 2.748-6.36 2.826-10.136l-3.6 1.278c-2.13-5.358 0.273-9.887 3.6-14.565-6.73 3.221-9.645 9.486-8.546 16.313z" fill="#9fa4a9" fill-rule="evenodd" stroke="#9fa4a8" stroke-miterlimit="10" stroke-width="1.125"/><path d="m978.82 1263.6v15.75m-7.042-9.035c-5.951 5.916-6.022 11.852 0 17.851 3.86 3.149 9.03 3.305 13.709 0 6.376-5.74 6.555-11.922 0-17.851" fill="none" stroke="#9fa4a8" stroke-miterlimit="10" stroke-width="1.875"/><path d="m896.08 1287.8c1.234 0 2.235 1.04 2.235 2.32 0 1.281-1.001 2.321-2.235 2.321s-2.235-1.04-2.235-2.321c0-1.28 1.001-2.32 2.235-2.32zm-6.88 15.795c1.234 0 2.236 1.04 2.236 2.32 0 1.281-1.002 2.32-2.236 2.32s-2.235-1.039-2.235-2.32c0-1.28 1.001-2.32 2.235-2.32zm10.82 0c1.234 0 2.235 1.04 2.235 2.32 0 1.281-1.001 2.32-2.235 2.32s-2.235-1.039-2.235-2.32c0-1.28 1.001-2.32 2.235-2.32z" fill="#9fa4a8" fill-rule="evenodd"/><path d="m889.17 1305.9v-7.379h10.844v7.379m-3.698-15.761v8.382h-9.517 16.74" fill="none" stroke="#9fa4a8" stroke-miterlimit="10"/><text transform="matrix(1.1526 0 0 1.3403 698.26 1303.1)" fill="#9fa4a9" font-family="STHeitiSC" font-size="14.942" font-weight="500"><tspan x="0 8.2762079" y="0">5G</tspan></text><text transform="matrix(1.1526 0 0 1.3403 782.78 1312.9)" fill="#9fa4a9" font-family="STHeitiSC" font-size="14.942" font-weight="500"><tspan x="0 8.2762079 12.416553 20.69276" y="0">2.4G</tspan></text></svg>
