<?xml version="1.0" encoding="UTF-8"?>
<!DOCTYPE svg  PUBLIC '-//W3C//DTD SVG 1.1//EN'  'http://www.w3.org/Graphics/SVG/1.1/DTD/svg11.dtd'>
<svg clip-rule="evenodd" fill-rule="evenodd" stroke-linecap="round" stroke-linejoin="round" stroke-miterlimit="1.4142" version="1.1" viewBox="0 0 1280 1150" xmlns="http://www.w3.org/2000/svg"><g id="antenne links weis" transform="matrix(-1 0 0 1 1285.9 -1.0433)" stroke-width="1px"><path d="m1016.6 225.32v18.182h51.99v-18.182c-12.2-9.554-40.15-6.822-51.99 0z" fill="#fff" stroke="#0d0d0d"/><path d="m1010.2 148.23c1.27-15.134 8.25-24.23 23.57-24.498h43.46v84.569h-65.38l-1.65-60.071z" fill="#d4d4d4" stroke="#000"/><path d="m1016.6 225.32-10.57-6.72c9.76-15.366 61.66-18.315 75.38 0l-12.82 6.72c-12.2-9.554-40.15-6.822-51.99 0z" fill="#d4d4d4" stroke="#000"/><path d="m1006.1 205.78v12.819c9.76-15.366 61.66-18.315 75.38 0v-12.819c-7.2-14.229-68.01-12.521-75.38 0z" fill="#fff" stroke="#0d0d0d"/><path d="m1001.6 96.223c24.82-7.214 49.92-8.111 75.39 0l4.03 103.65c-5.16-5.378-13.24-6.791-23.07-7.383l-24.24-1.459c-11.92-0.719-20.61-4.711-20.61-11.159v-53.941c0-1.098-3.73-2.197-11.5-2.197v-27.51z" fill="#fff" stroke="#000"/><path d="m1001.6 96.223c24.82-7.214 49.92-8.111 75.39 0l-6.44-152.13h-74.578l5.628 152.13z" fill="#fff" stroke="#000"/><path d="m1013.1 141.94-11.5-18.205c7.68-0.083 11.5 1.315 11.5 2.243v15.962" fill="#d4d4d4" stroke="#000"/><path d="m1010 265.78v-30.073c16.9-11.138 47.41-12.833 70.25 0v47l-70.25-16.927" fill="#fff" stroke="#000"/></g><g id="antenne rechts weis" transform="translate(-.12012 -1.0433)" stroke-width="1px"><path d="m1016.6 225.32v18.182h51.99v-18.182c-12.2-9.554-40.15-6.822-51.99 0z" fill="#fff" stroke="#0d0d0d"/><path d="m1010.2 148.23c1.27-15.134 8.25-24.23 23.57-24.498h43.46v84.569h-65.38l-1.65-60.071z" fill="#d4d4d4" stroke="#000"/><path d="m1016.6 225.32-10.57-6.72c9.76-15.366 61.66-18.315 75.38 0l-12.82 6.72c-12.2-9.554-40.15-6.822-51.99 0z" fill="#d4d4d4" stroke="#000"/><path d="m1006.1 205.78v12.819c9.76-15.366 61.66-18.315 75.38 0v-12.819c-7.2-14.229-68.01-12.521-75.38 0z" fill="#fff" stroke="#0d0d0d"/><path d="m1001.6 96.223c24.82-7.214 49.92-8.111 75.39 0l4.03 103.65c-5.16-5.378-13.24-6.791-23.07-7.383l-24.24-1.459c-11.92-0.719-20.61-4.711-20.61-11.159v-53.941c0-1.098-3.73-2.197-11.5-2.197v-27.51z" fill="#fff" stroke="#000"/><path d="m1001.6 96.223c24.82-7.214 49.92-8.111 75.39 0l-6.44-152.13h-74.578l5.628 152.13z" fill="#fff" stroke="#000"/><path d="m1013.1 141.94-11.5-18.205c7.68-0.083 11.5 1.315 11.5 2.243v15.962" fill="#d4d4d4" stroke="#000"/><path d="m1010 265.78v-30.073c16.9-11.138 47.41-12.833 70.25 0v47l-70.25-16.927" fill="#fff" stroke="#000"/></g><g id="rumpf"><g transform="matrix(1.3572 0 0 1.5711 -231.14 -363.2)"><path d="m339.18 871.61c39.189 8.965 234.29 26.375 375.37 20.49 210.83-8.794 233.8-17.079 250.36-20.49 69.841-14.384 87.871-50.605 94.921-87.193 20.48-106.21 23.98-215.9 0-326.3-5.25-24.182-29.79-55.544-67.143-64.115-8.901 6.322-17.17 10.259-23.313 10.164h-636.67c-12.919-0.016-19.43-4.134-22.954-10.164-35.166 6.395-60.425 34.279-72.335 64.115-41.141 103.06-10.594 295.67 0 336.64 11.481 44.404 45.574 63.989 101.77 76.843z" fill="#fff" stroke="#000" stroke-width=".68px"/></g><g transform="matrix(1.3098 0 0 1.4906 -200.37 -315.14)"><path d="m339.18 872.89c39.189 8.964 234.29 26.479 375.37 20.594 210.83-8.794 233.64-17.54 250.36-20.594 70.611-12.902 87.871-51.88 94.921-88.468 20.48-106.21 20.53-215.38 0-326.3-4.4-23.766-29.9-49.743-55.45-58.314-6.61-2.219-13.834-4.118-22.511-6.034h-663.67c-30.194 6.21-69.852 23.184-80.79 64.348-28.232 106.24-10.594 295.67 0 336.64 11.481 44.404 45.574 65.263 101.77 78.118z" fill="#a5a5a5" stroke="#000" stroke-width=".71px"/></g><g transform="matrix(1.2983 0 0 1.4775 -192.91 -306.87)"><path d="m339.18 871.61c39.189 8.965 234.29 26.375 375.37 20.49 210.83-8.794 233.8-17.079 250.36-20.49 69.841-14.384 87.871-50.605 94.921-87.193 20.48-106.21 20.53-215.38 0-326.3-4.4-23.766-29.9-49.743-55.45-58.314-63.913-21.442-232.24-28.248-349.15-29.795-104.32-1.381-252.2 8.386-316.05 18.825-42.517 6.951-90.5 23.964-101.77 69.284-26.498 106.59-10.594 295.67 0 336.64 11.481 44.404 45.574 63.989 101.77 76.843z" fill="#fff" stroke="#000" stroke-width=".72px"/></g><g transform="matrix(1.2474 0 0 1.3918 -160.89 -248.7)"><path d="m339.18 871.61c39.189 8.965 234.29 26.375 375.37 20.49 210.83-8.794 233.8-17.079 250.36-20.49 69.841-14.384 87.871-50.605 94.921-87.193 20.48-106.21 20.53-215.38 0-326.3-4.4-23.766-29.9-49.743-55.45-58.314-63.913-21.442-232.24-28.248-349.15-29.795-104.32-1.381-252.2 8.386-316.05 18.825-42.517 6.951-90.5 23.964-101.77 69.284-26.498 106.59-10.594 295.67 0 336.64 11.481 44.404 45.574 63.989 101.77 76.843z" fill="#a5a5a5" stroke="#000" stroke-width=".76px"/></g><g transform="matrix(1.2274 0 0 1.3577 -147.09 -226.76)"><path d="m339.18 871.61c39.189 8.965 234.29 26.375 375.37 20.49 210.83-8.794 233.8-17.079 250.36-20.49 69.841-14.384 87.871-50.605 94.921-87.193 20.48-106.21 20.53-215.38 0-326.3-4.4-23.766-29.9-49.743-55.45-58.314-63.913-21.442-232.24-28.248-349.15-29.795-104.32-1.381-252.2 8.386-316.05 18.825-42.517 6.951-90.5 23.964-101.77 69.284-26.498 106.59-10.594 295.67 0 336.64 11.481 44.404 45.574 63.989 101.77 76.843z" fill="#fff" stroke="#000" stroke-width=".77px"/></g><g transform="matrix(1.175 0 0 1.2732 -113.7 -172.93)"><path d="m339.18 874.35c39.93 5.699 133.14 18.466 272.68 17.947 211.05-0.786 336.26-15.58 353.05-17.947 21.31-3.006 47.131-10.209 62.881-24.073 21.9-19.282 25.37-31.252 32.04-65.861 20.52-106.4 20.25-215 0-326.3-6.27-34.492-30.14-50.374-55.45-58.314-64.404-20.207-232.24-28.248-349.15-29.795-104.32-1.381-252.2 8.386-316.05 18.825-42.517 6.951-90.309 18.481-101.77 69.284-24.623 109.18-15.305 221.92 0 336.64 3.794 28.438 24.135 52.239 44.403 61.741 20.311 9.521 43.817 15.909 57.364 17.843z" fill="#a5a5a5" stroke="#000" stroke-width=".82px"/></g><g transform="matrix(1.1538 0 0 1.2397 -99.945 -151.66)"><path d="m339.18 874.35c31.719 4.671 130.51 17.456 272.68 17.947 211.05 0.727 336.26-15.58 353.05-17.947 21.31-3.006 47.131-10.209 62.881-24.073 21.9-19.282 25.37-31.252 32.04-65.861 20.52-106.4 20.25-215 0-326.3-6.27-34.492-30.14-50.374-55.45-58.314-64.404-20.207-232.24-28.248-349.15-29.795-104.32-1.381-252.2 8.386-316.05 18.825-42.517 6.951-90.309 18.481-101.77 69.284-24.623 109.18-15.305 221.92 0 336.64 3.794 28.438 24.135 52.239 44.403 61.741 20.311 9.521 43.827 15.849 57.364 17.843z" fill="#fff" stroke="#000" stroke-width=".84px"/></g><g transform="matrix(1.097 0 0 1.1547 -62.936 -97.546)"><path d="m339.18 875.61s130.57 15.574 272.68 16.685c211.04 1.649 336.26-15.58 353.05-17.947 21.31-3.006 42.341-7.522 62.081-17.843 26.29-13.747 31.41-37.251 36.75-72.091 16.32-106.44 14.55-215.05 0-326.3-4.55-34.762-33.12-54.89-59.03-60.904-101.44-23.541-235.46-24.718-352.37-26.266-104.32-1.38-208.72 6.639-313.16 17.886-54.262 5.844-96.72 17.96-106.18 69.284-20.136 109.18-12.696 222.66 1.267 338.02 3.612 28.211 15.906 52.372 36.175 61.873 20.311 9.521 55.156 15.923 68.743 17.602z" fill="#a5a5a5" stroke="#000" stroke-width=".89px"/></g><g transform="matrix(1.0777 0 0 1.1153 -50.393 -72.683)"><path d="m339.18 875.61s130.57 15.574 272.68 16.685c211.04 1.649 336.26-15.58 353.05-17.947 21.31-3.006 42.341-7.522 62.081-17.843 26.29-13.747 31.41-37.251 36.75-72.091 16.32-106.44 14.55-215.05 0-326.3-4.55-34.762-33.12-54.89-59.03-60.904-101.44-23.541-235.46-24.718-352.37-26.266-104.32-1.38-208.72 6.639-313.16 17.886-54.262 5.844-96.72 17.96-106.18 69.284-20.136 109.18-12.696 222.66 1.267 338.02 3.612 28.211 15.906 52.372 36.175 61.873 20.311 9.521 55.156 15.923 68.743 17.602z" fill="#fff" stroke="#000" stroke-width=".91px"/></g><g transform="matrix(1.0196 0 0 1.0196 -12.743 -12.265)"><path d="m339.18 874.35s130.57 16.836 272.68 17.947c211.04 1.649 336.26-15.58 353.05-17.947 21.31-3.006 43.261-5.099 62.991-15.421 26.29-13.746 34.36-39.846 38.67-74.829 13.1-106.38 14.11-214.87 0-325.98-4.56-35.854-27.03-54.274-61.86-60.904-102.36-19.48-235.46-24.718-352.37-26.266-104.32-1.38-208.72 6.639-313.16 17.886-54.262 5.844-95.448 10.227-106.18 69.284-19.832 109.08-12.077 223.54 0 338.85 3.612 28.212 15.982 54.232 37.042 61.96 21.122 7.752 55.556 13.742 69.143 15.421z" fill="#0d0d0d" stroke="#000" stroke-width=".98px"/></g><path d="m493.57 814.92h321.4c28.938 0.169 52.885 14.266 75.653 32.857 19.805 16.173 43.539 30.907 74.279 26.572 21.31-3.006 43.261-5.099 62.991-15.421 26.29-13.746 34.36-39.846 38.67-74.829 13.1-106.38 14.11-214.87 0-325.98-4.56-35.854-27.03-52.795-61.86-59.424-102.36-19.481-235.46-23.068-352.37-24.615-104.32-1.38-208.72 5.666-313.16 16.913-54.262 5.844-95.448 8.069-106.18 67.126-19.832 109.08-12.077 223.54 0 338.85 3.612 28.212 15.982 54.232 37.042 61.96 21.122 7.752 54.68 14.655 69.143 15.421 31.581 1.672 48.868-12.221 67.101-26.572 27.591-21.716 48.518-32.857 87.292-32.857z" fill="#fff" stroke="#000" stroke-width="1px"/></g><g id="anzeige USB" transform="matrix(.75755 0 0 .82215 204.51 44.604)"><g transform="matrix(1.1142 4.1502e-17 -3.3233e-17 .81939 -134.21 154.2)" fill="none" stroke="#fff" stroke-width="3px"><path d="m532.5 1001.6c3.037-3.06 6.083-2.457 9.134 0"/><path d="m529.22 994.65c5.176-3.942 10.31-3.82 15.405 0"/><path d="m526.54 988.85c6.781-4.897 13.694-5.464 20.791 0"/></g><g transform="matrix(1.0774 -.0029744 .0025842 .93607 -170.75 40.248)"><g transform="matrix(1 0 -4.3368e-19 1.1418 -6.1173e-14 -139.83)"><path d="m626.35 996.05h-3.276v-10.303h18.143v10.303h-3.033" fill="none" stroke="#fff" stroke-width="3px"/></g><path d="m626.3 1003.2h11.042-4.985v-7.799" fill="none" stroke="#fff" stroke-width="3px"/></g><g transform="matrix(1.0774 -.0029744 .0025842 .93607 -121.7 40.248)"><g transform="matrix(1 0 -4.3368e-19 1.1418 -6.1173e-14 -139.83)"><path d="m626.35 996.05h-3.276v-10.303h18.143v10.303h-3.033" fill="none" stroke="#fff" stroke-width="3px"/></g><path d="m626.3 1003.2h11.042-4.985v-7.799" fill="none" stroke="#fff" stroke-width="3px"/></g><g transform="matrix(1.0774 -.0029744 .0025842 .93607 -71.936 40.248)"><g transform="matrix(1 0 -4.3368e-19 1.1418 -6.1173e-14 -139.83)"><path d="m626.35 996.05h-3.276v-10.303h18.143v10.303h-3.033" fill="none" stroke="#fff" stroke-width="3px"/></g><path d="m626.3 1003.2h11.042-4.985v-7.799" fill="none" stroke="#fff" stroke-width="3px"/></g><g transform="matrix(1.0774 -.0029744 .0025842 .93607 -22.753 40.248)"><g transform="matrix(1 0 -4.3368e-19 1.1418 -6.1173e-14 -139.83)"><path d="m626.35 996.05h-3.276v-10.303h18.143v10.303h-3.033" fill="none" stroke="#fff" stroke-width="3px"/></g><path d="m626.3 1003.2h11.042-4.985v-7.799" fill="none" stroke="#fff" stroke-width="3px"/></g><g id="Inet" transform="matrix(1.633 2.969e-16 -3.6566e-16 2.2347 -493.47 -1248.8)"><g transform="matrix(1.2724 -.22777 .31837 1.7784 -475.11 -424.45)"><ellipse cx="729.35" cy="889.27" rx="6.378" ry="1.404" fill="none" stroke="#fff" stroke-width="1.02px"/></g><g transform="matrix(1.095 0 0 1.0978 -70.618 8.1974)"><ellipse cx="737.8" cy="896.54" rx="5.426" ry="3.783" fill="none" stroke="#fff" stroke-width="1.46px"/></g></g><g id="lock" transform="matrix(1.32 0 0 1.2163 -225.48 -54.253)" fill="none" stroke="#fff" stroke-width="2.5px"><rect x="771.78" y="838.06" width="15.937" height="9.53"/><path d="m773.83 838.06c-0.024-8.796 11.892-8.573 11.915 0"/></g><g id="usb" transform="matrix(1.32 0 0 1.2163 -8.6149 344.75)" stroke="#fff" stroke-width="2.5px"><ellipse cx="571.01" cy="512.69" rx="2.363" ry="2.68" fill="#fff"/><path d="m571.37 512.64h19.654l-1.919-1.938v3.741l1.919-1.803h-14.417c0.638-4.011 3.636-5.944 8.89-5.885h2.215l-2.215-1.788v3.73-1.942c-4.936-0.053-8.162 1.64-8.89 5.885 2.061 4.381 5.544 6.632 11.105 5.771v-1.963l1.393 1.963-1.393 2.049v-2.049" fill="none"/><path d="m587.71 506.84-2.215 1.853" fill="none"/></g><g transform="matrix(2.8998 -2.5151e-16 -.032611 2.8394 -2052.2 -1945.6)"><path d="m862.86 1021.3c-0.274-0.02-0.55-0.02-0.825 0l-0.124 0.66c-0.262 0.04-0.519 0.1-0.767 0.2l-0.433-0.5c-0.251 0.11-0.49 0.25-0.714 0.41l0.218 0.63c-0.207 0.16-0.396 0.35-0.561 0.56l-0.626-0.22c-0.161 0.22-0.299 0.46-0.413 0.72l0.502 0.43c-0.096 0.24-0.165 0.5-0.205 0.76l-0.652 0.13c-0.027 0.27-0.027 0.55 0 0.82l0.652 0.13c0.04 0.26 0.109 0.52 0.205 0.77l-0.502 0.43c0.114 0.25 0.252 0.49 0.413 0.71l0.626-0.22c0.165 0.21 0.354 0.4 0.561 0.57l-0.218 0.62c0.224 0.16 0.463 0.3 0.714 0.41l0.433-0.5c0.248 0.1 0.505 0.17 0.767 0.21l0.124 0.65c0.275 0.03 0.551 0.03 0.825 0l0.124-0.65c0.263-0.04 0.52-0.11 0.767-0.21l0.433 0.5c0.251-0.11 0.491-0.25 0.715-0.41l-0.219-0.62c0.208-0.17 0.396-0.36 0.562-0.57l0.626 0.22c0.161-0.22 0.299-0.46 0.412-0.71l-0.502-0.43c0.097-0.25 0.166-0.51 0.206-0.77l0.651-0.13c0.027-0.27 0.027-0.55 0-0.82l-0.651-0.13c-0.04-0.26-0.109-0.52-0.206-0.76l0.502-0.43c-0.113-0.26-0.251-0.5-0.412-0.72l-0.626 0.22c-0.166-0.21-0.354-0.4-0.562-0.56l0.219-0.63c-0.224-0.16-0.464-0.3-0.715-0.41l-0.433 0.5c-0.247-0.1-0.504-0.16-0.767-0.2l-0.124-0.66zm-0.412 3.35c0.464 0 0.841 0.38 0.841 0.84 0 0.47-0.377 0.84-0.841 0.84-0.465 0-0.842-0.37-0.842-0.84 0-0.46 0.377-0.84 0.842-0.84z" fill="#fff" stroke="#fff" stroke-width=".31px"/></g><g id="power" transform="matrix(3.3358 -1.1821e-15 9.2371e-16 2.56 -1187.4 -1540.2)"><g transform="matrix(.74223 0 0 .74223 119.22 252.8)"><circle cx="466.64" cy="978.91" r="4.395" fill="none" stroke="#fff" stroke-width="1.45px"/></g><g transform="matrix(1 9.8608e-32 9.8608e-32 1.2148 -.14312 -210.64)"><path d="m466.41 975.36c0-0.18-0.148-0.326-0.33-0.326h-0.659c-0.182 0-0.33 0.146-0.33 0.326v3.814c0 0.18 0.148 0.326 0.33 0.326h0.659c0.182 0 0.33-0.146 0.33-0.326v-3.814z" fill="#fff" stroke="#0d0d0d" stroke-width=".98px"/></g></g></g></svg>
