<svg xmlns="http://www.w3.org/2000/svg" viewBox="0 0 1600 1437.5" height="1437.5" width="1600"><defs><clipPath id="a"><path d="M0 0h1280v1150H0V0z" clip-rule="evenodd"/></clipPath><clipPath id="b"><path d="M455.227 240.927c126.676-.999 253.172-1.595 378.691 0 18.502 4.165 27.379 9.531 11.716 17.962-12.261 5.75-25.296 8.304-38.81 8.883-103.307 1.565-206.6 1.145-309.888 0-17.844-1.299-30.819-4.27-41.709-8.883-15.658-5.624-17.47-11.569 0-17.962" clip-rule="evenodd"/></clipPath></defs><g clip-path="url(#a)" transform="matrix(1.25 0 0 -1.25 0 1437.5)"><path d="M119.199 996.98c1.562-2.774 23.767 3.55 27.096 6.99l-1.278-1.74c.002-.01.913-4.224.629-3.644l1.602.664c-3.261-3.771-21.677-9.605-27.051-7.434l2.147-.337c0 2.475-.786 2.378-.786 4.556" fill="#333" fill-rule="evenodd" stroke="#000" stroke-width="4.5" stroke-miterlimit="10"/><path d="M119.08 997.124c-.15 1.824-7.299 32.436-5.521 36.846 1.871 4.63 6.509 6.96 11.278 7.74 4.479.74 9.832.66 12.999-3.68 3.333-4.58 8.173-32.65 8.421-33.88-8.87-5.304-17.945-7.88-27.276-7.051M249.922 376.207c-21.111 95.947-83.275 334.134-83.892 352.592-.398 11.909-3.564 33.78-6.59 54.174-11.376 76.666-35.489 190.089-39.152 207.623 9.94.939 19.4 2.873 27.112 8.424l-.032.109c1.269-4.854 8.232-40.752 19.171-86.527 20.224-84.635 50.992-204.596 62.994-235.545 16.903-43.586 70.726-277.586 74.42-292.057-6.864-.887-43.016-6.838-54.204-8.993M639.679 1013.94c.887-3.06 23.948-1.98 27.975.61l-1.642-1.4c0-.01-.075-4.32-.219-3.69l1.712.28c-4.036-2.92-23.299-4.4-28.035-1.06l2.013-.81c.566 2.41-.221 2.49.277 4.61" fill="#333" fill-rule="evenodd" stroke="#000" stroke-width="4.5" stroke-miterlimit="10"/><path d="M639.596 1014.11c.27 1.81.304 33.24 3.04 37.13 2.881 4.08 7.928 5.29 12.749 4.96 4.53-.31 9.724-1.6 11.814-6.56 2.2-5.21.5-33.65.46-34.9-9.847-3.14-19.271-3.57-28.165-.64M625.142 379.718c1.364 98.233-4.747 344.323-1.131 362.433 2.333 11.685 4.246 33.701 5.958 54.247 6.438 77.238 8.872 193.17 9.312 211.082 9.891-1.36 19.542-1.64 28.319 2l-.007.12c.128-5.02-1.294-41.558-1.101-88.622.357-87.017 2.908-210.834 7.523-243.707 6.5-46.294 5.447-286.403 5.738-301.335-6.885.705-43.44 3.169-54.825 3.627M1166.26 993.794c-8.43.091-15.59 2.277-21.76 6.137.09.749 5.09 24.269 7.89 33.679.44 1.5 3.13 6.3 8.54 4.98 1.7-.42 7.2-1.29 9.13-2.64 3.69-2.6 3.55-6.31 3.51-7.26-.58-15.36-7.31-35.585-7.31-34.896z" fill="#333" fill-rule="evenodd" stroke="#000" stroke-width="4.5" stroke-miterlimit="10"/><path d="M1165.15 987.6c.32.06-16.92 2.307-22.23 7.252l1.51.09c.1 0 1.21 2.777 1.33 2.906l-1.29 2c11.59-6.637 21.58-6.482 21.57-6.482l-1.89-.154c-.21-.785-1.49-3.221-1.49-4.184" fill="#333" fill-rule="evenodd" stroke="#000" stroke-width="4.5" stroke-miterlimit="10"/><path d="M987.54 389.7c16.82-2.351 33.82-5.084 51.03-8.268 1.79 15.966 71.5 302.557 73.35 317.17 4.43 34.876 4.21 59.244 20.13 140.478 16.59 84.675 29.37 131.783 32.97 147.927-12.22 2.353-18.77 4.835-21.98 7.394l-.15.288c-.24-.917-38.5-172.977-59.25-222.291-21.46-50.974-96.003-382.532-96.187-382.219M10.507 132.742C19.889 69.75 132.862 56.489 311.953 49.75c104.302-3.926 214.558-7.549 337.998-7.375 190.716.27 387.059 2.363 504.359 21.564 75.61 12.376 95.13 31.597 108.38 64.296" fill="#333" fill-rule="evenodd" stroke="#000" stroke-width="4.5" stroke-miterlimit="10"/><path d="M217.391 459.759c-66.609-10.638-122.119-42.036-147.21-94.304C46.65 316.439-21.497 183.831 7.838 136.76c30.384-48.754 70.38-56.558 162.907-65.651 155.782-15.311 603.224-22.48 962.515 1.188 16.51 1.088 111.12 13.389 130.33 58.598 34.92 82.167-31.24 231.261-85.98 283.13-22.39 21.225-74.83 40.282-111.07 45.734" fill="#333" fill-rule="evenodd" stroke="#000" stroke-width="4.5" stroke-miterlimit="10"/><path d="M1198.92 389.82c40.95-97.904 41.41-181.145 34.28-202.884-15.92-48.503-49.45-58.479-105.94-65.091-125.14-14.647-465.74-17.928-821.618-8.51-106.513 2.819-232.439 10.049-252.326 42.868-26.908 44.406-14.392 157.218 66.308 266.325" fill="#333" fill-rule="evenodd" stroke="#000" stroke-width="4.5" stroke-miterlimit="10"/><path d="M1069.72 459.064c-107.267 27.914-534.606 24.73-539.783 24.989-16.214.809-173.314-2.009-301.594-21.979-56.084-8.731-141.434-61.271-147.764-252.898-.557-16.853-7.016-41.98 75.253-53.177 69.918-9.516 527.25-13.919 598.785-13.46 61.956.398 338.553 1.89 375.773 11.141 90.75 22.561 75.93 51.335 66.71 150.719-11.2 120.674-127.38 154.665-127.38 154.665z" fill="#333" fill-rule="evenodd" stroke="#000" stroke-width="4.5" stroke-miterlimit="10"/><path d="M1045.06 450.734c-101.332 25.069-510.057 23.406-512.023 23.544-15.278 1.076-164.137-3.526-285.319-21.461-52.981-7.841-134.967-54.839-137-226.982-.177-15.008 16.247-44.647 68.5-47.895 32.899-2.045 496.862-8.742 564.439-8.33 58.528.357 324.793 1.116 356.203 6.247 83.22 13.597 72.78 63.579 63.02 135.357-14.71 108.122-117.82 139.52-117.82 139.52z" fill="none" stroke="#000" stroke-width="4.5" stroke-miterlimit="10"/><path d="M998.644 447.086s71.376-8.779 83.516-26.45c79.77-116.076 58.65-219.248 24.27-222.1-192.458-15.968-650.519-9.197-718.157-7.979-194.254 3.497-238.492 3.982-243.712 45.222-9.288 73.386 31.399 138.069 48.94 165.072 28.48 43.844 106.041 48.728 146.156 53.24 116.491 13.104 474.93 17.499 658.987-7.005z" fill="none" stroke="#000" stroke-width="4.5" stroke-miterlimit="10"/><path d="M388.273 214.244c-165.952.379-205.263 3.225-209.161 21.535-11.926 53.407.927 108.246 43.472 166.852 21.7 21.743 88.195 31.241 165.689 37.732 168.969 10.666 337.897 12.34 506.764 0 66.366-3.669 133.033-7.037 172.183-37.732 46.56-61.257 50.84-121.27 41.07-166.852-23.68-19.024-87.1-21.403-150.061-21.535-190.064-6.048-380.042-5.461-569.956 0z" fill="none" stroke="#000" stroke-width="4.5" stroke-miterlimit="10"/><path d="M516.77 283.385c-33.186-1.778-64.746-8.104-94.466-19.583-21.029-12.136-42.436-22.04-65.329-23.146-41.389-2.971-82.79-2.871-124.2 0-17.606 1.221-25.534 15.482-27.643 37.583-3.649 41.783-8.578 65.78 27.643 109.927 12.415 10.156 28.049 16.469 46.19 19.789a1536.358 1536.358 0 0 0 143.339 15.421c138.758 3.296 277.507 4.714 416.232 0 52.48-2.164 104.939-5.992 157.324-15.421 66.56-12.483 88.84-65.554 88.56-129.716.24-18.443-1.01-32.35-22.73-37.583a1353.625 1353.625 0 0 0-122.115 0c-24.146 1.998-45.675 9.497-64.276 23.146-24.226 12.173-50.078 18.007-77.023 19.583H516.77z" fill="#8c8c8c" fill-rule="evenodd" stroke="#000" stroke-width="3" stroke-miterlimit="10"/><g clip-path="url(#b)"><path d="M553.455 248.444c1.708 1.106 3.42.888 5.136 0M551.61 250.941c2.91 1.425 5.797 1.381 8.661 0M550.104 253.039c3.812 1.77 7.699 1.975 11.689 0M516.251 248.399c1.708 1.106 3.421.888 5.136 0M514.406 250.896c2.91 1.425 5.797 1.381 8.662 0M512.9 252.994c3.812 1.77 7.699 1.975 11.689 0" fill="none" stroke="#fff" stroke-width="1.418" stroke-miterlimit="10"/><path d="M588.374 250.195h-2.592v5.295h14.351v-5.295h-2.399" fill="none" stroke="#fff" stroke-width="2.001" stroke-miterlimit="10"/><path d="M588.331 246.515h8.734-3.943v4.005M625.244 250.594h-2.592v5.294h14.351v-5.294h-2.399" fill="none" stroke="#fff" stroke-width="2.001" stroke-miterlimit="10"/><path d="M625.201 246.913h8.734-3.943v4.006M662.272 250.609h-2.592v5.295h14.351v-5.295h-2.399" fill="none" stroke="#fff" stroke-width="2.001" stroke-miterlimit="10"/><path d="M662.229 246.929h8.734-3.943v4.006M699.376 250.088h-2.592v5.295h14.351v-5.295h-2.399" fill="none" stroke="#fff" stroke-width="2.001" stroke-miterlimit="10"/><path d="M699.333 246.408h8.734-3.943v4.005" fill="none" stroke="#fff" stroke-width="2.001" stroke-miterlimit="10"/><path d="M770.209 253.518c1.277 0 2.313-.619 2.313-1.382 0-.762-1.036-1.381-2.313-1.381-1.276 0-2.312.619-2.312 1.381 0 .763 1.036 1.382 2.312 1.382z" fill="#fff" fill-rule="evenodd" stroke="#fff" stroke-width=".45" stroke-miterlimit="10"/><path d="M770.13 251.77v-.635l-.977.977.977.978v-.636h15.393v.636l.977-.978-.977-.977v.635H770.13z" fill="#fff" fill-rule="evenodd" stroke="#fff" stroke-width=".45" stroke-miterlimit="10"/><path d="M777.698 252.175c.057-1.765 2.323-2.299 5.706-2.211" fill="none" stroke="#fff" stroke-width=".75" stroke-miterlimit="10"/><path d="M781.997 254.624l-1.31-.901.026 1.838 1.284-.937zM784.413 249.895l-1.31-.901.026 1.838 1.284-.937z" fill="#fff" fill-rule="evenodd" stroke="#fff" stroke-width=".45" stroke-miterlimit="10"/><path d="M775.56 252.299c-.218 1.89 1.835 2.542 5.441 2.349" fill="none" stroke="#fff" stroke-width=".75" stroke-miterlimit="10"/><path d="M809.393 248.165h12.343v4.453h-12.343v-4.453z" fill="#fff" fill-rule="evenodd" stroke="#fff" stroke-width=".75" stroke-miterlimit="10"/><path d="M811.132 252.619c2.567 3.503 5.334 3.395 8.282 0" fill="none" stroke="#fff" stroke-width=".75" stroke-miterlimit="10"/><text style="-inkscape-font-specification:Arial-Black" transform="matrix(1 0 0 -1 512.647 243.879)" font-weight="900" font-size="3" font-family="Arial" fill="#fff"><tspan y="0" x="0 2.0007 3 6.0015001 8.5008001 11.0001">2.4GHz</tspan></text><text style="-inkscape-font-specification:Arial-Black" transform="matrix(1 0 0 -1 550.083 243.959)" font-weight="900" font-size="3" font-family="Arial" fill="#fff"><tspan y="0" x="0 3.0014999 5.5008001 8.0001001">5GHz</tspan></text><path d="M741.214 255.453c4.478.802 8.314.334 8.561-1.044.247-1.379-3.189-3.148-7.667-3.95-4.479-.802-8.315-.334-8.562 1.045-.247 1.378 3.189 3.148 7.668 3.949z" fill="none" stroke="#fff" stroke-width=".75" stroke-miterlimit="10"/><path d="M742.954 255.625c3.279 0 5.941-1.861 5.941-4.154 0-2.292-2.662-4.153-5.941-4.153-3.28 0-5.942 1.861-5.942 4.153 0 2.293 2.662 4.154 5.942 4.154z" fill="none" stroke="#fff" stroke-width=".75" stroke-miterlimit="10"/><path d="M481.778 253.921c3.154 0 5.714-1.524 5.714-3.402 0-1.878-2.56-3.402-5.714-3.402-3.154 0-5.715 1.524-5.715 3.402 0 1.878 2.561 3.402 5.715 3.402z" fill="none" stroke="#fff" stroke-width="1.5" stroke-miterlimit="10"/><path d="M482.73 254.772a.428.428 0 0 1-.428.428h-.855a.428.428 0 0 1-.428-.428v-4.707c0-.236.192-.428.428-.428h.855c.236 0 .428.192.428.428v4.707z" fill="#fff" fill-rule="evenodd"/><path d="M482.347 255.649l.045-.004.043-.005.044-.008.043-.01.041-.012.041-.014.041-.016.038-.017.038-.02.037-.021.035-.022.035-.025.033-.026.032-.028.03-.028.029-.031.028-.032.026-.033.024-.034.023-.036.021-.037.019-.037.018-.039.016-.041.014-.04.012-.042.009-.043.008-.043.006-.044.003-.044.001-.04v-4.718l-.001-.039-.003-.045-.006-.044-.008-.043-.009-.042-.012-.042-.014-.041-.016-.04-.018-.039-.019-.038-.021-.036-.023-.037-.025-.034-.025-.033-.028-.032-.029-.03-.03-.029-.032-.028-.033-.026-.034-.024-.036-.023-.037-.021-.038-.019-.038-.018-.04-.016-.042-.014-.042-.012-.043-.009-.042-.008-.044-.006-.045-.003-.039-.001h-.867l-.039.001-.045.003-.044.006-.042.008-.043.009-.043.012-.041.014-.04.016-.038.018-.038.019-.037.021-.036.023-.034.024-.033.026-.032.028-.03.029-.029.03-.028.032-.026.033-.024.034-.023.036-.021.037-.02.038-.017.039-.016.039-.014.042-.012.042-.009.042-.008.043-.006.044-.003.045-.001.039v4.718l.001.039.003.045.006.044.008.043.009.043.012.042.014.041.016.04.018.039.019.037.021.037.023.036.024.034.026.033.028.032.029.031.03.028.032.028.033.026.035.025.035.022.037.021.038.02.038.017.041.016.04.014.042.012.043.01.044.008.043.005.045.004.039.001h.867l.039-.001zm-.9-.449l-.022-.001-.022-.002-.021-.002-.022-.004-.02-.005-.021-.006-.019-.006-.02-.008-.019-.009-.018-.009-.018-.01-.017-.012-.017-.012-.016-.012-.016-.014-.015-.014-.014-.015-.013-.015-.013-.016-.012-.017-.011-.018-.011-.017-.009-.019-.009-.019-.007-.019-.007-.02-.006-.02-.004-.021-.004-.021-.003-.022-.002-.021v-4.751l.002-.022.003-.021.004-.021.004-.021.006-.02.007-.02.007-.02.009-.019.009-.018.011-.018.011-.017.012-.017.013-.016.013-.016.014-.015.015-.014.016-.013.016-.013.017-.012.017-.011.018-.01.018-.01.019-.008.02-.008.019-.007.021-.006.02-.004.022-.004.021-.003.022-.002h.899l.022.002.021.003.022.004.02.004.02.006.02.007.02.008.019.008.018.01.018.01.017.011.017.012.016.013.016.013.015.014.014.015.013.016.013.016.012.017.011.017.01.018.01.018.009.019.007.02.007.02.006.02.004.021.004.021.003.021.002.022v4.751l-.002.021-.003.022-.004.021-.004.021-.006.02-.007.02-.007.019-.009.019-.01.019-.01.017-.011.018-.012.017-.013.016-.013.015-.014.015-.015.014-.016.014-.016.012-.017.012-.017.012-.018.01-.018.009-.019.009-.02.008-.02.006-.02.006-.02.005-.022.004-.021.002-.022.002-.022.001h-.855z" fill="#333" fill-rule="evenodd"/></g><path d="M455.227 240.927c126.676-.999 253.172-1.595 378.691 0 18.502 4.165 27.379 9.531 11.716 17.962-12.261 5.75-25.296 8.304-38.81 8.883-103.307 1.565-206.6 1.145-309.888 0-17.844-1.299-30.819-4.27-41.709-8.883-15.658-5.624-17.47-11.569 0-17.962" fill="none" stroke="#000" stroke-width="2.5" stroke-miterlimit="10"/></g></svg>