<?xml version="1.0" encoding="UTF-8"?>
<!DOCTYPE svg  PUBLIC '-//W3C//DTD SVG 1.1//EN'  'http://www.w3.org/Graphics/SVG/1.1/DTD/svg11.dtd'>
<svg clip-rule="evenodd" fill-rule="evenodd" stroke-linecap="round" stroke-linejoin="round" stroke-miterlimit="1.4142" version="1.1" viewBox="0 0 1280 1150" xmlns="http://www.w3.org/2000/svg"><g id="Ebene3"><rect x="404.21" y="491.63" width="285.28" height="288.17" fill="#e9e9e9" stroke="#000" stroke-width="1px"/><path d="m367.6 495.72v541.83l23.409 29.28 26.382-14.83v-570.64l-26.448-13.438-23.343 27.794z" fill="#e6e6e6" stroke="#000" stroke-width="1px"/><path d="m726.35 496.58v541.58l-25.923 27.6-13.352-13.41v-575.46l14.589-8.929 24.686 28.621z" fill="#e6e6e6" stroke="#000" stroke-width="1px"/><path d="m730.26 843.16v52.899l-3.896 2.893v-58.604l3.896 2.812z" fill="#fff" stroke="#000" stroke-width="1px"/><path d="m730.26 903.65v53.303l-3.899 2.667v-58.235l3.899 2.265z" fill="#fff" stroke="#000" stroke-width="1px"/><g id="Erde"><path d="m576.71 561.71h15.399" fill="none" stroke="#000" stroke-width="1px"/><g transform="translate(101.88 -76.757)"><ellipse cx="483.18" cy="633.69" rx="18.679" ry="17.62" fill="none" stroke="#000" stroke-width="1px"/></g><path d="m580.76 566.44h7.989" fill="none" stroke="#000" stroke-width="1px"/><path d="m573.03 555.98h23.009-11.151v-11.047" fill="none" stroke="#000" stroke-width="1px"/></g><g id="Erde1" transform="translate(-1.0962 155.71)"><path d="m576.71 561.71h15.399" fill="none" stroke="#000" stroke-width="1px"/><g transform="translate(101.88 -76.757)"><ellipse cx="483.18" cy="633.69" rx="18.679" ry="17.62" fill="none" stroke="#000" stroke-width="1px"/></g><path d="m580.76 566.44h7.989" fill="none" stroke="#000" stroke-width="1px"/><path d="m573.03 555.98h23.009-11.151v-11.047" fill="none" stroke="#000" stroke-width="1px"/></g><g id="öffnung strom"><g opacity=".97296"><ellipse cx="483.18" cy="633.69" rx="18.679" ry="17.62" fill="none" stroke="#000" stroke-width="1px"/><g transform="translate(123.28 1.043)"><ellipse cx="483.18" cy="633.69" rx="18.679" ry="17.62" fill="none" stroke="#000" stroke-width="1px"/></g></g></g><g fill="none" stroke="#000" stroke-width="1px"><path d="m437.1 700.13v-47.029h-17.367v-35.857h17.367v-49.088h-25.104v131.97h25.104z"/><path d="m654.13 700.13v-47.029h17.15v-36.293h-17.15v-47.51h23.882v130.83h-23.882z"/></g><g id="Antenne rechts"><path d="m726.66 536.7c9.163 0.439 18.191 2.096 26.965 6.065v62.602c-9.015 3.364-18.006 5.113-26.965 4.91v-73.577z" fill="#fff" stroke="#000" stroke-width="1px"/><g transform="translate(.74288 .57471)"><path d="m753.62 642.59h9.866l24.724-18.494v-152.9c-6.473-9.769-9.823-23.895-11.114-40.895v-331.31l-13.61-11.748h-9.866v555.35z" fill="#fff" stroke="#000" stroke-width="1px"/></g><g transform="matrix(1 0 0 1.0002 .22771 .30763)"><rect x="754.11" y="87.648" width="9.665" height="554.89" fill="#e6e6e6" stroke="#000" stroke-width="1px"/></g></g><g id="Antenne Links" transform="matrix(-1 0 0 1 1094.2 .3476)"><path d="m726.66 536.7c9.163 0.439 18.191 2.096 26.965 6.065v62.602c-9.015 3.364-18.006 5.113-26.965 4.91v-73.577z" fill="#fff" stroke="#000" stroke-width="1px"/><g transform="translate(.74288 .57471)"><path d="m753.62 642.59h9.866l24.724-18.494v-152.9c-6.473-9.769-9.823-23.895-11.114-40.895v-331.31l-13.61-11.748h-9.866v555.35z" fill="#fff" stroke="#000" stroke-width="1px"/></g><g transform="matrix(1 0 0 1.0002 .22771 .30763)"><rect x="754.11" y="87.648" width="9.665" height="554.89" fill="#e6e6e6" stroke="#000" stroke-width="1px"/></g></g><g id="Ground top"><path d="m533.3 509.44v34.435h23.123v-34.435l-11.132-4.542-11.991 4.542z" fill="#0d0d0d" stroke="#000" stroke-width="1px"/><g transform="translate(.29715 -.83507)"><path d="m551.97 513.47c0-2.033-1.65-3.683-3.682-3.683h-7.364c-2.033 0-3.683 1.65-3.683 3.683v22.279c0 2.033 1.65 3.683 3.683 3.683h7.364c2.032 0 3.682-1.65 3.682-3.683v-22.279z" fill="#999" stroke="#000" stroke-width="1px"/></g><g transform="translate(.40524 .4294)"><path d="m548.86 515.32c0-1.219-0.989-2.208-2.208-2.208h-4.417c-1.219 0-2.208 0.989-2.208 2.208v15.618c0 1.219 0.989 2.209 2.208 2.209h4.417c1.219 0 2.208-0.99 2.208-2.209v-15.618z" fill="#4d4d4d" stroke="#000" stroke-width="1px"/></g></g><g id="Ground top1" transform="matrix(1 0 0 -1 .2241 1269.6)"><path d="m533.3 509.44v34.435h23.123v-34.435l-11.132-4.542-11.991 4.542z" fill="#0d0d0d" stroke="#000" stroke-width="1px"/><g transform="translate(.29715 -.83507)"><path d="m551.97 513.47c0-2.033-1.65-3.683-3.682-3.683h-7.364c-2.033 0-3.683 1.65-3.683 3.683v22.279c0 2.033 1.65 3.683 3.683 3.683h7.364c2.032 0 3.682-1.65 3.682-3.683v-22.279z" fill="#999" stroke="#000" stroke-width="1px"/></g><g transform="translate(.40524 .4294)"><path d="m548.86 515.32c0-1.219-0.989-2.208-2.208-2.208h-4.417c-1.219 0-2.208 0.989-2.208 2.208v15.618c0 1.219 0.989 2.209 2.208 2.209h4.417c1.219 0 2.208-0.99 2.208-2.209v-15.618z" fill="#4d4d4d" stroke="#000" stroke-width="1px"/></g></g><path d="m701.66 467.92-6.28 16.226 2.905 564.63 2.119 17-309.43 1.05 4.092-18.05v-564.63l-4.092-16.226h310.68zm-156.32 40.751c70.193 0 127.18 56.45 127.18 125.98 0 69.53-56.987 125.98-127.18 125.98-70.192 0-127.18-56.449-127.18-125.98 0-69.529 56.988-125.98 127.18-125.98z" fill="#fff" stroke="#000" stroke-width="1px"/></g><g id="Ebene5"><g transform="matrix(.53471 0 0 .53471 335.98 418.86)"><path d="m626.35 996.05h-3.276v-10.303h18.143v10.303h-3.033" fill="#999" stroke="#29ac37" stroke-width=".19px"/><path d="m626.3 1003.2h11.042-4.985v-7.799" fill="none" stroke="#999" stroke-width="5.61px"/></g><g transform="matrix(.49995 0 0 .49995 429.42 477.47)"><path d="m489.59 981.9 1.911 5.777 3.684-1.786-0.591 3.992h6.185l-5.004 3.57 2.867 2.888-4.048 0.682 1.911 5.782-5.004-3.575-1.911 3.575-1.911-3.575-5.004 3.575 1.911-5.782-4.048-0.682 2.867-2.888-5.004-3.57h6.185l-0.591-3.992 3.684 1.786 1.911-5.777z" fill="#e9e9e9" stroke="#999" stroke-width="2px"/></g><path d="m667.59 932.52h12.971v-9.767h-3.038v1.749h-3.256v1.625h-1.884v1.605h-2.723v1.575h-2.07v3.213z" fill="#999" stroke="#999" stroke-width=".1px"/><rect x="644.66" y="927.86" width="16.939" height="6.246" fill="#338841" stroke="#999" stroke-width=".65px"/><g transform="translate(-.20949 22.315)"><rect x="644.66" y="927.86" width="16.939" height="6.246" fill="#338841" stroke="#999" stroke-width=".65px"/></g><g transform="translate(-.37434 44.465)"><rect x="644.66" y="927.86" width="16.939" height="6.246" fill="#338841" stroke="#999" stroke-width=".65px"/></g><rect x="636.15" y="988.34" width="45.123" height="45.959" fill="#479ad9" stroke="#999" stroke-width=".65px"/><g transform="translate(-6.2917 13.303)"><text x="643.749px" y="1015.17px" fill="white" font-family="'Arial-Black'" font-size="18px">W<tspan x="662.347px 668.341px " y="1015.17px 1015.17px ">iF</tspan>i</text></g></g></svg>
