<svg xmlns="http://www.w3.org/2000/svg" viewBox="0 0 1600 1437.5" height="1437.5" width="1600"><path d="M412.434 208.348c-64.691 0-114 48.148-114 99.835v864.034c0 58.44 26.646 77.133 77.134 77.133h807.12c47.166 0 77.137-19.346 77.137-77.133V308.183c0-69.72-34.001-99.835-99.838-99.835H412.434z" fill="#fff" fill-rule="evenodd" stroke="#000" stroke-width="3.75" stroke-miterlimit="10"/><path d="M1159.987 240.91c40.794 0 67.272 14.029 67.272 67.272v871.124c0 24.399-8.664 41.915-41.914 41.915H375.729c-30.718 0-41.915-16.055-41.915-41.915V308.182c0-38.098 37.275-67.272 76.65-67.272h749.524z" fill="#d9d9d9" fill-rule="evenodd" stroke="#313131" stroke-width="8.75" stroke-miterlimit="10"/><path d="M429.772 704.193c7.43-6.708 14.883-5.385 22.348 0M421.741 689.045c12.665-8.643 25.226-8.376 37.691 0M415.19 676.322c16.589-10.737 33.501-11.98 50.864 0" fill="none" stroke="#f0f1f3" stroke-width="3.58625" stroke-miterlimit="10"/><path d="M425.415 786.64h-9.05v-29.434h50.105v29.434h-8.378" fill="none" stroke="#f0f1f3" stroke-width="3.75" stroke-miterlimit="10"/><path d="M425.264 807.1h30.495-13.769v-22.267" fill="none" stroke="#f0f1f3" stroke-width="3.75" stroke-miterlimit="10"/><path d="M435.836 574.179c13.31-3.262 24.711-1.357 25.445 4.248.733 5.605-9.477 12.804-22.787 16.065-13.31 3.26-24.712 1.357-25.445-4.25-.733-5.605 9.477-12.803 22.787-16.063z" fill="none" stroke="#f0f1f3" stroke-width="3.125" stroke-miterlimit="10"/><path d="M441.007 573.481c9.747 0 17.66 7.57 17.66 16.893 0 9.322-7.913 16.891-17.66 16.891-9.745 0-17.657-7.569-17.657-16.891 0-9.323 7.912-16.893 17.657-16.893zM437.934 477.27c13.581 0 24.607 8.461 24.607 18.884 0 10.422-11.026 18.884-24.607 18.884-13.58 0-24.607-8.462-24.607-18.884 0-10.423 11.027-18.884 24.607-18.884z" fill="none" stroke="#f0f1f3" stroke-width="3.125" stroke-miterlimit="10"/><path d="M443.197 466.393a2.488 2.488 0 0 0-2.486-2.488h-4.974a2.489 2.489 0 0 0-2.486 2.488v26.43a2.488 2.488 0 0 0 2.487 2.487h4.973a2.487 2.487 0 0 0 2.486-2.486v-26.431z" fill="#d9d9d9" fill-rule="evenodd" stroke="#f0f1f3" stroke-width="3.125" stroke-miterlimit="10"/><text style="-inkscape-font-specification:Arial-Black" transform="matrix(0 1.25 -1.25 0 436.206 901.809)" font-weight="900" font-size="24" font-family="Arial" fill="#f0f1f3"><tspan y="0" x="0 24 41.332802 58.6656 65.332802 84 101.3328 118.6656 135.9984">WPS/RESET</tspan></text><path d="M486.486 894.334v200.772c0 23.862 35.362 25.599 35.362 0V894.334c0-21.534-35.362-22.966-35.362 0z" fill="#5c7b1e" fill-rule="evenodd" stroke="#dae0dc" stroke-width="5" stroke-miterlimit="10"/><path d="M491.385 954.469v140.637c.019 18.07 25.601 18.509 25.601 0V954.47c0-16.379-25.617-16.533-25.601 0z" fill="#b2d241" fill-rule="evenodd" stroke="#9ab870" stroke-width="5" stroke-miterlimit="10"/><path d="M486.486 452.867v361.86c0 23.862 35.362 25.6 35.362 0v-361.86c0-21.533-35.362-22.966-35.362 0z" fill="#5c7b1e" fill-rule="evenodd" stroke="#dae0dc" stroke-width="5" stroke-miterlimit="10"/><path d="M491.385 753.941v51.188c.019 18.07 25.601 18.509 25.601 0V753.94c0-16.378-25.617-16.532-25.601 0zM491.385 656.736v51.188c.019 18.071 25.601 18.51 25.601 0v-51.188c0-16.378-25.617-16.531-25.601 0zM491.385 559.346v51.188c.019 18.071 25.601 18.51 25.601 0v-51.188c0-16.379-25.617-16.531-25.601 0zM491.385 463.26v51.188c.019 18.07 25.601 18.51 25.601 0V463.26c0-16.379-25.617-16.531-25.601 0z" fill="#b2d241" fill-rule="evenodd" stroke="#9ab870" stroke-width="5" stroke-miterlimit="10"/></svg>