<svg xmlns="http://www.w3.org/2000/svg" viewBox="0 0 1600 1437.5" height="1437.5" width="1600"><g fill-rule="evenodd" stroke-width="3" stroke-miterlimit="10"><path d="M412.434 208.348c-64.691 0-114 48.148-114 99.835v864.034c0 58.44 26.646 77.133 77.134 77.133h807.12c47.166 0 77.137-19.346 77.137-77.133V308.183c0-69.72-34.001-99.835-99.838-99.835H412.434z" fill="#fff" stroke="#000" stroke-width="3.75"/><path d="M1159.987 240.91c40.794 0 67.272 14.029 67.272 67.272v871.124c0 24.399-8.664 41.915-41.914 41.915H375.729c-30.718 0-41.915-16.055-41.915-41.915V308.182c0-38.098 37.275-67.272 76.65-67.272h749.524z" fill="#51c1ff" stroke="#000" stroke-width="3.75"/><path d="M1148.551 255.683c39.564 0 65.244 13.606 65.244 65.245v844.87c0 23.663-8.402 40.65-40.65 40.65H387.929c-29.791 0-40.651-15.57-40.651-40.65v-844.87c0-36.952 36.15-65.245 74.338-65.245h726.935z" fill="#84d0fa" stroke="#000" stroke-width="3.75"/><path d="M515.274 1030.043c0-6.595-5.354-11.948-11.948-11.948h-74.682c-6.594 0-11.948 5.353-11.948 11.947v94.183c0 6.594 5.354 11.947 11.948 11.947h74.682c6.594 0 11.948-5.353 11.948-11.947v-94.183z" fill="#263874" stroke="#3e5283" stroke-width="3.75"/></g></svg>