<?xml version="1.0" encoding="UTF-8"?>
<!DOCTYPE svg  PUBLIC '-//W3C//DTD SVG 1.1//EN'  'http://www.w3.org/Graphics/SVG/1.1/DTD/svg11.dtd'>
<svg clip-rule="evenodd" fill-rule="evenodd" stroke-linecap="round" stroke-linejoin="round" stroke-miterlimit="1.4142" version="1.1" viewBox="0 0 1280 1150" xmlns="http://www.w3.org/2000/svg"><g id="Antenne" stroke="#35343a" stroke-width=".45px"><path d="m596.84 146.05c1.306-11.713 32.784-11.62 34.626 0 0 0 0.893 159.23 0 308.27-1.083 180.94 6.144 201.44 6.144 254.35h-46.606c0.092-35.237 4.058-141.79 3.757-254.35-0.397-148.67 1.725-305.58 2.079-308.27" fill="#46464e"/><path d="m596.84 146.05c1.306-11.713 32.784-11.62 34.626 0 0.536 4.222-0.782 7.994-3.208 12.498-2.441 4.532-5.222 8.684-8.798 12.299-4.147 4.192-6.161 4.767-10.629 0-3.295-3.516-6.263-7.633-8.932-12.299-2.046-3.877-3.391-7.952-3.059-12.498" fill="#515158"/><path d="m619.46 666.21v-495.36c-4.147 4.192-6.161 4.767-10.629 0v495.36c-3.767 15.739-9.126 30.317-17.827 42.459v56.228h46.606v-56.228c-10.47-13.495-15.348-27.823-18.15-42.459z" fill="#35343a"/></g><g id="Antenne1" transform="translate(301.84 1.9728)" stroke="#35343a" stroke-width=".45px"><path d="m596.84 146.05c1.306-11.713 32.784-11.62 34.626 0 0 0 0.893 159.23 0 308.27-1.083 180.94 6.144 201.44 6.144 254.35h-46.606c0.092-35.237 4.058-141.79 3.757-254.35-0.397-148.67 1.725-305.58 2.079-308.27" fill="#46464e"/><path d="m596.84 146.05c1.306-11.713 32.784-11.62 34.626 0 0.536 4.222-0.782 7.994-3.208 12.498-2.441 4.532-5.222 8.684-8.798 12.299-4.147 4.192-6.161 4.767-10.629 0-3.295-3.516-6.263-7.633-8.932-12.299-2.046-3.877-3.391-7.952-3.059-12.498" fill="#515158"/><path d="m619.46 666.21v-495.36c-4.147 4.192-6.161 4.767-10.629 0v495.36c-3.767 15.739-9.126 30.317-17.827 42.459v56.228h46.606v-56.228c-10.47-13.495-15.348-27.823-18.15-42.459z" fill="#35343a"/></g><g id="Antenne2" transform="translate(-300.49 -3.6799)" stroke="#35343a" stroke-width=".45px"><path d="m596.84 146.05c1.306-11.713 32.784-11.62 34.626 0 0 0 0.893 159.23 0 308.27-1.083 180.94 6.144 201.44 6.144 254.35h-46.606c0.092-35.237 4.058-141.79 3.757-254.35-0.397-148.67 1.725-305.58 2.079-308.27" fill="#46464e"/><path d="m596.84 146.05c1.306-11.713 32.784-11.62 34.626 0 0.536 4.222-0.782 7.994-3.208 12.498-2.441 4.532-5.222 8.684-8.798 12.299-4.147 4.192-6.161 4.767-10.629 0-3.295-3.516-6.263-7.633-8.932-12.299-2.046-3.877-3.391-7.952-3.059-12.498" fill="#515158"/><path d="m619.46 666.21v-495.36c-4.147 4.192-6.161 4.767-10.629 0v495.36c-3.767 15.739-9.126 30.317-17.827 42.459v56.228h46.606v-56.228c-10.47-13.495-15.348-27.823-18.15-42.459z" fill="#35343a"/></g><g id="gehäuse" stroke="#000"><path d="m167.85 986.51c-32.184-12.253-67.016-19.981-95.11-33.152h1092.8c-28.67 12.55-59.92 20.789-91.26 33.152-17.2 6.002-34.1 13.564-51.79 20.434-25.322 9.83-40.382 11.53-71.67 14.08 0 0-53.51 4.35-79.557 3.93h-488.56c-34.078 0-65.142-1.65-97.165-3.93-31.491-2.25-43.076-3.17-70.126-14.08-16.563-6.68-29.313-13.955-47.542-20.434z" fill="#25242a" stroke-width="2px"/><g id="rillen" stroke-width=".35px"><path d="m1098.2 977.19c-175.42 31.902-774.23 34.212-960.62-1.348l17.073 5.648c171.61 36.052 813.66 31.052 931.98 0l11.57-4.3z"/><path d="m1063.5 991c-175.42 24.105-696.29 27.845-882.68 0l11.453 5.399c172.53 27.256 739.34 23.006 856.82 0l14.41-5.399z"/><path d="m1032.9 1002.6c-175.27 21.1-644.34 23.13-830.89-1.66l19.817 8.4c172.45 22.48 677.32 18.69 794.88 0l16.2-6.74z"/></g><path d="m218.81 743.7c260.79 13.493 529.79 15.213 810.62 0 26.65-1.444 53.53 6.911 75.19 25.796 33.76 29.448 68.39 63.302 90.28 103.02 17.79 32.26 22.9 57.793-29.38 80.831-41.92 18.475-90.86 23.763-143.08 27.754-276.09 21.102-543.21 20.752-803.63 0-59.711-4.759-117.57-13.507-146.07-27.754-12.39-6.194-55.577-26.804-32.053-74.828 17.202-35.118 51.351-75.321 85.75-109.03 16.368-16.038 45.041-28.245 92.37-25.796z" stroke-width="1px"/><g id="deckel" stroke-width="1px"><path d="m129.28 769.5h972.84c33.76 29.448 63.47 63.302 85.37 103.02 11.95 27.583 6.77 43.003-21.98 56.777-41.31 19.796-90.86 26.589-143.08 30.58-276.09 21.097-543.21 20.754-803.63 0-59.711-4.759-117.99-15.364-146.07-30.58-25.738-13.95-31.47-37.031-21.695-56.777 17.435-35.219 43.837-69.318 78.236-103.02z" fill="#25242a"/><path d="m129.28 769.5h972.84c33.76 29.448 62.9 63.302 84.8 103.02 12.16 28.082 1.5 43.402-21.41 54.38-41.31 19.796-90.86 26.161-143.08 30.151-276.09 21.098-543.21 20.755-803.63 0-59.711-4.758-117.99-14.935-146.07-30.151-23.064-12.5-29.668-37.553-21.338-54.38 17.435-35.219 43.48-69.318 77.879-103.02z"/><path d="m218.81 743.7c260.79 13.493 529.79 15.213 810.62 0 26.65-1.444 51.05 6.911 72.7 25.796 33.76 29.448 62.43 63.302 84.33 103.02 9.89 22.851 2.1 40.202-20.94 51.239-41.31 19.796-90.86 26.653-143.08 30.644-276.09 21.098-543.21 20.754-803.63 0-59.711-4.758-117.99-15.428-146.07-30.644-21.854-11.844-27.787-36.161-20.323-51.239 17.435-35.219 42.465-69.318 76.864-103.02 16.369-16.038 42.197-28.245 89.526-25.796z" fill="#25242a"/></g></g><path d="m376.3 919.21c-3.444-0.051-6.387 0.671-7.102 2.85l-3.103 9.461c-0.906 2.759 0.949 5.78 5.55 5.941 165.35 5.796 330.72 6.738 496.1 0 5.375-0.219 9.458-1.549 7.27-5.941l-4.711-9.461c-0.899-1.805-3.185-2.892-5.703-2.85-162.78 2.717-325.54 2.415-488.3 0z" fill="#323232" stroke="#000" stroke-width="2px"/><path d="m376.3 923.29c-3.444-0.051-7.496 0.057-8.21 2.236l-1.995 5.993c-0.906 2.759 0.949 5.78 5.55 5.941 165.35 5.796 330.72 6.738 496.1 0 5.375-0.219 9.458-1.549 7.27-5.941l-2.974-5.993c-0.899-1.805-4.922-2.278-7.44-2.236-162.78 2.717-325.54 2.415-488.3 0z" stroke="#000" stroke-width="2px"/><g id="led"><g id="power" fill="none" stroke="#1d4576" stroke-width=".8px"><path d="m449.31 928.94c-1.689 1.32-1.689 2.755 0 4.304 0.744 0.344 1.51 0.389 2.309 0 1.622-1.356 1.762-3.082 0-4.304"/><path d="m450.47 927.9v2.99"/></g><g id="wifi" fill="none" stroke="#1d4576" stroke-width=".8px"><path d="m487.49 930.59c3.203-2.411 6.526-2.487 9.983 0"/><path d="m489.33 932.26c2.161-1.907 4.323-1.791 6.486 0"/><path d="m491.11 933.82c0.86-1.093 1.853-1.093 2.978 0"/></g><g transform="matrix(.23608 0 0 .23608 385.95 697.17)"><g transform="matrix(1.8081 0 0 1.5011 -511.81 -500.42)"><path d="m626.35 996.05h-3.276v-10.303h18.143v10.303h-3.033" fill="none" stroke="#1d4576" stroke-width="2.04px"/></g><g transform="matrix(1.8081 0 0 1.5011 -511.81 -500.42)"><path d="m626.3 1003.2h11.042-4.985v-7.799" fill="none" stroke="#1d4576" stroke-width="2.04px"/></g></g><g transform="matrix(.23608 0 0 .23608 428.53 697.75)"><g transform="matrix(1.8081 0 0 1.5011 -511.81 -500.42)"><path d="m626.35 996.05h-3.276v-10.303h18.143v10.303h-3.033" fill="none" stroke="#1d4576" stroke-width="2.04px"/></g><g transform="matrix(1.8081 0 0 1.5011 -511.81 -500.42)"><path d="m626.3 1003.2h11.042-4.985v-7.799" fill="none" stroke="#1d4576" stroke-width="2.04px"/></g></g><g transform="matrix(.23608 0 0 .23608 471.22 697.75)"><g transform="matrix(1.8081 0 0 1.5011 -511.81 -500.42)"><path d="m626.35 996.05h-3.276v-10.303h18.143v10.303h-3.033" fill="none" stroke="#1d4576" stroke-width="2.04px"/></g><g transform="matrix(1.8081 0 0 1.5011 -511.81 -500.42)"><path d="m626.3 1003.2h11.042-4.985v-7.799" fill="none" stroke="#1d4576" stroke-width="2.04px"/></g></g><g transform="matrix(.23608 0 0 .23608 514.19 697.17)"><g transform="matrix(1.8081 0 0 1.5011 -511.81 -500.42)"><path d="m626.35 996.05h-3.276v-10.303h18.143v10.303h-3.033" fill="none" stroke="#1d4576" stroke-width="2.04px"/></g><g transform="matrix(1.8081 0 0 1.5011 -511.81 -500.42)"><path d="m626.3 1003.2h11.042-4.985v-7.799" fill="none" stroke="#1d4576" stroke-width="2.04px"/></g></g><g id="online" transform="translate(-1.9613 -.43747)"><g transform="matrix(1.2258 0 0 1.4098 -160 -382.22)"><ellipse cx="707.77" cy="932.63" rx="2.55" ry="2.233" fill="none" stroke="#1d4576" stroke-width=".34px"/></g><g transform="matrix(.82416 -.56635 .56635 .82416 -401.85 565.26)"><ellipse cx="706.34" cy="928.9" rx="3.246" ry=".936" fill="none" stroke="#1d4576" stroke-width=".45px"/></g></g><g id="lock" transform="translate(-.72949 -.76863)" stroke="#1d4576" stroke-width=".45px"><rect x="745.66" y="931.24" width="5.543" height="3.743" fill="#1d4576"/><circle cx="748.53" cy="931.09" r="1.982" fill="none"/></g></g></svg>
