<?xml version="1.0" encoding="UTF-8"?>
<!DOCTYPE svg  PUBLIC '-//W3C//DTD SVG 1.1//EN'  'http://www.w3.org/Graphics/SVG/1.1/DTD/svg11.dtd'>
<svg clip-rule="evenodd" fill-rule="evenodd" stroke-linecap="round" stroke-linejoin="round" stroke-miterlimit="1.4142" version="1.1" viewBox="0 0 1280 1150" xmlns="http://www.w3.org/2000/svg"><g id="Antennen" transform="translate(0 175)"><g id="Antenne Links" transform="translate(-84.254 82.232)"><g transform="translate(0 -175)"><path d="m203.45 70.788c1.562 2.774 23.767-3.546 27.096-6.987l-1.278 1.74c2e-3 0.011 0.913 4.221 0.629 3.641l1.602-0.664c-3.26 3.771-21.677 9.605-27.051 7.434l2.147 0.337c0-2.475-0.785-2.378-0.785-4.556" fill="#333" stroke="#000" stroke-width="4.5px"/></g><g transform="matrix(2.02 0 0 2.067 -605.16 -358.19)"><path d="m400.25 122.8c-0.074-0.882-3.613-15.693-2.733-17.823 0.926-2.243 3.223-3.368 5.583-3.747 2.218-0.357 4.868-0.32 6.436 1.782 1.65 2.213 4.046 15.794 4.169 16.391-4.392 2.564-8.884 3.811-13.503 3.409" fill="#333" stroke="#000" stroke-width="2.2px"/></g><g transform="translate(0 -175)"><path d="m334.18 691.56c-21.112-95.947-83.276-334.14-83.893-352.59-0.398-11.909-3.564-33.78-6.59-54.174-11.376-76.666-35.489-190.09-39.152-207.62 9.941-0.939 19.4-2.873 27.112-8.424l-0.032-0.109c1.269 4.854 8.232 40.751 19.171 86.527 20.224 84.635 50.992 204.6 62.994 235.54 16.903 43.586 70.726 277.59 74.42 292.06-6.863 0.887-43.016 6.838-54.203 8.993" fill="#333" stroke="#000" stroke-width="4.5px"/></g></g><g id="Antenne mitte" transform="matrix(.97356 .22843 -.22843 .97356 417.8 16.043)"><g transform="translate(0 -175)"><path d="m203.45 70.788c1.562 2.774 23.767-3.546 27.096-6.987l-1.278 1.74c2e-3 0.011 0.913 4.221 0.629 3.641l1.602-0.664c-3.26 3.771-21.677 9.605-27.051 7.434l2.147 0.337c0-2.475-0.785-2.378-0.785-4.556" fill="#333" stroke="#000" stroke-width="4.5px"/></g><g transform="matrix(2.02 0 0 2.067 -605.16 -358.19)"><path d="m400.25 122.8c-0.074-0.882-3.613-15.693-2.733-17.823 0.926-2.243 3.223-3.368 5.583-3.747 2.218-0.357 4.868-0.32 6.436 1.782 1.65 2.213 4.046 15.794 4.169 16.391-4.392 2.564-8.884 3.811-13.503 3.409" fill="#333" stroke="#000" stroke-width="2.2px"/></g><g transform="translate(0 -175)"><path d="m334.18 691.56c-21.112-95.947-83.276-334.14-83.893-352.59-0.398-11.909-3.564-33.78-6.59-54.174-11.376-76.666-35.489-190.09-39.152-207.62 9.941-0.939 19.4-2.873 27.112-8.424l-0.032-0.109c1.269 4.854 8.232 40.751 19.171 86.527 20.224 84.635 50.992 204.6 62.994 235.54 16.903 43.586 70.726 277.59 74.42 292.06-6.863 0.887-43.016 6.838-54.203 8.993" fill="#333" stroke="#000" stroke-width="4.5px"/></g></g><g id="Antenne Rechts" transform="translate(102.92 78.172)"><g transform="matrix(2.02 0 0 2.067 -605.16 -358.19)"><path d="m825.99 126.38c-4.169-0.044-7.717-1.101-10.77-2.968 0.046-0.361 2.522-11.741 3.906-16.292 0.22-0.726 1.552-3.052 4.228-2.411 0.842 0.202 3.564 0.622 4.518 1.277 1.829 1.258 1.758 3.05 1.74 3.513-0.288 7.429-3.622 17.215-3.622 16.881z" fill="#333" stroke="#000" stroke-width="2.2px"/></g><g transform="translate(0 -175)"><path d="m1062.2 84.228c0.32-0.06-16.92-2.307-22.23-7.252l1.51-0.09c0.1 0 1.21-2.777 1.33-2.906l-1.29-2c11.59 6.637 21.58 6.482 21.57 6.482l-1.89 0.154c-0.21 0.785-1.49 3.221-1.49 4.184" fill="#333" stroke="#000" stroke-width="4.5px"/></g><g transform="translate(0 -175)"><path d="m884.62 682.13c16.82 2.351 33.82 5.084 51.031 8.267 1.786-15.965 71.5-302.56 73.35-317.17 4.43-34.876 4.21-59.244 20.13-140.48 16.59-84.675 29.37-131.78 32.97-147.93-12.22-2.353-18.77-4.835-21.98-7.394l-0.16-0.288c-0.23 0.917-38.49 172.98-59.245 222.29-21.454 50.974-95.999 382.53-96.182 382.22" fill="#333" stroke="#000" stroke-width="4.5px"/></g></g></g><g id="Ebene3" transform="matrix(1.3564 0 0 1.0074 -221.96 166.78)"><g transform="matrix(2.02 0 0 2.067 -605.16 -358.19)"><path d="m384.43 581.7c3.424 30.249 44.655 36.618 110.02 39.854 38.067 1.885 78.307 3.625 123.36 3.541 69.604-0.129 141.26-1.134 184.07-10.355 27.594-5.943 34.717-15.173 39.556-30.876" fill="#333" stroke="#000" stroke-width="1.85px"/></g><g transform="matrix(2.02 0 0 2.067 -605.16 -358.19)"><path d="m459.93 424.67c-24.31 5.109-44.569 20.187-53.727 45.286-8.588 23.539-33.459 87.219-22.753 109.82 11.089 23.413 25.686 27.16 59.456 31.527 56.854 7.352 220.16 10.795 351.28-0.571 6.024-0.522 40.556-6.429 47.567-28.139 12.742-39.458-11.403-111.06-31.379-135.96-8.174-10.192-27.31-19.343-40.537-21.962" fill="#333" stroke="#000" stroke-width="1.85px"/></g><g transform="matrix(2.02 0 0 2.067 -605.16 -358.19)"><path d="m818.15 458.25c14.946 47.015 15.116 86.988 12.512 97.428-5.81 23.292-18.048 28.083-38.662 31.257-45.674 7.034-169.98 8.61-299.86 4.087-38.873-1.354-84.832-4.825-92.09-20.586-9.82-21.324-5.252-75.498 24.2-127.89" fill="#333" stroke="#000" stroke-width="1.85px"/></g></g><g id="Ebene5" transform="matrix(1.3564 0 0 1.0074 -221.96 166.78)"><g transform="matrix(2.1383 0 0 2.3016 -675.16 -467.79)"><path d="m761.08 429.3c-36.981-12.038-184.32-10.665-186.1-10.777-5.59-0.349-59.754 0.866-103.98 9.479-19.336 3.765-48.763 26.424-50.945 109.07-0.192 7.268-2.419 18.104 25.945 22.933 24.106 4.104 181.78 6.003 206.44 5.805 21.361-0.172 116.72-0.815 129.56-4.805 31.289-9.73 26.18-22.139 23-65-3.861-52.043-43.918-66.702-43.918-66.702z" fill="#333" stroke="#000" stroke-width="1.71px"/></g><g transform="matrix(2.02 0 0 2.067 -605.16 -358.19)"><path d="m762 429c-36.981-12.038-186.15-11.24-186.87-11.306-5.576-0.517-59.904 1.693-104.13 10.306-19.336 3.765-49.258 26.334-50 109-0.065 7.207 5.929 21.44 25 23 12.007 0.982 181.34 4.198 206 4 21.361-0.171 118.54-0.536 130-3 30.373-6.529 26.563-30.531 23-65-5.367-51.922-43-67-43-67z" fill="none" stroke="#000" stroke-width="1.85px"/></g></g><g id="Ebene6" transform="matrix(1.3564 0 0 1.0074 -221.96 166.78)"><g transform="matrix(2.02 0 0 2.067 -605.16 -358.19)"><path d="m745.06 430.75s26.05 4.216 30.482 12.702c29.11 55.741 21.402 105.29 8.857 106.66-70.241 7.668-237.42 4.417-262.1 3.832-70.896-1.679-87.042-1.912-88.947-21.716-3.39-35.241 11.46-66.303 17.862-79.27 10.394-21.055 38.701-23.4 53.342-25.567 42.514-6.293 173.33-8.403 240.51 3.364z" fill="none" stroke="#000" stroke-width="1.85px"/></g><g transform="matrix(.73722 0 0 .9926 163.63 -165.55)"><path d="m388.27 935.76c-165.95-0.379-205.26-3.225-209.16-21.535-11.926-53.407 0.927-108.25 43.472-166.85 21.7-21.743 88.195-31.241 165.69-37.732 168.97-10.666 337.9-12.34 506.76 0 66.366 3.669 133.03 7.037 172.18 37.732 46.56 61.257 50.84 121.27 41.07 166.85-23.68 19.024-87.1 21.403-150.06 21.535-190.06 6.048-380.04 5.461-569.96 0z" fill="none" stroke="#000" stroke-width="4.5px"/></g></g><path d="m516.77 866.62c-33.186 1.778-64.746 8.104-94.466 19.583-21.029 12.136-42.436 22.04-65.329 23.146-41.389 2.971-82.79 2.871-124.2 0-17.606-1.221-25.534-15.482-27.643-37.583-3.649-41.783-8.578-65.78 27.643-109.93 12.415-10.156 28.049-16.469 46.19-19.789 47.093-7.306 94.854-12.503 143.34-15.421 138.76-3.296 277.51-4.714 416.23 0 52.48 2.164 104.94 5.992 157.32 15.421 66.56 12.483 88.84 65.554 88.56 129.72 0.24 18.443-1.01 32.35-22.73 37.583-40.65 1.837-81.359 1.837-122.12 0-24.146-1.998-45.675-9.497-64.276-23.146-24.226-12.173-50.078-18.007-77.023-19.583h-281.51z" fill="#8c8c8c" stroke="#000" stroke-width="3px"/><g id="Anzeige" transform="translate(5.6733 2.3594)"><clipPath id="_clip1"><path d="m449.55 906.71c126.68 1 253.17 1.596 378.69 0 18.503-4.164 27.38-9.531 11.716-17.961-12.261-5.75-25.296-8.305-38.809-8.883-103.31-1.566-206.6-1.145-309.89 0-17.843 1.298-30.818 4.27-41.708 8.883-15.659 5.624-17.47 11.569 0 17.961"/></clipPath><g clip-path="url(#_clip1)"><g id="leds anzeige" transform="translate(0 -96.259)"><g transform="matrix(.56225 0 0 .36146 248.38 633.44)" fill="none" stroke="#fff" stroke-width="3px"><path d="m532.5 1001.6c3.037-3.06 6.083-2.457 9.134 0"/><path d="m529.22 994.65c5.176-3.942 10.31-3.82 15.405 0"/><path d="m526.54 988.85c6.781-4.897 13.694-5.464 20.791 0"/></g><g transform="matrix(.56225 0 0 .36146 211.18 633.48)" fill="none" stroke="#fff" stroke-width="3px"><path d="m532.5 1001.6c3.037-3.06 6.083-2.457 9.134 0"/><path d="m529.22 994.65c5.176-3.942 10.31-3.82 15.405 0"/><path d="m526.54 988.85c6.781-4.897 13.694-5.464 20.791 0"/></g><g transform="matrix(.79099 0 0 .51387 87.267 481.86)" fill="none" stroke="#fff" stroke-width="3px"><path d="m626.35 996.05h-3.276v-10.303h18.143v10.303h-3.033"/><path d="m626.3 1003.2h11.042-4.985v-7.799"/></g><g transform="matrix(.79099 0 0 .51387 124.14 481.46)" fill="none" stroke="#fff" stroke-width="3px"><path d="m626.35 996.05h-3.276v-10.303h18.143v10.303h-3.033"/><path d="m626.3 1003.2h11.042-4.985v-7.799"/></g><g transform="matrix(.79099 0 0 .51387 161.16 481.45)" fill="none" stroke="#fff" stroke-width="3px"><path d="m626.35 996.05h-3.276v-10.303h18.143v10.303h-3.033"/><path d="m626.3 1003.2h11.042-4.985v-7.799"/></g><g transform="matrix(.79099 0 0 .51387 198.27 481.97)" fill="none" stroke="#fff" stroke-width="3px"><path d="m626.35 996.05h-3.276v-10.303h18.143v10.303h-3.033"/><path d="m626.3 1003.2h11.042-4.985v-7.799"/></g><g id="USB" transform="translate(0 271.26)"><g transform="translate(0 -175)"><ellipse cx="764.54" cy="895.5" rx="2.312" ry="1.381" fill="#fff" stroke="#fff" stroke-width=".45px"/></g><g transform="translate(-1.009 -175.98)"><path d="m765.47 896.85v0.636l-0.977-0.978 0.977-0.977v0.635h15.392v-0.635l0.978 0.977-0.978 0.978v-0.636h-15.392z" fill="#fff" stroke="#fff" stroke-width=".45px"/></g><g transform="translate(0 -175)"><path d="m772.02 895.46c0.056 1.765 2.322 2.3 5.706 2.211" fill="none" stroke="#fff" stroke-width=".75px"/></g><g transform="matrix(-.013261 .93382 -.82519 -.011718 1522.8 4.0026)"><path d="m775.81 892.16 0.984 1.571h-1.968l0.984-1.571z" fill="#fff" stroke="#fff" stroke-width=".51px"/></g><g transform="matrix(-.013261 .93382 -.82519 -.011718 1525.2 8.7317)"><path d="m775.81 892.16 0.984 1.571h-1.968l0.984-1.571z" fill="#fff" stroke="#fff" stroke-width=".51px"/></g><g transform="translate(0 -175)"><path d="m769.89 895.34c-0.217-1.889 1.835-2.542 5.441-2.349" fill="none" stroke="#fff" stroke-width=".75px"/></g></g><g id="Lock"><g transform="translate(0 96.259)"><rect x="803.72" y="895.02" width="12.343" height="4.453" fill="#fff" stroke="#fff" stroke-width=".75px"/></g><g transform="translate(0 96.259)"><path d="m805.46 895.02c2.567-3.503 5.334-3.396 8.282 0" fill="none" stroke="#fff" stroke-width=".75px"/></g></g><g transform="translate(3.4042 97.619)"><text x="503.569px" y="902.401px" fill="white" font-family="'Arial-Black'" font-size="3px">2.4 GHz</text></g><g transform="translate(40.841 97.539)"><text x="503.569px" y="902.401px" fill="white" font-family="'Arial-Black'" font-size="3px">5 GHz</text></g><g id="Inet"><g transform="matrix(1.2724 -.22777 .31837 1.7784 -475.11 -424.45)"><ellipse cx="729.35" cy="889.27" rx="6.378" ry="1.404" fill="none" stroke="#fff" stroke-width=".48px"/></g><g transform="matrix(1.095 0 0 1.0978 -70.618 8.1974)"><ellipse cx="737.8" cy="896.54" rx="5.426" ry="3.783" fill="none" stroke="#fff" stroke-width=".68px"/></g></g><g id="power"><g transform="matrix(.70812 0 0 1.0015 138.62 95.428)"><ellipse cx="476.58" cy="896.65" rx="8.07" ry="3.397" fill="none" stroke="#fff" stroke-width="1.73px"/></g><g transform="matrix(1.619 0 0 1.3589 -294.64 -224.77)"><path d="m476.64 893.3c0-0.174-0.118-0.315-0.264-0.315h-0.529c-0.145 0-0.264 0.141-0.264 0.315v3.464c0 0.173 0.119 0.315 0.264 0.315h0.529c0.146 0 0.264-0.142 0.264-0.315v-3.464z" fill="#fff"/><path d="m476.4 892.66 0.027 2e-3 0.027 4e-3 0.027 6e-3 0.026 7e-3 0.026 9e-3 0.025 0.01 0.025 0.012 0.024 0.013 0.024 0.014 0.023 0.016 0.021 0.016 0.021 0.018 0.021 0.02 0.02 0.02 0.018 0.021 0.018 0.022 0.017 0.024 0.016 0.024 0.015 0.025 0.015 0.027 0.013 0.027 0.011 0.027 0.011 0.029 0.01 0.03 9e-3 0.03 7e-3 0.031 6e-3 0.031 5e-3 0.032 3e-3 0.032 3e-3 0.033v0.029 3.472 0.029l-3e-3 0.032-3e-3 0.033-5e-3 0.032-6e-3 0.031-7e-3 0.031-9e-3 0.03-0.02 0.058-0.012 0.028-0.013 0.027-0.03 0.052-0.016 0.024-0.017 0.023-0.018 0.023-0.018 0.021-0.02 0.02-0.021 0.019-0.021 0.018-0.022 0.017-0.022 0.016-0.024 0.014-0.024 0.013-0.024 0.011-0.026 0.011-0.026 9e-3 -0.026 7e-3 -0.027 5e-3 -0.027 4e-3 -0.028 3e-3 -0.024 1e-3h-0.535l-0.024-1e-3 -0.028-3e-3 -0.027-4e-3 -0.026-5e-3 -0.027-7e-3 -0.026-9e-3 -0.05-0.022-0.024-0.013-0.023-0.014-0.023-0.016-0.022-0.017-0.021-0.018-0.021-0.019-0.019-0.02-0.019-0.021-0.018-0.023-0.017-0.023-0.016-0.025-0.015-0.025-0.014-0.026-0.013-0.027-0.012-0.028-0.011-0.029-0.01-0.029-8e-3 -0.03-8e-3 -0.031-6e-3 -0.031-5e-3 -0.032-3e-3 -0.033-2e-3 -0.033-1e-3 -0.028v-3.472l1e-3 -0.029 2e-3 -0.033 3e-3 -0.032 5e-3 -0.032 6e-3 -0.031 8e-3 -0.031 8e-3 -0.03 0.01-0.03 0.011-0.028 0.012-0.028 0.013-0.027 0.014-0.027 0.015-0.025 0.016-0.024 0.017-0.024 0.018-0.022 0.019-0.021 0.019-0.02 0.021-0.02 0.021-0.018 0.022-0.016 0.023-0.016 0.023-0.014 0.024-0.013 0.025-0.012 0.025-0.01 0.026-9e-3 0.026-7e-3 0.027-6e-3 0.027-4e-3 0.028-2e-3 0.024-1e-3h0.535l0.025 1e-3zm-0.557 0.33h-0.013l-0.014 2e-3 -0.026 4e-3 -0.013 4e-3 -0.012 4e-3 -0.012 5e-3 -0.024 0.012-0.012 7e-3 -0.011 8e-3 -0.01 8e-3 -0.011 9e-3 -0.01 9e-3 -0.018 0.02-9e-3 0.011-0.024 0.036-7e-3 0.013-0.012 0.026-5e-3 0.014-5e-3 0.015-4e-3 0.014-4e-3 0.015-2e-3 0.015-3e-3 0.016-1e-3 0.016-2e-3 0.016v0.016 3.464 0.016l2e-3 0.016 1e-3 0.016 3e-3 0.015 2e-3 0.015 8e-3 0.03 0.01 0.028 6e-3 0.014 6e-3 0.013 7e-3 0.013 0.016 0.024 8e-3 0.011 0.018 0.022 9e-3 0.01 0.01 9e-3 0.011 9e-3 0.01 8e-3 0.011 7e-3 0.024 0.014 0.036 0.015 0.026 6e-3 0.013 2e-3 0.014 1e-3 0.013 1e-3h0.529l0.014-1e-3 0.013-1e-3 0.013-2e-3 0.026-6e-3 0.012-5e-3 0.013-5e-3 0.012-5e-3 0.011-7e-3 0.012-7e-3 0.011-7e-3 0.011-8e-3 0.02-0.018 0.01-0.01 9e-3 -0.011 8e-3 -0.011 9e-3 -0.011 8e-3 -0.012 7e-3 -0.012 7e-3 -0.013 6e-3 -0.013 6e-3 -0.014 0.01-0.028 8e-3 -0.03 3e-3 -0.015 2e-3 -0.015 2e-3 -0.016 1e-3 -0.016v-0.016-3.464-0.016l-1e-3 -0.016-4e-3 -0.032-3e-3 -0.015-4e-3 -0.015-4e-3 -0.014-5e-3 -0.015-5e-3 -0.014-0.012-0.026-7e-3 -0.013-7e-3 -0.012-8e-3 -0.012-9e-3 -0.012-8e-3 -0.011-9e-3 -0.01-0.01-0.01-0.02-0.018-0.022-0.016-0.012-7e-3 -0.011-6e-3 -0.012-6e-3 -0.013-5e-3 -0.012-4e-3 -0.013-4e-3 -0.039-6e-3h-0.014-0.529z" fill="#333"/></g></g></g></g><path d="m449.55 906.71c126.68 1 253.17 1.596 378.69 0 18.503-4.164 27.38-9.531 11.716-17.961-12.261-5.75-25.296-8.305-38.809-8.883-103.31-1.566-206.6-1.145-309.89 0-17.843 1.298-30.818 4.27-41.708 8.883-15.659 5.624-17.47 11.569 0 17.961" fill="none" stroke="#000" stroke-width="2.5px"/></g></svg>
