<svg xmlns="http://www.w3.org/2000/svg" viewBox="0 0 1600 1437.5" height="1437.5" width="1600"><path d="M420.342 168.775c.954-17.475 8.385-28.312 23.973-31.075 196.944-37.475 393.963-35.475 591.044 0 20.112 3.625 35.575 9.075 35.486 31.075 19.615 335.599 35.7 671.281 42.737 1007.185 2.14 53.474-34.173 70.824-78.223 81.499-160.544 43.856-451.29 45.271-595.524-3.422-35.256-11.902-53.808-30.982-53.013-78.077 5.7-337.54 17.185-673.164 33.52-1007.185z" fill="#fff" fill-rule="evenodd" stroke="#000" stroke-width="3.75" stroke-miterlimit="10"/><path d="M937.896 972.309c45.437 0 82.324 37.198 82.324 83.016 0 45.819-36.888 83.017-82.324 83.017-45.435 0-82.322-37.198-82.322-83.017 0-45.818 36.887-83.016 82.322-83.016zm0 20.753c34.078 0 61.743 27.9 61.743 62.263 0 34.364-27.665 62.262-61.743 62.262-34.076 0-61.741-27.898-61.741-62.262 0-34.364 27.665-62.263 61.741-62.263z" fill="#fbd30b" fill-rule="evenodd" stroke="#987a01" stroke-width="2.5" stroke-miterlimit="10"/><path d="M930.697 1064.239h17.639v-11.406h-17.639v11.406zM933.184 1052.834c.05-8.39 11.757-8.345 11.835 0M924.844 1058.037c-2.625-2.605-2.108-5.218 0-7.836M918.915 1060.854c-3.381-4.442-3.277-8.847 0-13.218M913.936 1063.152c-4.201-5.817-4.687-11.748 0-17.837M954.306 1050.429c2.625 2.605 2.108 5.218 0 7.836M960.234 1047.612c3.382 4.442 3.278 8.847 0 13.218M965.212 1045.315c4.203 5.817 4.69 11.747 0 17.837" fill="none" stroke="#999" stroke-width="2.5" stroke-miterlimit="10"/><text style="-inkscape-font-specification:Swiss911BT-ExtraCompressed" transform="matrix(1.25 0 0 1.25 883.78 964.594)" font-size="18" font-family="Swiss 911" fill="#999"><tspan y="0" x="0 6.7157998">RE</tspan></text><text style="-inkscape-font-specification:Swiss911BT-ExtraCompressed" transform="matrix(1.25 0 0 1.25 762.08 1028.578)" font-size="18" font-family="Swiss 911" fill="#999"><tspan y="0" x="0 10.8882 13.9284 20.221201 26.3034 29.343599 35.4258 41.4216">Wireless</tspan></text><text style="-inkscape-font-specification:Swiss911BT-ExtraCompressed" transform="matrix(1.25 0 0 1.25 792.387 1095.095)" font-size="18" font-family="Swiss 911" fill="#999"><tspan y="0" x="0 6.6617999 12.744 22.0338 28.115999">Power</tspan></text><text style="-inkscape-font-specification:Swiss911BT-ExtraCompressed" transform="matrix(1.25 0 0 1.25 833.796 1160.564)" font-size="18" font-family="Swiss 911" fill="#999"><tspan y="0" x="0 5.5278001 9.1134005 15.2478 21.33 27.622801 33.757198 39.839401">Ethernet</tspan></text><path d="M976.78 1160.524h5.023v-9.72h-5.023v9.72zM987.342 1160.524h5.023v-14.696h-5.023v14.696zM997.099 1160.524h5.022v-19.883H997.1v19.883zM1007.729 1160.524h5.022v-24.888h-5.022v24.888zM1018.256 1160.524h5.023v-31.365h-5.023v31.365z" fill="#999" fill-rule="evenodd"/></svg>