<?xml version="1.0" encoding="UTF-8"?>
<!DOCTYPE svg  PUBLIC '-//W3C//DTD SVG 1.1//EN'  'http://www.w3.org/Graphics/SVG/1.1/DTD/svg11.dtd'>
<svg clip-rule="evenodd" fill-rule="evenodd" stroke-linecap="round" stroke-linejoin="round" stroke-miterlimit="1.4142" version="1.1" viewBox="0 0 1280 1150" xmlns="http://www.w3.org/2000/svg"><g id="Hülle" transform="translate(-19.818 -48.606)"><g transform="matrix(1.6507 0 0 1.6507 -361.81 -259.98)"><path d="m431.08 287.92c-31.353 0-55.25 23.336-55.25 48.385v418.75c0 28.322 12.914 37.382 37.382 37.382h391.17c22.858 0 37.382-9.376 37.382-37.382v-418.75c0-33.79-16.477-48.385-48.384-48.385h-362.3z" fill="#fff" stroke="#000" stroke-width="1.82px"/></g><path d="m947.81 241.33c32.635 0 53.813 11.224 53.813 53.818v696.9c0 19.519-6.927 33.529-33.527 33.529h-647.69c-24.573 0-33.531-12.84-33.531-33.529v-696.9c0-30.479 29.819-53.818 61.319-53.818h599.62z" fill="#d9d9d9" stroke="#313131" stroke-width="7px"/></g><g id="anzeige" transform="translate(-167.18 -373.72)"><g transform="matrix(1.9572 0 -1.3593e-16 1.754 -531.22 -819.64)" fill="none" stroke="#f0f1f3" stroke-width="1.54px"><path d="m532.5 1001.6c3.037-3.06 6.083-2.457 9.134 0"/><path d="m529.22 994.65c5.176-3.942 10.31-3.82 15.405 0"/><path d="m526.54 988.85c6.781-4.897 13.694-5.464 20.791 0"/></g><g transform="matrix(2.2093 -1.3659e-15 1.3659e-15 2.2853 -876.26 -1273.2)" fill="none" stroke="#f0f1f3" stroke-width="1.33px"><path d="m626.35 996.05h-3.276v-10.303h18.143v10.303h-3.033"/><path d="m626.3 1003.2h11.042-4.985v-7.799"/></g><g id="Inet" transform="matrix(2.3776 -6.4656e-16 1.2931e-15 3.2536 -1232.9 -2383)"><g transform="matrix(1.2724 -.22777 .31837 1.7784 -475.11 -424.45)"><ellipse cx="729.35" cy="889.27" rx="6.378" ry="1.404" fill="none" stroke="#f0f1f3" stroke-width=".56px"/></g><g transform="matrix(1.095 0 0 1.0978 -70.618 8.1974)"><ellipse cx="737.8" cy="896.54" rx="5.426" ry="3.783" fill="none" stroke="#f0f1f3" stroke-width=".8px"/></g></g><g id="power" transform="matrix(6.0339 -3.2132e-15 2.8115e-15 4.6307 -2291.6 -3764.6)"><g transform="matrix(.74223 0 0 .74223 119.22 252.8)"><circle cx="466.64" cy="978.91" r="4.395" fill="none" stroke="#f0f1f3" stroke-width=".63px"/></g><g transform="matrix(1 9.8608e-32 9.8608e-32 1.2148 -.14312 -210.64)"><path d="m466.41 975.39c0-0.195-0.148-0.354-0.33-0.354h-0.659c-0.182 0-0.33 0.159-0.33 0.354v3.759c0 0.195 0.148 0.353 0.33 0.353h0.659c0.182 0 0.33-0.158 0.33-0.353v-3.759z" fill="#d9d9d9" stroke="#f0f1f3" stroke-width=".43px"/></g></g><g transform="matrix(5.5511e-17 1 -1 5.5511e-17 930.09 897.65)" fill="#f0f1f3" fill-rule="nonzero"><path d="m197.5 396.76h5.039l1.817 9.598 2.648-9.598h5.028l2.66 9.598 1.816-9.598h5.016l-3.785 17.18h-5.203l-3.012-10.816-3 10.816h-5.203l-3.821-17.18z"/><path d="m223.25 396.76h8.824c1.922 0 3.361 0.457 4.318 1.371s1.436 2.215 1.436 3.903c0 1.734-0.522 3.09-1.565 4.066-1.043 0.977-2.635 1.465-4.775 1.465h-2.906v6.375h-5.332v-17.18zm5.332 7.324h1.3c1.024 0 1.743-0.177 2.157-0.533 0.414-0.355 0.621-0.81 0.621-1.365 0-0.539-0.18-0.996-0.539-1.371-0.36-0.375-1.036-0.563-2.028-0.563h-1.511v3.832z"/><path d="m239.68 408.26 5.051-0.316c0.109 0.82 0.332 1.445 0.668 1.875 0.547 0.695 1.328 1.043 2.344 1.043 0.758 0 1.341-0.178 1.752-0.533 0.41-0.356 0.615-0.768 0.615-1.237 0-0.445-0.195-0.843-0.586-1.195s-1.297-0.684-2.719-0.996c-2.328-0.523-3.988-1.219-4.98-2.086-1-0.867-1.5-1.973-1.5-3.316 0-0.883 0.256-1.717 0.767-2.502 0.512-0.786 1.282-1.403 2.309-1.852s2.435-0.674 4.225-0.674c2.195 0 3.869 0.408 5.021 1.225 1.152 0.816 1.838 2.115 2.057 3.896l-5.004 0.293c-0.133-0.773-0.412-1.336-0.838-1.687-0.426-0.352-1.014-0.528-1.764-0.528-0.617 0-1.082 0.131-1.394 0.393-0.313 0.262-0.469 0.58-0.469 0.955 0 0.274 0.129 0.52 0.387 0.738 0.25 0.227 0.843 0.438 1.781 0.633 2.32 0.5 3.982 1.006 4.986 1.518s1.735 1.146 2.192 1.904 0.685 1.606 0.685 2.543c0 1.102-0.305 2.117-0.914 3.047s-1.461 1.635-2.555 2.115c-1.093 0.481-2.472 0.721-4.136 0.721-2.922 0-4.946-0.563-6.071-1.688s-1.761-2.554-1.91-4.289z"/><path d="m260.48 396.47h2.437l-4.312 17.754h-2.414l4.289-17.754z"/><path d="m264.68 413.94v-17.18h8.848c1.641 0 2.894 0.141 3.762 0.422 0.867 0.281 1.566 0.803 2.097 1.565 0.532 0.761 0.797 1.689 0.797 2.783 0 0.953-0.203 1.775-0.609 2.467-0.406 0.691-0.965 1.252-1.676 1.681-0.453 0.274-1.074 0.5-1.863 0.68 0.633 0.211 1.094 0.422 1.383 0.633 0.195 0.14 0.478 0.441 0.849 0.902s0.619 0.816 0.744 1.066l2.567 4.981h-6l-2.836-5.25c-0.36-0.68-0.68-1.121-0.961-1.324-0.383-0.266-0.817-0.399-1.301-0.399h-0.469v6.973h-5.332zm5.332-10.219h2.239c0.242 0 0.711-0.078 1.406-0.234 0.351-0.071 0.639-0.25 0.861-0.539 0.223-0.289 0.334-0.621 0.334-0.996 0-0.555-0.176-0.981-0.527-1.278-0.352-0.297-1.012-0.445-1.981-0.445h-2.332v3.492z"/><path d="m283.26 396.76h14.227v3.668h-8.906v2.731h8.261v3.504h-8.261v3.386h9.164v3.891h-14.485v-17.18z"/><path d="m299.68 408.26 5.051-0.316c0.109 0.82 0.332 1.445 0.668 1.875 0.547 0.695 1.328 1.043 2.344 1.043 0.758 0 1.341-0.178 1.752-0.533 0.41-0.356 0.615-0.768 0.615-1.237 0-0.445-0.195-0.843-0.586-1.195s-1.297-0.684-2.719-0.996c-2.328-0.523-3.988-1.219-4.98-2.086-1-0.867-1.5-1.973-1.5-3.316 0-0.883 0.256-1.717 0.767-2.502 0.512-0.786 1.282-1.403 2.309-1.852s2.435-0.674 4.225-0.674c2.195 0 3.869 0.408 5.021 1.225 1.152 0.816 1.838 2.115 2.057 3.896l-5.004 0.293c-0.133-0.773-0.412-1.336-0.838-1.687-0.426-0.352-1.014-0.528-1.764-0.528-0.617 0-1.082 0.131-1.394 0.393-0.313 0.262-0.469 0.58-0.469 0.955 0 0.274 0.129 0.52 0.387 0.738 0.25 0.227 0.843 0.438 1.781 0.633 2.32 0.5 3.982 1.006 4.986 1.518s1.735 1.146 2.192 1.904 0.685 1.606 0.685 2.543c0 1.102-0.305 2.117-0.914 3.047s-1.461 1.635-2.555 2.115c-1.093 0.481-2.472 0.721-4.136 0.721-2.922 0-4.946-0.563-6.071-1.688s-1.761-2.554-1.91-4.289z"/><path d="m317.93 396.76h14.227v3.668h-8.906v2.731h8.261v3.504h-8.261v3.386h9.164v3.891h-14.485v-17.18z"/><path d="m334.06 396.76h16.137v4.242h-5.414v12.938h-5.309v-12.938h-5.414v-4.242z"/></g></g><g transform="translate(0 17.91)" stroke-width="4px"><path d="m389.19 697.56v160.62c0 19.09 28.289 20.48 28.289 0v-160.62c0-17.226-28.289-18.373-28.289 0z" fill="#5c7b1e" stroke="#dae0dc"/><path d="m393.11 745.66v112.51c0.015 14.457 20.481 14.808 20.481 0v-112.51c0-13.103-20.494-13.225-20.481 0z" fill="#b2d241" stroke="#9ab870"/></g><g transform="translate(0 -206.39)"><path d="m389.19 568.69v289.49c0 19.09 28.289 20.48 28.289 0v-289.49c0-17.227-28.289-18.373-28.289 0z" fill="#5c7b1e" stroke="#dae0dc" stroke-width="4px"/><g transform="translate(0 -1.6551)"><path d="m393.11 811.2v40.95c0.015 14.456 20.481 14.807 20.481 0v-40.95c0-13.103-20.494-13.226-20.481 0z" fill="#b2d241" stroke="#9ab870" stroke-width="4px"/></g><g transform="translate(0 -79.418)"><path d="m393.11 811.2v40.95c0.015 14.456 20.481 14.807 20.481 0v-40.95c0-13.103-20.494-13.226-20.481 0z" fill="#b2d241" stroke="#9ab870" stroke-width="4px"/></g><g transform="translate(0 -157.33)"><path d="m393.11 811.2v40.95c0.015 14.456 20.481 14.807 20.481 0v-40.95c0-13.103-20.494-13.226-20.481 0z" fill="#b2d241" stroke="#9ab870" stroke-width="4px"/></g><g transform="translate(0 -234.2)"><path d="m393.11 811.2v40.95c0.015 14.456 20.481 14.807 20.481 0v-40.95c0-13.103-20.494-13.226-20.481 0z" fill="#b2d241" stroke="#9ab870" stroke-width="4px"/></g></g></svg>
