<?xml version="1.0" encoding="UTF-8"?>
<svg width="1600" height="1437.5" viewBox="0 0 1600 1437.5" xmlns="http://www.w3.org/2000/svg"><defs><linearGradient id="a" x1="698.46" x2="698.78" y1="1046.8" y2="1007.2" gradientTransform="matrix(1 0 0 -1 0 1150)" gradientUnits="userSpaceOnUse"><stop stop-color="#fff" offset="0"/><stop offset="1"/></linearGradient><linearGradient id="b" x1="532.66" x2="496.26" y1="148.92" y2="75.429" gradientTransform="matrix(1 0 0 -1 0 1150)" gradientUnits="userSpaceOnUse"><stop stop-color="#fff" offset="0"/><stop offset="1"/></linearGradient><linearGradient id="c" x1="715.94" x2="741.81" y1="152.38" y2="82.135" gradientTransform="matrix(1 0 0 -1 0 1150)" gradientUnits="userSpaceOnUse"><stop stop-color="#fff" offset="0"/><stop offset="1"/></linearGradient><linearGradient id="d" x1="612.64" x2="616.66" y1="145.31" y2="57.163" gradientTransform="matrix(1 0 0 -1 0 1150)" gradientUnits="userSpaceOnUse"><stop stop-color="#fff" offset="0"/><stop offset="1"/></linearGradient></defs><path transform="matrix(1.25 0 0 -1.25 0 1437.5)" d="m475.43 137.12h310.26v-33.485h-310.27v33.485z" fill="url(#a)" fill-rule="evenodd"/><path d="m596.22 265.58h384.29v999.38h-384.29v-999.38zm13.47-89.389-13.47 89.389h384.84l-22.956-89.389-55.111-57.666h-248.32l-44.981 57.666z" fill="#ebebeb" fill-rule="evenodd" stroke="#000" stroke-linecap="round" stroke-linejoin="round" stroke-miterlimit="1.414" stroke-width="4.375"/><path transform="matrix(1.25 0 0 -1.25 0 1437.5)" d="m495.92 1008.4h28.794l1.603 39.963-30.397-39.963z" fill="url(#b)" fill-rule="evenodd"/><path d="m619.9 176.98h35.992l2.005-49.953-37.997 49.953z" fill="none" stroke="#000" stroke-linecap="round" stroke-linejoin="round" stroke-miterlimit="1.414" stroke-width=".625"/><path transform="matrix(1.25 0 0 -1.25 0 1437.5)" d="m724.33 1008.4h34.494l-39.484 40.023 4.99-40.023z" fill="url(#c)" fill-rule="evenodd"/><path d="m905.42 176.99h43.117l-49.354-50.03 6.237 50.03z" fill="none" stroke="#000" stroke-linecap="round" stroke-linejoin="round" stroke-miterlimit="1.414" stroke-width=".625"/><path transform="matrix(1.25 0 0 -1.25 0 1437.5)" d="m524.78 1008.4h199.6l-4.991 39.914h-193.06l-1.554-39.914z" fill="url(#d)" fill-rule="evenodd"/><path d="m655.97 176.98h249.5l-6.239-49.893h-241.32l-1.942 49.892z" fill="none" stroke="#000" stroke-linecap="round" stroke-linejoin="round" stroke-miterlimit="1.414" stroke-width=".625"/></svg>
