<?xml version="1.0" encoding="UTF-8"?>
<!DOCTYPE svg  PUBLIC '-//W3C//DTD SVG 1.1//EN'  'http://www.w3.org/Graphics/SVG/1.1/DTD/svg11.dtd'>
<svg clip-rule="evenodd" fill-rule="evenodd" stroke-linecap="round" stroke-linejoin="round" stroke-miterlimit="1.4142" version="1.1" viewBox="0 0 1280 1150" xmlns="http://www.w3.org/2000/svg"><g transform="matrix(1 0 0 1.0002 0 14.22)"><path d="m779.07 85.965c0-20.616-16.74-37.354-37.359-37.354h-278.96c-20.619 0-37.359 16.738-37.359 37.354v968.6c0 20.62 16.74 37.36 37.359 37.36h278.96c20.619 0 37.359-16.74 37.359-37.36v-968.6z" fill="#f6f6f6" stroke="#000" stroke-width="3px"/></g><g transform="matrix(1.42 0 0 1.12 -206.89 -49.619)" fill-rule="nonzero"><path d="m493.1 405.74h24.205v6.363h-8.121v19.406h-7.963v-19.406h-8.121v-6.363z"/><path d="m520.87 405.74h13.237c2.882 0 5.042 0.685 6.477 2.056 1.436 1.372 2.153 3.323 2.153 5.854 0 2.602-0.782 4.635-2.346 6.1-1.565 1.464-3.952 2.197-7.163 2.197h-4.36v9.562h-7.998v-25.769zm7.998 10.986h1.951c1.536 0 2.614-0.266 3.235-0.8 0.621-0.533 0.932-1.215 0.932-2.048 0-0.808-0.27-1.494-0.809-2.056-0.539-0.563-1.553-0.844-3.041-0.844h-2.268v5.748z"/><rect x="545.06" y="419.34" width="10.406" height="5.537"/><path d="m558.89 405.74h7.963v19.424h12.427v6.345h-20.39v-25.769z"/><rect x="583.22" y="405.74" width="7.98" height="25.77"/><path d="m596.97 405.74h7.436l9.703 14.256v-14.256h7.506v25.769h-7.506l-9.651-14.15v14.15h-7.488v-25.769z"/><path d="m626.94 405.74h7.963v9.738l8.349-9.738h10.582l-9.387 9.721 9.809 16.048h-9.809l-5.431-10.599-4.113 4.306v6.293h-7.963v-25.769z"/></g></svg>
