<svg xmlns="http://www.w3.org/2000/svg" viewBox="0 0 1600 1437.5" height="1437.5" width="1600"><path d="M381.85 163.975l4.405 176.797 18.079 221.568 4.264 526.794.096-.635c-.788.788-7.304 6.287-39.163 6.902-31.361.605-33.34-2.831-36.812-3.532l-.275.063V563.97l17.345-222.663-1.769-177.057c11.539-1.225 22.798-1.238 33.83-.275z" fill="#fff" fill-rule="evenodd" stroke="#000" stroke-width="4.375" stroke-miterlimit="10"/><path d="M349.979 157.25v6.763l-2.088.024c13.816-.775 25.199-.725 34.564 0l-2.277-.8v-5.412l1.885-.575c-9.367-.725-20.75-.762-34.565 0l.212-.25c-.009-4.4-.957-25.162 0-41 .765-12.637 9.356-15.45 16.189-15.475 9.045-.037 16.445 4.425 17.157 15.475 1.035 16.038 1.325 37.25 1.347 41M800.822 163.975l4.404 176.797 18.079 221.568 4.264 526.794.096-.635c-.787.788-7.304 6.287-39.162 6.902-31.362.605-33.34-2.831-36.813-3.532l-.275.063V563.97l17.345-222.663-1.767-177.057c11.537-1.225 22.796-1.238 33.83-.275z" fill="#fff" fill-rule="evenodd" stroke="#000" stroke-width="4.375" stroke-miterlimit="10"/><path d="M768.95 157.25v6.763l-2.088.024c13.817-.775 25.2-.725 34.564 0l-2.277-.8v-5.412l1.885-.575c-9.367-.725-20.749-.762-34.565 0l.212-.25c-.009-4.4-.957-25.162 0-41 .765-12.637 9.358-15.45 16.189-15.475 9.045-.037 16.445 4.425 17.158 15.475 1.035 16.038 1.325 37.25 1.346 41M1214.503 163.975l4.405 176.797 18.077 221.568 4.265 526.794.096-.635c-.788.788-7.303 6.287-39.162 6.902-31.361.605-33.34-2.831-36.814-3.532l-.275.063V563.97l17.345-222.663-1.767-177.057c11.538-1.225 22.796-1.238 33.83-.275z" fill="#fff" fill-rule="evenodd" stroke="#000" stroke-width="4.375" stroke-miterlimit="10"/><path d="M1182.63 157.25v6.763l-2.087.024c13.817-.775 25.2-.725 34.565 0l-2.28-.8v-5.412l1.886-.575c-9.365-.725-20.748-.762-34.565 0l.214-.25c-.01-4.4-.96-25.162 0-41 .763-12.637 9.356-15.45 16.188-15.475 9.044-.037 16.444 4.425 17.157 15.475 1.034 16.038 1.324 37.25 1.346 41" fill="#fff" fill-rule="evenodd" stroke="#000" stroke-width="4.375" stroke-miterlimit="10"/><path d="M1203.299 1336.507h26.161v9.85c-8.739 3.15-17.457 2.89-26.161 0v-9.85zM372.625 1336.507h26.16v9.85c-8.739 3.15-17.457 2.89-26.16 0v-9.85z" fill="none" stroke="#000" stroke-width="2.5" stroke-miterlimit="10"/><path d="M322.947 1336.716h975.157v-85.062H322.947v85.062z" fill="#bfbfbf" fill-rule="evenodd" stroke="#000" stroke-width="3.75" stroke-miterlimit="10"/><path d="M579.483 1335.287h10.863v-10.03h-10.863v10.03zM561.325 1335.287h10.863v-8.518h-10.863v8.518zM542.947 1335.287h10.864v-7.456h-10.864v7.456zM525.217 1335.287h10.864v-7.456h-10.864v7.456zM507.92 1335.287h10.863v-6.925H507.92v6.925zM490.154 1335.287h10.863v-6.394h-10.863v6.394zM472.053 1335.287h10.863v-5.597h-10.863v5.597zM455.451 1335.287h10.864v-5.066H455.45v5.066zM438.653 1335.287h10.863v-4.269h-10.863v4.269zM418.484 1335.287h10.863v-3.553h-10.863v3.553zM596.05 1335.287h10.863v-10.03H596.05v10.03zM613.402 1335.287h10.864v-10.03h-10.864v10.03zM631.748 1335.287h10.863v-10.03h-10.863v10.03zM650.045 1335.287h10.863v-10.03h-10.863v10.03zM667.369 1335.287h10.863v-10.03H667.37v10.03zM685.466 1335.287h10.864v-10.03h-10.864v10.03zM703.093 1335.287h10.863v-10.03h-10.863v10.03zM720.859 1335.287h10.863v-10.03H720.86v10.03zM739.477 1335.287h10.864v-10.03h-10.864v10.03zM755.805 1335.287h10.863v-10.03h-10.863v10.03zM773.487 1335.287h10.864v-10.03h-10.864v10.03zM791.492 1335.287h10.864v-10.03h-10.864v10.03zM809.813 1335.287h10.863v-10.03h-10.864v10.03zM827.373 1335.287h10.863v-10.03h-10.863v10.03zM844.205 1335.287h10.863v-10.03h-10.863v10.03zM862.482 1335.287h10.864v-10.03h-10.864v10.03zM879.926 1335.287h10.864v-10.03h-10.864v10.03zM898.339 1335.287h10.863v-10.03H898.34v10.03zM915.422 1335.287h10.864v-10.03h-10.864v10.03zM933.602 1335.287h10.864v-10.03h-10.864v10.03zM951.977 1335.287h10.864v-10.03h-10.864v10.03zM969.504 1335.287h10.863v-10.03h-10.863v10.03zM986.841 1335.287h10.864v-10.03H986.84v10.03zM1005.014 1335.287h10.863v-10.03h-10.863v10.03zM1022.887 1335.287h10.864v-8.658h-10.864v8.658zM1039.514 1335.287h10.863v-8.658h-10.863v8.658zM1056.579 1335.287h10.863v-8.658h-10.863v8.658zM1073.895 1335.287h10.863v-8.658h-10.863v8.658zM1091.793 1335.287h10.863v-6.88h-10.864v6.88zM1109.632 1335.287h10.864v-6.88h-10.864v6.88zM1124.76 1335.287h10.863v-5.092h-10.863v5.092zM1143.096 1335.287h10.864v-4.295h-10.864v4.295zM1160.275 1335.287h10.863v-3.58h-10.863v3.58zM1177.771 1335.287h10.864v-2.863h-10.864v2.863z" fill="#fcfcfc" fill-rule="evenodd" stroke="#000" stroke-width=".625" stroke-miterlimit="10"/><path d="M417.08 999.597c248.549-38.32 495.734-48.97 739.984 0 39.733 8.78 79.778 22.633 120.411 46.132 27.613 19.56 50.9 44.705 64.675 82.136 9.737 30.781 17.325 62.414 21.675 95.336 1.687 31.978-2.263 55.61-13.65 80.698-19.213 22.2-35.538 30.747-50.075 30.853-14.038 1.43-28.063 1.301-42.075 0-9.543-.252-39.508-13.085-77.481-30.853-57.909-28.038-119.115-40.569-182.305-43.779-129.778-6.139-259.417-3.985-388.994 1.848-72.663 4.895-122.641 17.658-180.598 41.93-32.437 14.817-60.37 26.123-93.513 30.854-10.875 1.44-21.708 1.62-32.478 0-22.78-3.586-40.844-14.209-54.87-30.853-15.54-22.153-24.926-48.058-23.274-80.698 1.533-31.695 5.102-63.437 15.275-95.336 12.917-39.247 41.673-73.601 95.347-100.256 27.171-13.111 54.498-23.25 81.946-28.011z" fill="#fff" fill-rule="evenodd" stroke="#000" stroke-width="3.75" stroke-miterlimit="10"/><path d="M1288.938 1334.915c-32.776-6.08-69.018-20.164-98.868-34.405-63.597-34.634-149.345-44.511-170.616-46.251-94.497-7.732-318.242-8.337-413.939 0-75.044 6.537-111.95 14.763-185.23 46.251-33.324 14.32-64.44 28.384-97.155 34.783" fill="none" stroke="#000" stroke-width="2.5" stroke-miterlimit="10"/><path d="M538.051 1235.254c-13.516 1.236-12.592-16.466 0-17.396 177.959-13.142 356.031-18.115 534.093 0 12.152 1.236 15.493 19.2 0 17.396-178.015-20.716-356.218-16.27-534.093 0z" fill="#bfbfbf" fill-rule="evenodd" stroke="#000" stroke-miterlimit="10" stroke-width="1.25"/><path d="M857.559 1216.67c1.807-1.081 3.571-.792 5.314.189M855.741 1214.017c3.064-1.366 6.049-1.215 8.963.32M854.26 1211.793c4.01-1.692 8.04-1.76 12.095.43" fill="none" stroke="#fff" stroke-width="1.4674999999999998" stroke-miterlimit="10"/><path d="M767.644 1214.84l-2.117.053-.106-4.324 11.719-.288.106 4.324-1.959.048" fill="none" stroke="#fff" stroke-width="1.635" stroke-miterlimit="10"/><path d="M767.682 1217.846l7.133-.175-3.22.08-.08-3.271" fill="none" stroke="#fff" stroke-width="1.635" stroke-miterlimit="10"/><path d="M948.455 1215.263l-13.796-.66-.239 4.978 13.798.66.237-4.978z" fill="#fff" fill-rule="evenodd" stroke="#fff" stroke-width=".9375" stroke-miterlimit="10"/><path d="M936.603 1214.696c3.057-3.778 6.143-3.51 9.257.443" fill="none" stroke="#fff" stroke-width=".9375" stroke-miterlimit="10"/><path d="M670.146 1213.456a6.303 6.303 0 0 0-1.028.067l-.11.69a5.152 5.152 0 0 0-.944.276l-.574-.489a5.642 5.642 0 0 0-.862.488l.313.636c-.247.19-.468.401-.662.631l-.795-.178a4.324 4.324 0 0 0-.466.78l.655.41c-.104.267-.173.54-.204.818l-.804.181c-.016.289.003.578.055.862l.821.076c.068.271.171.534.309.784l-.597.492c.158.253.347.491.562.713l.766-.28c.222.203.469.385.739.54l-.23.672c.29.15.597.274.919.373l.506-.56c.315.082.641.133.971.153l.199.67c.344.005.689-.017 1.029-.067l.11-.69c.325-.063.641-.155.944-.276l.573.488c.305-.138.595-.302.863-.487l-.314-.636c.248-.19.47-.402.663-.632l.795.178c.185-.246.34-.508.466-.779l-.655-.411c.104-.266.172-.54.204-.818l.805-.181a3.681 3.681 0 0 0-.057-.861l-.821-.076a3.306 3.306 0 0 0-.307-.784l.596-.493a4.336 4.336 0 0 0-.563-.712l-.766.279a4.234 4.234 0 0 0-.739-.54l.23-.672a5.542 5.542 0 0 0-.918-.372l-.507.558a5.124 5.124 0 0 0-.971-.152l-.199-.669zm-.287 3.524c.578-.037 1.075.325 1.106.81.031.485-.413.909-.993.946-.578.038-1.074-.325-1.106-.81-.031-.485.414-.908.993-.946z" fill="#fff" fill-rule="evenodd"/><path d="M585.403 1219.537a4.08 4.08 0 0 1 4.347 3.79 4.08 4.08 0 0 1-3.79 4.348 4.079 4.079 0 0 1-.558-8.138z" fill="#bfbfbf" fill-rule="evenodd" stroke="#fff" stroke-width=".875" stroke-miterlimit="10"/><path d="M586.186 1218.206a.413.413 0 0 0-.44-.382l-.822.056a.412.412 0 0 0-.383.439l.325 4.747a.414.414 0 0 0 .44.384l.823-.056a.413.413 0 0 0 .382-.44l-.325-4.748z" fill="#fff" fill-rule="evenodd" stroke="#bfbfbf" stroke-width=".875" stroke-miterlimit="10"/></svg>