<?xml version="1.0" encoding="UTF-8"?>
<!DOCTYPE svg  PUBLIC '-//W3C//DTD SVG 1.1//EN'  'http://www.w3.org/Graphics/SVG/1.1/DTD/svg11.dtd'>
<svg clip-rule="evenodd" fill-rule="evenodd" stroke-linecap="round" stroke-linejoin="round" stroke-miterlimit="1.4142" version="1.1" viewBox="0 0 1280 1150" xmlns="http://www.w3.org/2000/svg"><g transform="matrix(.8011 0 0 .8011 111.49 33.878)"><g id="Antenne Links"><g transform="translate(-774.38 -3.156)"><path d="m1016.5 124.62 4.4 176.55 18.05 221.26 4.26 526.08 0.1-0.64c-0.79 0.79-7.3 6.28-39.11 6.9-31.319 0.6-33.295-2.83-36.764-3.53l-0.275 0.06v-527.24l17.322-222.36-1.766-176.81c11.523-1.232 22.763-1.242 33.783-0.278z" fill="#fff" stroke="#000" stroke-width="4.37px"/></g><g transform="translate(-774.38 -3.156)"><path d="m984.7 117.91v6.75l-2.085 0.02c13.798-0.774 25.162-0.727 34.512 0l-2.27-0.796v-5.405l1.88-0.569c-9.35-0.726-20.717-0.773-34.515 0l0.213-0.253c-0.01-4.398-0.957-25.125 0-40.949 0.763-12.612 9.343-15.423 16.166-15.449 9.036-0.034 16.426 4.42 17.136 15.449 1.03 16.016 1.32 37.206 1.34 40.949" fill="#fff" stroke="#000" stroke-width="4.37px"/></g></g></g><g id="front"><g id="Füsse"><path d="m962.64 1069.2h20.929v7.89c-6.991 2.52-13.966 2.31-20.929 0v-7.89z" fill="#404040" stroke="#000" stroke-width="2px"/><g transform="translate(-664.54)"><path d="m962.64 1069.2h20.929v7.89c-6.991 2.52-13.966 2.31-20.929 0v-7.89z" fill="#404040" stroke="#000" stroke-width="2px"/></g></g><g transform="matrix(8.707 0 0 1 -1991.2 0)"><rect x="258.36" y="1001.3" width="89.597" height="68.05" fill="#bfbfbf" stroke="#000" stroke-width=".48px"/></g><g id="Luftlöcher" transform="translate(0 -.86129)"><rect x="463.59" y="1061.1" width="8.691" height="8.024" fill="#fcfcfc" stroke="#000" stroke-width=".5px"/><g transform="matrix(1 0 0 .84921 -14.526 161.21)"><rect x="463.59" y="1061.1" width="8.691" height="8.024" fill="#fcfcfc" stroke="#000" stroke-width=".54px"/></g><g transform="matrix(1 0 0 .7433 -29.228 274.43)"><rect x="463.59" y="1061.1" width="8.691" height="8.024" fill="#fcfcfc" stroke="#000" stroke-width=".57px"/></g><g transform="matrix(1 0 0 .7433 -43.412 274.43)"><rect x="463.59" y="1061.1" width="8.691" height="8.024" fill="#fcfcfc" stroke="#000" stroke-width=".57px"/></g><g transform="matrix(1 0 0 .69035 -57.25 331.04)"><rect x="463.59" y="1061.1" width="8.691" height="8.024" fill="#fcfcfc" stroke="#000" stroke-width=".58px"/></g><g transform="matrix(1 0 0 .6374 -71.463 387.66)"><rect x="463.59" y="1061.1" width="8.691" height="8.024" fill="#fcfcfc" stroke="#000" stroke-width=".6px"/></g><g transform="matrix(1 0 0 .55797 -85.944 472.57)"><rect x="463.59" y="1061.1" width="8.691" height="8.024" fill="#fcfcfc" stroke="#000" stroke-width=".62px"/></g><g transform="matrix(1 0 0 .50502 -99.225 529.18)"><rect x="463.59" y="1061.1" width="8.691" height="8.024" fill="#fcfcfc" stroke="#000" stroke-width=".63px"/></g><g transform="matrix(1 0 0 .42559 -112.66 614.1)"><rect x="463.59" y="1061.1" width="8.691" height="8.024" fill="#fcfcfc" stroke="#000" stroke-width=".65px"/></g><g transform="matrix(1 0 0 .35422 -128.8 690.39)"><rect x="463.59" y="1061.1" width="8.691" height="8.024" fill="#fcfcfc" stroke="#000" stroke-width=".67px"/></g><g transform="translate(13.254)"><rect x="463.59" y="1061.1" width="8.691" height="8.024" fill="#fcfcfc" stroke="#000" stroke-width=".5px"/></g><g transform="translate(27.136)"><rect x="463.59" y="1061.1" width="8.691" height="8.024" fill="#fcfcfc" stroke="#000" stroke-width=".5px"/></g><g transform="translate(41.812)"><rect x="463.59" y="1061.1" width="8.691" height="8.024" fill="#fcfcfc" stroke="#000" stroke-width=".5px"/></g><g transform="translate(56.45)"><rect x="463.59" y="1061.1" width="8.691" height="8.024" fill="#fcfcfc" stroke="#000" stroke-width=".5px"/></g><g transform="translate(70.309)"><rect x="463.59" y="1061.1" width="8.691" height="8.024" fill="#fcfcfc" stroke="#000" stroke-width=".5px"/></g><g transform="translate(84.787)"><rect x="463.59" y="1061.1" width="8.691" height="8.024" fill="#fcfcfc" stroke="#000" stroke-width=".5px"/></g><g transform="translate(98.888)"><rect x="463.59" y="1061.1" width="8.691" height="8.024" fill="#fcfcfc" stroke="#000" stroke-width=".5px"/></g><g transform="translate(113.1)"><rect x="463.59" y="1061.1" width="8.691" height="8.024" fill="#fcfcfc" stroke="#000" stroke-width=".5px"/></g><g transform="translate(128)"><rect x="463.59" y="1061.1" width="8.691" height="8.024" fill="#fcfcfc" stroke="#000" stroke-width=".5px"/></g><g transform="translate(141.06)"><rect x="463.59" y="1061.1" width="8.691" height="8.024" fill="#fcfcfc" stroke="#000" stroke-width=".5px"/></g><g transform="translate(155.2)"><rect x="463.59" y="1061.1" width="8.691" height="8.024" fill="#fcfcfc" stroke="#000" stroke-width=".5px"/></g><g transform="translate(169.61)"><rect x="463.59" y="1061.1" width="8.691" height="8.024" fill="#fcfcfc" stroke="#000" stroke-width=".5px"/></g><g transform="translate(184.26)"><rect x="463.59" y="1061.1" width="8.691" height="8.024" fill="#fcfcfc" stroke="#000" stroke-width=".5px"/></g><g transform="translate(198.31)"><rect x="463.59" y="1061.1" width="8.691" height="8.024" fill="#fcfcfc" stroke="#000" stroke-width=".5px"/></g><g transform="translate(211.78)"><rect x="463.59" y="1061.1" width="8.691" height="8.024" fill="#fcfcfc" stroke="#000" stroke-width=".5px"/></g><g transform="translate(226.4)"><rect x="463.59" y="1061.1" width="8.691" height="8.024" fill="#fcfcfc" stroke="#000" stroke-width=".5px"/></g><g transform="translate(240.36)"><rect x="463.59" y="1061.1" width="8.691" height="8.024" fill="#fcfcfc" stroke="#000" stroke-width=".5px"/></g><g transform="translate(255.08)"><rect x="463.59" y="1061.1" width="8.691" height="8.024" fill="#fcfcfc" stroke="#000" stroke-width=".5px"/></g><g transform="translate(268.75)"><rect x="463.59" y="1061.1" width="8.691" height="8.024" fill="#fcfcfc" stroke="#000" stroke-width=".5px"/></g><g transform="translate(283.3)"><rect x="463.59" y="1061.1" width="8.691" height="8.024" fill="#fcfcfc" stroke="#000" stroke-width=".5px"/></g><g transform="translate(298)"><rect x="463.59" y="1061.1" width="8.691" height="8.024" fill="#fcfcfc" stroke="#000" stroke-width=".5px"/></g><g transform="translate(312.02)"><rect x="463.59" y="1061.1" width="8.691" height="8.024" fill="#fcfcfc" stroke="#000" stroke-width=".5px"/></g><g transform="translate(325.89)"><rect x="463.59" y="1061.1" width="8.691" height="8.024" fill="#fcfcfc" stroke="#000" stroke-width=".5px"/></g><g transform="translate(340.42)"><rect x="463.59" y="1061.1" width="8.691" height="8.024" fill="#fcfcfc" stroke="#000" stroke-width=".5px"/></g><g transform="matrix(1 0 0 .86317 354.72 146.28)"><rect x="463.59" y="1061.1" width="8.691" height="8.024" fill="#fcfcfc" stroke="#000" stroke-width=".54px"/></g><g transform="matrix(1 0 0 .86317 368.02 146.28)"><rect x="463.59" y="1061.1" width="8.691" height="8.024" fill="#fcfcfc" stroke="#000" stroke-width=".54px"/></g><g transform="matrix(1 0 0 .86317 381.68 146.28)"><rect x="463.59" y="1061.1" width="8.691" height="8.024" fill="#fcfcfc" stroke="#000" stroke-width=".54px"/></g><g transform="matrix(1 0 0 .86317 395.53 146.28)"><rect x="463.59" y="1061.1" width="8.691" height="8.024" fill="#fcfcfc" stroke="#000" stroke-width=".54px"/></g><g transform="matrix(1 0 0 .6859 409.85 335.8)"><rect x="463.59" y="1061.1" width="8.691" height="8.024" fill="#fcfcfc" stroke="#000" stroke-width=".58px"/></g><g transform="matrix(1 0 0 .6859 424.12 335.8)"><rect x="463.59" y="1061.1" width="8.691" height="8.024" fill="#fcfcfc" stroke="#000" stroke-width=".58px"/></g><g transform="matrix(1 0 0 .5076 436.22 526.42)"><rect x="463.59" y="1061.1" width="8.691" height="8.024" fill="#fcfcfc" stroke="#000" stroke-width=".63px"/></g><g transform="matrix(1 0 0 .42817 450.89 611.34)"><rect x="463.59" y="1061.1" width="8.691" height="8.024" fill="#fcfcfc" stroke="#000" stroke-width=".65px"/></g><g transform="matrix(1 0 0 .35681 464.63 687.63)"><rect x="463.59" y="1061.1" width="8.691" height="8.024" fill="#fcfcfc" stroke="#000" stroke-width=".67px"/></g><g transform="matrix(1 0 0 .28545 478.63 763.92)"><rect x="463.59" y="1061.1" width="8.691" height="8.024" fill="#fcfcfc" stroke="#000" stroke-width=".68px"/></g></g></g><g id="Rumpf" stroke="#000"><path id="rumpf" d="m333.66 799.68c198.84-30.657 396.59-39.177 591.99 0 31.787 7.024 63.823 18.106 96.329 36.905 22.09 15.648 40.72 35.764 51.74 65.709 7.79 24.625 13.86 49.931 17.34 76.269 1.35 25.579-1.8 44.489-10.92 64.559-15.37 17.76-28.43 24.6-40.06 24.68-11.23 1.15-22.45 1.04-33.65 0-7.644-0.2-31.616-10.47-61.995-24.68-46.327-22.43-95.292-32.46-145.84-35.02-103.82-4.91-207.53-3.19-311.2 1.47-58.13 3.92-98.113 14.13-144.48 33.55-25.95 11.85-48.297 20.9-74.811 24.68-8.7 1.15-17.366 1.3-25.982 0-18.224-2.87-32.675-11.37-43.896-24.68-12.432-17.72-19.941-38.45-18.619-64.559 1.226-25.356 4.081-50.75 12.22-76.269 10.333-31.398 33.338-58.881 76.277-80.205 21.737-10.489 43.599-18.6 65.557-22.409z" fill="#fff" stroke-linecap="butt" stroke-width="3px"/><path d="m1031.2 1067.9c-26.22-4.86-55.214-16.13-79.094-27.52-50.878-27.71-119.48-35.61-136.49-37-75.597-6.188-254.59-6.672-331.15 0-60.035 5.23-89.56 11.81-148.18 37-26.659 11.45-51.552 22.71-77.724 27.83" fill="none" stroke-width="2px"/></g><g id="Anzeige" transform="translate(32.809 35.761)"><g transform="translate(-32.809 -35.761)"><path d="m430.44 988.2c-10.813 0.989-10.074-13.173 0-13.917 142.37-10.513 284.82-14.492 427.27 0 9.722 0.989 12.395 15.36 0 13.917-142.41-16.573-284.97-13.016-427.27 0z" fill="#c8c8c8" stroke="#000" stroke-width="1px"/></g><g transform="matrix(.46542 .016566 -.01065 .29921 416.07 629.08)" fill="none" stroke="#7e7e7e" stroke-width="3px"><path d="m532.5 1001.6c3.037-3.06 6.083-2.457 9.134 0"/><path d="m529.22 994.65c5.176-3.942 10.31-3.82 15.405 0"/><path d="m526.54 988.85c6.781-4.897 13.694-5.464 20.791 0"/></g><g transform="matrix(.51672 -.012659 .008224 .33569 249.46 609.67)" fill="none" stroke="#7e7e7e" stroke-width="3px"><path d="m626.35 996.05h-3.276v-10.303h18.143v10.303h-3.033"/><path d="m626.3 1003.2h11.042-4.985v-7.799"/></g><g id="Lock" transform="matrix(.89426 .042742 -.042742 .89426 38.553 15.107)"><g transform="translate(0 96.259)"><rect x="803.72" y="895.02" width="12.343" height="4.453" fill="none" stroke="#7e7e7e" stroke-width=".84px"/></g><g transform="translate(0 96.259)"><path d="m805.46 895.02c2.567-3.503 5.334-3.396 8.282 0" fill="none" stroke="#7e7e7e" stroke-width=".84px"/></g></g><g transform="matrix(.9979 -.064725 .054141 .83472 -413.03 138.36)"><path d="m862.86 1021.3c-0.274-0.02-0.55-0.02-0.825 0l-0.124 0.66c-0.262 0.04-0.519 0.1-0.767 0.2l-0.433-0.5c-0.251 0.11-0.49 0.25-0.714 0.41l0.218 0.63c-0.207 0.16-0.396 0.35-0.561 0.56l-0.626-0.22c-0.161 0.22-0.299 0.46-0.413 0.72l0.502 0.43c-0.096 0.24-0.165 0.5-0.205 0.76l-0.652 0.13c-0.027 0.27-0.027 0.55 0 0.82l0.652 0.13c0.04 0.26 0.109 0.52 0.205 0.77l-0.502 0.43c0.114 0.25 0.252 0.49 0.413 0.71l0.626-0.22c0.165 0.21 0.354 0.4 0.561 0.57l-0.218 0.62c0.224 0.16 0.463 0.3 0.714 0.41l0.433-0.5c0.248 0.1 0.505 0.17 0.767 0.21l0.124 0.65c0.275 0.03 0.551 0.03 0.825 0l0.124-0.65c0.263-0.04 0.52-0.11 0.767-0.21l0.433 0.5c0.251-0.11 0.491-0.25 0.715-0.41l-0.219-0.62c0.208-0.17 0.396-0.36 0.562-0.57l0.626 0.22c0.161-0.22 0.299-0.46 0.412-0.71l-0.502-0.43c0.097-0.25 0.166-0.51 0.206-0.77l0.651-0.13c0.027-0.27 0.027-0.55 0-0.82l-0.651-0.13c-0.04-0.26-0.109-0.52-0.206-0.76l0.502-0.43c-0.113-0.26-0.251-0.5-0.412-0.72l-0.626 0.22c-0.166-0.21-0.354-0.4-0.562-0.56l0.219-0.63c-0.224-0.16-0.464-0.3-0.715-0.41l-0.433 0.5c-0.247-0.1-0.504-0.16-0.767-0.2l-0.124-0.66zm-0.412 3.35c0.464 0 0.841 0.38 0.841 0.84 0 0.47-0.377 0.84-0.841 0.84-0.465 0-0.842-0.37-0.842-0.84 0-0.46 0.377-0.84 0.842-0.84z" fill="#7e7e7e" stroke="#7e7e7e" stroke-width=".76px"/></g><g id="power" transform="matrix(.99766 -.068388 .068388 .99766 -95.717 -2.1246)"><g transform="matrix(.74223 0 0 .74223 119.22 252.8)"><circle cx="466.64" cy="978.91" r="4.395" fill="none" stroke="#7e7e7e" stroke-width=".94px"/></g><g transform="translate(-.14312 -.27)"><path d="m466.41 975.37c0-0.182-0.148-0.33-0.33-0.33h-0.659c-0.182 0-0.33 0.148-0.33 0.33v3.807c0 0.182 0.148 0.329 0.33 0.329h0.659c0.182 0 0.33-0.147 0.33-0.329v-3.807z" fill="#7e7e7e" stroke="#c8c8c8" stroke-width=".7px"/></g></g></g></svg>
