<?xml version="1.0" encoding="UTF-8"?>
<!DOCTYPE svg  PUBLIC '-//W3C//DTD SVG 1.1//EN'  'http://www.w3.org/Graphics/SVG/1.1/DTD/svg11.dtd'>
<svg clip-rule="evenodd" fill-rule="evenodd" stroke-linejoin="round" stroke-miterlimit="1.4142" version="1.1" viewBox="0 0 1280 1150" xmlns="http://www.w3.org/2000/svg"><g id="Antennen-1043" fill="#313131" stroke="#000" stroke-width=".5px"><g id="new-Antenne-1043"><path d="m652.04 619.12h51.09l-2.782-92.568h-44.954l-3.354 92.568z"/><rect x="665.08" y="199.14" width="27.899" height="28.754"/><path d="m649.24 689.44 1.745-72.483c18.12 1.594 36.233 1.866 54.335 0l1.86 72.483h-57.94z"/><path d="m650.85 597.16v15.136c18.149 2.247 36.381 2.42 54.718 0v-15.136c-18.224 1.953-36.465 1.743-54.718 0z"/><path d="m663.14 341.64h31.293v-118.18h-30.688l-0.605 118.18z"/><path d="m651.35 593.43c17.917 1.565 35.697 1.532 53.347 0l-1.562-41.415c-16.586 1.957-33.507 1.853-50.713 0l-1.072 41.415z"/><path d="m653.08 547.91c16.718 1.65 33.396 1.777 50.024 0l-0.6-14.589c-16.215 1.662-32.513 1.617-48.889 0l-0.535 14.589z"/><path d="m653.61 529.95c16.379 1.306 32.682 1.407 48.889 0l-5.312-191.62c-12.013 2.017-24.053 2.106-36.121 0l-7.456 191.62z"/><rect x="663.75" y="205.1" width="30.688" height="14.659"/><path d="m663.69 200.97h30.756v-56.83c-6.204-15.505-23.196-15.536-30.756 0v56.83z"/></g><g id="new-Antenne-10431" transform="matrix(.96593 -.25882 .25882 .96593 -524.48 206.12)"><path d="m652.04 619.12h51.09l-2.782-92.568h-44.954l-3.354 92.568z"/><rect x="665.08" y="199.14" width="27.899" height="28.754"/><path d="m649.24 689.44 1.745-72.483c18.12 1.594 36.233 1.866 54.335 0l1.86 72.483h-57.94z"/><path d="m650.85 597.16v15.136c18.149 2.247 36.381 2.42 54.718 0v-15.136c-18.224 1.953-36.465 1.743-54.718 0z"/><path d="m663.14 341.64h31.293v-118.18h-30.688l-0.605 118.18z"/><path d="m651.35 593.43c17.917 1.565 35.697 1.532 53.347 0l-1.562-41.415c-16.586 1.957-33.507 1.853-50.713 0l-1.072 41.415z"/><path d="m653.08 547.91c16.718 1.65 33.396 1.777 50.024 0l-0.6-14.589c-16.215 1.662-32.513 1.617-48.889 0l-0.535 14.589z"/><path d="m653.61 529.95c16.379 1.306 32.682 1.407 48.889 0l-5.312-191.62c-12.013 2.017-24.053 2.106-36.121 0l-7.456 191.62z"/><rect x="663.75" y="205.1" width="30.688" height="14.659"/><path d="m663.69 200.97h30.756v-56.83c-6.204-15.505-23.196-15.536-30.756 0v56.83z"/></g><g id="new-Antenne-1043rechts" transform="matrix(.96593 .25882 -.25882 .96593 549.46 -145.55)"><path d="m652.04 619.12h51.09l-2.782-92.568h-44.954l-3.354 92.568z"/><rect x="665.08" y="199.14" width="27.899" height="28.754"/><path d="m649.24 689.44 1.745-72.483c18.12 1.594 36.233 1.866 54.335 0l1.86 72.483h-57.94z"/><path d="m650.85 597.16v15.136c18.149 2.247 36.381 2.42 54.718 0v-15.136c-18.224 1.953-36.465 1.743-54.718 0z"/><path d="m663.14 341.64h31.293v-118.18h-30.688l-0.605 118.18z"/><path d="m651.35 593.43c17.917 1.565 35.697 1.532 53.347 0l-1.562-41.415c-16.586 1.957-33.507 1.853-50.713 0l-1.072 41.415z"/><path d="m653.08 547.91c16.718 1.65 33.396 1.777 50.024 0l-0.6-14.589c-16.215 1.662-32.513 1.617-48.889 0l-0.535 14.589z"/><path d="m653.61 529.95c16.379 1.306 32.682 1.407 48.889 0l-5.312-191.62c-12.013 2.017-24.053 2.106-36.121 0l-7.456 191.62z"/><rect x="663.75" y="205.1" width="30.688" height="14.659"/><path d="m663.69 200.97h30.756v-56.83c-6.204-15.505-23.196-15.536-30.756 0v56.83z"/></g></g><g id="rippen"><g id="rippen-rechts"><g transform="matrix(.7611 0 0 .7611 298.96 294.45)"><path d="m1241.6 892.41 7.41 13.916-3.05 7.493h-4.36l-2.61-21.409h2.61z" fill="#333" stroke="#000" stroke-width=".66px"/></g><g transform="matrix(.7611 0 0 .7611 298.96 294.45)"><path d="m1240.1 909.58c3.79 0.407 6.88-0.478 8.92-3.25v9.388c-1.64 2.968-4.77 3.276-8.31 3.355l-0.61-9.493z" fill="#333" stroke="#000" stroke-width=".66px"/></g><g transform="matrix(.89583 0 0 .89583 130.99 146.98)"><path d="m1241.6 892.41 7.41 13.916-3.05 7.493h-4.36l-2.61-21.409h2.61z" fill="#333" stroke="#000" stroke-width=".56px"/></g><g transform="matrix(.89583 0 0 .89583 130.99 146.98)"><path d="m1240.1 909.58c3.79 0.407 6.88-0.478 8.92-3.25v9.388c-1.64 2.968-4.77 3.276-8.31 3.355l-0.61-9.493z" fill="#333" stroke="#000" stroke-width=".56px"/></g><g transform="translate(.45556 25.863)"><path d="m1241.6 892.41 7.41 13.916-3.05 7.493h-4.36l-2.61-21.409h2.61z" fill="#333" stroke="#000" stroke-width=".5px"/></g><g transform="translate(.45556 25.863)"><path d="m1240.1 909.58c3.79 0.407 6.88-0.478 8.92-3.25v9.388c-1.64 2.968-4.77 3.276-8.31 3.355l-0.61-9.493z" fill="#333" stroke="#000" stroke-width=".5px"/></g><g fill="#333" stroke="#000" stroke-width=".5px"><path d="m1241.6 892.41 7.41 13.916-3.05 7.493h-4.36l-2.61-21.409h2.61z"/><path d="m1240.1 909.58c3.79 0.407 6.88-0.478 8.92-3.25v9.388c-1.64 2.968-4.77 3.276-8.31 3.355l-0.61-9.493z"/></g><path d="m1240.1 866.78 8.85 15.218-2.95 4.956h-7.12l-2.33-20.174h3.55z" fill="#333" stroke="#000" stroke-width=".5px"/><g transform="matrix(1 0 0 .89603 0 92.961)"><path d="m1238.9 883.85c3.83 0.552 7.14-0.782 10.14-3.23v9.914c-1.03 2.121-4.15 3.227-8.87 3.55l-1.27-10.234z" fill="#333" stroke="#000" stroke-width=".53px"/></g><path d="m1140.2 705.01c9.8 2.542 17.38 7.791 22.44 16.121l86.3 136.93-1.06 5.367-4.19 1.382-7.96-1.238-95.53-158.56z" fill="#333" stroke="#000" stroke-width=".5px"/><g transform="matrix(1 0 0 1.3469 0 -298.37)"><path d="m1237.4 868c5.31 0.035 9.62-0.674 11.52-3.164 0.12-0.713 0.01-5.929 0-6.238-2.19 3.546-6.96 4.464-12.95 4.045" fill="#333" stroke="#000" stroke-width=".42px"/></g></g><g id="rippen-rechts1" transform="matrix(-1 0 0 1 1328.5 0)"><g transform="matrix(.7611 0 0 .7611 298.96 294.45)"><path d="m1241.6 892.41 7.41 13.916-3.05 7.493h-4.36l-2.61-21.409h2.61z" fill="#333" stroke="#000" stroke-width=".66px"/></g><g transform="matrix(.7611 0 0 .7611 298.96 294.45)"><path d="m1240.1 909.58c3.79 0.407 6.88-0.478 8.92-3.25v9.388c-1.64 2.968-4.77 3.276-8.31 3.355l-0.61-9.493z" fill="#333" stroke="#000" stroke-width=".66px"/></g><g transform="matrix(.89583 0 0 .89583 130.99 146.98)"><path d="m1241.6 892.41 7.41 13.916-3.05 7.493h-4.36l-2.61-21.409h2.61z" fill="#333" stroke="#000" stroke-width=".56px"/></g><g transform="matrix(.89583 0 0 .89583 130.99 146.98)"><path d="m1240.1 909.58c3.79 0.407 6.88-0.478 8.92-3.25v9.388c-1.64 2.968-4.77 3.276-8.31 3.355l-0.61-9.493z" fill="#333" stroke="#000" stroke-width=".56px"/></g><g transform="translate(.45556 25.863)"><path d="m1241.6 892.41 7.41 13.916-3.05 7.493h-4.36l-2.61-21.409h2.61z" fill="#333" stroke="#000" stroke-width=".5px"/></g><g transform="translate(.45556 25.863)"><path d="m1240.1 909.58c3.79 0.407 6.88-0.478 8.92-3.25v9.388c-1.64 2.968-4.77 3.276-8.31 3.355l-0.61-9.493z" fill="#333" stroke="#000" stroke-width=".5px"/></g><g fill="#333" stroke="#000" stroke-width=".5px"><path d="m1241.6 892.41 7.41 13.916-3.05 7.493h-4.36l-2.61-21.409h2.61z"/><path d="m1240.1 909.58c3.79 0.407 6.88-0.478 8.92-3.25v9.388c-1.64 2.968-4.77 3.276-8.31 3.355l-0.61-9.493z"/></g><path d="m1240.1 866.78 8.85 15.218-2.95 4.956h-7.12l-2.33-20.174h3.55z" fill="#333" stroke="#000" stroke-width=".5px"/><g transform="matrix(1 0 0 .89603 0 92.961)"><path d="m1238.9 883.85c3.83 0.552 7.14-0.782 10.14-3.23v9.914c-1.03 2.121-4.15 3.227-8.87 3.55l-1.27-10.234z" fill="#333" stroke="#000" stroke-width=".53px"/></g><path d="m1140.2 705.01c9.8 2.542 17.38 7.791 22.44 16.121l86.3 136.93-1.06 5.367-4.19 1.382-7.96-1.238-95.53-158.56z" fill="#333" stroke="#000" stroke-width=".5px"/><g transform="matrix(1 0 0 1.3469 0 -298.37)"><path d="m1237.4 868c5.31 0.035 9.62-0.674 11.52-3.164 0.12-0.713 0.01-5.929 0-6.238-2.19 3.546-6.96 4.464-12.95 4.045" fill="#333" stroke="#000" stroke-width=".42px"/></g></g></g><g id="Router"><g id="Plaste-weis"><path d="m84.296 981.95c2.217-49.09 3.297-101.9 12.226-129.05l94.786-149.18c3.702-5.827 32.114-14.407 50.886-14.842h820.58c39.79 0.288 69.42 3.841 75.91 14.842l89.38 142.99c3.38 5.992 6.1 12.184 8.31 18.529 4.2 38.789 5.35 77.76 6.85 116.71l-12.81 14.799h-1132.1l-14.058-14.799z" fill="#fff" stroke="#000" stroke-linecap="round" stroke-width="3px"/><path d="m259.7 986.32h-165.42c-4.314-0.183-7.61-1.717-10.062-4.371v20.803c0 3.13 7.889 10.88 10.062 10.88h165.42v-27.312z" fill="#fff" stroke="#000" stroke-linecap="round" stroke-width="3px"/><g transform="matrix(-1 0 0 1 1327.4 0)"><path d="m259.7 986.32h-165.42c-4.314-0.183-7.61-1.717-10.062-4.371v20.803c0 3.13 7.889 10.88 10.062 10.88h165.42v-27.312z" fill="#fff" stroke="#000" stroke-linecap="round" stroke-width="3px"/></g></g><g id="QSS"><path d="m1223.3 928.48c0-5.253-4.26-9.518-9.51-9.518h-98.91c-5.26 0-9.52 4.265-9.52 9.518v44.481c0 5.253 4.26 9.517 9.52 9.517h98.91c5.25 0 9.51-4.264 9.51-9.517v-44.481z" fill="#40c82b" stroke="#000" stroke-linecap="round" stroke-width=".65px"/><g transform="matrix(1.3386 0 0 1.3386 -401.7 -321.17)"><g id="wifi-rechts" transform="matrix(-.70468 3.9924e-16 -3.9924e-16 -.70468 2013.7 1607)"><g transform="matrix(-1.4191 -8.0399e-16 8.0399e-16 -1.4191 2871.8 2280.4)"><path d="m1202.7 930.36 4.46-1.834c3.52 5.355 3.6 10.804 0 16.626l-4.46-1.793c2.81-4.552 2.74-8.812 0-12.999" fill="#fcfcfc" stroke="#fcfcfc" stroke-linecap="round" stroke-width=".49px"/></g><g transform="matrix(1.2227 0 0 1.1386 -262.48 -131.91)"><path d="m1165 941.73c-3.99 6.46-3.9 12.505 0 18.447" fill="none" stroke="#000" stroke-linecap="round" stroke-width=".58px"/></g><g transform="matrix(1.2802 0 0 1.279 -332.77 -265.28)"><path d="m1165 941.73c-3.99 6.46-3.9 12.505 0 18.447" fill="none" stroke="#000" stroke-linecap="round" stroke-width=".54px"/></g><path d="m1165 941.73c-3.99 6.46-3.9 12.505 0 18.447" fill="none" stroke="#000" stroke-linecap="round" stroke-width=".69px"/></g><g id="wifi-rechts1" transform="matrix(.70468 0 0 .70468 363.28 266.69)"><g transform="matrix(-1.4191 -8.0399e-16 8.0399e-16 -1.4191 2871.8 2280.4)"><path d="m1202.7 930.36 4.46-1.834c3.52 5.355 3.6 10.804 0 16.626l-4.46-1.793c2.81-4.552 2.74-8.812 0-12.999" fill="#fcfcfc" stroke="#fcfcfc" stroke-linecap="round" stroke-width=".49px"/></g><g transform="matrix(1.2227 0 0 1.1386 -262.48 -131.91)"><path d="m1165 941.73c-3.99 6.46-3.9 12.505 0 18.447" fill="none" stroke="#000" stroke-linecap="round" stroke-width=".58px"/></g><g transform="matrix(1.2802 0 0 1.279 -332.77 -265.28)"><path d="m1165 941.73c-3.99 6.46-3.9 12.505 0 18.447" fill="none" stroke="#000" stroke-linecap="round" stroke-width=".54px"/></g><path d="m1165 941.73c-3.99 6.46-3.9 12.505 0 18.447" fill="none" stroke="#000" stroke-linecap="round" stroke-width=".69px"/></g><path d="m1204.8 962.35c0-1.653-1.34-2.995-2.99-2.995h-32.17c-1.65 0-2.99 1.342-2.99 2.995v5.988c0 1.652 1.34 2.994 2.99 2.994h32.17c1.65 0 2.99-1.342 2.99-2.994v-5.988z" stroke="#000" stroke-width=".37px"/><g transform="translate(-28.981 6.7897)"><g transform="matrix(1.15 0 0 .95 -179.39 47.517)" fill="#fff" fill-rule="nonzero" stroke="#313131" stroke-width=".28px"><path d="m1196.9 950.34-0.86-8.643h1.74l0.2 3.299c0.02 0.289 0.04 0.607 0.05 0.952 0.01 0.346 0.03 0.845 0.05 1.497h0.06c0.03-0.386 0.05-0.749 0.08-1.087 0.03-0.337 0.06-0.622 0.09-0.852l0.45-3.809h1.83l0.36 4.078c0 0.067 0.02 0.291 0.05 0.671 0.03 0.381 0.06 0.714 0.08 0.999h0.06c0.01-0.476 0.03-0.918 0.05-1.324 0.03-0.406 0.05-0.799 0.08-1.178l0.27-3.246h1.45l-0.94 8.643h-1.99l-0.43-4.635c-0.02-0.164-0.03-0.354-0.05-0.571-0.01-0.217-0.02-0.497-0.03-0.841h-0.07l-0.61 6.047h-1.97z"/><path d="m1203.4 950.34v-6.914h1.52v6.914h-1.52zm0-7.33v-1.313h1.52v1.313h-1.52z"/><path d="m1205.5 950.34v-6.914h1.5v0.58h0.02c0.13-0.242 0.28-0.421 0.46-0.536s0.39-0.173 0.63-0.173c0.33 0 0.58 0.099 0.75 0.296 0.16 0.197 0.25 0.491 0.25 0.882v2.672h-1.54v-2.168c0-0.161-0.02-0.269-0.06-0.326-0.04-0.056-0.11-0.085-0.22-0.085-0.09 0-0.16 0.034-0.2 0.1-0.05 0.066-0.07 0.17-0.07 0.311v5.361h-1.52z"/><path d="m1211.2 944.76v1.306h0.55v-1.306c0-0.153-0.02-0.261-0.06-0.325-0.05-0.065-0.12-0.097-0.21-0.097-0.1 0-0.17 0.032-0.21 0.097-0.05 0.064-0.07 0.172-0.07 0.325zm0 4.183c0 0.153 0.02 0.261 0.07 0.326 0.04 0.064 0.11 0.096 0.21 0.096 0.09 0 0.16-0.032 0.21-0.096 0.04-0.065 0.06-0.173 0.06-0.326v-1.295h1.53v1.284c0 0.5-0.16 0.887-0.48 1.163-0.31 0.275-0.75 0.413-1.32 0.413-0.65 0-1.11-0.149-1.39-0.445-0.27-0.297-0.41-0.805-0.41-1.524v-3.31c0-0.727 0.13-1.237 0.41-1.53 0.27-0.293 0.73-0.439 1.37-0.439 0.57 0 1.01 0.132 1.34 0.395 0.32 0.264 0.48 0.628 0.48 1.093v2.35h-2.08v1.845z"/></g><g transform="matrix(.55 0 0 .95 547.24 47.517)"><rect x="1216.7" y="928.73" width="3.809" height="21.606" fill="#fff" fill-rule="nonzero" stroke="#313131" stroke-width=".38px"/></g><g transform="matrix(1.15 0 0 .95 -182.83 47.517)" fill="#fff" fill-rule="nonzero" stroke="#313131" stroke-width=".28px"><path d="m1220.6 944.76v1.306h0.55v-1.306c0-0.153-0.02-0.261-0.06-0.325-0.04-0.065-0.11-0.097-0.21-0.097s-0.17 0.032-0.21 0.097c-0.05 0.064-0.07 0.172-0.07 0.325zm0 4.183c0 0.153 0.02 0.261 0.07 0.326 0.04 0.064 0.11 0.096 0.21 0.096s0.17-0.032 0.21-0.096c0.04-0.065 0.06-0.173 0.06-0.326v-1.295h1.53v1.284c0 0.5-0.16 0.887-0.47 1.163-0.32 0.275-0.76 0.413-1.33 0.413-0.64 0-1.11-0.149-1.38-0.445-0.28-0.297-0.42-0.805-0.42-1.524v-3.31c0-0.727 0.14-1.237 0.41-1.53s0.73-0.439 1.38-0.439c0.56 0 1.01 0.132 1.33 0.395 0.32 0.264 0.48 0.628 0.48 1.093v2.35h-2.08v1.845z"/><path d="m1226.8 948.91c0 0.516-0.15 0.911-0.46 1.187-0.31 0.275-0.76 0.413-1.34 0.413-0.57 0-1.01-0.139-1.33-0.416s-0.48-0.664-0.48-1.16v-1.284h1.54v1.295c0 0.153 0.02 0.261 0.06 0.326 0.04 0.064 0.12 0.096 0.21 0.096 0.1 0 0.17-0.032 0.21-0.096 0.05-0.065 0.07-0.173 0.07-0.326v-0.621c0-0.281-0.26-0.625-0.76-1.031-0.11-0.086-0.2-0.154-0.26-0.205l-0.01-0.012c-0.71-0.582-1.06-1.166-1.06-1.752v-0.615c0-0.457 0.16-0.812 0.48-1.066 0.31-0.254 0.75-0.381 1.32-0.381 0.58 0 1.02 0.133 1.34 0.398 0.31 0.266 0.47 0.641 0.47 1.125v1.055h-1.52v-1.078c0-0.153-0.02-0.261-0.07-0.325-0.04-0.065-0.11-0.097-0.21-0.097-0.09 0-0.17 0.032-0.21 0.097-0.04 0.064-0.06 0.172-0.06 0.325v0.369c0 0.312 0.24 0.656 0.73 1.031 0.11 0.086 0.2 0.155 0.26 0.205 0.48 0.387 0.78 0.689 0.9 0.906 0.12 0.216 0.18 0.499 0.18 0.846v0.791z"/><path d="m1230.8 948.91c0 0.516-0.16 0.911-0.47 1.187-0.3 0.275-0.75 0.413-1.33 0.413-0.57 0-1.02-0.139-1.33-0.416-0.32-0.277-0.48-0.664-0.48-1.16v-1.284h1.53v1.295c0 0.153 0.02 0.261 0.07 0.326 0.04 0.064 0.11 0.096 0.21 0.096s0.17-0.032 0.21-0.096c0.04-0.065 0.06-0.173 0.06-0.326v-0.621c0-0.281-0.25-0.625-0.76-1.031-0.11-0.086-0.19-0.154-0.26-0.205l-0.01-0.012c-0.7-0.582-1.05-1.166-1.05-1.752v-0.615c0-0.457 0.16-0.812 0.47-1.066 0.32-0.254 0.76-0.381 1.33-0.381s1.02 0.133 1.33 0.398c0.32 0.266 0.48 0.641 0.48 1.125v1.055h-1.53v-1.078c0-0.153-0.02-0.261-0.06-0.325-0.04-0.065-0.11-0.097-0.21-0.097s-0.17 0.032-0.21 0.097c-0.05 0.064-0.07 0.172-0.07 0.325v0.369c0 0.312 0.25 0.656 0.73 1.031 0.12 0.086 0.21 0.155 0.27 0.205 0.48 0.387 0.78 0.689 0.9 0.906 0.12 0.216 0.18 0.499 0.18 0.846v0.791z"/></g><g transform="matrix(1.15 0 0 .95 -180.3 48.117)" fill="#fff" fill-rule="nonzero" stroke="#313131" stroke-width=".28px"><path d="m1202.2 955.74c0-0.804 0.16-1.378 0.47-1.719 0.32-0.342 0.83-0.513 1.55-0.513s1.23 0.169 1.55 0.507c0.31 0.338 0.47 0.913 0.47 1.725v4.559c0 0.808-0.16 1.383-0.47 1.723-0.31 0.339-0.83 0.509-1.55 0.509s-1.24-0.17-1.55-0.509c-0.31-0.34-0.47-0.915-0.47-1.723v-4.559zm1.73-0.58v5.643c0 0.152 0.03 0.261 0.07 0.325 0.05 0.064 0.12 0.097 0.22 0.097 0.11 0 0.19-0.034 0.23-0.1 0.05-0.066 0.07-0.174 0.07-0.322v-5.643c0-0.152-0.02-0.26-0.07-0.322-0.04-0.063-0.12-0.094-0.23-0.094-0.1 0-0.17 0.033-0.22 0.1-0.04 0.066-0.07 0.172-0.07 0.316z"/><path d="m1206.7 962.34v-6.914h1.5v0.58h0.02c0.13-0.242 0.29-0.421 0.46-0.536 0.18-0.115 0.39-0.173 0.63-0.173 0.33 0 0.58 0.099 0.75 0.296s0.25 0.491 0.25 0.882v5.865h-1.54v-5.361c0-0.161-0.02-0.269-0.06-0.326-0.04-0.056-0.11-0.085-0.21-0.085s-0.17 0.034-0.21 0.1c-0.05 0.066-0.07 0.17-0.07 0.311v5.361h-1.52z"/><path d="m1211.7 963.45h-0.89l1.9-9.943h0.88l-1.89 9.943z"/><path d="m1214.1 955.74c0-0.804 0.16-1.378 0.47-1.719 0.31-0.342 0.83-0.513 1.54-0.513 0.72 0 1.24 0.169 1.55 0.507s0.47 0.913 0.47 1.725v4.559c0 0.808-0.15 1.383-0.47 1.723-0.31 0.339-0.82 0.509-1.55 0.509-0.72 0-1.24-0.17-1.54-0.509-0.32-0.34-0.47-0.915-0.47-1.723v-4.559zm1.73-0.58v5.643c0 0.152 0.02 0.261 0.06 0.325 0.05 0.064 0.12 0.097 0.22 0.097 0.11 0 0.19-0.034 0.24-0.1 0.04-0.066 0.06-0.174 0.06-0.322v-5.643c0-0.152-0.02-0.26-0.06-0.322-0.05-0.063-0.13-0.094-0.24-0.094-0.1 0-0.17 0.033-0.22 0.1-0.04 0.066-0.06 0.172-0.06 0.316z"/><path d="m1218.9 962.34v-5.818h-0.37v-1.096h0.37v-0.656c0-0.336 0.1-0.599 0.31-0.788 0.2-0.19 0.48-0.285 0.85-0.285h0.86v1.084c-0.18 0-0.31 0.021-0.38 0.062-0.08 0.041-0.11 0.112-0.11 0.214v0.369h0.49v1.096h-0.49v5.818h-1.53z"/><path d="m1221.4 962.34v-5.818h-0.37v-1.096h0.37v-0.656c0-0.336 0.11-0.599 0.31-0.788 0.2-0.19 0.48-0.285 0.85-0.285h0.86v1.084c-0.18 0-0.31 0.021-0.38 0.062-0.08 0.041-0.11 0.112-0.11 0.214v0.369h0.49v1.096h-0.49v5.818h-1.53z"/></g></g></g><g id="ON-off" transform="matrix(1.1745 0 0 1.1745 753.45 -223.96)"><g transform="translate(-.62752 .35555)"><ellipse cx="321.8" cy="999.85" rx="16.795" ry="16.434" fill="#48484a" stroke="#000" stroke-linecap="round" stroke-width=".85px"/></g><g transform="matrix(.76611 0 0 .76611 74.738 234.39)"><ellipse cx="321.8" cy="999.85" rx="16.795" ry="16.434" fill="#48484a" stroke="#000" stroke-linecap="round" stroke-width="2.22px"/></g><g transform="translate(-.094229 .93329)"><path d="m321.38 992.93v13.068" fill="none" stroke="#000" stroke-linecap="round" stroke-width="2.98px"/></g></g></g><path d="m97.426 852.5c-0.643-11.085 1132.9-7.502 1133.6 0" fill="none" stroke="#000" stroke-linecap="round" stroke-width="3px"/></g><g id="Front"><g transform="matrix(1.0033 0 0 1.0292 -2.4187 -29.468)"><path d="m1077.9 918.63c0-19.461-16.2-35.262-36.17-35.262h-753.31c-19.963 0-36.171 15.801-36.171 35.262v54.798c0 19.461 16.208 35.258 36.171 35.258h753.31c19.97 0 36.17-15.797 36.17-35.258v-54.798z" fill="#333"/></g><path d="m1079.2 966.72c0-10.142-8.23-18.377-18.37-18.377h-791.77c-10.142 0-18.376 8.235-18.376 18.377v36.75c0 10.14 8.234 18.38 18.376 18.38h791.77c10.14 0 18.37-8.24 18.37-18.38v-36.75z" fill="#333"/><g transform="matrix(1 0 0 1.7639 0 -718.18)"><path d="m936.46 944.18c0-2.242-3.211-4.062-7.165-4.062h-523.46c-3.955 0-7.165 1.82-7.165 4.062v2.145c0 2.242 3.21 4.063 7.165 4.063h523.46c3.954 0 7.165-1.821 7.165-4.063v-2.145z" fill="#368123" stroke="#000" stroke-width=".7px"/></g><circle cx="433.52" cy="948.69" r="6.161" fill="#afef9f" stroke="#000" stroke-width=".5px"/><g transform="translate(73.64)"><circle cx="433.52" cy="948.69" r="6.161" fill="#afef9f" stroke="#000" stroke-width=".5px"/></g><g transform="translate(142.38)"><circle cx="433.52" cy="948.69" r="6.161" fill="#afef9f" stroke="#000" stroke-width=".5px"/></g><g transform="translate(205.91)"><circle cx="433.52" cy="948.69" r="6.161" fill="#afef9f" stroke="#000" stroke-width=".5px"/></g><g transform="translate(350.33)"><circle cx="433.52" cy="948.69" r="6.161" fill="#afef9f" stroke="#000" stroke-width=".5px"/></g><g transform="translate(275.44)"><circle cx="433.52" cy="948.69" r="6.161" fill="#afef9f" stroke="#000" stroke-width=".5px"/></g><g transform="translate(315.42)"><circle cx="433.52" cy="948.69" r="6.161" fill="#afef9f" stroke="#000" stroke-width=".5px"/></g><g transform="translate(382.41)"><circle cx="433.52" cy="948.69" r="6.161" fill="#afef9f" stroke="#000" stroke-width=".5px"/></g><g transform="translate(454.82)"><circle cx="433.52" cy="948.69" r="6.161" fill="#afef9f" stroke="#000" stroke-width=".5px"/></g><g transform="matrix(1.0008 0 0 .84432 1.8602 149.75)"><path d="m962.23 946.94c0-8.233-5.64-14.917-12.586-14.917h-572.31c-6.946 0-12.585 6.684-12.585 14.917 0 8.234 5.639 14.918 12.585 14.918h572.31c6.946 0 12.586-6.684 12.586-14.918z" fill="none" stroke="#000" stroke-width=".54px"/></g></g><g id="Beschriftung"><g transform="matrix(.89 0 0 1 97.984 3.9134)" fill="#fcfcfc" fill-rule="nonzero"><path d="m923.72 979.72v-10.101h-3.773v-1.352h9.078v1.352h-3.789v10.101h-1.516z"/><path d="m930.52 979.72v-11.453h1.516v10.102h5.641v1.351h-7.157z"/><rect x="938.75" y="974.87" width="4.32" height="1.414"/><path d="m946.81 979.72-3.039-11.453h1.555l1.742 7.508c0.188 0.786 0.349 1.567 0.485 2.344 0.291-1.224 0.463-1.93 0.515-2.118l2.18-7.734h1.828l1.641 5.797c0.411 1.437 0.708 2.789 0.89 4.055 0.146-0.724 0.336-1.555 0.571-2.493l1.796-7.359h1.524l-3.141 11.453h-1.461l-2.414-8.726c-0.203-0.73-0.323-1.178-0.359-1.344-0.12 0.526-0.232 0.974-0.336 1.344l-2.43 8.726h-1.547z"/><path d="m959.93 979.72v-11.453h5.079c1.02 0 1.796 0.103 2.328 0.309 0.531 0.205 0.955 0.569 1.273 1.089 0.318 0.521 0.477 1.097 0.477 1.727 0 0.812-0.263 1.497-0.789 2.055-0.526 0.557-1.339 0.911-2.438 1.062 0.401 0.193 0.706 0.383 0.914 0.57 0.443 0.407 0.862 0.915 1.258 1.524l1.992 3.117h-1.906l-1.516-2.383c-0.442-0.687-0.807-1.213-1.093-1.578-0.287-0.364-0.543-0.62-0.77-0.765-0.227-0.146-0.457-0.248-0.691-0.305-0.172-0.037-0.454-0.055-0.844-0.055h-1.758v5.086h-1.516zm1.516-6.398h3.258c0.693 0 1.234-0.072 1.625-0.215 0.39-0.143 0.687-0.373 0.89-0.688 0.204-0.315 0.305-0.657 0.305-1.027 0-0.542-0.196-0.987-0.59-1.336-0.393-0.349-1.014-0.523-1.863-0.523h-3.625v3.789z"/><path d="m971.1 977.08 1.352-0.125c0.114 0.635 0.333 1.096 0.656 1.382 0.323 0.287 0.737 0.43 1.242 0.43 0.433 0 0.811-0.099 1.137-0.297s0.592-0.462 0.801-0.793c0.208-0.33 0.383-0.777 0.523-1.34 0.141-0.562 0.211-1.135 0.211-1.718 0-0.063-2e-3 -0.157-8e-3 -0.282-0.281 0.448-0.665 0.812-1.152 1.09-0.487 0.279-1.014 0.418-1.582 0.418-0.948 0-1.75-0.343-2.406-1.031-0.657-0.687-0.985-1.594-0.985-2.719 0-1.161 0.343-2.096 1.028-2.804 0.685-0.709 1.543-1.063 2.574-1.063 0.745 0 1.426 0.201 2.043 0.602s1.086 0.972 1.406 1.714c0.32 0.743 0.481 1.817 0.481 3.223 0 1.464-0.159 2.629-0.477 3.496s-0.79 1.528-1.418 1.981-1.363 0.679-2.207 0.679c-0.896 0-1.628-0.248-2.195-0.746-0.568-0.497-0.909-1.196-1.024-2.097zm5.758-5.055c0-0.807-0.215-1.448-0.644-1.922-0.43-0.474-0.947-0.711-1.551-0.711-0.625 0-1.169 0.255-1.633 0.766-0.464 0.51-0.695 1.172-0.695 1.984 0 0.729 0.22 1.322 0.66 1.777 0.44 0.456 0.983 0.684 1.629 0.684 0.651 0 1.186-0.228 1.605-0.684 0.419-0.455 0.629-1.087 0.629-1.894z"/><path d="m984.3 979.72v-2.742h-4.969v-1.289l5.226-7.422h1.149v7.422h1.547v1.289h-1.547v2.742h-1.406zm0-4.031v-5.164l-3.586 5.164h3.586z"/><path d="m988.69 974.08c0-1.355 0.14-2.444 0.418-3.27 0.279-0.825 0.693-1.462 1.242-1.91 0.55-0.448 1.241-0.672 2.075-0.672 0.614 0 1.153 0.124 1.617 0.371 0.463 0.248 0.846 0.604 1.148 1.07 0.302 0.467 0.539 1.034 0.711 1.704 0.172 0.669 0.258 1.571 0.258 2.707 0 1.343-0.138 2.428-0.414 3.254-0.276 0.825-0.689 1.463-1.238 1.914-0.55 0.45-1.244 0.675-2.082 0.675-1.105 0-1.972-0.395-2.602-1.187-0.755-0.953-1.133-2.505-1.133-4.656zm1.446 0c0 1.88 0.22 3.131 0.66 3.754 0.44 0.622 0.983 0.933 1.629 0.933 0.645 0 1.188-0.312 1.628-0.937 0.441-0.625 0.661-1.875 0.661-3.75 0-1.886-0.22-3.138-0.661-3.758-0.44-0.62-0.988-0.93-1.644-0.93-0.646 0-1.161 0.274-1.547 0.82-0.484 0.698-0.726 1.987-0.726 3.868z"/><path d="m998.14 979.72v-11.453h1.555l6.012 8.992v-8.992h1.46v11.453h-1.56l-6.014-9v9h-1.453z"/></g><g transform="matrix(.89 0 0 1 -504.71 3.5762)" fill="#fcfcfc" fill-rule="nonzero"><path d="m920.24 976.7 1.406-0.188c0.162 0.797 0.436 1.371 0.824 1.723 0.388 0.351 0.861 0.527 1.418 0.527 0.662 0 1.22-0.229 1.676-0.687 0.456-0.459 0.684-1.026 0.684-1.703 0-0.646-0.211-1.179-0.633-1.598s-0.958-0.629-1.609-0.629c-0.266 0-0.597 0.052-0.993 0.156l0.157-1.234c0.093 0.01 0.169 0.015 0.226 0.015 0.599 0 1.138-0.156 1.617-0.468 0.48-0.313 0.719-0.795 0.719-1.446 0-0.515-0.174-0.942-0.523-1.281-0.349-0.338-0.8-0.508-1.352-0.508-0.547 0-1.003 0.172-1.367 0.516-0.365 0.344-0.599 0.859-0.703 1.547l-1.406-0.25c0.171-0.943 0.562-1.673 1.171-2.192 0.61-0.518 1.368-0.777 2.274-0.777 0.625 0 1.2 0.134 1.726 0.402 0.526 0.269 0.929 0.635 1.207 1.098 0.279 0.464 0.418 0.956 0.418 1.477 0 0.494-0.132 0.945-0.398 1.351s-0.659 0.729-1.18 0.969c0.677 0.156 1.203 0.48 1.578 0.973 0.375 0.492 0.563 1.108 0.563 1.847 0 1-0.365 1.848-1.094 2.543-0.729 0.696-1.651 1.043-2.765 1.043-1.006 0-1.84-0.299-2.504-0.898s-1.043-1.375-1.137-2.328z"/><path d="m929.14 974.08c0-1.355 0.139-2.444 0.417-3.27 0.279-0.825 0.693-1.462 1.243-1.91 0.549-0.448 1.241-0.672 2.074-0.672 0.614 0 1.154 0.124 1.617 0.371 0.464 0.248 0.846 0.604 1.149 1.07 0.302 0.467 0.539 1.034 0.71 1.704 0.172 0.669 0.258 1.571 0.258 2.707 0 1.343-0.138 2.428-0.414 3.254-0.276 0.825-0.689 1.463-1.238 1.914-0.55 0.45-1.244 0.675-2.082 0.675-1.104 0-1.971-0.395-2.602-1.187-0.755-0.953-1.132-2.505-1.132-4.656zm1.445 0c0 1.88 0.22 3.131 0.66 3.754 0.44 0.622 0.983 0.933 1.629 0.933s1.189-0.312 1.629-0.937 0.66-1.875 0.66-3.75c0-1.886-0.22-3.138-0.66-3.758s-0.988-0.93-1.645-0.93c-0.646 0-1.161 0.274-1.547 0.82-0.484 0.698-0.726 1.987-0.726 3.868z"/><path d="m938.03 974.08c0-1.355 0.139-2.444 0.418-3.27 0.279-0.825 0.693-1.462 1.242-1.91 0.55-0.448 1.241-0.672 2.074-0.672 0.615 0 1.154 0.124 1.618 0.371 0.463 0.248 0.846 0.604 1.148 1.07 0.302 0.467 0.539 1.034 0.711 1.704 0.172 0.669 0.258 1.571 0.258 2.707 0 1.343-0.138 2.428-0.414 3.254-0.276 0.825-0.689 1.463-1.239 1.914-0.549 0.45-1.243 0.675-2.082 0.675-1.104 0-1.971-0.395-2.601-1.187-0.755-0.953-1.133-2.505-1.133-4.656zm1.445 0c0 1.88 0.22 3.131 0.66 3.754 0.441 0.622 0.984 0.933 1.629 0.933 0.646 0 1.189-0.312 1.629-0.937s0.66-1.875 0.66-3.75c0-1.886-0.22-3.138-0.66-3.758s-0.988-0.93-1.644-0.93c-0.646 0-1.162 0.274-1.547 0.82-0.485 0.698-0.727 1.987-0.727 3.868z"/><path d="m947.46 979.72v-11.453h2.281l2.711 8.109c0.25 0.756 0.432 1.321 0.547 1.696 0.13-0.417 0.333-1.029 0.609-1.836l2.742-7.969h2.04v11.453h-1.461v-9.586l-3.329 9.586h-1.367l-3.312-9.75v9.75h-1.461z"/><path d="m961.95 979.72h-1.305v-11.453h1.407v4.086c0.593-0.745 1.351-1.117 2.273-1.117 0.51 0 0.994 0.103 1.449 0.308 0.456 0.206 0.831 0.495 1.125 0.867 0.295 0.373 0.525 0.822 0.692 1.348 0.166 0.526 0.25 1.089 0.25 1.688 0 1.422-0.352 2.52-1.055 3.297-0.703 0.776-1.547 1.164-2.531 1.164-0.979 0-1.748-0.409-2.305-1.227v1.039zm-0.016-4.211c0 0.995 0.136 1.714 0.407 2.156 0.442 0.724 1.041 1.086 1.797 1.086 0.614 0 1.145-0.267 1.593-0.8 0.448-0.534 0.672-1.33 0.672-2.387 0-1.083-0.215-1.883-0.644-2.399-0.43-0.515-0.95-0.773-1.559-0.773-0.615 0-1.146 0.267-1.594 0.801s-0.672 1.306-0.672 2.316z"/><path d="m969.55 982.9v-11.477h1.281v1.078c0.302-0.422 0.643-0.738 1.023-0.949s0.841-0.316 1.383-0.316c0.708 0 1.333 0.182 1.875 0.547 0.542 0.364 0.951 0.878 1.227 1.543 0.276 0.664 0.414 1.391 0.414 2.183 0 0.849-0.153 1.613-0.457 2.293-0.305 0.68-0.748 1.201-1.328 1.563-0.581 0.362-1.192 0.543-1.832 0.543-0.469 0-0.89-0.099-1.262-0.297-0.373-0.198-0.679-0.448-0.918-0.75v4.039h-1.406zm1.273-7.281c0 1.067 0.216 1.856 0.648 2.367 0.433 0.51 0.956 0.765 1.571 0.765 0.625 0 1.16-0.264 1.605-0.793 0.446-0.528 0.668-1.347 0.668-2.457 0-1.057-0.217-1.849-0.652-2.375s-0.955-0.789-1.559-0.789c-0.599 0-1.129 0.28-1.59 0.84s-0.691 1.374-0.691 2.442z"/><path d="m977.89 977.25 1.39-0.219c0.078 0.557 0.296 0.984 0.652 1.281 0.357 0.297 0.856 0.445 1.497 0.445 0.645 0 1.125-0.131 1.437-0.394 0.313-0.263 0.469-0.572 0.469-0.926 0-0.318-0.138-0.568-0.414-0.75-0.193-0.125-0.672-0.284-1.438-0.477-1.031-0.26-1.746-0.485-2.144-0.675-0.399-0.19-0.701-0.453-0.907-0.789-0.205-0.336-0.308-0.707-0.308-1.114 0-0.369 0.085-0.712 0.254-1.027s0.4-0.577 0.691-0.785c0.219-0.162 0.517-0.298 0.895-0.41 0.377-0.112 0.782-0.168 1.215-0.168 0.651 0 1.222 0.093 1.714 0.281 0.493 0.187 0.856 0.441 1.09 0.762 0.235 0.32 0.396 0.748 0.485 1.285l-1.375 0.187c-0.063-0.427-0.244-0.76-0.543-1-0.3-0.239-0.723-0.359-1.27-0.359-0.646 0-1.107 0.107-1.383 0.32-0.276 0.214-0.414 0.464-0.414 0.75 0 0.183 0.058 0.347 0.172 0.492 0.115 0.152 0.294 0.277 0.539 0.375 0.141 0.053 0.555 0.172 1.242 0.36 0.995 0.265 1.689 0.483 2.082 0.652 0.394 0.169 0.702 0.416 0.926 0.738 0.224 0.323 0.336 0.724 0.336 1.204 0 0.468-0.137 0.91-0.41 1.324s-0.668 0.734-1.184 0.961c-0.515 0.226-1.099 0.34-1.75 0.34-1.078 0-1.899-0.224-2.464-0.672-0.566-0.448-0.926-1.112-1.082-1.992z"/><path d="m993.07 979.72-3.039-11.453h1.555l1.742 7.508c0.187 0.786 0.349 1.567 0.484 2.344 0.292-1.224 0.464-1.93 0.516-2.118l2.18-7.734h1.828l1.64 5.797c0.411 1.437 0.711 2.789 0.891 4.055 0.15-0.724 0.34-1.555 0.57-2.493l1.8-7.359h1.52l-3.14 11.453h-1.46l-2.415-8.726c-0.203-0.73-0.323-1.178-0.359-1.344-0.12 0.526-0.232 0.974-0.336 1.344l-2.43 8.726h-1.547z"/><path d="m1006 969.89v-1.617h1.41v1.617h-1.41zm0 9.836v-8.297h1.41v8.297h-1.41z"/><path d="m1009.5 979.72v-8.297h1.27v1.258c0.32-0.589 0.62-0.977 0.89-1.164 0.28-0.188 0.58-0.281 0.91-0.281 0.47 0 0.95 0.151 1.44 0.453l-0.48 1.305c-0.35-0.204-0.69-0.305-1.03-0.305-0.31 0-0.59 0.092-0.83 0.277-0.25 0.185-0.42 0.442-0.52 0.77-0.16 0.5-0.24 1.047-0.24 1.64v4.344h-1.41z"/><path d="m1020.6 977.05 1.45 0.18c-0.23 0.849-0.65 1.508-1.27 1.976-0.62 0.469-1.41 0.704-2.38 0.704-1.21 0-2.17-0.374-2.88-1.122-0.72-0.747-1.07-1.795-1.07-3.144 0-1.396 0.36-2.479 1.08-3.25s1.65-1.156 2.79-1.156c1.11 0 2.02 0.377 2.72 1.133 0.71 0.755 1.06 1.817 1.06 3.187 0 0.083 0 0.208-0.01 0.375h-6.19c0.05 0.911 0.31 1.609 0.78 2.094 0.46 0.484 1.04 0.726 1.73 0.726 0.52 0 0.96-0.135 1.32-0.406 0.37-0.271 0.65-0.703 0.87-1.297zm-4.62-2.273h4.63c-0.06-0.698-0.24-1.222-0.53-1.571-0.45-0.541-1.03-0.812-1.74-0.812-0.65 0-1.19 0.216-1.63 0.648-0.44 0.433-0.68 1.011-0.73 1.735z"/><rect x="1023.8" y="968.27" width="1.406" height="11.453"/><path d="m1033 977.05 1.45 0.18c-0.23 0.849-0.65 1.508-1.27 1.976-0.62 0.469-1.41 0.704-2.37 0.704-1.22 0-2.18-0.374-2.89-1.122-0.71-0.747-1.07-1.795-1.07-3.144 0-1.396 0.36-2.479 1.08-3.25s1.65-1.156 2.8-1.156c1.11 0 2.01 0.377 2.72 1.133 0.7 0.755 1.05 1.817 1.05 3.187 0 0.083 0 0.208-0.01 0.375h-6.18c0.05 0.911 0.3 1.609 0.77 2.094 0.46 0.484 1.04 0.726 1.73 0.726 0.52 0 0.96-0.135 1.32-0.406 0.37-0.271 0.66-0.703 0.87-1.297zm-4.62-2.273h4.64c-0.07-0.698-0.24-1.222-0.53-1.571-0.45-0.541-1.03-0.812-1.75-0.812-0.64 0-1.19 0.216-1.63 0.648-0.44 0.433-0.68 1.011-0.73 1.735z"/><path d="m1035.7 977.25 1.39-0.219c0.08 0.557 0.29 0.984 0.65 1.281s0.86 0.445 1.5 0.445 1.12-0.131 1.43-0.394c0.32-0.263 0.47-0.572 0.47-0.926 0-0.318-0.14-0.568-0.41-0.75-0.19-0.125-0.67-0.284-1.44-0.477-1.03-0.26-1.75-0.485-2.14-0.675-0.4-0.19-0.71-0.453-0.91-0.789-0.21-0.336-0.31-0.707-0.31-1.114 0-0.369 0.09-0.712 0.25-1.027 0.17-0.315 0.41-0.577 0.7-0.785 0.22-0.162 0.51-0.298 0.89-0.41s0.78-0.168 1.22-0.168c0.65 0 1.22 0.093 1.71 0.281 0.49 0.187 0.86 0.441 1.09 0.762 0.24 0.32 0.4 0.748 0.49 1.285l-1.38 0.187c-0.06-0.427-0.24-0.76-0.54-1-0.3-0.239-0.73-0.359-1.27-0.359-0.65 0-1.11 0.107-1.39 0.32-0.27 0.214-0.41 0.464-0.41 0.75 0 0.183 0.06 0.347 0.17 0.492 0.12 0.152 0.3 0.277 0.54 0.375 0.14 0.053 0.56 0.172 1.24 0.36 1 0.265 1.69 0.483 2.09 0.652 0.39 0.169 0.7 0.416 0.92 0.738 0.22 0.323 0.34 0.724 0.34 1.204 0 0.468-0.14 0.91-0.41 1.324-0.28 0.414-0.67 0.734-1.19 0.961-0.51 0.226-1.09 0.34-1.75 0.34-1.07 0-1.9-0.224-2.46-0.672-0.57-0.448-0.93-1.112-1.08-1.992z"/><path d="m1043.7 977.25 1.39-0.219c0.08 0.557 0.29 0.984 0.65 1.281s0.86 0.445 1.5 0.445 1.12-0.131 1.43-0.394c0.32-0.263 0.47-0.572 0.47-0.926 0-0.318-0.14-0.568-0.41-0.75-0.19-0.125-0.67-0.284-1.44-0.477-1.03-0.26-1.75-0.485-2.14-0.675-0.4-0.19-0.71-0.453-0.91-0.789-0.21-0.336-0.31-0.707-0.31-1.114 0-0.369 0.09-0.712 0.25-1.027 0.17-0.315 0.41-0.577 0.7-0.785 0.22-0.162 0.51-0.298 0.89-0.41s0.78-0.168 1.22-0.168c0.65 0 1.22 0.093 1.71 0.281 0.49 0.187 0.86 0.441 1.09 0.762 0.24 0.32 0.4 0.748 0.49 1.285l-1.38 0.187c-0.06-0.427-0.24-0.76-0.54-1-0.3-0.239-0.73-0.359-1.27-0.359-0.65 0-1.11 0.107-1.39 0.32-0.27 0.214-0.41 0.464-0.41 0.75 0 0.183 0.06 0.347 0.17 0.492 0.12 0.152 0.3 0.277 0.54 0.375 0.14 0.053 0.56 0.172 1.24 0.36 1 0.265 1.69 0.483 2.09 0.652 0.39 0.169 0.7 0.416 0.92 0.738 0.22 0.323 0.34 0.724 0.34 1.204 0 0.468-0.14 0.91-0.41 1.324-0.28 0.414-0.67 0.734-1.19 0.961-0.51 0.226-1.09 0.34-1.75 0.34-1.07 0-1.9-0.224-2.46-0.672-0.57-0.448-0.93-1.112-1.08-1.992z"/><path d="m1056.8 979.72v-11.453h1.55l6.02 8.992v-8.992h1.45v11.453h-1.55l-6.02-9v9h-1.45z"/><path d="m1072.9 979.72v-11.453h5.08c1.02 0 1.79 0.103 2.32 0.309 0.54 0.205 0.96 0.569 1.28 1.089 0.32 0.521 0.47 1.097 0.47 1.727 0 0.812-0.26 1.497-0.78 2.055-0.53 0.557-1.34 0.911-2.44 1.062 0.4 0.193 0.7 0.383 0.91 0.57 0.44 0.407 0.86 0.915 1.26 1.524l1.99 3.117h-1.9l-1.52-2.383c-0.44-0.687-0.81-1.213-1.09-1.578-0.29-0.364-0.55-0.62-0.77-0.765-0.23-0.146-0.46-0.248-0.69-0.305-0.18-0.037-0.46-0.055-0.85-0.055h-1.76v5.086h-1.51zm1.51-6.398h3.26c0.69 0 1.24-0.072 1.63-0.215s0.68-0.373 0.89-0.688c0.2-0.315 0.3-0.657 0.3-1.027 0-0.542-0.19-0.987-0.59-1.336-0.39-0.349-1.01-0.523-1.86-0.523h-3.63v3.789z"/><path d="m1083.7 975.58c0-1.537 0.42-2.675 1.28-3.414 0.71-0.615 1.58-0.922 2.61-0.922 1.14 0 2.07 0.373 2.79 1.121 0.73 0.747 1.09 1.78 1.09 3.097 0 1.068-0.16 1.908-0.48 2.52s-0.79 1.087-1.4 1.426c-0.61 0.338-1.28 0.508-2 0.508-1.17 0-2.1-0.373-2.82-1.118-0.72-0.744-1.07-1.817-1.07-3.218zm1.44 0c0 1.062 0.23 1.858 0.7 2.386 0.46 0.529 1.04 0.793 1.75 0.793 0.69 0 1.28-0.265 1.74-0.797 0.46-0.531 0.69-1.341 0.69-2.429 0-1.026-0.23-1.804-0.69-2.332-0.47-0.529-1.05-0.793-1.74-0.793-0.71 0-1.29 0.263-1.75 0.789-0.47 0.526-0.7 1.32-0.7 2.383z"/><path d="m1098.6 979.72v-1.219c-0.65 0.938-1.53 1.407-2.64 1.407-0.49 0-0.94-0.094-1.37-0.282-0.42-0.187-0.74-0.423-0.94-0.707-0.21-0.284-0.35-0.631-0.44-1.043-0.06-0.276-0.08-0.713-0.08-1.312v-5.141h1.4v4.602c0 0.734 0.03 1.229 0.09 1.484 0.09 0.37 0.28 0.66 0.56 0.871 0.29 0.211 0.64 0.317 1.06 0.317 0.43 0 0.82-0.108 1.19-0.325 0.37-0.216 0.63-0.51 0.79-0.882 0.15-0.373 0.23-0.913 0.23-1.621v-4.446h1.4v8.297h-1.25z"/><path d="m1105.1 978.47 0.2 1.242c-0.4 0.084-0.75 0.125-1.06 0.125-0.51 0-0.91-0.08-1.19-0.242-0.28-0.161-0.48-0.373-0.59-0.636-0.12-0.263-0.18-0.817-0.18-1.661v-4.773h-1.03v-1.094h1.03v-2.054l1.4-0.844v2.898h1.42v1.094h-1.42v4.852c0 0.401 0.03 0.658 0.08 0.773s0.13 0.206 0.24 0.273c0.11 0.068 0.27 0.102 0.48 0.102 0.16 0 0.36-0.018 0.62-0.055z"/><path d="m1112.2 977.05 1.45 0.18c-0.22 0.849-0.65 1.508-1.27 1.976-0.62 0.469-1.41 0.704-2.37 0.704-1.22 0-2.18-0.374-2.89-1.122-0.71-0.747-1.07-1.795-1.07-3.144 0-1.396 0.36-2.479 1.08-3.25s1.65-1.156 2.8-1.156c1.11 0 2.01 0.377 2.72 1.133 0.7 0.755 1.05 1.817 1.05 3.187 0 0.083 0 0.208-0.01 0.375h-6.18c0.05 0.911 0.31 1.609 0.77 2.094 0.46 0.484 1.04 0.726 1.73 0.726 0.52 0 0.96-0.135 1.32-0.406 0.37-0.271 0.66-0.703 0.87-1.297zm-4.62-2.273h4.64c-0.07-0.698-0.24-1.222-0.53-1.571-0.45-0.541-1.03-0.812-1.75-0.812-0.64 0-1.19 0.216-1.63 0.648-0.44 0.433-0.68 1.011-0.73 1.735z"/><path d="m1115.4 979.72v-8.297h1.27v1.258c0.32-0.589 0.62-0.977 0.89-1.164 0.28-0.188 0.58-0.281 0.91-0.281 0.47 0 0.95 0.151 1.44 0.453l-0.48 1.305c-0.35-0.204-0.69-0.305-1.03-0.305-0.31 0-0.59 0.092-0.83 0.277-0.25 0.185-0.42 0.442-0.52 0.77-0.16 0.5-0.24 1.047-0.24 1.64v4.344h-1.41z"/></g><g transform="matrix(.89 0 0 1 -401.46 -51.322)" fill="#fcfcfc" fill-rule="nonzero"><path d="m920.58 979.72v-9.306h3.51c0.618 0 1.09 0.03 1.416 0.089 0.457 0.076 0.84 0.221 1.149 0.435s0.557 0.513 0.746 0.898c0.188 0.385 0.282 0.809 0.282 1.27 0 0.791-0.252 1.461-0.755 2.009-0.504 0.548-1.414 0.822-2.73 0.822h-2.387v3.783h-1.231zm1.231-4.881h2.406c0.796 0 1.361-0.148 1.695-0.445 0.334-0.296 0.501-0.713 0.501-1.25 0-0.389-0.098-0.723-0.295-1-0.196-0.277-0.456-0.46-0.777-0.549-0.208-0.055-0.591-0.082-1.149-0.082h-2.381v3.326z"/><path d="m930.87 979.72-2.469-9.306h1.263l1.415 6.101c0.153 0.639 0.284 1.273 0.394 1.904 0.237-0.995 0.377-1.568 0.419-1.72l1.771-6.285h1.485l1.333 4.71c0.334 1.168 0.576 2.266 0.724 3.295 0.118-0.588 0.273-1.263 0.463-2.025l1.46-5.98h1.238l-2.552 9.306h-1.187l-1.961-7.09c-0.165-0.593-0.263-0.957-0.292-1.092-0.098 0.427-0.189 0.791-0.273 1.092l-1.974 7.09h-1.257z"/><path d="m941.54 979.72v-9.306h4.126c0.829 0 1.46 0.084 1.891 0.251 0.432 0.167 0.777 0.462 1.035 0.886 0.258 0.423 0.387 0.89 0.387 1.402 0 0.661-0.213 1.217-0.641 1.67-0.427 0.453-1.087 0.74-1.98 0.863 0.326 0.157 0.573 0.311 0.742 0.464 0.36 0.33 0.701 0.742 1.022 1.237l1.619 2.533h-1.549l-1.231-1.936c-0.36-0.559-0.656-0.986-0.889-1.282s-0.441-0.504-0.625-0.622c-0.184-0.119-0.371-0.201-0.562-0.248-0.14-0.029-0.368-0.044-0.685-0.044h-1.429v4.132h-1.231zm1.231-5.199h2.647c0.563 0 1.003-0.058 1.321-0.174 0.317-0.117 0.558-0.303 0.723-0.559s0.248-0.534 0.248-0.835c0-0.44-0.16-0.801-0.479-1.085-0.32-0.283-0.825-0.425-1.514-0.425h-2.946v3.078z"/><path d="m1001.1 976.74 1.16-0.101c0.05 0.465 0.18 0.847 0.38 1.146 0.2 0.298 0.52 0.539 0.94 0.723s0.9 0.276 1.43 0.276c0.47 0 0.88-0.07 1.24-0.209 0.36-0.14 0.63-0.331 0.8-0.575 0.18-0.243 0.27-0.509 0.27-0.796 0-0.292-0.09-0.547-0.26-0.765s-0.45-0.401-0.83-0.549c-0.25-0.098-0.81-0.249-1.66-0.454-0.86-0.205-1.46-0.399-1.8-0.581-0.44-0.233-0.77-0.521-0.99-0.866s-0.33-0.731-0.33-1.159c0-0.47 0.14-0.909 0.4-1.317 0.27-0.408 0.66-0.718 1.17-0.93 0.51-0.211 1.08-0.317 1.71-0.317 0.69 0 1.3 0.111 1.82 0.333 0.53 0.222 0.93 0.549 1.22 0.981 0.28 0.431 0.43 0.92 0.45 1.466l-1.18 0.089c-0.06-0.588-0.27-1.033-0.64-1.333-0.37-0.301-0.91-0.451-1.62-0.451-0.75 0-1.29 0.137-1.63 0.41s-0.51 0.602-0.51 0.987c0 0.334 0.12 0.609 0.36 0.825s0.86 0.437 1.86 0.663c1 0.227 1.68 0.424 2.06 0.594 0.54 0.249 0.94 0.566 1.2 0.949s0.38 0.824 0.38 1.323c0 0.495-0.14 0.962-0.42 1.4-0.29 0.438-0.69 0.778-1.22 1.022-0.54 0.243-1.13 0.365-1.8 0.365-0.84 0-1.54-0.123-2.11-0.368-0.57-0.246-1.02-0.615-1.34-1.108-0.33-0.493-0.5-1.051-0.51-1.673z"/><path d="m1012.8 979.72v-3.942l-3.59-5.364h1.5l1.83 2.806c0.34 0.525 0.66 1.05 0.95 1.574 0.28-0.486 0.62-1.034 1.02-1.644l1.8-2.736h1.43l-3.71 5.364v3.942h-1.23z"/><path d="m1018.4 976.74 1.16-0.101c0.05 0.465 0.18 0.847 0.38 1.146 0.2 0.298 0.52 0.539 0.94 0.723s0.9 0.276 1.43 0.276c0.47 0 0.88-0.07 1.24-0.209 0.36-0.14 0.63-0.331 0.81-0.575 0.17-0.243 0.26-0.509 0.26-0.796 0-0.292-0.09-0.547-0.26-0.765s-0.44-0.401-0.83-0.549c-0.25-0.098-0.8-0.249-1.66-0.454s-1.45-0.399-1.8-0.581c-0.44-0.233-0.77-0.521-0.99-0.866s-0.33-0.731-0.33-1.159c0-0.47 0.14-0.909 0.4-1.317 0.27-0.408 0.66-0.718 1.17-0.93 0.51-0.211 1.08-0.317 1.71-0.317 0.69 0 1.3 0.111 1.82 0.333 0.53 0.222 0.94 0.549 1.22 0.981 0.28 0.431 0.44 0.92 0.46 1.466l-1.18 0.089c-0.07-0.588-0.28-1.033-0.65-1.333-0.36-0.301-0.91-0.451-1.62-0.451-0.74 0-1.29 0.137-1.63 0.41s-0.51 0.602-0.51 0.987c0 0.334 0.12 0.609 0.36 0.825s0.86 0.437 1.86 0.663c1 0.227 1.69 0.424 2.06 0.594 0.54 0.249 0.94 0.566 1.2 0.949s0.39 0.824 0.39 1.323c0 0.495-0.15 0.962-0.43 1.4s-0.69 0.778-1.22 1.022c-0.53 0.243-1.13 0.365-1.79 0.365-0.85 0-1.55-0.123-2.12-0.368-0.57-0.246-1.02-0.615-1.34-1.108s-0.49-1.051-0.51-1.673z"/><path d="m1076.1 979.72-2.47-9.306h1.26l1.42 6.101c0.15 0.639 0.28 1.273 0.39 1.904 0.24-0.995 0.38-1.568 0.42-1.72l1.77-6.285h1.48l1.34 4.71c0.33 1.168 0.57 2.266 0.72 3.295 0.12-0.588 0.27-1.263 0.46-2.025l1.46-5.98h1.24l-2.55 9.306h-1.19l-1.96-7.09c-0.16-0.593-0.26-0.957-0.29-1.092-0.1 0.427-0.19 0.791-0.27 1.092l-1.98 7.09h-1.25z"/><path d="m1086.6 979.72v-9.306h1.23v8.208h4.58v1.098h-5.81z"/><path d="m1092.9 979.72 3.57-9.306h1.33l3.81 9.306h-1.41l-1.08-2.818h-3.89l-1.02 2.818h-1.31zm2.68-3.821h3.16l-0.97-2.577c-0.3-0.783-0.52-1.426-0.66-1.93-0.12 0.597-0.29 1.189-0.5 1.777l-1.03 2.73z"/><path d="m1102.6 979.72v-9.306h1.26l4.89 7.307v-7.307h1.18v9.306h-1.26l-4.89-7.312v7.312h-1.18z"/><path d="m1160.6 979.72-2.47-9.306h1.26l1.42 6.101c0.15 0.639 0.28 1.273 0.39 1.904 0.24-0.995 0.38-1.568 0.42-1.72l1.77-6.285h1.49l1.33 4.71c0.33 1.168 0.57 2.266 0.72 3.295 0.12-0.588 0.27-1.263 0.47-2.025l1.46-5.98h1.23l-2.55 9.306h-1.19l-1.96-7.09c-0.16-0.593-0.26-0.957-0.29-1.092-0.1 0.427-0.19 0.791-0.27 1.092l-1.98 7.09h-1.25z"/><path d="m1169.6 979.72 3.57-9.306h1.33l3.81 9.306h-1.41l-1.08-2.818h-3.89l-1.03 2.818h-1.3zm2.68-3.821h3.16l-0.97-2.577c-0.3-0.783-0.52-1.426-0.66-1.93-0.12 0.597-0.29 1.189-0.51 1.777l-1.02 2.73z"/><path d="m1179.3 979.72v-9.306h1.26l4.89 7.307v-7.307h1.18v9.306h-1.26l-4.89-7.312v7.312h-1.18z"/><path d="m1251.6 979.72h-1.14v-7.281c-0.27 0.263-0.63 0.525-1.08 0.787-0.45 0.263-0.85 0.46-1.2 0.591v-1.105c0.64-0.3 1.19-0.664 1.67-1.092 0.48-0.427 0.82-0.842 1.02-1.244h0.73v9.344z"/><path d="m1293.8 978.63v1.098h-6.15c0-0.275 0.04-0.539 0.14-0.793 0.15-0.419 0.4-0.832 0.75-1.238 0.34-0.406 0.84-0.876 1.49-1.409 1.02-0.83 1.7-1.487 2.05-1.971 0.36-0.485 0.54-0.943 0.54-1.375 0-0.452-0.17-0.834-0.49-1.145s-0.74-0.467-1.26-0.467c-0.55 0-0.99 0.165-1.32 0.495-0.34 0.33-0.5 0.787-0.51 1.371l-1.17-0.12c0.08-0.876 0.38-1.544 0.91-2.003 0.52-0.459 1.23-0.689 2.11-0.689 0.89 0 1.6 0.248 2.12 0.743s0.78 1.109 0.78 1.841c0 0.372-0.08 0.738-0.23 1.098s-0.4 0.738-0.76 1.136c-0.35 0.398-0.94 0.944-1.76 1.638-0.68 0.575-1.12 0.966-1.32 1.171-0.19 0.205-0.35 0.412-0.48 0.619h4.56z"/><path d="m1328.2 977.27 1.14-0.153c0.13 0.648 0.35 1.114 0.67 1.4 0.31 0.286 0.7 0.428 1.15 0.428 0.54 0 0.99-0.186 1.36-0.558 0.37-0.373 0.56-0.834 0.56-1.384 0-0.525-0.18-0.957-0.52-1.298s-0.78-0.511-1.3-0.511c-0.22 0-0.49 0.042-0.81 0.127l0.13-1.003c0.07 8e-3 0.13 0.013 0.18 0.013 0.49 0 0.92-0.127 1.31-0.381s0.59-0.646 0.59-1.175c0-0.419-0.14-0.766-0.43-1.041-0.28-0.275-0.65-0.412-1.1-0.412-0.44 0-0.81 0.139-1.11 0.419-0.29 0.279-0.48 0.698-0.57 1.257l-1.14-0.204c0.14-0.766 0.46-1.359 0.95-1.78 0.5-0.421 1.11-0.632 1.85-0.632 0.51 0 0.97 0.109 1.4 0.327s0.76 0.515 0.98 0.892c0.23 0.377 0.34 0.777 0.34 1.2 0 0.402-0.11 0.768-0.32 1.098-0.22 0.33-0.54 0.592-0.96 0.787 0.55 0.127 0.98 0.39 1.28 0.79 0.31 0.4 0.46 0.901 0.46 1.502 0 0.812-0.3 1.501-0.89 2.066s-1.34 0.847-2.25 0.847c-0.81 0-1.49-0.243-2.03-0.73s-0.85-1.117-0.92-1.891z"/><path d="m1368.7 979.72v-2.228h-4.04v-1.047l4.25-6.031h0.93v6.031h1.26v1.047h-1.26v2.228h-1.14zm0-3.275v-4.196l-2.91 4.196h2.91z"/><path d="m1436.5 979.72-2.47-9.306h1.26l1.42 6.101c0.15 0.639 0.28 1.273 0.39 1.904 0.24-0.995 0.38-1.568 0.42-1.72l1.77-6.285h1.49l1.33 4.71c0.33 1.168 0.58 2.266 0.72 3.295 0.12-0.588 0.28-1.263 0.47-2.025l1.46-5.98h1.24l-2.56 9.306h-1.18l-1.96-7.09c-0.17-0.593-0.27-0.957-0.3-1.092-0.1 0.427-0.19 0.791-0.27 1.092l-1.97 7.09h-1.26z"/><path d="m1447.1 979.72v-9.306h3.51c0.62 0 1.09 0.03 1.42 0.089 0.46 0.076 0.84 0.221 1.15 0.435s0.56 0.513 0.74 0.898c0.19 0.385 0.29 0.809 0.29 1.27 0 0.791-0.25 1.461-0.76 2.009-0.5 0.548-1.41 0.822-2.73 0.822h-2.38v3.783h-1.24zm1.24-4.881h2.4c0.8 0 1.36-0.148 1.7-0.445 0.33-0.296 0.5-0.713 0.5-1.25 0-0.389-0.1-0.723-0.3-1-0.19-0.277-0.45-0.46-0.78-0.549-0.2-0.055-0.59-0.082-1.14-0.082h-2.38v3.326z"/><path d="m1455.4 976.74 1.16-0.101c0.05 0.465 0.18 0.847 0.38 1.146 0.2 0.298 0.51 0.539 0.94 0.723 0.42 0.184 0.9 0.276 1.43 0.276 0.47 0 0.88-0.07 1.24-0.209 0.36-0.14 0.63-0.331 0.8-0.575 0.18-0.243 0.27-0.509 0.27-0.796 0-0.292-0.09-0.547-0.26-0.765s-0.45-0.401-0.83-0.549c-0.25-0.098-0.81-0.249-1.66-0.454-0.86-0.205-1.46-0.399-1.8-0.581-0.44-0.233-0.77-0.521-0.99-0.866s-0.33-0.731-0.33-1.159c0-0.47 0.13-0.909 0.4-1.317s0.66-0.718 1.17-0.93c0.51-0.211 1.08-0.317 1.71-0.317 0.69 0 1.3 0.111 1.82 0.333 0.53 0.222 0.93 0.549 1.22 0.981 0.28 0.431 0.43 0.92 0.45 1.466l-1.18 0.089c-0.06-0.588-0.27-1.033-0.64-1.333-0.37-0.301-0.91-0.451-1.62-0.451-0.75 0-1.29 0.137-1.63 0.41s-0.51 0.602-0.51 0.987c0 0.334 0.12 0.609 0.36 0.825s0.86 0.437 1.86 0.663c1 0.227 1.68 0.424 2.06 0.594 0.54 0.249 0.94 0.566 1.2 0.949 0.25 0.383 0.38 0.824 0.38 1.323 0 0.495-0.14 0.962-0.42 1.4s-0.69 0.778-1.22 1.022c-0.53 0.243-1.13 0.365-1.8 0.365-0.84 0-1.54-0.123-2.11-0.368-0.57-0.246-1.02-0.615-1.34-1.108-0.33-0.493-0.5-1.051-0.51-1.673z"/></g><g transform="matrix(.89 0 0 1 -145.41 -50.295)"><path d="m920.12 977.27 1.143-0.153c0.131 0.648 0.354 1.114 0.669 1.4s0.699 0.428 1.152 0.428c0.538 0 0.992-0.186 1.362-0.558 0.37-0.373 0.555-0.834 0.555-1.384 0-0.525-0.171-0.957-0.514-1.298s-0.779-0.511-1.308-0.511c-0.215 0-0.484 0.042-0.806 0.127l0.127-1.003c0.076 8e-3 0.138 0.013 0.184 0.013 0.487 0 0.925-0.127 1.314-0.381 0.39-0.254 0.584-0.646 0.584-1.175 0-0.419-0.141-0.766-0.425-1.041-0.283-0.275-0.65-0.412-1.098-0.412-0.444 0-0.815 0.139-1.111 0.419-0.296 0.279-0.487 0.698-0.571 1.257l-1.143-0.204c0.14-0.766 0.457-1.359 0.952-1.78s1.111-0.632 1.848-0.632c0.507 0 0.975 0.109 1.402 0.327 0.428 0.218 0.755 0.515 0.981 0.892s0.34 0.777 0.34 1.2c0 0.402-0.108 0.768-0.324 1.098s-0.535 0.592-0.959 0.787c0.551 0.127 0.978 0.39 1.283 0.79 0.304 0.4 0.457 0.901 0.457 1.502 0 0.812-0.297 1.501-0.889 2.066s-1.341 0.847-2.247 0.847c-0.817 0-1.495-0.243-2.034-0.73-0.54-0.487-0.848-1.117-0.924-1.891z" fill="#fcfcfc" fill-rule="nonzero"/></g></g></svg>
