<svg xmlns="http://www.w3.org/2000/svg" viewBox="0 0 1600 1437.5" height="1437.5" width="1600"><g stroke-miterlimit="10"><path d="M746.053 182.563c1.632-14.65 40.98-14.525 43.282 0 0 0 1.116 199.03 0 385.334-1.354 226.174 7.68 251.805 7.68 317.937h-58.258c.115-44.046 5.073-177.24 4.697-317.936-.497-185.837 2.156-381.973 2.598-385.335" fill="#46464e" fill-rule="evenodd" stroke="#35343a" stroke-width=".5625"/><path d="M746.053 182.563c1.632-14.65 40.98-14.525 43.282 0 .67 5.275-.978 9.99-4.01 15.62-3.051 5.665-6.528 10.855-10.998 15.373-5.183 5.24-7.7 5.959-13.286 0-4.118-4.395-7.828-9.541-11.165-15.374-2.557-4.846-4.238-9.94-3.823-15.62" fill="#515158" fill-rule="evenodd" stroke="#35343a" stroke-width=".5625"/><path d="M774.327 832.76V213.556c-5.183 5.24-7.7 5.959-13.286 0V832.76c-4.709 19.674-11.407 37.896-22.284 53.074v70.285h58.258v-70.285c-13.088-16.869-19.185-34.779-22.688-53.074z" fill="#35343a" fill-rule="evenodd" stroke="#35343a" stroke-width=".5625"/><path d="M1123.356 185.025c1.634-14.637 40.981-14.525 43.284 0 0 0 1.115 199.035 0 385.339-1.354 226.174 7.68 251.805 7.68 317.935h-58.258c.116-44.046 5.072-177.239 4.697-317.935-.497-185.836 2.155-381.979 2.597-385.339" fill="#46464e" fill-rule="evenodd" stroke="#35343a" stroke-width=".5625"/><path d="M1123.356 185.025c1.634-14.637 40.981-14.525 43.284 0 .67 5.279-.978 9.994-4.01 15.624-3.053 5.665-6.528 10.855-10.998 15.374-5.183 5.24-7.702 5.958-13.287 0-4.119-4.395-7.827-9.543-11.164-15.374-2.557-4.846-4.238-9.94-3.825-15.624" fill="#515158" fill-rule="evenodd" stroke="#35343a" stroke-width=".5625"/><path d="M1151.633 835.226V216.022c-5.184 5.24-7.703 5.96-13.288 0v619.204c-4.707 19.674-11.406 37.896-22.282 53.073v70.286h58.257v-70.286c-13.087-16.868-19.185-34.778-22.687-53.073z" fill="#35343a" fill-rule="evenodd" stroke="#35343a" stroke-width=".5625"/><path d="M370.439 177.963c1.632-14.638 40.98-14.525 43.282 0 0 0 1.117 199.03 0 385.335-1.353 226.173 7.68 251.805 7.68 317.936h-58.257c.115-44.046 5.072-177.24 4.696-317.936-.496-185.837 2.156-381.973 2.599-385.335" fill="#46464e" fill-rule="evenodd" stroke="#35343a" stroke-width=".5625"/><path d="M370.439 177.963c1.632-14.638 40.98-14.525 43.282 0 .67 5.275-.977 9.99-4.01 15.62-3.052 5.665-6.527 10.855-10.997 15.373-5.184 5.24-7.701 5.959-13.286 0-4.12-4.395-7.83-9.541-11.165-15.373-2.558-4.847-4.24-9.945-3.824-15.62" fill="#515158" fill-rule="evenodd" stroke="#35343a" stroke-width=".5625"/><path d="M398.714 828.16V208.956c-5.184 5.24-7.701 5.959-13.286 0V828.16c-4.71 19.674-11.408 37.896-22.284 53.074v70.285H421.4v-70.285c-13.087-16.869-19.185-34.778-22.687-53.074z" fill="#35343a" fill-rule="evenodd" stroke="#35343a" stroke-width=".5625"/><path d="M209.818 1233.132c-40.23-15.316-83.77-24.976-118.887-41.44H1456.9c-35.838 15.688-74.9 25.987-114.075 41.44-21.5 7.503-42.625 16.952-64.738 25.54-31.652 12.294-50.477 14.42-89.587 17.603 0 0-66.888 5.442-99.446 4.917H478.359c-42.598 0-81.428-2.062-121.457-4.917-39.363-2.809-53.845-3.968-87.657-17.603-20.704-8.348-36.641-17.44-59.428-25.54z" fill="#25242a" fill-rule="evenodd" stroke="#000" stroke-width="2.5"/><path d="M1372.7 1221.485c-219.274 39.875-967.793 42.76-1200.781-1.685l21.341 7.06c214.514 45.06 1017.071 38.82 1164.977 0l14.463-5.375z" fill-rule="evenodd" stroke="#000" stroke-width=".4375"/><path d="M1329.362 1238.756c-219.273 30.136-870.365 34.81-1103.35 0l14.315 6.749c215.664 34.071 924.174 28.756 1071.023 0l18.012-6.749z" fill-rule="evenodd" stroke="#000" stroke-width=".4375"/><path d="M1291.087 1253.226c-219.083 26.378-805.425 28.911-1038.614-2.071l24.77 10.5c215.56 28.094 846.65 23.359 993.595 0l20.25-8.429z" fill-rule="evenodd" stroke="#000" stroke-width=".4375"/><path d="M273.514 929.63c325.985 16.866 662.242 19.016 1013.274 0 33.312-1.805 66.925 8.639 93.987 32.245 42.2 36.81 85.487 79.127 112.863 128.779 22.225 40.325 28.612 72.241-36.738 101.038-52.4 23.094-113.575 29.704-178.863 34.693-345.103 26.372-678.997 25.943-1004.523 0-74.639-5.949-146.96-16.884-182.583-34.693-15.488-7.742-69.473-33.505-40.068-93.535 21.503-43.897 64.19-94.15 107.188-136.282 20.46-20.048 56.302-35.306 115.463-32.245z" fill-rule="evenodd" stroke="#000" stroke-width="1.25"/><path d="M161.606 961.875h1216.057c42.2 36.81 79.337 79.127 106.712 128.779 14.938 34.478 8.463 53.753-27.475 70.971-51.637 24.745-113.575 33.236-178.862 38.225-345.104 26.371-678.998 25.943-1004.524 0-74.639-5.949-147.49-19.205-182.583-38.225-32.174-17.438-39.339-46.289-27.12-70.971 21.794-44.024 54.797-86.648 97.795-128.779z" fill="#25242a" fill-rule="evenodd" stroke="#000" stroke-width="1.25"/><path d="M161.606 961.875h1216.057c42.2 36.81 78.625 79.127 106 128.779 15.2 35.102 1.887 54.252-26.763 67.975-51.638 24.745-113.575 32.701-178.863 37.688-345.103 26.373-678.997 25.944-1004.523 0-74.639-5.947-147.49-18.668-182.583-37.688-28.83-15.625-37.086-46.942-26.673-67.975 21.794-44.024 54.35-86.648 97.348-128.779z" fill-rule="evenodd" stroke="#000" stroke-width="1.25"/><path d="M273.514 929.63c325.985 16.866 662.242 19.016 1013.274 0 33.312-1.805 63.812 8.639 90.875 32.245 42.2 36.81 78.037 79.127 105.412 128.779 12.363 28.563 2.625 50.252-26.175 64.048-51.638 24.745-113.575 33.317-178.863 38.305-345.103 26.373-678.997 25.943-1004.523 0-74.639-5.947-147.49-19.285-182.583-38.305-27.318-14.805-34.735-45.2-25.405-64.048 21.794-44.024 53.082-86.648 96.08-128.779 20.462-20.047 52.747-35.306 111.908-32.245z" fill="#25242a" fill-rule="evenodd" stroke="#000" stroke-width="1.25"/><path d="M470.373 1149.007c-4.305-.063-7.984.84-8.878 3.563l-3.879 11.826c-1.132 3.449 1.186 7.225 6.938 7.427 206.689 7.244 413.393 8.422 620.122 0 6.719-.274 11.823-1.937 9.088-7.427l-5.889-11.826c-1.124-2.256-3.981-3.615-7.129-3.563-203.469 3.397-406.925 3.02-610.374 0z" fill="#323232" fill-rule="evenodd" stroke="#000" stroke-width="2.5"/><path d="M470.373 1154.11c-4.305-.064-9.37.071-10.263 2.795l-2.494 7.491c-1.132 3.449 1.187 7.225 6.938 7.427 206.689 7.245 413.394 8.422 620.122 0 6.719-.274 11.823-1.937 9.088-7.427l-3.718-7.491c-1.123-2.256-6.152-2.847-9.3-2.795-203.468 3.396-406.925 3.019-610.373 0z" fill-rule="evenodd" stroke="#000" stroke-width="2.5"/><path d="M561.634 1161.171c-2.112 1.65-2.112 3.444 0 5.38.93.43 1.887.487 2.886 0 2.028-1.695 2.203-3.852 0-5.38M563.092 1159.871v3.738M609.364 1163.235c4.003-3.014 8.157-3.109 12.478 0M611.666 1165.32c2.701-2.384 5.404-2.239 8.108 0M613.888 1167.271c1.075-1.366 2.316-1.366 3.722 0M665.602 1165.035h-1.747v-4.564h9.68v4.564h-1.618" fill="none" stroke="#1d4576" stroke-width="1"/><path d="M665.574 1168.209h5.892-2.66v-3.454M718.832 1165.757h-1.748v-4.565h9.68v4.565h-1.618" fill="none" stroke="#1d4576" stroke-width="1"/><path d="M718.803 1168.93h5.892-2.66v-3.454M772.188 1165.757h-1.75v-4.565h9.682v4.565h-1.619" fill="none" stroke="#1d4576" stroke-width="1"/><path d="M772.159 1168.93h5.891-2.66v-3.454M825.897 1165.035h-1.748v-4.564h9.681v4.564h-1.619" fill="none" stroke="#1d4576" stroke-width="1"/><path d="M825.869 1168.209h5.891-2.66v-3.454" fill="none" stroke="#1d4576" stroke-width="1"/><path d="M882.071 1161.266c2.157 0 3.908 1.763 3.908 3.935 0 2.173-1.751 3.937-3.908 3.937s-3.907-1.764-3.907-3.937c0-2.172 1.75-3.935 3.907-3.935z" fill="none" stroke="#1d4576" stroke-width=".5625"/><path d="M879.857 1161.963c1.845-1.27 3.642-1.867 4.007-1.334.366.532-.835 1.995-2.682 3.262-1.845 1.269-3.64 1.867-4.006 1.334-.366-.532.835-1.994 2.681-3.262z" fill="none" stroke="#1d4576" stroke-width=".5625"/><path d="M931.159 1167.767h6.929v-4.679h-6.93v4.68z" fill="#1d4576" fill-rule="evenodd" stroke="#1d4576" stroke-width=".5625"/><path d="M934.756 1160.43a2.479 2.479 0 0 1 0 4.955 2.479 2.479 0 0 1 0-4.955z" fill="none" stroke="#1d4576" stroke-width=".5625"/></g></svg>