<?xml version="1.0" encoding="UTF-8"?>
<!DOCTYPE svg  PUBLIC '-//W3C//DTD SVG 1.1//EN'  'http://www.w3.org/Graphics/SVG/1.1/DTD/svg11.dtd'>
<svg clip-rule="evenodd" fill-rule="evenodd" stroke-linecap="round" stroke-linejoin="round" stroke-miterlimit="1.4142" version="1.1" viewBox="0 0 1280 1150" xmlns="http://www.w3.org/2000/svg"><g transform="matrix(.81776 0 0 .81776 116.79 1.0544)"><g id="2 antennen white"><g id="Antenne Links"><g transform="translate(-774.38 -3.156)"><path d="m1016.5 124.62 4.4 176.55 18.05 221.26 4.26 526.08 0.1-0.64c-0.79 0.79-7.3 6.28-39.11 6.9-31.319 0.6-33.295-2.83-36.764-3.53l-0.275 0.06v-527.24l17.322-222.36-1.766-176.81c11.523-1.232 22.763-1.242 33.783-0.278z" fill="#fff" stroke="#000" stroke-width="4.28px"/></g><g transform="translate(-774.38 -3.156)"><path d="m984.7 117.91v6.75l-2.085 0.02c13.798-0.774 25.162-0.727 34.512 0l-2.27-0.796v-5.405l1.88-0.569c-9.35-0.726-20.717-0.773-34.515 0l0.213-0.253c-0.01-4.398-0.957-25.125 0-40.949 0.763-12.612 9.343-15.423 16.166-15.449 9.036-0.034 16.426 4.42 17.136 15.449 1.03 16.016 1.32 37.206 1.34 40.949" fill="#fff" stroke="#000" stroke-width="4.28px"/></g></g></g></g><g id="Frontgruppe"><path id="fill gesammt" d="m215.16 1081.4c13.903-7.5 28.802-12.99 44.922-13.99 250.5-15.53 503.04-13.83 757.02 0 26.83 1.46 27.54 2.45 55.51 13.99 7.9 3.27 15.61 4.36 24.47 4.36v-156.29h-905.08v156.29c8.132 0.54 15.836-1 23.165-4.36z" fill="#767a7b" stroke="#000" stroke-width="3px"/><g id="Lüfungs schlitze" transform="translate(0 9.6119)"><g transform="matrix(.88986 0 0 1 62.932 -.43865)"><rect x="564.05" y="947.84" width="9.541" height="37.146"/><path d="m575.84 986.99h-14.036v-41.146h14.036v41.146zm-11.788-39.146v37.146h9.541v-37.146h-9.541z" fill="#333"/></g><g transform="matrix(.88986 0 0 1 124.41 -.43865)"><rect x="564.05" y="947.84" width="9.541" height="37.146"/><path d="m575.84 986.99h-14.036v-41.146h14.036v41.146zm-11.788-39.146v37.146h9.541v-37.146h-9.541z" fill="#333"/></g><g transform="matrix(.88986 0 0 1 184.3 -.43865)"><rect x="564.05" y="947.84" width="9.541" height="37.146"/><path d="m575.84 986.99h-14.036v-41.146h14.036v41.146zm-11.788-39.146v37.146h9.541v-37.146h-9.541z" fill="#333"/></g><g transform="matrix(.88986 0 0 1 77.777 -.43865)"><rect x="564.05" y="947.84" width="9.541" height="37.146"/><path d="m575.84 986.99h-14.036v-41.146h14.036v41.146zm-11.788-39.146v37.146h9.541v-37.146h-9.541z" fill="#333"/></g><g transform="matrix(.88986 0 0 1 139.25 -.43865)"><rect x="564.05" y="947.84" width="9.541" height="37.146"/><path d="m575.84 986.99h-14.036v-41.146h14.036v41.146zm-11.788-39.146v37.146h9.541v-37.146h-9.541z" fill="#333"/></g><g transform="matrix(.88986 0 0 1 199.15 -.43865)"><rect x="564.05" y="947.84" width="9.541" height="37.146"/><path d="m575.84 986.99h-14.036v-41.146h14.036v41.146zm-11.788-39.146v37.146h9.541v-37.146h-9.541z" fill="#333"/></g><g transform="matrix(.88986 0 0 1 92.818 -.43865)"><rect x="564.05" y="947.84" width="9.541" height="37.146"/><path d="m575.84 986.99h-14.036v-41.146h14.036v41.146zm-11.788-39.146v37.146h9.541v-37.146h-9.541z" fill="#333"/></g><g transform="matrix(.88986 0 0 1 154.29 -.43865)"><rect x="564.05" y="947.84" width="9.541" height="37.146"/><path d="m575.84 986.99h-14.036v-41.146h14.036v41.146zm-11.788-39.146v37.146h9.541v-37.146h-9.541z" fill="#333"/></g><g transform="matrix(.88986 0 0 1 214.19 -.43865)"><rect x="564.05" y="947.84" width="9.541" height="37.146"/><path d="m575.84 986.99h-14.036v-41.146h14.036v41.146zm-11.788-39.146v37.146h9.541v-37.146h-9.541z" fill="#333"/></g><g transform="matrix(.88986 0 0 1 108.31 -.43865)"><rect x="564.05" y="947.84" width="9.541" height="37.146"/><path d="m575.84 986.99h-14.036v-41.146h14.036v41.146zm-11.788-39.146v37.146h9.541v-37.146h-9.541z" fill="#333"/></g><g transform="matrix(.88986 0 0 1 169.78 -.43865)"><rect x="564.05" y="947.84" width="9.541" height="37.146"/><path d="m575.84 986.99h-14.036v-41.146h14.036v41.146zm-11.788-39.146v37.146h9.541v-37.146h-9.541z" fill="#333"/></g><g transform="matrix(.88986 0 0 1 244.96 -.43865)"><rect x="564.05" y="947.84" width="9.541" height="37.146"/><path d="m575.84 986.99h-14.036v-41.146h14.036v41.146zm-11.788-39.146v37.146h9.541v-37.146h-9.541z" fill="#333"/></g><g transform="matrix(.88986 0 0 1 229.46 -.43865)"><rect x="564.05" y="947.84" width="9.541" height="37.146"/><path d="m575.84 986.99h-14.036v-41.146h14.036v41.146zm-11.788-39.146v37.146h9.541v-37.146h-9.541z" fill="#333"/></g><g transform="matrix(.88986 0 0 1 260.1 1.174)"><rect x="564.05" y="947.84" width="9.541" height="37.146"/><path d="m575.84 986.99h-14.036v-41.146h14.036v41.146zm-11.788-39.146v37.146h9.541v-37.146h-9.541z" fill="#333"/></g><g transform="matrix(.88986 0 0 1 275.04 1.174)"><rect x="564.05" y="947.84" width="9.541" height="37.146"/><path d="m575.84 986.99h-14.036v-41.146h14.036v41.146zm-11.788-39.146v37.146h9.541v-37.146h-9.541z" fill="#333"/></g><g transform="matrix(.88986 0 0 1 290.42 1.174)"><rect x="564.05" y="947.84" width="9.541" height="37.146"/><path d="m575.84 986.99h-14.036v-41.146h14.036v41.146zm-11.788-39.146v37.146h9.541v-37.146h-9.541z" fill="#333"/></g><g transform="matrix(.88986 0 0 1 306.67 3.0489)"><rect x="564.05" y="947.84" width="9.541" height="37.146"/><path d="m575.84 986.99h-14.036v-41.146h14.036v41.146zm-11.788-39.146v37.146h9.541v-37.146h-9.541z" fill="#333"/></g><g transform="matrix(.88986 0 0 1 321.21 4.9139)"><rect x="564.05" y="947.84" width="9.541" height="37.146"/><path d="m575.84 986.99h-14.036v-41.146h14.036v41.146zm-11.788-39.146v37.146h9.541v-37.146h-9.541z" fill="#333"/></g><g transform="matrix(.88986 0 0 1 336.12 4.9139)"><rect x="564.05" y="947.84" width="9.541" height="37.146"/><path d="m575.84 986.99h-14.036v-41.146h14.036v41.146zm-11.788-39.146v37.146h9.541v-37.146h-9.541z" fill="#333"/></g><g transform="matrix(.88986 0 0 1 350.78 7.3043)"><rect x="564.05" y="947.84" width="9.541" height="37.146"/><path d="m575.84 986.99h-14.036v-41.146h14.036v41.146zm-11.788-39.146v37.146h9.541v-37.146h-9.541z" fill="#333"/></g><g transform="matrix(.88986 0 0 1 365.86 9.7607)"><rect x="564.05" y="947.84" width="9.541" height="37.146"/><path d="m575.84 986.99h-14.036v-41.146h14.036v41.146zm-11.788-39.146v37.146h9.541v-37.146h-9.541z" fill="#333"/></g><g transform="matrix(.88986 0 0 1 381.26 13.424)"><rect x="564.05" y="947.84" width="9.541" height="37.146"/><path d="m575.84 986.99h-14.036v-41.146h14.036v41.146zm-11.788-39.146v37.146h9.541v-37.146h-9.541z" fill="#333"/></g><g transform="matrix(.88986 0 0 1 396.4 16.34)"><rect x="564.05" y="947.84" width="9.541" height="37.146"/><path d="m575.84 986.99h-14.036v-41.146h14.036v41.146zm-11.788-39.146v37.146h9.541v-37.146h-9.541z" fill="#333"/></g><g transform="matrix(.88986 0 0 1 410.59 20.546)"><rect x="564.05" y="947.84" width="9.541" height="37.146"/><path d="m575.84 986.99h-14.036v-41.146h14.036v41.146zm-11.788-39.146v37.146h9.541v-37.146h-9.541z" fill="#333"/></g><g transform="matrix(.88986 0 0 1 425.94 24.801)"><rect x="564.05" y="947.84" width="9.541" height="37.146"/><path d="m575.84 986.99h-14.036v-41.146h14.036v41.146zm-11.788-39.146v37.146h9.541v-37.146h-9.541z" fill="#333"/></g><g transform="matrix(.88986 0 0 1 440.92 29.203)"><rect x="564.05" y="947.84" width="9.541" height="37.146"/><path d="m575.84 986.99h-14.036v-41.146h14.036v41.146zm-11.788-39.146v37.146h9.541v-37.146h-9.541z" fill="#333"/></g><g transform="matrix(.88986 0 0 1 456.29 33.346)"><rect x="564.05" y="947.84" width="9.541" height="37.146"/><path d="m575.84 986.99h-14.036v-41.146h14.036v41.146zm-11.788-39.146v37.146h9.541v-37.146h-9.541z" fill="#333"/></g><g transform="matrix(.88986 0 0 1 471.24 38.867)"><rect x="564.05" y="947.84" width="9.541" height="37.146"/><path d="m575.84 986.99h-14.036v-41.146h14.036v41.146zm-11.788-39.146v37.146h9.541v-37.146h-9.541z" fill="#333"/></g><g transform="matrix(.88986 0 0 1 486.23 43.249)"><rect x="564.05" y="947.84" width="9.541" height="37.146"/><path d="m575.84 986.99h-14.036v-41.146h14.036v41.146zm-11.788-39.146v37.146h9.541v-37.146h-9.541z" fill="#333"/></g><g transform="matrix(.88986 0 0 1 501.24 52.198)"><rect x="564.05" y="947.84" width="9.541" height="37.146"/><path d="m575.84 986.99h-14.036v-41.146h14.036v41.146zm-11.788-39.146v37.146h9.541v-37.146h-9.541z" fill="#333"/></g><g transform="matrix(.88986 0 0 1 516.62 61.315)"><rect x="564.05" y="947.84" width="9.541" height="37.146"/><path d="m575.84 986.99h-14.036v-41.146h14.036v41.146zm-11.788-39.146v37.146h9.541v-37.146h-9.541z" fill="#333"/></g><g transform="matrix(.88986 0 0 1 532.25 65.851)"><rect x="564.05" y="947.84" width="9.541" height="37.146"/><path d="m575.84 986.99h-14.035v-41.146h14.035v41.146zm-11.788-39.146v37.146h9.541v-37.146h-9.541z" fill="#333"/></g><g transform="matrix(.88986 0 0 1 547.67 71.536)"><rect x="564.05" y="947.84" width="9.541" height="37.146"/><path d="m575.84 986.99h-14.035v-41.146h14.035v41.146zm-11.788-39.146v37.146h9.541v-37.146h-9.541z" fill="#333"/></g><g transform="matrix(-.88986 0 0 1 1044.1 -.43865)"><rect x="564.05" y="947.84" width="9.541" height="37.146"/><path d="m561.8 986.99h14.036v-41.146h-14.036v41.146zm11.789-39.146v37.146h-9.541v-37.146h9.541z" fill="#333"/></g><g transform="matrix(-.88986 0 0 1 1058.7 -.43865)"><rect x="564.05" y="947.84" width="9.541" height="37.146"/><path d="m561.8 986.99h14.036v-41.146h-14.036v41.146zm11.789-39.146v37.146h-9.541v-37.146h9.541z" fill="#333"/></g><g transform="matrix(-.88986 0 0 1 1013.5 3.0545)"><rect x="564.05" y="947.84" width="9.541" height="37.146"/><path d="m561.8 986.99h14.036v-41.146h-14.036v41.146zm11.789-39.146v37.146h-9.541v-37.146h9.541z" fill="#333"/></g><g transform="matrix(-.88986 0 0 1 1028.7 3.0545)"><rect x="564.05" y="947.84" width="9.541" height="37.146"/><path d="m561.8 986.99h14.036v-41.146h-14.036v41.146zm11.789-39.146v37.146h-9.541v-37.146h9.541z" fill="#333"/></g><g transform="matrix(-.88986 0 0 1 998.52 3.0545)"><rect x="564.05" y="947.84" width="9.541" height="37.146"/><path d="m561.8 986.99h14.036v-41.146h-14.036v41.146zm11.789-39.146v37.146h-9.541v-37.146h9.541z" fill="#333"/></g><g transform="matrix(-.88986 0 0 1 983.15 3.0545)"><rect x="564.05" y="947.84" width="9.541" height="37.146"/><path d="m561.8 986.99h14.036v-41.146h-14.036v41.146zm11.789-39.146v37.146h-9.541v-37.146h9.541z" fill="#333"/></g><g transform="matrix(-.88986 0 0 1 966.9 4.9294)"><rect x="564.05" y="947.84" width="9.541" height="37.146"/><path d="m561.8 986.99h14.036v-41.146h-14.036v41.146zm11.789-39.146v37.146h-9.541v-37.146h9.541z" fill="#333"/></g><g transform="matrix(-.88986 0 0 1 952.36 6.7944)"><rect x="564.05" y="947.84" width="9.541" height="37.146"/><path d="m561.8 986.99h14.036v-41.146h-14.036v41.146zm11.789-39.146v37.146h-9.541v-37.146h9.541z" fill="#333"/></g><g transform="matrix(-.88986 0 0 1 937.45 6.7944)"><rect x="564.05" y="947.84" width="9.541" height="37.146"/><path d="m561.8 986.99h14.036v-41.146h-14.036v41.146zm11.789-39.146v37.146h-9.541v-37.146h9.541z" fill="#333"/></g><g transform="matrix(-.88986 0 0 1 922.8 9.1848)"><rect x="564.05" y="947.84" width="9.541" height="37.146"/><path d="m561.8 986.99h14.036v-41.146h-14.036v41.146zm11.789-39.146v37.146h-9.541v-37.146h9.541z" fill="#333"/></g><g transform="matrix(-.88986 0 0 1 907.71 11.641)"><rect x="564.05" y="947.84" width="9.541" height="37.146"/><path d="m561.8 986.99h14.036v-41.146h-14.036v41.146zm11.789-39.146v37.146h-9.541v-37.146h9.541z" fill="#333"/></g><g transform="matrix(-.88986 0 0 1 892.31 15.304)"><rect x="564.05" y="947.84" width="9.541" height="37.146"/><path d="m561.8 986.99h14.036v-41.146h-14.036v41.146zm11.789-39.146v37.146h-9.541v-37.146h9.541z" fill="#333"/></g><g transform="matrix(-.88986 0 0 1 877.17 18.22)"><rect x="564.05" y="947.84" width="9.541" height="37.146"/><path d="m561.8 986.99h14.036v-41.146h-14.036v41.146zm11.789-39.146v37.146h-9.541v-37.146h9.541z" fill="#333"/></g><g transform="matrix(-.88986 0 0 1 862.98 22.426)"><rect x="564.05" y="947.84" width="9.541" height="37.146"/><path d="m561.8 986.99h14.036v-41.146h-14.036v41.146zm11.789-39.146v37.146h-9.541v-37.146h9.541z" fill="#333"/></g><g transform="matrix(-.88986 0 0 1 847.63 26.682)"><rect x="564.05" y="947.84" width="9.541" height="37.146"/><path d="m561.8 986.99h14.036v-41.146h-14.036v41.146zm11.789-39.146v37.146h-9.541v-37.146h9.541z" fill="#333"/></g><g transform="matrix(-.88986 0 0 1 832.65 31.084)"><rect x="564.05" y="947.84" width="9.541" height="37.146"/><path d="m561.8 986.99h14.036v-41.146h-14.036v41.146zm11.789-39.146v37.146h-9.541v-37.146h9.541z" fill="#333"/></g><g transform="matrix(-.88986 0 0 1 817.28 39.051)"><rect x="564.05" y="947.84" width="9.541" height="37.146"/><path d="m561.8 986.99h14.036v-41.146h-14.036v41.146zm11.789-39.146v37.146h-9.541v-37.146h9.541z" fill="#333"/></g><g transform="matrix(-.88986 0 0 1 802.33 44.006)"><rect x="564.05" y="947.84" width="9.541" height="37.146"/><path d="m561.8 986.99h14.036v-41.146h-14.036v41.146zm11.789-39.146v37.146h-9.541v-37.146h9.541z" fill="#333"/></g><g transform="matrix(-.88986 0 0 1 787.34 49.769)"><rect x="564.05" y="947.84" width="9.541" height="37.146"/><path d="m561.8 986.99h14.036v-41.146h-14.036v41.146zm11.789-39.146v37.146h-9.541v-37.146h9.541z" fill="#333"/></g><g transform="matrix(-.88986 0 0 1 772.33 54.079)"><rect x="564.05" y="947.84" width="9.541" height="37.146"/><path d="m561.8 986.99h14.036v-41.146h-14.036v41.146zm11.789-39.146v37.146h-9.541v-37.146h9.541z" fill="#333"/></g><g transform="matrix(-.88986 0 0 1 756.95 63.196)"><rect x="564.05" y="947.84" width="9.541" height="37.146"/><path d="m561.8 986.99h14.036v-41.146h-14.036v41.146zm11.789-39.146v37.146h-9.541v-37.146h9.541z" fill="#333"/></g><g transform="matrix(-.88986 0 0 1 741.32 67.731)"><rect x="564.05" y="947.84" width="9.541" height="37.146"/><path d="m561.8 986.99h14.036v-41.146h-14.036v41.146zm11.789-39.146v37.146h-9.541v-37.146h9.541z" fill="#333"/></g><g transform="matrix(-.88986 0 0 1 725.9 73.417)"><rect x="564.05" y="947.84" width="9.541" height="37.146"/><path d="m561.8 986.99h14.036v-41.146h-14.036v41.146zm11.789-39.146v37.146h-9.541v-37.146h9.541z" fill="#333"/></g></g><path id="filler" d="m215.16 1081.4c13.903-7.5 28.802-12.99 44.922-13.99 250.5-15.53 503.04-13.83 757.02 0 26.83 1.46 27.54 2.45 55.51 13.99 7.9 3.27 15.61 4.36 24.47 4.36-90.49-62.25-184.5-92.223-280.82-96.072-129.14-5.161-303.41-6.64-367.55 0-98.109 10.156-182.43 44.032-256.72 96.072 8.132 0.54 15.836-1 23.165-4.36z" fill="#767a7b" stroke="#343535" stroke-width="3px"/><path id="oben rahmen" d="m191.94 1085.8h-16.874c75.048-74.24 170.26-105.33 273.64-120.13 65.637-9.396 262.23-9.542 367.55 0 97.616 8.844 195.52 33.501 293.79 120.13h-13.05c-76.87-67.74-172.06-101.24-280.74-109.54-107.02-7.468-289.22-7.866-367.55 0-90.051 9.044-186.01 45.336-256.77 109.54z" fill="#e7e8e9" stroke="#000" stroke-width="3px"/><path id="unten linie" d="m192 1085.7c8.132 0.54 15.836-1 23.165-4.36 13.903-7.5 28.802-12.99 44.922-13.99 250.5-15.53 503.04-13.83 757.02 0 26.83 1.46 27.54 2.45 55.51 13.99 7.9 3.27 15.61 4.36 24.47 4.36" fill="none" stroke="#000" stroke-width="3px"/></g><path d="m60.038 1048.8c16.886 19.47 57.624 31 115.03 36.98 75.048-74.24 170.26-105.33 273.64-120.13 65.637-9.396 262.23-9.542 367.55 0 97.616 8.844 195.52 33.501 293.79 120.13 42.36-5.02 85.86-17.71 113.01-36.98l-87.33-144.93-76.1-83.119h-835.82l-77.101 83.119-86.668 144.93" fill="#fff" stroke="#000" stroke-width="3px"/><g id="Deckel"><path id="Deckel1" d="m618.78 908.72c172.74-0.64 373.52 0.653 421.35-43.671 28.29-26.219 22.99-51.931 0-77.402-24.49-27.118-76.59-42.945-128.17-45.466-182.23-8.905-364.48-8.345-546.73 0-61.978 2.838-104.68 18.874-125.73 45.466-21.688 27.465-21.456 53.248 0 77.402 36.312 40.878 241 40.38 379.28 43.671" fill="#e8e8e8" stroke="#000" stroke-width="3px"/><g transform="translate(0 2.1432)"><path d="m618.78 902.82c-149.88-1.717-269.31-7.656-336.51-23.731 242.77 8.596 471.23 7.902 714.11 0-49.562 15.868-160.45 24.733-377.6 23.731z" fill="#767a7b" stroke="#000" stroke-width="3px"/></g><g id="links rechts"><path d="m1059.4 820.4c-4-14.637-12.77-26.499-23.56-37.188l86.22 80.476 13.75 40.256-76.41-83.544z" fill="#dddddb" stroke="#000" stroke-width="3px"/><path d="m1160.8 944.42h10.21l-49.03-80.733 13.75 40.256 25.07 40.477z" fill="#e7e8e9" stroke="#000" stroke-width="3px"/><g transform="matrix(-1 0 0 1 1282.5 0)"><path d="m1160.8 944.42h10.21l-49.03-80.733 13.75 40.256 25.07 40.477z" fill="#e7e8e9" stroke="#000" stroke-width="3px"/></g><g transform="matrix(-1 0 0 1 1282.5 0)"><path d="m1058.8 820.88c-2.26-13.988-7.21-22.622-19.67-37.671l82.9 80.476 13.75 40.256-76.98-83.061z" fill="#dddddb" stroke="#000" stroke-width="3px"/></g></g></g><g id="leds anzeige" transform="translate(5.6733 -93.9)"><g transform="matrix(.49942 0 0 .32107 270.67 670.92)" fill="none" stroke="#333" stroke-width="3px"><path d="m532.5 1001.6c3.037-3.06 6.083-2.457 9.134 0"/><path d="m529.22 994.65c5.176-3.942 10.31-3.82 15.405 0"/><path d="m526.54 988.85c6.781-4.897 13.694-5.464 20.791 0"/></g><g transform="matrix(.46347 0 0 .3011 447.42 692.29)" fill="none" stroke="#333" stroke-width="3px"><path d="m626.35 996.05h-3.276v-10.303h18.143v10.303h-3.033"/><path d="m626.3 1003.2h11.042-4.985v-7.799"/></g><g transform="matrix(.46347 0 0 .3011 406.22 692.29)" fill="none" stroke="#333" stroke-width="3px"><path d="m626.35 996.05h-3.276v-10.303h18.143v10.303h-3.033"/><path d="m626.3 1003.2h11.042-4.985v-7.799"/></g><g transform="matrix(.46347 0 0 .3011 365.95 692.29)" fill="none" stroke="#333" stroke-width="3px"><path d="m626.35 996.05h-3.276v-10.303h18.143v10.303h-3.033"/><path d="m626.3 1003.2h11.042-4.985v-7.799"/></g><g transform="matrix(.46347 0 0 .3011 327.22 692.29)" fill="none" stroke="#333" stroke-width="3px"><path d="m626.35 996.05h-3.276v-10.303h18.143v10.303h-3.033"/><path d="m626.3 1003.2h11.042-4.985v-7.799"/></g><g id="USB" transform="matrix(.83169 0 0 .83169 138.16 390.88)"><g transform="translate(0 -175)"><ellipse cx="764.54" cy="895.5" rx="2.312" ry="1.381" fill="#333" stroke="#333" stroke-width=".54px"/></g><g transform="translate(-1.009 -175.98)"><path d="m765.47 896.85v0.636l-0.977-0.978 0.977-0.977v0.635h15.392v-0.635l0.978 0.977-0.978 0.978v-0.636h-15.392z" fill="#333" stroke="#333" stroke-width=".54px"/></g><g transform="translate(0 -175)"><path d="m772.02 895.46c0.056 1.765 2.322 2.3 5.706 2.211" fill="#333" stroke="#333" stroke-width=".9px"/></g><g transform="matrix(-.013261 .93382 -.82519 -.011718 1522.8 4.0026)"><path d="m775.81 892.16 0.984 1.571h-1.968l0.984-1.571z" fill="#333" stroke="#333" stroke-width=".61px"/></g><g transform="matrix(-.013261 .93382 -.82519 -.011718 1525.2 8.7317)"><path d="m775.81 892.16 0.984 1.571h-1.968l0.984-1.571z" fill="#333" stroke="#333" stroke-width=".61px"/></g><g transform="translate(0 -175)"><path d="m769.89 895.34c-0.217-1.889 1.835-2.542 5.441-2.349" fill="#333" stroke="#333" stroke-width=".9px"/></g></g><g id="Lock" transform="matrix(.83169 0 0 .83169 147.91 163.58)"><g transform="translate(0 96.259)"><rect x="803.72" y="895.02" width="12.343" height="4.453" fill="#333" stroke="#414140" stroke-width=".9px"/></g><g transform="translate(0 96.259)"><path d="m805.46 895.02c2.567-3.503 5.334-3.396 8.282 0" fill="none" stroke="#414140" stroke-width=".9px"/></g></g><g id="Inet" transform="matrix(.68162 0 0 .68162 79.044 315.44)"><g transform="matrix(1.2724 -.22777 .31837 1.7784 -475.11 -424.45)"><ellipse cx="729.35" cy="889.27" rx="6.378" ry="1.404" fill="none" stroke="#333" stroke-width=".7px"/></g><g transform="matrix(1.095 0 0 1.0978 -70.618 8.1974)"><ellipse cx="737.8" cy="896.54" rx="5.426" ry="3.783" fill="none" stroke="#333" stroke-width="1px"/></g></g><g id="power" transform="matrix(.93765 0 0 .85246 11.564 141.54)"><g transform="matrix(.70812 0 0 1.0015 138.62 95.428)"><ellipse cx="476.58" cy="896.65" rx="8.07" ry="3.397" fill="none" stroke="#333" stroke-width="1.96px"/></g><g transform="matrix(1.619 0 0 1.3589 -294.64 -224.77)"><path d="m476.64 893.33c0-0.191-0.118-0.346-0.264-0.346h-0.529c-0.145 0-0.264 0.155-0.264 0.346v3.401c0 0.191 0.119 0.347 0.264 0.347h0.529c0.146 0 0.264-0.156 0.264-0.347v-3.401z" fill="#333"/><path d="m476.4 892.6 0.028 3e-3 0.028 5e-3 0.028 6e-3 0.027 9e-3 0.027 0.01 0.025 0.011 0.026 0.013 0.025 0.015 0.025 0.016 0.023 0.018 0.022 0.019 0.022 0.02 0.022 0.023 0.02 0.022 0.038 0.05 0.018 0.027 0.016 0.027 0.016 0.029 0.014 0.03 0.014 0.031 0.012 0.031 0.011 0.033 0.011 0.034 8e-3 0.034 8e-3 0.035 6e-3 0.036 5e-3 0.036 4e-3 0.037 2e-3 0.037 1e-3 0.032v3.411l-1e-3 0.033-2e-3 0.037-4e-3 0.037-5e-3 0.036-6e-3 0.036-8e-3 0.035-8e-3 0.034-0.022 0.066-0.012 0.032-0.028 0.06-0.016 0.029-0.016 0.027-0.018 0.027-0.019 0.026-0.019 0.024-0.02 0.023-0.021 0.022-0.022 0.02-0.023 0.019-0.024 0.018-0.024 0.016-0.025 0.015-0.025 0.013-0.026 0.012-0.027 0.01-0.027 8e-3 -0.028 7e-3 -0.028 4e-3 -0.028 3e-3 -0.025 1e-3h-0.536l-0.025-1e-3 -0.028-3e-3 -0.028-4e-3 -0.028-7e-3 -0.028-8e-3 -0.026-0.01-0.026-0.012-0.026-0.013-0.025-0.015-0.024-0.016-0.024-0.018-0.022-0.019-0.022-0.02-0.022-0.022-0.02-0.023-0.019-0.024-0.019-0.026-0.017-0.026-0.017-0.028-0.015-0.029-0.015-0.03-0.013-0.03-0.013-0.032-0.011-0.033-0.01-0.033-9e-3 -0.034-8e-3 -0.035-6e-3 -0.036-5e-3 -0.036-6e-3 -0.074v-0.033-3.41-0.033l6e-3 -0.074 5e-3 -0.036 6e-3 -0.036 8e-3 -0.035 9e-3 -0.034 0.01-0.034 0.011-0.033 0.026-0.062 0.015-0.03 0.015-0.028 0.017-0.028 0.017-0.027 0.038-0.05 0.02-0.022 0.022-0.023 0.022-0.02 0.022-0.019 0.024-0.018 0.024-0.016 0.025-0.015 0.026-0.013 0.026-0.011 0.026-0.01 0.028-9e-3 0.027-6e-3 0.029-5e-3 0.028-3e-3h0.025 0.536 0.025zm-0.558 0.388h-0.013l-0.014 2e-3 -0.013 2e-3 -0.013 3e-3 -0.013 4e-3 -0.024 0.01-0.012 6e-3 -0.012 7e-3 -0.012 8e-3 -0.011 8e-3 -0.01 9e-3 -0.011 0.01-0.01 0.01-0.018 0.022-9e-3 0.013-8e-3 0.012-8e-3 0.013-8e-3 0.014-7e-3 0.014-6e-3 0.014-6e-3 0.015-5e-3 0.016-5e-3 0.015-4e-3 0.016-4e-3 0.017-2e-3 0.017-3e-3 0.017-1e-3 0.017-2e-3 0.018v0.017 3.401 0.018l2e-3 0.018 1e-3 0.017 3e-3 0.017 2e-3 0.017 8e-3 0.032 5e-3 0.016 5e-3 0.015 0.012 0.03 7e-3 0.014 0.024 0.039 9e-3 0.012 0.018 0.022 0.01 0.011 0.011 9e-3 0.01 9e-3 0.011 9e-3 0.024 0.014 0.024 0.012 0.012 5e-3 0.013 3e-3 0.013 4e-3 0.013 2e-3 0.014 1e-3 0.013 1e-3h0.529l0.014-1e-3 0.013-1e-3 0.013-2e-3 0.013-4e-3 0.013-3e-3 0.012-5e-3 0.013-6e-3 0.012-6e-3 0.011-7e-3 0.012-7e-3 0.022-0.018 0.01-9e-3 0.02-0.022 9e-3 -0.011 8e-3 -0.012 9e-3 -0.013 8e-3 -0.013 7e-3 -0.013 7e-3 -0.014 0.012-0.03 5e-3 -0.015 5e-3 -0.016 8e-3 -0.032 3e-3 -0.017 4e-3 -0.034 1e-3 -0.018v-0.018-3.401-0.017l-1e-3 -0.018-4e-3 -0.034-3e-3 -0.017-4e-3 -0.017-4e-3 -0.016-5e-3 -0.015-5e-3 -0.016-6e-3 -0.015-6e-3 -0.014-0.014-0.028-8e-3 -0.013-9e-3 -0.012-8e-3 -0.013-9e-3 -0.011-0.01-0.011-0.02-0.02-0.011-9e-3 -0.011-8e-3 -0.012-8e-3 -0.011-7e-3 -0.012-6e-3 -0.013-5e-3 -0.012-5e-3 -0.013-4e-3 -0.013-3e-3 -0.026-4e-3h-0.014-0.529z" fill="#767a7b"/></g><g transform="matrix(1.0643 -.075927 .05774 .97919 -458.84 56.016)"><path d="m862.86 1021.3c-0.274-0.02-0.55-0.02-0.825 0l-0.124 0.66c-0.262 0.04-0.519 0.1-0.767 0.2l-0.433-0.5c-0.251 0.11-0.49 0.25-0.714 0.41l0.218 0.63c-0.207 0.16-0.396 0.35-0.561 0.56l-0.626-0.22c-0.161 0.22-0.299 0.46-0.413 0.72l0.502 0.43c-0.096 0.24-0.165 0.5-0.205 0.76l-0.652 0.13c-0.027 0.27-0.027 0.55 0 0.82l0.652 0.13c0.04 0.26 0.109 0.52 0.205 0.77l-0.502 0.43c0.114 0.25 0.252 0.49 0.413 0.71l0.626-0.22c0.165 0.21 0.354 0.4 0.561 0.57l-0.218 0.62c0.224 0.16 0.463 0.3 0.714 0.41l0.433-0.5c0.248 0.1 0.505 0.17 0.767 0.21l0.124 0.65c0.275 0.03 0.551 0.03 0.825 0l0.124-0.65c0.263-0.04 0.52-0.11 0.767-0.21l0.433 0.5c0.251-0.11 0.491-0.25 0.715-0.41l-0.219-0.62c0.208-0.17 0.396-0.36 0.562-0.57l0.626 0.22c0.161-0.22 0.299-0.46 0.412-0.71l-0.502-0.43c0.097-0.25 0.166-0.51 0.206-0.77l0.651-0.13c0.027-0.27 0.027-0.55 0-0.82l-0.651-0.13c-0.04-0.26-0.109-0.52-0.206-0.76l0.502-0.43c-0.113-0.26-0.251-0.5-0.412-0.72l-0.626 0.22c-0.166-0.21-0.354-0.4-0.562-0.56l0.219-0.63c-0.224-0.16-0.464-0.3-0.715-0.41l-0.433 0.5c-0.247-0.1-0.504-0.16-0.767-0.2l-0.124-0.66zm-0.412 3.35c0.464 0 0.841 0.38 0.841 0.84 0 0.47-0.377 0.84-0.841 0.84-0.465 0-0.842-0.37-0.842-0.84 0-0.46 0.377-0.84 0.842-0.84z" fill="#333"/></g></g></g></svg>
