<svg xmlns="http://www.w3.org/2000/svg" viewBox="0 0 1600 1437.5" height="1437.5" width="1600"><path d="M381.85 163.975l4.405 176.797 18.079 221.568 4.264 526.794.096-.635c-.788.788-7.304 6.287-39.163 6.902-31.361.605-33.34-2.831-36.812-3.532l-.275.063V563.97l17.345-222.663-1.769-177.057c11.539-1.225 22.798-1.238 33.83-.275z" fill="#fff" fill-rule="evenodd" stroke="#000" stroke-width="4.375" stroke-miterlimit="10"/><path d="M349.979 157.25v6.763l-2.088.024c13.816-.775 25.199-.725 34.564 0l-2.277-.8v-5.412l1.885-.575c-9.367-.725-20.75-.762-34.565 0l.212-.25c-.009-4.4-.957-25.162 0-41 .765-12.637 9.356-15.45 16.189-15.475 9.045-.037 16.445 4.425 17.157 15.475 1.035 16.038 1.325 37.25 1.347 41" fill="#fff" fill-rule="evenodd" stroke="#000" stroke-width="4.375" stroke-miterlimit="10"/><path d="M1203.299 1336.507h26.161v9.85c-8.739 3.15-17.457 2.89-26.161 0v-9.85zM372.625 1336.507h26.16v9.85c-8.739 3.15-17.457 2.89-26.16 0v-9.85z" fill="none" stroke="#000" stroke-width="2.5" stroke-miterlimit="10"/><path d="M322.947 1336.716h975.157v-85.062H322.947v85.062z" fill="#bfbfbf" fill-rule="evenodd" stroke="#000" stroke-width="3.75" stroke-miterlimit="10"/><path d="M579.483 1335.287h10.863v-10.03h-10.863v10.03zM561.325 1335.287h10.863v-8.518h-10.863v8.518zM542.947 1335.287h10.864v-7.456h-10.864v7.456zM525.217 1335.287h10.864v-7.456h-10.864v7.456zM507.92 1335.287h10.863v-6.925H507.92v6.925zM490.154 1335.287h10.863v-6.394h-10.863v6.394zM472.053 1335.287h10.863v-5.597h-10.863v5.597zM455.451 1335.287h10.864v-5.066H455.45v5.066zM438.653 1335.287h10.863v-4.269h-10.863v4.269zM418.484 1335.287h10.863v-3.553h-10.863v3.553zM596.05 1335.287h10.863v-10.03H596.05v10.03zM613.402 1335.287h10.864v-10.03h-10.864v10.03zM631.748 1335.287h10.863v-10.03h-10.863v10.03zM650.045 1335.287h10.863v-10.03h-10.863v10.03zM667.369 1335.287h10.863v-10.03H667.37v10.03zM685.466 1335.287h10.864v-10.03h-10.864v10.03zM703.093 1335.287h10.863v-10.03h-10.863v10.03zM720.859 1335.287h10.863v-10.03H720.86v10.03zM739.477 1335.287h10.864v-10.03h-10.864v10.03zM755.805 1335.287h10.863v-10.03h-10.863v10.03zM773.487 1335.287h10.864v-10.03h-10.864v10.03zM791.492 1335.287h10.864v-10.03h-10.864v10.03zM809.813 1335.287h10.863v-10.03h-10.864v10.03zM827.373 1335.287h10.863v-10.03h-10.863v10.03zM844.205 1335.287h10.863v-10.03h-10.863v10.03zM862.482 1335.287h10.864v-10.03h-10.864v10.03zM879.926 1335.287h10.864v-10.03h-10.864v10.03zM898.339 1335.287h10.863v-10.03H898.34v10.03zM915.422 1335.287h10.864v-10.03h-10.864v10.03zM933.602 1335.287h10.864v-10.03h-10.864v10.03zM951.977 1335.287h10.864v-10.03h-10.864v10.03zM969.504 1335.287h10.863v-10.03h-10.863v10.03zM986.841 1335.287h10.864v-10.03H986.84v10.03zM1005.014 1335.287h10.863v-10.03h-10.863v10.03zM1022.887 1335.287h10.864v-8.658h-10.864v8.658zM1039.514 1335.287h10.863v-8.658h-10.863v8.658zM1056.579 1335.287h10.863v-8.658h-10.863v8.658zM1073.895 1335.287h10.863v-8.658h-10.863v8.658zM1091.793 1335.287h10.863v-6.88h-10.864v6.88zM1109.632 1335.287h10.864v-6.88h-10.864v6.88zM1124.76 1335.287h10.863v-5.092h-10.863v5.092zM1143.096 1335.287h10.864v-4.295h-10.864v4.295zM1160.275 1335.287h10.863v-3.58h-10.863v3.58zM1177.771 1335.287h10.864v-2.863h-10.864v2.863z" fill="#fcfcfc" fill-rule="evenodd" stroke="#000" stroke-width=".625" stroke-miterlimit="10"/><path d="M417.08 999.597c248.549-38.32 495.734-48.97 739.984 0 39.733 8.78 79.778 22.633 120.411 46.132 27.613 19.56 50.9 44.705 64.675 82.136 9.737 30.781 17.325 62.414 21.675 95.336 1.687 31.978-2.263 55.61-13.65 80.698-19.213 22.2-35.538 30.747-50.075 30.853-14.038 1.43-28.063 1.301-42.075 0-9.543-.252-39.508-13.085-77.481-30.853-57.909-28.038-119.115-40.569-182.305-43.779-129.778-6.139-259.417-3.985-388.994 1.848-72.663 4.895-122.641 17.658-180.598 41.93-32.437 14.817-60.37 26.123-93.513 30.854-10.875 1.44-21.708 1.62-32.478 0-22.78-3.586-40.844-14.209-54.87-30.853-15.54-22.153-24.926-48.058-23.274-80.698 1.533-31.695 5.102-63.437 15.275-95.336 12.917-39.247 41.673-73.601 95.347-100.256 27.171-13.111 54.498-23.25 81.946-28.011z" fill="#fff" fill-rule="evenodd" stroke="#000" stroke-width="3.75" stroke-miterlimit="10"/><path d="M1288.938 1334.915c-32.776-6.08-69.018-20.164-98.868-34.405-63.597-34.634-149.345-44.511-170.616-46.251-94.497-7.732-318.242-8.337-413.939 0-75.044 6.537-111.95 14.763-185.23 46.251-33.324 14.32-64.44 28.384-97.155 34.783" fill="none" stroke="#000" stroke-width="2.5" stroke-miterlimit="10"/><path d="M538.051 1235.254c-13.516 1.236-12.592-16.466 0-17.396 177.959-13.142 356.031-18.115 534.093 0 12.152 1.236 15.493 19.2 0 17.396-178.015-20.716-356.218-16.27-534.093 0z" fill="#bfbfbf" fill-rule="evenodd" stroke="#000" stroke-miterlimit="10" stroke-width="1.25"/><path d="M669.533 1221.428c1.702-1.242 3.485-1.113 5.308-.293M667.482 1218.95c2.928-1.639 5.914-1.757 8.954-.493M665.806 1216.868c3.84-2.048 7.846-2.48 12.085-.665" fill="none" stroke="#fff" stroke-width="1.4674999999999998" stroke-miterlimit="10"/><path d="M718.748 1217.03l-2.117.068-.136-4.324 11.716-.368.136 4.323-1.958.061" fill="none" stroke="#fff" stroke-width="1.635" stroke-miterlimit="10"/><path d="M718.806 1220.036l7.131-.223-3.22.1-.102-3.27M766.83 1215.426l-2.117.038-.08-4.324 11.722-.213.079 4.324-1.96.036" fill="none" stroke="#fff" stroke-width="1.635" stroke-miterlimit="10"/><path d="M766.849 1218.432l7.134-.13-3.222.06-.058-3.272M814.526 1215.074l-2.117.006-.011-4.325 11.722-.033.011 4.325-1.96.005" fill="none" stroke="#fff" stroke-width="1.635" stroke-miterlimit="10"/><path d="M814.499 1218.08l7.135-.019-3.221.009-.01-3.272M862.605 1215.474l-2.118-.03.062-4.325 11.721.165-.061 4.325-1.96-.028" fill="none" stroke="#fff" stroke-width="1.635" stroke-miterlimit="10"/><path d="M862.526 1218.479l7.135.1-3.221-.045.046-3.272" fill="none" stroke="#fff" stroke-width="1.635" stroke-miterlimit="10"/><path d="M1012.394 1220.061l-13.773-1.06-.381 4.97 13.771 1.06.383-4.97z" fill="#fff" fill-rule="evenodd" stroke="#fff" stroke-width=".9375" stroke-miterlimit="10"/><path d="M1000.563 1219.151c3.165-3.689 6.242-3.33 9.24.711M912.46 1211.604c4.334-.24 7.912.648 7.986 1.982.075 1.334-3.385 2.612-7.719 2.853-4.335.24-7.913-.648-7.987-1.983-.074-1.333 3.385-2.611 7.72-2.852z" fill="none" stroke="#fff" stroke-width=".9375" stroke-miterlimit="10"/><path d="M914.128 1211.644c3.105.38 5.41 2.451 5.145 4.622-.265 2.17-3.003 3.625-6.108 3.245-3.106-.38-5.411-2.451-5.146-4.622.266-2.172 3.002-3.625 6.109-3.245z" fill="none" stroke="#fff" stroke-width=".9375" stroke-miterlimit="10"/><path d="M620.236 1216.971a6.16 6.16 0 0 0-1.028.068l-.11.689a5.255 5.255 0 0 0-.944.277l-.574-.489a5.583 5.583 0 0 0-.862.488l.313.635c-.247.19-.47.402-.662.632l-.795-.177a4.281 4.281 0 0 0-.466.778l.655.412c-.104.265-.173.54-.204.816l-.805.183c-.015.288.004.576.056.86l.821.077c.068.27.17.534.308.784l-.596.492c.158.253.347.492.562.712l.766-.278c.222.203.469.384.739.54l-.23.671c.29.149.598.274.919.373l.506-.559c.315.081.64.131.971.153l.199.668c.344.007.688-.016 1.029-.066l.11-.69c.325-.062.641-.155.944-.276l.573.489c.305-.14.594-.303.863-.488l-.314-.636c.248-.19.469-.401.663-.631l.795.177c.185-.247.34-.507.466-.779l-.655-.411c.104-.266.172-.54.204-.817l.803-.182a3.68 3.68 0 0 0-.055-.861l-.821-.076a3.257 3.257 0 0 0-.309-.784l.598-.492a4.336 4.336 0 0 0-.563-.713l-.766.279a4.177 4.177 0 0 0-.739-.542l.23-.67a5.478 5.478 0 0 0-.918-.372l-.507.559a5.14 5.14 0 0 0-.971-.153l-.199-.67zm-.287 3.525c.579-.037 1.075.325 1.106.81.031.485-.414.909-.992.947-.58.037-1.075-.327-1.107-.81-.031-.485.413-.91.993-.947z" fill="#fff" fill-rule="evenodd"/><text style="-inkscape-font-specification:ArialMT" transform="matrix(1.17297 .07326 -.08231 1.31795 957.073 1221.874)" font-weight="400" font-size="7.573" font-family="Arial" fill="#fcfcfc"><tspan y="0" x="0 4.2119913">3G</tspan></text><path d="M869.87 1137.604a8.245 8.245 0 0 0-8.241-8.242H754.852a8.245 8.245 0 0 0-8.24 8.242v16.481a8.245 8.245 0 0 0 8.24 8.241H861.63a8.245 8.245 0 0 0 8.241-8.241v-16.481z" fill="#8c8c8c" fill-rule="evenodd" stroke="#000" stroke-width=".875" stroke-miterlimit="10"/><path d="M869.243 1142.419a6.605 6.605 0 0 0-6.602-6.602H753.785a6.605 6.605 0 0 0-6.601 6.602v13.202a6.606 6.606 0 0 0 6.601 6.603h108.856a6.605 6.605 0 0 0 6.602-6.603v-13.202z" fill="#fff" fill-rule="evenodd" stroke="#000" stroke-width=".875" stroke-miterlimit="10"/><path d="M856.534 1147.165a5.03 5.03 0 0 0-5.028-5.027h-87.659a5.03 5.03 0 0 0-5.027 5.027v10.056a5.03 5.03 0 0 0 5.027 5.028h87.66a5.03 5.03 0 0 0 5.027-5.028v-10.056z" fill="#ccc" fill-rule="evenodd" stroke="#000" stroke-width=".875" stroke-miterlimit="10"/><path d="M771.805 1162.154h73.127v-8.715h-73.127v8.715z" fill="#262626" fill-rule="evenodd" stroke="#000" stroke-width=".875" stroke-miterlimit="10"/><path d="M775.884 1162.034h8.903v-3.55h-8.903v3.55zM795.621 1162.034h8.904v-3.55h-8.904v3.55zM811.005 1161.987h8.904v-3.549h-8.904v3.55zM832.484 1162.145h8.903v-3.55h-8.903v3.55z" fill="#bfbfbf" fill-rule="evenodd" stroke="#000" stroke-width=".875" stroke-miterlimit="10"/></svg>