<svg xmlns="http://www.w3.org/2000/svg" viewBox="0 0 1600 1437.5" height="1437.5" width="1600"><defs><clipPath id="a"><path d="M0 0h1280v1150H0V0z" clip-rule="evenodd"/></clipPath></defs><g clip-path="url(#a)" stroke-miterlimit="10" transform="matrix(1.25 0 0 -1.25 0 1437.5)"><path d="M1016.63 924.685v-18.182h52v18.182c-12.21 9.554-40.16 6.822-52 0z" fill="#0d0d0d" fill-rule="evenodd" stroke="#000"/><path d="M1010.18 1001.77c1.27 15.13 8.25 24.23 23.57 24.5h43.46v-84.572h-65.38l-1.65 60.072z" fill="#262626" fill-rule="evenodd" stroke="#000"/><path d="M1016.63 924.685l-10.57 6.72c9.76 15.366 61.66 18.315 75.38 0l-12.81-6.72c-12.21 9.554-40.16 6.822-52 0z" fill="#262626" fill-rule="evenodd" stroke="#000"/><path d="M1006.06 944.224v-12.819c9.76 15.366 61.66 18.315 75.38 0v12.819c-7.21 14.229-68.01 12.521-75.38 0z" fill="#0d0d0d" fill-rule="evenodd" stroke="#000"/><path d="M1001.64 1053.78c24.83 7.21 49.92 8.11 75.39 0l4.03-103.652c-5.16 5.378-13.24 6.791-23.08 7.383l-24.23 1.459c-11.92.719-20.61 4.711-20.61 11.159v53.941c0 1.1-3.73 2.2-11.5 2.2v27.51z" fill="#0d0d0d" fill-rule="evenodd" stroke="#000"/><path d="M1001.64 1053.78c24.83 7.21 49.92 8.11 75.39 0l-6.44 152.12h-74.578l5.628-152.12z" fill="#0d0d0d" fill-rule="evenodd" stroke="#000"/><path d="M1013.14 1008.06l-11.5 18.21c7.68.08 11.5-1.32 11.5-2.25v-15.96" fill="#262626" fill-rule="evenodd" stroke="#000"/><path d="M1009.95 884.216v30.073c16.9 11.138 47.41 12.833 70.25 0v-47l-70.25 16.927" fill="#fff" fill-rule="evenodd" stroke="#000"/><path d="M269.315 925.728v-18.182h-52v18.182c12.207 9.554 40.157 6.822 52 0z" fill="#0d0d0d" fill-rule="evenodd" stroke="#000"/><path d="M275.758 1002.81c-1.272 15.14-8.251 24.23-23.571 24.5h-43.458v-84.568h65.381l1.648 60.068z" fill="#262626" fill-rule="evenodd" stroke="#000"/><path d="M269.315 925.728l10.57 6.72c-9.768 15.366-61.664 18.315-75.386 0l12.816-6.72c12.207 9.554 40.157 6.822 52 0z" fill="#262626" fill-rule="evenodd" stroke="#000"/><path d="M279.885 945.268v-12.82c-9.768 15.366-61.664 18.315-75.386 0v12.82c7.207 14.228 68.012 12.521 75.386 0z" fill="#0d0d0d" fill-rule="evenodd" stroke="#000"/><path d="M284.302 1054.82c-24.827 7.21-49.92 8.11-75.395 0l-4.028-103.649c5.163 5.378 13.244 6.792 23.077 7.384l24.231 1.459c11.926.718 20.617 4.71 20.617 11.158v53.938c0 1.1 3.73 2.2 11.498 2.2v27.51z" fill="#0d0d0d" fill-rule="evenodd" stroke="#000"/><path d="M284.302 1054.82c-24.827 7.21-49.92 8.11-75.395 0l6.446 152.13h74.576l-5.627-152.13z" fill="#0d0d0d" fill-rule="evenodd" stroke="#000"/><path d="M272.804 1009.11l11.498 18.2c-7.679.08-11.498-1.31-11.498-2.24v-15.96" fill="#262626" fill-rule="evenodd" stroke="#000"/><path d="M275.993 885.259v30.073c-16.905 11.139-47.415 12.833-70.254 0v-47l70.254 16.927" fill="#fff" fill-rule="evenodd" stroke="#000"/><path d="M229.2 143.829c53.19-14.085 317.981-41.438 509.463-32.192 286.137 13.816 317.317 26.833 339.797 32.192 94.79 22.598 119.26 79.503 128.83 136.987 27.79 166.867 32.55 339.198 0 512.633-7.13 37.993-40.43 87.265-91.13 100.731-12.08-9.932-23.3-16.118-31.64-15.969H220.409c-17.535.025-26.371 6.495-31.154 15.969-47.728-10.047-82.01-53.855-98.175-100.731-55.838-161.916-14.379-464.521 0-528.894 15.582-69.762 61.854-100.531 138.12-120.726z" fill="#fff" fill-rule="evenodd" stroke="#000"/><path d="M243.891 164.033c51.332-13.363 306.874-39.47 491.668-30.698 276.151 13.108 306.021 26.144 327.931 30.698 92.49 19.23 115.09 77.33 124.33 131.868 26.82 158.317 26.89 321.047 0 486.367-5.77 35.425-39.16 74.146-72.63 86.922-8.66 3.308-18.12 6.139-29.49 8.994H216.415c-39.549-9.255-91.493-34.557-105.82-95.916-36.978-158.362-13.876-440.721 0-501.795 15.038-66.187 59.693-97.28 133.296-116.44z" fill="#a5a5a5" fill-rule="evenodd" stroke="#000"/><path d="M247.454 169.073c50.881-13.245 304.18-38.969 487.352-30.274 273.724 12.993 303.544 25.235 325.044 30.274 90.68 21.252 114.09 74.768 123.24 128.828 26.59 156.927 26.66 318.228 0 482.097-5.71 35.115-38.81 73.496-71.99 86.16-82.98 31.68-301.517 41.735-453.308 44.021-135.437 2.04-327.435-12.39-410.338-27.814-55.201-10.27-117.498-35.406-132.126-102.367-34.402-157.48-13.754-436.852 0-497.39 14.906-65.606 59.169-94.543 132.126-113.535z" fill="#fff" fill-rule="evenodd" stroke="#000"/><path d="M262.209 185.581c48.886-12.477 292.254-36.709 468.244-28.519 262.99 12.24 291.647 23.772 312.307 28.519 87.12 20.02 109.61 70.432 118.4 121.357 25.55 147.827 25.62 299.774 0 454.14-5.48 33.078-37.29 69.233-69.16 81.163-79.73 29.843-289.702 39.315-435.541 41.469-130.127 1.921-314.598-11.672-394.25-26.201-53.036-9.675-112.891-33.353-126.946-96.431-33.053-148.348-13.215-411.518 0-468.546 14.322-61.802 56.85-89.06 126.946-106.951z" fill="#a5a5a5" fill-rule="evenodd" stroke="#000"/><path d="M269.233 193.349c48.103-12.172 287.571-35.811 460.742-27.821 258.777 11.94 286.965 23.19 307.295 27.821 85.73 19.529 107.86 68.707 116.52 118.385 25.13 144.207 25.2 292.433 0 443.02-5.4 32.268-36.7 67.538-68.06 79.175-78.46 29.113-285.061 38.353-428.564 40.454-128.042 1.874-309.557-11.386-387.933-25.56-52.187-9.437-111.083-32.536-124.912-94.069-32.524-144.716-13.003-401.442 0-457.073 14.092-60.288 55.939-86.88 124.912-104.332z" fill="#fff" fill-rule="evenodd" stroke="#000"/><path d="M284.822 209.663c46.917-7.257 156.435-23.512 320.391-22.851 247.977 1 395.097 19.837 414.817 22.851 25.04 3.826 55.38 12.998 73.89 30.65 25.73 24.551 29.8 39.791 37.65 83.858 24.1 135.471 23.79 273.745 0 415.454-7.38 43.917-35.42 64.139-65.16 74.249-75.671 25.728-272.868 35.966-410.237 37.936-122.569 1.758-296.325-10.677-371.351-23.969-49.956-8.851-106.11-23.531-119.573-88.216-28.931-139.006-17.983-282.554 0-428.632 4.458-36.209 28.358-66.514 52.173-78.611 23.864-12.123 51.483-20.257 67.4-22.719z" fill="#a5a5a5" fill-rule="evenodd" stroke="#000"/><path d="M291.385 217.747c36.597-5.791 150.575-21.64 314.609-22.248 243.502-.902 387.969 19.314 407.336 22.248 24.58 3.726 54.38 12.655 72.55 29.842 25.27 23.904 29.27 38.742 36.97 81.647 23.67 131.898 23.36 266.526 0 404.498-7.24 42.759-34.78 62.448-63.98 72.29-74.308 25.05-267.946 35.018-402.836 36.936-120.357 1.712-290.977-10.395-364.649-23.337-49.054-8.617-104.194-22.91-117.414-85.889-28.409-135.341-17.659-275.103 0-417.329 4.377-35.254 27.846-64.76 51.231-76.538 23.434-11.803 50.565-19.648 66.183-22.12z" fill="#fff" fill-rule="evenodd" stroke="#000"/><path d="M309.152 236.508s143.243-17.983 299.138-19.265c231.523-1.905 368.892 17.989 387.304 20.722 23.376 3.47 46.456 8.685 68.106 20.603 28.83 15.873 34.45 43.012 40.31 83.241 17.9 122.901 15.97 248.314 0 376.759-4.99 40.139-36.32 63.38-64.75 70.324-111.282 27.182-258.308 28.542-386.564 30.328-114.439 1.594-228.969-7.665-343.544-20.652-59.526-6.747-106.104-20.738-116.488-80-22.089-126.064-13.927-257.091 1.391-390.293 3.962-32.575 17.449-60.473 39.684-71.443 22.282-10.994 60.508-18.386 75.413-20.324z" fill="#a3a3a3" fill-rule="evenodd" stroke="#000"/><path d="M315.129 246.113s140.716-17.37 293.861-18.608c227.437-1.84 362.382 17.376 380.47 20.016 22.97 3.352 45.63 8.388 66.9 19.9 28.33 15.332 33.85 41.546 39.61 80.403 17.58 118.711 15.68 239.849 0 363.915-4.9 38.771-35.69 61.219-63.62 67.926-109.313 26.256-253.745 27.569-379.739 29.295-112.419 1.54-224.928-7.404-337.482-19.948-58.476-6.517-104.231-20.031-114.432-77.273-21.699-121.767-13.682-248.326 1.366-376.988 3.893-31.464 17.142-58.41 38.984-69.007 21.889-10.619 59.441-17.759 74.082-19.631z" fill="#fff" fill-rule="evenodd" stroke="#000"/><path d="M333.098 270.742s133.138-17.167 278.036-18.3c215.191-1.681 342.869 15.886 359.983 18.3 21.729 3.064 44.113 5.198 64.233 15.723 26.8 14.016 35.03 40.629 39.42 76.299 13.36 108.474 14.39 219.089 0 332.38-4.64 36.559-27.55 55.341-63.07 62.101-104.365 19.863-240.084 25.204-359.293 26.782-106.366 1.407-212.817-6.77-319.309-18.238-55.328-5.958-97.323-10.427-108.271-70.645-20.221-111.22-12.314-227.931 0-345.502 3.683-28.766 16.297-55.297 37.77-63.177 21.537-7.904 56.647-14.012 70.501-15.723z" fill="#0d0d0d" fill-rule="evenodd" stroke="#000"/><path d="M493.572 335.077h321.405c28.938-.169 52.885-14.266 75.653-32.857 19.805-16.173 43.539-30.907 74.279-26.572 21.31 3.006 43.261 5.099 62.991 15.421 26.29 13.746 34.36 39.846 38.67 74.829 13.1 106.385 14.11 214.869 0 325.979-4.56 35.854-27.03 52.795-61.86 59.424-102.355 19.481-235.459 23.068-352.372 24.615-104.317 1.38-208.718-5.666-313.159-16.913-54.262-5.844-95.448-8.069-106.185-67.126-19.832-109.079-12.077-223.542 0-338.848 3.612-28.212 15.982-54.232 37.042-61.96 21.122-7.752 54.68-14.655 69.143-15.421 31.581-1.672 48.868 12.221 67.101 26.572 27.591 21.716 48.518 32.857 87.292 32.857z" fill="#fff" fill-rule="evenodd" stroke="#000"/><path d="M552.299 303.918c2.564 2.061 5.135 1.655 7.71 0M549.529 308.572c4.369 2.656 8.702 2.574 13.003 0M547.268 312.481c5.723 3.3 11.558 3.681 17.548 0" fill="none" stroke="#fff" stroke-width="2.291"/><path d="M737.649 306.168l-2.674-.008-.023 9.054 14.809.045.023-9.055-2.476-.007" fill="none" stroke="#fff" stroke-width="2.544"/><path d="M737.616 301.781l9.013.027-4.069-.013-.016 5.999" fill="none" stroke="#fff" stroke-width="2.379"/><path d="M625.5 306.168l-2.675-.008-.023 9.054 14.809.045.023-9.055-2.476-.007" fill="none" stroke="#fff" stroke-width="2.544"/><path d="M625.467 301.781l9.013.027-4.07-.013-.015 5.999" fill="none" stroke="#fff" stroke-width="2.379"/><path d="M663.196 306.168l-2.675-.008-.023 9.054 14.809.045.023-9.055-2.476-.007" fill="none" stroke="#fff" stroke-width="2.544"/><path d="M663.162 301.781l9.013.027-4.069-.013-.015 5.999" fill="none" stroke="#fff" stroke-width="2.379"/><path d="M700.454 306.168l-2.674-.008-.023 9.054 14.808.045.023-9.055-2.475-.007" fill="none" stroke="#fff" stroke-width="2.544"/><path d="M700.421 301.781l9.013.027-4.07-.013-.015 5.999" fill="none" stroke="#fff" stroke-width="2.379"/><path d="M592.901 316.002c5.54 1.473 10.286.613 10.591-1.919.306-2.533-3.944-5.785-9.485-7.258-5.54-1.472-10.286-.612-10.591 1.92-.305 2.532 3.945 5.784 9.485 7.257z" fill="none" stroke="#fff" stroke-width="2.5"/><path d="M595.054 316.317c4.056 0 7.35-3.419 7.35-7.631s-3.294-7.631-7.35-7.631c-4.057 0-7.35 3.419-7.35 7.631s3.293 7.631 7.35 7.631zM771.78 302.409h15.937v9.53H771.78v-9.53zM773.83 311.939c-.024 8.796 11.892 8.573 11.915 0" fill="none" stroke="#fff" stroke-width="2.5"/><path d="M520.112 320.893a8.71 8.71 0 0 1-1.812 0l-.288-1.52a7.538 7.538 0 0 1-1.69-.48l-.939 1.172a9.321 9.321 0 0 1-1.58-.963l.465-1.461a8.249 8.249 0 0 1-1.248-1.311l-1.37.509a10.129 10.129 0 0 1-.923-1.667l1.092-1.011a8.815 8.815 0 0 1-.471-1.791l-1.434-.289a10.415 10.415 0 0 1-.02-1.926l1.428-.289a8.73 8.73 0 0 1 .432-1.791l-1.113-1.011a9.817 9.817 0 0 1 .888-1.667l1.381.509a7.993 7.993 0 0 1 1.22-1.311l-.496-1.461a9.039 9.039 0 0 1 1.56-.963l.963 1.172a7.441 7.441 0 0 1 1.68-.48l.257-1.52a8.71 8.71 0 0 1 1.812 0l.288 1.52a7.538 7.538 0 0 1 1.69.48l.939-1.172a9.274 9.274 0 0 1 1.579.963l-.464 1.461c.46.387.879.827 1.248 1.311l1.37-.509c.358.523.667 1.081.923 1.667l-1.092 1.011c.219.577.377 1.178.471 1.791l1.434.289c.066.641.072 1.285.02 1.926l-1.428.289a8.668 8.668 0 0 1-.433 1.791l1.114 1.011a9.817 9.817 0 0 1-.888 1.667l-1.381-.509a7.993 7.993 0 0 1-1.22 1.311l.495 1.461a8.993 8.993 0 0 1-1.559.963l-.963-1.172a7.441 7.441 0 0 1-1.68.48l-.257 1.52zm-.988-7.811c1.02 0 1.839-.88 1.828-1.964-.012-1.084-.85-1.964-1.87-1.964s-1.839.88-1.828 1.964c.012 1.084.849 1.964 1.87 1.964z" fill="#fff" fill-rule="evenodd" stroke="#fff" stroke-width=".7"/><path d="M481.496 317.247c4.55 0 8.244-3.077 8.244-6.866 0-3.79-3.694-6.867-8.244-6.867s-8.244 3.077-8.244 6.867c0 3.789 3.694 6.866 8.244 6.866z" fill="none" stroke="#fff" stroke-width="2.5"/><path d="M483.26 321.273c0 .46-.374.833-.833.833h-1.667a.834.834 0 0 1-.833-.833v-9.753c0-.459.374-.833.833-.833h1.667c.459 0 .833.374.833.833v9.753z" fill="#fff" fill-rule="evenodd" stroke="#0d0d0d" stroke-width="2.5"/></g></svg>