<?xml version="1.0" encoding="UTF-8"?>
<!DOCTYPE svg  PUBLIC '-//W3C//DTD SVG 1.1//EN'  'http://www.w3.org/Graphics/SVG/1.1/DTD/svg11.dtd'>
<svg clip-rule="evenodd" fill-rule="evenodd" stroke-linecap="round" stroke-linejoin="round" stroke-miterlimit="1.4142" version="1.1" viewBox="0 0 1280 1150" xmlns="http://www.w3.org/2000/svg"><g transform="matrix(.93826 -.34592 .34592 .93826 -171.3 275.01)"><path d="m618.89 169.89 2.365 9.752 402.55 58.201-290.35 740.32h-401.62l289.43-798.52-297.44 788.48 8.005 10.04" fill="#f2f2f2" stroke="#000" stroke-width="1px"/></g><g transform="matrix(.93826 -.34592 .34592 .93826 -171.3 275.01)"><path d="m621.25 179.64 402.55 58.201-95.213-66.672-7.914-1.281 77.896 55.267-379.68-55.267 2.365 9.752z" fill="#f2f2f2" stroke="#000" stroke-width="1px"/></g><g transform="matrix(.93826 -.34592 .34592 .93826 -171.3 275.01)"><path d="m607.62 164.45 11.263 5.434 379.68 55.267-77.896-55.267-390.82-60.818 77.77 55.384z" fill="#fff" stroke="#000" stroke-width="1px"/></g><g transform="matrix(.93826 -.34592 .34592 .93826 -171.3 275.01)"><path d="m529.86 109.07 77.77 55.384-296.31 796.57-71.175-61.575 289.71-790.38z" fill="#fff" stroke="#000" stroke-width="1px"/></g><g transform="matrix(.93826 -.34592 .34592 .93826 -171.3 275.01)"><path d="m618.89 169.89-295.07 798.23-12.498-7.094 296.31-796.57 11.263 5.434z" fill="#fff" stroke="#000" stroke-width="1px"/></g><g id="Blau" transform="matrix(.93826 -.34592 .34592 .93826 -171.3 275.01)"><path d="m597.94 190.48 11.226 5.692-275.77 746.02-12.632-6.571 277.18-745.14z" fill="#001850" stroke="#000" stroke-width="1px"/></g><g transform="matrix(.97651 -.21549 -.04491 1.034 74.726 92.982)" fill-rule="nonzero"><path d="m667.71 247.01h20.171v5.303h-6.768v16.171h-6.635v-16.171h-6.768v-5.303z"/><path d="m690.85 247.01h11.03c2.402 0 4.202 0.571 5.398 1.714 1.196 1.142 1.794 2.768 1.794 4.878 0 2.168-0.652 3.862-1.955 5.083-1.304 1.22-3.294 1.831-5.969 1.831h-3.633v7.968h-6.665v-21.474zm6.665 9.155h1.626c1.279 0 2.177-0.222 2.695-0.666 0.518-0.445 0.776-1.014 0.776-1.707 0-0.674-0.224-1.245-0.673-1.714-0.45-0.469-1.294-0.703-2.535-0.703h-1.889v4.79z"/><rect x="711.01" y="258.35" width="8.672" height="4.614"/><path d="m722.54 247.01h6.636v16.186h10.356v5.288h-16.992v-21.474z"/><rect x="742.81" y="247.01" width="6.65" height="21.475"/><path d="m754.26 247.01h6.196l8.086 11.88v-11.88h6.255v21.474h-6.255l-8.042-11.792v11.792h-6.24v-21.474z"/><path d="m779.24 247.01h6.636v8.115l6.958-8.115h8.818l-7.822 8.1 8.174 13.374h-8.174l-4.526-8.833-3.428 3.589v5.244h-6.636v-21.474z"/></g></svg>
