<svg xmlns="http://www.w3.org/2000/svg" viewBox="0 0 1600 1437.5" height="1437.5" width="1600"><path d="M331.971 794.223l61.686-16.53-33.306-110.865-54.277 14.543 25.897 112.852zM245.538 273.888l-33.685 9.026 9.302 34.717 33.685-9.026-9.302-34.718z" fill="#313131" fill-rule="evenodd" stroke="#000" stroke-width=".625" stroke-miterlimit="10"/><path d="M351.351 880.034l-21.343-88.08c22.393-3.938 44.35-9.47 65.605-17.579l25.695 86.914-69.957 18.745zM323.434 768.096l4.897 18.276c22.64-3.16 44.71-8.848 66.066-17.702l-4.896-18.276c-21.372 8.255-43.465 13.902-66.067 17.702zM255.609 455.6l37.783-10.125-38.233-142.689-37.054 9.928L255.609 455.6zM322.827 763.424a383.554 383.554 0 0 0 64.413-17.259l-15.285-49.499c-19.392 7.729-39.858 13.078-61.232 16.407l12.104 50.35zM310.192 707.905c20.72-3.416 40.898-8.659 60.4-16.184l-5.445-17.42c-19.04 7.253-38.733 12.471-59.028 15.816l4.073 17.788z" fill="#313131" fill-rule="evenodd" stroke="#000" stroke-width=".625" stroke-miterlimit="10"/><path d="M305.029 686.046c20.199-3.721 39.915-8.874 59.027-15.816l-68.405-229.642c-13.854 6.32-28.361 10.323-43.614 11.685l52.992 233.773zM216.909 308.249l37.054-9.928-4.743-17.699-37.054 9.928 4.743 17.699zM210.756 285.574l37.136-9.951-18.386-68.617c-12.507-16.714-33.034-11.254-37.135 9.95l18.385 68.618zM1344.425 794.223l-61.688-16.53 33.3-110.865 54.288 14.543-25.9 112.852zM1430.85 273.888l33.688 9.026-9.3 34.717-33.688-9.026 9.3-34.718z" fill="#313131" fill-rule="evenodd" stroke="#000" stroke-width=".625" stroke-miterlimit="10"/><path d="M1325.037 880.034l21.35-88.08c-22.4-3.938-44.35-9.47-65.612-17.579l-25.688 86.914 69.95 18.745zM1352.962 768.096l-4.9 18.276c-22.637-3.16-44.712-8.848-66.062-17.702l4.887-18.276c21.375 8.255 43.475 13.902 66.075 17.702zM1420.788 455.6L1383 445.475l38.238-142.689 37.05 9.928-37.5 142.886zM1353.563 763.424a383.522 383.522 0 0 1-64.413-17.259l15.288-49.499c19.387 7.729 39.862 13.078 61.237 16.407l-12.112 50.35zM1366.2 707.905c-20.725-3.416-40.9-8.659-60.4-16.184l5.45-17.42c19.038 7.253 38.725 12.471 59.025 15.816l-4.075 17.788z" fill="#313131" fill-rule="evenodd" stroke="#000" stroke-width=".625" stroke-miterlimit="10"/><path d="M1371.362 686.046c-20.2-3.721-39.912-8.874-59.025-15.816l68.4-229.642c13.863 6.32 28.363 10.323 43.613 11.685l-52.987 233.773zM1459.487 308.249l-37.062-9.928 4.75-17.699 37.05 9.928-4.737 17.699zM1465.638 285.574l-37.138-9.951 18.388-68.617c12.5-16.714 33.037-11.254 37.137 9.95l-18.388 68.618z" fill="#313131" fill-rule="evenodd" stroke="#000" stroke-width=".625" stroke-miterlimit="10"/><path d="M1554.925 1217.076l7.063 13.239-2.913 7.129h-4.15l-2.475-20.368h2.475z" fill="#333" fill-rule="evenodd" stroke="#000" stroke-width=".625" stroke-miterlimit="10"/><path d="M1553.487 1233.408c3.613.386 6.55-.455 8.5-3.093v8.931c-1.575 2.824-4.55 3.117-7.912 3.193l-.587-9.031zM1554.063 1183.04l8.312 15.584-3.425 8.39h-4.888l-2.912-23.974h2.913z" fill="#333" fill-rule="evenodd" stroke="#000" stroke-width=".625" stroke-miterlimit="10"/><path d="M1552.375 1202.264c4.25.455 7.7-.536 10-3.64v10.512c-1.85 3.324-5.35 3.668-9.313 3.758l-.687-10.63zM1552.563 1147.844l9.274 17.395-3.812 9.365h-5.463l-3.25-26.76h3.25z" fill="#333" fill-rule="evenodd" stroke="#000" stroke-width=".625" stroke-miterlimit="10"/><path d="M1550.688 1169.301c4.737.509 8.587-.597 11.15-4.062v11.735c-2.05 3.71-5.975 4.093-10.4 4.193l-.75-11.866zM1552 1115.515l9.262 17.395-3.812 9.366H1552l-3.262-26.761H1552z" fill="#333" fill-rule="evenodd" stroke="#000" stroke-width=".625" stroke-miterlimit="10"/><path d="M1550.112 1136.973c4.738.508 8.6-.598 11.15-4.063v11.735c-2.05 3.71-5.962 4.095-10.387 4.194l-.762-11.867zM1550.175 1083.47l11.063 19.023-3.688 6.195h-8.9l-2.913-25.218h4.438z" fill="#333" fill-rule="evenodd" stroke="#000" stroke-width=".625" stroke-miterlimit="10"/><path d="M1548.587 1106.139c4.788.619 8.925-.876 12.675-3.618v11.104c-1.287 2.375-5.187 3.614-11.087 3.976l-1.588-11.462zM1425.25 881.261c12.25 3.178 21.725 9.739 28.05 20.152l107.875 171.162-1.325 6.709-5.238 1.727-9.95-1.547L1425.25 881.26z" fill="#333" fill-rule="evenodd" stroke="#000" stroke-width=".625" stroke-miterlimit="10"/><path d="M1546.775 1088.398c6.637.058 12.025-1.135 14.4-5.328.15-1.2.013-9.982 0-10.501-2.737 5.97-8.7 7.515-16.187 6.808M105.72 1217.076l-7.056 13.239 2.903 7.129h4.152l2.48-20.368h-2.48z" fill="#333" fill-rule="evenodd" stroke="#000" stroke-width=".625" stroke-miterlimit="10"/><path d="M107.153 1233.408c-3.607.386-6.54-.455-8.489-3.093v8.931c1.565 2.824 4.544 3.117 7.911 3.193l.578-9.031zM106.58 1183.04l-8.303 15.584 3.416 8.39h4.887l2.92-23.974h-2.92z" fill="#333" fill-rule="evenodd" stroke="#000" stroke-width=".625" stroke-miterlimit="10"/><path d="M108.267 1202.264c-4.245.455-7.697-.536-9.99-3.64v10.512c1.84 3.324 5.347 3.668 9.31 3.758l.68-10.63zM108.078 1147.844l-9.27 17.395 3.815 9.365h5.455l3.259-26.76h-3.26z" fill="#333" fill-rule="evenodd" stroke="#000" stroke-width=".625" stroke-miterlimit="10"/><path d="M109.961 1169.301c-4.739.509-8.592-.597-11.152-4.062v11.735c2.055 3.71 5.97 4.093 10.394 4.193l.758-11.866zM108.647 1115.515l-9.269 17.395 3.814 9.366h5.455l3.26-26.761h-3.26z" fill="#333" fill-rule="evenodd" stroke="#000" stroke-width=".625" stroke-miterlimit="10"/><path d="M110.53 1136.973c-4.738.508-8.592-.598-11.152-4.063v11.735c2.055 3.71 5.97 4.095 10.394 4.194l.759-11.867zM110.47 1083.47l-11.062 19.023 3.689 6.195h8.896l2.914-25.218h-4.437z" fill="#333" fill-rule="evenodd" stroke="#000" stroke-width=".625" stroke-miterlimit="10"/><path d="M112.056 1106.139c-4.78.619-8.919-.876-12.678-3.618v11.104c1.299 2.375 5.194 3.614 11.092 3.976l1.586-11.462zM235.391 881.261c-12.239 3.178-21.715 9.739-28.049 20.152L99.47 1072.574l1.332 6.709 5.233 1.727 9.954-1.547L235.39 881.26z" fill="#333" fill-rule="evenodd" stroke="#000" stroke-width=".625" stroke-miterlimit="10"/><path d="M113.871 1088.398c-6.642.058-12.027-1.135-14.406-5.328-.143-1.2-.01-9.982 0-10.501 2.742 5.97 8.701 7.515 16.188 6.808" fill="#333" fill-rule="evenodd" stroke="#000" stroke-width=".625" stroke-miterlimit="10"/><path d="M105.37 1227.434c2.771-61.363 4.12-127.37 15.283-161.313l118.482-186.476c4.627-7.284 40.142-18.009 63.608-18.553h1025.72c49.737.36 86.775 4.802 94.887 18.553l111.725 178.74c4.225 7.49 7.625 15.23 10.388 23.161 5.25 48.486 6.687 97.2 8.562 145.888l-16.012 18.498H122.943l-17.573-18.498z" fill="#fff" fill-rule="evenodd" stroke="#000" stroke-width="3.75" stroke-miterlimit="10"/><path d="M324.621 1232.898H117.853c-5.393-.23-9.513-2.147-12.577-5.464v26.009c0 3.912 9.86 13.597 12.577 13.597h206.768v-34.142zM1334.575 1232.898h206.762c5.4-.23 9.513-2.147 12.576-5.464v26.009c0 3.912-9.85 13.597-12.575 13.597h-206.763v-34.142z" fill="#fff" fill-rule="evenodd" stroke="#000" stroke-width="3.75" stroke-miterlimit="10"/><path d="M1529.112 1160.599c0-6.566-5.325-11.898-11.887-11.898h-123.637c-6.576 0-11.9 5.332-11.9 11.898v55.601c0 6.566 5.324 11.896 11.9 11.896h123.637c6.563 0 11.887-5.33 11.887-11.896v-55.601z" fill="#40c82b" fill-rule="evenodd" stroke="#000" stroke-width=".8125" stroke-miterlimit="10"/><path d="M1456.3 1177.164c-5 8.075-4.875 15.631 0 23.058M1452.563 1175.469c-6.1 9.195-5.95 17.798 0 26.256M1448.375 1173.984c-6.388 10.328-6.238 19.992 0 29.492M1509.913 1201.146c4.987-8.075 4.875-15.631 0-23.058M1513.638 1202.841c6.1-9.195 5.962-17.798 0-26.256M1517.825 1204.326c6.388-10.328 6.238-19.992 0-29.492" fill="none" stroke="#000" stroke-width=".8125" stroke-miterlimit="10"/><path d="M1467.738 1180.598v15.635c0 .42.075.722.225.9.162.178.4.268.737.268.375 0 .637-.092.787-.276.15-.184.225-.481.225-.892v-15.635c0-.423-.075-.72-.225-.893-.15-.174-.412-.26-.787-.26-.338 0-.575.091-.737.276-.15.184-.225.477-.225.877zm-5.788 1.607c0-2.23.525-3.819 1.563-4.765 1.05-.948 2.787-1.421 5.187-1.421 2.413 0 4.15.468 5.2 1.405 1.038.936 1.563 2.53 1.563 4.781v12.664c0 1.633-.25 2.865-.738 3.692-.5.829-1.35 1.47-2.562 1.925 0 .259.075.446.212.56.138.114.35.17.638.17h2.337v3.492h-3.575c-.75 0-1.325-.304-1.737-.91-.4-.607-.6-1.478-.6-2.614v-.163a19.957 19.957 0 0 1-1.15.033c-2.188 0-3.788-.493-4.813-1.478s-1.525-2.553-1.525-4.707v-12.664zM1476.925 1180.841c0-1.526.587-2.711 1.775-3.556 1.188-.844 2.85-1.266 4.988-1.266 2.137 0 3.8.425 4.962 1.275 1.175.85 1.75 2.063 1.75 3.645v3.912h-5.75v-4.254c0-.432-.075-.733-.225-.9-.137-.168-.387-.252-.737-.252-.375 0-.638.089-.788.268-.15.178-.225.473-.225.884v2.127c0 .357.063.668.175.933.113.265.288.523.538.772l5.562 5.048c.525.467.9.96 1.125 1.478.213.52.325 1.347.325 2.485v2.792c0 1.537-.587 2.72-1.75 3.548-1.175.827-2.85 1.241-5.012 1.241-2.213 0-3.888-.432-5.013-1.299-1.137-.866-1.7-2.142-1.7-3.83v-4.482h5.75v4.822c0 .412.075.71.225.893.15.184.413.276.787.276.338 0 .576-.09.726-.269.162-.177.237-.478.237-.9v-2.533c0-.347-.075-.668-.238-.965-.15-.298-.4-.62-.775-.967l-5.225-4.887c-.537-.498-.912-.998-1.15-1.501-.225-.504-.337-1.178-.337-2.022v-2.516zM1491.738 1180.841c0-1.526.6-2.711 1.775-3.556 1.187-.844 2.85-1.266 4.987-1.266 2.15 0 3.813.425 4.975 1.275 1.163.85 1.75 2.063 1.75 3.645v3.912h-5.762v-4.254c0-.432-.075-.733-.213-.9-.15-.168-.4-.252-.75-.252-.362 0-.625.089-.775.268-.15.178-.225.473-.225.884v2.127c0 .357.05.668.163.933.112.265.3.523.537.772l5.562 5.048c.525.467.9.96 1.125 1.478.225.52.338 1.347.338 2.485v2.792c0 1.537-.587 2.72-1.762 3.548-1.176.827-2.838 1.241-5 1.241-2.213 0-3.888-.432-5.026-1.299-1.137-.866-1.7-2.142-1.7-3.83v-4.482h5.763v4.822c0 .412.075.71.225.893.15.184.412.276.775.276.337 0 .587-.09.737-.269.15-.177.225-.478.225-.9v-2.533c0-.347-.075-.668-.225-.965-.15-.298-.412-.62-.775-.967l-5.225-4.887c-.537-.498-.925-.998-1.15-1.501-.237-.504-.35-1.178-.35-2.022v-2.516z" fill="#fff" stroke="#313131" stroke-width=".5" stroke-miterlimit="10"/><path d="M1413.325 1164.329c13.6 0 24.65 10.811 24.65 24.127 0 13.317-11.05 24.127-24.65 24.127-13.613 0-24.663-10.81-24.663-24.127 0-13.316 11.05-24.127 24.663-24.127z" fill="#48484a" fill-rule="evenodd" stroke="#000" stroke-miterlimit="10" stroke-width="1.25"/><path d="M1413.463 1170.227c10.425 0 18.887 8.283 18.887 18.484 0 10.203-8.462 18.485-18.887 18.485s-18.888-8.282-18.888-18.485c0-10.201 8.462-18.483 18.887-18.483z" fill="#48484a" fill-rule="evenodd" stroke="#000" stroke-width="2.5" stroke-miterlimit="10"/><path d="M1413.487 1179.142v19.178" fill="none" stroke="#000" stroke-width="4.375" stroke-miterlimit="10"/><path d="M121.782 1065.62c-.803-13.856 1416.143-9.377 1417.043 0" fill="none" stroke="#000" stroke-width="3.75" stroke-miterlimit="10"/><path d="M1348.85 1145.004c0-25.038-20.325-45.365-45.362-45.365H358.7c-25.037 0-45.365 20.327-45.365 45.365v70.498c0 25.038 20.328 45.365 45.365 45.365h944.786c25.038 0 45.363-20.327 45.363-45.365v-70.498z" fill="#333" fill-rule="evenodd"/><path d="M1348.963 1208.4c0-12.677-10.288-22.971-22.963-22.971H336.29c-12.678 0-22.97 10.293-22.97 22.971v45.94c0 12.678 10.292 22.97 22.97 22.97H1326c12.675 0 22.963-10.292 22.963-22.97v-45.94z" fill="#333" fill-rule="evenodd"/><path d="M1170.576 1184.109c0-4.944-4.013-8.958-8.956-8.958H507.298c-4.944 0-8.957 4.014-8.957 8.958v4.729c0 4.943 4.013 8.957 8.957 8.957h654.322c4.943 0 8.956-4.014 8.956-8.957v-4.73z" fill="#368123" fill-rule="evenodd" stroke="#000" stroke-miterlimit="10" stroke-width="1.25"/><path d="M541.9 1178.165c4.25 0 7.7 3.451 7.7 7.701s-3.45 7.7-7.7 7.7a7.704 7.704 0 0 1-7.701-7.7 7.705 7.705 0 0 1 7.701-7.701zM637.33 1178.165c4.25 0 7.7 3.451 7.7 7.701s-3.45 7.7-7.7 7.7a7.704 7.704 0 0 1-7.701-7.7 7.705 7.705 0 0 1 7.701-7.701zM727.4 1178.165a7.705 7.705 0 0 1 7.701 7.701c0 4.25-3.451 7.7-7.701 7.7a7.704 7.704 0 0 1-7.701-7.7 7.705 7.705 0 0 1 7.701-7.701zM809.726 1178.165a7.705 7.705 0 0 1 7.701 7.701c0 4.25-3.45 7.7-7.7 7.7s-7.7-3.45-7.7-7.7 3.45-7.701 7.7-7.701zM854.586 1178.165c4.25 0 7.7 3.451 7.7 7.701s-3.45 7.7-7.7 7.7a7.704 7.704 0 0 1-7.701-7.7c0-4.25 3.45-7.701 7.701-7.701zM898.361 1178.165c4.25 0 7.7 3.451 7.7 7.701s-3.45 7.7-7.7 7.7a7.704 7.704 0 0 1-7.701-7.7 7.705 7.705 0 0 1 7.701-7.701zM947.626 1178.165c4.25 0 7.7 3.451 7.7 7.701s-3.45 7.7-7.7 7.7a7.704 7.704 0 0 1-7.701-7.7 7.705 7.705 0 0 1 7.701-7.701zM1029.779 1178.165a7.705 7.705 0 0 1 7.701 7.701c0 4.25-3.451 7.7-7.701 7.7s-7.7-3.45-7.7-7.7 3.45-7.701 7.7-7.701zM1081.189 1178.165c4.25 0 7.7 3.451 7.7 7.701s-3.45 7.7-7.7 7.7a7.704 7.704 0 0 1-7.702-7.7 7.705 7.705 0 0 1 7.702-7.701zM1128.105 1178.165a7.705 7.705 0 0 1 7.701 7.701c0 4.25-3.45 7.7-7.701 7.7-4.25 0-7.7-3.45-7.7-7.7s3.45-7.701 7.7-7.701z" fill="#afef9f" fill-rule="evenodd" stroke="#000" stroke-width=".625" stroke-miterlimit="10"/><path d="M1206.044 1186.582c0-8.69-7.055-15.743-15.744-15.743H474.358c-8.69 0-15.744 7.053-15.744 15.743 0 8.69 7.055 15.744 15.744 15.744H1190.3c8.689 0 15.744-7.055 15.744-15.743z" fill="none" stroke="#000" stroke-width=".625" stroke-miterlimit="10"/><text style="-inkscape-font-specification:ArialMT" transform="matrix(1.17526 0 0 1.32051 1145.505 1229.54)" font-weight="400" font-size="15.146" font-family="Arial" fill="#fcfcfc"><tspan y="0" x="0 9.2509327 21.250792 30.501724 43.119522 54.057674 62.481659 70.90564 79.32962">TL-MR3420</tspan></text><text style="-inkscape-font-specification:ArialMT" transform="matrix(1.17526 0 0 1.32051 374.805 1229.128)" font-weight="400" font-size="15.146" font-family="Arial" fill="#fcfcfc"><tspan y="0" x="0 8.4239826 20.204231 24.411678 32.835659 37.04311 45.467091 53.891075 69.880287 84.174698 87.540054 92.585052 101.00903 104.37439 112.79837 120.36966 132.1499 147.2955 158.23366 166.65764 175.08162 179.28906 187.71306">3G/3.75GWirelessNRouter</tspan></text><text style="-inkscape-font-specification:ArialMT" transform="matrix(1.17526 0 0 1.32051 527.851 1160.503)" font-weight="400" font-size="12.306" font-family="Arial" fill="#fcfcfc"><tspan y="0" x="0 8.2067385 19.820951 76.577766 84.7845 92.991241 153.1543 164.76851 171.61299 179.81973 239.98894 278.27844 313.14938 354.85742 413.66071 424.763 432.96973 462.8876 469.73209 497.75854 507.32999 515.53674">PWRSYSWLAN1234WAN3GQSS</tspan></text></svg>