<?xml version="1.0" encoding="UTF-8"?>
<!DOCTYPE svg  PUBLIC '-//W3C//DTD SVG 1.1//EN'  'http://www.w3.org/Graphics/SVG/1.1/DTD/svg11.dtd'>
<svg clip-rule="evenodd" fill-rule="evenodd" stroke-linecap="round" stroke-linejoin="round" stroke-miterlimit="1.4142" version="1.1" viewBox="0 0 1280 1150" xmlns="http://www.w3.org/2000/svg"><g transform="matrix(-.62657 2.0152e-16 -2.0152e-16 -.62657 831.5 609.22)"><g id="Pol"><rect x="996.04" y="445.55" width="89.892" height="37.135" fill="#1a1a1a" stroke="#000" stroke-width="1.6px"/><g transform="matrix(1 0 0 .95426 0 22.187)"><path d="m962.84 440.73h35.214c-1.132 14.852-0.913 29.649 0 44.388h-35.214v-44.388z" fill="#1a1a1a" stroke="#000" stroke-width="1.63px"/></g><path d="m1084.5 442.64h82.76c21.8 0.326 24.53 45.197 0 44.925h-82.76v-44.925z" fill="#808080" stroke="#000" stroke-width="1.6px"/></g></g><g id="Hülle" transform="translate(130.97)"><g transform="matrix(1.6507 0 0 1.6507 -361.81 -259.98)"><path d="m508 287.92-132.18 132.18v334.96c0 28.322 12.914 37.382 37.382 37.382h391.17c22.858 0 37.382-9.376 37.382-37.382v-418.75c0-33.79-16.477-48.385-48.384-48.385h-285.37z" fill="#fff" stroke="#000" stroke-width="1.82px"/></g><path d="m947.81 241.33c32.635 0 53.813 11.224 53.813 53.818v696.9c0 19.519-6.927 33.529-33.527 33.529h-647.69c-24.573 0-33.531-12.84-33.531-33.529v-558.82l191.9-191.9h469.04z" fill="#d9d9d9" stroke="#313131" stroke-width="7px"/><path d="m476.69 215.21-217.83 218.2h-9.149v-214.13c0-2.761 1.559-4.066 4.476-4.066h222.51z" fill="#fff" stroke="#000" stroke-width="3px"/></g><g transform="matrix(1.0071 0 0 .83349 -1.6195 52.95)"><rect x="229.38" y="249" width="150.24" height="140.38" fill="#fff" stroke="#000" stroke-width="3.25px"/></g><g transform="matrix(1.0071 0 0 .12468 -1.6195 278.85)"><rect x="229.38" y="249" width="150.24" height="140.38" fill="none" stroke="#000" stroke-width="4.18px"/></g></svg>
