<svg xmlns="http://www.w3.org/2000/svg" viewBox="0 0 1600 1437.5" height="1437.5" width="1600"><g stroke-miterlimit="10"><path d="M188.859 412.57h70.404v-29.085h-70.404v29.085z" fill="#191919" fill-rule="evenodd" stroke="#000" stroke-width="1.25"/><path d="M257.688 414.751h27.58v-33.175h-27.58v33.175z" fill="#191919" fill-rule="evenodd" stroke="#000" stroke-width="1.25"/><path d="M189.974 414.85h-64.819c-17.075-.256-19.209-35.399 0-35.186h64.819v35.186z" fill="gray" fill-rule="evenodd" stroke="#000" stroke-width="1.25"/><path d="M759.638 269.105L486.914 541.829v691.146c0 58.44 26.646 77.133 77.132 77.133h807.117c47.175 0 77.137-19.347 77.137-77.133V368.94c0-69.721-34-99.835-99.837-99.835H759.638z" fill="#fff" fill-rule="evenodd" stroke="#000" stroke-width="3.75"/><path d="M1348.463 301.668c40.8 0 67.275 14.03 67.275 67.272v871.124c0 24.398-8.663 41.915-41.913 41.915H564.208c-30.717 0-41.914-16.055-41.914-41.915V541.536l239.869-239.868h586.3z" fill="#d9d9d9" fill-rule="evenodd" stroke="#313131" stroke-width="8.75"/><path d="M759.566 269.014L487.274 541.763h-11.436V274.096c0-3.451 1.948-5.082 5.595-5.082h278.133z" fill="#fff" fill-rule="evenodd" stroke="#000" stroke-width="3.75"/><path d="M286.721 471.873h189.12V325.615h-189.12v146.258z" fill="#fff" fill-rule="evenodd" stroke="#000" stroke-width="3.75"/><path d="M286.721 409.245h189.12v-21.879h-189.12v21.879z" fill="none" stroke="#000" stroke-width="3.75"/></g></svg>