<svg xmlns="http://www.w3.org/2000/svg" viewBox="0 0 1600 1437.5" height="1437.5" width="1600"><path d="M184.138 1226.22l.194 31.626c439.75 17 877.901 15.112 1316.206 0l.164-31.627c-438.316-28.757-876.915-28.575-1316.563 0z" fill="#0d0d0d" fill-rule="evenodd" stroke="#000" stroke-linecap="round" stroke-linejoin="round" stroke-miterlimit="1.414" stroke-width="1.25"/><path d="M1500.539 1257.546c-440.022 15.679-878.872 17.069-1316.205 0v26.708c433.145 54.962 872.158 52.23 1316.205 0v-26.708z" fill="#191919" fill-rule="evenodd" stroke="#000" stroke-linecap="round" stroke-linejoin="round" stroke-miterlimit="1.414" stroke-width="1.25"/><path d="M310.13 1298.592l24.834 34.938c338.827 10.853 677.653 10.31 1016.477 0l14.816-34.938c-351.889 33.755-703.962 35.26-1056.127 0z" fill="#0d0d0d" fill-rule="evenodd" stroke="#000" stroke-linecap="round" stroke-linejoin="round" stroke-miterlimit="1.414" stroke-width="1.25"/><path d="M184.135 1226.234l25.968-96.638c424.548-35.711 844.255-34.26 1259.687 0l30.911 96.638c-438.866-27.163-1316.566 0-1316.566 0z" fill="#191919" fill-rule="evenodd" stroke="#000" stroke-linecap="round" stroke-linejoin="round" stroke-miterlimit="1.414" stroke-width="1.25"/><path d="M214.28 1112.707c416.264-28.848 832.467-35.078 1248.561 0l-22.596-89.011c-407.519-36.68-807.149-30.678-1202.217 0l-23.747 89.011z" fill="#191919" fill-rule="evenodd" stroke="#000" stroke-linecap="round" stroke-linejoin="round" stroke-miterlimit="1.414" stroke-width="1.25"/><path d="M239.653 1010.48c401.464-30.707 800.096-33.285 1195.12 0l-28.187-90.992c-377.814-33.298-759.098-30.822-1143.132 0l-23.8 90.992z" fill="#191919" fill-rule="evenodd" stroke="#000" stroke-linecap="round" stroke-linejoin="round" stroke-miterlimit="1.414" stroke-width="1.25"/><path d="M1462.831 1112.564c-419.171-32.827-835.032-30.908-1248.263 0v16.615c417.7-33.037 834.188-35.604 1249.136 0l-.873-16.615zM239.768 1010.561v13.03c399.322-33.132 797.68-33.866 1195.008-.43v-12.6c-397.922-32.737-796.273-31.46-1195.008 0z" fill="#0d0d0d" fill-rule="evenodd" stroke="#000" stroke-linecap="round" stroke-linejoin="round" stroke-miterlimit="1.414" stroke-width="1.25"/><path d="M547.38 1231.422c-10.891.05-11.941 23.99 4.058 24.41 17.25.452 14.818-24.165 4.019-24.41M551.313 1245.679v-18.297" fill="none" stroke="#29ac37" stroke-width="3.75" stroke-linecap="round" stroke-linejoin="round" stroke-miterlimit="1.414"/><path d="M611.989 1227.381l2.389 7.22 4.604-2.23-.738 4.989h7.731l-6.255 4.463 3.584 3.61-5.06.852 2.389 7.221-6.255-4.463-2.39 4.463-2.388-4.463-6.255 4.463 2.389-7.22-5.06-.853 3.583-3.61-6.255-4.463h7.732l-.739-4.99 4.605 2.232 2.389-7.22z" fill="#29ac37" fill-rule="evenodd" stroke="#29ac37" stroke-linecap="round" stroke-linejoin="round" stroke-miterlimit="1.414" stroke-width="1.25"/><path d="M665.625 1251.949c3.796-3.824 7.604-3.07 11.418 0M661.522 1243.313c6.47-4.927 12.888-4.776 19.257 0M658.174 1236.06c8.476-6.123 17.117-6.831 25.988 0M725.64 1252.469c3.796-3.824 7.603-3.07 11.417 0M721.536 1243.833c6.471-4.927 12.889-4.776 19.258 0M718.189 1236.58c8.475-6.122 17.116-6.83 25.988 0M782.937 1245.067h-4.096v-12.88h22.679v12.88h-3.792" fill="none" stroke="#29ac37" stroke-width="3.75" stroke-linecap="round" stroke-linejoin="round" stroke-miterlimit="1.414"/><path d="M782.869 1254.02H790.44v-9.744M844.41 1245.718h-4.097v-12.88h22.68v12.88H859.2" fill="none" stroke="#29ac37" stroke-width="3.75" stroke-linecap="round" stroke-linejoin="round" stroke-miterlimit="1.414"/><path d="M844.341 1254.671H851.912v-9.744M904.049 1245.71h-4.096v-12.88h22.679v12.88h-3.792" fill="none" stroke="#29ac37" stroke-width="3.75" stroke-linecap="round" stroke-linejoin="round" stroke-miterlimit="1.414"/><path d="M903.98 1254.662h7.572v-9.743M965.546 1245.565h-4.096v-12.88h22.68v12.88h-3.792" fill="none" stroke="#29ac37" stroke-width="3.75" stroke-linecap="round" stroke-linejoin="round" stroke-miterlimit="1.414"/><path d="M965.478 1254.519H973.05v-9.745M1016.368 1245.661c-2.153 3.165-2.153 6.025 0 8.581 15.498-1.76 26.02-7.893 32.28-17.767-1.145-2.387-3.025-3.407-5.435-3.444M1022.48 1242.901c-.555-10.492 2.774-15.566 16.226-6.522M1077.83 1231.606c-3.938 6.86-1.968 13.412 2.318 19.842l3.133-6.177M1093.559 1250.029c3.93-9.105 2.609-16.068-3.724-20.989l-2.78 8.156M1127.036 1236.249c-.9 17.439 26.199 11.004 22.168-2.453" fill="none" stroke="#29ac37" stroke-width="3.75" stroke-linecap="round" stroke-linejoin="round" stroke-miterlimit="1.414"/><path d="M1137.989 1255.204v-29.373l4.472 7.676h-10.31l5.838-7.676" fill="none" stroke="#29ac37" stroke-width="3.75" stroke-linecap="round" stroke-linejoin="round" stroke-miterlimit="1.414"/><path d="M266.259 141.315c26.698 155.001 53.343 309.832 78.62 467.091 9.318 57.973 14.53 116.565 19.697 175.184l19.435 127.133 62.653-3.844-133.581-774.804-46.824 9.24z" fill="#0d0d0d" fill-rule="evenodd" stroke="#000" stroke-linecap="round" stroke-linejoin="round" stroke-miterlimit="1.414" stroke-width="1.25"/><path d="M289.094 111.417c28.643-3.249 31.821 26.657 8.034 50.425l89.02 538.657 21.097 65.826 32.913 140.994-45.462 2.783-20.454-201.731-90.476-539.308c-21.68-24.283-30.826-54.29 5.328-57.646" fill="#333" fill-rule="evenodd" stroke="#000" stroke-linecap="round" stroke-linejoin="round" stroke-miterlimit="1.414" stroke-width="1.25"/><path d="M1287.571 910.101l20.318-145.159c5.696-67.439 9.984-135.403 22.175-202.325 25.803-141.64 43.401-276.986 63.83-413.891l-45.569-11.318c-29.07 205.23-59.47 410.479-100.369 615.88l-24.913 152.874 64.528 3.94z" fill="#0d0d0d" fill-rule="evenodd" stroke="#000" stroke-linecap="round" stroke-linejoin="round" stroke-miterlimit="1.414" stroke-width="1.25"/><path d="M1364.73 169.026c-8.813-9.34-14.574-19.834-16.521-31.772 4.691-30.064 43.305-27.692 46.205 0 1.913 12.613-3.574 23.005-14.474 31.772l-85.521 552.547v34.5l-8.185 154.022-61.59-3.842 57.178-180.275 82.908-556.952z" fill="#333" fill-rule="evenodd" stroke="#000" stroke-linecap="round" stroke-linejoin="round" stroke-miterlimit="1.414" stroke-width="1.25"/></svg>