<svg xmlns="http://www.w3.org/2000/svg" viewBox="0 0 1600 1437.5" height="1437.5" width="1600"><path d="M148.999 191.275c1.952 3.468 29.709-4.437 33.87-8.737l-1.598 2.175c.003.012 1.142 5.28.787 4.555l2.002-.83c-4.076 4.713-27.096 12.006-33.814 9.292l2.684.421c0-3.093-.983-2.972-.983-5.695" fill="#333" fill-rule="evenodd" stroke="#000" stroke-width="5.625" stroke-miterlimit="10"/><path d="M148.85 191.095c-.188-2.28-9.124-40.545-6.901-46.057 2.338-5.788 8.136-8.7 14.097-9.675 5.599-.925 12.29-.825 16.249 4.6 4.166 5.725 10.216 40.812 10.526 42.35-11.087 6.63-22.431 9.85-34.095 8.813M312.402 967.241c-26.388-119.933-104.093-417.667-104.865-440.74-.497-14.886-4.455-42.225-8.237-67.717-14.22-95.833-44.361-237.611-48.94-259.529 12.425-1.174 24.25-3.591 33.89-10.53l-.04-.136c1.586 6.067 10.29 50.94 23.964 108.159 25.28 105.793 63.74 255.745 78.742 294.43 21.129 54.483 88.408 346.983 93.025 365.072-8.58 1.109-53.77 8.547-67.755 11.241" fill="#333" fill-rule="evenodd" stroke="#000" stroke-width="5.625" stroke-miterlimit="10"/><path d="M1282.537 1178.33c5.213 10.9 43.25 11.605 48 0M276.82 1179.141c5.221 10.902 43.259 11.607 48.002 0" fill-rule="evenodd" stroke="#000" stroke-width="2.5" stroke-miterlimit="10"/><path d="M158.392 983.245h1282.82l-4.412 163.634c-1.737 21.501-9.887 31.904-26.475 31.451H194.128c-13.557-.809-23.517-8.527-25.562-31.451l-10.173-163.634z" fill="#333" fill-rule="evenodd" stroke="#000" stroke-width="3.75" stroke-miterlimit="10"/><path d="M158.012 943.444H1441.2v39.816h-96.888v117.566c.463 20.694-11.412 29.468-33.537 28.367H287.739c-17.368.837-27.05-8.292-28.294-28.367V983.26H158.013v-39.816" fill="#fff" fill-rule="evenodd" stroke="#000" stroke-width="3.75" stroke-miterlimit="10"/><path d="M273.46 983.26h1055.703v114.492c.3 8.962-3.45 14.306-13.175 13.968H286.468c-8.297.069-12.53-7.553-13.008-13.967V983.26z" fill="#333" fill-rule="evenodd" stroke="#000" stroke-width="3.75" stroke-miterlimit="10"/><path d="M1073.756 1056.259c0-4.762-3.866-8.628-8.627-8.628H339.2c-4.761 0-8.626 3.866-8.626 8.628v17.255c0 4.761 3.865 8.626 8.626 8.626h725.928c4.761 0 8.627-3.865 8.627-8.626v-17.255zM1193.409 1056.234c0-4.761-3.867-8.626-8.628-8.626h-78.748c-4.763 0-8.628 3.865-8.628 8.626v17.255c0 4.761 3.865 8.627 8.627 8.627h78.75c4.76 0 8.627-3.866 8.627-8.627v-17.255z" fill="none" stroke="#fff" stroke-width="5" stroke-miterlimit="10"/><path d="M1256.075 1020.995c0-6.565-5.337-11.895-11.898-11.895h-68.038c-6.565 0-11.895 5.33-11.895 11.895v67.709c0 6.565 5.33 11.895 11.895 11.895h68.039c6.56 0 11.897-5.33 11.897-11.895v-67.709z" fill="#29ac37" fill-rule="evenodd" stroke="#29ac37" stroke-width="2.5" stroke-miterlimit="10"/><path d="M799.869 1057.194c-7.475.033-8.195 16.466 2.786 16.753 11.839.31 10.17-16.586 2.759-16.753M802.569 1066.979v-12.559" fill="none" stroke="#29ac37" stroke-width="3.75" stroke-miterlimit="10"/><path d="M877.933 1055.21l1.64 4.956 3.16-1.531-.507 3.425h5.306l-4.293 3.063 2.46 2.478-3.473.585 1.64 4.957-4.294-3.064-1.64 3.063-1.64-3.063-4.292 3.063 1.639-4.956-3.473-.585 2.46-2.479-4.294-3.062h5.307l-.507-3.425 3.16 1.531 1.64-4.956z" fill="#29ac37" fill-rule="evenodd" stroke="#29ac37" stroke-miterlimit="10" stroke-width="1.25"/><path d="M877.913 1061.273a3.874 3.874 0 0 1 3.872 3.87 3.874 3.874 0 0 1-3.872 3.873 3.874 3.874 0 0 1-3.872-3.872 3.874 3.874 0 0 1 3.871-3.872z" fill="#333" fill-rule="evenodd"/><path d="M1021.849 1072.64c2.605-2.625 5.219-2.107 7.836 0M1019.033 1066.711c4.44-3.381 8.846-3.277 13.217 0M1016.735 1061.734c5.817-4.203 11.747-4.689 17.837 0M945.639 1066.626h-2.813v-8.841h15.568v8.841h-2.603" fill="none" stroke="#29ac37" stroke-width="3.75" stroke-miterlimit="10"/><path d="M945.591 1072.771h9.474-4.278v-6.688" fill="none" stroke="#29ac37" stroke-width="3.75" stroke-miterlimit="10"/><path d="M1127.669 1073.819h15.428v-9.977h-15.428v9.977z" fill="#29ac37" fill-rule="evenodd" stroke="#29ac37" stroke-width=".9375" stroke-miterlimit="10"/><path d="M1129.844 1063.841c.043-7.337 10.285-7.298 10.352 0" fill="none" stroke="#29ac37" stroke-width="2.5" stroke-miterlimit="10"/><text style="-inkscape-font-specification:Swiss911BT-ExtraCompressed" transform="matrix(1.25 0 0 1.25 787.449 1038.243)" font-size="12" font-family="Swiss 911" fill="#fff"><tspan y="0" x="0 4.4411998 8.4960003 14.6892 18.743999 58.792801 63.211201 66.885597 70.882797 73.273201 77.328003 123.9564 127.8528 132.60361 180 187.2588 191.1552 195.90601 272.5116 277.0116 281.42999 330.8364 335.3364 339.75479">PowerSystemLANWLANQSSQSS</tspan></text><text style="-inkscape-font-specification:Swiss911BT-ExtraCompressed" transform="matrix(1.25 0 0 1.25 346.834 1038.243)" font-size="12" font-family="Swiss 911" fill="#fff"><tspan y="0" x="0 4.6307998 8.6940002 12.1236 19.7724 25.124399 30.283199 35.442001 40.6008 46.2864">TL-WA701ND</tspan></text><text style="-inkscape-font-specification:Swiss911BT-ExtraCompressed" transform="matrix(1.25 0 0 1.25 346.834 1069.58)" font-size="12" font-family="Swiss 911" fill="#fff"><tspan y="0" x="0 5.1588001 10.3176 15.4764 23.096399 27.774 32.451599 39.926399 47.7864 50.4132 55.208401 59.863201 62.490002 67.144798 71.740799 79.215599 83.489998 86.116798 89.107201 96.6408 105.2064 110.5584 115.1664 119.7744 124.4292 129.02521 136.5 141.5412 146.196 148.8228 153.51241">150MbpsWirelessLiteNAccessPoint</tspan></text><path d="M1209.358 1055.975c7.538 0 13.657 5.934 13.657 13.242 0 7.31-6.119 13.243-13.658 13.243-7.537 0-13.657-5.934-13.657-13.242 0-7.31 6.12-13.243 13.658-13.243z" fill="#6c6c6c" fill-rule="evenodd" stroke="#231f20" stroke-width="4.375" stroke-miterlimit="10"/></svg>