<?xml version="1.0" encoding="UTF-8"?>
<!DOCTYPE svg  PUBLIC '-//W3C//DTD SVG 1.1//EN'  'http://www.w3.org/Graphics/SVG/1.1/DTD/svg11.dtd'>
<svg clip-rule="evenodd" fill-rule="evenodd" stroke-linecap="round" stroke-linejoin="round" stroke-miterlimit="1.4142" version="1.1" viewBox="0 0 1280 1150" xmlns="http://www.w3.org/2000/svg"><g id="Hülle" transform="translate(-19.818 -48.606)"><g transform="matrix(1.6507 0 0 1.6507 -361.81 -259.98)"><path d="m431.08 287.92c-31.353 0-55.25 23.336-55.25 48.385v418.75c0 28.322 12.914 37.382 37.382 37.382h391.17c22.858 0 37.382-9.376 37.382-37.382v-418.75c0-33.79-16.477-48.385-48.384-48.385h-362.3z" fill="#fff" stroke="#000" stroke-width="1.82px"/></g><path d="m947.81 241.33c32.635 0 53.813 11.224 53.813 53.818v696.9c0 19.519-6.927 33.529-33.527 33.529h-647.69c-24.573 0-33.531-12.84-33.531-33.529v-696.9c0-30.479 29.819-53.818 61.319-53.818h599.62z" fill="#51c1ff" stroke="#000" stroke-width="3px"/><g transform="matrix(.96986 0 0 .96986 19.416 19.091)"><path d="m947.81 241.33c32.635 0 53.813 11.224 53.813 53.818v696.9c0 19.519-6.927 33.529-33.527 33.529h-647.69c-24.573 0-33.531-12.84-33.531-33.529v-696.9c0-30.479 29.819-53.818 61.319-53.818h599.62z" fill="#84d0fa" stroke="#000" stroke-width="3.09px"/></g><g transform="translate(13.971 42.759)"><path d="m418.07 829.88c0-5.276-4.283-9.558-9.558-9.558h-59.746c-5.275 0-9.558 4.282-9.558 9.558v75.346c0 5.275 4.283 9.558 9.558 9.558h59.746c5.275 0 9.558-4.283 9.558-9.558v-75.346z" fill="#263874" stroke="#3e5283" stroke-width="3px"/></g></g></svg>
