<?xml version="1.0" encoding="UTF-8"?>
<!DOCTYPE svg  PUBLIC '-//W3C//DTD SVG 1.1//EN'  'http://www.w3.org/Graphics/SVG/1.1/DTD/svg11.dtd'>
<svg clip-rule="evenodd" fill-rule="evenodd" stroke-linecap="round" stroke-linejoin="round" stroke-miterlimit="1.4142" version="1.1" viewBox="0 0 1280 1150" xmlns="http://www.w3.org/2000/svg"><g id="Antennen-neu-weiss" transform="matrix(1.0764 0 0 1.2467 -88.543 194.08)"><g id="Antenne-weis" transform="matrix(1 0 0 .88052 299.3 -274.82)"><g transform="matrix(1.5373 0 0 .98991 -676.15 358.92)"><rect x="824.25" y="373.01" width="30.241" height="36.613" fill="#0e0e0e" stroke="#252525" stroke-width=".57px"/></g><g transform="matrix(1 0 0 .92851 -.10997 78.666)"><path d="m596.84 146.05c1.306-11.713 32.784-11.62 34.626 0 0 0 0.893 159.23 0 308.27-1.083 180.94 6.254 178.46 6.254 231.36h-46.606c0.092-35.237 3.948-118.8 3.647-231.36-0.397-148.67 1.725-305.58 2.079-308.27" fill="#c9c9d1" stroke="#35343a" stroke-width=".43px"/></g><g transform="matrix(1 0 0 .74294 0 206.71)"><path d="m619.46 641.73v-600.68c-4.147 4.192-6.161 4.767-10.629 0v600.68c-3.767 15.739-9.126 30.737-17.827 42.879v80.289c4.993-0.811 8.369-4.858 8.187-16.027v-34.033h31.392v34.033c-0.225 10.9 1.973 16.555 7.027 16.027v-80.289c-10.47-13.495-15.348-28.242-18.15-42.879z" fill="#e7e8ed" stroke="#35343a" stroke-width=".47px"/></g><g transform="matrix(1.494 0 0 1.2606 -640.36 258.7)"><path d="m837.28 402.88v-24.163h3.566v24.163h-3.566" fill="#d9d9d9" stroke="#7a7a7a" stroke-width=".53px"/></g><g transform="matrix(1.494 0 0 1.2606 -640.36 258.7)"><path d="m830.92 413.1v-27.677h4.737v15.167h7.35v-15.167h5.312v27.677h-17.399z" fill="#c9c9d1" stroke="#252525" stroke-opacity=".99216" stroke-width=".53px"/></g><g transform="matrix(1.5195 0 0 1.242 -661.16 267.44)"><path d="m829.28 378.88h21.02c0-5.587-3.234-8.609-10.147-8.635-7.442-0.029-10.764 3.226-10.873 8.635" fill="#c9c9d1"/></g><g transform="matrix(1.494 0 0 1.6266 -640.36 108.94)"><path d="m823.67 432.66 31.578-3.997v-15.807c-10.544-4.648-21.071-4.948-31.578 0v19.804" fill="#c9c9d1" stroke="#252525" stroke-opacity=".99216" stroke-width=".47px"/></g><g transform="matrix(1 0 0 .93064 0 78.203)"><path d="m596.84 146.05c1.306-11.713 32.784-11.62 34.626 0 0.536 4.222-0.782 7.994-3.208 12.498-2.441 4.532-5.222 8.684-8.798 12.299-4.147 4.192-6.161 4.767-10.629 0-3.295-3.516-6.263-7.633-8.932-12.299-2.046-3.877-3.391-7.952-3.059-12.498" fill="#dbdbe1" stroke="#35343a" stroke-width=".43px"/></g></g><g id="Antenne-weis1" transform="matrix(1 0 0 .88052 -216.45 -274.91)"><g transform="matrix(1.5373 0 0 .98991 -676.15 358.92)"><rect x="824.25" y="373.01" width="30.241" height="36.613" fill="#0e0e0e" stroke="#252525" stroke-width=".57px"/></g><g transform="matrix(1 0 0 .92851 -.10997 78.666)"><path d="m596.84 146.05c1.306-11.713 32.784-11.62 34.626 0 0 0 0.893 159.23 0 308.27-1.083 180.94 6.254 178.46 6.254 231.36h-46.606c0.092-35.237 3.948-118.8 3.647-231.36-0.397-148.67 1.725-305.58 2.079-308.27" fill="#c9c9d1" stroke="#35343a" stroke-width=".43px"/></g><g transform="matrix(1 0 0 .74294 0 206.71)"><path d="m619.46 641.73v-600.68c-4.147 4.192-6.161 4.767-10.629 0v600.68c-3.767 15.739-9.126 30.737-17.827 42.879v80.289c4.993-0.811 8.369-4.858 8.187-16.027v-34.033h31.392v34.033c-0.225 10.9 1.973 16.555 7.027 16.027v-80.289c-10.47-13.495-15.348-28.242-18.15-42.879z" fill="#e7e8ed" stroke="#35343a" stroke-width=".47px"/></g><g transform="matrix(1.494 0 0 1.2606 -640.36 258.7)"><path d="m837.28 402.88v-24.163h3.566v24.163h-3.566" fill="#d9d9d9" stroke="#7a7a7a" stroke-width=".53px"/></g><g transform="matrix(1.494 0 0 1.2606 -640.36 258.7)"><path d="m830.92 413.1v-27.677h4.737v15.167h7.35v-15.167h5.312v27.677h-17.399z" fill="#c9c9d1" stroke="#252525" stroke-opacity=".99216" stroke-width=".53px"/></g><g transform="matrix(1.5195 0 0 1.242 -661.16 267.44)"><path d="m829.28 378.88h21.02c0-5.587-3.234-8.609-10.147-8.635-7.442-0.029-10.764 3.226-10.873 8.635" fill="#c9c9d1"/></g><g transform="matrix(1.494 0 0 1.6266 -640.36 108.94)"><path d="m823.67 432.66 31.578-3.997v-15.807c-10.544-4.648-21.071-4.948-31.578 0v19.804" fill="#c9c9d1" stroke="#252525" stroke-opacity=".99216" stroke-width=".47px"/></g><g transform="matrix(1 0 0 .93064 0 78.203)"><path d="m596.84 146.05c1.306-11.713 32.784-11.62 34.626 0 0.536 4.222-0.782 7.994-3.208 12.498-2.441 4.532-5.222 8.684-8.798 12.299-4.147 4.192-6.161 4.767-10.629 0-3.295-3.516-6.263-7.633-8.932-12.299-2.046-3.877-3.391-7.952-3.059-12.498" fill="#dbdbe1" stroke="#35343a" stroke-width=".43px"/></g></g></g><g id="Rumpf-Neu"><g transform="matrix(1.3894 0 0 1.7623 -240.72 -492.96)"><path d="m373.36 829.87c117.56 14.274 404.63 11.632 468.83 4.764 41.374-4.426 62.293-15.461 65.646-27.923 11.088-41.206 2.117-80.022-21.868-116.71-5.809-8.886-22.321-18.093-35.861-21-94.911-20.375-366.99-25.093-458.22 0-17.059 4.692-30.327 22.609-36.763 32.368-21.774 36.447-32.125 54.248-30.717 95.6 0.729 21.423 28.983 30.478 48.953 32.903z" fill="#333"/></g><g transform="matrix(1.3894 0 0 1.8473 -240.72 -566.35)"><path d="m373.36 829.87c117.56 14.274 404.63 11.632 468.83 4.764 41.374-4.426 62.293-15.461 65.646-27.923 11.088-41.206 2.117-80.022-21.868-116.71-5.809-8.886-22.321-18.093-35.861-21-94.911-20.375-366.99-25.093-458.22 0-17.059 4.692-30.327 22.609-36.763 32.368-21.774 36.447-32.125 54.248-30.717 95.6 0.729 21.423 28.983 30.478 48.953 32.903z" fill="#fff" stroke="#000" stroke-width=".61px"/></g><g transform="matrix(1.3894 0 0 1.8473 -240.72 -575.35)"><path d="m373.36 829.87c117.56 14.274 404.63 11.632 468.83 4.764 41.374-4.426 62.293-15.461 65.646-27.923 11.088-41.206 2.117-80.022-21.868-116.71-5.809-8.886-22.321-18.093-35.861-21-94.911-20.375-366.99-25.093-458.22 0-17.059 4.692-30.327 22.609-36.763 32.368-21.774 36.447-32.125 54.248-30.717 95.6 0.729 21.423 28.983 30.478 48.953 32.903z" fill="#fff" stroke="#000" stroke-width="1.22px"/></g><g transform="matrix(1.3436 0 0 1.6353 -212.67 -434.89)"><path d="m374.21 830.21c87.225 8.706 305.65 11.122 468.14 3.057 38.654-1.918 65.453-16.44 66.162-38.642 1.418-44.36-0.511-64.903-23.414-104.02-5.403-9.229-24.926-19.442-37.86-22.594-94.247-22.963-374.38-23.092-453.3-0.241-22.502 6.515-25.964 16.366-35.969 27.727-17.444 19.807-26.724 58.119-29.219 99.125-0.926 15.228 15.977 32.319 45.466 35.585z" fill="#919191" stroke="#000" stroke-width=".67px"/></g><g transform="matrix(1.3145 0 0 1.5927 -194.28 -409.37)"><path d="m374.08 833.12c134.81 11.373 429.35 7.061 476.03 3.14 41.464-3.483 58.215-21.187 59.888-33.878 4.963-37.652-0.042-75.691-24.027-112.38-5.809-8.886-22.321-18.093-35.861-21-94.911-20.375-366.99-25.093-458.22 0-17.059 4.692-26.009 11.241-32.444 21-21.774 36.447-34.284 71.03-32.877 112.38 0.729 21.423 27.468 29.047 47.514 30.738z" fill="#fff" stroke="#000" stroke-width=".68px"/></g><g transform="matrix(1.2576 0 0 1.4052 -160.5 -282.01)"><path d="m358.71 839.48c41.213 10.987 470 13.511 520.81 0 26.663-7.09 31.782-22.668 31.282-44.847-0.91-40.373-4.747-67.358-24.209-104.63-4.915-9.411-16.652-16.996-29.586-20.147-94.247-22.963-380.77-25.946-472-0.853-17.894 7.203-19.858 11.241-26.293 21-20.211 37.842-29.1 62.974-30.707 104.63-0.493 12.787-5.396 35.222 30.707 44.847z" fill="#919191" stroke="#000" stroke-width=".75px"/></g><g transform="matrix(1.2422 0 0 1.4239 -150.44 -298.32)"><path d="m374.08 835.63c151.96 7.961 399.69 7.501 495.81 0.15 0.646-0.049 1.276-0.1 1.889-0.15 22.723-1.876 37.727-16.399 38.22-33.25 1.18-40.366-3.576-73.863-24.027-112.38-4.999-9.415-22.321-18.093-35.861-21-94.911-20.375-366.99-25.093-458.22 0-17.059 4.692-26.009 11.241-32.444 21-20.211 37.842-28.961 71.888-29.834 112.38-0.462 21.431 24.381 32.197 44.471 33.25z" fill="#fff" stroke="#000" stroke-width=".75px"/></g><g transform="matrix(1.1855 0 0 1.2714 -114.84 -186.87)"><path d="m360.22 837.64c93.046 7.48 455 9.566 520.09 0 23.76-3.491 30.368-20.808 29.692-43.011-1.228-40.365-3.952-67.358-23.414-104.63-4.915-9.411-16.652-16.996-29.586-20.147-94.247-22.963-380.77-25.946-472-0.853-17.894 7.203-19.858 11.241-26.293 21-20.211 37.842-29.1 62.974-30.707 104.63-0.493 12.787-0.25 40.402 32.218 43.011z" fill="#919191" stroke="#000" stroke-width=".81px"/></g><g transform="matrix(1.1615 0 0 1.282 -99.956 -200.87)"><path d="m374.08 838.44c175.35 4.845 433.21 5.457 499.31 0 22.723-1.876 36.117-13.59 36.61-30.44 1.18-40.366-3.576-79.482-24.027-118-4.999-9.415-22.321-18.093-35.861-21-94.911-20.375-366.99-25.093-458.22 0-17.059 4.692-26.009 11.241-32.444 21-20.211 37.842-30.571 77.507-31.444 118-0.462 21.43 26.152 30.44 46.081 30.44z" fill="#fff" stroke="#000" stroke-width=".82px"/></g><g transform="matrix(1.1082 0 0 1.1727 -67.492 -122.56)"><path d="m356 838.29c91.586 8.465 459.9 7.163 526 1.706 22.723-1.876 27.507-15.15 28-32 1.18-40.366-3.952-80.729-23.414-118-4.915-9.411-16.652-16.996-29.586-20.147-94.247-22.963-380.77-25.946-472-0.853-17.894 7.203-19.858 11.241-26.293 21-20.211 37.842-31.869 77.513-30.707 118 0.346 12.035 3.793 28.057 28 30.294z" fill="#919191" stroke="#000" stroke-width=".88px"/></g><g transform="matrix(1.0773 0 0 1.131 -47.351 -95.388)"><path d="m356 840c175.35 4.845 459.9 5.457 526 0 22.723-1.876 27.507-15.15 28-32 1.18-40.366-3.73-79.856-18-118-3.702-9.895-21.46-18.093-35-21-94.911-20.375-380.77-25.093-472 0-17.059 4.692-22.565 11.241-29 21-20.211 37.842-27.127 77.507-28 118-0.462 21.43 8.071 32 28 32z" fill="#fff" stroke="#000" stroke-width=".91px"/></g><g transform="matrix(1.0189 0 0 1.0372 -11.197 -26.261)"><path d="m356 840c175.35 4.845 459.9 5.457 526 0 22.723-1.876 27.507-15.15 28-32 1.18-40.366-3.73-79.856-18-118-3.702-9.895-21.46-18.093-35-21-94.911-20.375-380.77-25.093-472 0-17.059 4.692-22.565 11.241-29 21-20.211 37.842-27.127 77.507-28 118-0.462 21.43 8.071 32 28 32z" stroke="#000" stroke-width=".97px"/></g><path d="m390 840c24.073 0 35.73-2.684 63-17 27.207-14.283 38.027-15 61-15h208c24.042 0 35.528 3.494 55 15 17.741 10.482 37.517 17 62 17h43c19.824 0 27.507-15.15 28-32 1.18-40.366-3.73-79.856-18-118-3.702-9.895-21.46-18.093-35-21-94.911-20.375-380.77-25.093-472 0-17.059 4.692-22.565 11.241-29 21-20.211 37.842-27.127 77.507-28 118-0.462 21.43 8.071 32 28 32h34z" fill="#fff" stroke="#000" stroke-width="1px"/><path d="m390 840c24.073 0 35.73-2.684 63-17 27.207-14.283 38.027-15 61-15h208c24.042 0 35.528 3.494 55 15 17.741 10.482 37.517 17 62 17h43c19.824 0 27.507-15.15 28-32 1.18-40.366-3.73-79.856-18-118-3.702-9.895-21.46-18.093-35-21-94.911-20.375-380.77-25.093-472 0-17.059 4.692-22.565 11.241-29 21-20.211 37.842-27.127 77.507-28 118-0.462 21.43 8.071 32 28 32h34z" fill="#fff" stroke="#000" stroke-width="1px"/></g><g id="anzeige" transform="matrix(.56724 0 0 .61561 296.02 234.67)"><g transform="matrix(1.1142 4.1502e-17 -3.3233e-17 .81939 -134.21 154.2)" fill="none" stroke="#fff" stroke-width="3px"><path d="m532.5 1001.6c3.037-3.06 6.083-2.457 9.134 0"/><path d="m529.22 994.65c5.176-3.942 10.31-3.82 15.405 0"/><path d="m526.54 988.85c6.781-4.897 13.694-5.464 20.791 0"/></g><g transform="matrix(1.0774 -.0029744 .0025842 .93607 -170.75 40.248)"><g transform="matrix(1 0 -4.3368e-19 1.1418 -6.1173e-14 -139.83)"><path d="m626.35 996.05h-3.276v-10.303h18.143v10.303h-3.033" fill="none" stroke="#fff" stroke-width="3px"/></g><path d="m626.3 1003.2h11.042-4.985v-7.799" fill="none" stroke="#fff" stroke-width="3px"/></g><g transform="matrix(1.0774 -.0029744 .0025842 .93607 -121.7 40.248)"><g transform="matrix(1 0 -4.3368e-19 1.1418 -6.1173e-14 -139.83)"><path d="m626.35 996.05h-3.276v-10.303h18.143v10.303h-3.033" fill="none" stroke="#fff" stroke-width="3px"/></g><path d="m626.3 1003.2h11.042-4.985v-7.799" fill="none" stroke="#fff" stroke-width="3px"/></g><g transform="matrix(1.0774 -.0029744 .0025842 .93607 -71.936 40.248)"><g transform="matrix(1 0 -4.3368e-19 1.1418 -6.1173e-14 -139.83)"><path d="m626.35 996.05h-3.276v-10.303h18.143v10.303h-3.033" fill="none" stroke="#fff" stroke-width="3px"/></g><path d="m626.3 1003.2h11.042-4.985v-7.799" fill="none" stroke="#fff" stroke-width="3px"/></g><g transform="matrix(1.0774 -.0029744 .0025842 .93607 -22.753 40.248)"><g transform="matrix(1 0 -4.3368e-19 1.1418 -6.1173e-14 -139.83)"><path d="m626.35 996.05h-3.276v-10.303h18.143v10.303h-3.033" fill="none" stroke="#fff" stroke-width="3px"/></g><path d="m626.3 1003.2h11.042-4.985v-7.799" fill="none" stroke="#fff" stroke-width="3px"/></g><g id="Inet" transform="matrix(1.633 2.969e-16 -3.6566e-16 2.2347 -493.47 -1248.8)"><g transform="matrix(1.2724 -.22777 .31837 1.7784 -475.11 -424.45)"><ellipse cx="729.35" cy="889.27" rx="6.378" ry="1.404" fill="none" stroke="#fff" stroke-width="1.36px"/></g><g transform="matrix(1.095 0 0 1.0978 -70.618 8.1974)"><ellipse cx="737.8" cy="896.54" rx="5.426" ry="3.783" fill="none" stroke="#fff" stroke-width="1.94px"/></g></g><g id="lock" transform="matrix(1.32 0 0 1.2163 -269.96 -54.253)" fill="none" stroke="#fff" stroke-width="3.34px"><rect x="771.78" y="838.06" width="15.937" height="9.53"/><path d="m773.83 838.06c-0.024-8.796 11.892-8.573 11.915 0"/></g><g transform="matrix(2.8998 -2.5151e-16 -.032611 2.8394 -2052.2 -1945.6)"><path d="m862.86 1021.3c-0.274-0.02-0.55-0.02-0.825 0l-0.124 0.66c-0.262 0.04-0.519 0.1-0.767 0.2l-0.433-0.5c-0.251 0.11-0.49 0.25-0.714 0.41l0.218 0.63c-0.207 0.16-0.396 0.35-0.561 0.56l-0.626-0.22c-0.161 0.22-0.299 0.46-0.413 0.72l0.502 0.43c-0.096 0.24-0.165 0.5-0.205 0.76l-0.652 0.13c-0.027 0.27-0.027 0.55 0 0.82l0.652 0.13c0.04 0.26 0.109 0.52 0.205 0.77l-0.502 0.43c0.114 0.25 0.252 0.49 0.413 0.71l0.626-0.22c0.165 0.21 0.354 0.4 0.561 0.57l-0.218 0.62c0.224 0.16 0.463 0.3 0.714 0.41l0.433-0.5c0.248 0.1 0.505 0.17 0.767 0.21l0.124 0.65c0.275 0.03 0.551 0.03 0.825 0l0.124-0.65c0.263-0.04 0.52-0.11 0.767-0.21l0.433 0.5c0.251-0.11 0.491-0.25 0.715-0.41l-0.219-0.62c0.208-0.17 0.396-0.36 0.562-0.57l0.626 0.22c0.161-0.22 0.299-0.46 0.412-0.71l-0.502-0.43c0.097-0.25 0.166-0.51 0.206-0.77l0.651-0.13c0.027-0.27 0.027-0.55 0-0.82l-0.651-0.13c-0.04-0.26-0.109-0.52-0.206-0.76l0.502-0.43c-0.113-0.26-0.251-0.5-0.412-0.72l-0.626 0.22c-0.166-0.21-0.354-0.4-0.562-0.56l0.219-0.63c-0.224-0.16-0.464-0.3-0.715-0.41l-0.433 0.5c-0.247-0.1-0.504-0.16-0.767-0.2l-0.124-0.66zm-0.412 3.35c0.464 0 0.841 0.38 0.841 0.84 0 0.47-0.377 0.84-0.841 0.84-0.465 0-0.842-0.37-0.842-0.84 0-0.46 0.377-0.84 0.842-0.84z" fill="#fff" stroke="#fff" stroke-width=".41px"/></g><g id="power" transform="matrix(3.3358 -1.1821e-15 9.2371e-16 2.56 -1187.4 -1540.2)"><g transform="matrix(.74223 0 0 .74223 119.22 252.8)"><circle cx="466.64" cy="978.91" r="4.395" fill="none" stroke="#fff" stroke-width="1.93px"/></g><g transform="matrix(1 9.8608e-32 9.8608e-32 1.2148 -.14312 -210.64)"><path d="m466.41 975.36c0-0.18-0.148-0.326-0.33-0.326h-0.659c-0.182 0-0.33 0.146-0.33 0.326v3.814c0 0.18 0.148 0.326 0.33 0.326h0.659c0.182 0 0.33-0.146 0.33-0.326v-3.814z" fill="#fff" stroke="#0d0d0d" stroke-width=".39px"/></g></g></g></svg>
