<?xml version="1.0" encoding="UTF-8"?>
<svg width="1600" height="1437.5" viewBox="0 0 1600 1437.5" xmlns="http://www.w3.org/2000/svg"><path d="m936.22 910.16-1.505-146.57c-4.4-67.536-10.271-135.38-8.172-203.37 4.445-143.9 1.71-280.36 1.545-418.78l-46.746-4.413c1.785 207.27 2.26 414.76-7.626 623.96l-1.894 154.88 64.397-5.704z" fill="#0d0d0d" fill-rule="evenodd" stroke="#000" stroke-linecap="round" stroke-linejoin="round" stroke-miterlimit="1.414" stroke-width="1.25"/><path d="m902.27 165.85c-10.103-7.925-17.362-17.445-21.064-28.96 0.166-30.428 38.704-33.826 45.69-6.874 3.77 12.188-0.111 23.28-9.585 33.57l-2.367 559.12 5.133 34.116 14.82 153.52-61.476 5.364 29.723-186.78-0.874-563.09z" fill="#333" fill-rule="evenodd" stroke="#000" stroke-linecap="round" stroke-linejoin="round" stroke-miterlimit="1.414" stroke-width="1.25"/><path d="m184.14 1226.2 0.194 31.626c439.75 17 877.9 15.112 1316.2 0l0.164-31.627c-438.32-28.757-876.92-28.575-1316.6 0z" fill="#0d0d0d" fill-rule="evenodd" stroke="#000" stroke-linecap="round" stroke-linejoin="round" stroke-miterlimit="1.414" stroke-width="1.25"/><path d="m1500.5 1257.5c-440.02 15.679-878.87 17.069-1316.2 0v26.708c433.14 54.962 872.16 52.23 1316.2 0v-26.708z" fill="#191919" fill-rule="evenodd" stroke="#000" stroke-linecap="round" stroke-linejoin="round" stroke-miterlimit="1.414" stroke-width="1.25"/><path d="m310.13 1298.6 24.834 34.938c338.83 10.853 677.65 10.31 1016.5 0l14.816-34.938c-351.89 33.755-703.96 35.26-1056.1 0z" fill="#0d0d0d" fill-rule="evenodd" stroke="#000" stroke-linecap="round" stroke-linejoin="round" stroke-miterlimit="1.414" stroke-width="1.25"/><path d="m184.14 1226.2 25.968-96.638c424.55-35.711 844.26-34.26 1259.7 0l30.911 96.638c-438.87-27.163-1316.6 0-1316.6 0z" fill="#191919" fill-rule="evenodd" stroke="#000" stroke-linecap="round" stroke-linejoin="round" stroke-miterlimit="1.414" stroke-width="1.25"/><path d="m214.28 1112.7c416.26-28.848 832.47-35.078 1248.6 0l-22.596-89.011c-407.52-36.68-807.15-30.678-1202.2 0l-23.747 89.011z" fill="#191919" fill-rule="evenodd" stroke="#000" stroke-linecap="round" stroke-linejoin="round" stroke-miterlimit="1.414" stroke-width="1.25"/><path d="m239.65 1010.5c401.46-30.707 800.1-33.285 1195.1 0l-28.187-90.992c-377.81-33.298-759.1-30.822-1143.1 0l-23.8 90.992z" fill="#191919" fill-rule="evenodd" stroke="#000" stroke-linecap="round" stroke-linejoin="round" stroke-miterlimit="1.414" stroke-width="1.25"/><path d="m1462.8 1112.6c-419.17-32.827-835.03-30.908-1248.3 0v16.615c417.7-33.037 834.19-35.604 1249.1 0l-0.873-16.615zm-1223.1-102v13.03c399.32-33.132 797.68-33.866 1195-0.43v-12.6c-397.92-32.737-796.27-31.46-1195 0z" fill="#0d0d0d" fill-rule="evenodd" stroke="#000" stroke-linecap="round" stroke-linejoin="round" stroke-miterlimit="1.414" stroke-width="1.25"/><path d="m547.38 1231.4c-10.891 0.05-11.941 23.99 4.058 24.41 17.25 0.452 14.818-24.165 4.019-24.41m-4.144 14.257v-18.297" fill="none" stroke="#29ac37" stroke-linecap="round" stroke-linejoin="round" stroke-miterlimit="1.414" stroke-width="3.75"/><path d="M611.989 1227.381l2.389 7.22 4.604-2.23-.738 4.989h7.731l-6.255 4.463 3.584 3.61-5.06.852 2.389 7.221-6.255-4.463-2.39 4.463-2.388-4.463-6.255 4.463 2.389-7.22-5.06-.853 3.583-3.61-6.255-4.463h7.732l-.739-4.99 4.605 2.232 2.389-7.22z" fill="#29ac37" fill-rule="evenodd" stroke="#29ac37" stroke-linecap="round" stroke-linejoin="round" stroke-miterlimit="1.414" stroke-width="1.25"/><path d="m665.62 1251.9c3.796-3.824 7.604-3.07 11.418 0m-15.521-8.636c6.47-4.927 12.888-4.776 19.257 0m-22.605-7.253c8.476-6.123 17.117-6.831 25.988 0m41.478 16.409c3.796-3.824 7.603-3.07 11.417 0m-15.521-8.636c6.471-4.927 12.889-4.776 19.258 0m-22.605-7.253c8.475-6.122 17.116-6.83 25.988 0m38.76 8.487h-4.096v-12.88h22.679v12.88h-3.792" fill="none" stroke="#29ac37" stroke-linecap="round" stroke-linejoin="round" stroke-miterlimit="1.414" stroke-width="3.75"/><path d="m782.87 1254h7.571v-9.744m53.97 1.442h-4.097v-12.88h22.68v12.88h-3.793" fill="none" stroke="#29ac37" stroke-linecap="round" stroke-linejoin="round" stroke-miterlimit="1.414" stroke-width="3.75"/><path d="m844.34 1254.7h7.571v-9.744m52.137 0.783h-4.096v-12.88h22.679v12.88h-3.792" fill="none" stroke="#29ac37" stroke-linecap="round" stroke-linejoin="round" stroke-miterlimit="1.414" stroke-width="3.75"/><path d="m903.98 1254.7h7.572v-9.743m53.994 0.646h-4.096v-12.88h22.68v12.88h-3.792" fill="none" stroke="#29ac37" stroke-linecap="round" stroke-linejoin="round" stroke-miterlimit="1.414" stroke-width="3.75"/><path d="m965.48 1254.5h7.572v-9.745m43.318 0.887c-2.153 3.165-2.153 6.025 0 8.581 15.498-1.76 26.02-7.893 32.28-17.767-1.145-2.387-3.025-3.407-5.435-3.444m-20.733 9.87c-0.555-10.492 2.774-15.566 16.226-6.522m39.124-4.773c-3.938 6.86-1.968 13.412 2.318 19.842l3.133-6.177m10.278 4.758c3.93-9.105 2.609-16.068-3.724-20.989l-2.78 8.156m39.981-0.947c-0.9 17.439 26.199 11.004 22.168-2.453" fill="none" stroke="#29ac37" stroke-linecap="round" stroke-linejoin="round" stroke-miterlimit="1.414" stroke-width="3.75"/><path d="m1138 1255.2v-29.373l4.472 7.676h-10.31l5.838-7.676" fill="none" stroke="#29ac37" stroke-linecap="round" stroke-linejoin="round" stroke-miterlimit="1.414" stroke-width="3.75"/><path d="m266.26 141.32c26.698 155 53.343 309.83 78.62 467.09 9.318 57.973 14.53 116.56 19.697 175.18l19.435 127.13 62.653-3.844-133.58-774.8-46.824 9.24z" fill="#0d0d0d" fill-rule="evenodd" stroke="#000" stroke-linecap="round" stroke-linejoin="round" stroke-miterlimit="1.414" stroke-width="1.25"/><path d="m289.09 111.42c28.643-3.249 31.821 26.657 8.034 50.425l89.02 538.66 21.097 65.826 32.913 140.99-45.462 2.783-20.454-201.73-90.476-539.31c-21.68-24.283-30.826-54.29 5.328-57.646" fill="#333" fill-rule="evenodd" stroke="#000" stroke-linecap="round" stroke-linejoin="round" stroke-miterlimit="1.414" stroke-width="1.25"/><path d="m1287.6 910.1 20.318-145.16c5.696-67.439 9.984-135.4 22.175-202.32 25.803-141.64 43.401-276.99 63.83-413.89l-45.569-11.318c-29.07 205.23-59.47 410.48-100.37 615.88l-24.913 152.87 64.528 3.94z" fill="#0d0d0d" fill-rule="evenodd" stroke="#000" stroke-linecap="round" stroke-linejoin="round" stroke-miterlimit="1.414" stroke-width="1.25"/><path d="m1364.7 169.03c-8.813-9.34-14.574-19.834-16.521-31.772 4.691-30.064 43.305-27.692 46.205 0 1.913 12.613-3.574 23.005-14.474 31.772l-85.521 552.55v34.5l-8.185 154.02-61.59-3.842 57.178-180.28 82.908-556.95z" fill="#333" fill-rule="evenodd" stroke="#000" stroke-linecap="round" stroke-linejoin="round" stroke-miterlimit="1.414" stroke-width="1.25"/><path d="m1364.7 169.03c-8.813-9.34-14.574-19.834-16.521-31.772 4.691-30.064 43.305-27.692 46.205 0 1.913 12.613-3.574 23.005-14.474 31.772l-85.521 552.55v34.5l-8.185 154.02-61.59-3.842 57.178-180.28 82.908-556.95z" fill="#333" fill-rule="evenodd" stroke="#000" stroke-linecap="round" stroke-linejoin="round" stroke-miterlimit="1.414" stroke-width="1.25"/></svg>
