<svg xmlns="http://www.w3.org/2000/svg" viewBox="0 0 1600 1437.5" height="1437.5" width="1600"><path d="M1145.334 689.072h58.111V649.18h-58.111v39.892z" fill="#161616" fill-rule="evenodd" stroke="#252525" stroke-width="1" stroke-miterlimit="10"/><path d="M1152.54 83.563c1.634-11.976 40.981-11.876 43.284 0 0 0 1.115 162.723 0 315.042-1.354 184.915 7.816 182.375 7.816 236.442h-58.258c.117-36.01 4.936-121.412 4.56-236.442-.496-151.936 2.156-312.293 2.598-315.043" fill="#c9c9d1" fill-rule="evenodd" stroke="#35343a" stroke-width=".5625" stroke-miterlimit="10"/><path d="M1180.954 599.985V108.788c-5.184 3.437-7.703 3.9-13.288 0v491.197c-4.707 12.87-11.407 25.134-22.283 35.063v65.655c6.24-.664 10.46-3.974 10.233-13.107v-27.83h39.242v27.83c-.283 8.914 2.465 13.538 8.782 13.107v-65.655c-13.086-11.035-19.184-23.094-22.686-35.063z" fill="#e7e8ed" fill-rule="evenodd" stroke="#35343a" stroke-width=".5625" stroke-miterlimit="10"/><path d="M1169.856 691.459v-33.526h6.659v33.526h-6.659" fill="#d9d9d9" fill-rule="evenodd" stroke="#797979" stroke-width="1" stroke-miterlimit="10"/><path d="M1157.98 705.635v-38.401h8.846v21.043h13.727v-21.043h9.92v38.401h-32.493z" fill="#c9c9d1" fill-rule="evenodd" stroke="#252525" stroke-width="1" stroke-miterlimit="10" stroke-opacity=".992"/><path d="M1155.286 660.034h39.925c0-7.639-6.142-11.77-19.272-11.806-14.135-.04-20.444 4.41-20.653 11.806" fill="#c9c9d1" fill-rule="evenodd"/><path d="M1144.431 742.196l58.974-7.156v-28.299c-19.692-8.321-39.352-8.857-58.974 0v35.455" fill="#c9c9d1" fill-rule="evenodd" stroke="#252525" stroke-width="1" stroke-miterlimit="10" stroke-opacity=".992"/><path d="M1152.678 83.388c1.633-11.988 40.98-11.9 43.283 0 .669 4.325-.977 8.2-4.011 12.812-3.051 4.638-6.526 8.888-10.996 12.588-5.184 4.3-7.703 4.887-13.288 0-4.118-3.6-7.827-7.813-11.165-12.588-2.556-3.975-4.237-8.15-3.823-12.812" fill="#dbdbe1" fill-rule="evenodd" stroke="#35343a" stroke-width=".5625" stroke-miterlimit="10"/><path d="M500.644 688.965h58.111v-39.892h-58.111v39.892z" fill="#161616" fill-rule="evenodd" stroke="#252525" stroke-width="1" stroke-miterlimit="10"/><path d="M507.849 83.45c1.634-11.962 40.981-11.875 43.284 0 0 0 1.115 162.729 0 315.048-1.354 184.915 7.817 182.375 7.817 236.442h-58.258c.116-36.011 4.934-121.412 4.56-236.442-.497-151.937 2.156-312.298 2.597-315.048" fill="#c9c9d1" fill-rule="evenodd" stroke="#35343a" stroke-width=".5625" stroke-miterlimit="10"/><path d="M536.263 599.878v-491.19c-5.184 3.425-7.703 3.9-13.287 0v491.19c-4.708 12.87-11.407 25.133-22.283 35.062v65.654c6.24-.663 10.46-3.973 10.233-13.105v-27.83h39.24v27.83c-.282 8.913 2.465 13.537 8.784 13.105V634.94c-13.088-11.035-19.185-23.094-22.688-35.063z" fill="#e7e8ed" fill-rule="evenodd" stroke="#35343a" stroke-width=".5625" stroke-miterlimit="10"/><path d="M525.165 691.35v-33.525h6.659v33.525h-6.659" fill="#d9d9d9" fill-rule="evenodd" stroke="#797979" stroke-width="1" stroke-miterlimit="10"/><path d="M513.29 705.528v-38.402h8.846v21.044h13.725v-21.044h9.922v38.402H513.29z" fill="#c9c9d1" fill-rule="evenodd" stroke="#252525" stroke-width="1" stroke-miterlimit="10" stroke-opacity=".992"/><path d="M510.595 659.926h39.925c0-7.639-6.141-11.77-19.271-11.806-14.137-.039-20.445 4.411-20.654 11.806" fill="#c9c9d1" fill-rule="evenodd"/><path d="M499.74 742.089l58.974-7.156v-28.3c-19.693-8.32-39.353-8.857-58.974 0v35.456" fill="#c9c9d1" fill-rule="evenodd" stroke="#252525" stroke-width="1" stroke-miterlimit="10" stroke-opacity=".992"/><path d="M507.986 83.288c1.634-12 40.982-11.9 43.284 0 .67 4.325-.977 8.187-4.01 12.8-3.052 4.637-6.527 8.9-10.997 12.6-5.184 4.287-7.703 4.875-13.287 0-4.118-3.6-7.828-7.825-11.165-12.6-2.557-3.975-4.238-8.15-3.825-12.8" fill="#dbdbe1" fill-rule="evenodd" stroke="#35343a" stroke-width=".5625" stroke-miterlimit="10"/><path d="M518.26 1322.789c42.717 11.311 255.372 33.278 409.152 25.853 229.803-11.095 254.84-21.55 272.892-25.853 76.133-18.149 95.783-63.85 103.471-110.015 22.313-134.013 26.137-272.413 0-411.699-5.725-30.513-32.475-70.083-73.194-80.898-9.701 7.978-18.715 12.945-25.41 12.825H511.2c-14.082-.02-21.179-5.216-25.02-12.825-38.331 8.07-65.862 43.252-78.845 80.898-44.844 130.035-11.547 373.06 0 424.757 12.514 56.027 49.675 80.738 110.925 96.957z" fill="#fff" fill-rule="evenodd" stroke="#000" stroke-miterlimit="10" stroke-width="1.25"/><path d="M530.059 1306.563c41.224 10.731 246.451 31.698 394.861 24.653 221.774-10.527 245.77-20.996 263.359-24.653 74.283-15.444 92.433-62.104 99.846-105.904 21.55-127.145 21.6-257.834 0-390.604-4.625-28.45-31.45-59.547-58.323-69.809-6.957-2.655-14.554-4.928-23.682-7.222H507.993c-31.763 7.434-73.48 27.754-84.985 77.031-29.698 127.181-11.144 353.945 0 402.994 12.076 53.155 47.94 78.126 107.05 93.513z" fill="#c9c9d1" fill-rule="evenodd" stroke="#000" stroke-miterlimit="10" stroke-width="1.25"/><path d="M532.92 1302.515c40.863 10.637 244.289 31.296 391.395 24.313 219.827-10.435 243.777-20.266 261.048-24.313 72.825-17.068 91.625-60.046 98.975-103.463 21.35-126.028 21.412-255.57 0-387.175-4.588-28.2-31.175-59.025-57.817-69.195-66.645-25.442-242.152-33.518-364.056-35.353-108.771-1.639-262.965 9.95-329.545 22.337-44.332 8.248-94.364 28.435-106.111 82.211-27.629 126.474-11.046 350.838 0 399.457 11.971 52.688 47.519 75.928 106.111 91.181z" fill="#fff" fill-rule="evenodd" stroke="#000" stroke-miterlimit="10" stroke-width="1.25"/><path d="M544.77 1289.257c39.26 10.02 234.71 29.482 376.049 22.904 211.208-9.83 234.22-19.091 250.812-22.904 69.97-16.077 88.031-56.565 95.094-97.462 20.512-118.72 20.575-240.75 0-364.723-4.412-26.565-29.953-55.6-55.549-65.182-64.031-23.966-232.658-31.574-349.782-33.304-104.507-1.542-252.655 9.374-316.624 21.043-42.594 7.77-90.664 26.786-101.951 77.443-26.545 119.14-10.613 330.493 0 376.292 11.501 49.633 45.656 71.525 101.951 85.893z" fill="#c9c9d1" fill-rule="evenodd" stroke="#000" stroke-miterlimit="10" stroke-width="1.25"/><path d="M550.411 1283.019c38.632 9.775 230.95 28.76 370.024 22.342 207.825-9.589 230.468-18.622 246.794-22.342 68.85-15.684 86.621-55.179 93.571-95.075 20.188-115.814 20.238-234.855 0-355.793-4.338-25.915-29.474-54.24-54.659-63.586-63.006-23.38-228.931-30.801-344.179-32.489-102.832-1.505-248.607 9.145-311.55 20.528-41.912 7.58-89.212 26.13-100.318 75.547-26.12 116.223-10.444 322.4 0 367.078 11.317 48.418 44.923 69.773 100.317 83.79z" fill="#fff" fill-rule="evenodd" stroke="#000" stroke-miterlimit="10" stroke-width="1.25"/><path d="M562.93 1269.918c37.679 5.827 125.635 18.882 257.309 18.35 199.151-.803 317.306-15.93 333.143-18.35 20.11-3.074 44.475-10.44 59.337-24.617 20.67-19.716 23.938-31.956 30.236-67.346 19.358-108.797 19.107-219.846 0-333.654-5.923-35.27-28.443-51.51-52.324-59.629-60.775-20.662-219.145-28.885-329.466-30.467-98.436-1.411-237.981 8.575-298.235 19.25-40.12 7.107-85.218 18.898-96.029 70.846-23.235 111.636-14.442 226.921 0 344.238 3.579 29.078 22.774 53.417 41.9 63.132 19.165 9.736 41.346 16.269 54.129 18.246z" fill="#c9c9d1" fill-rule="evenodd" stroke="#000" stroke-miterlimit="10" stroke-width="1.25"/><path d="M568.201 1263.424c29.391 4.651 120.928 17.38 252.664 17.868 195.558.724 311.58-15.51 327.133-17.868 19.744-2.992 43.67-10.163 58.264-23.967 20.297-19.196 23.507-31.113 29.69-65.57 19.01-105.928 18.76-214.048 0-324.854-5.814-34.34-27.93-50.153-51.378-58.057-59.679-20.117-215.19-28.123-323.522-29.663-96.658-1.375-233.685 8.348-292.85 18.742-39.397 6.92-83.68 18.399-94.297 68.978-22.815 108.692-14.181 220.936 0 335.158 3.515 28.313 22.364 52.01 41.144 61.469 18.82 9.479 40.609 15.78 53.152 17.764z" fill="#fff" fill-rule="evenodd" stroke="#000" stroke-miterlimit="10" stroke-width="1.25"/><path d="M582.47 1248.358s115.039 14.442 240.24 15.472c185.936 1.529 296.259-14.447 311.045-16.642 18.775-2.788 37.309-6.975 54.696-16.547 23.158-12.747 27.672-34.543 32.377-66.851 14.376-98.702 12.822-199.422 0-302.577-4.007-32.237-29.175-50.9-52.005-56.478-89.37-21.83-207.448-22.922-310.452-24.356-91.906-1.281-183.885 6.156-275.901 16.585-47.806 5.419-85.212 16.655-93.552 64.249-17.74 101.242-11.185 206.47 1.117 313.446 3.183 26.161 14.014 48.566 31.87 57.376 17.895 8.829 48.595 14.766 60.565 16.323z" fill="#c9c9d1" fill-rule="evenodd" stroke="#000" stroke-miterlimit="10" stroke-width="1.25"/><path d="M587.27 1240.644s113.01 13.95 236.001 14.943c182.657 1.478 291.032-13.953 305.558-16.075 18.444-2.69 36.65-6.736 53.731-15.98 22.749-12.315 27.183-33.367 31.805-64.573 14.121-95.338 12.595-192.624 0-292.263-3.936-31.136-28.661-49.165-51.089-54.551-87.792-21.086-203.786-22.141-304.972-23.526-90.285-1.238-180.641 5.946-271.034 16.02-46.962 5.233-83.709 16.087-91.901 62.057-17.426 97.793-10.988 199.433 1.097 302.761 3.127 25.27 13.767 46.91 31.309 55.42 17.579 8.53 47.736 14.263 59.495 15.767z" fill="#fff" fill-rule="evenodd" stroke="#000" stroke-miterlimit="10" stroke-width="1.25"/><path d="M601.7 1220.864s106.925 13.787 223.294 14.696c172.82 1.351 275.36-12.758 289.104-14.696 17.45-2.46 35.423-4.175 51.585-12.627 21.523-11.257 28.132-32.63 31.66-61.276 10.73-87.116 11.556-175.952 0-266.937-3.73-29.36-22.13-44.444-50.653-49.873-83.816-15.952-192.812-20.242-288.55-21.509-85.424-1.13-170.915 5.437-256.44 14.647-44.434 4.785-78.16 8.373-86.952 56.735-16.24 89.322-9.89 183.053 0 277.475 2.958 23.102 13.088 44.408 30.333 50.738 17.297 6.348 45.494 11.253 56.619 12.627z" fill="#0d0d0d" fill-rule="evenodd" stroke="#000" stroke-miterlimit="10" stroke-width="1.25"/><path d="M730.579 1169.196H988.7c23.241.137 42.474 11.458 60.757 26.388 15.907 12.988 34.967 24.821 59.655 21.34 17.114-2.414 34.742-4.095 50.592-12.384 21.108-11.04 27.59-32.001 31.05-60.096 10.522-85.439 11.333-172.563 0-261.795-3.658-28.795-21.704-42.4-49.677-47.724-82.202-15.645-189.1-18.526-282.993-19.769-83.778-1.109-167.622 4.55-251.499 13.583-43.579 4.693-76.655 6.48-85.279 53.91-15.926 87.601-9.699 179.527 0 272.13 2.901 22.657 12.836 43.553 29.749 49.761 16.964 6.225 43.915 11.769 55.53 12.384 25.362 1.342 39.246-9.815 53.889-21.34 22.158-17.44 38.965-26.388 70.105-26.388z" fill="#fff" fill-rule="evenodd" stroke="#000" stroke-miterlimit="10" stroke-width="1.25"/><path d="M759.398 1206.079c2.502-2.011 5.012-1.615 7.526 0M756.694 1201.536c4.265-2.591 8.494-2.511 12.691 0M754.488 1197.721c5.586-3.22 11.28-3.592 17.127 0" fill="none" stroke="#fff" stroke-width="2.23625" stroke-miterlimit="10"/><path d="M794.571 1203.882l-2.61.01-.022-8.838 14.454-.044.022 8.837-2.416.008" fill="none" stroke="#fff" stroke-width="2.4825" stroke-miterlimit="10"/><path d="M794.539 1208.165l8.797-.026-3.972.012-.015-5.856" fill="none" stroke="#fff" stroke-width="2.3225000000000002" stroke-miterlimit="10"/><path d="M830.845 1203.882l-2.611.01-.023-8.838 14.454-.044.022 8.837-2.416.008" fill="none" stroke="#fff" stroke-width="2.4825" stroke-miterlimit="10"/><path d="M830.813 1208.165l8.796-.026-3.972.012-.015-5.856" fill="none" stroke="#fff" stroke-width="2.3225000000000002" stroke-miterlimit="10"/><path d="M867.638 1203.882l-2.612.01-.022-8.838 14.453-.044.023 8.837-2.416.008" fill="none" stroke="#fff" stroke-width="2.4825" stroke-miterlimit="10"/><path d="M867.605 1208.165l8.796-.026-3.971.012-.015-5.856" fill="none" stroke="#fff" stroke-width="2.3225000000000002" stroke-miterlimit="10"/><path d="M904.003 1203.882l-2.61.01-.023-8.838 14.454-.044.022 8.837-2.416.008" fill="none" stroke="#fff" stroke-width="2.4825" stroke-miterlimit="10"/><path d="M903.97 1208.165l8.797-.026-3.972.012-.015-5.856" fill="none" stroke="#fff" stroke-width="2.3225000000000002" stroke-miterlimit="10"/><path d="M943.196 1194.285c5.408-1.438 10.04-.599 10.338 1.874.297 2.471-3.85 5.645-9.259 7.082-5.407 1.438-10.039.599-10.337-1.873-.298-2.472 3.85-5.645 9.258-7.083z" fill="none" stroke="#fff" stroke-width="3.125" stroke-miterlimit="10"/><path d="M945.298 1193.977c3.958 0 7.173 3.338 7.173 7.448 0 4.111-3.215 7.449-7.173 7.449-3.96 0-7.175-3.338-7.175-7.449 0-4.11 3.215-7.447 7.175-7.447zM973.619 1207.551h15.555v-9.301h-15.555v9.301zM975.62 1198.25c-.024-8.585 11.607-8.367 11.629 0M729.276 1193.07c4.442 0 8.048 3.003 8.048 6.701 0 3.699-3.606 6.703-8.048 6.703-4.44 0-8.046-3.004-8.046-6.703 0-3.698 3.606-6.701 8.046-6.701z" fill="none" stroke="#fff" stroke-width="3.125" stroke-miterlimit="10"/><path d="M730.997 1189.14a.814.814 0 0 0-.812-.814h-1.626a.815.815 0 0 0-.814.814v9.519c0 .448.365.813.814.813h1.626a.814.814 0 0 0 .813-.813v-9.519z" fill="#fff" fill-rule="evenodd" stroke="#0d0d0d" stroke-width="1.875" stroke-miterlimit="10"/></svg>