<svg xmlns="http://www.w3.org/2000/svg" viewBox="0 0 1600 1437.5" height="1437.5" width="1600"><path d="M585.184 275.4l6.991 10.415 497.283-105.802-20.423 993.818-471.04 173.662-5.82-1061.678-7.909 1053.364 13.729 8.314" fill="#f2f2f2" fill-rule="evenodd" stroke="#000" stroke-miterlimit="10" stroke-width="1.25"/><path d="M592.175 285.815l497.283-105.802-140.496-37.025-9.836 1.925 115.258 31.137-469.2 99.35 6.991 10.415z" fill="#f2f2f2" fill-rule="evenodd" stroke="#000" stroke-miterlimit="10" stroke-width="1.25"/><path d="M569.625 273.899l15.559 1.501 469.2-99.35-115.258-31.137-484.66 97.656 115.159 31.33z" fill="#fff" fill-rule="evenodd" stroke="#000" stroke-miterlimit="10" stroke-width="1.25"/><path d="M454.466 242.569l115.159 31.33-3.085 1062.364-110.1-41.442-1.974-1052.252zM585.184 275.4l-.918 1063.78-17.726-2.917 3.085-1062.364 15.559 1.501z" fill="#fff" fill-rule="evenodd" stroke="#000" stroke-miterlimit="10" stroke-width="1.25"/><path d="M569.526 308.609l15.627 1.821-.858 994.204-17.656-2.245 2.887-993.78z" fill="#001850" fill-rule="evenodd" stroke="#000" stroke-miterlimit="10" stroke-width="1.25"/><text style="-inkscape-font-specification:Arial-Black" transform="matrix(1.39205 -.30719 -.06402 1.47396 892.521 283.565)" font-weight="900" font-size="26.306" font-family="Arial"><tspan y="0" x="0 18.998121 37.996243 46.758736 64.302139 74.540398 96.455841">TP-LINK</tspan></text></svg>