<svg xmlns="http://www.w3.org/2000/svg" viewBox="0 0 1600 1437.5" height="1437.5" width="1600"><path d="M286.368 383.004c-40.247.43-65.294 19.05-70.038 65.786-19.323 190.376-24.114 380.706-19.5 571.007 1.23 50.753 17.214 84.958 48.297 84.958h1075.135c36.538 0 50.25-37.922 54.026-84.957 4.875-190.402 2.65-380.748-10.713-571.008-4.188-59.58-25.612-77.04-65.475-76.614L286.368 383.004z" fill="#fff" fill-rule="evenodd" stroke="#000" stroke-width="3.75" stroke-miterlimit="10"/><path d="M369.942 790.601c4.23-2.74 8.473-2.199 12.722 0M365.37 784.415c7.21-3.529 14.361-3.421 21.456 0M361.641 779.22c9.443-4.385 19.071-4.893 28.955 0" fill="none" stroke="#676767" stroke-width="3.5125" stroke-miterlimit="10"/><path d="M437.444 787.553l-4.414.012-.04-14.355 24.436-.066.039 14.354-4.085.01" fill="none" stroke="#676767" stroke-width="4.109999999999999" stroke-miterlimit="10"/><path d="M437.398 797.531l14.87-.041-6.713.019-.03-10.86" fill="none" stroke="#676767" stroke-width="4.109999999999999" stroke-miterlimit="10"/><path d="M303.395 773.314c9.143-2.24 16.973-.933 17.476 2.917.504 3.85-6.509 8.795-15.651 11.034-9.141 2.24-16.973.932-17.476-2.917-.504-3.852 6.51-8.795 15.651-11.034z" fill="none" stroke="#676767" stroke-width="3.125" stroke-miterlimit="10"/><path d="M306.947 772.835c6.694 0 12.128 5.199 12.128 11.601 0 6.404-5.434 11.603-12.127 11.603-6.694 0-12.13-5.199-12.13-11.603 0-6.402 5.436-11.601 12.13-11.601zM514.096 776.969c7.508 0 13.603 4.677 13.603 10.44 0 5.761-6.095 10.44-13.603 10.44-7.507 0-13.604-4.679-13.604-10.44 0-5.763 6.097-10.44 13.604-10.44z" fill="none" stroke="#676767" stroke-width="3.125" stroke-miterlimit="10"/><path d="M517.006 770.955c0-.759-.616-1.375-1.375-1.375h-2.748c-.76 0-1.375.616-1.375 1.375v14.612c0 .76.616 1.375 1.375 1.375h2.748c.759 0 1.375-.616 1.375-1.375v-14.612z" fill="#676767" fill-rule="evenodd" stroke="#fff" stroke-width="3.125" stroke-miterlimit="10"/><path d="M258.86 737.438c7.103-8 15.883-13.46 27.508-13.46h245.027c9.234 0 21.034 6.926 25.836 13.46-5.049 8.182-17.37 13.342-25.836 13.342H286.368c-11.698 0-19.977-6.791-27.508-13.342z" fill="#0d403b" fill-rule="evenodd" stroke="#0f2a35" stroke-width="3.125" stroke-miterlimit="10"/><path d="M383.197 725.669c6.7 0 12.137 5.256 12.137 11.731 0 6.474-5.438 11.73-12.136 11.73-6.698 0-12.137-5.256-12.137-11.73 0-6.475 5.439-11.731 12.136-11.731z" fill="#acfb9f" fill-rule="evenodd"/><path d="M383.355 725.67l.156.004.155.003.156.008.154.009.155.01.154.012.152.014.154.016.151.018.152.02.151.021.15.022.15.025.149.027.148.028.148.03.147.033.147.034.146.035.145.037.144.039.143.04.143.043.142.043.142.045.14.047.14.048.138.05.14.053.137.052.136.055.136.058.134.057.135.06.132.06.133.063.131.065.13.065.13.067.128.069.128.07.127.071.125.073.125.073.124.077.122.076.121.079.121.08.12.081.118.082.117.084.117.085.115.086.113.088.114.09.111.09.112.091.108.093.11.095.107.095.106.096.104.098.103.098.103.1.101.103.1.102.099.103.097.105.097.106.093.106.094.109.093.109.091.111.089.111.088.113.087.112.085.115.083.115.083.116.081.12.08.117.079.12.076.12.075.121.074.122.072.124.072.124.068.125.07.126.065.128.064.127.064.129.061.129.06.131.059.131.056.131.056.133.053.134.052.135.05.135.05.135.045.137.047.138.042.137.043.139.04.14.038.14.037.14.035.143.032.14.031.145.03.142.028.145.025.144.025.146.021.145.02.146.019.148.016.147.015.148.013.149.011.15.009.148.006.15.005.151.004.152v.302l-.004.151-.005.15-.006.152-.009.148-.011.15-.013.148-.015.149-.016.147-.019.146-.02.148-.021.145-.025.145-.025.145-.028.144-.03.143-.03.143-.033.142-.035.142-.037.141-.038.14-.04.14-.043.139-.042.137-.047.138-.046.136-.049.136-.05.135-.052.135-.053.134-.056.132-.056.132-.059.131-.06.13-.061.13-.064.129-.064.127-.066.128-.069.126-.068.125-.072.124-.072.124-.074.12-.075.123-.076.12-.079.12-.08.118-.081.117-.083.118-.083.115-.085.115-.087.112-.088.113-.089.111-.091.111-.093.109-.094.107-.093.108-.097.106-.097.104-.099.104-.1.102-.101.101-.103.1-.103.1-.104.098-.106.096-.108.095-.109.095-.108.093-.112.091-.11.09-.115.09-.113.088-.115.086-.117.085-.117.083-.119.083-.119.081-.12.08-.122.078-.123.077-.123.076-.125.074-.125.073-.126.071-.13.07-.127.069-.13.067-.13.065-.131.064-.133.063-.132.06-.135.06-.134.058-.136.056-.136.055-.138.054-.139.051-.138.052-.14.047-.14.048-.142.045-.142.043-.143.043-.143.04-.144.039-.145.037-.146.035-.147.034-.147.031-.148.031-.148.028-.149.027-.15.025-.15.023-.151.021-.152.02-.15.018-.155.016-.152.014-.154.012-.155.01-.154.009-.156.007-.155.004-.156.004h-.314l-.156-.004-.156-.003-.155-.008-.155-.009-.154-.01-.154-.012-.153-.014-.153-.016-.152-.018-.152-.02-.15-.021-.151-.022-.149-.025-.15-.028-.147-.027-.149-.032-.146-.031-.146-.034-.147-.035-.145-.037-.143-.039-.144-.04-.144-.043-.141-.043-.141-.045-.142-.048-.14-.047-.138-.052-.138-.05-.137-.055-.137-.055-.136-.056-.135-.057-.134-.06-.132-.062-.133-.062-.131-.064-.131-.065-.129-.067-.129-.069-.127-.07-.127-.071-.126-.073-.124-.074-.123-.076-.123-.077-.122-.078-.12-.08-.12-.081-.118-.083-.117-.083-.117-.085-.115-.087-.115-.087-.112-.09-.113-.09-.11-.091-.11-.093-.107-.095-.108-.095-.106-.096-.105-.098-.104-.1-.102-.1-.101-.1-.099-.103-.099-.104-.097-.104-.097-.106-.095-.108-.093-.107-.092-.109-.09-.111-.09-.111-.088-.113-.087-.112-.086-.115-.084-.115-.082-.118-.081-.117-.079-.118-.079-.12-.076-.12-.076-.122-.074-.121-.073-.124-.07-.124-.07-.125-.067-.126-.066-.128-.065-.127-.063-.129-.062-.13-.06-.13-.058-.131-.057-.132-.055-.132-.054-.134-.051-.135-.05-.135-.049-.136-.048-.136-.045-.138-.043-.137-.042-.139-.04-.14-.038-.14-.037-.141-.035-.142-.032-.142-.031-.143-.03-.143-.028-.144-.026-.145-.024-.145-.022-.145-.02-.147-.018-.147-.017-.147-.014-.149-.014-.148-.01-.15-.009-.148-.007-.152-.005-.15-.003-.15v-.303l.003-.152.005-.15.007-.15.01-.15.01-.15.013-.148.014-.148.017-.147.018-.148.02-.146.022-.145.024-.146.026-.144.028-.145.03-.142.031-.144.032-.141.035-.143.037-.14.038-.14.04-.14.042-.139.043-.137.045-.138.048-.137.049-.135.05-.135.051-.135.054-.134.055-.133.057-.13.058-.132.06-.131.062-.129.063-.129.065-.127.066-.128.067-.126.07-.125.07-.124.073-.124.074-.122.076-.121.076-.12.079-.12.079-.118.081-.119.082-.116.084-.115.086-.115.087-.112.088-.113.09-.111.09-.111.092-.109.093-.109.095-.106.097-.106.097-.105.099-.103.099-.102.101-.103.102-.1.104-.099.105-.097.106-.096.108-.095.107-.095.11-.093.11-.091.113-.09.112-.09.115-.088.115-.086.117-.085.117-.084.118-.082.12-.081.12-.08.122-.079.123-.076.123-.077.124-.073.126-.073.127-.071.127-.07.129-.069.129-.067.131-.065.131-.065.133-.063.132-.06.134-.06.135-.057.136-.058.137-.055.137-.052.138-.053.138-.05.14-.048.142-.047.14-.045.142-.043.144-.043.144-.04.143-.039.145-.037.147-.035.146-.034.146-.033.149-.03.147-.028.15-.027.149-.025.151-.022.15-.021.152-.02.152-.018.153-.016.153-.014.154-.012.154-.01.155-.009.155-.007.156-.004.156-.004.156-.001.158.001zm-.275 3.125l-.119.003-.117.003-.116.005-.118.006-.116.008-.115.009-.115.011-.115.013-.114.012-.114.015-.112.016-.114.018-.112.019-.112.02-.111.02-.11.023-.11.024-.11.025-.109.026-.108.028-.108.03-.107.029-.107.032-.106.033-.106.033-.105.035-.104.037-.104.037-.103.039-.102.04-.102.04-.101.042-.1.043-.1.045-.1.045-.098.047-.099.048-.096.049-.096.05-.096.05-.095.053-.095.053-.093.054-.092.055-.093.057-.091.056-.09.059-.09.06-.089.06-.089.061-.086.063-.087.062-.085.065-.085.065-.084.067-.083.067-.082.068-.081.068-.08.07-.08.07-.08.072-.077.072-.076.074-.076.074-.075.075-.074.076-.072.076-.073.078-.07.077-.07.08-.07.08-.067.08-.067.081-.066.082-.065.083-.064.083-.062.084-.061.086-.062.085-.06.086-.057.086-.058.089-.056.089-.055.087-.054.09-.053.09-.052.092-.051.09-.049.092-.048.092-.048.094-.045.094-.045.094-.044.095-.042.095-.041.096-.04.096-.04.098-.038.097-.036.098-.035.098-.034.1-.032.1-.033.1-.03.1-.029.102-.027.1-.026.102-.025.103-.025.102-.023.104-.021.104-.02.105-.019.103-.017.105-.015.107-.015.106-.014.106-.011.108-.012.107-.008.108-.008.107-.007.109-.005.11-.003.109-.002.111-.002.11.002.11.002.111.003.109.005.109.007.108.008.11.008.107.012.107.01.108.015.106.015.106.015.105.017.106.019.104.02.105.021.104.023.104.025.102.025.103.026.102.027.1.029.101.03.102.033.1.032.099.034.1.035.098.036.098.038.097.04.098.04.096.04.096.043.095.044.094.045.095.045.094.048.094.048.092.049.091.051.092.052.09.053.09.054.09.055.09.056.087.058.088.057.086.06.087.062.085.06.085.063.084.064.084.065.083.066.082.067.081.067.08.07.08.07.079.07.078.073.078.072.076.074.075.075.076.076.074.076.074.078.071.079.071.08.072.08.07.08.068.083.068.083.067.084.067.085.065.085.065.086.062.087.063.089.061.089.06.09.06.09.057.091.058.093.056.092.055.093.055.095.053.095.052.096.051.096.05.096.05.099.047.099.046.099.046.1.044.1.044.1.041.103.041.102.04.103.039.104.037.104.037.105.035.106.033.106.033.107.031.107.03.108.03.108.028.109.026.11.025.11.024.11.022.111.021.113.02.111.02.113.017.113.016.114.015.114.012.115.013.115.01.115.01.116.007.118.007.116.005.117.003.118.003h.237l.119-.003.116-.003.118-.005.116-.007.116-.007.116-.01.115-.01.115-.013.114-.012.114-.015.112-.016.114-.018.111-.019.113-.02.11-.02.111-.023.11-.024.11-.025.109-.026.107-.028.11-.03.105-.03.107-.031.107-.033.105-.033.105-.035.104-.037.104-.037.103-.039.103-.04.101-.04.101-.042.102-.044.1-.044.098-.046.1-.046.097-.048.097-.049.096-.05.095-.05.097-.053.094-.053.093-.055.093-.055.092-.056.09-.058.091-.057.09-.06.09-.06.087-.061.087-.063.086-.062.085-.065.085-.065.085-.067.083-.067.081-.068.083-.068.08-.07.08-.072.077-.07.078-.072.077-.074.075-.074.075-.076.075-.075.073-.076.071-.077.071-.08.07-.078.069-.08.067-.08.068-.081.066-.083.064-.082.064-.084.063-.084.062-.085.06-.085.06-.087.058-.087.058-.087.055-.088.056-.088.054-.09.052-.09.053-.092.05-.09.05-.092.049-.092.046-.094.046-.094.045-.094.044-.095.042-.095.042-.096.04-.096.038-.098.038-.097.036-.098.036-.098.034-.1.033-.1.031-.1.03-.1.03-.102.027-.101.027-.101.025-.103.023-.102.023-.104.021-.104.02-.105.019-.103.017-.105.017-.107.015-.106.012-.106.013-.108.01-.107.01-.108.007-.109.006-.108.005-.109.004-.109.003-.11v-.222l-.003-.11-.004-.109-.005-.11-.006-.109-.007-.107-.01-.108-.01-.107-.013-.108-.012-.106-.015-.106-.017-.106-.017-.105-.019-.104-.02-.105-.021-.104-.023-.104-.023-.102-.025-.103-.027-.101-.027-.101-.03-.103-.03-.1-.031-.1-.033-.1-.034-.099-.036-.098-.036-.098-.038-.097-.038-.098-.04-.096-.042-.096-.042-.095-.044-.095-.045-.094-.046-.094-.046-.094-.049-.092-.05-.091-.05-.092-.053-.09-.052-.09-.054-.09-.055-.09-.057-.088-.057-.088-.058-.086-.059-.086-.061-.085-.063-.086-.062-.084-.064-.083-.064-.083-.066-.082-.068-.081-.067-.08-.069-.08-.07-.08-.071-.077-.071-.078-.073-.076-.075-.076-.075-.075-.075-.074-.077-.074-.078-.072-.077-.072-.08-.07-.08-.07-.082-.068-.082-.068-.084-.068-.084-.066-.083-.065-.087-.065-.086-.062-.087-.063-.088-.061-.089-.06-.09-.06-.09-.059-.09-.056-.093-.057-.093-.055-.094-.054-.093-.053-.097-.052-.095-.051-.096-.05-.097-.05-.098-.047-.099-.047-.098-.045-.1-.045-.102-.043-.1-.042-.102-.04-.103-.04-.103-.039-.104-.037-.104-.037-.105-.035-.105-.033-.107-.033-.107-.033-.106-.028-.109-.03-.108-.028-.108-.026-.11-.025-.11-.024-.111-.022-.11-.021-.111-.02-.113-.02-.114-.017-.112-.016-.114-.015-.114-.012-.115-.013-.115-.011-.116-.009-.116-.007-.116-.007-.117-.005-.117-.004-.119-.002-.119-.001-.117.001z" fill="#4bff3d" fill-rule="evenodd"/><path d="M524.434 725.669c6.697 0 12.136 5.256 12.136 11.731 0 6.474-5.439 11.73-12.136 11.73-6.699 0-12.136-5.256-12.136-11.73 0-6.475 5.437-11.731 12.136-11.731z" fill="#acfb9f" fill-rule="evenodd"/><path d="M524.59 725.67l.156.004.157.003.155.008.155.009.153.01.154.012.154.014.152.016.153.018.151.02.151.021.15.022.15.025.149.027.147.028.15.03.145.033.147.034.146.035.145.037.145.039.142.04.144.043.141.043.142.045.141.047.14.048.139.05.137.053.138.052.136.055.136.058.135.057.134.06.134.06.131.063.131.065.131.065.13.067.128.069.127.07.127.071.126.073.124.073.123.077.123.076.122.079.12.08.12.081.118.082.117.084.117.085.116.086.114.088.112.09.113.09.11.091.11.093.108.095.107.095.106.096.105.098.104.098.102.1.101.103.1.102.098.103.097.105.097.106.095.106.093.109.092.109.091.111.09.111.087.113.087.112.086.115.084.115.082.116.081.12.08.117.078.12.076.12.076.121.074.122.073.124.07.124.07.125.067.126.066.128.065.127.063.129.062.129.06.131.058.131.057.131.055.133.054.134.051.135.052.135.047.135.048.137.045.138.043.137.042.139.04.14.038.14.037.14.035.143.033.14.032.145.028.142.028.145.026.144.024.146.022.145.02.146.02.148.015.147.014.148.014.149.01.15.009.148.007.15.005.151.003.152.001.151-.001.151-.003.151-.005.15-.007.152-.009.148-.01.15-.014.148-.014.149-.016.147-.019.146-.02.148-.022.145-.024.145-.026.145-.028.144-.028.143-.032.143-.033.142-.035.142-.037.141-.038.14-.04.14-.042.139-.043.137-.045.138-.048.136-.047.136-.052.135-.05.135-.055.134-.055.132-.057.132-.058.131-.06.13-.062.13-.063.129-.065.127-.066.128-.067.126-.07.125-.07.124-.073.124-.074.12-.076.123-.076.12-.079.12-.079.118-.08.117-.083.118-.084.115-.086.115-.087.112-.087.113-.09.111-.091.111-.092.109-.093.107-.095.108-.097.106-.097.104-.098.104-.1.102-.1.101-.103.1-.104.1-.105.098-.106.096-.107.095-.108.095-.11.093-.11.091-.113.09-.112.09-.114.088-.116.086-.117.085-.117.083-.118.083-.12.081-.12.08-.122.078-.123.077-.123.076-.124.074-.126.073-.127.071-.127.07-.129.069-.129.067-.13.065-.132.064-.131.063-.134.06-.134.06-.135.058-.136.056-.136.055-.138.054-.137.051-.139.052-.14.047-.141.048-.142.045-.14.043-.145.043-.142.04-.145.039-.145.037-.146.035-.147.034-.146.031-.149.031-.147.028-.149.027-.15.025-.15.023-.151.021-.151.02-.153.018-.152.016-.154.014-.154.012-.154.01-.155.009-.155.007-.156.004-.156.004h-.314l-.156-.004-.155-.003-.156-.008-.154-.009-.155-.01-.154-.012-.152-.014-.153-.016-.152-.018-.151-.02-.152-.021-.15-.022-.15-.025-.148-.028-.15-.027-.147-.032-.147-.031-.146-.034-.147-.035-.145-.037-.143-.039-.144-.04-.143-.043-.142-.043-.141-.045-.14-.048-.14-.047-.14-.052-.138-.05-.137-.055-.137-.055-.135-.056-.135-.057-.135-.06-.132-.062-.133-.062-.131-.064-.13-.065-.13-.067-.127-.069-.128-.07-.128-.071-.125-.073-.125-.074-.123-.076-.123-.077-.121-.078-.121-.08-.119-.081-.119-.083-.117-.083-.116-.085-.115-.087-.114-.087-.114-.09-.111-.09-.112-.091-.108-.093-.109-.095-.107-.095-.107-.096-.104-.098-.103-.1-.103-.1-.101-.1-.1-.103-.099-.104-.097-.104-.097-.106-.093-.108-.094-.107-.093-.109-.09-.111-.09-.111-.087-.113-.088-.112-.085-.115-.083-.115-.083-.118-.081-.117-.08-.118-.078-.12-.077-.12-.075-.122-.074-.121-.072-.124-.072-.124-.068-.125-.069-.126-.066-.128-.064-.127-.064-.129-.061-.13-.06-.13-.059-.131-.056-.132-.055-.132-.054-.134-.052-.135-.05-.135-.049-.136-.046-.136-.047-.138-.042-.137-.043-.139-.04-.14-.037-.14-.037-.141-.036-.142-.032-.142-.031-.143-.03-.143-.028-.144-.025-.145-.024-.145-.022-.145-.02-.147-.019-.147-.016-.147-.015-.149-.013-.148-.01-.15-.01-.148-.006-.152-.005-.15-.004-.15v-.303l.004-.152.005-.15.006-.15.01-.15.01-.15.013-.148.015-.148.016-.147.019-.148.02-.146.022-.145.024-.146.025-.144.028-.145.03-.142.031-.144.032-.141.035-.143.038-.14.037-.14.04-.14.043-.139.043-.137.046-.138.046-.137.049-.135.05-.135.052-.135.054-.134.055-.133.056-.13.059-.132.06-.131.061-.129.064-.129.064-.127.066-.128.069-.126.068-.125.072-.124.072-.124.074-.122.075-.121.077-.12.078-.12.08-.118.081-.119.083-.116.083-.115.085-.115.088-.112.087-.113.09-.111.09-.111.093-.109.094-.109.093-.106.097-.106.097-.105.099-.103.1-.102.101-.103.103-.1.103-.099.104-.097.106-.096.108-.095.109-.095.108-.093.112-.091.111-.09.114-.09.114-.088.115-.086.116-.085.117-.084.119-.082.119-.081.121-.08.121-.079.123-.076.123-.077.125-.073.125-.073.128-.071.128-.07.127-.069.13-.067.13-.065.131-.065.133-.063.132-.06.135-.06.135-.057.135-.058.137-.055.137-.052.139-.053.139-.05.14-.048.14-.047.14-.045.143-.043.143-.043.144-.04.143-.039.145-.037.147-.035.146-.034.147-.033.148-.03.149-.028.148-.027.15-.025.15-.022.152-.021.15-.02.153-.018.153-.016.152-.014.154-.012.155-.01.154-.009.156-.007.155-.004.156-.004.158-.001.156.001zm-.275 3.125l-.119.003-.117.003-.116.005-.117.006-.116.008-.116.009-.115.011-.115.013-.114.012-.114.015-.112.016-.113.018-.113.019-.11.02-.112.02-.111.023-.11.024-.11.025-.107.026-.11.028-.108.03-.106.029-.106.032-.108.033-.105.033-.105.035-.104.037-.104.037-.103.039-.103.04-.101.04-.101.042-.1.043-.1.045-.1.045-.099.047-.098.048-.097.049-.096.05-.095.05-.095.053-.095.053-.094.054-.093.055-.092.057-.091.056-.09.059-.09.06-.089.06-.088.061-.087.063-.086.062-.087.065-.083.065-.084.067-.084.067-.082.068-.082.068-.08.07-.078.07-.079.072-.077.072-.078.074-.075.074-.075.075-.075.076-.073.076-.07.078-.072.077-.07.08-.069.08-.067.08-.068.081-.065.082-.066.083-.063.083-.062.084-.063.086-.06.085-.06.086-.058.086-.058.089-.056.089-.055.087-.054.09-.052.09-.053.092-.05.09-.05.092-.047.092-.048.094-.046.094-.045.094-.044.095-.042.095-.042.096-.04.096-.038.098-.038.097-.036.098-.035.098-.035.1-.033.1-.03.1-.03.1-.03.1-.028.102-.026.102-.025.103-.024.103-.023.103-.021.104-.02.103-.019.105-.017.105-.016.107-.015.106-.013.106-.013.108-.01.107-.01.108-.007.107-.006.109-.005.11-.004.11-.003.11v.22l.003.11.004.11.005.109.006.108.007.11.01.107.01.107.013.108.013.106.015.106.016.105.017.106.019.104.02.105.021.104.023.103.024.103.025.103.026.102.027.101.03.1.03.102.032.1.032.1.035.099.035.097.036.099.038.097.038.098.04.096.042.096.042.095.044.095.045.094.046.094.048.094.047.092.05.091.05.092.053.09.052.09.054.09.055.09.056.087.058.088.058.087.06.086.06.085.062.085.063.084.063.084.066.083.065.082.068.081.067.08.069.08.07.08.071.077.071.078.073.076.075.075.075.076.075.074.077.073.078.072.079.073.078.07.08.07.083.069.081.067.083.068.085.066.085.065.085.064.086.063.088.063.087.061.089.06.09.06.09.057.091.058.092.056.093.055.094.055.095.053.095.052.095.051.096.05.098.05.097.047.099.046.1.046.1.044.1.044.101.042.101.04.103.04.104.039.103.037.104.037.105.035.105.033.108.033.106.031.106.03.109.03.107.028.109.026.11.025.11.024.111.022.112.021.11.02.113.02.113.017.112.016.114.015.114.013.115.012.115.01.116.01.116.007.117.007.117.005.116.004.119.002h.238l.117-.002.118-.004.116-.005.117-.006.117-.008.115-.01.115-.01.115-.013.115-.012.112-.015.114-.016.112-.018.113-.019.111-.02.111-.02.11-.023.112-.024.108-.025.109-.026.109-.028.107-.03.108-.03.106-.031.106-.033.107-.033.105-.035.103-.037.104-.037.104-.039.101-.04.103-.04.1-.042.1-.044.1-.044.1-.046.1-.046.097-.048.096-.049.097-.05.096-.05.095-.053.095-.053.092-.055.093-.055.092-.056.092-.057.09-.058.09-.06.088-.06.089-.061.088-.063.086-.062.085-.065.085-.065.084-.066.082-.068.083-.068.08-.068.08-.07.08-.07.08-.073.077-.072.076-.073.077-.074.075-.076.073-.075.073-.076.072-.077.07-.08.07-.078.07-.08.068-.08.066-.081.066-.083.065-.082.064-.084.063-.084.06-.085.062-.085.06-.087.058-.087.057-.087.056-.088.055-.088.055-.09.053-.09.051-.092.051-.09.049-.093.049-.093.047-.092.045-.094.045-.094.044-.095.043-.095.04-.096.04-.096.04-.098.038-.097.037-.099.035-.098.033-.1.033-.098.032-.1.03-.1.029-.103.028-.101.026-.101.026-.103.024-.102.022-.104.022-.104.02-.105.018-.103.018-.105.015-.107.015-.106.014-.106.01-.108.012-.106.009-.109.009-.109.006-.108.005-.109.004-.11v-.109l.002-.111-.001-.111-.001-.109-.004-.11-.005-.11-.006-.108-.01-.108-.008-.109-.011-.106-.011-.108-.014-.106-.015-.106-.015-.107-.018-.105-.018-.103-.02-.105-.022-.104-.022-.104-.024-.102-.026-.103-.026-.101-.028-.101-.029-.103-.03-.1-.032-.1-.033-.1-.033-.099-.035-.098-.037-.098-.038-.097-.04-.098-.04-.096-.04-.096-.043-.095-.044-.095-.045-.094-.045-.094-.047-.092-.049-.094-.049-.091-.051-.093-.051-.09-.053-.09-.055-.09-.055-.089-.056-.088-.057-.088-.058-.086-.06-.086-.061-.085-.061-.087-.063-.083-.064-.083-.065-.084-.066-.08-.066-.082-.068-.08-.07-.08-.07-.08-.07-.078-.072-.077-.073-.076-.073-.077-.075-.075-.077-.073-.076-.074-.077-.071-.08-.073-.08-.07-.08-.07-.08-.069-.083-.068-.082-.067-.084-.066-.085-.065-.085-.065-.088-.062-.086-.063-.089-.061-.088-.06-.09-.06-.09-.059-.092-.056-.092-.058-.093-.055-.092-.053-.095-.054-.095-.051-.096-.052-.097-.05-.096-.048-.097-.048-.1-.047-.1-.045-.1-.045-.1-.043-.1-.042-.103-.04-.101-.04-.104-.039-.104-.038-.103-.036-.105-.035-.107-.034-.106-.032-.106-.031-.107-.03-.108-.03-.109-.028-.109-.026-.109-.025-.11-.024-.11-.022-.112-.022-.111-.02-.113-.018-.114-.018-.112-.016-.113-.015-.115-.013-.115-.012-.115-.011-.115-.009-.116-.008-.117-.006-.117-.005-.117-.004-.119-.002-.117-.001-.119.001z" fill="#4bff3d" fill-rule="evenodd"/></svg>