<?xml version="1.0" encoding="UTF-8"?>
<!DOCTYPE svg  PUBLIC '-//W3C//DTD SVG 1.1//EN'  'http://www.w3.org/Graphics/SVG/1.1/DTD/svg11.dtd'>
<svg clip-rule="evenodd" fill-rule="evenodd" stroke-linecap="round" stroke-linejoin="round" stroke-miterlimit="1.4142" version="1.1" viewBox="0 0 1280 1150" xmlns="http://www.w3.org/2000/svg"><path d="m336.27 135.02c0.763-13.98 6.708-22.648 19.178-24.858 157.56-29.983 315.17-28.387 472.84 0 16.09 2.896 28.46 7.255 28.389 24.858 15.692 268.48 28.56 537.02 34.19 805.75 1.712 42.779-27.339 56.659-62.579 65.202-128.44 35.08-361.03 36.21-476.42-2.74-28.205-9.522-43.046-24.786-42.41-62.462 4.559-270.03 13.748-538.53 26.816-805.75z" fill="#fff" stroke="#000" stroke-width="3px"/><g id="Ring beschriftung"><g transform="matrix(.87312 0 0 1 93.914 0)"><path d="m751.79 777.85c41.63 0 75.429 29.759 75.429 66.413 0 36.655-33.799 66.414-75.429 66.414s-75.429-29.759-75.429-66.414c0-36.654 33.799-66.413 75.429-66.413zm0 16.603c31.223 0 56.572 22.319 56.572 49.81s-25.349 49.81-56.572 49.81c-31.222 0-56.571-22.319-56.571-49.81s25.349-49.81 56.571-49.81z" fill="#fbd30b" stroke="#987a00" stroke-width="2.13px"/></g><g id="lock wifi"><g id="Lock" transform="matrix(1.1432 0 0 2.049 -174.29 -1188.8)"><g transform="translate(0 96.259)"><rect x="803.72" y="895.02" width="12.343" height="4.453" fill="none" stroke="#999" stroke-width="1.21px"/></g><g transform="matrix(1 0 0 .7209 -2.8422e-14 346.06)"><path d="m805.46 895.02c0.036-4.544 8.228-4.52 8.282 0" fill="none" stroke="#999" stroke-width="1.51px"/></g></g><g transform="matrix(-1.1038e-16 -.68638 .68638 -1.1038e-16 52.428 1211.9)" fill="none" stroke="#999" stroke-width="2.91px"><path d="m532.5 1001.6c3.037-3.06 6.083-2.457 9.134 0"/><path d="m529.22 994.65c5.176-3.942 10.31-3.82 15.405 0"/><path d="m526.54 988.85c6.781-4.897 13.694-5.464 20.791 0"/></g><g transform="matrix(1.9444e-16 .68638 -.68638 1.9444e-16 1450.9 474.85)" fill="none" stroke="#999" stroke-width="2.91px"><path d="m532.5 1001.6c3.037-3.06 6.083-2.457 9.134 0"/><path d="m529.22 994.65c5.176-3.942 10.31-3.82 15.405 0"/><path d="m526.54 988.85c6.781-4.897 13.694-5.464 20.791 0"/></g></g><g id="beschriftung" fill="#999" fill-rule="nonzero"><g transform="translate(296.23 -275)"><path d="m414.66 1038.2v-2.07c0-0.29-0.058-0.49-0.172-0.59s-0.344-0.15-0.69-0.15v3.55h0.141c0.269 0 0.457-0.06 0.562-0.17 0.106-0.11 0.159-0.3 0.159-0.57zm-3.454 8.51v-12.96h3.023c1.055 0 1.819 0.19 2.294 0.56s0.712 0.97 0.712 1.79v1.36c0 0.68-0.167 1.2-0.501 1.56-0.334 0.37-0.832 0.57-1.494 0.6v0.07c0.738 0.05 1.255 0.23 1.551 0.55s0.444 0.86 0.444 1.63v3.3c0 0.26 0.02 0.53 0.061 0.79 0.041 0.27 0.1 0.52 0.176 0.75h-2.557c-0.083-0.22-0.146-0.47-0.189-0.74-0.044-0.27-0.066-0.56-0.066-0.87v-0.48-2.82c0-0.36-0.069-0.64-0.207-0.82s-0.344-0.28-0.62-0.28h-0.035v6.01h-2.592z"/><path d="m417.92 1046.7v-12.96h4.826v1.8h-2.233v2.99h2.18v1.87h-2.18v4.34h2.233v1.96h-4.826z"/></g><g transform="translate(198.87 -223.81)"><path d="m412.28 1046.7-1.292-12.96h2.601l0.308 4.95c0.029 0.43 0.054 0.91 0.074 1.43 0.021 0.52 0.046 1.26 0.075 2.24h0.088c0.041-0.58 0.084-1.12 0.128-1.63 0.043-0.51 0.086-0.93 0.127-1.28l0.677-5.71h2.742l0.536 6.12c6e-3 0.1 0.032 0.43 0.079 1s0.088 1.07 0.123 1.5h0.088c0.024-0.71 0.051-1.37 0.084-1.98 0.032-0.61 0.068-1.2 0.109-1.77l0.405-4.87h2.171l-1.398 12.96h-2.988l-0.651-6.95c-0.023-0.24-0.045-0.53-0.065-0.85-0.021-0.33-0.04-0.75-0.058-1.27h-0.096l-0.914 9.07h-2.953z"/><path d="m422.06 1046.7v-10.37h2.285v10.37h-2.285zm0-10.99v-1.97h2.285v1.97h-2.285z"/><path d="m425.1 1046.7v-10.37h2.25v0.87h0.035c0.194-0.36 0.425-0.63 0.695-0.8 0.269-0.17 0.583-0.26 0.94-0.26 0.498 0 0.872 0.15 1.121 0.44 0.249 0.3 0.373 0.74 0.373 1.33v4h-2.303v-3.25c0-0.24-0.03-0.4-0.092-0.49-0.061-0.08-0.168-0.12-0.321-0.12-0.14 0-0.244 0.05-0.312 0.15-0.067 0.1-0.101 0.25-0.101 0.46v8.04h-2.285z"/><path d="m433.64 1038.3v1.96h0.826v-1.96c0-0.23-0.032-0.39-0.097-0.49-0.064-0.1-0.169-0.15-0.316-0.15-0.146 0-0.252 0.05-0.316 0.15-0.065 0.1-0.097 0.26-0.097 0.49zm0 6.27c0 0.23 0.032 0.39 0.097 0.49 0.064 0.1 0.17 0.14 0.316 0.14 0.147 0 0.252-0.04 0.316-0.14 0.065-0.1 0.097-0.26 0.097-0.49v-1.94h2.285v1.93c0 0.75-0.236 1.33-0.707 1.74-0.472 0.41-1.135 0.62-1.991 0.62-0.967 0-1.658-0.22-2.074-0.67-0.416-0.44-0.624-1.21-0.624-2.28v-4.97c0-1.09 0.205-1.85 0.615-2.29s1.099-0.66 2.066-0.66c0.849 0 1.514 0.2 1.995 0.59 0.48 0.4 0.72 0.94 0.72 1.64v3.52h-3.111v2.77z"/><rect x="437.47" y="1033.7" width="2.285" height="12.964"/><path d="m442.76 1038.3v1.96h0.826v-1.96c0-0.23-0.032-0.39-0.096-0.49-0.065-0.1-0.17-0.15-0.317-0.15-0.146 0-0.252 0.05-0.316 0.15-0.065 0.1-0.097 0.26-0.097 0.49zm0 6.27c0 0.23 0.032 0.39 0.097 0.49 0.064 0.1 0.17 0.14 0.316 0.14 0.147 0 0.252-0.04 0.317-0.14 0.064-0.1 0.096-0.26 0.096-0.49v-1.94h2.285v1.93c0 0.75-0.235 1.33-0.707 1.74s-1.135 0.62-1.991 0.62c-0.967 0-1.658-0.22-2.074-0.67-0.416-0.44-0.624-1.21-0.624-2.28v-4.97c0-1.09 0.205-1.85 0.615-2.29s1.099-0.66 2.066-0.66c0.849 0 1.514 0.2 1.995 0.59 0.48 0.4 0.72 0.94 0.72 1.64v3.52h-3.111v2.77z"/><path d="m451.94 1044.5c0 0.77-0.232 1.37-0.695 1.78-0.462 0.41-1.13 0.62-2.003 0.62-0.856 0-1.522-0.21-2-0.62-0.477-0.42-0.716-1-0.716-1.74v-1.93h2.303v1.94c0 0.23 0.032 0.39 0.096 0.49 0.065 0.1 0.17 0.14 0.317 0.14 0.146 0 0.252-0.04 0.316-0.14s0.097-0.26 0.097-0.49v-0.93c0-0.42-0.381-0.94-1.143-1.55-0.164-0.13-0.293-0.23-0.387-0.3l-0.017-0.02c-1.055-0.87-1.582-1.75-1.582-2.63v-0.92c0-0.69 0.237-1.22 0.712-1.6 0.474-0.38 1.136-0.57 1.986-0.57 0.861 0 1.529 0.2 2.004 0.59 0.475 0.4 0.712 0.97 0.712 1.69v1.58h-2.285v-1.61c0-0.23-0.033-0.39-0.097-0.49s-0.17-0.15-0.316-0.15c-0.147 0-0.252 0.05-0.317 0.15-0.064 0.1-0.096 0.26-0.096 0.49v0.55c0 0.47 0.366 0.99 1.098 1.55 0.17 0.13 0.302 0.23 0.396 0.3 0.72 0.59 1.17 1.04 1.349 1.36 0.178 0.33 0.268 0.75 0.268 1.27v1.19z"/><path d="m457.94 1044.5c0 0.77-0.231 1.37-0.694 1.78s-1.131 0.62-2.004 0.62c-0.856 0-1.522-0.21-2-0.62-0.477-0.42-0.716-1-0.716-1.74v-1.93h2.303v1.94c0 0.23 0.032 0.39 0.096 0.49 0.065 0.1 0.17 0.14 0.317 0.14 0.146 0 0.252-0.04 0.316-0.14 0.065-0.1 0.097-0.26 0.097-0.49v-0.93c0-0.42-0.381-0.94-1.143-1.55-0.164-0.13-0.293-0.23-0.386-0.3l-0.018-0.02c-1.055-0.87-1.582-1.75-1.582-2.63v-0.92c0-0.69 0.237-1.22 0.712-1.6 0.474-0.38 1.137-0.57 1.986-0.57 0.861 0 1.529 0.2 2.004 0.59 0.475 0.4 0.712 0.97 0.712 1.69v1.58h-2.285v-1.61c0-0.23-0.032-0.39-0.097-0.49-0.064-0.1-0.17-0.15-0.316-0.15-0.147 0-0.252 0.05-0.317 0.15-0.064 0.1-0.096 0.26-0.096 0.49v0.55c0 0.47 0.366 0.99 1.098 1.55 0.17 0.13 0.302 0.23 0.396 0.3 0.72 0.59 1.17 1.04 1.349 1.36 0.179 0.33 0.268 0.75 0.268 1.27v1.19z"/></g><g transform="translate(223.12 -170.6)"><path d="m414.66 1039.1v-3.01c0-0.29-0.052-0.49-0.154-0.59-0.103-0.1-0.303-0.15-0.602-0.15h-0.106v4.47h0.159c0.269 0 0.454-0.05 0.553-0.16 0.1-0.1 0.15-0.29 0.15-0.56zm-3.454 7.57v-12.96h3.023c1.037 0 1.797 0.19 2.281 0.57 0.483 0.37 0.725 0.97 0.725 1.78v2.77c0 1-0.239 1.72-0.716 2.15-0.478 0.43-1.282 0.64-2.413 0.64h-0.308v5.05h-2.592z"/><path d="m420.1 1038.3v6.27c0 0.23 0.032 0.39 0.097 0.49 0.064 0.1 0.17 0.14 0.316 0.14 0.147 0 0.252-0.04 0.317-0.14 0.064-0.1 0.096-0.26 0.096-0.49v-6.27c0-0.22-0.033-0.39-0.101-0.49-0.067-0.1-0.177-0.15-0.329-0.15-0.141 0-0.242 0.05-0.304 0.15-0.061 0.09-0.092 0.25-0.092 0.49zm-2.303 0.7c0-1.07 0.21-1.83 0.629-2.28s1.109-0.67 2.07-0.67 1.65 0.22 2.069 0.67 0.629 1.21 0.629 2.28v4.97c0 1.06-0.21 1.82-0.629 2.27s-1.108 0.68-2.069 0.68-1.651-0.23-2.07-0.68-0.629-1.21-0.629-2.27v-4.97z"/><path d="m424.81 1046.7-1.415-10.37h2.32l0.431 5.37c0.023 0.34 0.041 0.72 0.053 1.13 0.011 0.41 0.017 0.84 0.017 1.3h0.088c0.024-0.86 0.085-1.72 0.185-2.56 6e-3 -0.06 0.011-0.11 0.017-0.14l0.572-5.1h2.399l0.466 5.37c6e-3 0.06 0.019 0.35 0.039 0.88 0.021 0.54 0.043 1.05 0.066 1.55h0.097c0.035-0.77 0.091-1.56 0.167-2.37 0.018-0.17 0.026-0.27 0.026-0.31l0.466-5.12h2.215l-1.547 10.37h-2.645l-0.431-4.75c-0.012-0.15-0.026-0.44-0.044-0.88s-0.035-0.94-0.053-1.51h-0.088c-0.029 0.77-0.088 1.5-0.175 2.2v0.03l-0.616 4.91h-2.61z"/><path d="m435.45 1038.3v1.96h0.826v-1.96c0-0.23-0.033-0.39-0.097-0.49s-0.17-0.15-0.316-0.15c-0.147 0-0.252 0.05-0.317 0.15-0.064 0.1-0.096 0.26-0.096 0.49zm0 6.27c0 0.23 0.032 0.39 0.096 0.49 0.065 0.1 0.17 0.14 0.317 0.14 0.146 0 0.252-0.04 0.316-0.14s0.097-0.26 0.097-0.49v-1.94h2.285v1.93c0 0.75-0.236 1.33-0.708 1.74-0.471 0.41-1.135 0.62-1.99 0.62-0.967 0-1.659-0.22-2.075-0.67-0.416-0.44-0.624-1.21-0.624-2.28v-4.97c0-1.09 0.205-1.85 0.616-2.29 0.41-0.44 1.098-0.66 2.065-0.66 0.85 0 1.515 0.2 1.995 0.59 0.481 0.4 0.721 0.94 0.721 1.64v3.52h-3.111v2.77z"/><path d="m439.28 1046.7v-10.37h2.25v0.87h0.035c0.193-0.36 0.425-0.63 0.694-0.8 0.27-0.17 0.583-0.26 0.941-0.26 0.498 0 0.871 0.15 1.12 0.44 0.249 0.3 0.374 0.74 0.374 1.33v4h-2.303v-3.25c0-0.24-0.031-0.4-0.092-0.49-0.062-0.08-0.169-0.12-0.321-0.12-0.141 0-0.245 0.05-0.312 0.15-0.068 0.1-0.101 0.25-0.101 0.46v8.04h-2.285z"/></g><g transform="translate(256.25 -118.22)"><path d="m411.2 1046.7v-12.96h4.825v1.8h-2.233v2.99h2.18v1.87h-2.18v4.34h2.233v1.96h-4.825z"/><path d="m416.34 1038v-1.66h0.58v-1.92h2.303v1.92h0.668v1.66h-0.668v6.31c0 0.32 0.04 0.52 0.119 0.61 0.079 0.08 0.236 0.13 0.47 0.13h0.079v1.66h-1.441c-0.557 0-0.951-0.12-1.182-0.38-0.232-0.25-0.348-0.73-0.348-1.43v-6.9h-0.58z"/><path d="m420.28 1046.7v-12.96h2.285v3.46h0.035c0.17-0.36 0.387-0.63 0.65-0.8 0.264-0.17 0.58-0.26 0.95-0.26 0.498 0 0.871 0.15 1.12 0.44 0.249 0.3 0.374 0.74 0.374 1.33v8.79h-2.303v-8.04c0-0.24-0.031-0.4-0.092-0.49-0.062-0.08-0.169-0.12-0.321-0.12-0.141 0-0.245 0.05-0.312 0.15-0.068 0.1-0.101 0.25-0.101 0.46v8.04h-2.285z"/><path d="m428.67 1038.3v1.96h0.827v-1.96c0-0.23-0.033-0.39-0.097-0.49-0.065-0.1-0.17-0.15-0.317-0.15-0.146 0-0.251 0.05-0.316 0.15-0.064 0.1-0.097 0.26-0.097 0.49zm0 6.27c0 0.23 0.033 0.39 0.097 0.49 0.065 0.1 0.17 0.14 0.316 0.14 0.147 0 0.252-0.04 0.317-0.14 0.064-0.1 0.097-0.26 0.097-0.49v-1.94h2.285v1.93c0 0.75-0.236 1.33-0.708 1.74-0.471 0.41-1.135 0.62-1.991 0.62-0.966 0-1.658-0.22-2.074-0.67-0.416-0.44-0.624-1.21-0.624-2.28v-4.97c0-1.09 0.205-1.85 0.615-2.29 0.411-0.44 1.099-0.66 2.066-0.66 0.85 0 1.515 0.2 1.995 0.59 0.48 0.4 0.721 0.94 0.721 1.64v3.52h-3.112v2.77z"/><path d="m432.5 1046.7v-10.37h2.25v0.87h0.036c0.193-0.36 0.424-0.63 0.694-0.8 0.269-0.17 0.583-0.26 0.94-0.26 0.498 0 0.872 0.15 1.121 0.44 0.249 0.3 0.373 0.74 0.373 1.33v4h-2.302v-3.25c0-0.24-0.031-0.4-0.093-0.49-0.061-0.08-0.168-0.12-0.32-0.12-0.141 0-0.245 0.05-0.312 0.15-0.068 0.1-0.101 0.25-0.101 0.46v8.04h-2.286z"/><path d="m438.79 1046.7v-10.37h2.25v0.87h0.036c0.193-0.36 0.424-0.63 0.694-0.8 0.269-0.17 0.583-0.26 0.94-0.26 0.498 0 0.872 0.15 1.121 0.44 0.249 0.3 0.373 0.74 0.373 1.33v8.79h-2.302v-8.04c0-0.24-0.031-0.4-0.093-0.49-0.061-0.08-0.168-0.12-0.32-0.12-0.141 0-0.245 0.05-0.312 0.15-0.068 0.1-0.101 0.25-0.101 0.46v8.04h-2.286z"/><path d="m447.18 1038.3v1.96h0.826v-1.96c0-0.23-0.032-0.39-0.096-0.49-0.065-0.1-0.17-0.15-0.317-0.15-0.146 0-0.252 0.05-0.316 0.15-0.065 0.1-0.097 0.26-0.097 0.49zm0 6.27c0 0.23 0.032 0.39 0.097 0.49 0.064 0.1 0.17 0.14 0.316 0.14 0.147 0 0.252-0.04 0.317-0.14 0.064-0.1 0.096-0.26 0.096-0.49v-1.94h2.285v1.93c0 0.75-0.235 1.33-0.707 1.74s-1.135 0.62-1.991 0.62c-0.967 0-1.658-0.22-2.074-0.67-0.416-0.44-0.624-1.21-0.624-2.28v-4.97c0-1.09 0.205-1.85 0.615-2.29s1.099-0.66 2.066-0.66c0.849 0 1.514 0.2 1.995 0.59 0.48 0.4 0.72 0.94 0.72 1.64v3.52h-3.111v2.77z"/><path d="m450.65 1038v-1.66h0.58v-1.92h2.303v1.92h0.668v1.66h-0.668v6.31c0 0.32 0.039 0.52 0.118 0.61 0.079 0.08 0.236 0.13 0.471 0.13h0.079v1.66h-1.442c-0.556 0-0.95-0.12-1.182-0.38-0.231-0.25-0.347-0.73-0.347-1.43v-6.9h-0.58z"/></g></g><g id="Wifi"><g transform="matrix(1 0 0 1.148 0 -136.27)"><rect x="781.42" y="920.64" width="4.018" height="6.774" fill="#999"/></g><g transform="matrix(1 0 0 1.7357 8.4496 -681.27)"><rect x="781.42" y="920.64" width="4.018" height="6.774" fill="#999"/></g><g transform="matrix(1 0 0 2.3482 16.255 -1249.4)"><rect x="781.42" y="920.64" width="4.018" height="6.774" fill="#999"/></g><g transform="matrix(1 0 0 2.9393 24.759 -1797.5)"><rect x="781.42" y="920.64" width="4.018" height="6.774" fill="#999"/></g><g transform="matrix(1 0 0 3.7043 33.181 -2507)"><rect x="781.42" y="920.64" width="4.018" height="6.774" fill="#999"/></g></g></g></svg>
