<?xml version="1.0" encoding="UTF-8"?>
<!DOCTYPE svg  PUBLIC '-//W3C//DTD SVG 1.1//EN'  'http://www.w3.org/Graphics/SVG/1.1/DTD/svg11.dtd'>
<svg clip-rule="evenodd" fill-rule="evenodd" stroke-linejoin="round" stroke-miterlimit="1.4142" version="1.1" viewBox="0 0 1280 1150" xmlns="http://www.w3.org/2000/svg"><g transform="matrix(.96593 -.25882 .25882 .96593 -524.48 206.12)"><g id="Antennen 1043"><g id="new Antenne 1043" fill="#313131" stroke="#000" stroke-width=".5px"><path d="m652.04 619.12h51.09l-2.782-92.568h-44.954l-3.354 92.568z"/><rect x="665.08" y="199.14" width="27.899" height="28.754"/><path d="m649.24 689.44 1.745-72.483c18.12 1.594 36.233 1.866 54.335 0l1.86 72.483h-57.94z"/><path d="m650.85 597.16v15.136c18.149 2.247 36.381 2.42 54.718 0v-15.136c-18.224 1.953-36.465 1.743-54.718 0z"/><path d="m663.14 341.64h31.293v-118.18h-30.688l-0.605 118.18z"/><path d="m651.35 593.43c17.917 1.565 35.697 1.532 53.347 0l-1.562-41.415c-16.586 1.957-33.507 1.853-50.713 0l-1.072 41.415z"/><path d="m653.08 547.91c16.718 1.65 33.396 1.777 50.024 0l-0.6-14.589c-16.215 1.662-32.513 1.617-48.889 0l-0.535 14.589z"/><path d="m653.61 529.95c16.379 1.306 32.682 1.407 48.889 0l-5.312-191.62c-12.013 2.017-24.053 2.106-36.121 0l-7.456 191.62z"/><rect x="663.75" y="205.1" width="30.688" height="14.659"/><path d="m663.69 200.97h30.756v-56.83c-6.204-15.505-23.196-15.536-30.756 0v56.83z"/></g></g></g><g id="rippen"><g id="rippen rechts"><g transform="matrix(.7611 0 0 .7611 298.96 294.45)"><path d="m1241.6 892.41 7.41 13.916-3.05 7.493h-4.36l-2.61-21.409h2.61z" fill="#333" stroke="#000" stroke-width=".66px"/></g><g transform="matrix(.7611 0 0 .7611 298.96 294.45)"><path d="m1240.1 909.58c3.79 0.407 6.88-0.478 8.92-3.25v9.388c-1.64 2.968-4.77 3.276-8.31 3.355l-0.61-9.493z" fill="#333" stroke="#000" stroke-width=".66px"/></g><g transform="matrix(.89583 0 0 .89583 130.99 146.98)"><path d="m1241.6 892.41 7.41 13.916-3.05 7.493h-4.36l-2.61-21.409h2.61z" fill="#333" stroke="#000" stroke-width=".56px"/></g><g transform="matrix(.89583 0 0 .89583 130.99 146.98)"><path d="m1240.1 909.58c3.79 0.407 6.88-0.478 8.92-3.25v9.388c-1.64 2.968-4.77 3.276-8.31 3.355l-0.61-9.493z" fill="#333" stroke="#000" stroke-width=".56px"/></g><g transform="translate(.45556 25.863)"><path d="m1241.6 892.41 7.41 13.916-3.05 7.493h-4.36l-2.61-21.409h2.61z" fill="#333" stroke="#000" stroke-width=".5px"/></g><g transform="translate(.45556 25.863)"><path d="m1240.1 909.58c3.79 0.407 6.88-0.478 8.92-3.25v9.388c-1.64 2.968-4.77 3.276-8.31 3.355l-0.61-9.493z" fill="#333" stroke="#000" stroke-width=".5px"/></g><g fill="#333" stroke="#000" stroke-width=".5px"><path d="m1241.6 892.41 7.41 13.916-3.05 7.493h-4.36l-2.61-21.409h2.61z"/><path d="m1240.1 909.58c3.79 0.407 6.88-0.478 8.92-3.25v9.388c-1.64 2.968-4.77 3.276-8.31 3.355l-0.61-9.493z"/></g><path d="m1240.1 866.78 8.85 15.218-2.95 4.956h-7.12l-2.33-20.174h3.55z" fill="#333" stroke="#000" stroke-width=".5px"/><g transform="matrix(1 0 0 .89603 0 92.961)"><path d="m1238.9 883.85c3.83 0.552 7.14-0.782 10.14-3.23v9.914c-1.03 2.121-4.15 3.227-8.87 3.55l-1.27-10.234z" fill="#333" stroke="#000" stroke-width=".53px"/></g><path d="m1140.2 705.01c9.8 2.542 17.38 7.791 22.44 16.121l86.3 136.93-1.06 5.367-4.19 1.382-7.96-1.238-95.53-158.56z" fill="#333" stroke="#000" stroke-width=".5px"/><g transform="matrix(1 0 0 1.3469 0 -298.37)"><path d="m1237.4 868c5.31 0.035 9.62-0.674 11.52-3.164 0.12-0.713 0.01-5.929 0-6.238-2.19 3.546-6.96 4.464-12.95 4.045" fill="#333" stroke="#000" stroke-width=".42px"/></g></g><g id="rippen rechts1" transform="matrix(-1 0 0 1 1328.5 0)"><g transform="matrix(.7611 0 0 .7611 298.96 294.45)"><path d="m1241.6 892.41 7.41 13.916-3.05 7.493h-4.36l-2.61-21.409h2.61z" fill="#333" stroke="#000" stroke-width=".66px"/></g><g transform="matrix(.7611 0 0 .7611 298.96 294.45)"><path d="m1240.1 909.58c3.79 0.407 6.88-0.478 8.92-3.25v9.388c-1.64 2.968-4.77 3.276-8.31 3.355l-0.61-9.493z" fill="#333" stroke="#000" stroke-width=".66px"/></g><g transform="matrix(.89583 0 0 .89583 130.99 146.98)"><path d="m1241.6 892.41 7.41 13.916-3.05 7.493h-4.36l-2.61-21.409h2.61z" fill="#333" stroke="#000" stroke-width=".56px"/></g><g transform="matrix(.89583 0 0 .89583 130.99 146.98)"><path d="m1240.1 909.58c3.79 0.407 6.88-0.478 8.92-3.25v9.388c-1.64 2.968-4.77 3.276-8.31 3.355l-0.61-9.493z" fill="#333" stroke="#000" stroke-width=".56px"/></g><g transform="translate(.45556 25.863)"><path d="m1241.6 892.41 7.41 13.916-3.05 7.493h-4.36l-2.61-21.409h2.61z" fill="#333" stroke="#000" stroke-width=".5px"/></g><g transform="translate(.45556 25.863)"><path d="m1240.1 909.58c3.79 0.407 6.88-0.478 8.92-3.25v9.388c-1.64 2.968-4.77 3.276-8.31 3.355l-0.61-9.493z" fill="#333" stroke="#000" stroke-width=".5px"/></g><g fill="#333" stroke="#000" stroke-width=".5px"><path d="m1241.6 892.41 7.41 13.916-3.05 7.493h-4.36l-2.61-21.409h2.61z"/><path d="m1240.1 909.58c3.79 0.407 6.88-0.478 8.92-3.25v9.388c-1.64 2.968-4.77 3.276-8.31 3.355l-0.61-9.493z"/></g><path d="m1240.1 866.78 8.85 15.218-2.95 4.956h-7.12l-2.33-20.174h3.55z" fill="#333" stroke="#000" stroke-width=".5px"/><g transform="matrix(1 0 0 .89603 0 92.961)"><path d="m1238.9 883.85c3.83 0.552 7.14-0.782 10.14-3.23v9.914c-1.03 2.121-4.15 3.227-8.87 3.55l-1.27-10.234z" fill="#333" stroke="#000" stroke-width=".53px"/></g><path d="m1140.2 705.01c9.8 2.542 17.38 7.791 22.44 16.121l86.3 136.93-1.06 5.367-4.19 1.382-7.96-1.238-95.53-158.56z" fill="#333" stroke="#000" stroke-width=".5px"/><g transform="matrix(1 0 0 1.3469 0 -298.37)"><path d="m1237.4 868c5.31 0.035 9.62-0.674 11.52-3.164 0.12-0.713 0.01-5.929 0-6.238-2.19 3.546-6.96 4.464-12.95 4.045" fill="#333" stroke="#000" stroke-width=".42px"/></g></g></g><g id="Router"><g id="Plaste weis"><path d="m84.296 981.95c2.217-49.09 3.297-101.9 12.226-129.05l94.786-149.18c3.702-5.827 32.114-14.407 50.886-14.842h820.58c39.79 0.288 69.42 3.841 75.91 14.842l89.38 142.99c3.38 5.992 6.1 12.184 8.31 18.529 4.2 38.789 5.35 77.76 6.85 116.71l-12.81 14.799h-1132.1l-14.058-14.799z" fill="#fff" stroke="#000" stroke-linecap="round" stroke-width="3px"/><path d="m259.7 986.32h-165.42c-4.314-0.183-7.61-1.717-10.062-4.371v20.803c0 3.13 7.889 10.88 10.062 10.88h165.42v-27.312z" fill="#fff" stroke="#000" stroke-linecap="round" stroke-width="3px"/><g transform="matrix(-1 0 0 1 1327.4 0)"><path d="m259.7 986.32h-165.42c-4.314-0.183-7.61-1.717-10.062-4.371v20.803c0 3.13 7.889 10.88 10.062 10.88h165.42v-27.312z" fill="#fff" stroke="#000" stroke-linecap="round" stroke-width="3px"/></g></g><g id="QSS"><path d="m1223.3 928.48c0-5.253-4.26-9.518-9.51-9.518h-98.91c-5.26 0-9.52 4.265-9.52 9.518v44.481c0 5.253 4.26 9.517 9.52 9.517h98.91c5.25 0 9.51-4.264 9.51-9.517v-44.481z" fill="#40c82b" stroke="#000" stroke-linecap="round" stroke-width=".65px"/><g id="wifi-links"><path d="m1165 941.73c-3.99 6.46-3.9 12.505 0 18.447" fill="none" stroke="#000" stroke-linecap="round" stroke-width=".65px"/><g transform="matrix(1.2227 0 0 1.1386 -262.48 -131.91)"><path d="m1165 941.73c-3.99 6.46-3.9 12.505 0 18.447" fill="none" stroke="#000" stroke-linecap="round" stroke-width=".55px"/></g><g transform="matrix(1.2802 0 0 1.279 -332.77 -265.28)"><path d="m1165 941.73c-3.99 6.46-3.9 12.505 0 18.447" fill="none" stroke="#000" stroke-linecap="round" stroke-width=".51px"/></g></g><g id="wifi-rechts" transform="matrix(-1 5.6655e-16 -5.6655e-16 -1 2373 1902.6)"><path d="m1165 941.73c-3.99 6.46-3.9 12.505 0 18.447" fill="none" stroke="#000" stroke-linecap="round" stroke-width=".65px"/><g transform="matrix(1.2227 0 0 1.1386 -262.48 -131.91)"><path d="m1165 941.73c-3.99 6.46-3.9 12.505 0 18.447" fill="none" stroke="#000" stroke-linecap="round" stroke-width=".55px"/></g><g transform="matrix(1.2802 0 0 1.279 -332.77 -265.28)"><path d="m1165 941.73c-3.99 6.46-3.9 12.505 0 18.447" fill="none" stroke="#000" stroke-linecap="round" stroke-width=".51px"/></g></g><g transform="matrix(1.15 0 0 .95 -178.76 57.568)" fill="#fff" fill-rule="nonzero" stroke="#313131" stroke-width=".38px"><path d="m1176.5 933.59v13.166c0 0.355 0.05 0.608 0.15 0.759 0.11 0.15 0.28 0.225 0.52 0.225 0.25 0 0.43-0.077 0.54-0.232 0.1-0.155 0.15-0.406 0.15-0.752v-13.166c0-0.356-0.05-0.606-0.15-0.752-0.11-0.146-0.29-0.219-0.54-0.219-0.24 0-0.41 0.078-0.52 0.233-0.1 0.155-0.15 0.401-0.15 0.738zm-4.04 1.353c0-1.877 0.37-3.215 1.1-4.012 0.73-0.798 1.93-1.197 3.61-1.197 1.67 0 2.88 0.395 3.61 1.183 0.72 0.788 1.09 2.131 1.09 4.026v10.664c0 1.377-0.17 2.414-0.52 3.111s-0.94 1.237-1.78 1.62c0 0.219 0.05 0.376 0.14 0.472 0.1 0.095 0.25 0.143 0.45 0.143h1.63v2.94h-2.49c-0.52 0-0.92-0.256-1.2-0.766-0.29-0.51-0.43-1.244-0.43-2.201v-0.137c-0.15 9e-3 -0.29 0.016-0.42 0.021-0.13 4e-3 -0.25 6e-3 -0.37 6e-3 -1.52 0-2.64-0.414-3.35-1.244-0.71-0.829-1.07-2.151-1.07-3.965v-10.664z"/><path d="m1182.9 933.8c0-1.285 0.41-2.283 1.24-2.994 0.82-0.711 1.98-1.067 3.46-1.067 1.5 0 2.65 0.358 3.46 1.074 0.81 0.715 1.22 1.738 1.22 3.069v3.295h-4.01v-3.582c0-0.365-0.05-0.618-0.15-0.759s-0.27-0.212-0.52-0.212-0.43 0.075-0.54 0.226c-0.1 0.15-0.15 0.399-0.15 0.745v1.791c0 0.301 0.03 0.563 0.11 0.786s0.2 0.44 0.38 0.649l3.87 4.252c0.36 0.392 0.62 0.807 0.78 1.245 0.15 0.437 0.23 1.134 0.23 2.091v2.352c0 1.294-0.41 2.29-1.22 2.987-0.82 0.697-1.98 1.046-3.48 1.046-1.54 0-2.71-0.364-3.5-1.094-0.78-0.729-1.18-1.804-1.18-3.226v-3.774h4.01v4.061c0 0.346 0.05 0.597 0.15 0.752 0.11 0.155 0.29 0.232 0.54 0.232 0.24 0 0.41-0.075 0.52-0.225 0.1-0.151 0.15-0.404 0.15-0.759v-2.133c0-0.292-0.05-0.563-0.15-0.813-0.11-0.251-0.29-0.522-0.54-0.814l-3.64-4.115c-0.37-0.419-0.64-0.841-0.8-1.265s-0.24-0.991-0.24-1.702v-0.301-1.818z"/><path d="m1193.2 933.8c0-1.285 0.41-2.283 1.24-2.994 0.82-0.711 1.98-1.067 3.46-1.067 1.5 0 2.65 0.358 3.46 1.074 0.81 0.715 1.22 1.738 1.22 3.069v3.295h-4.01v-3.582c0-0.365-0.05-0.618-0.15-0.759s-0.27-0.212-0.52-0.212-0.43 0.075-0.54 0.226c-0.1 0.15-0.16 0.399-0.16 0.745v1.791c0 0.301 0.04 0.563 0.12 0.786s0.2 0.44 0.38 0.649l3.87 4.252c0.36 0.392 0.62 0.807 0.78 1.245 0.15 0.437 0.23 1.134 0.23 2.091v2.352c0 1.294-0.41 2.29-1.23 2.987-0.81 0.697-1.97 1.046-3.47 1.046-1.54 0-2.71-0.364-3.5-1.094-0.79-0.729-1.18-1.804-1.18-3.226v-3.774h4v4.061c0 0.346 0.06 0.597 0.16 0.752 0.11 0.155 0.29 0.232 0.54 0.232 0.24 0 0.41-0.075 0.51-0.225 0.11-0.151 0.16-0.404 0.16-0.759v-2.133c0-0.292-0.05-0.563-0.16-0.813-0.1-0.251-0.28-0.522-0.53-0.814l-3.64-4.115c-0.38-0.419-0.64-0.841-0.8-1.265s-0.24-0.991-0.24-1.702v-0.301-1.818z"/></g><g id="ON/off" transform="matrix(1.1745 0 0 1.1745 753.45 -223.96)"><g transform="translate(-.62752 .35555)"><ellipse cx="321.8" cy="999.85" rx="16.795" ry="16.434" fill="#48484a" stroke="#000" stroke-linecap="round" stroke-width=".85px"/></g><g transform="matrix(.76611 0 0 .76611 74.738 234.39)"><ellipse cx="321.8" cy="999.85" rx="16.795" ry="16.434" fill="#48484a" stroke="#000" stroke-linecap="round" stroke-width="2.22px"/></g><g transform="translate(-.094229 .93329)"><path d="m321.38 992.93v13.068" fill="none" stroke="#000" stroke-linecap="round" stroke-width="2.98px"/></g></g></g><path d="m97.426 852.5c-0.643-11.085 1132.9-7.502 1133.6 0" fill="none" stroke="#000" stroke-linecap="round" stroke-width="3px"/><g id="Front"><g transform="matrix(1.0033 0 0 1.0292 -2.4187 -29.468)"><path d="m1077.9 918.63c0-19.461-16.2-35.262-36.17-35.262h-753.31c-19.963 0-36.171 15.801-36.171 35.262v54.798c0 19.461 16.208 35.258 36.171 35.258h753.31c19.97 0 36.17-15.797 36.17-35.258v-54.798z" fill="#333"/></g><path d="m1079.2 966.72c0-10.142-8.23-18.377-18.37-18.377h-791.77c-10.142 0-18.376 8.235-18.376 18.377v36.75c0 10.14 8.234 18.38 18.376 18.38h791.77c10.14 0 18.37-8.24 18.37-18.38v-36.75z" fill="#333"/><g transform="matrix(1 0 0 1.7639 0 -718.18)"><path d="m936.46 944.18c0-2.242-3.211-4.062-7.165-4.062h-523.46c-3.955 0-7.165 1.82-7.165 4.062v2.145c0 2.242 3.21 4.063 7.165 4.063h523.46c3.954 0 7.165-1.821 7.165-4.063v-2.145z" fill="#368123" stroke="#000" stroke-width=".7px"/></g><circle cx="433.52" cy="948.69" r="6.161" fill="#afef9f" stroke="#000" stroke-width=".5px"/><g transform="translate(76.344)"><circle cx="433.52" cy="948.69" r="6.161" fill="#afef9f" stroke="#000" stroke-width=".5px"/></g><g transform="translate(148.4)"><circle cx="433.52" cy="948.69" r="6.161" fill="#afef9f" stroke="#000" stroke-width=".5px"/></g><g transform="translate(214.26)"><circle cx="433.52" cy="948.69" r="6.161" fill="#afef9f" stroke="#000" stroke-width=".5px"/></g><g transform="translate(250.15)"><circle cx="433.52" cy="948.69" r="6.161" fill="#afef9f" stroke="#000" stroke-width=".5px"/></g><g transform="translate(285.17)"><circle cx="433.52" cy="948.69" r="6.161" fill="#afef9f" stroke="#000" stroke-width=".5px"/></g><g transform="translate(324.58)"><circle cx="433.52" cy="948.69" r="6.161" fill="#afef9f" stroke="#000" stroke-width=".5px"/></g><g transform="translate(390.3)"><circle cx="433.52" cy="948.69" r="6.161" fill="#afef9f" stroke="#000" stroke-width=".5px"/></g><g transform="translate(468.96)"><circle cx="433.52" cy="948.69" r="6.161" fill="#afef9f" stroke="#000" stroke-width=".5px"/></g><g transform="matrix(1.0008 0 0 .84432 1.8602 149.75)"><path d="m962.23 946.94c0-8.233-5.64-14.917-12.586-14.917h-572.31c-6.946 0-12.585 6.684-12.585 14.917 0 8.234 5.639 14.918 12.585 14.918h572.31c6.946 0 12.586-6.684 12.586-14.918z" fill="none" stroke="#000" stroke-width=".54px"/></g></g></g><g id="Beschriftung" fill="#fcfcfc" fill-rule="nonzero"><g transform="matrix(.89 0 0 1 97.984 3.9134)"><path d="m923.72 979.72v-10.101h-3.773v-1.352h9.078v1.352h-3.789v10.101h-1.516z"/><path d="m930.52 979.72v-11.453h1.516v10.102h5.641v1.351h-7.157z"/><rect x="942.53" y="974.87" width="4.32" height="1.414"/><path d="m955.03 979.72-3.039-11.453h1.555l1.742 7.508c0.187 0.786 0.349 1.567 0.484 2.344 0.292-1.224 0.464-1.93 0.516-2.118l2.179-7.734h1.829l1.64 5.797c0.412 1.437 0.708 2.789 0.891 4.055 0.146-0.724 0.336-1.555 0.57-2.493l1.797-7.359h1.523l-3.14 11.453h-1.461l-2.414-8.726c-0.203-0.73-0.323-1.178-0.36-1.344-0.119 0.526-0.231 0.974-0.336 1.344l-2.429 8.726h-1.547z"/><path d="m968.16 979.72v-11.453h5.078c1.021 0 1.797 0.103 2.328 0.309 0.531 0.205 0.956 0.569 1.274 1.089 0.317 0.521 0.476 1.097 0.476 1.727 0 0.812-0.263 1.497-0.789 2.055-0.526 0.557-1.338 0.911-2.437 1.062 0.401 0.193 0.705 0.383 0.914 0.57 0.442 0.407 0.862 0.915 1.257 1.524l1.993 3.117h-1.907l-1.515-2.383c-0.443-0.687-0.808-1.213-1.094-1.578-0.286-0.364-0.543-0.62-0.77-0.765-0.226-0.146-0.457-0.248-0.691-0.305-0.172-0.037-0.453-0.055-0.844-0.055h-1.757v5.086h-1.516zm1.516-6.398h3.257c0.693 0 1.235-0.072 1.625-0.215 0.391-0.143 0.688-0.373 0.891-0.688s0.305-0.657 0.305-1.027c0-0.542-0.197-0.987-0.59-1.336s-1.015-0.523-1.863-0.523h-3.625v3.789z"/><path d="m979.21 969.77v-1.352h7.414v1.094c-0.73 0.776-1.452 1.807-2.168 3.094-0.716 1.286-1.27 2.609-1.66 3.969-0.282 0.958-0.461 2.007-0.54 3.148h-1.445c0.016-0.901 0.193-1.989 0.531-3.266 0.339-1.276 0.825-2.506 1.457-3.691 0.633-1.185 1.306-2.184 2.02-2.996h-5.609z"/><path d="m992.52 979.72v-2.742h-4.969v-1.289l5.227-7.422h1.148v7.422h1.547v1.289h-1.547v2.742h-1.406zm0-4.031v-5.164l-3.586 5.164h3.586z"/><path d="m1002.2 979.72h-1.41v-8.961c-0.33 0.323-0.78 0.646-1.328 0.969-0.549 0.323-1.043 0.565-1.48 0.726v-1.359c0.786-0.37 1.474-0.818 2.058-1.344 0.59-0.526 1.01-1.036 1.25-1.531h0.91v11.5z"/><path d="m1006.4 979.72v-11.453h1.55l6.02 8.992v-8.992h1.45v11.453h-1.55l-6.02-9v9h-1.45z"/><path d="m1017.9 979.72v-11.453h3.94c0.89 0 1.57 0.055 2.04 0.164 0.66 0.151 1.22 0.425 1.68 0.82 0.6 0.511 1.06 1.163 1.36 1.957 0.3 0.795 0.45 1.702 0.45 2.723 0 0.87-0.11 1.641-0.31 2.313-0.2 0.671-0.46 1.227-0.78 1.667-0.32 0.441-0.67 0.787-1.04 1.04-0.38 0.252-0.84 0.444-1.37 0.574s-1.15 0.195-1.84 0.195h-4.13zm1.51-1.351h2.45c0.75 0 1.35-0.071 1.78-0.211 0.43-0.141 0.77-0.339 1.02-0.594 0.36-0.36 0.64-0.843 0.84-1.449 0.2-0.607 0.3-1.343 0.3-2.207 0-1.198-0.19-2.119-0.59-2.762-0.39-0.643-0.87-1.074-1.43-1.293-0.41-0.156-1.06-0.234-1.96-0.234h-2.41v8.75z"/></g><g transform="matrix(.89 0 0 1 -518.58 3.5762)"><path d="m925.53 979.72h-1.406v-8.961c-0.339 0.323-0.783 0.646-1.332 0.969-0.55 0.323-1.043 0.565-1.481 0.726v-1.359c0.787-0.37 1.474-0.818 2.063-1.344 0.588-0.526 1.005-1.036 1.25-1.531h0.906v11.5z"/><path d="m929.14 976.72 1.476-0.125c0.109 0.719 0.363 1.259 0.762 1.621 0.398 0.362 0.879 0.543 1.441 0.543 0.677 0 1.25-0.255 1.719-0.765 0.469-0.511 0.703-1.188 0.703-2.032 0-0.802-0.225-1.435-0.676-1.898-0.45-0.464-1.04-0.695-1.769-0.695-0.453 0-0.862 0.102-1.227 0.308-0.364 0.206-0.651 0.473-0.859 0.801l-1.32-0.172 1.109-5.883h5.695v1.344h-4.57l-0.617 3.078c0.687-0.479 1.409-0.719 2.164-0.719 1 0 1.844 0.347 2.531 1.039 0.688 0.693 1.031 1.584 1.031 2.672 0 1.037-0.302 1.933-0.906 2.688-0.734 0.927-1.737 1.39-3.008 1.39-1.041 0-1.892-0.291-2.551-0.875-0.658-0.583-1.035-1.356-1.128-2.32z"/><path d="m938.03 974.08c0-1.355 0.139-2.444 0.418-3.27 0.279-0.825 0.693-1.462 1.242-1.91 0.55-0.448 1.241-0.672 2.074-0.672 0.615 0 1.154 0.124 1.618 0.371 0.463 0.248 0.846 0.604 1.148 1.07 0.302 0.467 0.539 1.034 0.711 1.704 0.172 0.669 0.258 1.571 0.258 2.707 0 1.343-0.138 2.428-0.414 3.254-0.276 0.825-0.689 1.463-1.239 1.914-0.549 0.45-1.243 0.675-2.082 0.675-1.104 0-1.971-0.395-2.601-1.187-0.755-0.953-1.133-2.505-1.133-4.656zm1.445 0c0 1.88 0.22 3.131 0.66 3.754 0.441 0.622 0.984 0.933 1.629 0.933 0.646 0 1.189-0.312 1.629-0.937s0.66-1.875 0.66-3.75c0-1.886-0.22-3.138-0.66-3.758s-0.988-0.93-1.644-0.93c-0.646 0-1.162 0.274-1.547 0.82-0.485 0.698-0.727 1.987-0.727 3.868z"/><path d="m947.46 979.72v-11.453h2.281l2.711 8.109c0.25 0.756 0.432 1.321 0.547 1.696 0.13-0.417 0.333-1.029 0.609-1.836l2.742-7.969h2.04v11.453h-1.461v-9.586l-3.329 9.586h-1.367l-3.312-9.75v9.75h-1.461z"/><path d="m961.95 979.72h-1.305v-11.453h1.407v4.086c0.593-0.745 1.351-1.117 2.273-1.117 0.51 0 0.994 0.103 1.449 0.308 0.456 0.206 0.831 0.495 1.125 0.867 0.295 0.373 0.525 0.822 0.692 1.348 0.166 0.526 0.25 1.089 0.25 1.688 0 1.422-0.352 2.52-1.055 3.297-0.703 0.776-1.547 1.164-2.531 1.164-0.979 0-1.748-0.409-2.305-1.227v1.039zm-0.016-4.211c0 0.995 0.136 1.714 0.407 2.156 0.442 0.724 1.041 1.086 1.797 1.086 0.614 0 1.145-0.267 1.593-0.8 0.448-0.534 0.672-1.33 0.672-2.387 0-1.083-0.215-1.883-0.644-2.399-0.43-0.515-0.95-0.773-1.559-0.773-0.615 0-1.146 0.267-1.594 0.801s-0.672 1.306-0.672 2.316z"/><path d="m969.55 982.9v-11.477h1.281v1.078c0.302-0.422 0.643-0.738 1.023-0.949s0.841-0.316 1.383-0.316c0.708 0 1.333 0.182 1.875 0.547 0.542 0.364 0.951 0.878 1.227 1.543 0.276 0.664 0.414 1.391 0.414 2.183 0 0.849-0.153 1.613-0.457 2.293-0.305 0.68-0.748 1.201-1.328 1.563-0.581 0.362-1.192 0.543-1.832 0.543-0.469 0-0.89-0.099-1.262-0.297-0.373-0.198-0.679-0.448-0.918-0.75v4.039h-1.406zm1.273-7.281c0 1.067 0.216 1.856 0.648 2.367 0.433 0.51 0.956 0.765 1.571 0.765 0.625 0 1.16-0.264 1.605-0.793 0.446-0.528 0.668-1.347 0.668-2.457 0-1.057-0.217-1.849-0.652-2.375s-0.955-0.789-1.559-0.789c-0.599 0-1.129 0.28-1.59 0.84s-0.691 1.374-0.691 2.442z"/><path d="m977.89 977.25 1.39-0.219c0.078 0.557 0.296 0.984 0.652 1.281 0.357 0.297 0.856 0.445 1.497 0.445 0.645 0 1.125-0.131 1.437-0.394 0.313-0.263 0.469-0.572 0.469-0.926 0-0.318-0.138-0.568-0.414-0.75-0.193-0.125-0.672-0.284-1.438-0.477-1.031-0.26-1.746-0.485-2.144-0.675-0.399-0.19-0.701-0.453-0.907-0.789-0.205-0.336-0.308-0.707-0.308-1.114 0-0.369 0.085-0.712 0.254-1.027s0.4-0.577 0.691-0.785c0.219-0.162 0.517-0.298 0.895-0.41 0.377-0.112 0.782-0.168 1.215-0.168 0.651 0 1.222 0.093 1.714 0.281 0.493 0.187 0.856 0.441 1.09 0.762 0.235 0.32 0.396 0.748 0.485 1.285l-1.375 0.187c-0.063-0.427-0.244-0.76-0.543-1-0.3-0.239-0.723-0.359-1.27-0.359-0.646 0-1.107 0.107-1.383 0.32-0.276 0.214-0.414 0.464-0.414 0.75 0 0.183 0.058 0.347 0.172 0.492 0.115 0.152 0.294 0.277 0.539 0.375 0.141 0.053 0.555 0.172 1.242 0.36 0.995 0.265 1.689 0.483 2.082 0.652 0.394 0.169 0.702 0.416 0.926 0.738 0.224 0.323 0.336 0.724 0.336 1.204 0 0.468-0.137 0.91-0.41 1.324s-0.668 0.734-1.184 0.961c-0.515 0.226-1.099 0.34-1.75 0.34-1.078 0-1.899-0.224-2.464-0.672-0.566-0.448-0.926-1.112-1.082-1.992z"/><path d="m993.07 979.72-3.039-11.453h1.555l1.742 7.508c0.187 0.786 0.349 1.567 0.484 2.344 0.292-1.224 0.464-1.93 0.516-2.118l2.18-7.734h1.828l1.64 5.797c0.411 1.437 0.711 2.789 0.891 4.055 0.15-0.724 0.34-1.555 0.57-2.493l1.8-7.359h1.52l-3.14 11.453h-1.46l-2.415-8.726c-0.203-0.73-0.323-1.178-0.359-1.344-0.12 0.526-0.232 0.974-0.336 1.344l-2.43 8.726h-1.547z"/><path d="m1006 969.89v-1.617h1.41v1.617h-1.41zm0 9.836v-8.297h1.41v8.297h-1.41z"/><path d="m1009.5 979.72v-8.297h1.27v1.258c0.32-0.589 0.62-0.977 0.89-1.164 0.28-0.188 0.58-0.281 0.91-0.281 0.47 0 0.95 0.151 1.44 0.453l-0.48 1.305c-0.35-0.204-0.69-0.305-1.03-0.305-0.31 0-0.59 0.092-0.83 0.277-0.25 0.185-0.42 0.442-0.52 0.77-0.16 0.5-0.24 1.047-0.24 1.64v4.344h-1.41z"/><path d="m1020.6 977.05 1.45 0.18c-0.23 0.849-0.65 1.508-1.27 1.976-0.62 0.469-1.41 0.704-2.38 0.704-1.21 0-2.17-0.374-2.88-1.122-0.72-0.747-1.07-1.795-1.07-3.144 0-1.396 0.36-2.479 1.08-3.25s1.65-1.156 2.79-1.156c1.11 0 2.02 0.377 2.72 1.133 0.71 0.755 1.06 1.817 1.06 3.187 0 0.083 0 0.208-0.01 0.375h-6.19c0.05 0.911 0.31 1.609 0.78 2.094 0.46 0.484 1.04 0.726 1.73 0.726 0.52 0 0.96-0.135 1.32-0.406 0.37-0.271 0.65-0.703 0.87-1.297zm-4.62-2.273h4.63c-0.06-0.698-0.24-1.222-0.53-1.571-0.45-0.541-1.03-0.812-1.74-0.812-0.65 0-1.19 0.216-1.63 0.648-0.44 0.433-0.68 1.011-0.73 1.735z"/><rect x="1023.8" y="968.27" width="1.406" height="11.453"/><path d="m1033 977.05 1.45 0.18c-0.23 0.849-0.65 1.508-1.27 1.976-0.62 0.469-1.41 0.704-2.37 0.704-1.22 0-2.18-0.374-2.89-1.122-0.71-0.747-1.07-1.795-1.07-3.144 0-1.396 0.36-2.479 1.08-3.25s1.65-1.156 2.8-1.156c1.11 0 2.01 0.377 2.72 1.133 0.7 0.755 1.05 1.817 1.05 3.187 0 0.083 0 0.208-0.01 0.375h-6.18c0.05 0.911 0.3 1.609 0.77 2.094 0.46 0.484 1.04 0.726 1.73 0.726 0.52 0 0.96-0.135 1.32-0.406 0.37-0.271 0.66-0.703 0.87-1.297zm-4.62-2.273h4.64c-0.07-0.698-0.24-1.222-0.53-1.571-0.45-0.541-1.03-0.812-1.75-0.812-0.64 0-1.19 0.216-1.63 0.648-0.44 0.433-0.68 1.011-0.73 1.735z"/><path d="m1035.7 977.25 1.39-0.219c0.08 0.557 0.29 0.984 0.65 1.281s0.86 0.445 1.5 0.445 1.12-0.131 1.43-0.394c0.32-0.263 0.47-0.572 0.47-0.926 0-0.318-0.14-0.568-0.41-0.75-0.19-0.125-0.67-0.284-1.44-0.477-1.03-0.26-1.75-0.485-2.14-0.675-0.4-0.19-0.71-0.453-0.91-0.789-0.21-0.336-0.31-0.707-0.31-1.114 0-0.369 0.09-0.712 0.25-1.027 0.17-0.315 0.41-0.577 0.7-0.785 0.22-0.162 0.51-0.298 0.89-0.41s0.78-0.168 1.22-0.168c0.65 0 1.22 0.093 1.71 0.281 0.49 0.187 0.86 0.441 1.09 0.762 0.24 0.32 0.4 0.748 0.49 1.285l-1.38 0.187c-0.06-0.427-0.24-0.76-0.54-1-0.3-0.239-0.73-0.359-1.27-0.359-0.65 0-1.11 0.107-1.39 0.32-0.27 0.214-0.41 0.464-0.41 0.75 0 0.183 0.06 0.347 0.17 0.492 0.12 0.152 0.3 0.277 0.54 0.375 0.14 0.053 0.56 0.172 1.24 0.36 1 0.265 1.69 0.483 2.09 0.652 0.39 0.169 0.7 0.416 0.92 0.738 0.22 0.323 0.34 0.724 0.34 1.204 0 0.468-0.14 0.91-0.41 1.324-0.28 0.414-0.67 0.734-1.19 0.961-0.51 0.226-1.09 0.34-1.75 0.34-1.07 0-1.9-0.224-2.46-0.672-0.57-0.448-0.93-1.112-1.08-1.992z"/><path d="m1043.7 977.25 1.39-0.219c0.08 0.557 0.29 0.984 0.65 1.281s0.86 0.445 1.5 0.445 1.12-0.131 1.43-0.394c0.32-0.263 0.47-0.572 0.47-0.926 0-0.318-0.14-0.568-0.41-0.75-0.19-0.125-0.67-0.284-1.44-0.477-1.03-0.26-1.75-0.485-2.14-0.675-0.4-0.19-0.71-0.453-0.91-0.789-0.21-0.336-0.31-0.707-0.31-1.114 0-0.369 0.09-0.712 0.25-1.027 0.17-0.315 0.41-0.577 0.7-0.785 0.22-0.162 0.51-0.298 0.89-0.41s0.78-0.168 1.22-0.168c0.65 0 1.22 0.093 1.71 0.281 0.49 0.187 0.86 0.441 1.09 0.762 0.24 0.32 0.4 0.748 0.49 1.285l-1.38 0.187c-0.06-0.427-0.24-0.76-0.54-1-0.3-0.239-0.73-0.359-1.27-0.359-0.65 0-1.11 0.107-1.39 0.32-0.27 0.214-0.41 0.464-0.41 0.75 0 0.183 0.06 0.347 0.17 0.492 0.12 0.152 0.3 0.277 0.54 0.375 0.14 0.053 0.56 0.172 1.24 0.36 1 0.265 1.69 0.483 2.09 0.652 0.39 0.169 0.7 0.416 0.92 0.738 0.22 0.323 0.34 0.724 0.34 1.204 0 0.468-0.14 0.91-0.41 1.324-0.28 0.414-0.67 0.734-1.19 0.961-0.51 0.226-1.09 0.34-1.75 0.34-1.07 0-1.9-0.224-2.46-0.672-0.57-0.448-0.93-1.112-1.08-1.992z"/><path d="m1056.8 979.72v-11.453h1.52v10.102h5.64v1.351h-7.16z"/><path d="m1065.6 969.89v-1.617h1.41v1.617h-1.41zm0 9.836v-8.297h1.41v8.297h-1.41z"/><path d="m1072.2 978.47 0.2 1.242c-0.39 0.084-0.75 0.125-1.06 0.125-0.51 0-0.91-0.08-1.19-0.242-0.28-0.161-0.48-0.373-0.59-0.636-0.12-0.263-0.17-0.817-0.17-1.661v-4.773h-1.04v-1.094h1.04v-2.054l1.39-0.844v2.898h1.42v1.094h-1.42v4.852c0 0.401 0.03 0.658 0.08 0.773s0.13 0.206 0.24 0.273c0.11 0.068 0.27 0.102 0.48 0.102 0.16 0 0.36-0.018 0.62-0.055z"/><path d="m1079.2 977.05 1.46 0.18c-0.23 0.849-0.66 1.508-1.28 1.976-0.62 0.469-1.41 0.704-2.37 0.704-1.22 0-2.18-0.374-2.89-1.122-0.71-0.747-1.07-1.795-1.07-3.144 0-1.396 0.36-2.479 1.08-3.25s1.65-1.156 2.8-1.156c1.11 0 2.02 0.377 2.72 1.133 0.7 0.755 1.05 1.817 1.05 3.187v0.375h-6.19c0.05 0.911 0.31 1.609 0.77 2.094 0.46 0.484 1.04 0.726 1.74 0.726 0.51 0 0.95-0.135 1.32-0.406 0.36-0.271 0.65-0.703 0.86-1.297zm-4.61-2.273h4.63c-0.06-0.698-0.24-1.222-0.53-1.571-0.45-0.541-1.03-0.812-1.74-0.812-0.65 0-1.19 0.216-1.63 0.648-0.44 0.433-0.69 1.011-0.73 1.735z"/><rect x="1081.9" y="974.87" width="4.32" height="1.414"/><path d="m1088 979.72v-11.453h1.56l6.01 8.992v-8.992h1.46v11.453h-1.56l-6.01-9v9h-1.46z"/><path d="m1104 979.72v-11.453h5.08c1.02 0 1.8 0.103 2.33 0.309 0.53 0.205 0.96 0.569 1.27 1.089 0.32 0.521 0.48 1.097 0.48 1.727 0 0.812-0.26 1.497-0.79 2.055-0.53 0.557-1.34 0.911-2.44 1.062 0.4 0.193 0.71 0.383 0.92 0.57 0.44 0.407 0.86 0.915 1.25 1.524l2 3.117h-1.91l-1.52-2.383c-0.44-0.687-0.8-1.213-1.09-1.578-0.29-0.364-0.54-0.62-0.77-0.765-0.22-0.146-0.46-0.248-0.69-0.305-0.17-0.037-0.45-0.055-0.84-0.055h-1.76v5.086h-1.52zm1.52-6.398h3.26c0.69 0 1.23-0.072 1.62-0.215s0.69-0.373 0.89-0.688c0.21-0.315 0.31-0.657 0.31-1.027 0-0.542-0.2-0.987-0.59-1.336-0.4-0.349-1.02-0.523-1.87-0.523h-3.62v3.789z"/><path d="m1114.8 975.58c0-1.537 0.43-2.675 1.28-3.414 0.72-0.615 1.58-0.922 2.61-0.922 1.14 0 2.07 0.373 2.8 1.121 0.72 0.747 1.08 1.78 1.08 3.097 0 1.068-0.16 1.908-0.48 2.52s-0.78 1.087-1.39 1.426c-0.62 0.338-1.29 0.508-2.01 0.508-1.16 0-2.1-0.373-2.82-1.118-0.71-0.744-1.07-1.817-1.07-3.218zm1.45 0c0 1.062 0.23 1.858 0.69 2.386 0.46 0.529 1.05 0.793 1.75 0.793s1.28-0.265 1.74-0.797c0.47-0.531 0.7-1.341 0.7-2.429 0-1.026-0.23-1.804-0.7-2.332-0.47-0.529-1.05-0.793-1.74-0.793-0.7 0-1.29 0.263-1.75 0.789s-0.69 1.32-0.69 2.383z"/><path d="m1129.7 979.72v-1.219c-0.65 0.938-1.52 1.407-2.63 1.407-0.49 0-0.95-0.094-1.37-0.282-0.43-0.187-0.74-0.423-0.95-0.707-0.2-0.284-0.35-0.631-0.43-1.043-0.06-0.276-0.09-0.713-0.09-1.312v-5.141h1.41v4.602c0 0.734 0.03 1.229 0.08 1.484 0.09 0.37 0.28 0.66 0.57 0.871 0.28 0.211 0.64 0.317 1.06 0.317s0.82-0.108 1.19-0.325c0.37-0.216 0.63-0.51 0.78-0.882 0.15-0.373 0.23-0.913 0.23-1.621v-4.446h1.41v8.297h-1.26z"/><path d="m1136.2 978.47 0.2 1.242c-0.39 0.084-0.75 0.125-1.06 0.125-0.51 0-0.9-0.08-1.19-0.242-0.28-0.161-0.48-0.373-0.59-0.636s-0.17-0.817-0.17-1.661v-4.773h-1.03v-1.094h1.03v-2.054l1.4-0.844v2.898h1.41v1.094h-1.41v4.852c0 0.401 0.02 0.658 0.07 0.773s0.13 0.206 0.24 0.273c0.12 0.068 0.28 0.102 0.48 0.102 0.16 0 0.37-0.018 0.62-0.055z"/><path d="m1143.3 977.05 1.45 0.18c-0.23 0.849-0.65 1.508-1.27 1.976-0.62 0.469-1.42 0.704-2.38 0.704-1.21 0-2.18-0.374-2.89-1.122-0.71-0.747-1.06-1.795-1.06-3.144 0-1.396 0.36-2.479 1.08-3.25 0.71-0.771 1.65-1.156 2.79-1.156 1.11 0 2.02 0.377 2.72 1.133 0.7 0.755 1.06 1.817 1.06 3.187 0 0.083-0.01 0.208-0.01 0.375h-6.19c0.05 0.911 0.31 1.609 0.77 2.094 0.47 0.484 1.05 0.726 1.74 0.726 0.51 0 0.95-0.135 1.32-0.406 0.36-0.271 0.65-0.703 0.87-1.297zm-4.62-2.273h4.63c-0.06-0.698-0.24-1.222-0.53-1.571-0.45-0.541-1.03-0.812-1.74-0.812-0.65 0-1.19 0.216-1.63 0.648-0.44 0.433-0.68 1.011-0.73 1.735z"/><path d="m1146.5 979.72v-8.297h1.27v1.258c0.32-0.589 0.62-0.977 0.89-1.164 0.27-0.188 0.57-0.281 0.9-0.281 0.48 0 0.96 0.151 1.45 0.453l-0.49 1.305c-0.34-0.204-0.68-0.305-1.03-0.305-0.31 0-0.58 0.092-0.83 0.277-0.24 0.185-0.42 0.442-0.52 0.77-0.16 0.5-0.23 1.047-0.23 1.64v4.344h-1.41z"/></g><g transform="matrix(.89 0 0 1 -396.14 -51.322)"><path d="m920.58 979.72v-9.306h3.51c0.618 0 1.09 0.03 1.416 0.089 0.457 0.076 0.84 0.221 1.149 0.435s0.557 0.513 0.746 0.898c0.188 0.385 0.282 0.809 0.282 1.27 0 0.791-0.252 1.461-0.755 2.009-0.504 0.548-1.414 0.822-2.73 0.822h-2.387v3.783h-1.231zm1.231-4.881h2.406c0.796 0 1.361-0.148 1.695-0.445 0.334-0.296 0.501-0.713 0.501-1.25 0-0.389-0.098-0.723-0.295-1-0.196-0.277-0.456-0.46-0.777-0.549-0.208-0.055-0.591-0.082-1.149-0.082h-2.381v3.326z"/><path d="m930.87 979.72-2.469-9.306h1.263l1.415 6.101c0.153 0.639 0.284 1.273 0.394 1.904 0.237-0.995 0.377-1.568 0.419-1.72l1.771-6.285h1.485l1.333 4.71c0.334 1.168 0.576 2.266 0.724 3.295 0.118-0.588 0.273-1.263 0.463-2.025l1.46-5.98h1.238l-2.552 9.306h-1.187l-1.961-7.09c-0.165-0.593-0.263-0.957-0.292-1.092-0.098 0.427-0.189 0.791-0.273 1.092l-1.974 7.09h-1.257z"/><path d="m941.54 979.72v-9.306h4.126c0.829 0 1.46 0.084 1.891 0.251 0.432 0.167 0.777 0.462 1.035 0.886 0.258 0.423 0.387 0.89 0.387 1.402 0 0.661-0.213 1.217-0.641 1.67-0.427 0.453-1.087 0.74-1.98 0.863 0.326 0.157 0.573 0.311 0.742 0.464 0.36 0.33 0.701 0.742 1.022 1.237l1.619 2.533h-1.549l-1.231-1.936c-0.36-0.559-0.656-0.986-0.889-1.282s-0.441-0.504-0.625-0.622c-0.184-0.119-0.371-0.201-0.562-0.248-0.14-0.029-0.368-0.044-0.685-0.044h-1.429v4.132h-1.231zm1.231-5.199h2.647c0.563 0 1.003-0.058 1.321-0.174 0.317-0.117 0.558-0.303 0.723-0.559s0.248-0.534 0.248-0.835c0-0.44-0.16-0.801-0.479-1.085-0.32-0.283-0.825-0.425-1.514-0.425h-2.946v3.078z"/><path d="m1001.1 976.74 1.16-0.101c0.05 0.465 0.18 0.847 0.38 1.146 0.2 0.298 0.52 0.539 0.94 0.723s0.9 0.276 1.43 0.276c0.47 0 0.88-0.07 1.24-0.209 0.36-0.14 0.63-0.331 0.8-0.575 0.18-0.243 0.27-0.509 0.27-0.796 0-0.292-0.09-0.547-0.26-0.765s-0.45-0.401-0.83-0.549c-0.25-0.098-0.81-0.249-1.66-0.454-0.86-0.205-1.46-0.399-1.8-0.581-0.44-0.233-0.77-0.521-0.99-0.866s-0.33-0.731-0.33-1.159c0-0.47 0.14-0.909 0.4-1.317 0.27-0.408 0.66-0.718 1.17-0.93 0.51-0.211 1.08-0.317 1.71-0.317 0.69 0 1.3 0.111 1.82 0.333 0.53 0.222 0.93 0.549 1.22 0.981 0.28 0.431 0.43 0.92 0.45 1.466l-1.18 0.089c-0.06-0.588-0.27-1.033-0.64-1.333-0.37-0.301-0.91-0.451-1.62-0.451-0.75 0-1.29 0.137-1.63 0.41s-0.51 0.602-0.51 0.987c0 0.334 0.12 0.609 0.36 0.825s0.86 0.437 1.86 0.663c1 0.227 1.68 0.424 2.06 0.594 0.54 0.249 0.94 0.566 1.2 0.949s0.38 0.824 0.38 1.323c0 0.495-0.14 0.962-0.42 1.4-0.29 0.438-0.69 0.778-1.22 1.022-0.54 0.243-1.13 0.365-1.8 0.365-0.84 0-1.54-0.123-2.11-0.368-0.57-0.246-1.02-0.615-1.34-1.108-0.33-0.493-0.5-1.051-0.51-1.673z"/><path d="m1012.8 979.72v-3.942l-3.59-5.364h1.5l1.83 2.806c0.34 0.525 0.66 1.05 0.95 1.574 0.28-0.486 0.62-1.034 1.02-1.644l1.8-2.736h1.43l-3.71 5.364v3.942h-1.23z"/><path d="m1018.4 976.74 1.16-0.101c0.05 0.465 0.18 0.847 0.38 1.146 0.2 0.298 0.52 0.539 0.94 0.723s0.9 0.276 1.43 0.276c0.47 0 0.88-0.07 1.24-0.209 0.36-0.14 0.63-0.331 0.81-0.575 0.17-0.243 0.26-0.509 0.26-0.796 0-0.292-0.09-0.547-0.26-0.765s-0.44-0.401-0.83-0.549c-0.25-0.098-0.8-0.249-1.66-0.454s-1.45-0.399-1.8-0.581c-0.44-0.233-0.77-0.521-0.99-0.866s-0.33-0.731-0.33-1.159c0-0.47 0.14-0.909 0.4-1.317 0.27-0.408 0.66-0.718 1.17-0.93 0.51-0.211 1.08-0.317 1.71-0.317 0.69 0 1.3 0.111 1.82 0.333 0.53 0.222 0.94 0.549 1.22 0.981 0.28 0.431 0.44 0.92 0.46 1.466l-1.18 0.089c-0.07-0.588-0.28-1.033-0.65-1.333-0.36-0.301-0.91-0.451-1.62-0.451-0.74 0-1.29 0.137-1.63 0.41s-0.51 0.602-0.51 0.987c0 0.334 0.12 0.609 0.36 0.825s0.86 0.437 1.86 0.663c1 0.227 1.69 0.424 2.06 0.594 0.54 0.249 0.94 0.566 1.2 0.949s0.39 0.824 0.39 1.323c0 0.495-0.15 0.962-0.43 1.4s-0.69 0.778-1.22 1.022c-0.53 0.243-1.13 0.365-1.79 0.365-0.85 0-1.55-0.123-2.12-0.368-0.57-0.246-1.02-0.615-1.34-1.108s-0.49-1.051-0.51-1.673z"/><path d="m1084 979.72-2.47-9.306h1.26l1.42 6.101c0.15 0.639 0.28 1.273 0.39 1.904 0.24-0.995 0.38-1.568 0.42-1.72l1.77-6.285h1.49l1.33 4.71c0.33 1.168 0.58 2.266 0.72 3.295 0.12-0.588 0.28-1.263 0.47-2.025l1.46-5.98h1.24l-2.56 9.306h-1.18l-1.96-7.09c-0.17-0.593-0.27-0.957-0.3-1.092-0.1 0.427-0.19 0.791-0.27 1.092l-1.97 7.09h-1.26z"/><path d="m1094.6 979.72v-9.306h1.23v8.208h4.59v1.098h-5.82z"/><path d="m1100.8 979.72 3.57-9.306h1.33l3.81 9.306h-1.4l-1.09-2.818h-3.89l-1.02 2.818h-1.31zm2.69-3.821h3.15l-0.97-2.577c-0.3-0.783-0.52-1.426-0.66-1.93-0.12 0.597-0.28 1.189-0.5 1.777l-1.02 2.73z"/><path d="m1110.5 979.72v-9.306h1.27l4.88 7.307v-7.307h1.18v9.306h-1.26l-4.89-7.312v7.312h-1.18z"/><path d="m1178 979.72h-1.14v-7.281c-0.28 0.263-0.64 0.525-1.09 0.787-0.44 0.263-0.84 0.46-1.2 0.591v-1.105c0.64-0.3 1.2-0.664 1.68-1.092 0.47-0.427 0.81-0.842 1.01-1.244h0.74v9.344z"/><path d="m1220.1 978.63v1.098h-6.15c-0.01-0.275 0.03-0.539 0.13-0.793 0.16-0.419 0.41-0.832 0.75-1.238 0.35-0.406 0.85-0.876 1.5-1.409 1.01-0.83 1.69-1.487 2.05-1.971 0.35-0.485 0.53-0.943 0.53-1.375 0-0.452-0.16-0.834-0.48-1.145-0.33-0.311-0.75-0.467-1.27-0.467-0.55 0-0.99 0.165-1.32 0.495s-0.5 0.787-0.5 1.371l-1.18-0.12c0.08-0.876 0.39-1.544 0.91-2.003 0.53-0.459 1.23-0.689 2.11-0.689 0.9 0 1.61 0.248 2.13 0.743s0.78 1.109 0.78 1.841c0 0.372-0.08 0.738-0.23 1.098-0.16 0.36-0.41 0.738-0.76 1.136s-0.94 0.944-1.76 1.638c-0.69 0.575-1.13 0.966-1.32 1.171-0.2 0.205-0.36 0.412-0.48 0.619h4.56z"/><path d="m1250.9 977.27 1.14-0.153c0.13 0.648 0.35 1.114 0.67 1.4s0.7 0.428 1.15 0.428c0.54 0 0.99-0.186 1.36-0.558 0.37-0.373 0.56-0.834 0.56-1.384 0-0.525-0.17-0.957-0.51-1.298-0.35-0.341-0.78-0.511-1.31-0.511-0.22 0-0.49 0.042-0.81 0.127l0.13-1.003c0.07 8e-3 0.14 0.013 0.18 0.013 0.49 0 0.93-0.127 1.32-0.381s0.58-0.646 0.58-1.175c0-0.419-0.14-0.766-0.42-1.041-0.29-0.275-0.65-0.412-1.1-0.412s-0.82 0.139-1.11 0.419c-0.3 0.279-0.49 0.698-0.58 1.257l-1.14-0.204c0.14-0.766 0.46-1.359 0.95-1.78 0.5-0.421 1.12-0.632 1.85-0.632 0.51 0 0.98 0.109 1.4 0.327 0.43 0.218 0.76 0.515 0.99 0.892 0.22 0.377 0.34 0.777 0.34 1.2 0 0.402-0.11 0.768-0.33 1.098-0.21 0.33-0.53 0.592-0.96 0.787 0.55 0.127 0.98 0.39 1.29 0.79 0.3 0.4 0.45 0.901 0.45 1.502 0 0.812-0.29 1.501-0.89 2.066-0.59 0.565-1.34 0.847-2.24 0.847-0.82 0-1.5-0.243-2.04-0.73s-0.85-1.117-0.92-1.891z"/><path d="m1298.7 979.72v-2.228h-4.04v-1.047l4.25-6.031h0.93v6.031h1.26v1.047h-1.26v2.228h-1.14zm0-3.275v-4.196l-2.92 4.196h2.92z"/><path d="m1359.2 979.72-2.47-9.306h1.27l1.41 6.101c0.15 0.639 0.28 1.273 0.4 1.904 0.23-0.995 0.37-1.568 0.41-1.72l1.78-6.285h1.48l1.33 4.71c0.34 1.168 0.58 2.266 0.73 3.295 0.11-0.588 0.27-1.263 0.46-2.025l1.46-5.98h1.24l-2.55 9.306h-1.19l-1.96-7.09c-0.17-0.593-0.26-0.957-0.29-1.092-0.1 0.427-0.19 0.791-0.28 1.092l-1.97 7.09h-1.26z"/><path d="m1368.3 979.72 3.58-9.306h1.32l3.81 9.306h-1.4l-1.09-2.818h-3.89l-1.02 2.818h-1.31zm2.69-3.821h3.15l-0.97-2.577c-0.29-0.783-0.52-1.426-0.66-1.93-0.12 0.597-0.28 1.189-0.5 1.777l-1.02 2.73z"/><path d="m1378 979.72v-9.306h1.27l4.88 7.307v-7.307h1.18v9.306h-1.26l-4.89-7.312v7.312h-1.18z"/><path d="m1453.5 978.73c0.57 0.393 1.1 0.681 1.58 0.863l-0.36 0.857c-0.67-0.241-1.33-0.622-2-1.143-0.69 0.385-1.45 0.578-2.29 0.578s-1.6-0.203-2.29-0.61c-0.68-0.406-1.21-0.977-1.58-1.713-0.37-0.737-0.56-1.566-0.56-2.489 0-0.918 0.19-1.754 0.56-2.507s0.9-1.327 1.59-1.72c0.69-0.394 1.46-0.591 2.31-0.591 0.86 0 1.63 0.205 2.32 0.613s1.22 0.98 1.58 1.714 0.54 1.562 0.54 2.485c0 0.766-0.11 1.455-0.34 2.066-0.24 0.612-0.59 1.144-1.06 1.597zm-2.71-1.575c0.71 0.199 1.3 0.495 1.76 0.889 0.72-0.66 1.08-1.653 1.08-2.977 0-0.753-0.12-1.411-0.38-1.974s-0.63-1-1.12-1.311c-0.5-0.311-1.05-0.467-1.66-0.467-0.92 0-1.68 0.315-2.29 0.943-0.6 0.628-0.91 1.567-0.91 2.815 0 1.211 0.3 2.139 0.9 2.787 0.6 0.647 1.37 0.971 2.3 0.971 0.44 0 0.85-0.082 1.24-0.247-0.38-0.25-0.79-0.428-1.22-0.534l0.3-0.895z"/><path d="m1456.1 976.74 1.16-0.101c0.06 0.465 0.19 0.847 0.39 1.146 0.2 0.298 0.51 0.539 0.93 0.723 0.43 0.184 0.9 0.276 1.43 0.276 0.47 0 0.89-0.07 1.25-0.209 0.36-0.14 0.62-0.331 0.8-0.575 0.17-0.243 0.26-0.509 0.26-0.796 0-0.292-0.08-0.547-0.25-0.765s-0.45-0.401-0.84-0.549c-0.25-0.098-0.8-0.249-1.66-0.454-0.85-0.205-1.45-0.399-1.79-0.581-0.45-0.233-0.78-0.521-1-0.866-0.21-0.345-0.32-0.731-0.32-1.159 0-0.47 0.13-0.909 0.4-1.317 0.26-0.408 0.65-0.718 1.17-0.93 0.51-0.211 1.08-0.317 1.7-0.317 0.69 0 1.3 0.111 1.83 0.333 0.52 0.222 0.93 0.549 1.21 0.981 0.29 0.431 0.44 0.92 0.46 1.466l-1.18 0.089c-0.06-0.588-0.28-1.033-0.65-1.333-0.36-0.301-0.9-0.451-1.62-0.451-0.74 0-1.28 0.137-1.63 0.41-0.34 0.273-0.51 0.602-0.51 0.987 0 0.334 0.13 0.609 0.37 0.825 0.23 0.216 0.85 0.437 1.85 0.663 1 0.227 1.69 0.424 2.06 0.594 0.54 0.249 0.94 0.566 1.2 0.949s0.39 0.824 0.39 1.323c0 0.495-0.14 0.962-0.43 1.4-0.28 0.438-0.69 0.778-1.22 1.022-0.53 0.243-1.13 0.365-1.79 0.365-0.84 0-1.55-0.123-2.12-0.368-0.57-0.246-1.01-0.615-1.34-1.108-0.32-0.493-0.49-1.051-0.51-1.673z"/><path d="m1464.8 976.74 1.16-0.101c0.06 0.465 0.19 0.847 0.39 1.146 0.2 0.298 0.51 0.539 0.93 0.723 0.43 0.184 0.9 0.276 1.43 0.276 0.47 0 0.89-0.07 1.25-0.209 0.36-0.14 0.62-0.331 0.8-0.575 0.17-0.243 0.26-0.509 0.26-0.796 0-0.292-0.08-0.547-0.25-0.765s-0.45-0.401-0.84-0.549c-0.25-0.098-0.8-0.249-1.65-0.454-0.86-0.205-1.46-0.399-1.8-0.581-0.45-0.233-0.78-0.521-1-0.866-0.21-0.345-0.32-0.731-0.32-1.159 0-0.47 0.13-0.909 0.4-1.317 0.26-0.408 0.65-0.718 1.17-0.93 0.51-0.211 1.08-0.317 1.7-0.317 0.69 0 1.3 0.111 1.83 0.333s0.93 0.549 1.21 0.981c0.29 0.431 0.44 0.92 0.46 1.466l-1.18 0.089c-0.06-0.588-0.28-1.033-0.64-1.333-0.37-0.301-0.91-0.451-1.63-0.451-0.74 0-1.28 0.137-1.62 0.41s-0.51 0.602-0.51 0.987c0 0.334 0.12 0.609 0.36 0.825 0.23 0.216 0.85 0.437 1.85 0.663 1 0.227 1.69 0.424 2.06 0.594 0.54 0.249 0.95 0.566 1.2 0.949 0.26 0.383 0.39 0.824 0.39 1.323 0 0.495-0.14 0.962-0.42 1.4-0.29 0.438-0.7 0.778-1.23 1.022-0.53 0.243-1.13 0.365-1.79 0.365-0.84 0-1.55-0.123-2.12-0.368-0.57-0.246-1.01-0.615-1.34-1.108-0.32-0.493-0.49-1.051-0.51-1.673z"/></g></g></svg>
