<svg xmlns="http://www.w3.org/2000/svg" viewBox="0 0 1600 1437.5" height="1437.5" width="1600"><path d="M393.515 125.475l4.495 180.474 18.455 226.176 4.354 537.751.097-.648c-.805.805-7.456 6.418-39.977 7.046-32.014.617-34.033-2.89-37.579-3.606l-.28.065V533.789l17.705-227.294-1.804-180.732c11.779-1.263 23.27-1.275 34.534-.288z" fill="#fff" fill-rule="evenodd" stroke="#000" stroke-width="4.375" stroke-miterlimit="10"/><path d="M360.98 118.613v6.9l-2.131.025c14.104-.788 25.722-.75 35.284 0l-2.327-.813V119.2l1.924-.587c-9.56-.738-21.179-.788-35.284 0l.219-.25c-.01-4.5-.979-25.688 0-41.863.779-12.887 9.55-15.762 16.525-15.787 9.232-.038 16.786 4.512 17.514 15.787 1.056 16.375 1.352 38.025 1.373 41.863" fill="#fff" fill-rule="evenodd" stroke="#000" stroke-width="4.375" stroke-miterlimit="10"/><path d="M268.951 1351.692c17.379-9.385 36.003-16.248 56.153-17.496 313.128-19.405 628.802-17.287 946.271 0 33.537 1.826 34.425 3.065 69.388 17.496 9.875 4.077 19.512 5.445 30.587 5.445v-195.36H239.995v195.36c10.165.671 19.795-1.248 28.956-5.445z" fill="#767a7b" fill-rule="evenodd" stroke="#000" stroke-width="3.75" stroke-miterlimit="10"/><path d="M706.072 1242.703h10.613v-46.433h-10.612v46.433z" fill-rule="evenodd"/><path d="M703.572 1245.203h15.613v-51.433h-15.612v51.433zm2.5-2.5h10.613v-46.433h-10.612v46.433z" fill="#333" fill-rule="evenodd"/><path d="M782.915 1242.703h10.613v-46.433h-10.613v46.433z" fill-rule="evenodd"/><path d="M780.415 1245.203h15.613v-51.433h-15.613v51.433zm2.5-2.5h10.613v-46.433h-10.613v46.433z" fill="#333" fill-rule="evenodd"/><path d="M857.786 1242.703H868.4v-46.433h-10.613v46.433z" fill-rule="evenodd"/><path d="M855.286 1245.203H870.9v-51.433h-15.613v51.433zm2.5-2.5H868.4v-46.433h-10.613v46.433z" fill="#333" fill-rule="evenodd"/><path d="M724.629 1242.703h10.612v-46.433H724.63v46.433z" fill-rule="evenodd"/><path d="M722.129 1245.203h15.612v-51.433H722.13v51.433zm2.5-2.5h10.612v-46.433H724.63v46.433z" fill="#333" fill-rule="evenodd"/><path d="M801.471 1242.703h10.613v-46.433H801.47v46.433z" fill-rule="evenodd"/><path d="M798.971 1245.203h15.613v-51.433H798.97v51.433zm2.5-2.5h10.613v-46.433H801.47v46.433z" fill="#333" fill-rule="evenodd"/><path d="M876.342 1242.703h10.613v-46.433h-10.613v46.433z" fill-rule="evenodd"/><path d="M873.842 1245.203h15.613v-51.433h-15.613v51.433zm2.5-2.5h10.613v-46.433h-10.613v46.433z" fill="#333" fill-rule="evenodd"/><path d="M743.431 1242.703h10.613v-46.433H743.43v46.433z" fill-rule="evenodd"/><path d="M740.931 1245.203h15.613v-51.433H740.93v51.433zm2.5-2.5h10.613v-46.433H743.43v46.433z" fill="#333" fill-rule="evenodd"/><path d="M820.274 1242.703h10.612v-46.433h-10.612v46.433z" fill-rule="evenodd"/><path d="M817.774 1245.203h15.612v-51.433h-15.612v51.433zm2.5-2.5h10.612v-46.433h-10.612v46.433z" fill="#333" fill-rule="evenodd"/><path d="M895.145 1242.703h10.613v-46.433h-10.613v46.433z" fill-rule="evenodd"/><path d="M892.645 1245.203h15.613v-51.433h-15.613v51.433zm2.5-2.5h10.613v-46.433h-10.613v46.433z" fill="#333" fill-rule="evenodd"/><path d="M762.794 1242.703h10.612v-46.433h-10.612v46.433z" fill-rule="evenodd"/><path d="M760.294 1245.203h15.612v-51.433h-15.612v51.433zm2.5-2.5h10.612v-46.433h-10.612v46.433z" fill="#333" fill-rule="evenodd"/><path d="M839.636 1242.703h10.613v-46.433h-10.613v46.433z" fill-rule="evenodd"/><path d="M837.136 1245.203h15.613v-51.433h-15.613v51.433zm2.5-2.5h10.613v-46.433h-10.613v46.433z" fill="#333" fill-rule="evenodd"/><path d="M933.602 1242.703h10.613v-46.433h-10.613v46.433z" fill-rule="evenodd"/><path d="M931.102 1245.203h15.613v-51.433h-15.613v51.433zm2.5-2.5h10.613v-46.433h-10.613v46.433z" fill="#333" fill-rule="evenodd"/><path d="M914.239 1242.703h10.612v-46.433H914.24v46.433z" fill-rule="evenodd"/><path d="M911.739 1245.203h15.612v-51.433H911.74v51.433zm2.5-2.5h10.612v-46.433H914.24v46.433z" fill="#333" fill-rule="evenodd"/><path d="M952.536 1244.717h10.613v-46.432h-10.613v46.432z" fill-rule="evenodd"/><path d="M950.036 1247.217h15.613v-51.432h-15.613v51.432zm2.5-2.5h10.613v-46.432h-10.613v46.432z" fill="#333" fill-rule="evenodd"/><path d="M971.215 1244.717h10.613v-46.432h-10.613v46.432z" fill-rule="evenodd"/><path d="M968.715 1247.217h15.613v-51.432h-15.613v51.432zm2.5-2.5h10.613v-46.432h-10.613v46.432z" fill="#333" fill-rule="evenodd"/><path d="M990.429 1244.717h10.612v-46.432H990.43v46.432z" fill-rule="evenodd"/><path d="M987.929 1247.217h15.612v-51.432H987.93v51.432zm2.5-2.5h10.612v-46.432H990.43v46.432z" fill="#333" fill-rule="evenodd"/><path d="M1010.744 1247.061h10.612v-46.432h-10.612v46.432z" fill-rule="evenodd"/><path d="M1008.244 1249.561h15.612v-51.432h-15.612v51.432zm2.5-2.5h10.612v-46.432h-10.612v46.432z" fill="#333" fill-rule="evenodd"/><path d="M1028.918 1249.392h10.612v-46.432h-10.612v46.432z" fill-rule="evenodd"/><path d="M1026.418 1251.892h15.612v-51.432h-15.612v51.432zm2.5-2.5h10.612v-46.432h-10.612v46.432z" fill="#333" fill-rule="evenodd"/><path d="M1047.558 1249.392h10.612v-46.432h-10.612v46.432z" fill-rule="evenodd"/><path d="M1045.058 1251.892h15.612v-51.432h-15.612v51.432zm2.5-2.5h10.612v-46.432h-10.612v46.432z" fill="#333" fill-rule="evenodd"/><path d="M1065.878 1252.38h10.612v-46.433h-10.612v46.433z" fill-rule="evenodd"/><path d="M1063.378 1254.88h15.612v-51.433h-15.612v51.433zm2.5-2.5h10.612v-46.433h-10.612v46.433z" fill="#333" fill-rule="evenodd"/><path d="M1084.732 1255.451h10.613v-46.432h-10.613v46.432z" fill-rule="evenodd"/><path d="M1082.232 1257.951h15.613v-51.432h-15.613v51.432zm2.5-2.5h10.613v-46.432h-10.613v46.432z" fill="#333" fill-rule="evenodd"/><path d="M1103.989 1260.03h10.612v-46.433h-10.612v46.433z" fill-rule="evenodd"/><path d="M1101.489 1262.53h15.612v-51.433h-15.612v51.433zm2.5-2.5h10.612v-46.433h-10.612v46.433z" fill="#333" fill-rule="evenodd"/><path d="M1122.913 1263.675h10.612v-46.433h-10.612v46.433z" fill-rule="evenodd"/><path d="M1120.413 1266.175h15.612v-51.433h-15.612v51.433zm2.5-2.5h10.612v-46.433h-10.612v46.433z" fill="#333" fill-rule="evenodd"/><path d="M1140.645 1268.932h10.613V1222.5h-10.613v46.432z" fill-rule="evenodd"/><path d="M1138.145 1271.432h15.613V1220h-15.613v51.432zm2.5-2.5h10.613V1222.5h-10.613v46.432z" fill="#333" fill-rule="evenodd"/><path d="M1159.829 1274.251h10.612v-46.432h-10.612v46.432z" fill-rule="evenodd"/><path d="M1157.329 1276.751h15.612v-51.432h-15.612v51.432zm2.5-2.5h10.612v-46.432h-10.612v46.432z" fill="#333" fill-rule="evenodd"/><path d="M1178.561 1279.754h10.613v-46.433h-10.613v46.433z" fill-rule="evenodd"/><path d="M1176.061 1282.254h15.613v-51.433h-15.613v51.433zm2.5-2.5h10.613v-46.433h-10.613v46.433z" fill="#333" fill-rule="evenodd"/><path d="M1197.771 1284.932h10.613V1238.5h-10.613v46.432z" fill-rule="evenodd"/><path d="M1195.271 1287.432h15.613V1236h-15.613v51.432zm2.5-2.5h10.613V1238.5h-10.613v46.432z" fill="#333" fill-rule="evenodd"/><path d="M1216.464 1291.835h10.612v-46.433h-10.612v46.433z" fill-rule="evenodd"/><path d="M1213.964 1294.335h15.612v-51.433h-15.612v51.433zm2.5-2.5h10.612v-46.433h-10.612v46.433z" fill="#333" fill-rule="evenodd"/><path d="M1235.196 1297.311h10.613v-46.432h-10.613v46.432z" fill-rule="evenodd"/><path d="M1232.696 1299.811h15.613v-51.432h-15.613v51.432zm2.5-2.5h10.613v-46.432h-10.613v46.432z" fill="#333" fill-rule="evenodd"/><path d="M1253.95 1308.499h10.613v-46.433h-10.613v46.433z" fill-rule="evenodd"/><path d="M1251.45 1310.999h15.613v-51.433h-15.613v51.433zm2.5-2.5h10.613v-46.433h-10.613v46.433z" fill="#333" fill-rule="evenodd"/><path d="M1273.188 1319.894h10.612v-46.432h-10.612v46.432z" fill-rule="evenodd"/><path d="M1270.688 1322.394h15.612v-51.432h-15.612v51.432zm2.5-2.5h10.612v-46.432h-10.612v46.432z" fill="#333" fill-rule="evenodd"/><path d="M1292.725 1325.564h10.613v-46.433h-10.613v46.433z" fill-rule="evenodd"/><path d="M1290.225 1328.064h15.613v-51.433h-15.613v51.433zm2.5-2.5h10.613v-46.433h-10.613v46.433z" fill="#333" fill-rule="evenodd"/><path d="M1312 1332.67h10.613v-46.432H1312v46.433z" fill-rule="evenodd"/><path d="M1309.5 1335.17h15.613v-51.432H1309.5v51.433zm2.5-2.5h10.613v-46.432H1312v46.433z" fill="#333" fill-rule="evenodd"/><path d="M667.111 1242.703h10.613v-46.433H667.11v46.433z" fill-rule="evenodd"/><path d="M664.611 1245.203h15.613v-51.433H664.61v51.433zm2.5-2.5h10.613v-46.433H667.11v46.433z" fill="#333" fill-rule="evenodd"/><path d="M685.383 1242.703h10.612v-46.433h-10.612v46.433z" fill-rule="evenodd"/><path d="M682.883 1245.203h15.612v-51.433h-15.612v51.433zm2.5-2.5h10.612v-46.433h-10.612v46.433z" fill="#333" fill-rule="evenodd"/><path d="M628.814 1247.069h10.612v-46.433h-10.612v46.433z" fill-rule="evenodd"/><path d="M626.314 1249.569h15.612v-51.433h-15.612v51.433zm2.5-2.5h10.612v-46.433h-10.612v46.433z" fill="#333" fill-rule="evenodd"/><path d="M647.813 1247.069h10.612v-46.433h-10.612v46.433z" fill-rule="evenodd"/><path d="M645.313 1249.569h15.612v-51.433h-15.612v51.433zm2.5-2.5h10.612v-46.433h-10.612v46.433z" fill="#333" fill-rule="evenodd"/><path d="M610.136 1247.069h10.613v-46.433h-10.613v46.433z" fill-rule="evenodd"/><path d="M607.636 1249.569h15.613v-51.433h-15.613v51.433zm2.5-2.5h10.613v-46.433h-10.613v46.433z" fill="#333" fill-rule="evenodd"/><path d="M590.921 1247.069h10.613v-46.433H590.92v46.433z" fill-rule="evenodd"/><path d="M588.421 1249.569h15.613v-51.433H588.42v51.433zm2.5-2.5h10.613v-46.433H590.92v46.433z" fill="#333" fill-rule="evenodd"/><path d="M570.607 1249.412h10.613v-46.432h-10.613v46.432z" fill-rule="evenodd"/><path d="M568.107 1251.912h15.613v-51.432h-15.613v51.432zm2.5-2.5h10.613v-46.432h-10.613v46.432z" fill="#333" fill-rule="evenodd"/><path d="M552.433 1251.744h10.612v-46.433h-10.612v46.433z" fill-rule="evenodd"/><path d="M549.933 1254.244h15.612v-51.433h-15.612v51.433zm2.5-2.5h10.612v-46.433h-10.612v46.433z" fill="#333" fill-rule="evenodd"/><path d="M533.793 1251.744h10.612v-46.433h-10.612v46.433z" fill-rule="evenodd"/><path d="M531.293 1254.244h15.612v-51.433h-15.612v51.433zm2.5-2.5h10.612v-46.433h-10.612v46.433z" fill="#333" fill-rule="evenodd"/><path d="M515.472 1254.731h10.613V1208.3h-10.613v46.432z" fill-rule="evenodd"/><path d="M512.972 1257.231h15.613v-51.433h-15.613v51.433zm2.5-2.5h10.613V1208.3h-10.613v46.432z" fill="#333" fill-rule="evenodd"/><path d="M496.617 1257.801h10.613v-46.432h-10.613v46.432z" fill-rule="evenodd"/><path d="M494.117 1260.301h15.613v-51.432h-15.613v51.432zm2.5-2.5h10.613v-46.432h-10.613v46.432z" fill="#333" fill-rule="evenodd"/><path d="M477.361 1262.38h10.613v-46.433H477.36v46.433z" fill-rule="evenodd"/><path d="M474.861 1264.88h15.613v-51.433H474.86v51.433zm2.5-2.5h10.613v-46.433H477.36v46.433z" fill="#333" fill-rule="evenodd"/><path d="M458.438 1266.025h10.612v-46.433h-10.613v46.433z" fill-rule="evenodd"/><path d="M455.938 1268.525h15.612v-51.433h-15.613v51.433zm2.5-2.5h10.612v-46.433h-10.613v46.433z" fill="#333" fill-rule="evenodd"/><path d="M440.705 1271.283h10.613v-46.433h-10.613v46.433z" fill-rule="evenodd"/><path d="M438.205 1273.783h15.613v-51.433h-15.613v51.433zm2.5-2.5h10.613v-46.433h-10.613v46.433z" fill="#333" fill-rule="evenodd"/><path d="M421.521 1276.602h10.613v-46.432H421.52v46.432z" fill-rule="evenodd"/><path d="M419.021 1279.102h15.613v-51.432H419.02v51.432zm2.5-2.5h10.613v-46.432H421.52v46.432z" fill="#333" fill-rule="evenodd"/><path d="M402.789 1282.105H413.4v-46.433H402.79v46.433z" fill-rule="evenodd"/><path d="M400.289 1284.605H415.9v-51.433H400.29v51.433zm2.5-2.5H413.4v-46.433H402.79v46.433z" fill="#333" fill-rule="evenodd"/><path d="M383.58 1292.065h10.613v-46.433H383.58v46.433z" fill-rule="evenodd"/><path d="M381.08 1294.565h15.613v-51.433H381.08v51.433zm2.5-2.5h10.613v-46.433H383.58v46.433z" fill="#333" fill-rule="evenodd"/><path d="M364.886 1298.257H375.5v-46.432h-10.613v46.432z" fill-rule="evenodd"/><path d="M362.386 1300.757H378v-51.432h-15.613v51.432zm2.5-2.5H375.5v-46.432h-10.613v46.432z" fill="#333" fill-rule="evenodd"/><path d="M346.154 1305.461h10.612v-46.432h-10.612v46.432z" fill-rule="evenodd"/><path d="M343.654 1307.961h15.612v-51.432h-15.612v51.432zm2.5-2.5h10.612v-46.432h-10.612v46.432z" fill="#333" fill-rule="evenodd"/><path d="M327.395 1310.849h10.613v-46.433h-10.613v46.433z" fill-rule="evenodd"/><path d="M324.895 1313.349h15.613v-51.433h-15.613v51.433zm2.5-2.5h10.613v-46.433h-10.613v46.433z" fill="#333" fill-rule="evenodd"/><path d="M308.169 1322.245h10.612v-46.433H308.17v46.433z" fill-rule="evenodd"/><path d="M305.669 1324.745h15.612v-51.433H305.67v51.433zm2.5-2.5h10.612v-46.433H308.17v46.433z" fill="#333" fill-rule="evenodd"/><path d="M288.63 1327.914h10.613v-46.432H288.63v46.432z" fill-rule="evenodd"/><path d="M286.13 1330.414h15.613v-51.432H286.13v51.432zm2.5-2.5h10.613v-46.432H288.63v46.432z" fill="#333" fill-rule="evenodd"/><path d="M269.351 1335.021h10.613v-46.432H269.35v46.432z" fill-rule="evenodd"/><path d="M266.851 1337.521h15.613v-51.432H266.85v51.432zm2.5-2.5h10.613v-46.432H269.35v46.432z" fill="#333" fill-rule="evenodd"/><path d="M268.951 1351.692c17.379-9.385 36.003-16.248 56.153-17.496 313.128-19.405 628.802-17.287 946.271 0 33.537 1.826 34.425 3.065 69.388 17.496 9.875 4.077 19.512 5.445 30.587 5.445-113.112-77.81-230.622-115.278-351.021-120.09-161.426-6.45-379.261-8.3-459.439 0-122.636 12.695-228.035 55.044-320.895 120.09 10.165.671 19.795-1.248 28.956-5.445z" fill="#767a7b" fill-rule="evenodd" stroke="#343535" stroke-width="3.75" stroke-miterlimit="10"/><path d="M239.931 1357.23H218.84c93.81-92.8 212.826-131.671 342.051-150.17 82.046-11.745 327.792-11.928 459.439 0 122.02 11.055 244.396 41.876 367.233 150.17h-16.312c-96.088-84.675-215.071-126.553-350.921-136.925-133.769-9.335-361.532-9.832-459.439 0-112.564 11.305-232.516 56.672-320.959 136.925z" fill="#e7e8e9" fill-rule="evenodd" stroke="#000" stroke-width="3.75" stroke-miterlimit="10"/><path d="M239.995 1357.137c10.165.671 19.795-1.248 28.956-5.445 17.379-9.385 36.003-16.248 56.153-17.496 313.128-19.405 628.802-17.287 946.271 0 33.537 1.826 34.425 3.065 69.388 17.496 9.875 4.077 19.512 5.445 30.587 5.445" fill="none" stroke="#000" stroke-width="3.75" stroke-miterlimit="10"/><path d="M75.048 1310.999c21.107 24.342 72.03 38.756 143.79 46.231 93.81-92.8 212.827-131.671 342.052-150.17 82.046-11.745 327.793-11.928 459.439 0 122.02 11.055 244.396 41.876 367.234 150.17 52.95-6.28 107.324-22.146 141.262-46.231L1419.65 1129.84l-95.1-103.898H279.759l-96.376 103.898L75.048 1311" fill="#fff" fill-rule="evenodd" stroke="#000" stroke-width="3.75" stroke-miterlimit="10"/><path d="M773.478 1135.903c215.928-.8 466.902.816 526.685-54.59 35.362-32.773 28.737-64.913 0-96.752-30.6-33.897-95.738-53.681-160.212-56.832-227.79-11.131-455.596-10.431-683.415 0-77.472 3.547-130.845 23.592-157.16 56.832-27.11 34.332-26.82 66.56 0 96.753 45.39 51.097 301.254 50.475 474.102 54.589" fill="#e8e8e8" fill-rule="evenodd" stroke="#000" stroke-width="3.75" stroke-miterlimit="10"/><path d="M773.478 1131.201c-187.35-2.146-336.642-9.57-420.637-29.662 303.462 10.744 589.037 9.876 892.633 0-61.953 19.834-200.558 30.915-471.996 29.662z" fill="#767a7b" fill-rule="evenodd" stroke="#000" stroke-width="3.75" stroke-miterlimit="10"/><path d="M1324.188 1025.501c-5-18.296-15.963-33.123-29.45-46.485l107.774 100.595 17.188 50.32-95.512-104.43z" fill="#dddddb" fill-rule="evenodd" stroke="#000" stroke-width="3.75" stroke-miterlimit="10"/><path d="M1451.037 1180.527h12.763l-61.288-100.916 17.188 50.32 31.337 50.596zM152.12 1180.527h-12.766l61.287-100.916-17.19 50.32-31.331 50.596z" fill="#e7e8e9" fill-rule="evenodd" stroke="#000" stroke-width="3.75" stroke-miterlimit="10"/><path d="M279.664 1026.105c2.815-17.485 9.005-28.277 24.584-47.089l-103.63 100.595-17.19 50.32 96.236-103.826z" fill="#dddddb" fill-rule="evenodd" stroke="#000" stroke-width="3.75" stroke-miterlimit="10"/><path d="M677.851 1123.236c1.895-1.229 3.798-.986 5.703 0M675.801 1120.463c3.233-1.582 6.438-1.533 9.618 0M674.13 1118.134c4.232-1.965 8.549-2.193 12.979 0" fill="none" stroke="#333" stroke-width="1.575" stroke-miterlimit="10"/><path d="M929.23 1122.868h-1.899v-3.878h10.512v3.877h-1.758" fill="none" stroke="#333" stroke-width="1.4649999999999999" stroke-miterlimit="10"/><path d="M929.199 1125.564h6.397-2.888v-2.934M877.734 1122.868h-1.899v-3.878h10.511v3.877h-1.757" fill="none" stroke="#333" stroke-width="1.4649999999999999" stroke-miterlimit="10"/><path d="M877.703 1125.564h6.397-2.889v-2.934M827.4 1122.868h-1.899v-3.878h10.512v3.877h-1.758" fill="none" stroke="#333" stroke-width="1.4649999999999999" stroke-miterlimit="10"/><path d="M827.369 1125.564h6.396-2.888v-2.934M778.986 1122.868h-1.899v-3.878H787.6v3.877h-1.758" fill="none" stroke="#333" stroke-width="1.4649999999999999" stroke-miterlimit="10"/><path d="M778.954 1125.564h6.397-2.888v-2.934" fill="none" stroke="#333" stroke-width="1.4649999999999999" stroke-miterlimit="10"/><path d="M974.61 1118.829c1.326 0 2.404.644 2.404 1.436 0 .792-1.078 1.436-2.404 1.436-1.328 0-2.404-.643-2.404-1.436 0-.792 1.077-1.436 2.404-1.436z" fill="#333" fill-rule="evenodd" stroke="#333" stroke-width=".5625" stroke-miterlimit="10"/><path d="M974.527 1120.645v.66l-1.016-1.015 1.016-1.016v.66h16.003v-.66l1.015 1.016-1.015 1.015v-.66h-16.002z" fill="#333" fill-rule="evenodd" stroke="#333" stroke-width=".5625" stroke-miterlimit="10"/><path d="M982.395 1120.224c.059 1.835 2.415 2.391 5.933 2.299" fill="#333" fill-rule="evenodd" stroke="#333" stroke-width=".9375" stroke-miterlimit="10"/><path d="M986.865 1117.679l-1.363.936.028-1.911 1.335.975zM989.376 1122.595l-1.362.936.027-1.911 1.335.975z" fill="#333" fill-rule="evenodd" stroke="#333" stroke-width=".5625" stroke-miterlimit="10"/><path d="M980.173 1120.095c-.228-1.964 1.907-2.643 5.656-2.441" fill="#333" fill-rule="evenodd" stroke="#333" stroke-width=".9375" stroke-miterlimit="10"/><path d="M1027.539 1122.275h12.831v-4.63h-12.831v4.63z" fill="#333" fill-rule="evenodd" stroke="#414140" stroke-width=".9375" stroke-miterlimit="10"/><path d="M1029.346 1117.645c2.669-3.643 5.545-3.53 8.61 0" fill="none" stroke="#414140" stroke-width=".9375" stroke-miterlimit="10"/><path d="M732.597 1119.111c3.817-.682 7.085-.284 7.295.89.21 1.175-2.717 2.683-6.532 3.367-3.816.682-7.085.283-7.295-.89-.21-1.176 2.716-2.683 6.532-3.367z" fill="none" stroke="#333" stroke-width=".9375" stroke-miterlimit="10"/><path d="M734.08 1118.965c2.794 0 5.063 1.586 5.063 3.54 0 1.952-2.27 3.539-5.063 3.539-2.794 0-5.063-1.587-5.063-3.539 0-1.954 2.27-3.54 5.063-3.54z" fill="none" stroke="#333" stroke-width=".9375" stroke-miterlimit="10"/><path d="M579.574 1114.445c3.696 0 6.697 1.624 6.697 3.625 0 2-3.001 3.625-6.697 3.625s-6.698-1.625-6.698-3.625c0-2.001 3.002-3.625 6.698-3.625z" fill="none" stroke="#333" stroke-width="1.875" stroke-miterlimit="10"/><path d="M580.69 1113.584a.501.501 0 0 0-.501-.502h-1.003a.501.501 0 0 0-.502.502v4.923c0 .278.225.503.502.503h1.003a.502.502 0 0 0 .501-.503v-4.923z" fill="#333" fill-rule="evenodd"/><path d="M580.243 1112.521l.053.004.054.006.053.01.05.012.052.014.049.017.049.02.047.021.046.024.045.025.043.027.041.03.041.032.038.033.037.035.035.038.034.037.031.04.029.042.029.043.025.045.024.045.02.048.02.048.017.05.014.05.012.053.009.053.007.052.004.054.002.047v4.939l-.002.047-.003.054-.008.053-.009.052-.012.053-.014.051-.018.049-.018.048-.021.048-.024.045-.025.045-.029.044-.029.041-.031.04-.034.039-.035.036-.037.035-.038.034-.04.031-.042.03-.043.027-.045.027-.046.022-.047.023-.048.018-.05.017-.051.015-.051.011-.054.01-.053.006-.053.005-.047.001h-1.065l-.053-.006-.053-.006-.054-.01-.051-.011-.051-.015-.049-.017-.049-.018-.047-.023-.045-.022-.045-.027-.044-.027-.041-.03-.04-.031-.039-.034-.036-.035-.036-.036-.033-.039-.031-.04-.03-.043-.028-.042-.026-.045-.022-.045-.023-.048-.019-.048-.016-.049-.015-.051-.013-.053-.008-.052-.007-.053-.005-.054V1113.53l.005-.054.007-.053.008-.052.013-.053.015-.05.016-.05.019-.048.022-.048.023-.045.026-.045.028-.042.03-.043.031-.04.033-.038.036-.037.036-.035.039-.034.04-.03.042-.03.042-.028.045-.025.046-.024.047-.021.049-.02.049-.017.051-.015.053-.01.05-.01.055-.007.053-.004.048-.001h1.017l.047.001zm-1.057.562h-.026l-.025.002-.026.003-.024.005-.025.005-.024.007-.022.008-.024.008-.021.01-.023.012-.02.012-.021.013-.019.013-.02.015-.017.017-.018.016-.016.017-.016.019-.015.019-.014.02-.014.02-.011.021-.011.021-.01.023-.009.022-.009.024-.006.024-.006.024-.004.025-.004.025-.001.025-.001.026v4.924l.001.026.001.025.004.025.004.025.006.025.006.024.009.022.009.023.01.022.011.023.011.02.014.02.014.02.015.018.016.019.016.018.018.016.017.016.02.015.019.014.021.012.02.013.023.011.021.01.024.009.022.007.024.008.025.005.024.005.026.002.025.003.026.001h1.003l.025-.001.026-.003.025-.002.025-.005.024-.005.024-.008.023-.007.023-.009.022-.01.022-.011.02-.013.02-.012.02-.014.02-.015.018-.016.016-.016.018-.018.015-.019.015-.018.014-.02.013-.02.013-.02.01-.023.01-.022.01-.023.007-.022.007-.024.006-.025.004-.025.003-.025.002-.025.001-.026v-4.924l-.001-.026-.002-.025-.003-.025-.004-.025-.006-.024-.007-.024-.007-.024-.01-.022-.01-.023-.01-.021-.013-.021-.013-.02-.014-.02-.015-.019-.015-.019-.018-.017-.016-.016-.019-.017-.018-.015-.02-.013-.02-.013-.021-.012-.022-.012-.022-.01-.023-.008-.024-.008-.023-.007-.024-.005-.025-.005-.025-.003-.026-.003H579.186z" fill="#767a7b" fill-rule="evenodd"/><path d="M629.179 1115.046a6.294 6.294 0 0 0-1.029.066l-.111.69a5.11 5.11 0 0 0-.943.277l-.573-.489a5.596 5.596 0 0 0-.864.488l.315.636c-.248.19-.47.401-.663.631l-.796-.178a4.324 4.324 0 0 0-.466.78l.656.41c-.104.267-.172.54-.205.818l-.804.181c-.015.289.004.578.057.862l.82.076c.067.271.17.533.308.783l-.597.493c.159.253.347.491.564.713l.766-.28c.22.205.467.386.737.542l-.23.67c.292.15.599.275.92.373l.505-.56c.315.082.642.133.972.153l.198.67a6.16 6.16 0 0 0 1.029-.067l.111-.689c.324-.064.642-.156.943-.277l.574.488c.306-.138.595-.302.863-.487l-.315-.635c.248-.19.47-.403.663-.633l.796.178c.185-.246.341-.508.466-.779l-.656-.411a3.3 3.3 0 0 0 .205-.816l.804-.183a3.686 3.686 0 0 0-.056-.861l-.82-.076a3.278 3.278 0 0 0-.31-.784l.597-.493a4.212 4.212 0 0 0-.562-.711l-.767.278a4.178 4.178 0 0 0-.737-.54l.229-.672a5.652 5.652 0 0 0-.92-.372l-.505.559a5.335 5.335 0 0 0-.97-.153l-.2-.669zm-.289 3.524c.58-.037 1.076.326 1.107.81.032.485-.413.909-.993.946-.579.038-1.075-.325-1.107-.81-.03-.485.414-.909.993-.946z" fill="#333" fill-rule="evenodd"/></svg>