<svg xmlns="http://www.w3.org/2000/svg" viewBox="0 0 1600 1437.5" height="1437.5" width="1600"><path d="M815.045 773.899h63.863l-3.478-115.71h-56.193l-4.192 115.71zM831.355 284.865h34.874v-35.942h-34.874v35.942z" fill="#313131" fill-rule="evenodd" stroke="#000" stroke-width=".625" stroke-miterlimit="10"/><path d="M811.554 861.801l2.181-90.604c22.65 1.993 45.291 2.333 67.919 0l2.325 90.604h-72.425zM813.56 746.453v18.92c22.686 2.808 45.476 3.025 68.398 0v-18.92c-22.78 2.44-45.582 2.178-68.398 0zM828.926 427.049h39.116V279.326h-38.36l-.756 147.723zM814.184 741.783a383.605 383.605 0 0 0 66.683 0l-1.952-51.77c-20.732 2.447-41.884 2.317-63.391 0l-1.34 51.77zM816.349 684.885c20.897 2.063 41.745 2.221 62.53 0l-.75-18.236c-20.269 2.077-40.642 2.021-61.112 0l-.668 18.236z" fill="#313131" fill-rule="evenodd" stroke="#000" stroke-width=".625" stroke-miterlimit="10"/><path d="M817.018 662.435c20.473 1.633 40.852 1.759 61.11 0l-6.64-239.524c-15.015 2.521-30.065 2.633-45.15 0l-9.32 239.524zM829.683 274.704h38.36V256.38h-38.36v18.323zM829.609 251.207h38.445v-71.032c-7.755-19.388-28.995-19.425-38.445 0v71.032zM331.971 794.223l61.686-16.53-33.306-110.865-54.277 14.543 25.897 112.852zM245.538 273.888l-33.685 9.026 9.302 34.717 33.685-9.026-9.302-34.718z" fill="#313131" fill-rule="evenodd" stroke="#000" stroke-width=".625" stroke-miterlimit="10"/><path d="M351.351 880.034l-21.343-88.08c22.393-3.938 44.35-9.47 65.605-17.579l25.695 86.914-69.957 18.745zM323.434 768.096l4.897 18.276c22.64-3.16 44.71-8.848 66.066-17.702l-4.896-18.276c-21.372 8.255-43.465 13.902-66.067 17.702zM255.609 455.6l37.783-10.125-38.233-142.689-37.054 9.928L255.609 455.6zM322.827 763.424a383.554 383.554 0 0 0 64.413-17.259l-15.285-49.499c-19.392 7.729-39.858 13.078-61.232 16.407l12.104 50.35zM310.192 707.905c20.72-3.416 40.898-8.659 60.4-16.184l-5.445-17.42c-19.04 7.253-38.733 12.471-59.028 15.816l4.073 17.788z" fill="#313131" fill-rule="evenodd" stroke="#000" stroke-width=".625" stroke-miterlimit="10"/><path d="M305.029 686.046c20.199-3.721 39.915-8.874 59.027-15.816l-68.405-229.642c-13.854 6.32-28.361 10.323-43.614 11.685l52.992 233.773zM216.909 308.249l37.054-9.928-4.743-17.699-37.054 9.928 4.743 17.699zM210.756 285.574l37.136-9.951-18.386-68.617c-12.507-16.714-33.034-11.254-37.135 9.95l18.385 68.618zM1273.8 776.536l61.675 16.529 26.6-112.668-54.288-14.543-33.987 110.682zM1459.112 282.695l-33.687-9.025-9.3 34.717 33.675 9.025 9.313-34.717z" fill="#313131" fill-rule="evenodd" stroke="#000" stroke-width=".625" stroke-miterlimit="10"/><path d="M1247.671 860.54l25.554-86.951c21.363 7.786 43.15 13.975 65.612 17.578l-21.212 88.118-69.954-18.745zM1279.463 749.641l-4.9 18.275c21.187 8.584 43.15 14.693 66.074 17.704l4.888-18.276c-22.625-3.538-44.588-9.693-66.063-17.703zM1376.975 445.097l37.788 10.125 38.224-142.69-37.05-9.928-38.962 142.494zM1281.275 745.291a383.366 383.366 0 0 0 64.412 17.26l11.513-50.51c-20.663-3.004-41.063-8.604-61.238-16.407l-14.687 49.657zM1298.088 690.894c19.65 7.4 39.75 12.949 60.4 16.184l4-17.81c-20.113-3.24-39.775-8.565-59.025-15.815l-5.375 17.44z" fill="#313131" fill-rule="evenodd" stroke="#000" stroke-width=".625" stroke-miterlimit="10"/><path d="M1304.55 669.381c19.35 6.877 39 12.272 59.025 15.817l55.588-233.08c-15.163-1.452-29.725-5.24-43.613-11.687l-71 228.95zM1417.138 298.139l37.05 9.929 4.737-17.7-37.05-9.928-4.737 17.699zM1423.15 275.425l37.125 9.95 18.388-68.616c-2.475-20.729-22.975-26.263-37.138-9.95l-18.375 68.616z" fill="#313131" fill-rule="evenodd" stroke="#000" stroke-width=".625" stroke-miterlimit="10"/><path d="M1554.925 1217.076l7.063 13.239-2.913 7.129h-4.15l-2.475-20.368h2.475z" fill="#333" fill-rule="evenodd" stroke="#000" stroke-width=".625" stroke-miterlimit="10"/><path d="M1553.487 1233.408c3.613.386 6.55-.455 8.5-3.093v8.931c-1.575 2.824-4.55 3.117-7.912 3.193l-.587-9.031zM1554.063 1183.04l8.312 15.584-3.425 8.39h-4.888l-2.912-23.974h2.913z" fill="#333" fill-rule="evenodd" stroke="#000" stroke-width=".625" stroke-miterlimit="10"/><path d="M1552.375 1202.264c4.25.455 7.7-.536 10-3.64v10.512c-1.85 3.324-5.35 3.668-9.313 3.758l-.687-10.63zM1552.563 1147.844l9.274 17.395-3.812 9.365h-5.463l-3.25-26.76h3.25z" fill="#333" fill-rule="evenodd" stroke="#000" stroke-width=".625" stroke-miterlimit="10"/><path d="M1550.688 1169.301c4.737.509 8.587-.597 11.15-4.062v11.735c-2.05 3.71-5.975 4.093-10.4 4.193l-.75-11.866zM1552 1115.515l9.262 17.395-3.812 9.366H1552l-3.262-26.761H1552z" fill="#333" fill-rule="evenodd" stroke="#000" stroke-width=".625" stroke-miterlimit="10"/><path d="M1550.112 1136.973c4.738.508 8.6-.598 11.15-4.063v11.735c-2.05 3.71-5.962 4.095-10.387 4.194l-.762-11.867zM1550.175 1083.47l11.063 19.023-3.688 6.195h-8.9l-2.913-25.218h4.438z" fill="#333" fill-rule="evenodd" stroke="#000" stroke-width=".625" stroke-miterlimit="10"/><path d="M1548.587 1106.139c4.788.619 8.925-.876 12.675-3.618v11.104c-1.287 2.375-5.187 3.614-11.087 3.976l-1.588-11.462zM1425.25 881.261c12.25 3.178 21.725 9.739 28.05 20.152l107.875 171.162-1.325 6.709-5.238 1.727-9.95-1.547L1425.25 881.26z" fill="#333" fill-rule="evenodd" stroke="#000" stroke-width=".625" stroke-miterlimit="10"/><path d="M1546.775 1088.398c6.637.058 12.025-1.135 14.4-5.328.15-1.2.013-9.982 0-10.501-2.737 5.97-8.7 7.515-16.187 6.808M105.72 1217.076l-7.056 13.239 2.903 7.129h4.152l2.48-20.368h-2.48z" fill="#333" fill-rule="evenodd" stroke="#000" stroke-width=".625" stroke-miterlimit="10"/><path d="M107.153 1233.408c-3.607.386-6.54-.455-8.489-3.093v8.931c1.565 2.824 4.544 3.117 7.911 3.193l.578-9.031zM106.58 1183.04l-8.303 15.584 3.416 8.39h4.887l2.92-23.974h-2.92z" fill="#333" fill-rule="evenodd" stroke="#000" stroke-width=".625" stroke-miterlimit="10"/><path d="M108.267 1202.264c-4.245.455-7.697-.536-9.99-3.64v10.512c1.84 3.324 5.347 3.668 9.31 3.758l.68-10.63zM108.078 1147.844l-9.27 17.395 3.815 9.365h5.455l3.259-26.76h-3.26z" fill="#333" fill-rule="evenodd" stroke="#000" stroke-width=".625" stroke-miterlimit="10"/><path d="M109.961 1169.301c-4.739.509-8.592-.597-11.152-4.062v11.735c2.055 3.71 5.97 4.093 10.394 4.193l.758-11.866zM108.647 1115.515l-9.269 17.395 3.814 9.366h5.455l3.26-26.761h-3.26z" fill="#333" fill-rule="evenodd" stroke="#000" stroke-width=".625" stroke-miterlimit="10"/><path d="M110.53 1136.973c-4.738.508-8.592-.598-11.152-4.063v11.735c2.055 3.71 5.97 4.095 10.394 4.194l.759-11.867zM110.47 1083.47l-11.062 19.023 3.689 6.195h8.896l2.914-25.218h-4.437z" fill="#333" fill-rule="evenodd" stroke="#000" stroke-width=".625" stroke-miterlimit="10"/><path d="M112.056 1106.139c-4.78.619-8.919-.876-12.678-3.618v11.104c1.299 2.375 5.194 3.614 11.092 3.976l1.586-11.462zM235.391 881.261c-12.239 3.178-21.715 9.739-28.049 20.152L99.47 1072.574l1.332 6.709 5.233 1.727 9.954-1.547L235.39 881.26z" fill="#333" fill-rule="evenodd" stroke="#000" stroke-width=".625" stroke-miterlimit="10"/><path d="M113.871 1088.398c-6.642.058-12.027-1.135-14.406-5.328-.143-1.2-.01-9.982 0-10.501 2.742 5.97 8.701 7.515 16.188 6.808" fill="#333" fill-rule="evenodd" stroke="#000" stroke-width=".625" stroke-miterlimit="10"/><path d="M105.37 1227.434c2.771-61.363 4.12-127.37 15.283-161.313l118.482-186.476c4.627-7.284 40.142-18.009 63.608-18.553h1025.72c49.737.36 86.775 4.802 94.887 18.553l111.725 178.74c4.225 7.49 7.625 15.23 10.388 23.161 5.25 48.486 6.687 97.2 8.562 145.888l-16.012 18.498H122.943l-17.573-18.498z" fill="#fff" fill-rule="evenodd" stroke="#000" stroke-width="3.75" stroke-miterlimit="10"/><path d="M324.621 1232.898H117.853c-5.393-.23-9.513-2.147-12.577-5.464v26.009c0 3.912 9.86 13.597 12.577 13.597h206.768v-34.142zM1334.575 1232.898h206.762c5.4-.23 9.513-2.147 12.576-5.464v26.009c0 3.912-9.85 13.597-12.575 13.597h-206.763v-34.142z" fill="#fff" fill-rule="evenodd" stroke="#000" stroke-width="3.75" stroke-miterlimit="10"/><path d="M1529.112 1160.599c0-6.566-5.325-11.898-11.887-11.898h-123.637c-6.576 0-11.9 5.332-11.9 11.898v55.601c0 6.566 5.324 11.896 11.9 11.896h123.637c6.563 0 11.887-5.33 11.887-11.896v-55.601z" fill="#40c82b" fill-rule="evenodd" stroke="#000" stroke-width=".8125" stroke-miterlimit="10"/><path d="M1493.65 1155.32l7.475-3.07c5.888 8.963 6.025 18.079 0 27.821l-7.475-2.998c4.713-7.618 4.6-14.746 0-21.753" fill="#fcfcfc" fill-rule="evenodd" stroke="#fcfcfc" stroke-width=".8125" stroke-miterlimit="10"/><path d="M1497.162 1178.67c5.763-8.672 5.625-16.789 0-24.767M1501.113 1180.071c6.025-9.742 5.887-18.858 0-27.821M1493.65 1177.072c4.7-7.617 4.588-14.744 0-21.752" fill="none" stroke="#000" stroke-width=".8125" stroke-miterlimit="10"/><path d="M1479.5 1177.001l-7.475 3.07c-5.888-8.961-6.025-18.078 0-27.821l7.475 2.999c-4.713 7.617-4.6 14.746 0 21.752" fill="#fcfcfc" fill-rule="evenodd" stroke="#fcfcfc" stroke-width=".8125" stroke-miterlimit="10"/><path d="M1475.987 1153.651c-5.762 8.673-5.625 16.789 0 24.768M1472.038 1152.25c-6.025 9.742-5.888 18.86 0 27.821M1479.5 1155.249c-4.7 7.617-4.588 14.746 0 21.752" fill="none" stroke="#000" stroke-width=".8125" stroke-miterlimit="10"/><path d="M1513.963 1208.849a5.006 5.006 0 0 0-5-5.01h-53.825a5.016 5.016 0 0 0-5.013 5.01v10.02c0 2.765 2.25 5.01 5.012 5.01h53.826c2.762 0 5-2.245 5-5.01v-10.02z" fill-rule="evenodd" stroke="#000" stroke-width=".625" stroke-miterlimit="10"/><path d="M1452.45 1200.118l-1.65-13.74h3.337l.388 5.245c.037.46.075.963.1 1.513.025.55.063 1.343.1 2.38h.112c.05-.615.1-1.191.163-1.727.05-.538.112-.99.162-1.356l.863-6.054h3.525l.687 6.482c0 .107.038.462.1 1.067.063.606.113 1.135.163 1.588h.112a74.967 74.967 0 0 1 .237-3.977l.526-5.16h2.787l-1.8 13.739h-3.825l-.837-7.368a13.515 13.515 0 0 1-.088-.909c-.025-.343-.05-.79-.075-1.336h-.125l-1.162 9.613h-3.8zM1465 1200.118v-10.992h2.925v10.992H1465zm0-11.653v-2.086h2.925v2.086H1465zM1468.9 1200.118v-10.992h2.887v.923h.038c.25-.385.55-.669.887-.853.35-.183.75-.275 1.213-.275.637 0 1.113.158 1.438.47.312.314.474.781.474 1.403v4.247h-2.95v-3.446c0-.255-.037-.428-.125-.518-.075-.09-.212-.135-.4-.135-.187 0-.325.053-.4.16-.087.104-.137.27-.137.493v8.522h-2.925zM1479.85 1191.25v2.077h1.063v-2.077c0-.242-.038-.415-.125-.517-.075-.102-.213-.153-.4-.153-.188 0-.325.051-.413.153-.075.102-.125.275-.125.517zm0 6.65c0 .242.05.415.125.517.088.103.225.154.413.154.187 0 .325-.051.4-.153.087-.103.125-.275.125-.518v-2.058h2.937v2.04c0 .794-.312 1.41-.912 1.85-.6.437-1.45.656-2.55.656-1.238 0-2.125-.237-2.663-.708-.537-.472-.8-1.28-.8-2.422v-5.263c0-1.155.263-1.965.788-2.431.525-.465 1.412-.699 2.65-.699 1.087 0 1.937.21 2.562.629.613.42.925.999.925 1.737v3.735h-4v2.934zM1484.863 1200.118h3.505v-34.347h-3.505v34.347zM1492.325 1191.25v2.077h1.062v-2.077c0-.242-.05-.415-.125-.517-.087-.102-.225-.153-.412-.153-.188 0-.325.051-.4.153-.088.102-.125.275-.125.517zm0 6.65c0 .242.037.415.125.517.075.103.212.154.4.154.188 0 .325-.051.413-.153.074-.103.124-.275.124-.518v-2.058h2.925v2.04c0 .794-.3 1.41-.912 1.85-.6.437-1.45.656-2.55.656-1.238 0-2.125-.237-2.662-.708-.526-.472-.8-1.28-.8-2.422v-5.263c0-1.155.262-1.965.787-2.431.525-.465 1.412-.699 2.65-.699 1.1 0 1.95.21 2.563.629.612.42.925.999.925 1.737v3.735h-3.988v2.934zM1504.088 1197.845c0 .819-.288 1.447-.888 1.886-.587.438-1.45.657-2.563.657-1.1 0-1.962-.22-2.574-.662-.613-.441-.913-1.056-.913-1.844v-2.04h2.95v2.058c0 .242.038.415.125.517.088.103.213.154.413.154.187 0 .312-.051.4-.154.087-.102.125-.275.125-.517v-.986c0-.448-.488-.994-1.463-1.64-.213-.137-.375-.245-.5-.327l-.025-.018c-1.35-.925-2.025-1.853-2.025-2.785v-.978c0-.726.3-1.291.912-1.695.613-.404 1.463-.606 2.55-.606 1.1 0 1.963.211 2.563.634.612.422.912 1.018.912 1.788v1.677h-2.925v-1.714c0-.243-.037-.415-.125-.518-.087-.1-.212-.152-.4-.152-.2 0-.325.051-.412.152-.088.103-.125.275-.125.518v.586c0 .498.475 1.044 1.412 1.64.213.136.388.245.5.326.925.616 1.513 1.094 1.738 1.44.225.344.337.793.337 1.346v1.257zM1511.788 1197.845c0 .819-.3 1.447-.9 1.886-.588.438-1.45.657-2.563.657-1.1 0-1.963-.22-2.575-.662-.613-.441-.912-1.056-.912-1.844v-2.04h2.95v2.058c0 .242.05.415.125.517.087.103.225.154.412.154.188 0 .325-.051.4-.154.088-.102.125-.275.125-.517v-.986c0-.448-.487-.994-1.462-1.64-.213-.137-.375-.245-.5-.327l-.025-.018c-1.35-.925-2.026-1.853-2.026-2.785v-.978c0-.726.3-1.291.913-1.695.612-.404 1.462-.606 2.55-.606 1.1 0 1.962.211 2.575.634.6.422.912 1.018.912 1.788v1.677h-2.937v-1.714c0-.243-.038-.415-.125-.518-.075-.1-.213-.152-.4-.152-.188 0-.325.051-.413.152-.075.103-.125.275-.125.518v.586c0 .498.475 1.044 1.413 1.64.212.136.387.245.512.326.925.616 1.5 1.094 1.725 1.44.225.344.35.793.35 1.346v1.257zM1461.1 1209.709c0-1.279.3-2.19.9-2.734.6-.542 1.6-.815 2.975-.815 1.388 0 2.375.269 2.988.806.6.538.9 1.452.9 2.743v7.247c0 1.285-.3 2.198-.9 2.738-.6.54-1.588.811-2.988.811-1.387 0-2.375-.271-2.975-.811-.6-.54-.9-1.453-.9-2.738v-7.247zm3.325-.922v8.97c0 .242.05.414.138.517.087.102.225.153.412.153.213 0 .363-.052.45-.158.088-.105.125-.277.125-.513v-8.969c0-.242-.037-.413-.125-.512-.087-.1-.237-.149-.45-.149-.187 0-.325.053-.412.158-.088.106-.138.273-.138.503zM1469.813 1220.197v-10.99h2.874v.922h.05c.25-.385.55-.67.888-.853.35-.184.75-.275 1.212-.275.638 0 1.113.156 1.438.47.313.314.475.781.475 1.403v9.323h-2.95v-8.522c0-.255-.037-.428-.125-.518-.075-.09-.213-.135-.413-.135-.174 0-.312.053-.4.16-.075.104-.125.27-.125.493v8.522h-2.925zM1479.412 1221.966h-1.712l3.65-15.806h1.7l-3.638 15.806zM1484.05 1209.709c0-1.279.3-2.19.9-2.734.6-.542 1.587-.815 2.975-.815 1.388 0 2.375.269 2.975.806.6.538.9 1.452.9 2.743v7.247c0 1.285-.3 2.198-.887 2.738-.6.54-1.6.811-2.988.811s-2.387-.271-2.988-.811c-.587-.54-.887-1.453-.887-2.738v-7.247zm3.325-.922v8.97c0 .242.037.414.125.517.088.102.225.153.425.153.213 0 .362-.052.45-.158.088-.105.125-.277.125-.513v-8.969c0-.242-.037-.413-.125-.512-.088-.1-.237-.149-.45-.149-.2 0-.338.053-.425.158-.088.106-.125.273-.125.503zM1493.212 1220.197v-9.25h-.725v-1.74h.725v-1.045c0-.533.2-.95.588-1.252.388-.301.938-.451 1.638-.451h1.65v1.722c-.338 0-.588.033-.725.099-.15.065-.213.177-.213.339v.587h.938v1.742h-.938v9.25h-2.938zM1498.088 1220.197v-9.25h-.725v-1.74h.725v-1.045c0-.533.187-.95.587-1.252.388-.301.938-.451 1.625-.451h1.663v1.722c-.35 0-.588.033-.738.099a.35.35 0 0 0-.212.339v.587h.95v1.742h-.95v9.25h-2.925z" fill="#fff" stroke="#313131" stroke-width=".5" stroke-miterlimit="10"/><path d="M1413.325 1164.329c13.6 0 24.65 10.811 24.65 24.127 0 13.317-11.05 24.127-24.65 24.127-13.613 0-24.663-10.81-24.663-24.127 0-13.316 11.05-24.127 24.663-24.127z" fill="#48484a" fill-rule="evenodd" stroke="#000" stroke-miterlimit="10" stroke-width="1.25"/><path d="M1413.463 1170.227c10.425 0 18.887 8.283 18.887 18.484 0 10.203-8.462 18.485-18.887 18.485s-18.888-8.282-18.888-18.485c0-10.201 8.462-18.483 18.887-18.483z" fill="#48484a" fill-rule="evenodd" stroke="#000" stroke-width="2.5" stroke-miterlimit="10"/><path d="M1413.487 1179.142v19.178" fill="none" stroke="#000" stroke-width="4.375" stroke-miterlimit="10"/><path d="M121.782 1065.62c-.803-13.856 1416.143-9.377 1417.043 0" fill="none" stroke="#000" stroke-width="3.75" stroke-miterlimit="10"/><path d="M1348.85 1145.004c0-25.038-20.325-45.365-45.362-45.365H358.7c-25.037 0-45.365 20.327-45.365 45.365v70.498c0 25.038 20.328 45.365 45.365 45.365h944.786c25.038 0 45.363-20.327 45.363-45.365v-70.498z" fill="#333" fill-rule="evenodd"/><path d="M1348.963 1208.4c0-12.677-10.288-22.971-22.963-22.971H336.29c-12.678 0-22.97 10.293-22.97 22.971v45.94c0 12.678 10.292 22.97 22.97 22.97H1326c12.675 0 22.963-10.292 22.963-22.97v-45.94z" fill="#333" fill-rule="evenodd"/><path d="M1170.576 1184.109c0-4.944-4.013-8.958-8.956-8.958H507.298c-4.944 0-8.957 4.014-8.957 8.958v4.729c0 4.943 4.013 8.957 8.957 8.957h654.322c4.943 0 8.956-4.014 8.956-8.957v-4.73z" fill="#368123" fill-rule="evenodd" stroke="#000" stroke-miterlimit="10" stroke-width="1.25"/><path d="M541.9 1178.165c4.25 0 7.7 3.451 7.7 7.701s-3.45 7.7-7.7 7.7a7.704 7.704 0 0 1-7.701-7.7 7.705 7.705 0 0 1 7.701-7.701zM633.949 1178.165a7.705 7.705 0 0 1 7.701 7.701c0 4.25-3.45 7.7-7.701 7.7-4.25 0-7.7-3.45-7.7-7.7s3.45-7.701 7.7-7.701zM719.871 1178.165a7.705 7.705 0 0 1 7.702 7.701c0 4.25-3.452 7.7-7.702 7.7s-7.7-3.45-7.7-7.7 3.45-7.701 7.7-7.701zM799.289 1178.165c4.25 0 7.7 3.451 7.7 7.701s-3.45 7.7-7.7 7.7a7.704 7.704 0 0 1-7.701-7.7 7.705 7.705 0 0 1 7.7-7.701zM979.814 1178.165c4.25 0 7.7 3.451 7.7 7.701s-3.45 7.7-7.7 7.7a7.704 7.704 0 0 1-7.701-7.7 7.705 7.705 0 0 1 7.7-7.701zM886.2 1178.165a7.705 7.705 0 0 1 7.701 7.701c0 4.25-3.451 7.7-7.701 7.7s-7.7-3.45-7.7-7.7 3.45-7.701 7.7-7.701zM936.181 1178.165a7.705 7.705 0 0 1 7.702 7.701c0 4.25-3.452 7.7-7.702 7.7s-7.7-3.45-7.7-7.7 3.45-7.701 7.7-7.701zM1019.911 1178.165c4.25 0 7.7 3.451 7.7 7.701s-3.45 7.7-7.7 7.7a7.704 7.704 0 0 1-7.701-7.7 7.705 7.705 0 0 1 7.701-7.701zM1110.429 1178.165a7.705 7.705 0 0 1 7.701 7.701c0 4.25-3.451 7.7-7.701 7.7s-7.7-3.45-7.7-7.7 3.45-7.701 7.7-7.701z" fill="#afef9f" fill-rule="evenodd" stroke="#000" stroke-width=".625" stroke-miterlimit="10"/><path d="M1206.044 1186.582c0-8.69-7.055-15.743-15.744-15.743H474.358c-8.69 0-15.744 7.053-15.744 15.743 0 8.69 7.055 15.744 15.744 15.744H1190.3c8.689 0 15.744-7.055 15.744-15.743z" fill="none" stroke="#000" stroke-width=".625" stroke-miterlimit="10"/><text style="-inkscape-font-specification:ArialMT" transform="matrix(1.17526 0 0 1.32051 1145.505 1229.54)" font-weight="400" font-size="15.146" font-family="Arial" fill="#fcfcfc"><tspan y="0" x="0 9.2509327 17.674915 22.719915 37.014332 47.952484 56.376469 64.800453 73.224434">TL-WR940N</tspan></text><text style="-inkscape-font-specification:ArialMT" transform="matrix(1.17526 0 0 1.32051 392.138 1229.128)" font-weight="400" font-size="15.146" font-family="Arial" fill="#fcfcfc"><tspan y="0" x="0 8.4239826 16.847965 25.271948 37.889748 46.313732 54.737713 66.51796 80.812378 84.177727 89.222733 97.646713 101.01206 109.43605 117.00733 128.78758 143.93318 154.87134 163.29532 171.7193 175.92674 184.35072">300MbpsWirelessNRouter</tspan></text><text style="-inkscape-font-specification:ArialMT" transform="matrix(1.17526 0 0 1.32051 521.196 1160.503)" font-weight="400" font-size="12.306" font-family="Arial" fill="#fcfcfc"><tspan y="0" x="0 8.2067385 19.820951 76.577766 84.7845 92.991241 145.63545 157.24966 164.09415 172.30089 225.63176 236.73405 244.9408 309.72961 348.0191 386.30859 421.17953 486.82114 498.43536 506.64209">PWRSYSWLANWAN1234WPS</tspan></text><text style="-inkscape-font-specification:ArialMT" transform="matrix(1.17526 0 0 1.32051 841.259 1161.79)" font-weight="400" font-size="12.306" font-family="Arial" fill="#fcfcfc"><tspan y="0" x="0">3</tspan></text></svg>