<?xml version="1.0" encoding="UTF-8"?>
<!DOCTYPE svg  PUBLIC '-//W3C//DTD SVG 1.1//EN'  'http://www.w3.org/Graphics/SVG/1.1/DTD/svg11.dtd'>
<svg clip-rule="evenodd" fill-rule="evenodd" stroke-linecap="round" stroke-linejoin="round" stroke-miterlimit="1.4142" version="1.1" viewBox="0 0 1280 1150" xmlns="http://www.w3.org/2000/svg"><g transform="matrix(.99971 .024094 -.024094 .99971 -18.839 -7.2838)"><g transform="matrix(.985 -.17256 .17256 .985 -354.93 177.28)"><path d="m1030.1 728.08 16.25-116.13c4.56-53.951 7.99-108.32 17.74-161.86 20.64-113.31 34.72-221.59 51.07-331.11l-36.46-9.054c-23.26 164.18-47.58 328.38-80.295 492.7l-19.931 122.3 51.626 3.152z" fill="#0d0d0d" stroke="#000" stroke-width="1px"/></g><g transform="matrix(.985 -.17256 .17256 .985 -354.93 177.28)"><path d="m1091.8 135.22c-7.05-7.471-11.66-15.866-13.21-25.417 3.75-24.051 34.64-22.153 36.96 0 1.53 10.091-2.86 18.404-11.58 25.417l-68.41 442.04v27.601l-6.55 123.22-49.275-3.074 45.745-144.22 66.32-445.56z" fill="#333" stroke="#000" stroke-width="1px"/></g></g><g id="rumpf-3600-front" stroke="#000" stroke-width="1px"><path d="m147.31 980.98 0.155 25.305c351.8 13.6 702.32 12.09 1053 0l0.13-25.305c-350.65-23.005-701.53-22.86-1053.2 0z" fill="#0d0d0d"/><path d="m1200.4 1006c-352.02 12.54-703.1 13.65-1053 0v21.36c346.52 43.97 697.73 41.79 1053 0v-21.36z" fill="#1a1a1a"/><path d="m248.1 1038.9 19.867 27.95c271.06 8.69 542.12 8.25 813.18 0l11.86-27.95c-281.52 27.01-563.17 28.21-844.91 0z" fill="#0d0d0d"/><path d="m147.31 980.99 20.774-77.31c339.64-28.569 675.4-27.408 1007.7 0l24.73 77.31c-351.09-21.73-1053.3 0-1053.3 0z" fill="#1a1a1a"/><path d="m171.42 890.17c333.01-23.079 665.97-28.062 998.84 0l-18.07-71.21c-326.02-29.344-645.72-24.542-961.78 0l-18.997 71.21z" fill="#1a1a1a"/><path d="m191.72 808.38c321.17-24.566 640.08-26.628 956.1 0l-22.55-72.794c-302.25-26.638-607.28-24.657-914.51 0l-19.04 72.794z" fill="#1a1a1a"/><path d="m1170.3 890.05c-335.34-26.261-668.03-24.727-998.62 0v13.293c334.16-26.43 667.35-28.484 999.31 0l-0.69-13.293z" fill="#0d0d0d"/><path d="m191.82 808.45v10.425c319.46-26.507 638.14-27.094 956-0.346v-10.079c-318.34-26.19-637.02-25.169-956 0z" fill="#0d0d0d"/></g><g id="leds-anzeige" stroke="#29ac37"><path d="m437.9 985.14c-8.713 0.039-9.553 19.192 3.247 19.532 13.799 0.36 11.854-19.337 3.214-19.532" fill="none" stroke-width="3px"/><path d="m441.05 996.54v-14.637" fill="none" stroke-width="3px"/><path d="m489.59 981.9 1.911 5.777 3.684-1.786-0.591 3.992h6.185l-5.004 3.57 2.867 2.888-4.048 0.682 1.911 5.782-5.004-3.575-1.911 3.575-1.911-3.575-5.004 3.575 1.911-5.782-4.048-0.682 2.867-2.888-5.004-3.57h6.185l-0.591-3.992 3.684 1.786 1.911-5.777z" fill="#29ac37" stroke-width="1px"/><g fill="none" stroke-width="3px"><path d="m532.5 1001.6c3.037-3.06 6.083-2.457 9.134 0"/><path d="m529.22 994.65c5.176-3.942 10.31-3.82 15.405 0"/><path d="m526.54 988.85c6.781-4.897 13.694-5.464 20.791 0"/></g><g transform="translate(48.011 .41611)" fill="none" stroke-width="3px"><path d="m532.5 1001.6c3.037-3.06 6.083-2.457 9.134 0"/><path d="m529.22 994.65c5.176-3.942 10.31-3.82 15.405 0"/><path d="m526.54 988.85c6.781-4.897 13.694-5.464 20.791 0"/></g><g fill="none" stroke-width="3px"><path d="m626.35 996.05h-3.276v-10.303h18.143v10.303h-3.033"/><path d="m626.3 1003.2h11.042-4.985v-7.799"/></g><g transform="translate(49.178 .52135)" fill="none" stroke-width="3px"><path d="m626.35 996.05h-3.276v-10.303h18.143v10.303h-3.033"/><path d="m626.3 1003.2h11.042-4.985v-7.799"/></g><g transform="translate(96.89 .51443)" fill="none" stroke-width="3px"><path d="m626.35 996.05h-3.276v-10.303h18.143v10.303h-3.033"/><path d="m626.3 1003.2h11.042-4.985v-7.799"/></g><g transform="translate(146.09 .3988)" fill="none" stroke-width="3px"><path d="m626.35 996.05h-3.276v-10.303h18.143v10.303h-3.033"/><path d="m626.3 1003.2h11.042-4.985v-7.799"/></g><g fill="none" stroke-width="3px"><path d="m813.09 996.53c-1.722 2.532-1.722 4.821 0 6.861 12.399-1.4 20.816-6.311 25.825-14.21-0.916-1.909-2.421-2.725-4.348-2.755"/><path d="m817.98 994.32c-0.444-8.394 2.219-12.453 12.981-5.218"/></g><g fill="none" stroke-width="3px"><path d="m862.26 985.28c-3.15 5.488-1.575 10.729 1.854 15.875l2.507-4.943"/><path d="m874.85 1e3c3.145-7.28 2.087-12.851-2.979-16.788l-2.223 6.525"/></g><g fill="none" stroke-width="3px"><path d="m901.63 989c-0.719 13.951 20.96 8.804 17.735-1.962"/><path d="m910.39 1004.2v-23.495l3.577 6.141h-8.248l4.671-6.141"/></g></g><path d="m213.01 113.05c21.358 124 42.674 247.86 62.896 373.67 7.455 46.378 11.624 93.252 15.758 140.15l15.548 101.71 50.122-3.075-106.86-619.84-37.459 7.392z" fill="#0d0d0d" stroke="#000" stroke-width="1px"/><path d="m231.28 89.134c22.914-2.599 25.457 21.325 6.428 40.34l71.215 430.92 16.878 52.661 26.331 112.8-36.37 2.226-16.363-161.38-72.381-431.45c-17.345-19.427-24.661-43.433 4.262-46.117" fill="#333" stroke="#000" stroke-width="1px"/><path d="m1030.1 728.08 16.25-116.13c4.56-53.951 7.99-108.32 17.74-161.86 20.64-113.31 34.72-221.59 51.07-331.11l-36.46-9.054c-23.26 164.18-47.58 328.38-80.295 492.7l-19.931 122.3 51.626 3.152z" fill="#0d0d0d" stroke="#000" stroke-width="1px"/><path d="m1091.8 135.22c-7.05-7.471-11.66-15.866-13.21-25.417 3.75-24.051 34.64-22.153 36.96 0 1.53 10.091-2.86 18.404-11.58 25.417l-68.41 442.04v27.601l-6.55 123.22-49.275-3.074 45.745-144.22 66.32-445.56z" fill="#333" stroke="#000" stroke-width="1px"/><path d="m1091.8 135.22c-7.05-7.471-11.66-15.866-13.21-25.417 3.75-24.051 34.64-22.153 36.96 0 1.53 10.091-2.86 18.404-11.58 25.417l-68.41 442.04v27.601l-6.55 123.22-49.275-3.074 45.745-144.22 66.32-445.56z" fill="#333" stroke="#000" stroke-width="1px"/></svg>
