<?xml version="1.0" encoding="UTF-8"?>
<!DOCTYPE svg  PUBLIC '-//W3C//DTD SVG 1.1//EN'  'http://www.w3.org/Graphics/SVG/1.1/DTD/svg11.dtd'>
<svg clip-rule="evenodd" fill-rule="evenodd" stroke-linecap="round" stroke-linejoin="round" stroke-miterlimit="1.4142" version="1.1" viewBox="0 0 1280 1150" xmlns="http://www.w3.org/2000/svg"><path id="Rumpf" d="m229.09 306.4c-32.197 0.344-52.235 15.24-56.03 52.629-15.458 152.3-19.291 304.56-15.6 456.81 0.984 40.602 13.771 67.966 38.638 67.966h860.11c29.23 0 40.2-30.338 43.22-67.966 3.9-152.32 2.12-304.6-8.57-456.81-3.35-47.664-20.49-61.632-52.38-61.291l-809.39 8.662z" fill="#fff" stroke="#000" stroke-width="3px"/><g id="anzeige" transform="translate(-182.85 -285.56)"><g transform="matrix(1.1142 4.1502e-17 -2.9052e-17 .71629 -114.5 200.63)" fill="none" stroke="#676767" stroke-width="3px"><path d="m532.5 1001.6c3.037-3.06 6.083-2.457 9.134 0"/><path d="m529.22 994.65c5.176-3.942 10.31-3.82 15.405 0"/><path d="m526.54 988.85c6.781-4.897 13.694-5.464 20.791 0"/></g><g transform="matrix(1.0774 -.0029744 .0030768 1.1145 -145.11 -192.64)" fill="none" stroke="#676767" stroke-width="3px"><path d="m626.35 996.05h-3.276v-10.303h18.143v10.303h-3.033"/><path d="m626.3 1003.2h11.042-4.985v-7.799"/></g><g id="Inet" transform="matrix(1.633 2.969e-16 -3.6566e-16 2.2347 -775.58 -1304.7)"><g transform="matrix(1.2724 -.22777 .31837 1.7784 -475.11 -424.45)"><ellipse cx="729.35" cy="889.27" rx="6.378" ry="1.404" fill="none" stroke="#676767" stroke-width=".82px"/></g><g transform="matrix(1.095 0 0 1.0978 -70.618 8.1974)"><ellipse cx="737.8" cy="896.54" rx="5.426" ry="3.783" fill="none" stroke="#676767" stroke-width="1.16px"/></g></g><g id="power" transform="matrix(3.3358 -1.1821e-15 9.2371e-16 2.56 -958.88 -1591.8)"><g transform="matrix(.74223 0 0 .74223 119.22 252.8)"><circle cx="466.64" cy="978.91" r="4.395" fill="none" stroke="#676767" stroke-width="1.13px"/></g><g transform="matrix(1 9.8608e-32 9.8608e-32 1.2148 -.14312 -210.64)"><path d="m466.41 975.39c0-0.195-0.148-0.354-0.33-0.354h-0.659c-0.182 0-0.33 0.159-0.33 0.354v3.759c0 0.195 0.148 0.353 0.33 0.353h0.659c0.182 0 0.33-0.158 0.33-0.353v-3.759z" fill="#676767" stroke="#fff" stroke-width=".78px"/></g></g></g><path d="m207.09 589.95c5.682-6.399 12.706-10.768 22.006-10.768h196.02c7.387 0 16.827 5.541 20.669 10.768-4.039 6.546-13.896 10.674-20.669 10.674h-196.02c-9.358 0-15.981-5.433-22.006-10.674z" fill="#0d403b" stroke="#0f2a35" stroke-width="2.5px"/><g transform="matrix(.94409 0 0 .94409 16.228 32.198)"><ellipse cx="307.52" cy="590.75" rx="10.284" ry="9.94" fill="#acfb9f"/><path d="m307.66 580.81 0.132 2e-3 0.132 4e-3 0.132 6e-3 0.131 7e-3 0.131 9e-3 0.13 0.01 0.13 0.012 0.129 0.014 0.129 0.015 0.128 0.016 0.128 0.018 0.128 0.02 0.126 0.021 0.127 0.023 0.125 0.024 0.126 0.025 0.248 0.056 0.124 0.03 0.123 0.031 0.122 0.033 0.122 0.034 0.121 0.036 0.12 0.037 0.12 0.038 0.119 0.04 0.118 0.041 0.118 0.043 0.117 0.044 0.117 0.045 0.115 0.046 0.115 0.048 0.115 0.049 0.113 0.051 0.113 0.052 0.112 0.053 0.111 0.054 0.111 0.055 0.109 0.057 0.109 0.058 0.216 0.12 0.106 0.062 0.106 0.063 0.104 0.064 0.104 0.065 0.103 0.066 0.102 0.068 0.102 0.069 0.1 0.07 0.099 0.071 0.099 0.072 0.098 0.073 0.096 0.074 0.096 0.076 0.095 0.076 0.094 0.078 0.184 0.158 0.091 0.081 0.09 0.082 0.089 0.083 0.088 0.084 0.086 0.084 0.086 0.086 0.085 0.087 0.083 0.088 0.083 0.089 0.081 0.089 0.08 0.091 0.158 0.184 0.152 0.188 0.075 0.095 0.073 0.096 0.073 0.097 0.071 0.098 0.07 0.099 0.136 0.2 0.066 0.101 0.065 0.102 0.064 0.103 0.063 0.104 0.061 0.104 0.06 0.106 0.059 0.106 0.057 0.106 0.056 0.108 0.055 0.108 0.054 0.109 0.052 0.11 0.051 0.11 0.049 0.111 0.049 0.112 0.092 0.226 0.044 0.114 0.042 0.114 0.041 0.115 0.04 0.116 0.038 0.116 0.037 0.117 0.036 0.118 0.034 0.118 0.032 0.119 0.031 0.119 0.03 0.12 0.028 0.121 0.026 0.121 0.025 0.121 0.023 0.122 0.022 0.123 0.021 0.123 0.018 0.124 0.017 0.124 0.016 0.124 0.014 0.125 0.012 0.126 0.011 0.126 9e-3 0.126 8e-3 0.127 6e-3 0.127 4e-3 0.128 2e-3 0.128 1e-3 0.128-1e-3 0.128-2e-3 0.128-4e-3 0.128-6e-3 0.127-8e-3 0.127-9e-3 0.126-0.011 0.126-0.012 0.126-0.014 0.125-0.016 0.124-0.017 0.124-0.018 0.124-0.021 0.123-0.022 0.123-0.023 0.122-0.025 0.121-0.026 0.121-0.028 0.121-0.03 0.12-0.031 0.119-0.032 0.119-0.034 0.118-0.036 0.118-0.037 0.117-0.038 0.116-0.04 0.116-0.041 0.115-0.042 0.114-0.044 0.114-0.092 0.226-0.049 0.112-0.049 0.111-0.051 0.11-0.052 0.11-0.054 0.109-0.055 0.108-0.056 0.108-0.057 0.107-0.059 0.106-0.06 0.105-0.061 0.104-0.063 0.104-0.064 0.103-0.065 0.102-0.066 0.101-0.068 0.101-0.068 0.099-0.07 0.099-0.071 0.098-0.073 0.097-0.073 0.096-0.075 0.095-0.152 0.188-0.158 0.184-0.08 0.091-0.081 0.089-0.083 0.089-0.083 0.088-0.085 0.087-0.086 0.086-0.086 0.084-0.088 0.084-0.089 0.083-0.09 0.082-0.091 0.081-0.184 0.158-0.094 0.078-0.095 0.076-0.096 0.076-0.096 0.074-0.098 0.073-0.099 0.072-0.099 0.071-0.1 0.07-0.102 0.069-0.102 0.068-0.103 0.066-0.104 0.065-0.104 0.064-0.106 0.063-0.106 0.062-0.108 0.061-0.108 0.059-0.109 0.058-0.109 0.057-0.111 0.055-0.111 0.054-0.112 0.053-0.113 0.052-0.113 0.051-0.115 0.049-0.115 0.048-0.115 0.046-0.117 0.045-0.117 0.044-0.118 0.043-0.118 0.041-0.119 0.04-0.12 0.038-0.12 0.037-0.121 0.036-0.122 0.034-0.122 0.033-0.123 0.031-0.124 0.03-0.124 0.029-0.124 0.027-0.126 0.025-0.125 0.024-0.127 0.023-0.126 0.021-0.128 0.02-0.128 0.018-0.128 0.016-0.129 0.015-0.129 0.014-0.13 0.012-0.13 0.01-0.131 9e-3 -0.131 7e-3 -0.132 6e-3 -0.132 4e-3 -0.132 2e-3 -0.133 1e-3 -0.133-1e-3 -0.132-2e-3 -0.132-4e-3 -0.132-6e-3 -0.131-7e-3 -0.131-9e-3 -0.13-0.01-0.13-0.012-0.129-0.014-0.129-0.015-0.128-0.016-0.128-0.018-0.128-0.02-0.127-0.021-0.126-0.023-0.126-0.024-0.125-0.025-0.124-0.027-0.124-0.029-0.124-0.03-0.123-0.031-0.122-0.033-0.122-0.034-0.121-0.036-0.12-0.037-0.12-0.038-0.119-0.04-0.119-0.041-0.117-0.043-0.117-0.044-0.117-0.045-0.116-0.046-0.114-0.048-0.115-0.049-0.113-0.051-0.113-0.052-0.112-0.053-0.111-0.054-0.111-0.055-0.109-0.057-0.109-0.058-0.108-0.059-0.108-0.061-0.106-0.062-0.106-0.063-0.104-0.064-0.104-0.065-0.103-0.066-0.103-0.068-0.101-0.069-0.1-0.07-0.1-0.071-0.098-0.072-0.098-0.073-0.096-0.074-0.096-0.076-0.095-0.076-0.094-0.078-0.093-0.079-0.091-0.079-0.091-0.081-0.09-0.082-0.089-0.083-0.088-0.084-0.086-0.084-0.086-0.086-0.085-0.087-0.083-0.088-0.083-0.089-0.081-0.089-0.08-0.091-0.08-0.092-0.078-0.092-0.077-0.094-0.075-0.094-0.075-0.095-0.073-0.096-0.073-0.097-0.071-0.098-0.07-0.099-0.069-0.099-0.067-0.101-0.066-0.101-0.065-0.102-0.064-0.103-0.063-0.104-0.061-0.104-0.06-0.105-0.059-0.106-0.057-0.107-0.057-0.108-0.054-0.108-0.054-0.109-0.052-0.11-0.051-0.11-0.05-0.111-0.048-0.112-0.092-0.226-0.044-0.114-0.042-0.114-0.041-0.115-0.04-0.116-0.039-0.116-0.036-0.117-0.036-0.118-0.034-0.118-0.032-0.119-0.031-0.119-0.03-0.12-0.028-0.121-0.026-0.121-0.025-0.121-0.023-0.122-0.022-0.123-0.021-0.123-0.036-0.248-0.015-0.124-0.014-0.125-0.012-0.126-0.011-0.126-9e-3 -0.126-8e-3 -0.127-6e-3 -0.127-4e-3 -0.128-2e-3 -0.128-1e-3 -0.128 1e-3 -0.128 2e-3 -0.128 4e-3 -0.128 6e-3 -0.127 8e-3 -0.127 9e-3 -0.126 0.011-0.126 0.012-0.126 0.014-0.125 0.015-0.124 0.036-0.248 0.021-0.123 0.022-0.123 0.023-0.122 0.025-0.121 0.026-0.121 0.028-0.121 0.03-0.12 0.031-0.119 0.032-0.119 0.034-0.118 0.036-0.118 0.036-0.117 0.039-0.116 0.04-0.116 0.041-0.115 0.042-0.114 0.044-0.114 0.092-0.226 0.048-0.112 0.05-0.111 0.051-0.11 0.052-0.11 0.054-0.109 0.054-0.108 0.057-0.108 0.057-0.106 0.059-0.106 0.06-0.106 0.061-0.104 0.063-0.104 0.064-0.103 0.065-0.102 0.066-0.101 0.067-0.1 0.069-0.1 0.07-0.099 0.071-0.098 0.073-0.097 0.073-0.096 0.075-0.095 0.075-0.094 0.077-0.094 0.078-0.092 0.08-0.092 0.08-0.091 0.081-0.089 0.083-0.089 0.083-0.088 0.085-0.087 0.086-0.086 0.086-0.084 0.088-0.084 0.089-0.083 0.09-0.082 0.091-0.081 0.091-0.079 0.093-0.079 0.094-0.078 0.095-0.076 0.096-0.076 0.096-0.074 0.098-0.073 0.098-0.072 0.1-0.071 0.1-0.07 0.101-0.069 0.103-0.068 0.103-0.066 0.104-0.065 0.104-0.064 0.106-0.063 0.106-0.062 0.216-0.12 0.109-0.058 0.109-0.057 0.111-0.055 0.111-0.054 0.112-0.053 0.113-0.052 0.113-0.051 0.115-0.049 0.114-0.048 0.116-0.046 0.117-0.045 0.117-0.044 0.117-0.043 0.119-0.041 0.119-0.04 0.12-0.038 0.12-0.037 0.121-0.036 0.122-0.034 0.122-0.033 0.123-0.031 0.124-0.03 0.248-0.056 0.125-0.025 0.126-0.024 0.126-0.023 0.127-0.021 0.128-0.02 0.128-0.018 0.128-0.016 0.129-0.015 0.129-0.014 0.13-0.012 0.13-0.01 0.131-9e-3 0.131-7e-3 0.132-6e-3 0.132-4e-3 0.132-2e-3 0.133-1e-3 0.133 1e-3zm-0.233 2.648-0.101 1e-3 -0.1 3e-3 -0.098 5e-3 -0.099 5e-3 -0.098 7e-3 -0.098 8e-3 -0.098 9e-3 -0.097 0.01-0.097 0.011-0.096 0.012-0.095 0.014-0.096 0.015-0.096 0.016-0.094 0.017-0.094 0.018-0.094 0.019-0.093 0.02-0.093 0.021-0.092 0.022-0.092 0.024-0.092 0.025-0.09 0.025-0.09 0.027-0.091 0.028-0.089 0.028-0.089 0.03-0.088 0.03-0.088 0.032-0.088 0.033-0.086 0.034-0.087 0.034-0.085 0.036-0.17 0.074-0.084 0.039-0.084 0.04-0.083 0.04-0.082 0.041-0.082 0.042-0.081 0.044-0.08 0.044-0.081 0.045-0.079 0.046-0.078 0.047-0.156 0.096-0.076 0.049-0.076 0.051-0.075 0.051-0.075 0.052-0.074 0.052-0.073 0.054-0.073 0.055-0.071 0.055-0.071 0.056-0.071 0.057-0.07 0.057-0.068 0.059-0.069 0.059-0.067 0.06-0.066 0.06-0.066 0.061-0.065 0.063-0.064 0.062-0.064 0.064-0.063 0.064-0.061 0.065-0.061 0.066-0.06 0.066-0.059 0.067-0.059 0.068-0.058 0.068-0.056 0.068-0.056 0.07-0.055 0.07-0.054 0.071-0.053 0.071-0.052 0.072-0.052 0.073-0.05 0.073-0.049 0.073-0.049 0.074-0.048 0.075-0.047 0.076-0.045 0.075-0.045 0.076-0.044 0.078-0.043 0.077-0.042 0.078-0.041 0.078-0.04 0.079-0.039 0.079-0.038 0.081-0.037 0.08-0.036 0.08-0.035 0.082-0.034 0.082-0.033 0.082-0.032 0.083-0.03 0.082-0.03 0.084-0.029 0.084-0.028 0.084-0.027 0.085-0.025 0.085-0.025 0.086-0.046 0.172-0.021 0.087-0.02 0.087-0.038 0.176-0.017 0.088-0.03 0.178-0.014 0.09-0.012 0.089-0.011 0.091-0.011 0.09-8e-3 0.092-8e-3 0.091-7e-3 0.092-0.01 0.184-3e-3 0.093-1e-3 0.094-1e-3 0.093 1e-3 0.094 1e-3 0.093 3e-3 0.093 5e-3 0.092 5e-3 0.093 7e-3 0.091 8e-3 0.092 8e-3 0.091 0.011 0.091 0.011 0.09 0.012 0.09 0.014 0.089 0.03 0.178 0.017 0.088 0.038 0.176 0.02 0.087 0.021 0.087 0.046 0.172 0.025 0.086 0.025 0.085 0.027 0.085 0.028 0.084 0.029 0.084 0.03 0.084 0.03 0.082 0.032 0.083 0.033 0.082 0.034 0.082 0.035 0.082 0.036 0.08 0.037 0.08 0.038 0.081 0.039 0.079 0.04 0.079 0.041 0.078 0.042 0.078 0.043 0.077 0.044 0.078 0.045 0.076 0.046 0.076 0.046 0.075 0.048 0.075 0.048 0.074 0.05 0.073 0.05 0.074 0.104 0.144 0.053 0.071 0.054 0.071 0.055 0.07 0.056 0.07 0.056 0.068 0.058 0.068 0.059 0.068 0.059 0.067 0.06 0.067 0.122 0.13 0.063 0.064 0.064 0.064 0.064 0.062 0.065 0.063 0.066 0.061 0.066 0.06 0.067 0.06 0.138 0.118 0.069 0.057 0.07 0.057 0.072 0.056 0.071 0.056 0.073 0.054 0.073 0.053 0.074 0.053 0.075 0.052 0.075 0.051 0.076 0.051 0.076 0.049 0.078 0.048 0.078 0.049 0.078 0.046 0.079 0.046 0.081 0.045 0.08 0.044 0.081 0.044 0.082 0.042 0.082 0.041 0.083 0.041 0.168 0.078 0.085 0.038 0.17 0.072 0.087 0.034 0.086 0.034 0.088 0.033 0.088 0.032 0.088 0.03 0.089 0.03 0.089 0.029 0.091 0.027 0.09 0.027 0.091 0.026 0.091 0.024 0.184 0.046 0.093 0.021 0.093 0.02 0.094 0.02 0.094 0.018 0.095 0.017 0.19 0.03 0.096 0.014 0.096 0.012 0.194 0.022 0.098 9e-3 0.196 0.014 0.198 0.01 0.099 3e-3 0.1 2e-3h0.101 0.101l0.1-2e-3 0.099-3e-3 0.198-0.01 0.196-0.014 0.098-9e-3 0.194-0.022 0.096-0.012 0.096-0.014 0.19-0.03 0.095-0.017 0.094-0.018 0.094-0.02 0.093-0.02 0.093-0.021 0.184-0.046 0.091-0.024 0.091-0.026 0.09-0.027 0.091-0.027 0.089-0.029 0.089-0.03 0.088-0.03 0.088-0.032 0.088-0.033 0.086-0.034 0.087-0.034 0.17-0.072 0.085-0.038 0.168-0.078 0.083-0.041 0.082-0.041 0.081-0.042 0.082-0.044 0.08-0.044 0.081-0.045 0.079-0.046 0.078-0.046 0.078-0.049 0.077-0.048 0.077-0.049 0.076-0.051 0.075-0.051 0.075-0.052 0.074-0.053 0.073-0.053 0.072-0.054 0.144-0.112 0.07-0.057 0.069-0.057 0.069-0.059 0.068-0.059 0.068-0.06 0.066-0.06 0.066-0.061 0.065-0.063 0.064-0.062 0.064-0.064 0.063-0.064 0.122-0.13 0.06-0.067 0.059-0.067 0.059-0.068 0.057-0.067 0.057-0.069 0.056-0.07 0.055-0.07 0.054-0.071 0.053-0.071 0.052-0.072 0.051-0.072 0.051-0.074 0.05-0.073 0.048-0.074 0.048-0.075 0.046-0.075 0.046-0.076 0.045-0.076 0.044-0.078 0.043-0.077 0.042-0.078 0.041-0.078 0.04-0.079 0.039-0.079 0.038-0.08 0.037-0.081 0.036-0.08 0.035-0.082 0.034-0.082 0.033-0.082 0.031-0.082 0.031-0.083 0.03-0.084 0.029-0.084 0.028-0.084 0.027-0.085 0.025-0.085 0.025-0.086 0.046-0.172 0.021-0.087 0.02-0.087 0.038-0.176 0.016-0.088 0.016-0.089 0.015-0.089 0.014-0.089 0.012-0.09 0.011-0.091 0.01-0.09 9e-3 -0.091 8e-3 -0.092 7e-3 -0.091 5e-3 -0.093 5e-3 -0.092 3e-3 -0.093 1e-3 -0.093 1e-3 -0.094-1e-3 -0.094-1e-3 -0.093-3e-3 -0.093-0.01-0.184-7e-3 -0.092-8e-3 -0.091-9e-3 -0.092-0.01-0.09-0.011-0.09-0.012-0.09-0.014-0.09-0.015-0.089-0.016-0.089-0.016-0.088-0.038-0.176-0.02-0.087-0.021-0.087-0.046-0.172-0.025-0.086-0.052-0.17-0.028-0.084-0.029-0.084-0.03-0.084-0.031-0.083-0.031-0.082-0.033-0.082-0.034-0.082-0.035-0.081-0.036-0.081-0.037-0.081-0.038-0.08-0.039-0.079-0.04-0.079-0.041-0.078-0.042-0.078-0.043-0.077-0.044-0.077-0.045-0.077-0.045-0.075-0.047-0.076-0.048-0.075-0.049-0.074-0.049-0.073-0.05-0.073-0.052-0.073-0.052-0.072-0.053-0.071-0.054-0.071-0.055-0.07-0.056-0.07-0.057-0.069-0.057-0.067-0.059-0.068-0.059-0.067-0.06-0.066-0.061-0.066-0.061-0.065-0.063-0.064-0.064-0.064-0.064-0.062-0.065-0.063-0.066-0.061-0.066-0.06-0.068-0.06-0.136-0.118-0.07-0.057-0.071-0.057-0.071-0.056-0.071-0.055-0.073-0.055-0.073-0.054-0.074-0.052-0.075-0.052-0.075-0.051-0.076-0.051-0.077-0.049-0.077-0.048-0.078-0.048-0.078-0.047-0.079-0.046-0.081-0.045-0.08-0.044-0.082-0.044-0.081-0.042-0.082-0.041-0.083-0.04-0.084-0.04-0.084-0.039-0.17-0.074-0.085-0.036-0.087-0.034-0.086-0.034-0.088-0.033-0.088-0.032-0.088-0.03-0.089-0.03-0.089-0.028-0.091-0.028-0.09-0.027-0.09-0.025-0.092-0.025-0.092-0.024-0.092-0.022-0.093-0.021-0.093-0.02-0.094-0.019-0.094-0.018-0.094-0.017-0.096-0.016-0.096-0.015-0.095-0.014-0.096-0.012-0.097-0.011-0.097-0.01-0.098-9e-3 -0.098-8e-3 -0.098-7e-3 -0.198-0.01-0.099-3e-3 -0.101-1e-3 -0.1-1e-3 -0.1 1e-3z" fill="#4bff3d"/></g><g transform="matrix(.94409 0 0 .94409 129.22 32.198)"><ellipse cx="307.52" cy="590.75" rx="10.284" ry="9.94" fill="#acfb9f"/><path d="m307.66 580.81 0.132 2e-3 0.132 4e-3 0.132 6e-3 0.131 7e-3 0.131 9e-3 0.13 0.01 0.13 0.012 0.129 0.014 0.129 0.015 0.128 0.016 0.128 0.018 0.128 0.02 0.126 0.021 0.127 0.023 0.125 0.024 0.126 0.025 0.248 0.056 0.124 0.03 0.123 0.031 0.122 0.033 0.122 0.034 0.121 0.036 0.12 0.037 0.12 0.038 0.119 0.04 0.118 0.041 0.118 0.043 0.117 0.044 0.117 0.045 0.115 0.046 0.115 0.048 0.115 0.049 0.113 0.051 0.113 0.052 0.112 0.053 0.111 0.054 0.111 0.055 0.109 0.057 0.109 0.058 0.216 0.12 0.106 0.062 0.106 0.063 0.104 0.064 0.104 0.065 0.103 0.066 0.102 0.068 0.102 0.069 0.1 0.07 0.099 0.071 0.099 0.072 0.098 0.073 0.096 0.074 0.096 0.076 0.095 0.076 0.094 0.078 0.184 0.158 0.091 0.081 0.09 0.082 0.089 0.083 0.088 0.084 0.086 0.084 0.086 0.086 0.085 0.087 0.083 0.088 0.083 0.089 0.081 0.089 0.08 0.091 0.158 0.184 0.152 0.188 0.075 0.095 0.073 0.096 0.073 0.097 0.071 0.098 0.07 0.099 0.136 0.2 0.066 0.101 0.065 0.102 0.064 0.103 0.063 0.104 0.061 0.104 0.06 0.106 0.059 0.106 0.057 0.106 0.056 0.108 0.055 0.108 0.054 0.109 0.052 0.11 0.051 0.11 0.049 0.111 0.049 0.112 0.092 0.226 0.044 0.114 0.042 0.114 0.041 0.115 0.04 0.116 0.038 0.116 0.037 0.117 0.036 0.118 0.034 0.118 0.032 0.119 0.031 0.119 0.03 0.12 0.028 0.121 0.026 0.121 0.025 0.121 0.023 0.122 0.022 0.123 0.021 0.123 0.018 0.124 0.017 0.124 0.016 0.124 0.014 0.125 0.012 0.126 0.011 0.126 9e-3 0.126 8e-3 0.127 6e-3 0.127 4e-3 0.128 2e-3 0.128 1e-3 0.128-1e-3 0.128-2e-3 0.128-4e-3 0.128-6e-3 0.127-8e-3 0.127-9e-3 0.126-0.011 0.126-0.012 0.126-0.014 0.125-0.016 0.124-0.017 0.124-0.018 0.124-0.021 0.123-0.022 0.123-0.023 0.122-0.025 0.121-0.026 0.121-0.028 0.121-0.03 0.12-0.031 0.119-0.032 0.119-0.034 0.118-0.036 0.118-0.037 0.117-0.038 0.116-0.04 0.116-0.041 0.115-0.042 0.114-0.044 0.114-0.092 0.226-0.049 0.112-0.049 0.111-0.051 0.11-0.052 0.11-0.054 0.109-0.055 0.108-0.056 0.108-0.057 0.107-0.059 0.106-0.06 0.105-0.061 0.104-0.063 0.104-0.064 0.103-0.065 0.102-0.066 0.101-0.068 0.101-0.068 0.099-0.07 0.099-0.071 0.098-0.073 0.097-0.073 0.096-0.075 0.095-0.152 0.188-0.158 0.184-0.08 0.091-0.081 0.089-0.083 0.089-0.083 0.088-0.085 0.087-0.086 0.086-0.086 0.084-0.088 0.084-0.089 0.083-0.09 0.082-0.091 0.081-0.184 0.158-0.094 0.078-0.095 0.076-0.096 0.076-0.096 0.074-0.098 0.073-0.099 0.072-0.099 0.071-0.1 0.07-0.102 0.069-0.102 0.068-0.103 0.066-0.104 0.065-0.104 0.064-0.106 0.063-0.106 0.062-0.108 0.061-0.108 0.059-0.109 0.058-0.109 0.057-0.111 0.055-0.111 0.054-0.112 0.053-0.113 0.052-0.113 0.051-0.115 0.049-0.115 0.048-0.115 0.046-0.117 0.045-0.117 0.044-0.118 0.043-0.118 0.041-0.119 0.04-0.12 0.038-0.12 0.037-0.121 0.036-0.122 0.034-0.122 0.033-0.123 0.031-0.124 0.03-0.124 0.029-0.124 0.027-0.126 0.025-0.125 0.024-0.127 0.023-0.126 0.021-0.128 0.02-0.128 0.018-0.128 0.016-0.129 0.015-0.129 0.014-0.13 0.012-0.13 0.01-0.131 9e-3 -0.131 7e-3 -0.132 6e-3 -0.132 4e-3 -0.132 2e-3 -0.133 1e-3 -0.133-1e-3 -0.132-2e-3 -0.132-4e-3 -0.132-6e-3 -0.131-7e-3 -0.131-9e-3 -0.13-0.01-0.13-0.012-0.129-0.014-0.129-0.015-0.128-0.016-0.128-0.018-0.128-0.02-0.127-0.021-0.126-0.023-0.126-0.024-0.125-0.025-0.124-0.027-0.124-0.029-0.124-0.03-0.123-0.031-0.122-0.033-0.122-0.034-0.121-0.036-0.12-0.037-0.12-0.038-0.119-0.04-0.119-0.041-0.117-0.043-0.117-0.044-0.117-0.045-0.116-0.046-0.114-0.048-0.115-0.049-0.113-0.051-0.113-0.052-0.112-0.053-0.111-0.054-0.111-0.055-0.109-0.057-0.109-0.058-0.108-0.059-0.108-0.061-0.106-0.062-0.106-0.063-0.104-0.064-0.104-0.065-0.103-0.066-0.103-0.068-0.101-0.069-0.1-0.07-0.1-0.071-0.098-0.072-0.098-0.073-0.096-0.074-0.096-0.076-0.095-0.076-0.094-0.078-0.093-0.079-0.091-0.079-0.091-0.081-0.09-0.082-0.089-0.083-0.088-0.084-0.086-0.084-0.086-0.086-0.085-0.087-0.083-0.088-0.083-0.089-0.081-0.089-0.08-0.091-0.08-0.092-0.078-0.092-0.077-0.094-0.075-0.094-0.075-0.095-0.073-0.096-0.073-0.097-0.071-0.098-0.07-0.099-0.069-0.099-0.067-0.101-0.066-0.101-0.065-0.102-0.064-0.103-0.063-0.104-0.061-0.104-0.06-0.105-0.059-0.106-0.057-0.107-0.057-0.108-0.054-0.108-0.054-0.109-0.052-0.11-0.051-0.11-0.05-0.111-0.048-0.112-0.092-0.226-0.044-0.114-0.042-0.114-0.041-0.115-0.04-0.116-0.039-0.116-0.036-0.117-0.036-0.118-0.034-0.118-0.032-0.119-0.031-0.119-0.03-0.12-0.028-0.121-0.026-0.121-0.025-0.121-0.023-0.122-0.022-0.123-0.021-0.123-0.036-0.248-0.015-0.124-0.014-0.125-0.012-0.126-0.011-0.126-9e-3 -0.126-8e-3 -0.127-6e-3 -0.127-4e-3 -0.128-2e-3 -0.128-1e-3 -0.128 1e-3 -0.128 2e-3 -0.128 4e-3 -0.128 6e-3 -0.127 8e-3 -0.127 9e-3 -0.126 0.011-0.126 0.012-0.126 0.014-0.125 0.015-0.124 0.036-0.248 0.021-0.123 0.022-0.123 0.023-0.122 0.025-0.121 0.026-0.121 0.028-0.121 0.03-0.12 0.031-0.119 0.032-0.119 0.034-0.118 0.036-0.118 0.036-0.117 0.039-0.116 0.04-0.116 0.041-0.115 0.042-0.114 0.044-0.114 0.092-0.226 0.048-0.112 0.05-0.111 0.051-0.11 0.052-0.11 0.054-0.109 0.054-0.108 0.057-0.108 0.057-0.106 0.059-0.106 0.06-0.106 0.061-0.104 0.063-0.104 0.064-0.103 0.065-0.102 0.066-0.101 0.067-0.1 0.069-0.1 0.07-0.099 0.071-0.098 0.073-0.097 0.073-0.096 0.075-0.095 0.075-0.094 0.077-0.094 0.078-0.092 0.08-0.092 0.08-0.091 0.081-0.089 0.083-0.089 0.083-0.088 0.085-0.087 0.086-0.086 0.086-0.084 0.088-0.084 0.089-0.083 0.09-0.082 0.091-0.081 0.091-0.079 0.093-0.079 0.094-0.078 0.095-0.076 0.096-0.076 0.096-0.074 0.098-0.073 0.098-0.072 0.1-0.071 0.1-0.07 0.101-0.069 0.103-0.068 0.103-0.066 0.104-0.065 0.104-0.064 0.106-0.063 0.106-0.062 0.216-0.12 0.109-0.058 0.109-0.057 0.111-0.055 0.111-0.054 0.112-0.053 0.113-0.052 0.113-0.051 0.115-0.049 0.114-0.048 0.116-0.046 0.117-0.045 0.117-0.044 0.117-0.043 0.119-0.041 0.119-0.04 0.12-0.038 0.12-0.037 0.121-0.036 0.122-0.034 0.122-0.033 0.123-0.031 0.124-0.03 0.248-0.056 0.125-0.025 0.126-0.024 0.126-0.023 0.127-0.021 0.128-0.02 0.128-0.018 0.128-0.016 0.129-0.015 0.129-0.014 0.13-0.012 0.13-0.01 0.131-9e-3 0.131-7e-3 0.132-6e-3 0.132-4e-3 0.132-2e-3 0.133-1e-3 0.133 1e-3zm-0.233 2.648-0.101 1e-3 -0.1 3e-3 -0.098 5e-3 -0.099 5e-3 -0.098 7e-3 -0.098 8e-3 -0.098 9e-3 -0.097 0.01-0.097 0.011-0.096 0.012-0.095 0.014-0.096 0.015-0.096 0.016-0.094 0.017-0.094 0.018-0.094 0.019-0.093 0.02-0.093 0.021-0.092 0.022-0.092 0.024-0.092 0.025-0.09 0.025-0.09 0.027-0.091 0.028-0.09 0.028-0.176 0.06-0.088 0.032-0.088 0.033-0.086 0.034-0.087 0.034-0.086 0.036-0.084 0.037-0.085 0.037-0.084 0.039-0.084 0.04-0.083 0.04-0.082 0.041-0.082 0.042-0.081 0.044-0.08 0.044-0.081 0.045-0.079 0.046-0.156 0.094-0.078 0.049-0.076 0.049-0.076 0.051-0.075 0.051-0.075 0.052-0.074 0.052-0.073 0.054-0.073 0.055-0.071 0.055-0.071 0.056-0.071 0.057-0.07 0.057-0.069 0.059-0.068 0.059-0.067 0.06-0.066 0.06-0.066 0.062-0.065 0.062-0.064 0.062-0.064 0.064-0.063 0.064-0.061 0.065-0.061 0.066-0.06 0.065-0.118 0.136-0.058 0.068-0.056 0.068-0.056 0.07-0.055 0.07-0.054 0.071-0.053 0.071-0.104 0.144-0.05 0.074-0.049 0.073-0.049 0.074-0.048 0.075-0.047 0.076-0.045 0.075-0.045 0.077-0.044 0.077-0.043 0.077-0.042 0.078-0.041 0.078-0.04 0.079-0.039 0.08-0.038 0.079-0.037 0.081-0.036 0.081-0.035 0.081-0.034 0.081-0.033 0.083-0.032 0.083-0.031 0.083-0.029 0.083-0.029 0.084-0.028 0.084-0.027 0.085-0.025 0.085-0.025 0.086-0.046 0.172-0.021 0.087-0.02 0.088-0.02 0.087-0.018 0.088-0.017 0.088-0.03 0.178-0.014 0.09-0.012 0.089-0.011 0.091-0.01 0.09-9e-3 0.092-8e-3 0.091-7e-3 0.092-0.01 0.184-3e-3 0.093-2e-3 0.094v0.093 0.094l2e-3 0.093 3e-3 0.093 5e-3 0.092 5e-3 0.093 7e-3 0.091 8e-3 0.092 9e-3 0.091 0.01 0.091 0.011 0.09 0.012 0.09 0.014 0.089 0.03 0.178 0.017 0.088 0.018 0.088 0.02 0.088 0.02 0.087 0.021 0.087 0.046 0.172 0.025 0.086 0.025 0.085 0.027 0.085 0.028 0.084 0.029 0.084 0.029 0.083 0.031 0.083 0.032 0.083 0.033 0.083 0.034 0.081 0.035 0.082 0.036 0.08 0.037 0.081 0.038 0.079 0.039 0.08 0.04 0.079 0.041 0.078 0.042 0.078 0.043 0.077 0.044 0.078 0.045 0.076 0.046 0.076 0.046 0.075 0.048 0.075 0.048 0.074 0.05 0.074 0.051 0.073 0.051 0.072 0.052 0.072 0.053 0.071 0.054 0.071 0.055 0.07 0.056 0.07 0.056 0.068 0.058 0.068 0.118 0.136 0.06 0.066 0.122 0.13 0.063 0.064 0.064 0.064 0.064 0.062 0.065 0.062 0.066 0.062 0.066 0.06 0.067 0.06 0.068 0.059 0.07 0.059 0.069 0.057 0.07 0.057 0.072 0.056 0.071 0.056 0.073 0.054 0.073 0.053 0.074 0.053 0.075 0.052 0.075 0.051 0.076 0.051 0.076 0.049 0.078 0.049 0.078 0.048 0.078 0.046 0.079 0.046 0.081 0.045 0.08 0.044 0.081 0.044 0.082 0.042 0.082 0.041 0.083 0.041 0.168 0.078 0.085 0.038 0.084 0.036 0.086 0.036 0.087 0.034 0.086 0.034 0.088 0.033 0.088 0.032 0.176 0.06 0.09 0.029 0.091 0.027 0.09 0.027 0.182 0.05 0.184 0.046 0.093 0.021 0.093 0.02 0.094 0.02 0.094 0.018 0.095 0.017 0.19 0.03 0.096 0.014 0.096 0.012 0.194 0.022 0.098 9e-3 0.196 0.014 0.198 0.01 0.099 3e-3 0.1 2e-3h0.101 0.101l0.1-2e-3 0.099-3e-3 0.198-0.01 0.196-0.014 0.098-9e-3 0.194-0.022 0.096-0.012 0.096-0.014 0.19-0.03 0.095-0.017 0.094-0.018 0.094-0.02 0.093-0.02 0.093-0.021 0.184-0.046 0.182-0.05 0.09-0.027 0.091-0.027 0.089-0.029 0.089-0.03 0.088-0.03 0.088-0.032 0.088-0.033 0.086-0.034 0.087-0.034 0.17-0.072 0.085-0.038 0.168-0.078 0.083-0.041 0.082-0.041 0.081-0.042 0.082-0.044 0.08-0.044 0.081-0.045 0.079-0.046 0.156-0.094 0.154-0.098 0.076-0.051 0.075-0.051 0.075-0.052 0.074-0.053 0.073-0.053 0.072-0.054 0.144-0.112 0.07-0.057 0.069-0.057 0.07-0.059 0.067-0.058 0.068-0.061 0.067-0.06 0.13-0.124 0.064-0.062 0.064-0.064 0.063-0.064 0.122-0.13 0.06-0.067 0.118-0.134 0.057-0.068 0.057-0.069 0.056-0.07 0.055-0.07 0.054-0.071 0.053-0.071 0.052-0.072 0.051-0.072 0.051-0.074 0.05-0.073 0.048-0.074 0.048-0.075 0.046-0.075 0.046-0.076 0.045-0.076 0.044-0.077 0.043-0.078 0.042-0.078 0.041-0.078 0.04-0.079 0.039-0.079 0.038-0.08 0.037-0.081 0.036-0.08 0.035-0.082 0.034-0.082 0.033-0.082 0.031-0.082 0.031-0.084 0.03-0.083 0.029-0.084 0.028-0.084 0.027-0.085 0.025-0.085 0.025-0.086 0.046-0.172 0.021-0.087 0.02-0.087 0.019-0.088 0.018-0.088 0.017-0.088 0.016-0.089 0.015-0.089 0.014-0.089 0.012-0.09 0.011-0.091 0.01-0.09 9e-3 -0.091 8e-3 -0.091 7e-3 -0.093 5e-3 -0.092 4e-3 -0.092 4e-3 -0.093 1e-3 -0.093 1e-3 -0.094-1e-3 -0.094-1e-3 -0.093-4e-3 -0.093-4e-3 -0.092-5e-3 -0.092-7e-3 -0.092-8e-3 -0.092-9e-3 -0.091-0.01-0.09-0.011-0.09-0.012-0.09-0.014-0.09-0.015-0.089-0.016-0.089-0.017-0.088-0.018-0.088-0.019-0.088-0.02-0.087-0.021-0.087-0.046-0.172-0.025-0.086-0.052-0.17-0.028-0.084-0.029-0.084-0.03-0.083-0.031-0.084-0.031-0.082-0.033-0.082-0.034-0.082-0.035-0.081-0.036-0.081-0.037-0.081-0.038-0.08-0.039-0.079-0.04-0.078-0.041-0.079-0.042-0.078-0.043-0.078-0.044-0.076-0.045-0.077-0.045-0.075-0.047-0.076-0.048-0.075-0.049-0.074-0.049-0.073-0.05-0.073-0.052-0.073-0.052-0.072-0.053-0.071-0.054-0.071-0.055-0.07-0.056-0.07-0.057-0.069-0.057-0.068-0.118-0.134-0.06-0.066-0.061-0.066-0.061-0.065-0.063-0.064-0.064-0.064-0.064-0.062-0.13-0.124-0.067-0.06-0.068-0.06-0.067-0.059-0.069-0.059-0.07-0.057-0.071-0.057-0.071-0.056-0.071-0.055-0.073-0.055-0.073-0.054-0.074-0.052-0.075-0.052-0.075-0.051-0.076-0.05-0.077-0.05-0.077-0.049-0.156-0.094-0.079-0.046-0.081-0.045-0.08-0.044-0.082-0.044-0.081-0.042-0.082-0.041-0.083-0.04-0.084-0.04-0.084-0.039-0.17-0.074-0.085-0.036-0.087-0.034-0.086-0.034-0.088-0.033-0.088-0.032-0.088-0.03-0.089-0.03-0.089-0.028-0.091-0.028-0.09-0.027-0.09-0.025-0.092-0.025-0.092-0.024-0.092-0.022-0.093-0.021-0.093-0.02-0.188-0.038-0.094-0.016-0.096-0.016-0.096-0.015-0.095-0.014-0.096-0.012-0.097-0.011-0.097-0.01-0.098-9e-3 -0.098-8e-3 -0.098-7e-3 -0.198-0.01-0.099-3e-3 -0.101-1e-3 -0.1-1e-3 -0.1 1e-3z" fill="#4bff3d"/></g></svg>
