<svg xmlns="http://www.w3.org/2000/svg" viewBox="0 0 1600 1437.5" height="1437.5" width="1600"><defs><clipPath id="a"><path d="M475.432 137.125h310.264V103.64H475.43v33.485z" clip-rule="evenodd"/></clipPath><linearGradient id="b" gradientTransform="matrix(1 0 0 -1 0 1150)" gradientUnits="userSpaceOnUse" y2="1007.239" x2="698.781" y1="1046.792" x1="698.464"><stop offset="0" stop-color="#fff"/><stop offset="1"/></linearGradient><clipPath id="c"><path d="M495.921 1008.413h28.794l1.603 39.963-30.397-39.963z" clip-rule="evenodd"/></clipPath><linearGradient id="d" gradientTransform="matrix(1 0 0 -1 0 1150)" gradientUnits="userSpaceOnUse" y2="75.429" x2="496.258" y1="148.919" x1="532.663"><stop offset="0" stop-color="#fff"/><stop offset="1"/></linearGradient><clipPath id="e"><path d="M724.334 1008.405h34.494l-39.484 40.023 4.99-40.023z" clip-rule="evenodd"/></clipPath><linearGradient id="f" gradientTransform="matrix(1 0 0 -1 0 1150)" gradientUnits="userSpaceOnUse" y2="82.135" x2="741.808" y1="152.377" x1="715.935"><stop offset="0" stop-color="#fff"/><stop offset="1"/></linearGradient><clipPath id="g"><path d="M524.777 1008.417h199.6l-4.991 39.914H526.331l-1.554-39.914z" clip-rule="evenodd"/></clipPath><linearGradient id="h" gradientTransform="matrix(1 0 0 -1 0 1150)" gradientUnits="userSpaceOnUse" y2="57.163" x2="616.664" y1="145.311" x1="612.643"><stop offset="0" stop-color="#fff"/><stop offset="1"/></linearGradient></defs><g clip-path="url(#a)" transform="matrix(1.25 0 0 -1.25 0 1437.5)"><path d="M475.432 137.125h310.264V103.64H475.43v33.485z" fill="url(#b)" fill-rule="evenodd"/></g><path d="M596.223 265.58H980.51v999.376H596.223V265.58zM609.693 176.191l-13.47 89.389H981.06l-22.956-89.389-55.111-57.666h-248.32l-44.981 57.666z" fill="#ebebeb" fill-rule="evenodd" stroke="#000" stroke-width="4.375" stroke-linecap="round" stroke-linejoin="round" stroke-miterlimit="1.414"/><g clip-path="url(#c)" transform="matrix(1.25 0 0 -1.25 0 1437.5)"><path d="M495.921 1008.413h28.794l1.603 39.963-30.397-39.963z" fill="url(#d)" fill-rule="evenodd"/></g><path d="M619.901 176.983h35.992l2.005-49.953-37.997 49.953z" fill="none" stroke="#000" stroke-width=".625" stroke-linecap="round" stroke-linejoin="round" stroke-miterlimit="1.414"/><g clip-path="url(#e)" transform="matrix(1.25 0 0 -1.25 0 1437.5)"><path d="M724.334 1008.405h34.494l-39.484 40.023 4.99-40.023z" fill="url(#f)" fill-rule="evenodd"/></g><path d="M905.418 176.994h43.117l-49.354-50.03 6.237 50.03z" fill="none" stroke="#000" stroke-width=".625" stroke-linecap="round" stroke-linejoin="round" stroke-miterlimit="1.414"/><g clip-path="url(#g)" transform="matrix(1.25 0 0 -1.25 0 1437.5)"><path d="M524.777 1008.417h199.6l-4.991 39.914H526.331l-1.554-39.914z" fill="url(#h)" fill-rule="evenodd"/></g><g><path d="M655.971 176.98h249.5l-6.239-49.893H657.913l-1.942 49.892z" fill="none" stroke="#000" stroke-width=".625" stroke-linecap="round" stroke-linejoin="round" stroke-miterlimit="1.414"/></g></svg>