<svg xmlns="http://www.w3.org/2000/svg" viewBox="0 0 1600 1437.5" height="1437.5" width="1600"><g stroke="#666" stroke-miterlimit="10"><path d="M998.984 305.783c0-15.652-12.707-28.36-28.358-28.36h-339.27c-15.651 0-28.358 12.708-28.358 28.36v895.498c0 15.652 12.707 28.358 28.358 28.358h339.27c15.652 0 28.358-12.706 28.358-28.358V305.783z" fill="#fff" fill-rule="evenodd" stroke-width="1.25"/><path d="M930.597 276.795h41.018v-1.337c-13.556-1.135-27.221-1.21-41.017 0v1.337z" fill="#ccc" fill-rule="evenodd" stroke-width="1.25"/><path d="M927.934 275.457v-1.55a215.619 215.619 0 0 1 45.961 0v1.55c-15.156-1.307-30.478-1.297-45.961 0z" fill="#ccc" fill-rule="evenodd" stroke-width="1.25"/><path d="M927.934 263.91c1.02-2.999 44.371-2.786 45.961 0v10.164c-14.936-1.768-30.223-1.885-45.961 0V263.91z" fill="#ccc" fill-rule="evenodd" stroke-width="1.25"/><path d="M939.325 234.985c7.754-.82 15.505-.872 23.251 0v27.219c-7.783-.77-15.528-.649-23.251 0v-27.219z" fill="#ccc" fill-rule="evenodd" stroke-width="1.25"/><path d="M937.271 240.368c8.39-1.677 17.417-1.65 26.602-1.202M937.446 243.574c8.389-1.678 17.416-1.65 26.601-1.203M937.49 246.731c8.39-1.676 17.416-1.65 26.601-1.201M937.561 250.025c8.389-1.676 17.416-1.65 26.601-1.201M937.419 253.185c8.39-1.678 17.417-1.65 26.601-1.203M937.416 256.537c8.39-1.676 17.416-1.65 26.601-1.2M937.346 259.564c8.389-1.676 17.416-1.65 26.601-1.201" fill="none" stroke-width="1.875"/><path d="M635.05 277.027h41.019v-1.337c-13.556-1.135-27.221-1.209-41.019 0v1.337z" fill="#ccc" fill-rule="evenodd" stroke-width="1.25"/><path d="M632.388 275.69v-1.551a215.607 215.607 0 0 1 45.96 0v1.551c-15.155-1.309-30.478-1.297-45.96 0z" fill="#ccc" fill-rule="evenodd" stroke-width="1.25"/><path d="M632.388 264.141c1.018-2.997 44.37-2.785 45.96 0v10.165c-14.937-1.767-30.223-1.886-45.96 0v-10.165z" fill="#ccc" fill-rule="evenodd" stroke-width="1.25"/><path d="M643.779 235.217c7.754-.82 15.504-.872 23.25 0v27.22c-7.784-.772-15.529-.65-23.25 0v-27.22z" fill="#ccc" fill-rule="evenodd" stroke-width="1.25"/><path d="M641.724 240.6c8.39-1.676 17.416-1.65 26.601-1.201M641.899 243.805c8.39-1.676 17.416-1.65 26.601-1.201M641.942 246.964c8.39-1.678 17.417-1.65 26.602-1.203M642.014 250.257c8.39-1.676 17.416-1.65 26.601-1.2M641.873 253.416c8.388-1.676 17.416-1.65 26.6-1.201M641.87 256.77c8.389-1.678 17.416-1.65 26.601-1.202M641.799 259.796c8.39-1.677 17.416-1.65 26.601-1.202" fill="none" stroke-width="1.875"/><path d="M634.652 278.454v430.504l50.393 519.73M970.78 278.186v433.769l-54.432 517.425M657.92 278.186v18.211l31.793 302.02c1.887 18.304 11.136 28.06 30.186 26.433h168.066c16.442-.71 28.127-6.956 28.44-26.434l32.102-302.019v-18.21" fill="none" stroke-width="1.25"/><path d="M834.539 808.601a2.702 2.702 0 0 0-2.702-2.701H776.2a2.702 2.702 0 0 0-2.701 2.701v5.404a2.702 2.702 0 0 0 2.701 2.701h55.637a2.702 2.702 0 0 0 2.702-2.701v-5.404z" fill="#197ae6" fill-rule="evenodd" stroke-width="1.25"/></g></svg>