<?xml version="1.0" encoding="UTF-8"?>
<!DOCTYPE svg  PUBLIC '-//W3C//DTD SVG 1.1//EN'  'http://www.w3.org/Graphics/SVG/1.1/DTD/svg11.dtd'>
<svg clip-rule="evenodd" fill-rule="evenodd" stroke-linecap="round" stroke-linejoin="round" stroke-miterlimit="1.4142" version="1.1" viewBox="0 0 1280 1150" xmlns="http://www.w3.org/2000/svg"><g id="Antennen-Kupplungen"><g id="AntennenKupplung" transform="translate(552.64 184.79)"><path d="m387.1 81.357h46.652v-1.521c-15.418-1.292-30.96-1.375-46.652 0v1.521z" fill="#efd800" stroke="#666" stroke-width="1px"/><path d="m384.08 79.836v-1.764c17.517-1.87 34.941-1.856 52.274 0v1.764c-17.238-1.488-34.664-1.476-52.274 0z" fill="#efd800" stroke="#666" stroke-width="1px"/><path d="m384.08 66.701c1.159-3.409 50.465-3.168 52.274 0v11.561c-16.989-2.01-34.374-2.144-52.274 0v-11.561z" fill="#efd800" stroke="#666" stroke-width="1px"/><rect x="397.03" y="32.811" width="26.445" height="31.95" fill="#efd800" stroke="#666" stroke-width="1px"/><path d="m394.7 39.926c9.542-1.907 19.808-1.876 30.255-1.366" fill="none" stroke="#666" stroke-width="1.5px"/><g transform="translate(.19842 3.6457)"><path d="m394.7 39.926c9.542-1.907 19.808-1.876 30.255-1.366" fill="none" stroke="#666" stroke-width="1.5px"/></g><g transform="translate(.24877 7.237)"><path d="m394.7 39.926c9.542-1.907 19.808-1.876 30.255-1.366" fill="none" stroke="#666" stroke-width="1.5px"/></g><g transform="translate(.32929 10.984)"><path d="m394.7 39.926c9.542-1.907 19.808-1.876 30.255-1.366" fill="none" stroke="#666" stroke-width="1.5px"/></g><g transform="translate(.16826 14.577)"><path d="m394.7 39.926c9.542-1.907 19.808-1.876 30.255-1.366" fill="none" stroke="#666" stroke-width="1.5px"/></g><g transform="translate(.16525 18.39)"><path d="m394.7 39.926c9.542-1.907 19.808-1.876 30.255-1.366" fill="none" stroke="#666" stroke-width="1.5px"/></g><g transform="translate(.084734 21.832)"><path d="m394.7 39.926c9.542-1.907 19.808-1.876 30.255-1.366" fill="none" stroke="#666" stroke-width="1.5px"/></g></g><g id="AntennenKupplung1" transform="translate(345.71 183.65)"><path d="m387.1 81.357h46.652v-1.521c-15.418-1.292-30.96-1.375-46.652 0v1.521z" fill="#efd800" stroke="#666" stroke-width="1px"/><path d="m384.08 79.836v-1.764c17.517-1.87 34.941-1.856 52.274 0v1.764c-17.238-1.488-34.664-1.476-52.274 0z" fill="#efd800" stroke="#666" stroke-width="1px"/><path d="m384.08 66.701c1.159-3.409 50.465-3.168 52.274 0v11.561c-16.989-2.01-34.374-2.144-52.274 0v-11.561z" fill="#efd800" stroke="#666" stroke-width="1px"/><rect x="397.03" y="32.811" width="26.445" height="31.95" fill="#efd800" stroke="#666" stroke-width="1px"/><path d="m394.7 39.926c9.542-1.907 19.808-1.876 30.255-1.366" fill="none" stroke="#666" stroke-width="1.5px"/><g transform="translate(.19842 3.6457)"><path d="m394.7 39.926c9.542-1.907 19.808-1.876 30.255-1.366" fill="none" stroke="#666" stroke-width="1.5px"/></g><g transform="translate(.24877 7.237)"><path d="m394.7 39.926c9.542-1.907 19.808-1.876 30.255-1.366" fill="none" stroke="#666" stroke-width="1.5px"/></g><g transform="translate(.32929 10.984)"><path d="m394.7 39.926c9.542-1.907 19.808-1.876 30.255-1.366" fill="none" stroke="#666" stroke-width="1.5px"/></g><g transform="translate(.16826 14.577)"><path d="m394.7 39.926c9.542-1.907 19.808-1.876 30.255-1.366" fill="none" stroke="#666" stroke-width="1.5px"/></g><g transform="translate(.16525 18.39)"><path d="m394.7 39.926c9.542-1.907 19.808-1.876 30.255-1.366" fill="none" stroke="#666" stroke-width="1.5px"/></g><g transform="translate(.084734 21.832)"><path d="m394.7 39.926c9.542-1.907 19.808-1.876 30.255-1.366" fill="none" stroke="#666" stroke-width="1.5px"/></g></g><g id="AntennenKupplung2" transform="translate(210.03 .4177)"><path d="m387.1 81.357h46.652v-1.521c-15.418-1.292-30.96-1.375-46.652 0v1.521z" fill="#efd800" stroke="#666" stroke-width="1px"/><path d="m384.08 79.836v-1.764c17.517-1.87 34.941-1.856 52.274 0v1.764c-17.238-1.488-34.664-1.476-52.274 0z" fill="#efd800" stroke="#666" stroke-width="1px"/><path d="m384.08 66.701c1.159-3.409 50.465-3.168 52.274 0v11.561c-16.989-2.01-34.374-2.144-52.274 0v-11.561z" fill="#efd800" stroke="#666" stroke-width="1px"/><rect x="397.03" y="32.811" width="26.445" height="31.95" fill="#efd800" stroke="#666" stroke-width="1px"/><path d="m394.7 39.926c9.542-1.907 19.808-1.876 30.255-1.366" fill="none" stroke="#666" stroke-width="1.5px"/><g transform="translate(.19842 3.6457)"><path d="m394.7 39.926c9.542-1.907 19.808-1.876 30.255-1.366" fill="none" stroke="#666" stroke-width="1.5px"/></g><g transform="translate(.24877 7.237)"><path d="m394.7 39.926c9.542-1.907 19.808-1.876 30.255-1.366" fill="none" stroke="#666" stroke-width="1.5px"/></g><g transform="translate(.32929 10.984)"><path d="m394.7 39.926c9.542-1.907 19.808-1.876 30.255-1.366" fill="none" stroke="#666" stroke-width="1.5px"/></g><g transform="translate(.16826 14.577)"><path d="m394.7 39.926c9.542-1.907 19.808-1.876 30.255-1.366" fill="none" stroke="#666" stroke-width="1.5px"/></g><g transform="translate(.16525 18.39)"><path d="m394.7 39.926c9.542-1.907 19.808-1.876 30.255-1.366" fill="none" stroke="#666" stroke-width="1.5px"/></g><g transform="translate(.084734 21.832)"><path d="m394.7 39.926c9.542-1.907 19.808-1.876 30.255-1.366" fill="none" stroke="#666" stroke-width="1.5px"/></g></g><g id="AntennenKupplung3" transform="translate(-.4538 .057071)"><path d="m387.1 81.357h46.652v-1.521c-15.418-1.292-30.96-1.375-46.652 0v1.521z" fill="#efd800" stroke="#666" stroke-width="1px"/><path d="m384.08 79.836v-1.764c17.517-1.87 34.941-1.856 52.274 0v1.764c-17.238-1.488-34.664-1.476-52.274 0z" fill="#efd800" stroke="#666" stroke-width="1px"/><path d="m384.08 66.701c1.159-3.409 50.465-3.168 52.274 0v11.561c-16.989-2.01-34.374-2.144-52.274 0v-11.561z" fill="#efd800" stroke="#666" stroke-width="1px"/><rect x="397.03" y="32.811" width="26.445" height="31.95" fill="#efd800" stroke="#666" stroke-width="1px"/><path d="m394.7 39.926c9.542-1.907 19.808-1.876 30.255-1.366" fill="none" stroke="#666" stroke-width="1.5px"/><g transform="translate(.19842 3.6457)"><path d="m394.7 39.926c9.542-1.907 19.808-1.876 30.255-1.366" fill="none" stroke="#666" stroke-width="1.5px"/></g><g transform="translate(.24877 7.237)"><path d="m394.7 39.926c9.542-1.907 19.808-1.876 30.255-1.366" fill="none" stroke="#666" stroke-width="1.5px"/></g><g transform="translate(.32929 10.984)"><path d="m394.7 39.926c9.542-1.907 19.808-1.876 30.255-1.366" fill="none" stroke="#666" stroke-width="1.5px"/></g><g transform="translate(.16826 14.577)"><path d="m394.7 39.926c9.542-1.907 19.808-1.876 30.255-1.366" fill="none" stroke="#666" stroke-width="1.5px"/></g><g transform="translate(.16525 18.39)"><path d="m394.7 39.926c9.542-1.907 19.808-1.876 30.255-1.366" fill="none" stroke="#666" stroke-width="1.5px"/></g><g transform="translate(.084734 21.832)"><path d="m394.7 39.926c9.542-1.907 19.808-1.876 30.255-1.366" fill="none" stroke="#666" stroke-width="1.5px"/></g></g></g><g id="Rocket - links"><g id="Rahmen" transform="matrix(1.1144 0 0 1 -36.732 0)"><path d="m670.01 93.779c0-6.686-4.871-12.115-10.872-12.115h-327.24c-6 0-10.871 5.429-10.871 12.115v796.63c0 6.687 4.871 12.116 10.871 12.116h327.24c6.001 0 10.872-5.429 10.872-12.116v-796.63z" fill="#ececec" stroke="#666" stroke-linecap="butt" stroke-width=".94px"/></g><g id="Infoanzeige"><path id="Rahmen1" d="m542.59 300.5c0-5.027-4.081-9.108-9.108-9.108h-63.343c-5.026 0-9.107 4.081-9.107 9.108v280.06c0 5.027 4.081 9.108 9.107 9.108h63.343c5.027 0 9.108-4.081 9.108-9.108v-280.06z" fill="#fff" stroke="#000" stroke-linecap="butt" stroke-width="1px"/><g id="led"><rect x="506.29" y="314.87" width="18.506" height="10.299" fill="#444" stroke="#666" stroke-linecap="butt" stroke-width="1px"/><g transform="translate(-.36222 25.624)"><rect x="506.29" y="314.87" width="18.506" height="10.299" fill="#444" stroke="#666" stroke-linecap="butt" stroke-width="1px"/></g><g transform="translate(-.2242 52.493)"><rect x="506.29" y="314.87" width="18.506" height="10.299" fill="#444" stroke="#666" stroke-linecap="butt" stroke-width="1px"/></g><g transform="translate(-.62473 78.874)"><rect x="506.29" y="314.87" width="18.506" height="10.299" fill="#444" stroke="#666" stroke-linecap="butt" stroke-width="1px"/></g><g transform="translate(-.67486 105.53)"><rect x="506.29" y="314.87" width="18.506" height="10.299" fill="#444" stroke="#666" stroke-linecap="butt" stroke-width="1px"/></g><g transform="translate(-.098018 132.22)"><rect x="506.29" y="314.87" width="18.506" height="10.299" fill="#444" stroke="#666" stroke-linecap="butt" stroke-width="1px"/></g><g transform="translate(.45291 157.84)"><rect x="506.29" y="314.87" width="18.506" height="10.299" fill="#444" stroke="#666" stroke-linecap="butt" stroke-width="1px"/></g><g transform="translate(-.054079 185.29)"><rect x="506.29" y="314.87" width="18.506" height="10.299" fill="#444" stroke="#666" stroke-linecap="butt" stroke-width="1px"/></g><g transform="translate(-.67937 211.18)"><rect x="506.29" y="314.87" width="18.506" height="10.299" fill="#444" stroke="#666" stroke-linecap="butt" stroke-width="1px"/></g><g transform="translate(-.42925 238.04)"><rect x="506.29" y="314.87" width="18.506" height="10.299" fill="#444" stroke="#666" stroke-linecap="butt" stroke-width="1px"/></g></g><g id="Beschriftungen"><g stroke="#000" stroke-linecap="butt" stroke-width="1px"><path d="m479.34 468.7 12.798 12.966-3.227 3.082-12.862-12.929 3.291-3.119z" fill="none"/><path d="m480.87 475.76 3.248-2.957 4.14 4.32-4.14 3.6c-2.073-0.569-3.287-1.881-3.248-4.276v-0.687z"/><path d="m478.97 479.55c0.147 1.771 0.775 2.775 2.355 2.263" fill="none"/><path d="m476.21 480.08c0.574 3.006 2.194 4.364 4.354 4.719" fill="none"/></g><path d="m476.41 311.7h12.603v142.53h-1.593l-11.01-142.53z" stroke="#666" stroke-linecap="butt" stroke-width="1px"/><g id="Powerknopf" transform="matrix(1.7035 0 0 1.7035 -619.83 -494.69)"><ellipse cx="647.41" cy="617.8" rx="3.388" ry="3.046" fill="none" stroke="#737373" stroke-linecap="butt" stroke-width=".53px"/><path d="m648.44 613.78c0-0.519-0.421-0.94-0.94-0.94s-0.94 0.421-0.94 0.94v3.82c0 0.519 0.421 0.94 0.94 0.94s0.94-0.421 0.94-0.94v-3.82z" fill="#666" stroke="#fff" stroke-width=".29px"/></g><g id="Ethernet - Beschriftung" transform="matrix(1.9797 0 0 2.1141 -797.86 -736.86)"><path d="m644.22 597.17-1.944 1.932 1.944 1.946" fill="none" stroke="#666" stroke-width=".42px"/><path d="m650.24 597.17 2.026 1.932-2.026 1.97" fill="none" stroke="#666" stroke-width=".42px"/><path d="m645.04 599.41h0.448" fill="none" stroke="#666" stroke-width=".42px"/><g transform="translate(1.9716)"><path d="m645.04 599.41h0.448" fill="none" stroke="#666" stroke-width=".42px"/></g><g transform="translate(3.9777 .010644)"><path d="m645.04 599.41h0.448" fill="none" stroke="#666" stroke-width=".42px"/></g></g><g id="Ethernet - Beschriftung1" transform="matrix(1.9797 0 0 2.1141 -797.47 -763.36)"><path d="m644.22 597.17-1.944 1.932 1.944 1.946" fill="none" stroke="#666" stroke-width=".42px"/><path d="m650.24 597.17 2.026 1.932-2.026 1.97" fill="none" stroke="#666" stroke-width=".42px"/><path d="m645.04 599.41h0.448" fill="none" stroke="#666" stroke-width=".42px"/><g transform="translate(1.9716)"><path d="m645.04 599.41h0.448" fill="none" stroke="#666" stroke-width=".42px"/></g><g transform="translate(3.9777 .010644)"><path d="m645.04 599.41h0.448" fill="none" stroke="#666" stroke-width=".42px"/></g></g></g></g><g id="Innenkanten" fill="none" stroke="#000" stroke-linecap="butt" stroke-width="1px"><path d="m321.29 736.14 56.599 3.307h268.6l63.57-3.307"/><path d="m654.59 81.78v820.97"/><path d="m377.6 81.524v821.41"/></g></g><g id="Rocket - rechts"><path id="rahmen" d="m1071.6 273.5c0-4.327-3.51-7.84-7.84-7.84h-409.54c-4.327 0-7.84 3.513-7.84 7.84v817.68c0 4.33 3.513 7.84 7.84 7.84h409.54c4.33 0 7.84-3.51 7.84-7.84v-817.68z" fill="#fff" stroke="#666" stroke-linecap="butt" stroke-width="1px"/><path d="m973.9 736.47c0-6.204-5.037-11.241-11.241-11.241h-208.31c-6.205 0-11.242 5.037-11.242 11.241v36.833c0 6.205 5.037 11.242 11.242 11.242h208.31c6.204 0 11.241-5.037 11.241-11.242v-36.833z" fill="none" stroke="#666" stroke-linecap="butt" stroke-width="1px"/><g id="Powerknopf1" transform="matrix(1.7035 0 0 1.7035 -334.28 -279.02)"><ellipse cx="647.41" cy="617.8" rx="3.388" ry="3.046" fill="none" stroke="#737373" stroke-linecap="butt" stroke-width=".53px"/><path d="m648.44 613.78c0-0.519-0.421-0.94-0.94-0.94s-0.94 0.421-0.94 0.94v3.82c0 0.519 0.421 0.94 0.94 0.94s0.94-0.421 0.94-0.94v-3.82z" fill="#666" stroke="#fff" stroke-width=".29px"/></g><path d="m1071.8 848.96c-6.51 2.685-13.76 4.033-21.48 4.532-130.4 3.771-260.92 3.816-391.56 0-4.416-0.166-8.399-1.788-12.047-4.532" fill="none" stroke="#000" stroke-linecap="butt" stroke-width="1px"/><g id="led1"><g transform="translate(253.14 430.64)"><rect x="506.29" y="314.87" width="18.506" height="10.299" fill="#444" stroke="#666" stroke-linecap="butt" stroke-width="1px"/></g><g transform="translate(286.77 430.68)"><rect x="506.29" y="314.87" width="18.506" height="10.299" fill="#444" stroke="#666" stroke-linecap="butt" stroke-width="1px"/></g><g transform="translate(324.62 430.68)"><rect x="506.29" y="314.87" width="18.506" height="10.299" fill="#444" stroke="#666" stroke-linecap="butt" stroke-width="1px"/></g><g transform="translate(359.51 430.64)"><rect x="506.29" y="314.87" width="18.506" height="10.299" fill="#444" stroke="#666" stroke-linecap="butt" stroke-width="1px"/></g><g transform="translate(395.1 430.66)"><rect x="506.29" y="314.87" width="18.506" height="10.299" fill="#444" stroke="#666" stroke-linecap="butt" stroke-width="1px"/></g><g transform="translate(431.08 430.66)"><rect x="506.29" y="314.87" width="18.506" height="10.299" fill="#444" stroke="#666" stroke-linecap="butt" stroke-width="1px"/></g></g><g transform="matrix(.0042079 .99999 -.8275 .0034821 1212.6 288.58)"><path d="m476.41 311.7h12.603v142.53h-1.593l-11.01-142.53z" stroke="#666" stroke-linecap="butt" stroke-width="1.09px"/></g><g id="Ethernet - Beschriftung2" transform="matrix(1.9797 0 0 2.1141 -477.82 -493.42)"><path d="m644.22 597.17-1.944 1.932 1.944 1.946" fill="none" stroke="#666" stroke-width=".42px"/><path d="m650.24 597.17 2.026 1.932-2.026 1.97" fill="none" stroke="#666" stroke-width=".42px"/><path d="m645.04 599.41h0.448" fill="none" stroke="#666" stroke-width=".42px"/><g transform="translate(1.9716)"><path d="m645.04 599.41h0.448" fill="none" stroke="#666" stroke-width=".42px"/></g><g transform="translate(3.9777 .010644)"><path d="m645.04 599.41h0.448" fill="none" stroke="#666" stroke-width=".42px"/></g></g></g></svg>
