<?xml version="1.0" encoding="UTF-8"?>
<!DOCTYPE svg  PUBLIC '-//W3C//DTD SVG 1.1//EN'  'http://www.w3.org/Graphics/SVG/1.1/DTD/svg11.dtd'>
<svg clip-rule="evenodd" fill-rule="evenodd" stroke-linejoin="round" stroke-miterlimit="1.4142" version="1.1" viewBox="0 0 1280 1150" xmlns="http://www.w3.org/2000/svg"><g id="unifiap outdoor5"><path d="m745.93 977.14c2.377 4.455 6.97 6.541 13.883 6.145 92.112 2.7 184.22 3.566 276.31 0 4.73 0.142 8.47-1.709 10.92-6.145v-580.42c0.08-2.048-1.25-3.273-3.75-3.816h-294.6c-2.005 0.205-3.191 1.215-2.755 3.816v580.42z" fill="#fff" stroke="#666" stroke-width="1px"/><path d="m745.93 807.63c5.351 1.902 11.342 2.556 17.769 2.355h263.83c7.71 0.088 14.63-0.557 20.29-2.355" fill="none" stroke="#666" stroke-width="1px"/><g id="powerled" stroke="#666" stroke-width="1px"><path d="m930.21 731.24c0-2.77-2.249-5.019-5.02-5.019h-60.605c-2.77 0-5.019 2.249-5.019 5.019v10.039c0 2.771 2.249 5.02 5.019 5.02h60.605c2.771 0 5.02-2.249 5.02-5.02v-10.039z" fill="none"/><path d="m913.85 734.67c0-1.165-0.945-2.11-2.11-2.11h-35.541c-1.165 0-2.11 0.945-2.11 2.11v4.219c0 1.165 0.945 2.11 2.11 2.11h35.541c1.165 0 2.11-0.945 2.11-2.11v-4.219z" fill="#33cc45"/></g><g id="AntennenKupplung" transform="matrix(.70338 0 0 .70338 680.02 334.2)"><path d="m387.1 81.357h46.652v-1.521c-15.418-1.292-30.96-1.375-46.652 0v1.521z" fill="#efd800" stroke="#666" stroke-linecap="round" stroke-width="1.42px"/><path d="m384.08 79.836v-1.764c17.517-1.87 34.941-1.856 52.274 0v1.764c-17.238-1.488-34.664-1.476-52.274 0z" fill="#efd800" stroke="#666" stroke-linecap="round" stroke-width="1.42px"/><path d="m384.08 66.701c1.159-3.409 50.465-3.168 52.274 0v11.561c-16.989-2.01-34.374-2.144-52.274 0v-11.561z" fill="#efd800" stroke="#666" stroke-linecap="round" stroke-width="1.42px"/><rect x="397.03" y="32.811" width="26.445" height="31.95" fill="#efd800" stroke="#666" stroke-linecap="round" stroke-width="1.42px"/><path d="m394.7 39.926c9.542-1.907 19.808-1.876 30.255-1.366" fill="none" stroke="#666" stroke-linecap="round" stroke-width="2.13px"/><g transform="translate(.19842 3.6457)"><path d="m394.7 39.926c9.542-1.907 19.808-1.876 30.255-1.366" fill="none" stroke="#666" stroke-linecap="round" stroke-width="2.13px"/></g><g transform="translate(.24877 7.237)"><path d="m394.7 39.926c9.542-1.907 19.808-1.876 30.255-1.366" fill="none" stroke="#666" stroke-linecap="round" stroke-width="2.13px"/></g><g transform="translate(.32929 10.984)"><path d="m394.7 39.926c9.542-1.907 19.808-1.876 30.255-1.366" fill="none" stroke="#666" stroke-linecap="round" stroke-width="2.13px"/></g><g transform="translate(.16826 14.577)"><path d="m394.7 39.926c9.542-1.907 19.808-1.876 30.255-1.366" fill="none" stroke="#666" stroke-linecap="round" stroke-width="2.13px"/></g><g transform="translate(.16525 18.39)"><path d="m394.7 39.926c9.542-1.907 19.808-1.876 30.255-1.366" fill="none" stroke="#666" stroke-linecap="round" stroke-width="2.13px"/></g><g transform="translate(.084734 21.832)"><path d="m394.7 39.926c9.542-1.907 19.808-1.876 30.255-1.366" fill="none" stroke="#666" stroke-linecap="round" stroke-width="2.13px"/></g></g><g id="AntennenKupplung1" transform="matrix(.70338 0 0 .70338 532.42 334.73)"><path d="m387.1 81.357h46.652v-1.521c-15.418-1.292-30.96-1.375-46.652 0v1.521z" fill="#efd800" stroke="#666" stroke-linecap="round" stroke-width="1.42px"/><path d="m384.08 79.836v-1.764c17.517-1.87 34.941-1.856 52.274 0v1.764c-17.238-1.488-34.664-1.476-52.274 0z" fill="#efd800" stroke="#666" stroke-linecap="round" stroke-width="1.42px"/><path d="m384.08 66.701c1.159-3.409 50.465-3.168 52.274 0v11.561c-16.989-2.01-34.374-2.144-52.274 0v-11.561z" fill="#efd800" stroke="#666" stroke-linecap="round" stroke-width="1.42px"/><rect x="397.03" y="32.811" width="26.445" height="31.95" fill="#efd800" stroke="#666" stroke-linecap="round" stroke-width="1.42px"/><path d="m394.7 39.926c9.542-1.907 19.808-1.876 30.255-1.366" fill="none" stroke="#666" stroke-linecap="round" stroke-width="2.13px"/><g transform="translate(.19842 3.6457)"><path d="m394.7 39.926c9.542-1.907 19.808-1.876 30.255-1.366" fill="none" stroke="#666" stroke-linecap="round" stroke-width="2.13px"/></g><g transform="translate(.24877 7.237)"><path d="m394.7 39.926c9.542-1.907 19.808-1.876 30.255-1.366" fill="none" stroke="#666" stroke-linecap="round" stroke-width="2.13px"/></g><g transform="translate(.32929 10.984)"><path d="m394.7 39.926c9.542-1.907 19.808-1.876 30.255-1.366" fill="none" stroke="#666" stroke-linecap="round" stroke-width="2.13px"/></g><g transform="translate(.16826 14.577)"><path d="m394.7 39.926c9.542-1.907 19.808-1.876 30.255-1.366" fill="none" stroke="#666" stroke-linecap="round" stroke-width="2.13px"/></g><g transform="translate(.16525 18.39)"><path d="m394.7 39.926c9.542-1.907 19.808-1.876 30.255-1.366" fill="none" stroke="#666" stroke-linecap="round" stroke-width="2.13px"/></g><g transform="translate(.084734 21.832)"><path d="m394.7 39.926c9.542-1.907 19.808-1.876 30.255-1.366" fill="none" stroke="#666" stroke-linecap="round" stroke-width="2.13px"/></g></g></g><g id="unifiap outdoor2"><path d="m572.88 244.63c0-12.521-10.165-22.687-22.686-22.687h-271.42c-12.521 0-22.686 10.166-22.686 22.687v716.4c0 12.521 10.165 22.686 22.686 22.686h271.42c12.521 0 22.686-10.165 22.686-22.686v-716.4z" fill="#fff" stroke="#666" stroke-width="1px"/><g id="AntennenKupplung2" transform="matrix(.70338 0 0 .70338 245.89 164.21)"><path d="m387.1 81.357h46.652v-1.521c-15.418-1.292-30.96-1.375-46.652 0v1.521z" fill="#ccc" stroke="#666" stroke-linecap="round" stroke-width="1.42px"/><path d="m384.08 79.836v-1.764c17.517-1.87 34.941-1.856 52.274 0v1.764c-17.238-1.488-34.664-1.476-52.274 0z" fill="#ccc" stroke="#666" stroke-linecap="round" stroke-width="1.42px"/><path d="m384.08 66.701c1.159-3.409 50.465-3.168 52.274 0v11.561c-16.989-2.01-34.374-2.144-52.274 0v-11.561z" fill="#ccc" stroke="#666" stroke-linecap="round" stroke-width="1.42px"/><rect x="397.03" y="32.811" width="26.445" height="31.95" fill="#ccc" stroke="#666" stroke-linecap="round" stroke-width="1.42px"/><path d="m394.7 39.926c9.542-1.907 19.808-1.876 30.255-1.366" fill="none" stroke="#666" stroke-linecap="round" stroke-width="2.13px"/><g transform="translate(.19842 3.6457)"><path d="m394.7 39.926c9.542-1.907 19.808-1.876 30.255-1.366" fill="none" stroke="#666" stroke-linecap="round" stroke-width="2.13px"/></g><g transform="translate(.24877 7.237)"><path d="m394.7 39.926c9.542-1.907 19.808-1.876 30.255-1.366" fill="none" stroke="#666" stroke-linecap="round" stroke-width="2.13px"/></g><g transform="translate(.32929 10.984)"><path d="m394.7 39.926c9.542-1.907 19.808-1.876 30.255-1.366" fill="none" stroke="#666" stroke-linecap="round" stroke-width="2.13px"/></g><g transform="translate(.16826 14.577)"><path d="m394.7 39.926c9.542-1.907 19.808-1.876 30.255-1.366" fill="none" stroke="#666" stroke-linecap="round" stroke-width="2.13px"/></g><g transform="translate(.16525 18.39)"><path d="m394.7 39.926c9.542-1.907 19.808-1.876 30.255-1.366" fill="none" stroke="#666" stroke-linecap="round" stroke-width="2.13px"/></g><g transform="translate(.084734 21.832)"><path d="m394.7 39.926c9.542-1.907 19.808-1.876 30.255-1.366" fill="none" stroke="#666" stroke-linecap="round" stroke-width="2.13px"/></g></g><g id="AntennenKupplung3" transform="matrix(.70338 0 0 .70338 9.4539 164.4)"><path d="m387.1 81.357h46.652v-1.521c-15.418-1.292-30.96-1.375-46.652 0v1.521z" fill="#ccc" stroke="#666" stroke-linecap="round" stroke-width="1.42px"/><path d="m384.08 79.836v-1.764c17.517-1.87 34.941-1.856 52.274 0v1.764c-17.238-1.488-34.664-1.476-52.274 0z" fill="#ccc" stroke="#666" stroke-linecap="round" stroke-width="1.42px"/><path d="m384.08 66.701c1.159-3.409 50.465-3.168 52.274 0v11.561c-16.989-2.01-34.374-2.144-52.274 0v-11.561z" fill="#ccc" stroke="#666" stroke-linecap="round" stroke-width="1.42px"/><rect x="397.03" y="32.811" width="26.445" height="31.95" fill="#ccc" stroke="#666" stroke-linecap="round" stroke-width="1.42px"/><path d="m394.7 39.926c9.542-1.907 19.808-1.876 30.255-1.366" fill="none" stroke="#666" stroke-linecap="round" stroke-width="2.13px"/><g transform="translate(.19842 3.6457)"><path d="m394.7 39.926c9.542-1.907 19.808-1.876 30.255-1.366" fill="none" stroke="#666" stroke-linecap="round" stroke-width="2.13px"/></g><g transform="translate(.24877 7.237)"><path d="m394.7 39.926c9.542-1.907 19.808-1.876 30.255-1.366" fill="none" stroke="#666" stroke-linecap="round" stroke-width="2.13px"/></g><g transform="translate(.32929 10.984)"><path d="m394.7 39.926c9.542-1.907 19.808-1.876 30.255-1.366" fill="none" stroke="#666" stroke-linecap="round" stroke-width="2.13px"/></g><g transform="translate(.16826 14.577)"><path d="m394.7 39.926c9.542-1.907 19.808-1.876 30.255-1.366" fill="none" stroke="#666" stroke-linecap="round" stroke-width="2.13px"/></g><g transform="translate(.16525 18.39)"><path d="m394.7 39.926c9.542-1.907 19.808-1.876 30.255-1.366" fill="none" stroke="#666" stroke-linecap="round" stroke-width="2.13px"/></g><g transform="translate(.084734 21.832)"><path d="m394.7 39.926c9.542-1.907 19.808-1.876 30.255-1.366" fill="none" stroke="#666" stroke-linecap="round" stroke-width="2.13px"/></g></g><path d="m281.42 222.76v344.4l40.313 415.78" fill="none" stroke="#666" stroke-width="1px"/><path d="m550.32 222.55v347.02l-43.546 413.94" fill="none" stroke="#666" stroke-width="1px"/><path d="m300.03 222.55v14.569l25.434 241.62c1.51 14.644 8.91 22.449 24.15 21.147h134.45c13.154-0.568 22.502-5.565 22.751-21.147l25.682-241.62v-14.569" fill="none" stroke="#666" stroke-width="1px"/><path d="m441.33 646.88c0-1.193-0.968-2.161-2.161-2.161h-44.51c-1.192 0-2.161 0.968-2.161 2.161v4.323c0 1.193 0.969 2.161 2.161 2.161h44.51c1.193 0 2.161-0.968 2.161-2.161v-4.323z" fill="#1a7ae6" stroke="#666" stroke-width="1px"/></g></svg>
