<svg xmlns="http://www.w3.org/2000/svg" viewBox="0 0 1600 1437.5" height="1437.5" width="1600"><g stroke-miterlimit="10"><path d="M1174.681 332.682h58.315v-1.9c-19.272-1.615-38.7-1.718-58.315 0v1.9z" fill="#efd800" fill-rule="evenodd" stroke="#666" stroke-width="1.25"/><path d="M1170.895 330.781v-2.205a306.446 306.446 0 0 1 65.343 0v2.205c-21.548-1.86-43.33-1.845-65.343 0z" fill="#efd800" fill-rule="evenodd" stroke="#666" stroke-width="1.25"/><path d="M1170.895 314.364c1.449-4.263 63.081-3.961 65.343 0v14.45c-21.237-2.513-42.97-2.68-65.343 0v-14.45z" fill="#efd800" fill-rule="evenodd" stroke="#666" stroke-width="1.25"/><path d="M1187.089 311.939h33.056V272h-33.056v39.938z" fill="#efd800" fill-rule="evenodd" stroke="#666" stroke-width="1.25"/><path d="M1184.169 280.895c11.927-2.384 24.761-2.346 37.818-1.709M1184.418 285.451c11.927-2.383 24.76-2.345 37.818-1.707M1184.48 289.941c11.928-2.384 24.761-2.346 37.819-1.709M1184.581 294.624c11.928-2.384 24.76-2.345 37.819-1.708M1184.38 299.116c11.926-2.383 24.76-2.346 37.819-1.708M1184.376 303.882c11.927-2.383 24.76-2.346 37.819-1.708M1184.275 308.185c11.927-2.384 24.761-2.346 37.819-1.709" fill="none" stroke="#666" stroke-width="1.875"/><path d="M916.02 331.263h58.315v-1.9c-19.273-1.615-38.7-1.72-58.315 0v1.9z" fill="#efd800" fill-rule="evenodd" stroke="#666" stroke-width="1.25"/><path d="M912.234 329.362v-2.206a306.528 306.528 0 0 1 65.342 0v2.206c-21.546-1.86-43.33-1.846-65.342 0z" fill="#efd800" fill-rule="evenodd" stroke="#666" stroke-width="1.25"/><path d="M912.234 312.944c1.449-4.263 63.081-3.962 65.342 0v14.45c-21.236-2.513-42.967-2.68-65.342 0v-14.45z" fill="#efd800" fill-rule="evenodd" stroke="#666" stroke-width="1.25"/><path d="M928.429 310.519h33.056V270.58h-33.056v39.938z" fill="#efd800" fill-rule="evenodd" stroke="#666" stroke-width="1.25"/><path d="M925.509 279.475c11.927-2.384 24.761-2.346 37.819-1.709M925.756 284.031c11.928-2.384 24.762-2.345 37.819-1.707M925.82 288.521c11.927-2.384 24.76-2.346 37.819-1.709M925.92 293.205c11.928-2.384 24.761-2.346 37.819-1.709M925.719 297.696c11.927-2.384 24.761-2.346 37.818-1.709M925.715 302.463c11.928-2.384 24.761-2.347 37.819-1.71M925.615 306.765c11.926-2.384 24.76-2.346 37.819-1.707" fill="none" stroke="#666" stroke-width="1.875"/><path d="M746.423 102.213h58.313v-1.9c-19.272-1.613-38.7-1.713-58.313 0v1.9z" fill="#efd800" fill-rule="evenodd" stroke="#666" stroke-width="1.25"/><path d="M742.635 100.313v-2.2c21.898-2.338 43.678-2.326 65.344 0v2.2c-21.548-1.85-43.33-1.838-65.344 0z" fill="#efd800" fill-rule="evenodd" stroke="#666" stroke-width="1.25"/><path d="M742.635 83.9c1.45-4.263 63.083-3.963 65.344 0v14.45c-21.237-2.513-42.969-2.675-65.344 0V83.9z" fill="#efd800" fill-rule="evenodd" stroke="#666" stroke-width="1.25"/><path d="M758.83 81.475h33.056V41.537H758.83v39.938z" fill="#efd800" fill-rule="evenodd" stroke="#666" stroke-width="1.25"/><path d="M755.91 50.425c11.928-2.375 24.761-2.338 37.819-1.7M756.158 54.987c11.927-2.387 24.76-2.35 37.818-1.712M756.221 59.475c11.928-2.388 24.761-2.35 37.819-1.713M756.321 64.162c11.928-2.387 24.761-2.35 37.819-1.712M756.12 68.65c11.927-2.387 24.761-2.35 37.819-1.712M756.116 73.412c11.928-2.375 24.762-2.337 37.819-1.7M756.016 77.725c11.928-2.387 24.76-2.35 37.819-1.712" fill="none" stroke="#666" stroke-width="1.875"/><path d="M483.313 101.763h58.315v-1.9c-19.273-1.613-38.7-1.713-58.315 0v1.9z" fill="#efd800" fill-rule="evenodd" stroke="#666" stroke-width="1.25"/><path d="M479.526 99.863v-2.2c21.896-2.338 43.676-2.325 65.343 0v2.2c-21.547-1.85-43.33-1.838-65.343 0z" fill="#efd800" fill-rule="evenodd" stroke="#666" stroke-width="1.25"/><path d="M479.526 83.45c1.449-4.262 63.081-3.962 65.343 0V97.9c-21.237-2.512-42.968-2.687-65.343 0V83.45z" fill="#efd800" fill-rule="evenodd" stroke="#666" stroke-width="1.25"/><path d="M495.721 81.025h33.056V41.087h-33.056v39.938z" fill="#efd800" fill-rule="evenodd" stroke="#666" stroke-width="1.25"/><path d="M492.801 49.975c11.928-2.375 24.761-2.338 37.819-1.7M493.049 54.538c11.927-2.388 24.761-2.35 37.819-1.713M493.113 59.025c11.927-2.387 24.76-2.35 37.818-1.712M493.212 63.713c11.928-2.388 24.762-2.35 37.82-1.713M493.011 68.2c11.928-2.388 24.761-2.35 37.819-1.713M493.007 72.962c11.928-2.375 24.762-2.337 37.82-1.7M492.908 77.275c11.926-2.388 24.76-2.35 37.818-1.713" fill="none" stroke="#666" stroke-width="1.875"/><path d="M887.421 117.225c0-8.363-6.786-15.15-15.145-15.15H416.43c-8.359 0-15.144 6.787-15.144 15.15v995.781c0 8.359 6.785 15.145 15.144 15.145h455.847c8.359 0 15.145-6.786 15.145-15.145V117.225z" fill="#ebebeb" fill-rule="evenodd" stroke="#666" stroke-width="1.25"/><path d="M678.236 375.624c0-6.284-5.101-11.385-11.385-11.385h-79.178c-6.283 0-11.384 5.101-11.384 11.385v350.071c0 6.284 5.101 11.385 11.384 11.385h79.178c6.284 0 11.385-5.101 11.385-11.385V375.624z" fill="#fff" fill-rule="evenodd" stroke="#000" stroke-width="1.25"/><path d="M632.866 406.459H656v-12.874h-23.133v12.874zM632.414 438.489h23.133v-12.874h-23.133v12.874zM632.586 472.076h23.133v-12.873h-23.133v12.873zM632.085 505.051h23.133v-12.873h-23.133v12.873zM632.023 538.37h23.132v-12.873h-23.132v12.873zM632.744 571.737h23.133v-12.873h-23.133v12.873zM633.433 603.759h23.132v-12.874h-23.133v12.874zM632.799 638.069h23.133v-12.874h-23.133v12.874zM632.017 670.434h23.133V657.56h-23.133v12.874zM632.33 704.006h23.133v-12.873H632.33v12.873z" fill="#444" fill-rule="evenodd" stroke="#666" stroke-width="1.25"/><path d="M599.173 585.872l15.997 16.208-4.034 3.852-16.077-16.16 4.113-3.9z" fill="none" stroke="#000" stroke-width="1.25"/><path d="M601.089 594.704l4.06-3.696 5.175 5.4-5.175 4.5c-2.592-.712-4.109-2.352-4.06-5.345v-.86z" fill-rule="evenodd" stroke="#000" stroke-width="1.25"/><path d="M598.709 599.441c.184 2.214.969 3.469 2.944 2.829M595.259 600.097c.717 3.758 2.742 5.455 5.442 5.9" fill="none" stroke="#000" stroke-width="1.25"/><path d="M595.516 389.63h15.754v178.167h-1.991L595.516 389.63z" fill-rule="evenodd" stroke="#666" stroke-width="1.25"/><path d="M603.774 690.648c3.981 0 7.215 2.907 7.215 6.487s-3.234 6.486-7.215 6.486c-3.983 0-7.216-2.906-7.216-6.486 0-3.58 3.233-6.488 7.216-6.488z" fill="none" stroke="#737373" stroke-width="1.125"/><path d="M605.976 688.576a2.003 2.003 0 0 0-4.005 0v8.135a2.004 2.004 0 0 0 4.005 0v-8.135z" fill="#666" fill-rule="evenodd" stroke="#fff" stroke-width=".625"/><path d="M596.853 656.997l-4.812 5.105 4.812 5.142M611.736 656.997l5.014 5.105-5.014 5.205M598.873 662.916h1.106M603.751 662.916h1.108M608.715 662.945h1.107M597.339 623.86l-4.813 5.106 4.813 5.14M612.223 623.86l5.012 5.106-5.012 5.205M599.357 629.78h1.108M604.236 629.78h1.108M609.201 629.808h1.106" fill="none" stroke="#666" stroke-width="1.0625"/><path d="M401.617 920.17l70.75 4.134h335.745l79.463-4.134M818.234 102.225v1026.213M471.999 101.9v1026.773" fill="none" stroke="#000" stroke-width="1.25"/><path d="M1339.563 341.881c0-5.409-4.388-9.8-9.8-9.8h-511.93c-5.41 0-9.8 4.391-9.8 9.8v1022.103c0 5.41 4.39 9.8 9.8 9.8h511.93c5.412 0 9.8-4.39 9.8-9.8V341.882z" fill="#fff" fill-rule="evenodd" stroke="#666" stroke-width="1.25"/><path d="M1217.372 920.588c0-7.755-6.296-14.052-14.05-14.052h-260.39c-7.757 0-14.053 6.297-14.053 14.052v46.04c0 7.757 6.296 14.053 14.052 14.053h260.39c7.755 0 14.052-6.296 14.052-14.052v-46.041z" fill="none" stroke="#666" stroke-width="1.25"/><path d="M960.702 960.246c3.983 0 7.215 2.907 7.215 6.487s-3.232 6.487-7.215 6.487c-3.98 0-7.215-2.908-7.215-6.488 0-3.58 3.234-6.486 7.215-6.486z" fill="none" stroke="#737373" stroke-width="1.125"/><path d="M962.905 958.175a2.003 2.003 0 0 0-4.004 0v8.135a2.003 2.003 0 0 0 4.004 0v-8.135z" fill="#666" fill-rule="evenodd" stroke="#fff" stroke-width=".625"/><path d="M1339.725 1061.202c-8.137 3.357-17.2 5.042-26.85 5.665-162.996 4.714-326.145 4.77-489.455 0-5.52-.207-10.499-2.235-15.059-5.665" fill="none" stroke="#000" stroke-width="1.25"/><path d="M949.296 944.761h23.133v-12.873h-23.133v12.873zM991.33 944.808h23.133v-12.874H991.33v12.874zM1038.644 944.808h23.133v-12.874h-23.133v12.874zM1082.259 944.761h23.133v-12.873h-23.133v12.873zM1126.737 944.779h23.133v-12.874h-23.132v12.874zM1171.72 944.779h23.133v-12.874h-23.133v12.874z" fill="#444" fill-rule="evenodd" stroke="#666" stroke-width="1.25"/><path d="M1195.879 957.587l.066 15.753-147.433.621-.008-1.991 147.375-14.383z" fill-rule="evenodd" stroke="#666" stroke-width="1.25"/><path d="M996.89 961.286l-4.813 5.105 4.813 5.142M1011.774 961.286l5.012 5.105-5.012 5.205M998.909 967.205h1.107M1003.787 967.205h1.108M1008.752 967.234h1.107" fill="none" stroke="#666" stroke-width="1.0625"/></g></svg>