<?xml version="1.0" encoding="UTF-8"?>
<!DOCTYPE svg  PUBLIC '-//W3C//DTD SVG 1.1//EN'  'http://www.w3.org/Graphics/SVG/1.1/DTD/svg11.dtd'>
<svg clip-rule="evenodd" fill-rule="evenodd" stroke-linecap="round" stroke-linejoin="round" stroke-miterlimit="1.4142" version="1.1" viewBox="0 0 1280 1150" xmlns="http://www.w3.org/2000/svg"><g id="UAP-Pro"><g transform="matrix(.98059 0 0 .98799 19.236 16.838)"><ellipse cx="640.6" cy="562.8" rx="517.21" ry="501.14" fill="url(#_Radial1)" stroke="#737373" stroke-width="1.02px"/></g><g transform="matrix(1.0275 -9.4106e-18 -9.528e-18 1.0792 -18.895 -43.142)"><path d="m648.29 384.86c107.06 0 193.98 82.749 193.98 184.67 0 101.92-86.918 184.67-193.98 184.67-107.06 0-193.98-82.749-193.98-184.67 0-101.92 86.918-184.67 193.98-184.67zm0 17.917c96.672 0 175.16 74.721 175.16 166.76 0 92.035-78.485 166.76-175.16 166.76s-175.16-74.721-175.16-166.76c0-92.034 78.485-166.76 175.16-166.76z" fill="url(#_Radial2)"/></g><g transform="matrix(1.1702 0 0 1.0136 -99.948 -8.3515)"><ellipse cx="638.6" cy="572.11" rx="153.64" ry="177.7" fill="none" stroke="#666" stroke-width=".91px"/></g></g><defs><radialGradient id="_Radial1" cx="0" cy="0" r="1" gradientTransform="matrix(523.28 2.6272 -2.5842 507.02 642.9 563.68)" gradientUnits="userSpaceOnUse"><stop stop-color="#fff" offset="0"/><stop stop-color="#fafafa" offset=".46"/><stop stop-color="#efefef" offset=".64"/><stop stop-color="#e4e4e4" offset=".81"/><stop stop-color="#e0e0e0" offset="1"/></radialGradient><radialGradient id="_Radial2" cx="0" cy="0" r="1" gradientTransform="matrix(194.45 -4.105e-6 4.0062e-6 185.12 648.29 569.53)" gradientUnits="userSpaceOnUse"><stop stop-color="#527bff" offset="0"/><stop stop-color="#6f90ff" offset=".89"/><stop stop-color="#8fa9ff" offset=".95"/><stop stop-color="#fff" offset="1"/></radialGradient></defs></svg>
