<svg xmlns="http://www.w3.org/2000/svg" viewBox="0 0 1600 1437.5" height="1437.5" width="1600"><path d="M194.021 153.237h1155.454c55.988 0 99.775 15.638 99.775 70.652v1024.764c0 54.002-40.7 77.376-99.775 77.376H194.021c-58.952 0-94.792-27.781-94.792-77.376V223.889c0-53.964 34.352-70.651 94.792-70.651z" fill="#1b1a19" fill-rule="evenodd" stroke="#000" stroke-width="4.375" stroke-miterlimit="10"/><path d="M1137.703 1216.095c-4.6 3.971-3.96 12.777.808 14.161 2.424.704 4.825.877 7.179 0 6.516-2.426 5.823-10.235 1.212-14.161" fill="none" stroke="#fefefd" stroke-width="2.5" stroke-miterlimit="10"/><path d="M1142.086 1211.276v11.079" fill="#6dbd48" fill-rule="evenodd" stroke="#fefefd" stroke-width="2.5" stroke-miterlimit="10"/><path d="M668.55 1216.015l-6.939 7.19 6.939 7.448M685.197 1230.652l6.94-7.19-6.94-7.447" fill="none" stroke="#fff" stroke-width="3.125" stroke-miterlimit="10"/><path d="M669.069 1224.351h2.206v-2.048h-2.206v2.048zM675.553 1224.351h2.206v-2.048h-2.206v2.048zM682.506 1224.351h2.207v-2.048h-2.207v2.048z" fill="#fff" fill-rule="evenodd"/><text style="-inkscape-font-specification:STHeitiSC-Medium" transform="matrix(1.25 0 0 1.25 363.6 1166.298)" font-weight="500" font-size="17" font-family="STHeitiSC" fill="#fff"><tspan y="0" x="0 59.687 123.624 183.311">1234</tspan></text><text style="-inkscape-font-specification:STHeitiSC-Medium" transform="matrix(1.25 0 0 1.25 463.421 1231.96)" font-weight="500" font-size="17" font-family="STHeitiSC" fill="#fff"><tspan y="0" x="0 7.8540001 20.434">LAN</tspan></text><text style="-inkscape-font-specification:STHeitiSC-Medium" transform="matrix(1.25 0 0 1.25 1037.523 1231.275)" font-weight="500" font-size="17" font-family="STHeitiSC" fill="#fff"><tspan y="0" x="0 16.32 24.174 36.754002">WLAN</tspan></text><path d="M859.156 1209.537c7.834 0 14.193 6.098 14.193 13.61 0 7.51-6.359 13.608-14.193 13.608-7.833 0-14.192-6.098-14.192-13.609s6.358-13.608 14.192-13.608z" fill="none" stroke="#fff" stroke-miterlimit="10" stroke-width="1.25"/><path d="M864.103 1221.138h5.278v1.348h-4.233l-2.072 2.002 4.22 4.178h2.085l1.175-2.808v-7.022l-1.911-2.403-4.542 4.705zM851.39 1222.591l1.521-1.747 1.659-.73 2.42-2.379.529-2.499-2.949.469-3.18-1.569-2.374 3.599.929 3.109 1.445 1.747zM855.359 1223.186l2.994 2.488-1.387 5.717-1.607-.522v-2.972l-2.699-2.223 2.699-2.488z" fill="#fff" fill-rule="evenodd" stroke="#fff" stroke-miterlimit="10" stroke-width="1.25"/></svg>