<svg xmlns="http://www.w3.org/2000/svg" viewBox="0 0 1600 1437.5" height="1437.5" width="1600"><defs><clipPath id="a"><path d="M0 0h1280v1150H0V0z" clip-rule="evenodd"/></clipPath></defs><g clip-path="url(#a)" transform="matrix(1.25 0 0 -1.25 0 1437.5)"><path d="M474.956 169.659v70.13h-1.984c-1.686-23.177-1.794-46.541 0-70.13h1.984z" fill="#ccc" fill-rule="evenodd" stroke="#666" stroke-miterlimit="10"/><path d="M472.972 165.105h-2.302a424.182 424.182 0 0 0 0 78.582h2.302c-1.942-25.913-1.927-52.109 0-78.582z" fill="#ccc" fill-rule="evenodd" stroke="#666" stroke-miterlimit="10"/><path d="M455.832 165.105c-4.449 1.743-4.135 75.863 0 78.582h15.086c-2.623-25.539-2.799-51.674 0-78.582h-15.086z" fill="#ccc" fill-rule="evenodd" stroke="#666" stroke-miterlimit="10"/><path d="M412.903 184.581c-1.217 13.257-1.296 26.509 0 39.754H453.3c-1.143-13.31-.962-26.552 0-39.754h-40.397z" fill="#ccc" fill-rule="evenodd" stroke="#666" stroke-miterlimit="10"/><path d="M420.892 181.069c-2.488 14.344-2.449 29.778-1.783 45.482M425.649 181.368c-2.488 14.344-2.449 29.777-1.783 45.481M430.336 181.443c-2.488 14.344-2.449 29.778-1.783 45.482M435.225 181.564c-2.488 14.344-2.449 29.778-1.783 45.482M439.914 181.322c-2.488 14.344-2.449 29.778-1.783 45.482M444.89 181.318c-2.488 14.344-2.449 29.778-1.783 45.481M449.382 181.197c-2.488 14.344-2.449 29.778-1.783 45.481" fill="none" stroke="#666" stroke-width="1.5" stroke-miterlimit="10"/><path d="M474.039 116.586v20.223h37.625v-26.33h-30.712c-2.988 1.59-5.221 3.672-6.913 6.107zM857.338 116.586v20.223h-37.625v-26.33h30.712c2.988 1.59 5.221 3.672 6.913 6.107z" fill="#1a1919" fill-rule="evenodd" stroke="#000" stroke-width="3" stroke-miterlimit="10"/><text style="-inkscape-font-specification:Impact" transform="matrix(1.19498 0 0 -.75632 532.68 65.216)" font-weight="400" font-size="51.597" font-family="Impact"><tspan y="0" x="0 25.896284 52.272415">PoE</tspan></text><text style="-inkscape-font-specification:Impact" transform="matrix(1.19498 0 0 -.75632 696.416 65.216)" font-weight="400" font-size="51.597" font-family="Impact"><tspan y="0" x="0 20.912062 47.112762">LAN</tspan></text><text style="-inkscape-font-specification:Impact" transform="matrix(1.19498 0 0 -.75632 692.805 663.827)" font-weight="400" font-size="40.871" font-family="Impact"><tspan y="0" x="0 22.630272 43.523529 64.894974 86.266418 107.15968 127.37447 139.82787 160.72112">Connector</tspan></text><text style="-inkscape-font-specification:Impact" transform="matrix(1.19498 0 0 -.75632 692.805 632.915)" font-weight="400" font-size="40.871" font-family="Impact"><tspan y="0" x="0 12.453394 40.552208 61.065361 81.958618 109.31767 130.21092 144.83865 156.87108 168.64601 190.01746 201.45316 222.34642 242.56122 255.0146 275.90787">toPower-Injector</tspan></text><path d="M547.998 593.834h102.94v29.256h-102.94v-29.256z" fill="#bdbebd" fill-rule="evenodd" stroke="#000" stroke-width="3" stroke-miterlimit="10"/><path d="M550.6 623.09h99.137v63.487H550.6V623.09z" fill-rule="evenodd" stroke="#000" stroke-width="3" stroke-miterlimit="10"/><path d="M550.6 623.09h14.702v63.487H550.6V623.09zM572.319 623.09h2.243v63.487h-2.243V623.09zM581.364 623.09h2.243v63.487h-2.243V623.09zM590.586 623.09h2.243v63.487h-2.243V623.09zM599.875 623.09h2.243v63.487h-2.243V623.09zM608.764 623.09h2.243v63.487h-2.243V623.09zM617.794 623.09h2.243v63.487h-2.243V623.09zM627.085 623.09h2.243v63.487h-2.243V623.09zM636.295 623.09h14.162v63.487h-14.162V623.09z" fill="#1b1a19" fill-rule="evenodd" stroke="#000" stroke-miterlimit="10"/><path d="M566.066 669.527h5.81v-42.303h-5.81v42.303M575.203 669.527h5.81v-42.303h-5.81v42.303M584.262 669.527h5.81v-42.303h-5.81v42.303M593.389 669.527h5.81v-42.303h-5.81v42.303M602.716 669.527h5.81v-42.303h-5.81v42.303M611.662 669.527h5.81v-42.303h-5.81v42.303M620.664 669.527h5.811v-42.303h-5.811v42.303M629.905 669.527h5.81v-42.303h-5.81v42.303" fill="#ddb945" fill-rule="evenodd" stroke="#a98333" stroke-width=".25" stroke-miterlimit="10"/><path d="M474.039 129.803h383.223v471.943H474.039V129.803z" fill="#2a2a29" fill-rule="evenodd" stroke="#000" stroke-width="3" stroke-miterlimit="10"/><path d="M474.039 761.62h383.223v431.633H474.039V761.62z" fill="#2a2a29" fill-rule="evenodd" stroke="#000" stroke-width=".25" stroke-miterlimit="10"/><path d="M538.039 831.491h15.203c4.112 0 7.273-.204 9.484-.613 2.211-.408 3.873-.998 4.984-1.77 1.112-.771 1.865-1.705 2.259-2.802.394-1.097.592-2.795.592-5.095v-3.2c0-2.345-.383-4.054-1.148-5.129-.765-1.074-2.169-1.898-4.213-2.473s-4.715-.863-8.014-.863h-4.051V794.75h-15.096v36.741zm15.096-6.286v-9.35c.43-.015.8-.022 1.111-.022 1.387 0 2.349.215 2.887.646.537.432.806 1.328.806 2.69v3.018c0 1.256-.31 2.072-.932 2.451-.621.378-1.912.567-3.872.567zM607.241 814.289v-7.375c0-2.708-.215-4.694-.645-5.957-.43-1.263-1.351-2.443-2.761-3.54-1.41-1.097-3.221-1.907-5.432-2.428-2.211-.522-4.751-.783-7.62-.783-3.203 0-5.916.223-8.139.669-2.223.446-3.95 1.12-5.181 2.02-1.231.9-2.11 1.989-2.636 3.268-.525 1.278-.788 3.196-.788 5.752v7.716c0 2.799.478 4.985 1.434 6.559.956 1.573 2.677 2.836 5.163 3.79 2.486.953 5.665 1.429 9.538 1.429 3.251 0 6.041-.306 8.372-.919 2.331-.613 4.13-1.411 5.396-2.394 1.267-.983 2.134-1.997 2.6-3.041.466-1.044.699-2.632.699-4.766zm-14.486 2.27c0 1.543-.131 2.515-.394 2.916-.263.401-.825.601-1.685.601-.861 0-1.434-.2-1.721-.601-.287-.401-.431-1.373-.431-2.916v-13.594c0-1.422.144-2.348.431-2.78.287-.431.848-.646 1.685-.646.86 0 1.428.196 1.703.59.275.393.412 1.24.412 2.541v13.889zM612.44 831.491h25.171v-7.353h-10.075v-6.966h9.43v-6.99h-9.43v-8.079h11.079v-7.353H612.44v36.741zM731.396 831.491v-29.388h9.179v-7.353h-24.274v36.741h15.095zM772.128 831.491l8.642-36.741h-15.454l-.753 6.604h-5.414l-.897-6.604h-15.633l7.673 36.741h21.836zm-7.995-23.624c-.765 4.161-1.53 9.297-2.295 15.409-1.53-7.02-2.486-12.156-2.869-15.409h5.164zM817.056 831.491V794.75h-13.231l-7.852 16.703V794.75h-12.622v36.741h12.622l8.462-16.543v16.543h12.621z" fill="#fff" stroke="#b3b3b3" stroke-width="3.5" stroke-miterlimit="10"/><path d="M703.002 315.906a2.458 2.458 0 0 1-2.456 2.457h-73.407a2.458 2.458 0 0 1-2.457-2.457v-4.913a2.458 2.458 0 0 1 2.457-2.457h73.407a2.458 2.458 0 0 1 2.456 2.457v4.913z" fill="#197ae6" fill-rule="evenodd" stroke="#666" stroke-miterlimit="10"/></g></svg>