<svg xmlns="http://www.w3.org/2000/svg" viewBox="0 0 1600 1437.5" height="1437.5" width="1600"><path d="M217.241 1385.73h1220.817V111.944H217.24v1273.788z" fill="#111" fill-rule="evenodd" stroke="#cccdc5" stroke-width=".8125" stroke-miterlimit="10"/><path d="M896.276 1116.351h70.203v36.243h37.64v122.629H896.276V1116.35z" fill="#e1c571" fill-rule="evenodd" stroke="#191919" stroke-width="3.125" stroke-miterlimit="10"/><path d="M703.618 966.891h67.064v-65.465h-67.065v65.465z" fill="#e1c571" fill-rule="evenodd"/><path d="M233.634 993.688h66.585V775.813h-56.701l-9.884 9.882v207.992z" fill="none" stroke="#fff" stroke-width="2.5" stroke-miterlimit="10"/><text style="-inkscape-font-specification:STHeitiSC-Medium" transform="matrix(0 -1.25 1.25 0 324.545 981.039)" font-weight="500" font-size="13.568" font-family="STHeitiSC" fill="#fff"><tspan y="0" x="0 6.5413256 12.320107 22.36208">JTAG</tspan></text><path d="M247.411 902.975h41.409l8.098 6.128v12.453l-8.098 7.46h-41.409l-8.906-7.46v-12.453l8.906-6.128z" fill="#23241f" fill-rule="evenodd" stroke="#131210" stroke-width="2.5" stroke-miterlimit="10"/><path d="M248.781 919.048h7.76v-7.737h-7.76v7.736zM277.358 919.048h7.759v-7.737h-7.76v7.736z" fill="#c1ad70" fill-rule="evenodd" stroke="#5b4925" stroke-miterlimit="10" stroke-width="1.25"/><path d="M247.411 811.661h41.409l8.098 6.128v12.454l-8.098 7.46h-41.409l-8.906-7.46v-12.454l8.906-6.128z" fill="#23241f" fill-rule="evenodd" stroke="#131210" stroke-width="2.5" stroke-miterlimit="10"/><path d="M248.781 827.734h7.76v-7.737h-7.76v7.737zM277.358 827.734h7.759v-7.737h-7.76v7.737z" fill="#c1ad70" fill-rule="evenodd" stroke="#5b4925" stroke-miterlimit="10" stroke-width="1.25"/><path d="M247.411 779.908h41.409l8.098 6.128v12.454l-8.098 7.46h-41.409l-8.906-7.46v-12.454l8.906-6.128z" fill="#23241f" fill-rule="evenodd" stroke="#131210" stroke-width="2.5" stroke-miterlimit="10"/><path d="M248.781 795.981h7.76v-7.736h-7.76v7.736zM277.358 795.981h7.759v-7.736h-7.76v7.736z" fill="#c1ad70" fill-rule="evenodd" stroke="#5b4925" stroke-miterlimit="10" stroke-width="1.25"/><path d="M247.411 963.23h41.409l8.098 6.128v12.453l-8.098 7.46h-41.409l-8.906-7.46v-12.453l8.906-6.128z" fill="#23241f" fill-rule="evenodd" stroke="#131210" stroke-width="2.5" stroke-miterlimit="10"/><path d="M248.781 979.304h7.76v-7.736h-7.76v7.736zM277.358 979.304h7.759v-7.736h-7.76v7.736z" fill="#c1ad70" fill-rule="evenodd" stroke="#5b4925" stroke-miterlimit="10" stroke-width="1.25"/><path d="M247.411 871.916h41.409l8.098 6.128v12.454l-8.098 7.46h-41.409l-8.906-7.46v-12.454l8.906-6.128z" fill="#23241f" fill-rule="evenodd" stroke="#131210" stroke-width="2.5" stroke-miterlimit="10"/><path d="M248.781 887.99h7.76v-7.736h-7.76v7.736zM277.358 887.99h7.759v-7.736h-7.76v7.736z" fill="#c1ad70" fill-rule="evenodd" stroke="#5b4925" stroke-miterlimit="10" stroke-width="1.25"/><path d="M247.411 933.194h41.409l8.098 6.127v12.454l-8.098 7.46h-41.409l-8.906-7.46v-12.454l8.906-6.127z" fill="#23241f" fill-rule="evenodd" stroke="#131210" stroke-width="2.5" stroke-miterlimit="10"/><path d="M248.781 949.266h7.76v-7.736h-7.76v7.736zM277.358 949.266h7.759v-7.736h-7.76v7.736z" fill="#c1ad70" fill-rule="evenodd" stroke="#5b4925" stroke-miterlimit="10" stroke-width="1.25"/><path d="M247.411 841.88h41.409l8.098 6.128v12.453l-8.098 7.46h-41.409l-8.906-7.46v-12.453l8.906-6.128z" fill="#23241f" fill-rule="evenodd" stroke="#131210" stroke-width="2.5" stroke-miterlimit="10"/><path d="M248.781 857.954h7.76v-7.736h-7.76v7.736zM277.358 857.954h7.759v-7.736h-7.76v7.736z" fill="#c1ad70" fill-rule="evenodd" stroke="#5b4925" stroke-miterlimit="10" stroke-width="1.25"/><path d="M238.487 1253.352h30.666v-183.548h-30.666v183.548z" fill="none" stroke="#fff" stroke-width="2.5" stroke-miterlimit="10"/><path d="M245.42 1075.521h14.336l8.905 6.34v12.886l-8.905 7.72H245.42l-8.906-7.72v-12.886l8.906-6.34z" fill="#23241f" fill-rule="evenodd" stroke="#131210" stroke-width="2.5" stroke-miterlimit="10"/><path d="M248.388 1092.493h7.759v-8.005h-7.76v8.004z" fill="#c1ad70" fill-rule="evenodd" stroke="#5b4925" stroke-miterlimit="10" stroke-width="1.25"/><path d="M300.765 1254.676h14.336l8.905 6.34v12.886l-8.905 7.72h-14.336l-8.906-7.72v-12.886l8.906-6.34z" fill="#23241f" fill-rule="evenodd" stroke="#131210" stroke-width="2.5" stroke-miterlimit="10"/><path d="M303.732 1271.649h7.76v-8.005h-7.76v8.005z" fill="#c1ad70" fill-rule="evenodd" stroke="#5b4925" stroke-miterlimit="10" stroke-width="1.25"/><path d="M1382.988 1254.676h14.337l8.9 6.34v12.886l-8.9 7.72h-14.337l-8.913-7.72v-12.886l8.913-6.34z" fill="#23241f" fill-rule="evenodd" stroke="#131210" stroke-width="2.5" stroke-miterlimit="10"/><path d="M1385.95 1271.649h7.76v-8.005h-7.76v8.005z" fill="#c1ad70" fill-rule="evenodd" stroke="#5b4925" stroke-miterlimit="10" stroke-width="1.25"/><path d="M301.075 183.075h14.338l8.903 6.341v12.885l-8.903 7.719h-14.338l-8.906-7.719v-12.885l8.906-6.341z" fill="#23241f" fill-rule="evenodd" stroke="#131210" stroke-width="2.5" stroke-miterlimit="10"/><path d="M304.043 200.048h7.759v-8.005h-7.76v8.005z" fill="#c1ad70" fill-rule="evenodd" stroke="#5b4925" stroke-miterlimit="10" stroke-width="1.25"/><path d="M245.42 1137.114h14.336l8.905 6.34v12.885l-8.905 7.72H245.42l-8.906-7.72v-12.885l8.906-6.34z" fill="#23241f" fill-rule="evenodd" stroke="#131210" stroke-width="2.5" stroke-miterlimit="10"/><path d="M248.388 1154.085h7.759v-8.005h-7.76v8.005z" fill="#c1ad70" fill-rule="evenodd" stroke="#5b4925" stroke-miterlimit="10" stroke-width="1.25"/><path d="M245.42 1200.197h14.336l8.905 6.342v12.885l-8.905 7.72H245.42l-8.906-7.72v-12.885l8.906-6.342z" fill="#23241f" fill-rule="evenodd" stroke="#131210" stroke-width="2.5" stroke-miterlimit="10"/><path d="M248.388 1217.17h7.759v-8.005h-7.76v8.005z" fill="#c1ad70" fill-rule="evenodd" stroke="#5b4925" stroke-miterlimit="10" stroke-width="1.25"/><path d="M245.42 1106.445h14.336l8.905 6.34v12.886l-8.905 7.719H245.42l-8.906-7.719v-12.886l8.906-6.34z" fill="#23241f" fill-rule="evenodd" stroke="#131210" stroke-width="2.5" stroke-miterlimit="10"/><path d="M248.388 1123.418h7.759v-8.005h-7.76v8.004z" fill="#c1ad70" fill-rule="evenodd" stroke="#5b4925" stroke-miterlimit="10" stroke-width="1.25"/><path d="M245.42 1168.037h14.336l8.905 6.34v12.887l-8.905 7.718H245.42l-8.906-7.718v-12.887l8.906-6.34z" fill="#23241f" fill-rule="evenodd" stroke="#131210" stroke-width="2.5" stroke-miterlimit="10"/><path d="M248.388 1185.01h7.759v-8.005h-7.76v8.005z" fill="#c1ad70" fill-rule="evenodd" stroke="#5b4925" stroke-miterlimit="10" stroke-width="1.25"/><path d="M245.42 1231.122h14.336l8.905 6.34v12.887l-8.905 7.718H245.42l-8.906-7.718v-12.887l8.906-6.34z" fill="#23241f" fill-rule="evenodd" stroke="#131210" stroke-width="2.5" stroke-miterlimit="10"/><path d="M248.388 1248.095h7.759v-8.005h-7.76v8.005z" fill="#c1ad70" fill-rule="evenodd" stroke="#5b4925" stroke-miterlimit="10" stroke-width="1.25"/><text style="-inkscape-font-specification:STHeitiSC-Medium" transform="matrix(1.25 0 0 1.25 281.975 1094.989)" font-weight="500" font-size="13.568" font-family="STHeitiSC" fill="#fff"><tspan y="0" x="0 7.5155368 11.27534 18.790876">3.3V</tspan></text><text style="-inkscape-font-specification:STHeitiSC-Medium" transform="matrix(1.25 0 0 1.25 283.017 1125.321)" font-weight="500" font-size="13.568" font-family="STHeitiSC" fill="#fff"><tspan y="0" x="0 6.75842 13.543977 16.609079">S_IN</tspan></text><text style="-inkscape-font-specification:STHeitiSC-Medium" transform="matrix(1.25 0 0 1.25 274.674 1216.314)" font-weight="500" font-size="13.568" font-family="STHeitiSC" fill="#fff"><tspan y="0" x="0 6.75842 13.543977 25.336273 34.224934">S_OUT</tspan></text><text style="-inkscape-font-specification:STHeitiSC-Medium" transform="matrix(1.25 0 0 1.25 279.694 1246.21)" font-weight="500" font-size="13.568" font-family="STHeitiSC" fill="#fff"><tspan y="0" x="0 11.833002 21.874975">GND</tspan></text><text style="-inkscape-font-specification:STHeitiSC-Medium" transform="rotate(-90 741.27 440.15) scale(1.25)" font-weight="500" font-size="13.568" font-family="STHeitiSC" fill="#fff"><tspan y="0" x="0 8.8886585 18.930632 27.168007">UART</tspan></text><path d="M265.238 1309.565c12.55 0 22.74 9.939 22.74 22.18s-10.19 22.18-22.74 22.18c-12.552 0-22.743-9.939-22.743-22.18s10.191-22.18 22.742-22.18zM265.238 131.1c12.55 0 22.74 9.938 22.74 22.175 0 12.25-10.19 22.188-22.74 22.188-12.552 0-22.743-9.938-22.743-22.188 0-12.237 10.191-22.175 22.742-22.175zM711.339 354.813c12.551 0 22.742 9.938 22.742 22.18 0 12.24-10.191 22.178-22.742 22.178-12.552 0-22.742-9.937-22.742-22.179 0-12.24 10.19-22.18 22.742-22.18zM629.05 659.535c12.551 0 22.741 9.939 22.741 22.179 0 12.241-10.19 22.18-22.741 22.18s-22.741-9.939-22.741-22.18c0-12.24 10.19-22.179 22.741-22.179zM637.52 1203.17c12.551 0 22.741 9.938 22.741 22.179 0 12.241-10.19 22.179-22.741 22.179-12.553 0-22.742-9.938-22.742-22.18 0-12.24 10.19-22.178 22.742-22.178zM923.508 1151.389c12.55 0 22.74 9.937 22.74 22.179 0 12.24-10.19 22.18-22.74 22.18-12.552 0-22.742-9.94-22.742-22.18 0-12.242 10.19-22.18 22.742-22.18z" fill="#fff" fill-rule="evenodd" stroke="#e1c571" stroke-width="6.875" stroke-miterlimit="10"/><path d="M1211.276 1233.784c25.765 0 46.686 20.401 46.686 45.53 0 25.128-20.92 45.53-46.686 45.53s-46.685-20.402-46.685-45.53c0-25.129 20.919-45.53 46.685-45.53z" fill="#fff" fill-rule="evenodd" stroke="#e1c571" stroke-width="16.25" stroke-miterlimit="10"/><path d="M1391.25 1309.565c12.55 0 22.738 9.939 22.738 22.18s-10.188 22.18-22.738 22.18c-12.55 0-22.738-9.939-22.738-22.18s10.188-22.18 22.738-22.18zM1391.25 139.275c12.55 0 22.738 9.938 22.738 22.175 0 12.25-10.188 22.188-22.738 22.188-12.55 0-22.738-9.938-22.738-22.188 0-12.237 10.188-22.175 22.738-22.175z" fill="#fff" fill-rule="evenodd" stroke="#e1c571" stroke-width="6.875" stroke-miterlimit="10"/><path d="M351.145 1364.915h959.875V538.182H351.145v826.733z" fill="none" stroke="#dddeda" stroke-width="32.5" stroke-miterlimit="10"/><path d="M738.438 537.498v826.448H386.27V670.224h42.138v-26.468H386.27V537.498h352.168" fill="none" stroke="#fff" stroke-width="2.5" stroke-miterlimit="10"/><path d="M465.202 1326h248.555v-35.1H465.202v35.1z" fill="#c5c3b6" fill-rule="evenodd" stroke="#c8c7b5" stroke-width="5" stroke-miterlimit="10"/><path d="M545.691 1291.662c46.899-5.018 93.755-3.675 140.596 0 9.322 1.588 16.45 4.894 20.58 10.553-4.026 9.076-12.722 14.658-24.61 17.849-18.5 5.25-31.84 3.45-36.95-6.896-.888-1.8.773-3.883 4.538-4.45 12.512-1.887 24.654-5.082 36.442-9.628-45.305-4.015-90.59-5.5-135.825 0-4.893.701-10.2.458-10.787-3.389-.346-2.272 2.911-3.706 6.016-4.038z" fill="#b1b09c" fill-rule="evenodd" stroke="#a6a6a6" stroke-miterlimit="10" stroke-width="1.25"/><path d="M635.054 1321.585c16.736.797 33.479 1.03 50.239 0 1.577-.097 2.156 1.635 1.783 3.288-.891 3.953-3.717 6.787-9.038 6.787h-32.79c-9.002.355-11.684-2.79-12.828-6.787-.479-1.676.69-3.38 2.634-3.288z" fill="#b1b09c" fill-rule="evenodd" stroke="#a6a6a6" stroke-miterlimit="10" stroke-width="1.25"/><path d="M465.421 610.944h248.555v-35.1H465.421v35.1z" fill="#c5c3b6" fill-rule="evenodd" stroke="#c8c7b5" stroke-width="5" stroke-miterlimit="10"/><path d="M545.909 610.18c46.898 5.019 93.755 3.675 140.596 0 9.321-1.587 16.45-4.894 20.58-10.552-4.026-9.077-12.721-14.658-24.611-17.85-18.5-5.25-31.839-3.45-36.949 6.897-.889 1.798.772 3.883 4.539 4.45 12.512 1.886 24.652 5.08 36.441 9.626-45.305 4.015-90.591 5.502-135.825 0-4.894-.7-10.199-.456-10.786 3.39-.348 2.273 2.91 3.707 6.015 4.039z" fill="#b1b09c" fill-rule="evenodd" stroke="#a6a6a6" stroke-miterlimit="10" stroke-width="1.25"/><path d="M635.271 580.258c16.737-.798 33.479-1.032 50.239 0 1.578.096 2.156-1.635 1.784-3.29-.891-3.952-3.718-6.785-9.039-6.785h-32.789c-9.001-.355-11.685 2.788-12.827 6.786-.48 1.677.688 3.381 2.632 3.288z" fill="#b1b09c" fill-rule="evenodd" stroke="#a6a6a6" stroke-miterlimit="10" stroke-width="1.25"/><path d="M465.421 1327.138h33.861V575.843h-33.86v751.295z" fill="#c5c3b6" fill-rule="evenodd" stroke="#c8c7b5" stroke-width="5" stroke-miterlimit="10"/><path d="M470.538 689.48h51.565M470.538 638.745h51.565M470.538 1035.194h51.565M470.538 804.716h51.565M470.538 1150.429h51.565M470.538 919.985h51.565M470.538 1265.699h51.565M470.538 747.01h51.565M470.538 1092.722h51.565M470.538 862.245h51.565M470.538 1207.957h51.565M470.538 977.515h51.565M470.538 718.336h51.565M470.538 1064.05h51.565M470.538 833.571h51.565M470.538 1179.285h51.565M470.538 948.841h51.565M470.538 775.865h51.565M470.538 1121.579h51.565M470.538 891.1h51.565M470.538 1236.814h51.565M470.538 1006.37h51.565M470.538 698.976h51.565M470.538 1044.69h51.565M470.538 814.211h51.565M470.538 1159.925h51.565M470.538 929.481h51.565M470.538 756.505h51.565M470.538 1102.219h51.565M470.538 871.74h51.565M470.538 1217.454h51.565M470.538 987.01h51.565M470.538 727.831h51.565M470.538 1073.545h51.565M470.538 843.067h51.565M470.538 1188.78h51.565M470.538 958.336h51.565M470.538 785.361h51.565M470.538 1131.074h51.565M470.538 900.596h51.565M470.538 1246.309h51.565M470.538 1015.866h51.565M470.538 708.974h51.565M470.538 1054.688h51.565M470.538 824.209h51.565M470.538 1169.923h51.565M470.538 939.479h51.565M470.538 766.503h51.565M470.538 1112.216h51.565M470.538 881.739h51.565M470.538 1227.451h51.565M470.538 997.007h51.565M470.538 737.83h51.565M470.538 1083.543h51.565M470.538 853.065h51.565M470.538 1198.777h51.565M470.538 968.335h51.565M470.538 795.359h51.565M470.538 1141.072h51.565M470.538 910.594h51.565M470.538 1256.307h51.565M470.538 1025.864h51.565" fill="none" stroke="#e3c881" stroke-width="5" stroke-miterlimit="10"/><path d="M413.414 1260.652h-17.06M413.414 1030.229h-17.06M413.414 1203.766h-17.06M413.414 973.342h-17.06M413.414 1145.79h-17.06M413.414 915.366h-17.06M413.414 1088.174h-17.06M413.414 857.75h-17.06M413.414 779.896h-17.06M413.414 1241.74h-17.06M413.414 1011.316h-17.06M413.414 1184.852h-17.06M413.414 954.429h-17.06M413.414 1126.878h-17.06M413.414 896.454h-17.06M413.414 1069.261h-17.06M413.414 838.837h-17.06M413.414 760.984h-17.06M413.414 712.625h-17.06M413.414 1222.813h-17.06M413.414 992.389h-17.06M413.414 1165.925h-17.06M413.414 935.503h-17.06M413.414 1107.95h-17.06M413.414 877.526h-17.06M413.414 799.673h-17.06M413.414 1050.334h-17.06M413.414 819.91h-17.06M413.414 742.056h-17.06M413.414 693.697h-17.06M413.414 1251.274h-17.06M413.414 1020.85h-17.06M413.414 1194.388h-17.06M413.414 963.964h-17.06M413.414 1136.411h-17.06M413.414 905.988h-17.06M413.414 1078.795h-17.06M413.414 848.371h-17.06M413.414 770.517h-17.06M413.414 722.159h-17.06M413.414 1232.361h-17.06M413.414 1001.938h-17.06M413.414 1175.475h-17.06M413.414 945.051h-17.06M413.414 1117.499h-17.06M413.414 887.075h-17.06M413.414 1059.882h-17.06M413.414 829.459h-17.06M413.414 751.605h-17.06M413.414 703.246h-17.06M413.414 1213.434h-17.06M413.414 983.01h-17.06M413.414 1156.548h-17.06M413.414 926.124h-17.06M413.414 1098.571h-17.06M413.414 868.147h-17.06M413.414 790.294h-17.06M413.414 1040.955h-17.06M413.414 810.531h-17.06M413.414 732.678h-17.06M413.414 684.319h-17.06M413.414 634.049h-17.06" fill="none" stroke="#c0c2b7" stroke-width="5" stroke-miterlimit="10"/><path d="M393.392 569.699v33.65h15.268v696.002h-15.268v34.14h113.62v-9.43s-31.452.489-31.452 0V579.55h31.451v-9.851H393.392" fill="#efe8d5" fill-rule="evenodd" stroke="#e7dcbe" stroke-width="2.5" stroke-miterlimit="10"/><text style="-inkscape-font-specification:STHeitiSC-Medium" transform="matrix(1.25 0 0 1.25 1359.288 264.601)" font-weight="500" font-size="13.568" font-family="STHeitiSC" fill="#fff"><tspan y="0" x="0 8.0311356 19.823433">POE</tspan></text><text style="-inkscape-font-specification:STHeitiSC-Medium" transform="matrix(1.25 0 0 1.25 1350.375 280.65)" font-weight="500" font-size="13.568" font-family="STHeitiSC" fill="#fff"><tspan y="0" x="0 8.0311356 19.823433 28.060808 33.839588">PORT1</tspan></text><text style="-inkscape-font-specification:STHeitiSC-Medium" transform="matrix(1.25 0 0 1.25 1396.362 843.933)" font-weight="500" font-size="13.568" font-family="STHeitiSC" fill="#fff"><tspan y="0" x="0 6.75842 19.78544">SW5</tspan></text><text style="-inkscape-font-specification:STHeitiSC-Medium" transform="matrix(1.25 0 0 1.25 802.554 205.76)" font-weight="500" font-size="13.568" font-family="STHeitiSC" fill="#fff"><tspan y="0" x="0 6.75842 19.78544">SW4</tspan></text><path d="M1363.025 792.803c5.587 0 10.137 4.54 10.137 10.132 0 5.591-4.55 10.131-10.137 10.131-5.587 0-10.137-4.54-10.137-10.131 0-5.592 4.55-10.132 10.137-10.132zM1363.025 710.569c5.587 0 10.137 4.54 10.137 10.132s-4.55 10.132-10.137 10.132c-5.587 0-10.137-4.54-10.137-10.132s4.55-10.132 10.137-10.132z" fill="#eaece4" fill-rule="evenodd" stroke="#c5b172" stroke-width=".8125" stroke-miterlimit="10"/><path d="M1339.188 819.87h70.203V702.786h-70.204V819.87z" fill="none" stroke="#fff" stroke-width="2.5" stroke-miterlimit="10"/><path d="M1422.763 743.091h8.525l2.537 3.145v34.408l-2.537 2.676h-6.413l-2.112-40.229z" fill="#262626" fill-rule="evenodd" stroke="#191919" stroke-miterlimit="10" stroke-width="1.25"/><path d="M1379.375 799.661h49.512V729.5h-49.512v70.161z" fill="#262626" fill-rule="evenodd" stroke="#191919" stroke-miterlimit="10" stroke-width="1.25"/><path d="M1347.1 719.839h70.213c4.487 0 5.612 1.096 5.612 6.753v70.32c0 7.14.038 7.775-5.612 7.775H1347.1" fill="none" stroke="#92938e" stroke-width="3.75" stroke-miterlimit="10"/><path d="M1384.263 740.411h5.412v-5.584h-5.412v5.584zM1384.263 793.893h5.412v-5.584h-5.412v5.584z" fill="#c1ad70" fill-rule="evenodd" stroke="#5b4925" stroke-miterlimit="10" stroke-width="1.25"/><path d="M880.638 163.6c0-5.588 4.54-10.125 10.132-10.125 5.591 0 10.131 4.537 10.131 10.125 0 5.587-4.54 10.137-10.131 10.137-5.592 0-10.132-4.55-10.132-10.137zM798.404 163.6c0-5.588 4.54-10.125 10.131-10.125 5.593 0 10.133 4.537 10.133 10.125 0 5.587-4.54 10.137-10.133 10.137-5.591 0-10.131-4.55-10.131-10.137z" fill="#eaece4" fill-rule="evenodd" stroke="#c5b172" stroke-width=".8125" stroke-miterlimit="10"/><path d="M790.62 187.438h117.084v-70.204H790.62v70.204z" fill="none" stroke="#fff" stroke-width="2.5" stroke-miterlimit="10"/><path d="M830.925 103.862v-8.525l3.146-2.537h34.406l2.677 2.537v6.413l-40.229 2.112z" fill="#262626" fill-rule="evenodd" stroke="#191919" stroke-miterlimit="10" stroke-width="1.25"/><path d="M817.335 147.25h70.161V97.738h-70.161v49.512z" fill="#262626" fill-rule="evenodd" stroke="#191919" stroke-miterlimit="10" stroke-width="1.25"/><path d="M807.674 179.525v-70.212c0-4.488 1.095-5.613 6.754-5.613h70.318c7.139 0 7.777-.037 7.777 5.613v70.212" fill="none" stroke="#92938e" stroke-width="3.75" stroke-miterlimit="10"/><path d="M822.663 142.363h5.583v-5.413h-5.583v5.413zM876.142 142.363h5.584v-5.413h-5.584v5.413z" fill="#c1ad70" fill-rule="evenodd" stroke="#5b4925" stroke-miterlimit="10" stroke-width="1.25"/><path d="M1335.4 121.513c8.137 0 14.75 6.437 14.75 14.375 0 7.937-6.613 14.387-14.75 14.387-8.138 0-14.75-6.45-14.75-14.387 0-7.938 6.612-14.375 14.75-14.375z" fill="#94906b" fill-rule="evenodd" stroke="#e1c571" stroke-width="3.75" stroke-miterlimit="10"/><path d="M1150.122 121.513c8.14 0 14.747 6.437 14.747 14.375 0 7.937-6.608 14.387-14.747 14.387-8.138 0-14.746-6.45-14.746-14.387 0-7.938 6.608-14.375 14.747-14.375z" fill="#8d8b76" fill-rule="evenodd" stroke="#e1c571" stroke-width="3.75" stroke-miterlimit="10"/><path d="M1150.122 196.153c8.14 0 14.747 6.445 14.747 14.382 0 7.936-6.608 14.381-14.747 14.381-8.138 0-14.746-6.445-14.746-14.381 0-7.937 6.608-14.382 14.747-14.382zM1333.613 196.153c8.137 0 14.75 6.445 14.75 14.382 0 7.936-6.613 14.381-14.75 14.381-8.138 0-14.738-6.445-14.738-14.381 0-7.937 6.6-14.382 14.738-14.382z" fill="#fff" fill-rule="evenodd" stroke="#e1c571" stroke-width="3.75" stroke-miterlimit="10"/><path d="M1150.733 296.654h178.09V70.642h-178.09v226.012z" fill="#aaa898" fill-rule="evenodd" stroke="#928c70" stroke-width="2.5" stroke-miterlimit="10"/><path d="M1205.694 70.737v41.938c0 4.787 9.028 4.862 9.028 0h46.865c0 5.725 8.65 5.575 8.65 0V70.737h-64.543z" fill="#3f3c37" fill-rule="evenodd" stroke="#928c70" stroke-width="2.5" stroke-miterlimit="10"/><path d="M1215.638 108.162h44.393V70.617h-44.393v37.545z" fill="#f3f1dc" fill-rule="evenodd" stroke="#928c70" stroke-width="2.5" stroke-miterlimit="10"/><path d="M1377.287 531.983h19.707v-11.86h-19.706v11.86zM1377.287 682.399h19.707v-11.86h-19.706v11.86z" fill="#aaa899" fill-rule="evenodd"/><path d="M1060.072 375.265v-48.154h314.166V454.78h-314.166v-47.643h37.022v-31.871h-37.022z" fill="none" stroke="#fff" stroke-miterlimit="10" stroke-width="1.25"/><path d="M1066.849 450.638h301.221V334.516h-301.221v116.122z" fill-rule="evenodd" stroke="#191919" stroke-width="3.125" stroke-miterlimit="10"/><path d="M1362.35 669.301h57.335V532.307h-57.335v136.994z" fill="#323232" fill-rule="evenodd" stroke="#928c70" stroke-width="3.75" stroke-miterlimit="10"/><path d="M1415.462 564.592c0-14.306-11.612-25.92-25.912-25.92-14.313 0-25.925 11.614-25.925 25.92v73.832c0 14.305 11.612 25.92 25.925 25.92 14.3 0 25.913-11.615 25.913-25.92v-73.832z" fill="#98927a" fill-rule="evenodd" stroke="#a79e77" stroke-width="5.625" stroke-miterlimit="10"/></svg>