<?xml version="1.0" encoding="UTF-8"?>
<!DOCTYPE svg  PUBLIC '-//W3C//DTD SVG 1.1//EN'  'http://www.w3.org/Graphics/SVG/1.1/DTD/svg11.dtd'>
<svg clip-rule="evenodd" fill-rule="evenodd" stroke-linecap="round" stroke-linejoin="round" stroke-miterlimit="1.4142" version="1.1" viewBox="0 0 1280 1150" xmlns="http://www.w3.org/2000/svg"><g id="Ebene2"><g transform="matrix(1 0 0 .65376 0 375.21)"><path d="m502.74 1015.7c1.487 27.35 6.168 46.21 15.188 53.57 14.153 9.96 30.149 14.09 47.464 14.35h163.83c15.162 0.16 28.624-4.28 39.997-14.35 6.947-7.37 11.655-21.44 11.121-53.57l3.297-857.28c2.42-39.839-22.153-56.968-66.11-57.788h-147.43c-39.605 1.088-64.472 17.343-65.834 57.788l-1.526 857.28z" fill="#e2e2e2" stroke="#000" stroke-width="1.18px"/></g><path d="m509.78 947.34h266.22v81.499c-0.423 15.68-0.977 29.52-6.29 37.66-6.201 8.38-20.342 12.98-35.404 15.08h-119.77v-11.06c-7.755-2.4-15.478-2.55-23.163 0v11.06h-26.704c-18.378-1.38-40.205-5.55-48.224-15.08-7.112-11.87-6.84-24.63-6.661-39.03v-80.129z" fill="#e2e2e2" stroke="#000" stroke-width="1px"/><g transform="matrix(1 0 0 .5932 0 385.39)"><path d="m509.95 947.39 265.96-0.071v-774.99c-0.266-10.453-0.631-20.896-1.594-31.284-0.606-10.507-3.591-16.279-6.578-19.413-6.34-5.75-12.949-9.427-19.767-11.505-9.307-3.481-20.391-4.352-31.787-4.765h-142.5c-14.882 6e-3 -25.17 1.918-33.204 4.765-6.499 2.588-12.526 6.189-17.754 11.505-4.724 6.372-6.457 12.891-8.133 19.413-2.723 10.483-4.134 20.905-4.647 31.284v775.06z" fill="#e2e2e2" stroke="#000" stroke-width="1.22px"/></g><g transform="translate(0 -1.1205)"><path d="m591.36 1082.7h23.163" fill="#e2e2e2" stroke="#000" stroke-width="1px"/></g><g transform="translate(-.16674 346.73)"><rect x="509.95" y="141.73" width="265.96" height="34.491" fill="url(#_Linear1)"/></g><g transform="matrix(1 0 0 .59327 0 385.33)"><path d="m509.95 947.39 265.96-0.071v-774.99c-0.266-10.453-0.631-20.896-1.594-31.284-0.606-10.507-3.591-16.279-6.578-19.413-6.34-5.75-12.949-9.427-19.767-11.505-9.307-3.481-20.391-4.352-31.787-4.765h-142.5c-14.882 6e-3 -25.17 1.918-33.204 4.765-6.499 2.588-12.526 6.189-17.754 11.505-4.724 6.372-6.457 12.891-8.133 19.413-2.723 10.483-4.134 20.905-4.647 31.284v775.06z" fill="none" stroke="#000" stroke-width="1.22px"/></g></g><defs><linearGradient id="_Linear1" x2="1" gradientTransform="matrix(.26579 36.801 -36.801 .26579 639.69 140.63)" gradientUnits="userSpaceOnUse"><stop stop-color="#dedede" offset="0"/><stop stop-color="#fff" offset=".5"/><stop stop-color="#dedede" offset="1"/></linearGradient></defs></svg>
