<?xml version="1.0" encoding="UTF-8"?>
<!DOCTYPE svg  PUBLIC '-//W3C//DTD SVG 1.1//EN'  'http://www.w3.org/Graphics/SVG/1.1/DTD/svg11.dtd'>
<svg clip-rule="evenodd" fill-rule="evenodd" stroke-linecap="round" stroke-linejoin="round" stroke-miterlimit="1.4142" version="1.1" viewBox="0 0 1280 1150" xmlns="http://www.w3.org/2000/svg" xmlns:serif="http://www.serif.com/"><g id="Unifi-ap-mesh" serif:id="Unifi ap mesh"><g id="Antenne-Links" serif:id="Antenne Links"><g id="_-Rechteck-" transform="matrix(1.0159 0 0 1 -9.7619 0)" serif:id="(Rechteck)"><rect x="583.5" y="424.5" width="31.5" height="8.5" fill="#b8bbc0" stroke="#000" stroke-width=".99px"/></g><path d="m581 366h35c3.05-1.274 6-5.001 6-9v-311.5c0-6.621-7.135-14.5-14-14.5h-19c-7.46 0-14 7.803-14 14.5v311.5c0 3.896 2.638 7.887 6 9z" fill="#ecedef" stroke="#000" stroke-width="1px"/><g stroke="#000" stroke-width="1px"><path d="m578.5 427h39.5v-61l-4-7v-42c0-7.094-6.27-13.457-16.25-13.5-10.859-0.047-16.25 6.386-16.25 13.5v42l-3 7v61z" fill="#eeeef0"/><path d="m578.5 373h39.5" fill="none"/></g></g><g id="Antenne-Rechts" serif:id="Antenne Rechts"><g transform="matrix(1.0159 0 0 1 86.238 0)"><rect x="583.5" y="424.5" width="31.5" height="8.5" fill="#b8bbc0" stroke="#000" stroke-width=".99px"/></g><g transform="translate(96.453)"><path d="m581 366h35c3.05-1.274 6-5.001 6-9v-311.5c0-6.621-7.135-14.5-14-14.5h-19c-7.46 0-14 7.803-14 14.5v311.5c0 3.896 2.638 7.887 6 9z" fill="#ecedef" stroke="#000" stroke-width="1px"/></g><g transform="translate(95.684)" stroke="#000" stroke-width="1px"><path d="m578.5 427h39.5v-61l-4-7v-42c0-7.094-6.27-13.457-16.25-13.5-10.859-0.047-16.25 6.386-16.25 13.5v42l-3 7v61z" fill="#eeeef0"/><path d="m578.5 373h39.5" fill="none"/></g></g><g id="Body" stroke="#000" stroke-width="1px"><path d="m578.5 429.5h39v81c4.568 9.417 9.932 3.007 17 1.5 7.86-1.676 15.682-1.795 23.5 0 7.563 1.737 12.862 7.942 17-1.5v-81h40v610.5c-1.598 43-24.249 70.42-67.786 70-39.088-0.38-64.081-21.76-68.714-70v-610.5z" fill="#f2f3f5"/><path d="m623 1e3c1.273 2.67 2.919 6.5 7 6.5h33c4.443 0 5.296-3.69 7-6.5" fill="none"/><path d="m578.5 1e3h136.5" fill="none"/></g></g></svg>
