<?xml version="1.0" encoding="UTF-8"?>
<!DOCTYPE svg  PUBLIC '-//W3C//DTD SVG 1.1//EN'  'http://www.w3.org/Graphics/SVG/1.1/DTD/svg11.dtd'>
<svg clip-rule="evenodd" fill-rule="evenodd" stroke-linecap="round" stroke-linejoin="round" stroke-miterlimit="1.4142" version="1.1" viewBox="0 0 1280 1150" xmlns="http://www.w3.org/2000/svg"><g transform="matrix(1.0112 0 0 1.0051 -3.0814 .94878)"><rect x="174.91" y="88.156" width="965.8" height="1013.8" fill="#111" stroke="#cccdc5" stroke-width=".64px"/></g><path d="m717.02 893.08h56.162v28.994h30.112v98.105h-86.274v-127.1z" fill="#e1c571" stroke="#1a1a1a" stroke-width="2.5px"/><rect x="562.89" y="721.14" width="53.652" height="52.372" fill="#e1c571"/><g id="jtag"><path d="m186.91 794.95h53.268v-174.3h-45.361l-7.907 7.906v166.39z" fill="none" stroke="#fff" stroke-width="2px"/><g id="JTAG" transform="matrix(-1.6081e-16 -1 1 -1.6081e-16 -615.37 993.82)" fill="#fff" fill-rule="nonzero"><path d="m214.44 870.94c0 0.913-0.07 1.592-0.21 2.035s-0.411 0.798-0.814 1.065c-0.402 0.267-0.837 0.4-1.303 0.4-0.465 0-0.895-0.072-1.289-0.217-0.393-0.145-0.857-0.448-1.39-0.909l0.624-0.923c0.525 0.38 0.923 0.634 1.194 0.76 0.271 0.127 0.536 0.19 0.794 0.19 0.257 0 0.495-0.095 0.712-0.285s0.355-0.436 0.414-0.739 0.088-0.776 0.088-1.418v-6.635h1.18v6.676z"/><path d="m221.19 865.4h-2.171v8.792h-1.18v-8.792h-2.185v-1.14h5.536v1.14z"/><path d="m231.16 874.19h-1.235l-1.533-3.324h-4.098l-1.52 3.324h-1.289l4.695-10.325h0.353l4.627 10.325zm-3.297-4.505-1.506-3.351-1.52 3.351h3.026z"/><path d="m242.64 869.34c-0.028 1.61-0.496 2.863-1.405 3.758-0.909 0.896-2.105 1.343-3.589 1.343-1.7 0-3.057-0.522-4.07-1.567s-1.52-2.268-1.52-3.67 0.507-2.617 1.52-3.643c1.013-1.027 2.32-1.54 3.921-1.54 0.869 0 1.676 0.16 2.422 0.481 0.746 0.322 1.477 0.812 2.191 1.473l-0.895 0.854c-0.552-0.533-1.149-0.943-1.791-1.228-0.642-0.284-1.303-0.427-1.981-0.427-0.679 0-1.352 0.181-2.022 0.543-0.669 0.362-1.194 0.85-1.574 1.465s-0.57 1.28-0.57 1.995c0 1.112 0.419 2.083 1.255 2.91 0.837 0.828 1.884 1.242 3.142 1.242 0.931 0 1.736-0.256 2.415-0.767 0.678-0.511 1.094-1.21 1.248-2.096h-3.094v-1.126h4.397z"/></g><g transform="translate(0 98.221)"><path d="m197.93 624.16h33.127l6.478 4.902v9.963l-6.478 5.968h-33.127l-7.125-5.968v-9.963l7.125-4.902z" fill="#23241f" stroke="#131210" stroke-width="2px"/><g transform="matrix(.52982 0 0 .49431 -3.0896 488.47)"><rect x="381.48" y="287.99" width="11.716" height="12.521" fill="#c1ad70" stroke="#5b4925" stroke-linecap="square" stroke-linejoin="miter" stroke-width="1.95px"/></g><g transform="matrix(.52982 0 0 .49431 19.772 488.47)"><rect x="381.48" y="287.99" width="11.716" height="12.521" fill="#c1ad70" stroke="#5b4925" stroke-linecap="square" stroke-linejoin="miter" stroke-width="1.95px"/></g></g><g transform="translate(0 25.17)"><path d="m197.93 624.16h33.127l6.478 4.902v9.963l-6.478 5.968h-33.127l-7.125-5.968v-9.963l7.125-4.902z" fill="#23241f" stroke="#131210" stroke-width="2px"/><g transform="matrix(.52982 0 0 .49431 -3.0896 488.47)"><rect x="381.48" y="287.99" width="11.716" height="12.521" fill="#c1ad70" stroke="#5b4925" stroke-linecap="square" stroke-linejoin="miter" stroke-width="1.95px"/></g><g transform="matrix(.52982 0 0 .49431 19.772 488.47)"><rect x="381.48" y="287.99" width="11.716" height="12.521" fill="#c1ad70" stroke="#5b4925" stroke-linecap="square" stroke-linejoin="miter" stroke-width="1.95px"/></g></g><g transform="translate(0 -.23208)"><path d="m197.93 624.16h33.127l6.478 4.902v9.963l-6.478 5.968h-33.127l-7.125-5.968v-9.963l7.125-4.902z" fill="#23241f" stroke="#131210" stroke-width="2px"/><g transform="matrix(.52982 0 0 .49431 -3.0896 488.47)"><rect x="381.48" y="287.99" width="11.716" height="12.521" fill="#c1ad70" stroke="#5b4925" stroke-linecap="square" stroke-linejoin="miter" stroke-width="1.95px"/></g><g transform="matrix(.52982 0 0 .49431 19.772 488.47)"><rect x="381.48" y="287.99" width="11.716" height="12.521" fill="#c1ad70" stroke="#5b4925" stroke-linecap="square" stroke-linejoin="miter" stroke-width="1.95px"/></g></g><g transform="translate(0 146.42)"><path d="m197.93 624.16h33.127l6.478 4.902v9.963l-6.478 5.968h-33.127l-7.125-5.968v-9.963l7.125-4.902z" fill="#23241f" stroke="#131210" stroke-width="2px"/><g transform="matrix(.52982 0 0 .49431 -3.0896 488.47)"><rect x="381.48" y="287.99" width="11.716" height="12.521" fill="#c1ad70" stroke="#5b4925" stroke-linecap="square" stroke-linejoin="miter" stroke-width="1.95px"/></g><g transform="matrix(.52982 0 0 .49431 19.772 488.47)"><rect x="381.48" y="287.99" width="11.716" height="12.521" fill="#c1ad70" stroke="#5b4925" stroke-linecap="square" stroke-linejoin="miter" stroke-width="1.95px"/></g></g><g transform="translate(0 73.375)"><path d="m197.93 624.16h33.127l6.478 4.902v9.963l-6.478 5.968h-33.127l-7.125-5.968v-9.963l7.125-4.902z" fill="#23241f" stroke="#131210" stroke-width="2px"/><g transform="matrix(.52982 0 0 .49431 -3.0896 488.47)"><rect x="381.48" y="287.99" width="11.716" height="12.521" fill="#c1ad70" stroke="#5b4925" stroke-linecap="square" stroke-linejoin="miter" stroke-width="1.95px"/></g><g transform="matrix(.52982 0 0 .49431 19.772 488.47)"><rect x="381.48" y="287.99" width="11.716" height="12.521" fill="#c1ad70" stroke="#5b4925" stroke-linecap="square" stroke-linejoin="miter" stroke-width="1.95px"/></g></g><g transform="translate(0 122.4)"><path d="m197.93 624.16h33.127l6.478 4.902v9.963l-6.478 5.968h-33.127l-7.125-5.968v-9.963l7.125-4.902z" fill="#23241f" stroke="#131210" stroke-width="2px"/><g transform="matrix(.52982 0 0 .49431 -3.0896 488.47)"><rect x="381.48" y="287.99" width="11.716" height="12.521" fill="#c1ad70" stroke="#5b4925" stroke-linecap="square" stroke-linejoin="miter" stroke-width="1.95px"/></g><g transform="matrix(.52982 0 0 .49431 19.772 488.47)"><rect x="381.48" y="287.99" width="11.716" height="12.521" fill="#c1ad70" stroke="#5b4925" stroke-linecap="square" stroke-linejoin="miter" stroke-width="1.95px"/></g></g><g transform="translate(0 49.345)"><path d="m197.93 624.16h33.127l6.478 4.902v9.963l-6.478 5.968h-33.127l-7.125-5.968v-9.963l7.125-4.902z" fill="#23241f" stroke="#131210" stroke-width="2px"/><g transform="matrix(.52982 0 0 .49431 -3.0896 488.47)"><rect x="381.48" y="287.99" width="11.716" height="12.521" fill="#c1ad70" stroke="#5b4925" stroke-linecap="square" stroke-linejoin="miter" stroke-width="1.95px"/></g><g transform="matrix(.52982 0 0 .49431 19.772 488.47)"><rect x="381.48" y="287.99" width="11.716" height="12.521" fill="#c1ad70" stroke="#5b4925" stroke-linecap="square" stroke-linejoin="miter" stroke-width="1.95px"/></g></g></g><g id="uart"><rect x="190.79" y="855.84" width="24.532" height="146.84" fill="none" stroke="#fff" stroke-width="2px"/><g transform="matrix(1 0 0 1.0347 -1.5929 214.61)"><path d="m197.93 624.16h11.469l7.124 4.902v9.963l-7.124 5.968h-11.469l-7.125-5.968v-9.963l7.125-4.902z" fill="#23241f" stroke="#131210" stroke-width="1.97px"/><g transform="matrix(.52982 0 0 .49431 -1.812 488.74)"><rect x="381.48" y="287.99" width="11.716" height="12.521" fill="#c1ad70" stroke="#5b4925" stroke-linecap="square" stroke-linejoin="miter" stroke-width="1.92px"/></g></g><g transform="matrix(1 0 0 1.0347 42.683 357.93)"><path d="m197.93 624.16h11.469l7.124 4.902v9.963l-7.124 5.968h-11.469l-7.125-5.968v-9.963l7.125-4.902z" fill="#23241f" stroke="#131210" stroke-width="1.97px"/><g transform="matrix(.52982 0 0 .49431 -1.812 488.74)"><rect x="381.48" y="287.99" width="11.716" height="12.521" fill="#c1ad70" stroke="#5b4925" stroke-linecap="square" stroke-linejoin="miter" stroke-width="1.92px"/></g></g><g transform="matrix(1 0 0 1.0347 908.46 357.93)"><path d="m197.93 624.16h11.469l7.124 4.902v9.963l-7.124 5.968h-11.469l-7.125-5.968v-9.963l7.125-4.902z" fill="#23241f" stroke="#131210" stroke-width="1.97px"/><g transform="matrix(.52982 0 0 .49431 -1.812 488.74)"><rect x="381.48" y="287.99" width="11.716" height="12.521" fill="#c1ad70" stroke="#5b4925" stroke-linecap="square" stroke-linejoin="miter" stroke-width="1.92px"/></g></g><g transform="matrix(1 0 0 1.0347 42.932 -499.35)"><path d="m197.93 624.16h11.469l7.124 4.902v9.963l-7.124 5.968h-11.469l-7.125-5.968v-9.963l7.125-4.902z" fill="#23241f" stroke="#131210" stroke-width="1.97px"/><g transform="matrix(.52982 0 0 .49431 -1.812 488.74)"><rect x="381.48" y="287.99" width="11.716" height="12.521" fill="#c1ad70" stroke="#5b4925" stroke-linecap="square" stroke-linejoin="miter" stroke-width="1.92px"/></g></g><g transform="matrix(1 0 0 1.0347 -1.5929 263.88)"><path d="m197.93 624.16h11.469l7.124 4.902v9.963l-7.124 5.968h-11.469l-7.125-5.968v-9.963l7.125-4.902z" fill="#23241f" stroke="#131210" stroke-width="1.97px"/><g transform="matrix(.52982 0 0 .49431 -1.812 488.74)"><rect x="381.48" y="287.99" width="11.716" height="12.521" fill="#c1ad70" stroke="#5b4925" stroke-linecap="square" stroke-linejoin="miter" stroke-width="1.92px"/></g></g><g transform="matrix(1 0 0 1.0347 -1.5929 314.35)"><path d="m197.93 624.16h11.469l7.124 4.902v9.963l-7.124 5.968h-11.469l-7.125-5.968v-9.963l7.125-4.902z" fill="#23241f" stroke="#131210" stroke-width="1.97px"/><g transform="matrix(.52982 0 0 .49431 -1.812 488.74)"><rect x="381.48" y="287.99" width="11.716" height="12.521" fill="#c1ad70" stroke="#5b4925" stroke-linecap="square" stroke-linejoin="miter" stroke-width="1.92px"/></g></g><g transform="matrix(1 0 0 1.0347 -1.5929 239.35)"><path d="m197.93 624.16h11.469l7.124 4.902v9.963l-7.124 5.968h-11.469l-7.125-5.968v-9.963l7.125-4.902z" fill="#23241f" stroke="#131210" stroke-width="1.97px"/><g transform="matrix(.52982 0 0 .49431 -1.812 488.74)"><rect x="381.48" y="287.99" width="11.716" height="12.521" fill="#c1ad70" stroke="#5b4925" stroke-linecap="square" stroke-linejoin="miter" stroke-width="1.92px"/></g></g><g transform="matrix(1 0 0 1.0347 -1.5929 288.62)"><path d="m197.93 624.16h11.469l7.124 4.902v9.963l-7.124 5.968h-11.469l-7.125-5.968v-9.963l7.125-4.902z" fill="#23241f" stroke="#131210" stroke-width="1.97px"/><g transform="matrix(.52982 0 0 .49431 -1.812 488.74)"><rect x="381.48" y="287.99" width="11.716" height="12.521" fill="#c1ad70" stroke="#5b4925" stroke-linecap="square" stroke-linejoin="miter" stroke-width="1.92px"/></g></g><g transform="matrix(1 0 0 1.0347 -1.5929 339.09)"><path d="m197.93 624.16h11.469l7.124 4.902v9.963l-7.124 5.968h-11.469l-7.125-5.968v-9.963l7.125-4.902z" fill="#23241f" stroke="#131210" stroke-width="1.97px"/><g transform="matrix(.52982 0 0 .49431 -1.812 488.74)"><rect x="381.48" y="287.99" width="11.716" height="12.521" fill="#c1ad70" stroke="#5b4925" stroke-linecap="square" stroke-linejoin="miter" stroke-width="1.92px"/></g></g><g transform="translate(13.652 .98267)" fill="#fff" fill-rule="nonzero"><path d="m217.34 868.6c0.534 0.262 0.948 0.624 1.242 1.085 0.294 0.462 0.441 0.964 0.441 1.506 0 0.887-0.324 1.649-0.97 2.287-0.647 0.637-1.463 0.956-2.449 0.956-0.887 0-1.613-0.255-2.178-0.766-0.566-0.511-0.948-1.269-1.147-2.273h1.154c0.171 0.642 0.427 1.119 0.766 1.431 0.339 0.313 0.823 0.469 1.452 0.469s1.156-0.197 1.581-0.591c0.425-0.393 0.637-0.888 0.637-1.485s-0.241-1.072-0.725-1.425-1.197-0.538-2.137-0.556v-1.086c0.678 0 1.225-0.145 1.641-0.434 0.416-0.29 0.624-0.649 0.624-1.079 0-0.429-0.16-0.787-0.481-1.072s-0.71-0.427-1.167-0.427-0.828 0.129-1.113 0.387c-0.285 0.257-0.527 0.649-0.726 1.173h-1.18c0.199-0.868 0.561-1.533 1.085-1.994 0.525-0.462 1.172-0.692 1.941-0.692s1.436 0.253 2.001 0.76c0.565 0.506 0.848 1.121 0.848 1.845 0 0.832-0.38 1.492-1.14 1.981z"/><path d="m221.49 871.87c0.254 0 0.468 0.088 0.645 0.264 0.176 0.177 0.264 0.394 0.264 0.652s-0.088 0.475-0.264 0.651c-0.177 0.176-0.389 0.265-0.638 0.265s-0.464-0.091-0.644-0.272c-0.181-0.181-0.272-0.398-0.272-0.651s0.091-0.468 0.272-0.645c0.18-0.176 0.393-0.264 0.637-0.264z"/><path d="m228.62 868.6c0.533 0.262 0.947 0.624 1.241 1.085 0.294 0.462 0.441 0.964 0.441 1.506 0 0.887-0.323 1.649-0.97 2.287-0.647 0.637-1.463 0.956-2.449 0.956-0.887 0-1.612-0.255-2.178-0.766-0.565-0.511-0.947-1.269-1.146-2.273h1.153c0.172 0.642 0.427 1.119 0.767 1.431 0.339 0.313 0.823 0.469 1.451 0.469 0.629 0 1.156-0.197 1.581-0.591 0.425-0.393 0.638-0.888 0.638-1.485s-0.242-1.072-0.726-1.425-1.196-0.538-2.137-0.556v-1.086c0.678 0 1.226-0.145 1.642-0.434 0.416-0.29 0.624-0.649 0.624-1.079 0-0.429-0.161-0.787-0.482-1.072s-0.71-0.427-1.167-0.427-0.827 0.129-1.112 0.387c-0.285 0.257-0.527 0.649-0.726 1.173h-1.181c0.199-0.868 0.561-1.533 1.086-1.994 0.524-0.462 1.171-0.692 1.94-0.692s1.436 0.253 2.001 0.76c0.566 0.506 0.848 1.121 0.848 1.845 0 0.832-0.38 1.492-1.139 1.981z"/><path d="m239.93 864.26-4.329 10.176h-0.312l-4.26-10.176h1.248l3.175 7.639 3.229-7.639h1.249z"/></g><g transform="translate(13.652 25.249)" fill="#fff" fill-rule="nonzero"><path d="m217.67 866.45c-0.362-0.489-0.67-0.817-0.923-0.984-0.253-0.168-0.549-0.251-0.889-0.251-0.339 0-0.624 0.108-0.854 0.325-0.231 0.218-0.346 0.496-0.346 0.835s0.108 0.635 0.325 0.889c0.217 0.253 0.717 0.667 1.5 1.241 0.782 0.575 1.354 1.115 1.716 1.622 0.362 0.506 0.543 1.04 0.543 1.601 0 0.732-0.283 1.368-0.848 1.906-0.566 0.538-1.224 0.807-1.975 0.807-1.32 0-2.356-0.737-3.107-2.211l0.991-0.57c0.588 1.094 1.248 1.642 1.981 1.642 0.47 0 0.873-0.15 1.207-0.448 0.335-0.299 0.502-0.647 0.502-1.045s-0.14-0.776-0.42-1.133c-0.281-0.357-0.765-0.796-1.452-1.316-0.688-0.52-1.16-0.916-1.418-1.187-0.258-0.272-0.445-0.561-0.563-0.869-0.118-0.307-0.176-0.615-0.176-0.922 0-0.661 0.228-1.219 0.685-1.676s1.047-0.685 1.77-0.685c0.561 0 1.05 0.142 1.466 0.427s0.823 0.708 1.221 1.269l-0.936 0.733z"/><rect x="219.52" y="875.02" width="6.784" height=".868"/><rect x="227.25" y="864.26" width="1.167" height="9.932"/><path d="m238.31 874.19h-0.352l-6.296-7.205v7.205h-1.194v-9.932h0.353l6.336 7.3v-7.3h1.153v9.932z"/></g><g transform="translate(13.652 98.043)" fill="#fff" fill-rule="nonzero"><path d="m211 866.45c-0.362-0.489-0.669-0.817-0.923-0.984-0.253-0.168-0.549-0.251-0.888-0.251s-0.624 0.108-0.855 0.325c-0.231 0.218-0.346 0.496-0.346 0.835s0.108 0.635 0.326 0.889c0.217 0.253 0.716 0.667 1.499 1.241 0.782 0.575 1.354 1.115 1.716 1.622 0.362 0.506 0.543 1.04 0.543 1.601 0 0.732-0.283 1.368-0.848 1.906s-1.223 0.807-1.974 0.807c-1.321 0-2.357-0.737-3.107-2.211l0.99-0.57c0.588 1.094 1.248 1.642 1.981 1.642 0.47 0 0.873-0.15 1.208-0.448 0.334-0.299 0.502-0.647 0.502-1.045s-0.14-0.776-0.421-1.133c-0.28-0.357-0.764-0.796-1.452-1.316-0.687-0.52-1.16-0.916-1.418-1.187-0.257-0.272-0.445-0.561-0.563-0.869-0.117-0.307-0.176-0.615-0.176-0.922 0-0.661 0.228-1.219 0.685-1.676s1.047-0.685 1.771-0.685c0.561 0 1.049 0.142 1.465 0.427s0.823 0.708 1.221 1.269l-0.936 0.733z"/><rect x="212.84" y="875.02" width="6.784" height=".868"/><path d="m225.46 864.02c0.968 0 1.859 0.228 2.673 0.685s1.454 1.088 1.92 1.893 0.699 1.68 0.699 2.625c0 0.946-0.231 1.821-0.692 2.626-0.462 0.805-1.095 1.438-1.9 1.899-0.805 0.462-1.68 0.692-2.625 0.692-0.946 0-1.825-0.228-2.639-0.685-0.815-0.457-1.452-1.085-1.914-1.886-0.461-0.8-0.692-1.673-0.692-2.619 0-0.945 0.231-1.822 0.692-2.632 0.462-0.809 1.093-1.445 1.893-1.906 0.801-0.462 1.662-0.692 2.585-0.692zm0.041 9.281c1.13 0 2.087-0.385 2.869-1.154 0.783-0.769 1.174-1.732 1.174-2.89s-0.396-2.13-1.187-2.917c-0.792-0.787-1.744-1.18-2.856-1.18-1.14 0-2.092 0.395-2.856 1.187-0.765 0.791-1.147 1.755-1.147 2.89s0.394 2.096 1.18 2.883c0.787 0.787 1.728 1.181 2.823 1.181z"/><path d="m239.18 870.23c0 1.004-0.102 1.775-0.306 2.314-0.203 0.538-0.565 0.988-1.085 1.35-0.52 0.361-1.129 0.542-1.825 0.542-0.552 0-1.049-0.088-1.493-0.264-0.443-0.177-0.811-0.425-1.105-0.747-0.294-0.321-0.505-0.678-0.631-1.071-0.127-0.394-0.19-1.102-0.19-2.124v-5.97h1.167v5.97c0 0.642 0.018 1.106 0.054 1.391s0.14 0.561 0.312 0.828c0.172 0.266 0.418 0.479 0.739 0.637 0.322 0.159 0.686 0.238 1.093 0.238 0.488 0 0.911-0.143 1.268-0.428 0.358-0.285 0.588-0.615 0.692-0.99 0.104-0.376 0.156-0.934 0.156-1.676v-5.97h1.154v5.97z"/><path d="m245.96 865.4h-2.171v8.792h-1.181v-8.792h-2.184v-1.14h5.536v1.14z"/></g><g transform="translate(13.652 121.96)" fill="#fff" fill-rule="nonzero"><path d="m221.39 869.34c-0.027 1.61-0.495 2.863-1.404 3.758-0.909 0.896-2.105 1.343-3.589 1.343-1.7 0-3.057-0.522-4.07-1.567s-1.52-2.268-1.52-3.67 0.507-2.617 1.52-3.643c1.013-1.027 2.32-1.54 3.921-1.54 0.868 0 1.676 0.16 2.422 0.481 0.746 0.322 1.477 0.812 2.191 1.473l-0.895 0.854c-0.552-0.533-1.149-0.943-1.791-1.228-0.642-0.284-1.303-0.427-1.981-0.427-0.679 0-1.353 0.181-2.022 0.543s-1.194 0.85-1.574 1.465-0.57 1.28-0.57 1.995c0 1.112 0.419 2.083 1.255 2.91 0.837 0.828 1.884 1.242 3.141 1.242 0.932 0 1.737-0.256 2.416-0.767 0.678-0.511 1.094-1.21 1.248-2.096h-3.094v-1.126h4.396z"/><path d="m230.88 874.19h-0.353l-6.296-7.205v7.205h-1.194v-9.932h0.353l6.336 7.3v-7.3h1.154v9.932z"/><path d="m233.06 864.26h2.117c1.429 0 2.469 0.106 3.121 0.319 0.651 0.212 1.214 0.543 1.689 0.99 0.475 0.448 0.839 0.993 1.092 1.635 0.254 0.643 0.38 1.384 0.38 2.226 0 0.841-0.188 1.635-0.563 2.381s-0.909 1.33-1.601 1.75c-0.692 0.421-1.703 0.631-3.033 0.631h-3.202v-9.932zm1.126 8.819h1.032c1.148 0 1.985-0.058 2.51-0.176 0.524-0.118 0.981-0.344 1.37-0.678 0.389-0.335 0.685-0.744 0.889-1.228s0.305-1.043 0.305-1.676-0.12-1.219-0.359-1.757c-0.24-0.538-0.581-0.977-1.025-1.316-0.443-0.339-0.963-0.566-1.56-0.679s-1.452-0.169-2.564-0.169h-0.598v7.679z"/></g><g transform="matrix(-1.6081e-16 -1 1 -1.6081e-16 -634.11 1154.8)" fill="#fff" fill-rule="nonzero"><path d="m217.38 870.23c0 1.004-0.102 1.775-0.305 2.314-0.204 0.538-0.565 0.988-1.086 1.35-0.52 0.361-1.128 0.542-1.824 0.542-0.552 0-1.05-0.088-1.493-0.264-0.443-0.177-0.812-0.425-1.106-0.747-0.294-0.321-0.504-0.678-0.631-1.071-0.126-0.394-0.19-1.102-0.19-2.124v-5.97h1.167v5.97c0 0.642 0.018 1.106 0.054 1.391 0.037 0.285 0.141 0.561 0.313 0.828 0.171 0.266 0.418 0.479 0.739 0.637 0.321 0.159 0.685 0.238 1.092 0.238 0.489 0 0.912-0.143 1.269-0.428s0.588-0.615 0.692-0.99c0.104-0.376 0.156-0.934 0.156-1.676v-5.97h1.153v5.97z"/><path d="m228.35 874.19h-1.235l-1.533-3.324h-4.098l-1.519 3.324h-1.289l4.694-10.325h0.353l4.627 10.325zm-3.297-4.505-1.506-3.351-1.52 3.351h3.026z"/><path d="m236.22 874.19h-1.466l-3.5-4.532h-0.407v4.532h-1.167v-9.932h2.035c1.086 0 1.832 0.047 2.239 0.142s0.76 0.256 1.058 0.482c0.299 0.226 0.534 0.518 0.706 0.875 0.172 0.358 0.258 0.753 0.258 1.188 0 0.823-0.281 1.481-0.842 1.974s-1.37 0.739-2.428 0.739l3.514 4.532zm-5.373-5.672h1.587c0.796 0.01 1.384-0.11 1.764-0.359s0.57-0.647 0.57-1.194-0.186-0.945-0.556-1.194c-0.371-0.249-0.95-0.373-1.737-0.373h-1.628v3.12z"/><path d="m242.44 865.4h-2.171v8.792h-1.18v-8.792h-2.185v-1.14h5.536v1.14z"/></g></g><g id="bohrungen"><g transform="matrix(.81894 0 0 .88949 38.444 118.07)"><ellipse cx="212.16" cy="1065" rx="22.216" ry="19.948" fill="#fff" stroke="#e1c571" stroke-linecap="butt" stroke-width="6.43px"/></g><g transform="matrix(.81894 0 0 .88949 38.444 -824.7)"><ellipse cx="212.16" cy="1065" rx="22.216" ry="19.948" fill="#fff" stroke="#e1c571" stroke-linecap="butt" stroke-width="6.43px"/></g><g transform="matrix(.81894 0 0 .88949 395.33 -645.73)"><ellipse cx="212.16" cy="1065" rx="22.216" ry="19.948" fill="#fff" stroke="#e1c571" stroke-linecap="butt" stroke-width="6.43px"/></g><g transform="matrix(.81894 0 0 .88949 329.5 -401.95)"><ellipse cx="212.16" cy="1065" rx="22.216" ry="19.948" fill="#fff" stroke="#e1c571" stroke-linecap="butt" stroke-width="6.43px"/></g><g transform="matrix(.81894 0 0 .88949 336.27 32.955)"><ellipse cx="212.16" cy="1065" rx="22.216" ry="19.948" fill="#fff" stroke="#e1c571" stroke-linecap="butt" stroke-width="6.43px"/></g><g transform="matrix(.81894 0 0 .88949 565.06 -8.4696)"><ellipse cx="212.16" cy="1065" rx="22.216" ry="19.948" fill="#fff" stroke="#e1c571" stroke-linecap="butt" stroke-width="6.43px"/></g><g transform="matrix(1.6811 0 0 1.826 612.36 -921.23)"><ellipse cx="212.16" cy="1065" rx="22.216" ry="19.948" fill="#fff" stroke="#e1c571" stroke-linecap="butt" stroke-width="7.41px"/></g><g transform="matrix(.81894 0 0 .88949 939.26 118.07)"><ellipse cx="212.16" cy="1065" rx="22.216" ry="19.948" fill="#fff" stroke="#e1c571" stroke-linecap="butt" stroke-width="6.43px"/></g><g transform="matrix(.81894 0 0 .88949 939.26 -818.16)"><ellipse cx="212.16" cy="1065" rx="22.216" ry="19.948" fill="#fff" stroke="#e1c571" stroke-linecap="butt" stroke-width="6.43px"/></g></g><g id="pcie-slot"><rect x="280.92" y="430.54" width="767.9" height="661.39" fill="none" stroke="#dddeda" stroke-linecap="butt" stroke-width="26px"/><path d="m590.75 430v661.16h-281.73v-554.98h33.71v-21.174h-33.71v-85.007h281.73" fill="none" stroke="#fff" stroke-width="2px"/><rect x="372.16" y="1032.7" width="198.84" height="28.08" fill="#c5c3b6" stroke="#c8c7b5" stroke-width="4px"/><path d="m436.55 1033.3c37.519-4.01 75.004-2.94 112.48 0 7.457 1.27 13.16 3.92 16.464 8.44-3.221 7.26-10.178 11.73-19.689 14.28-14.8 4.2-25.472 2.76-29.56-5.52-0.71-1.43 0.619-3.1 3.631-3.56 10.01-1.51 19.723-4.06 29.154-7.7-36.244-3.21-72.473-4.4-108.66 0-3.915 0.56-8.16 0.37-8.63-2.71-0.277-1.82 2.329-2.96 4.813-3.23z" fill="#b1b09c" stroke="#a6a6a6" stroke-width="1px"/><path d="m508.04 1057.3c13.389 0.64 26.783 0.82 40.191 0 1.262-0.08 1.725 1.31 1.427 2.63-0.713 3.16-2.974 5.43-7.231 5.43h-26.231c-7.202 0.28-9.348-2.23-10.263-5.43-0.383-1.34 0.552-2.71 2.107-2.63z" fill="#b1b09c" stroke="#a6a6a6" stroke-width="1px"/><g transform="matrix(1 0 0 -1 .17432 1521.5)"><rect x="372.16" y="1032.7" width="198.84" height="28.08" fill="#c5c3b6" stroke="#c8c7b5" stroke-width="4px"/><path d="m436.55 1033.3c37.519-4.01 75.004-2.94 112.48 0 7.457 1.27 13.16 3.92 16.464 8.44-3.221 7.26-10.178 11.73-19.689 14.28-14.8 4.2-25.472 2.76-29.56-5.52-0.71-1.43 0.619-3.1 3.631-3.56 10.01-1.51 19.723-4.06 29.154-7.7-36.244-3.21-72.473-4.4-108.66 0-3.915 0.56-8.16 0.37-8.63-2.71-0.277-1.82 2.329-2.96 4.813-3.23z" fill="#b1b09c" stroke="#a6a6a6" stroke-width="1px"/><path d="m508.04 1057.3c13.389 0.64 26.783 0.82 40.191 0 1.262-0.08 1.725 1.31 1.427 2.63-0.713 3.16-2.974 5.43-7.231 5.43h-26.231c-7.202 0.28-9.348-2.23-10.263-5.43-0.383-1.34 0.552-2.71 2.107-2.63z" fill="#b1b09c" stroke="#a6a6a6" stroke-width="1px"/></g><g transform="matrix(.13623 0 0 -21.404 321.64 23166)"><rect x="372.16" y="1032.7" width="198.84" height="28.08" fill="#c5c3b6" stroke="#c8c7b5" stroke-width=".26px"/></g><g id="pins-golden"><path d="m376.43 551.58h41.252" fill="none" stroke="#e3c881" stroke-width="4px"/><g transform="translate(0 -40.588)"><path d="m376.43 551.58h41.252" fill="none" stroke="#e3c881" stroke-width="4px"/></g><g transform="translate(0 276.57)"><path d="m376.43 551.58h41.252" fill="none" stroke="#e3c881" stroke-width="4px"/></g><g transform="translate(0 92.188)"><path d="m376.43 551.58h41.252" fill="none" stroke="#e3c881" stroke-width="4px"/></g><g transform="translate(0 368.76)"><path d="m376.43 551.58h41.252" fill="none" stroke="#e3c881" stroke-width="4px"/></g><g transform="translate(0 184.4)"><path d="m376.43 551.58h41.252" fill="none" stroke="#e3c881" stroke-width="4px"/></g><g transform="translate(0 460.98)"><path d="m376.43 551.58h41.252" fill="none" stroke="#e3c881" stroke-width="4px"/></g><g transform="translate(0 46.023)"><path d="m376.43 551.58h41.252" fill="none" stroke="#e3c881" stroke-width="4px"/></g><g transform="translate(0 322.59)"><path d="m376.43 551.58h41.252" fill="none" stroke="#e3c881" stroke-width="4px"/></g><g transform="translate(0 138.21)"><path d="m376.43 551.58h41.252" fill="none" stroke="#e3c881" stroke-width="4px"/></g><g transform="translate(0 414.78)"><path d="m376.43 551.58h41.252" fill="none" stroke="#e3c881" stroke-width="4px"/></g><g transform="translate(0 230.43)"><path d="m376.43 551.58h41.252" fill="none" stroke="#e3c881" stroke-width="4px"/></g><g transform="translate(0 23.084)"><path d="m376.43 551.58h41.252" fill="none" stroke="#e3c881" stroke-width="4px"/></g><g transform="translate(0 299.66)"><path d="m376.43 551.58h41.252" fill="none" stroke="#e3c881" stroke-width="4px"/></g><g transform="translate(0 115.27)"><path d="m376.43 551.58h41.252" fill="none" stroke="#e3c881" stroke-width="4px"/></g><g transform="translate(0 391.84)"><path d="m376.43 551.58h41.252" fill="none" stroke="#e3c881" stroke-width="4px"/></g><g transform="translate(0 207.49)"><path d="m376.43 551.58h41.252" fill="none" stroke="#e3c881" stroke-width="4px"/></g><g transform="translate(0 69.108)"><path d="m376.43 551.58h41.252" fill="none" stroke="#e3c881" stroke-width="4px"/></g><g transform="translate(0 345.68)"><path d="m376.43 551.58h41.252" fill="none" stroke="#e3c881" stroke-width="4px"/></g><g transform="translate(0 161.3)"><path d="m376.43 551.58h41.252" fill="none" stroke="#e3c881" stroke-width="4px"/></g><g transform="translate(0 437.87)"><path d="m376.43 551.58h41.252" fill="none" stroke="#e3c881" stroke-width="4px"/></g><g transform="translate(0 253.51)"><path d="m376.43 551.58h41.252" fill="none" stroke="#e3c881" stroke-width="4px"/></g><g transform="translate(0 7.5967)"><path d="m376.43 551.58h41.252" fill="none" stroke="#e3c881" stroke-width="4px"/></g><g transform="translate(0 284.17)"><path d="m376.43 551.58h41.252" fill="none" stroke="#e3c881" stroke-width="4px"/></g><g transform="translate(0 99.785)"><path d="m376.43 551.58h41.252" fill="none" stroke="#e3c881" stroke-width="4px"/></g><g transform="translate(0 376.36)"><path d="m376.43 551.58h41.252" fill="none" stroke="#e3c881" stroke-width="4px"/></g><g transform="translate(0 192)"><path d="m376.43 551.58h41.252" fill="none" stroke="#e3c881" stroke-width="4px"/></g><g transform="translate(0 53.62)"><path d="m376.43 551.58h41.252" fill="none" stroke="#e3c881" stroke-width="4px"/></g><g transform="translate(0 330.19)"><path d="m376.43 551.58h41.252" fill="none" stroke="#e3c881" stroke-width="4px"/></g><g transform="translate(0 145.81)"><path d="m376.43 551.58h41.252" fill="none" stroke="#e3c881" stroke-width="4px"/></g><g transform="translate(0 422.38)"><path d="m376.43 551.58h41.252" fill="none" stroke="#e3c881" stroke-width="4px"/></g><g transform="translate(0 238.02)"><path d="m376.43 551.58h41.252" fill="none" stroke="#e3c881" stroke-width="4px"/></g><g transform="translate(0 30.681)"><path d="m376.43 551.58h41.252" fill="none" stroke="#e3c881" stroke-width="4px"/></g><g transform="translate(0 307.25)"><path d="m376.43 551.58h41.252" fill="none" stroke="#e3c881" stroke-width="4px"/></g><g transform="translate(0 122.87)"><path d="m376.43 551.58h41.252" fill="none" stroke="#e3c881" stroke-width="4px"/></g><g transform="translate(0 399.44)"><path d="m376.43 551.58h41.252" fill="none" stroke="#e3c881" stroke-width="4px"/></g><g transform="translate(0 215.08)"><path d="m376.43 551.58h41.252" fill="none" stroke="#e3c881" stroke-width="4px"/></g><g transform="translate(0 76.704)"><path d="m376.43 551.58h41.252" fill="none" stroke="#e3c881" stroke-width="4px"/></g><g transform="translate(0 353.28)"><path d="m376.43 551.58h41.252" fill="none" stroke="#e3c881" stroke-width="4px"/></g><g transform="translate(0 168.89)"><path d="m376.43 551.58h41.252" fill="none" stroke="#e3c881" stroke-width="4px"/></g><g transform="translate(0 445.46)"><path d="m376.43 551.58h41.252" fill="none" stroke="#e3c881" stroke-width="4px"/></g><g transform="translate(0 261.11)"><path d="m376.43 551.58h41.252" fill="none" stroke="#e3c881" stroke-width="4px"/></g><g transform="translate(0 15.595)"><path d="m376.43 551.58h41.252" fill="none" stroke="#e3c881" stroke-width="4px"/></g><g transform="translate(0 292.17)"><path d="m376.43 551.58h41.252" fill="none" stroke="#e3c881" stroke-width="4px"/></g><g transform="translate(0 107.78)"><path d="m376.43 551.58h41.252" fill="none" stroke="#e3c881" stroke-width="4px"/></g><g transform="translate(0 384.35)"><path d="m376.43 551.58h41.252" fill="none" stroke="#e3c881" stroke-width="4px"/></g><g transform="translate(0 200)"><path d="m376.43 551.58h41.252" fill="none" stroke="#e3c881" stroke-width="4px"/></g><g transform="translate(0 61.618)"><path d="m376.43 551.58h41.252" fill="none" stroke="#e3c881" stroke-width="4px"/></g><g transform="translate(0 338.19)"><path d="m376.43 551.58h41.252" fill="none" stroke="#e3c881" stroke-width="4px"/></g><g transform="translate(0 153.81)"><path d="m376.43 551.58h41.252" fill="none" stroke="#e3c881" stroke-width="4px"/></g><g transform="translate(0 430.38)"><path d="m376.43 551.58h41.252" fill="none" stroke="#e3c881" stroke-width="4px"/></g><g transform="translate(0 246.02)"><path d="m376.43 551.58h41.252" fill="none" stroke="#e3c881" stroke-width="4px"/></g><g transform="translate(0 38.679)"><path d="m376.43 551.58h41.252" fill="none" stroke="#e3c881" stroke-width="4px"/></g><g transform="translate(0 315.25)"><path d="m376.43 551.58h41.252" fill="none" stroke="#e3c881" stroke-width="4px"/></g><g transform="translate(0 130.87)"><path d="m376.43 551.58h41.252" fill="none" stroke="#e3c881" stroke-width="4px"/></g><g transform="translate(0 407.44)"><path d="m376.43 551.58h41.252" fill="none" stroke="#e3c881" stroke-width="4px"/></g><g transform="translate(0 223.08)"><path d="m376.43 551.58h41.252" fill="none" stroke="#e3c881" stroke-width="4px"/></g><g transform="translate(0 84.702)"><path d="m376.43 551.58h41.252" fill="none" stroke="#e3c881" stroke-width="4px"/></g><g transform="translate(0 361.27)"><path d="m376.43 551.58h41.252" fill="none" stroke="#e3c881" stroke-width="4px"/></g><g transform="translate(0 176.89)"><path d="m376.43 551.58h41.252" fill="none" stroke="#e3c881" stroke-width="4px"/></g><g transform="translate(0 453.46)"><path d="m376.43 551.58h41.252" fill="none" stroke="#e3c881" stroke-width="4px"/></g><g transform="translate(0 269.11)"><path d="m376.43 551.58h41.252" fill="none" stroke="#e3c881" stroke-width="4px"/></g></g><g id="pins-silver"><path d="m330.73 1008.5h-13.648" fill="none" stroke="#c0c2b7" stroke-width="4px"/><g transform="translate(0 -184.34)"><path d="m330.73 1008.5h-13.648" fill="none" stroke="#c0c2b7" stroke-width="4px"/></g><g transform="translate(0 -45.509)"><path d="m330.73 1008.5h-13.648" fill="none" stroke="#c0c2b7" stroke-width="4px"/></g><g transform="translate(0 -229.85)"><path d="m330.73 1008.5h-13.648" fill="none" stroke="#c0c2b7" stroke-width="4px"/></g><g transform="translate(0 -91.89)"><path d="m330.73 1008.5h-13.648" fill="none" stroke="#c0c2b7" stroke-width="4px"/></g><g transform="translate(0 -276.23)"><path d="m330.73 1008.5h-13.648" fill="none" stroke="#c0c2b7" stroke-width="4px"/></g><g transform="translate(0 -137.98)"><path d="m330.73 1008.5h-13.648" fill="none" stroke="#c0c2b7" stroke-width="4px"/></g><g transform="translate(0 -322.32)"><path d="m330.73 1008.5h-13.648" fill="none" stroke="#c0c2b7" stroke-width="4px"/></g><g transform="translate(0 -384.6)"><path d="m330.73 1008.5h-13.648" fill="none" stroke="#c0c2b7" stroke-width="4px"/></g><g transform="translate(0 -15.13)"><path d="m330.73 1008.5h-13.648" fill="none" stroke="#c0c2b7" stroke-width="4px"/></g><g transform="translate(0 -199.47)"><path d="m330.73 1008.5h-13.648" fill="none" stroke="#c0c2b7" stroke-width="4px"/></g><g transform="translate(0 -60.64)"><path d="m330.73 1008.5h-13.648" fill="none" stroke="#c0c2b7" stroke-width="4px"/></g><g transform="translate(0 -244.98)"><path d="m330.73 1008.5h-13.648" fill="none" stroke="#c0c2b7" stroke-width="4px"/></g><g transform="translate(0 -107.02)"><path d="m330.73 1008.5h-13.648" fill="none" stroke="#c0c2b7" stroke-width="4px"/></g><g transform="translate(0 -291.36)"><path d="m330.73 1008.5h-13.648" fill="none" stroke="#c0c2b7" stroke-width="4px"/></g><g transform="translate(0 -153.11)"><path d="m330.73 1008.5h-13.648" fill="none" stroke="#c0c2b7" stroke-width="4px"/></g><g transform="translate(0 -337.45)"><path d="m330.73 1008.5h-13.648" fill="none" stroke="#c0c2b7" stroke-width="4px"/></g><g transform="translate(0 -399.74)"><path d="m330.73 1008.5h-13.648" fill="none" stroke="#c0c2b7" stroke-width="4px"/></g><g transform="translate(0 -438.42)"><path d="m330.73 1008.5h-13.648" fill="none" stroke="#c0c2b7" stroke-width="4px"/></g><g transform="translate(0 -30.272)"><path d="m330.73 1008.5h-13.648" fill="none" stroke="#c0c2b7" stroke-width="4px"/></g><g transform="translate(0 -214.61)"><path d="m330.73 1008.5h-13.648" fill="none" stroke="#c0c2b7" stroke-width="4px"/></g><g transform="translate(0 -75.782)"><path d="m330.73 1008.5h-13.648" fill="none" stroke="#c0c2b7" stroke-width="4px"/></g><g transform="translate(0 -260.12)"><path d="m330.73 1008.5h-13.648" fill="none" stroke="#c0c2b7" stroke-width="4px"/></g><g transform="translate(0 -122.16)"><path d="m330.73 1008.5h-13.648" fill="none" stroke="#c0c2b7" stroke-width="4px"/></g><g transform="translate(0 -306.5)"><path d="m330.73 1008.5h-13.648" fill="none" stroke="#c0c2b7" stroke-width="4px"/></g><g transform="translate(0 -368.78)"><path d="m330.73 1008.5h-13.648" fill="none" stroke="#c0c2b7" stroke-width="4px"/></g><g transform="translate(0 -168.26)"><path d="m330.73 1008.5h-13.648" fill="none" stroke="#c0c2b7" stroke-width="4px"/></g><g transform="translate(0 -352.59)"><path d="m330.73 1008.5h-13.648" fill="none" stroke="#c0c2b7" stroke-width="4px"/></g><g transform="translate(0 -414.88)"><path d="m330.73 1008.5h-13.648" fill="none" stroke="#c0c2b7" stroke-width="4px"/></g><g transform="translate(0 -453.56)"><path d="m330.73 1008.5h-13.648" fill="none" stroke="#c0c2b7" stroke-width="4px"/></g><g transform="translate(0 -7.5027)"><path d="m330.73 1008.5h-13.648" fill="none" stroke="#c0c2b7" stroke-width="4px"/></g><g transform="translate(0 -191.84)"><path d="m330.73 1008.5h-13.648" fill="none" stroke="#c0c2b7" stroke-width="4px"/></g><g transform="translate(0 -53.012)"><path d="m330.73 1008.5h-13.648" fill="none" stroke="#c0c2b7" stroke-width="4px"/></g><g transform="translate(0 -237.35)"><path d="m330.73 1008.5h-13.648" fill="none" stroke="#c0c2b7" stroke-width="4px"/></g><g transform="translate(0 -99.393)"><path d="m330.73 1008.5h-13.648" fill="none" stroke="#c0c2b7" stroke-width="4px"/></g><g transform="translate(0 -283.73)"><path d="m330.73 1008.5h-13.648" fill="none" stroke="#c0c2b7" stroke-width="4px"/></g><g transform="translate(0 -145.49)"><path d="m330.73 1008.5h-13.648" fill="none" stroke="#c0c2b7" stroke-width="4px"/></g><g transform="translate(0 -329.82)"><path d="m330.73 1008.5h-13.648" fill="none" stroke="#c0c2b7" stroke-width="4px"/></g><g transform="translate(0 -392.11)"><path d="m330.73 1008.5h-13.648" fill="none" stroke="#c0c2b7" stroke-width="4px"/></g><g transform="translate(0 -430.8)"><path d="m330.73 1008.5h-13.648" fill="none" stroke="#c0c2b7" stroke-width="4px"/></g><g transform="translate(0 -22.633)"><path d="m330.73 1008.5h-13.648" fill="none" stroke="#c0c2b7" stroke-width="4px"/></g><g transform="translate(0 -206.97)"><path d="m330.73 1008.5h-13.648" fill="none" stroke="#c0c2b7" stroke-width="4px"/></g><g transform="translate(0 -68.142)"><path d="m330.73 1008.5h-13.648" fill="none" stroke="#c0c2b7" stroke-width="4px"/></g><g transform="translate(0 -252.48)"><path d="m330.73 1008.5h-13.648" fill="none" stroke="#c0c2b7" stroke-width="4px"/></g><g transform="translate(0 -114.52)"><path d="m330.73 1008.5h-13.648" fill="none" stroke="#c0c2b7" stroke-width="4px"/></g><g transform="translate(0 -298.86)"><path d="m330.73 1008.5h-13.648" fill="none" stroke="#c0c2b7" stroke-width="4px"/></g><g transform="translate(0 -160.62)"><path d="m330.73 1008.5h-13.648" fill="none" stroke="#c0c2b7" stroke-width="4px"/></g><g transform="translate(0 -344.96)"><path d="m330.73 1008.5h-13.648" fill="none" stroke="#c0c2b7" stroke-width="4px"/></g><g transform="translate(0 -407.24)"><path d="m330.73 1008.5h-13.648" fill="none" stroke="#c0c2b7" stroke-width="4px"/></g><g transform="translate(0 -445.92)"><path d="m330.73 1008.5h-13.648" fill="none" stroke="#c0c2b7" stroke-width="4px"/></g><g transform="translate(0 -37.775)"><path d="m330.73 1008.5h-13.648" fill="none" stroke="#c0c2b7" stroke-width="4px"/></g><g transform="translate(0 -222.11)"><path d="m330.73 1008.5h-13.648" fill="none" stroke="#c0c2b7" stroke-width="4px"/></g><g transform="translate(0 -83.284)"><path d="m330.73 1008.5h-13.648" fill="none" stroke="#c0c2b7" stroke-width="4px"/></g><g transform="translate(0 -267.62)"><path d="m330.73 1008.5h-13.648" fill="none" stroke="#c0c2b7" stroke-width="4px"/></g><g transform="translate(0 -129.66)"><path d="m330.73 1008.5h-13.648" fill="none" stroke="#c0c2b7" stroke-width="4px"/></g><g transform="translate(0 -314)"><path d="m330.73 1008.5h-13.648" fill="none" stroke="#c0c2b7" stroke-width="4px"/></g><g transform="translate(0 -376.29)"><path d="m330.73 1008.5h-13.648" fill="none" stroke="#c0c2b7" stroke-width="4px"/></g><g transform="translate(0 -175.76)"><path d="m330.73 1008.5h-13.648" fill="none" stroke="#c0c2b7" stroke-width="4px"/></g><g transform="translate(0 -360.1)"><path d="m330.73 1008.5h-13.648" fill="none" stroke="#c0c2b7" stroke-width="4px"/></g><g transform="translate(0 -422.38)"><path d="m330.73 1008.5h-13.648" fill="none" stroke="#c0c2b7" stroke-width="4px"/></g><g transform="translate(0 -461.07)"><path d="m330.73 1008.5h-13.648" fill="none" stroke="#c0c2b7" stroke-width="4px"/></g><g transform="translate(0 -501.28)"><path d="m330.73 1008.5h-13.648" fill="none" stroke="#c0c2b7" stroke-width="4px"/></g></g><path d="m314.71 455.76v26.92h12.214v556.8h-12.214v27.31h90.895v-7.54s-25.161 0.39-25.161 0v-595.61h25.161v-7.881h-90.895" fill="#efe8d5" stroke="#e7dcbe" stroke-width="2px"/></g><g transform="matrix(1 -2.2204e-16 2.2204e-16 1 874.9 -663.33)" fill="#fff" fill-rule="nonzero"><path d="m213.62 864.26h2.035c1.158 0 1.918 0.045 2.279 0.136 0.362 0.09 0.695 0.253 0.998 0.488s0.54 0.529 0.712 0.882 0.258 0.751 0.258 1.194-0.084 0.841-0.251 1.194c-0.168 0.353-0.407 0.645-0.719 0.875-0.312 0.231-0.695 0.394-1.147 0.489s-1.253 0.142-2.402 0.142h-0.597v4.532h-1.166v-9.932zm1.166 4.274h1.547c0.914 0.018 1.536-0.127 1.866-0.434 0.33-0.308 0.495-0.692 0.495-1.153 0-1.032-0.76-1.547-2.279-1.547h-1.629v3.134z"/><path d="m226.4 864.02c0.968 0 1.859 0.228 2.673 0.685s1.454 1.088 1.92 1.893 0.699 1.68 0.699 2.625c0 0.946-0.231 1.821-0.692 2.626-0.462 0.805-1.095 1.438-1.9 1.899-0.805 0.462-1.68 0.692-2.625 0.692-0.946 0-1.825-0.228-2.639-0.685-0.815-0.457-1.452-1.085-1.914-1.886-0.461-0.8-0.692-1.673-0.692-2.619 0-0.945 0.231-1.822 0.692-2.632 0.462-0.809 1.093-1.445 1.893-1.906 0.801-0.462 1.662-0.692 2.585-0.692zm0.041 9.281c1.13 0 2.087-0.385 2.869-1.154 0.783-0.769 1.174-1.732 1.174-2.89s-0.396-2.13-1.187-2.917c-0.792-0.787-1.744-1.18-2.856-1.18-1.14 0-2.092 0.395-2.856 1.187-0.765 0.791-1.147 1.755-1.147 2.89s0.394 2.096 1.18 2.883c0.787 0.787 1.728 1.181 2.823 1.181z"/><path d="m239.24 865.42h-4.614v2.85h4.573v1.139h-4.573v3.637h4.573v1.153h-5.739v-9.932h5.78v1.153z"/><path d="m206.49 877.1h2.036c1.157 0 1.917 0.045 2.279 0.135 0.362 0.091 0.694 0.254 0.997 0.489s0.541 0.529 0.713 0.882 0.258 0.751 0.258 1.194-0.084 0.841-0.251 1.194c-0.168 0.353-0.408 0.644-0.72 0.875s-0.694 0.394-1.146 0.489-1.253 0.142-2.402 0.142h-0.597v4.532h-1.167v-9.932zm1.167 4.274h1.547c0.914 0.018 1.536-0.127 1.866-0.434 0.33-0.308 0.495-0.692 0.495-1.154 0-1.031-0.76-1.546-2.28-1.546h-1.628v3.134z"/><path d="m219.28 876.86c0.968 0 1.859 0.228 2.673 0.685s1.454 1.088 1.92 1.893 0.698 1.68 0.698 2.625-0.23 1.82-0.691 2.626c-0.462 0.805-1.095 1.438-1.9 1.899s-1.68 0.692-2.626 0.692c-0.945 0-1.824-0.228-2.639-0.685-0.814-0.457-1.451-1.086-1.913-1.886-0.461-0.801-0.692-1.674-0.692-2.619s0.231-1.822 0.692-2.632c0.462-0.81 1.093-1.445 1.893-1.906 0.801-0.462 1.662-0.692 2.585-0.692zm0.041 9.28c1.13 0 2.087-0.384 2.869-1.153 0.783-0.769 1.174-1.732 1.174-2.89s-0.396-2.13-1.187-2.917c-0.792-0.787-1.744-1.181-2.856-1.181-1.14 0-2.092 0.396-2.857 1.188-0.764 0.791-1.146 1.754-1.146 2.89 0 1.135 0.393 2.096 1.18 2.883s1.728 1.18 2.823 1.18z"/><path d="m232.91 887.03h-1.465l-3.501-4.532h-0.407v4.532h-1.167v-9.932h2.035c1.086 0 1.832 0.047 2.239 0.142s0.76 0.256 1.058 0.482c0.299 0.226 0.534 0.518 0.706 0.875s0.258 0.753 0.258 1.187c0 0.823-0.281 1.482-0.841 1.975-0.561 0.493-1.371 0.739-2.429 0.739l3.514 4.532zm-5.373-5.672h1.587c0.796 9e-3 1.384-0.111 1.764-0.359 0.38-0.249 0.57-0.647 0.57-1.194 0-0.548-0.185-0.946-0.556-1.194-0.371-0.249-0.95-0.373-1.737-0.373h-1.628v3.12z"/><path d="m239.12 878.24h-2.171v8.792h-1.18v-8.792h-2.185v-1.14h5.536v1.14z"/><path d="m243.77 887.03h-1.154v-8.792h-1.614l0.705-1.14h2.063v9.932z"/></g><g transform="matrix(1 -2.2204e-16 2.2204e-16 1 904.66 -199.86)" fill="#fff" fill-rule="nonzero"><path d="m217.35 866.45c-0.362-0.489-0.669-0.817-0.923-0.984-0.253-0.168-0.549-0.251-0.888-0.251s-0.624 0.108-0.855 0.325c-0.231 0.218-0.346 0.496-0.346 0.835s0.108 0.635 0.326 0.889c0.217 0.253 0.716 0.667 1.499 1.241 0.782 0.575 1.354 1.115 1.716 1.622 0.362 0.506 0.543 1.04 0.543 1.601 0 0.732-0.283 1.368-0.848 1.906s-1.223 0.807-1.974 0.807c-1.321 0-2.357-0.737-3.107-2.211l0.99-0.57c0.588 1.094 1.248 1.642 1.981 1.642 0.47 0 0.873-0.15 1.208-0.448 0.334-0.299 0.502-0.647 0.502-1.045s-0.14-0.776-0.421-1.133c-0.28-0.357-0.764-0.796-1.452-1.316-0.687-0.52-1.16-0.916-1.418-1.187-0.257-0.272-0.445-0.561-0.563-0.869-0.117-0.307-0.176-0.615-0.176-0.922 0-0.661 0.228-1.219 0.685-1.676s1.047-0.685 1.771-0.685c0.561 0 1.049 0.142 1.465 0.427s0.823 0.708 1.221 1.269l-0.936 0.733z"/><path d="m231.72 864.26-2.849 10.176h-0.34l-2.822-7.422-2.876 7.422h-0.326l-2.795-10.176h1.208l1.913 7.028 2.713-7.028h0.326l2.687 7.042 1.953-7.042h1.208z"/><path d="m238.99 865.38h-3.487l-0.448 2.428c0.389-0.099 0.755-0.149 1.099-0.149 0.877 0 1.61 0.31 2.198 0.93 0.588 0.619 0.882 1.408 0.882 2.367s-0.317 1.78-0.95 2.463-1.479 1.024-2.537 1.024c-0.814 0-1.502-0.248-2.063-0.746-0.56-0.497-0.9-1.18-1.017-2.049h1.18c0.118 0.543 0.358 0.959 0.719 1.249 0.362 0.289 0.774 0.434 1.235 0.434 0.615 0 1.144-0.233 1.588-0.699 0.443-0.466 0.664-1.043 0.664-1.73 0-0.615-0.192-1.122-0.576-1.52-0.385-0.398-0.902-0.597-1.554-0.597-0.651 0-1.411 0.186-2.279 0.557l0.95-5.075h4.396v1.113z"/></g><g transform="matrix(1 -2.2204e-16 2.2204e-16 1 429.61 -710.4)" fill="#fff" fill-rule="nonzero"><path d="m217.35 866.45c-0.362-0.489-0.669-0.817-0.923-0.984-0.253-0.168-0.549-0.251-0.888-0.251s-0.624 0.108-0.855 0.325c-0.231 0.218-0.346 0.496-0.346 0.835s0.108 0.635 0.326 0.889c0.217 0.253 0.716 0.667 1.499 1.241 0.782 0.575 1.354 1.115 1.716 1.622 0.362 0.506 0.543 1.04 0.543 1.601 0 0.732-0.283 1.368-0.848 1.906s-1.223 0.807-1.974 0.807c-1.321 0-2.357-0.737-3.107-2.211l0.99-0.57c0.588 1.094 1.248 1.642 1.981 1.642 0.47 0 0.873-0.15 1.208-0.448 0.334-0.299 0.502-0.647 0.502-1.045s-0.14-0.776-0.421-1.133c-0.28-0.357-0.764-0.796-1.452-1.316-0.687-0.52-1.16-0.916-1.418-1.187-0.257-0.272-0.445-0.561-0.563-0.869-0.117-0.307-0.176-0.615-0.176-0.922 0-0.661 0.228-1.219 0.685-1.676s1.047-0.685 1.771-0.685c0.561 0 1.049 0.142 1.465 0.427s0.823 0.708 1.221 1.269l-0.936 0.733z"/><path d="m231.72 864.26-2.849 10.176h-0.34l-2.822-7.422-2.876 7.422h-0.326l-2.795-10.176h1.208l1.913 7.028 2.713-7.028h0.326l2.687 7.042 1.953-7.042h1.208z"/><path d="m239.46 871.93h-1.181v2.266h-1.153v-2.266h-4.763l5.577-7.91h0.339v6.784h1.181v1.126zm-2.334-1.126v-3.663l-2.592 3.663h2.592z"/></g><g transform="translate(-1.2554 -.84088)"><circle cx="1091.7" cy="643.19" r="8.105" fill="#eaece4" stroke="#c5b172" stroke-width=".65px"/></g><g transform="translate(-1.2554 -66.628)"><circle cx="1091.7" cy="643.19" r="8.105" fill="#eaece4" stroke="#c5b172" stroke-width=".65px"/></g><rect x="1071.4" y="562.23" width="56.163" height="93.667" fill="none" stroke="#fff" stroke-linecap="square" stroke-linejoin="miter" stroke-width="2px"/><path d="m1138.2 594.47h6.82l2.03 2.516v27.526l-2.03 2.141h-5.13l-1.69-32.183z" fill="#262626" stroke="#1a1a1a" stroke-linecap="square" stroke-linejoin="miter" stroke-width="1px"/><rect x="1103.5" y="583.6" width="39.609" height="56.129" fill="#262626" stroke="#1a1a1a" stroke-linecap="square" stroke-linejoin="miter" stroke-width="1px"/><path d="m1077.7 575.87h56.17c3.59 0 4.49 0.877 4.49 5.403v56.255c0 5.712 0.03 6.221-4.49 6.221h-56.17" fill="none" stroke="#92938e" stroke-width="3px"/><g transform="matrix(.36959 0 0 .35678 966.42 485.11)"><rect x="381.48" y="287.99" width="11.716" height="12.521" fill="#c1ad70" stroke="#5b4925" stroke-linecap="square" stroke-linejoin="miter" stroke-width="2.75px"/></g><g transform="matrix(.36959 0 0 .35678 966.42 527.9)"><rect x="381.48" y="287.99" width="11.716" height="12.521" fill="#c1ad70" stroke="#5b4925" stroke-linecap="square" stroke-linejoin="miter" stroke-width="2.75px"/></g><g transform="matrix(-1.6081e-16 -1 1 -1.6081e-16 70.268 1221.3)"><g transform="translate(-1.2554 -.84088)"><circle cx="1091.7" cy="643.19" r="8.105" fill="#eaece4" stroke="#c5b172" stroke-width=".65px"/></g><g transform="translate(-1.2554 -66.628)"><circle cx="1091.7" cy="643.19" r="8.105" fill="#eaece4" stroke="#c5b172" stroke-width=".65px"/></g><rect x="1071.4" y="562.23" width="56.163" height="93.667" fill="none" stroke="#fff" stroke-linecap="square" stroke-linejoin="miter" stroke-width="2px"/><path d="m1138.2 594.47h6.82l2.03 2.516v27.526l-2.03 2.141h-5.13l-1.69-32.183z" fill="#262626" stroke="#1a1a1a" stroke-linecap="square" stroke-linejoin="miter" stroke-width="1px"/><rect x="1103.5" y="583.6" width="39.609" height="56.129" fill="#262626" stroke="#1a1a1a" stroke-linecap="square" stroke-linejoin="miter" stroke-width="1px"/><path d="m1077.7 575.87h56.17c3.59 0 4.49 0.877 4.49 5.403v56.255c0 5.712 0.03 6.221-4.49 6.221h-56.17" fill="none" stroke="#92938e" stroke-width="3px"/><g transform="matrix(.36959 0 0 .35678 966.42 485.11)"><rect x="381.48" y="287.99" width="11.716" height="12.521" fill="#c1ad70" stroke="#5b4925" stroke-linecap="square" stroke-linejoin="miter" stroke-width="2.75px"/></g><g transform="matrix(.36959 0 0 .35678 966.42 527.9)"><rect x="381.48" y="287.99" width="11.716" height="12.521" fill="#c1ad70" stroke="#5b4925" stroke-linecap="square" stroke-linejoin="miter" stroke-width="2.75px"/></g></g><g id="Lan"><g transform="matrix(.53101 0 0 .57675 955.66 -505.54)"><ellipse cx="212.16" cy="1065" rx="22.216" ry="19.948" fill="#94906b" stroke="#e1c571" stroke-linecap="butt" stroke-width="5.41px"/></g><g transform="matrix(.53101 0 0 .57675 807.44 -505.54)"><ellipse cx="212.16" cy="1065" rx="22.216" ry="19.948" fill="#8d8b76" stroke="#e1c571" stroke-linecap="butt" stroke-width="5.41px"/></g><g transform="matrix(.53101 0 0 .57675 807.44 -445.83)"><ellipse cx="212.16" cy="1065" rx="22.216" ry="19.948" fill="#fff" stroke="#e1c571" stroke-linecap="butt" stroke-width="5.41px"/></g><g transform="matrix(.53101 0 0 .57675 954.23 -445.83)"><ellipse cx="212.16" cy="1065" rx="22.216" ry="19.948" fill="#fff" stroke="#e1c571" stroke-linecap="butt" stroke-width="5.41px"/></g><rect x="920.59" y="56.514" width="142.47" height="180.81" fill="#aaa898" stroke="#928c70" stroke-linecap="square" stroke-linejoin="miter" stroke-width="2px"/><path d="m964.56 56.589v33.556c0 3.828 7.223 3.888 7.223 0h37.492c0 4.574 6.92 4.459 6.92 0v-33.556h-51.635z" fill="#3f3c37" stroke="#928c70" stroke-linecap="square" stroke-linejoin="miter" stroke-width="2px"/><rect x="972.51" y="56.498" width="35.515" height="30.037" fill="#f3f1dc" stroke="#928c70" stroke-linecap="square" stroke-linejoin="miter" stroke-width="2px"/></g><rect x="1101.8" y="416.1" width="15.765" height="9.488" fill="#aaa899"/><g transform="translate(0 120.33)"><rect x="1101.8" y="416.1" width="15.765" height="9.488" fill="#aaa899"/></g><g id="chip"><path d="m848.06 300.21v-38.523h251.33v102.13h-251.33v-38.114h29.617v-25.497h-29.617z" fill="none" stroke="#fff" stroke-linecap="butt" stroke-width="1px"/><rect x="853.48" y="267.61" width="240.98" height="92.897" stroke="#1a1a1a" stroke-width="2.5px"/></g><g stroke-linecap="butt"><rect x="1089.9" y="425.85" width="45.868" height="109.6" fill="#323333" stroke="#928c70" stroke-width="3px"/><path d="m1132.4 451.67c0-11.445-9.3-20.737-20.74-20.737-11.45 0-20.74 9.292-20.74 20.737v59.065c0 11.444 9.29 20.736 20.74 20.736 11.44 0 20.74-9.292 20.74-20.736v-59.065z" fill="#98927a" stroke="#a79e77" stroke-width="4.5px"/></g></svg>
