<?xml version="1.0" encoding="UTF-8"?>
<!DOCTYPE svg  PUBLIC '-//W3C//DTD SVG 1.1//EN'  'http://www.w3.org/Graphics/SVG/1.1/DTD/svg11.dtd'>
<svg clip-rule="evenodd" fill-rule="evenodd" stroke-linejoin="round" stroke-miterlimit="1.4142" version="1.1" viewBox="0 0 1280 1150" xmlns="http://www.w3.org/2000/svg"><g id="Bullet rechts"><g id="Stecker"><path d="m711.85 198.92v-16.8h18.796v-5.026h2.556v-2.37h104.4v2.37h2.613v5.026h19.691v16.8h-148.06z" fill="#ccc" stroke="#666" stroke-width="1px"/><path d="m687.68 687.12 21.366-26.195c1.546-2.025 2.301-4.005 2.402-5.947l-2.402-456.13" fill="none" stroke="#666" stroke-width="1px"/><path d="m883.98 687.12-20.501-26.195c-0.915-1.355-1.331-2.827-1.405-4.38v-457.49" fill="none" stroke="#666" stroke-width="1px"/><rect x="743.23" y="166.63" width="88.62" height="8.092" fill="#ccc" stroke="#666" stroke-width="1px"/><rect x="737.09" y="75.984" width="97.798" height="90.645" fill="#ccc" stroke="#666" stroke-width="1px"/><rect x="733.53" y="104.15" width="106.88" height="53.564" fill="#ccc" stroke="#666" stroke-width="1px"/><g id="Rauten"><g transform="translate(-.091004 7.5381)"><path d="m750.32 107.11 2.373 2.295-2.373 2.296-2.372-2.296 2.372-2.295z" fill="none" stroke="#666" stroke-width="1px"/></g><g transform="translate(6.6088 7.3486)"><path d="m750.32 107.11 2.373 2.295-2.373 2.296-2.372-2.296 2.372-2.295z" fill="none" stroke="#666" stroke-width="1px"/></g><g transform="translate(-7.6469 7.408)"><path d="m750.32 107.11 2.373 2.295-2.373 2.296-2.372-2.296 2.372-2.295z" fill="none" stroke="#666" stroke-width="1px"/></g><g transform="translate(14.766 7.3408)"><path d="m750.32 107.11 2.373 2.295-2.373 2.296-2.372-2.296 2.372-2.295z" fill="none" stroke="#666" stroke-width="1px"/></g><g transform="translate(21.814 7.2775)"><path d="m750.32 107.11 2.373 2.295-2.373 2.296-2.372-2.296 2.372-2.295z" fill="none" stroke="#666" stroke-width="1px"/></g><g transform="translate(.094915 21.926)"><g transform="translate(-.091004 7.5381)"><path d="m750.32 107.11 2.373 2.295-2.373 2.296-2.372-2.296 2.372-2.295z" fill="none" stroke="#666" stroke-width="1px"/></g><g transform="translate(6.6088 7.3486)"><path d="m750.32 107.11 2.373 2.295-2.373 2.296-2.372-2.296 2.372-2.295z" fill="none" stroke="#666" stroke-width="1px"/></g><g transform="translate(-7.6469 7.408)"><path d="m750.32 107.11 2.373 2.295-2.373 2.296-2.372-2.296 2.372-2.295z" fill="none" stroke="#666" stroke-width="1px"/></g><g transform="translate(14.766 7.3408)"><path d="m750.32 107.11 2.373 2.295-2.373 2.296-2.372-2.296 2.372-2.295z" fill="none" stroke="#666" stroke-width="1px"/></g><g transform="translate(21.814 7.2775)"><path d="m750.32 107.11 2.373 2.295-2.373 2.296-2.372-2.296 2.372-2.295z" fill="none" stroke="#666" stroke-width="1px"/></g></g><g transform="translate(37.487 21.796)"><g transform="translate(-.091004 7.5381)"><path d="m750.32 107.11 2.373 2.295-2.373 2.296-2.372-2.296 2.372-2.295z" fill="none" stroke="#666" stroke-width="1px"/></g><g transform="translate(6.6088 7.3486)"><path d="m750.32 107.11 2.373 2.295-2.373 2.296-2.372-2.296 2.372-2.295z" fill="none" stroke="#666" stroke-width="1px"/></g><g transform="translate(-7.6469 7.408)"><path d="m750.32 107.11 2.373 2.295-2.373 2.296-2.372-2.296 2.372-2.295z" fill="none" stroke="#666" stroke-width="1px"/></g><g transform="translate(14.766 7.3408)"><path d="m750.32 107.11 2.373 2.295-2.373 2.296-2.372-2.296 2.372-2.295z" fill="none" stroke="#666" stroke-width="1px"/></g><g transform="translate(21.814 7.2775)"><path d="m750.32 107.11 2.373 2.295-2.373 2.296-2.372-2.296 2.372-2.295z" fill="none" stroke="#666" stroke-width="1px"/></g></g><g transform="translate(37.274 .049057)"><g transform="translate(-.091004 7.5381)"><path d="m750.32 107.11 2.373 2.295-2.373 2.296-2.372-2.296 2.372-2.295z" fill="none" stroke="#666" stroke-width="1px"/></g><g transform="translate(6.6088 7.3486)"><path d="m750.32 107.11 2.373 2.295-2.373 2.296-2.372-2.296 2.372-2.295z" fill="none" stroke="#666" stroke-width="1px"/></g><g transform="translate(-7.6469 7.408)"><path d="m750.32 107.11 2.373 2.295-2.373 2.296-2.372-2.296 2.372-2.295z" fill="none" stroke="#666" stroke-width="1px"/></g><g transform="translate(14.766 7.3408)"><path d="m750.32 107.11 2.373 2.295-2.373 2.296-2.372-2.296 2.372-2.295z" fill="none" stroke="#666" stroke-width="1px"/></g><g transform="translate(21.814 7.2775)"><path d="m750.32 107.11 2.373 2.295-2.373 2.296-2.372-2.296 2.372-2.295z" fill="none" stroke="#666" stroke-width="1px"/></g></g><g transform="translate(74.488 7.5786)"><path d="m750.32 107.11 2.373 2.295-2.373 2.296-2.372-2.296 2.372-2.295z" fill="none" stroke="#666" stroke-width="1px"/></g><g transform="translate(81.188 7.3891)"><path d="m750.32 107.11 2.373 2.295-2.373 2.296-2.372-2.296 2.372-2.295z" fill="none" stroke="#666" stroke-width="1px"/></g><g transform="translate(66.932 7.4485)"><path d="m750.32 107.11 2.373 2.295-2.373 2.296-2.372-2.296 2.372-2.295z" fill="none" stroke="#666" stroke-width="1px"/></g><g transform="translate(-.094915 -7.5658)"><g transform="translate(-.091004 7.5381)"><path d="m750.32 107.11 2.373 2.295-2.373 2.296-2.372-2.296 2.372-2.295z" fill="none" stroke="#666" stroke-width="1px"/></g><g transform="translate(6.6088 7.3486)"><path d="m750.32 107.11 2.373 2.295-2.373 2.296-2.372-2.296 2.372-2.295z" fill="none" stroke="#666" stroke-width="1px"/></g><g transform="translate(-7.6469 7.408)"><path d="m750.32 107.11 2.373 2.295-2.373 2.296-2.372-2.296 2.372-2.295z" fill="none" stroke="#666" stroke-width="1px"/></g><g transform="translate(14.766 7.3408)"><path d="m750.32 107.11 2.373 2.295-2.373 2.296-2.372-2.296 2.372-2.295z" fill="none" stroke="#666" stroke-width="1px"/></g><g transform="translate(21.814 7.2775)"><path d="m750.32 107.11 2.373 2.295-2.373 2.296-2.372-2.296 2.372-2.295z" fill="none" stroke="#666" stroke-width="1px"/></g></g><g transform="translate(1.1369e-13 14.361)"><g transform="translate(-.091004 7.5381)"><path d="m750.32 107.11 2.373 2.295-2.373 2.296-2.372-2.296 2.372-2.295z" fill="none" stroke="#666" stroke-width="1px"/></g><g transform="translate(6.6088 7.3486)"><path d="m750.32 107.11 2.373 2.295-2.373 2.296-2.372-2.296 2.372-2.295z" fill="none" stroke="#666" stroke-width="1px"/></g><g transform="translate(-7.6469 7.408)"><path d="m750.32 107.11 2.373 2.295-2.373 2.296-2.372-2.296 2.372-2.295z" fill="none" stroke="#666" stroke-width="1px"/></g><g transform="translate(14.766 7.3408)"><path d="m750.32 107.11 2.373 2.295-2.373 2.296-2.372-2.296 2.372-2.295z" fill="none" stroke="#666" stroke-width="1px"/></g><g transform="translate(21.814 7.2775)"><path d="m750.32 107.11 2.373 2.295-2.373 2.296-2.372-2.296 2.372-2.295z" fill="none" stroke="#666" stroke-width="1px"/></g></g><g transform="translate(37.392 14.23)"><g transform="translate(-.091004 7.5381)"><path d="m750.32 107.11 2.373 2.295-2.373 2.296-2.372-2.296 2.372-2.295z" fill="none" stroke="#666" stroke-width="1px"/></g><g transform="translate(6.6088 7.3486)"><path d="m750.32 107.11 2.373 2.295-2.373 2.296-2.372-2.296 2.372-2.295z" fill="none" stroke="#666" stroke-width="1px"/></g><g transform="translate(-7.6469 7.408)"><path d="m750.32 107.11 2.373 2.295-2.373 2.296-2.372-2.296 2.372-2.295z" fill="none" stroke="#666" stroke-width="1px"/></g><g transform="translate(14.766 7.3408)"><path d="m750.32 107.11 2.373 2.295-2.373 2.296-2.372-2.296 2.372-2.295z" fill="none" stroke="#666" stroke-width="1px"/></g><g transform="translate(21.814 7.2775)"><path d="m750.32 107.11 2.373 2.295-2.373 2.296-2.372-2.296 2.372-2.295z" fill="none" stroke="#666" stroke-width="1px"/></g></g><g transform="translate(37.179 -7.5168)"><g transform="translate(-.091004 7.5381)"><path d="m750.32 107.11 2.373 2.295-2.373 2.296-2.372-2.296 2.372-2.295z" fill="none" stroke="#666" stroke-width="1px"/></g><g transform="translate(6.6088 7.3486)"><path d="m750.32 107.11 2.373 2.295-2.373 2.296-2.372-2.296 2.372-2.295z" fill="none" stroke="#666" stroke-width="1px"/></g><g transform="translate(-7.6469 7.408)"><path d="m750.32 107.11 2.373 2.295-2.373 2.296-2.372-2.296 2.372-2.295z" fill="none" stroke="#666" stroke-width="1px"/></g><g transform="translate(14.766 7.3408)"><path d="m750.32 107.11 2.373 2.295-2.373 2.296-2.372-2.296 2.372-2.295z" fill="none" stroke="#666" stroke-width="1px"/></g><g transform="translate(21.814 7.2775)"><path d="m750.32 107.11 2.373 2.295-2.373 2.296-2.372-2.296 2.372-2.295z" fill="none" stroke="#666" stroke-width="1px"/></g></g><g transform="translate(74.393 .012798)"><path d="m750.32 107.11 2.373 2.295-2.373 2.296-2.372-2.296 2.372-2.295z" fill="none" stroke="#666" stroke-width="1px"/></g><g transform="translate(81.093 -.17668)"><path d="m750.32 107.11 2.373 2.295-2.373 2.296-2.372-2.296 2.372-2.295z" fill="none" stroke="#666" stroke-width="1px"/></g><g transform="translate(-.68983)"><g transform="translate(88.506 -.3498)"><path d="m750.32 107.11 2.373 2.295-2.373 2.296-2.372-2.296 2.372-2.295z" fill="none" stroke="#666" stroke-width="1px"/></g><g transform="translate(88.352 7.4069)"><path d="m750.32 107.11 2.373 2.295-2.373 2.296-2.372-2.296 2.372-2.295z" fill="none" stroke="#666" stroke-width="1px"/></g><g transform="translate(88.352 14.233)"><path d="m750.32 107.11 2.373 2.295-2.373 2.296-2.372-2.296 2.372-2.295z" fill="none" stroke="#666" stroke-width="1px"/></g><g transform="translate(88.415 21.803)"><path d="m750.32 107.11 2.373 2.295-2.373 2.296-2.372-2.296 2.372-2.295z" fill="none" stroke="#666" stroke-width="1px"/></g><g transform="translate(88.261 29.56)"><path d="m750.32 107.11 2.373 2.295-2.373 2.296-2.372-2.296 2.372-2.295z" fill="none" stroke="#666" stroke-width="1px"/></g><g transform="translate(88.261 36.386)"><path d="m750.32 107.11 2.373 2.295-2.373 2.296-2.372-2.296 2.372-2.295z" fill="none" stroke="#666" stroke-width="1px"/></g><g transform="translate(88.203 43.662)"><path d="m750.32 107.11 2.373 2.295-2.373 2.296-2.372-2.296 2.372-2.295z" fill="none" stroke="#666" stroke-width="1px"/></g></g><g transform="translate(-102.94 .068137)"><g transform="translate(88.506 -.3498)"><path d="m750.32 107.11 2.373 2.295-2.373 2.296-2.372-2.296 2.372-2.295z" fill="none" stroke="#666" stroke-width="1px"/></g><g transform="translate(88.352 7.4069)"><path d="m750.32 107.11 2.373 2.295-2.373 2.296-2.372-2.296 2.372-2.295z" fill="none" stroke="#666" stroke-width="1px"/></g><g transform="translate(88.352 14.233)"><path d="m750.32 107.11 2.373 2.295-2.373 2.296-2.372-2.296 2.372-2.295z" fill="none" stroke="#666" stroke-width="1px"/></g><g transform="translate(88.415 21.803)"><path d="m750.32 107.11 2.373 2.295-2.373 2.296-2.372-2.296 2.372-2.295z" fill="none" stroke="#666" stroke-width="1px"/></g><g transform="translate(88.261 29.56)"><path d="m750.32 107.11 2.373 2.295-2.373 2.296-2.372-2.296 2.372-2.295z" fill="none" stroke="#666" stroke-width="1px"/></g><g transform="translate(88.261 36.386)"><path d="m750.32 107.11 2.373 2.295-2.373 2.296-2.372-2.296 2.372-2.295z" fill="none" stroke="#666" stroke-width="1px"/></g><g transform="translate(88.203 43.662)"><path d="m750.32 107.11 2.373 2.295-2.373 2.296-2.372-2.296 2.372-2.295z" fill="none" stroke="#666" stroke-width="1px"/></g></g><g transform="translate(66.837 -.11731)"><path d="m750.32 107.11 2.373 2.295-2.373 2.296-2.372-2.296 2.372-2.295z" fill="none" stroke="#666" stroke-width="1px"/></g><g transform="translate(-.070742 7.0056)"><g transform="translate(-.091004 7.5381)"><path d="m750.32 107.11 2.373 2.295-2.373 2.296-2.372-2.296 2.372-2.295z" fill="none" stroke="#666" stroke-width="1px"/></g><g transform="translate(6.6088 7.3486)"><path d="m750.32 107.11 2.373 2.295-2.373 2.296-2.372-2.296 2.372-2.295z" fill="none" stroke="#666" stroke-width="1px"/></g><g transform="translate(-7.6469 7.408)"><path d="m750.32 107.11 2.373 2.295-2.373 2.296-2.372-2.296 2.372-2.295z" fill="none" stroke="#666" stroke-width="1px"/></g><g transform="translate(14.766 7.3408)"><path d="m750.32 107.11 2.373 2.295-2.373 2.296-2.372-2.296 2.372-2.295z" fill="none" stroke="#666" stroke-width="1px"/></g><g transform="translate(21.814 7.2775)"><path d="m750.32 107.11 2.373 2.295-2.373 2.296-2.372-2.296 2.372-2.295z" fill="none" stroke="#666" stroke-width="1px"/></g></g><g transform="translate(.024173 28.932)"><g transform="translate(-.091004 7.5381)"><path d="m750.32 107.11 2.373 2.295-2.373 2.296-2.372-2.296 2.372-2.295z" fill="none" stroke="#666" stroke-width="1px"/></g><g transform="translate(6.6088 7.3486)"><path d="m750.32 107.11 2.373 2.295-2.373 2.296-2.372-2.296 2.372-2.295z" fill="none" stroke="#666" stroke-width="1px"/></g><g transform="translate(-7.6469 7.408)"><path d="m750.32 107.11 2.373 2.295-2.373 2.296-2.372-2.296 2.372-2.295z" fill="none" stroke="#666" stroke-width="1px"/></g><g transform="translate(14.766 7.3408)"><path d="m750.32 107.11 2.373 2.295-2.373 2.296-2.372-2.296 2.372-2.295z" fill="none" stroke="#666" stroke-width="1px"/></g><g transform="translate(21.814 7.2775)"><path d="m750.32 107.11 2.373 2.295-2.373 2.296-2.372-2.296 2.372-2.295z" fill="none" stroke="#666" stroke-width="1px"/></g></g><g transform="translate(-.10238 36.289)"><g transform="translate(-.091004 7.5381)"><path d="m750.32 107.11 2.373 2.295-2.373 2.296-2.372-2.296 2.372-2.295z" fill="none" stroke="#666" stroke-width="1px"/></g><g transform="translate(6.6088 7.3486)"><path d="m750.32 107.11 2.373 2.295-2.373 2.296-2.372-2.296 2.372-2.295z" fill="none" stroke="#666" stroke-width="1px"/></g><g transform="translate(-7.6469 7.408)"><path d="m750.32 107.11 2.373 2.295-2.373 2.296-2.372-2.296 2.372-2.295z" fill="none" stroke="#666" stroke-width="1px"/></g><g transform="translate(14.766 7.3408)"><path d="m750.32 107.11 2.373 2.295-2.373 2.296-2.372-2.296 2.372-2.295z" fill="none" stroke="#666" stroke-width="1px"/></g><g transform="translate(21.814 7.2775)"><path d="m750.32 107.11 2.373 2.295-2.373 2.296-2.372-2.296 2.372-2.295z" fill="none" stroke="#666" stroke-width="1px"/></g></g><g transform="translate(37.417 28.802)"><g transform="translate(-.091004 7.5381)"><path d="m750.32 107.11 2.373 2.295-2.373 2.296-2.372-2.296 2.372-2.295z" fill="none" stroke="#666" stroke-width="1px"/></g><g transform="translate(6.6088 7.3486)"><path d="m750.32 107.11 2.373 2.295-2.373 2.296-2.372-2.296 2.372-2.295z" fill="none" stroke="#666" stroke-width="1px"/></g><g transform="translate(-7.6469 7.408)"><path d="m750.32 107.11 2.373 2.295-2.373 2.296-2.372-2.296 2.372-2.295z" fill="none" stroke="#666" stroke-width="1px"/></g><g transform="translate(14.766 7.3408)"><path d="m750.32 107.11 2.373 2.295-2.373 2.296-2.372-2.296 2.372-2.295z" fill="none" stroke="#666" stroke-width="1px"/></g><g transform="translate(21.814 7.2775)"><path d="m750.32 107.11 2.373 2.295-2.373 2.296-2.372-2.296 2.372-2.295z" fill="none" stroke="#666" stroke-width="1px"/></g></g><g transform="translate(37.417 36.316)"><g transform="translate(-.091004 7.5381)"><path d="m750.32 107.11 2.373 2.295-2.373 2.296-2.372-2.296 2.372-2.295z" fill="none" stroke="#666" stroke-width="1px"/></g><g transform="translate(6.6088 7.3486)"><path d="m750.32 107.11 2.373 2.295-2.373 2.296-2.372-2.296 2.372-2.295z" fill="none" stroke="#666" stroke-width="1px"/></g><g transform="translate(-7.6469 7.408)"><path d="m750.32 107.11 2.373 2.295-2.373 2.296-2.372-2.296 2.372-2.295z" fill="none" stroke="#666" stroke-width="1px"/></g><g transform="translate(14.766 7.3408)"><path d="m750.32 107.11 2.373 2.295-2.373 2.296-2.372-2.296 2.372-2.295z" fill="none" stroke="#666" stroke-width="1px"/></g><g transform="translate(21.814 7.2775)"><path d="m750.32 107.11 2.373 2.295-2.373 2.296-2.372-2.296 2.372-2.295z" fill="none" stroke="#666" stroke-width="1px"/></g></g><g transform="translate(37.203 7.0546)"><g transform="translate(-.091004 7.5381)"><path d="m750.32 107.11 2.373 2.295-2.373 2.296-2.372-2.296 2.372-2.295z" fill="none" stroke="#666" stroke-width="1px"/></g><g transform="translate(6.6088 7.3486)"><path d="m750.32 107.11 2.373 2.295-2.373 2.296-2.372-2.296 2.372-2.295z" fill="none" stroke="#666" stroke-width="1px"/></g><g transform="translate(-7.6469 7.408)"><path d="m750.32 107.11 2.373 2.295-2.373 2.296-2.372-2.296 2.372-2.295z" fill="none" stroke="#666" stroke-width="1px"/></g><g transform="translate(14.766 7.3408)"><path d="m750.32 107.11 2.373 2.295-2.373 2.296-2.372-2.296 2.372-2.295z" fill="none" stroke="#666" stroke-width="1px"/></g><g transform="translate(21.814 7.2775)"><path d="m750.32 107.11 2.373 2.295-2.373 2.296-2.372-2.296 2.372-2.295z" fill="none" stroke="#666" stroke-width="1px"/></g></g><g transform="translate(74.417 14.584)"><path d="m750.32 107.11 2.373 2.295-2.373 2.296-2.372-2.296 2.372-2.295z" fill="none" stroke="#666" stroke-width="1px"/></g><g transform="translate(81.117 14.395)"><path d="m750.32 107.11 2.373 2.295-2.373 2.296-2.372-2.296 2.372-2.295z" fill="none" stroke="#666" stroke-width="1px"/></g><g transform="translate(66.861 14.454)"><path d="m750.32 107.11 2.373 2.295-2.373 2.296-2.372-2.296 2.372-2.295z" fill="none" stroke="#666" stroke-width="1px"/></g><g transform="translate(.036615 7.3486)"><g transform="translate(74.417 14.584)"><path d="m750.32 107.11 2.373 2.295-2.373 2.296-2.372-2.296 2.372-2.295z" fill="none" stroke="#666" stroke-width="1px"/></g><g transform="translate(81.117 14.395)"><path d="m750.32 107.11 2.373 2.295-2.373 2.296-2.372-2.296 2.372-2.295z" fill="none" stroke="#666" stroke-width="1px"/></g><g transform="translate(66.861 14.454)"><path d="m750.32 107.11 2.373 2.295-2.373 2.296-2.372-2.296 2.372-2.295z" fill="none" stroke="#666" stroke-width="1px"/></g></g><g transform="translate(-.093493 14.74)"><g transform="translate(74.417 14.584)"><path d="m750.32 107.11 2.373 2.295-2.373 2.296-2.372-2.296 2.372-2.295z" fill="none" stroke="#666" stroke-width="1px"/></g><g transform="translate(81.117 14.395)"><path d="m750.32 107.11 2.373 2.295-2.373 2.296-2.372-2.296 2.372-2.295z" fill="none" stroke="#666" stroke-width="1px"/></g><g transform="translate(66.861 14.454)"><path d="m750.32 107.11 2.373 2.295-2.373 2.296-2.372-2.296 2.372-2.295z" fill="none" stroke="#666" stroke-width="1px"/></g></g><g transform="translate(-.1845 21.927)"><g transform="translate(74.417 14.584)"><path d="m750.32 107.11 2.373 2.295-2.373 2.296-2.372-2.296 2.372-2.295z" fill="none" stroke="#666" stroke-width="1px"/></g><g transform="translate(81.117 14.395)"><path d="m750.32 107.11 2.373 2.295-2.373 2.296-2.372-2.296 2.372-2.295z" fill="none" stroke="#666" stroke-width="1px"/></g><g transform="translate(66.861 14.454)"><path d="m750.32 107.11 2.373 2.295-2.373 2.296-2.372-2.296 2.372-2.295z" fill="none" stroke="#666" stroke-width="1px"/></g></g><g transform="translate(-.40561 29.216)"><g transform="translate(74.417 14.584)"><path d="m750.32 107.11 2.373 2.295-2.373 2.296-2.372-2.296 2.372-2.295z" fill="none" stroke="#666" stroke-width="1px"/></g><g transform="translate(81.117 14.395)"><path d="m750.32 107.11 2.373 2.295-2.373 2.296-2.372-2.296 2.372-2.295z" fill="none" stroke="#666" stroke-width="1px"/></g><g transform="translate(66.861 14.454)"><path d="m750.32 107.11 2.373 2.295-2.373 2.296-2.372-2.296 2.372-2.295z" fill="none" stroke="#666" stroke-width="1px"/></g></g></g><path d="m730.79 180.87h109.46" fill="none" stroke="#666" stroke-width="1px"/></g><path d="m687.4 201.35 2.369-2.43h191.69l2.498 2.43v658.2c-65.553 2.773-131.07 2.449-196.56 0v-658.2z" fill="#fff" stroke="#666" stroke-width="1px"/><rect x="745.56" y="861.09" width="79.956" height="26.475" fill="#fff" stroke="#666" stroke-width="1px"/><path d="m743.08 887.56v17.06h87.262v-17.06h-87.262" fill="#fff" stroke="#666" stroke-width="1px"/><rect x="760.67" y="241.01" width="49.452" height="392.9" fill="none" stroke="#666" stroke-width="1px"/><path d="m687.65 744.38c8.409 2.364 17.549 3.516 27.36 3.551h141.06c9.359-0.694 18.661-1.87 27.905-3.551" fill="none" stroke="#666" stroke-width="1px"/><g id="anzeige" transform="translate(124.37 -258.01)"><g transform="translate(-1.3015 -.093849)"><path d="m642.42 524.12h8.441v61.83h-2.662c-0.883-20.993-2.384-41.759-5.779-61.83z" fill="url(#_Linear1)" stroke="#808080" stroke-linecap="round" stroke-width=".02px"/></g><g id="LED"><g transform="translate(2.9114 105.88)"><rect x="654.97" y="523.87" width="13.363" height="9.089" fill="#acc04c" stroke="#acc04c" stroke-linecap="round" stroke-width="1px"/></g><g transform="translate(2.0697 84.748)"><rect x="654.97" y="523.87" width="13.363" height="9.089" fill="#acc04c" stroke="#acc04c" stroke-linecap="round" stroke-width="1px"/></g><g transform="translate(1.9178 64.757)"><rect x="654.97" y="523.87" width="13.363" height="9.089" fill="#de5b33" stroke="#de5b33" stroke-linecap="round" stroke-width="1px"/></g><g transform="translate(1.833 42.682)"><rect x="654.97" y="523.87" width="13.363" height="9.089" fill="#dcb644" stroke="#dcb644" stroke-linecap="round" stroke-width="1px"/></g><g transform="translate(2.468 21.055)"><rect x="654.97" y="523.87" width="13.363" height="9.089" fill="#acc04c" stroke="#acc04c" stroke-linecap="round" stroke-width="1px"/></g><g transform="translate(2.2857 .55224)"><rect x="654.97" y="523.87" width="13.363" height="9.089" fill="#acc04c" stroke="#acc04c" stroke-linecap="round" stroke-width="1px"/></g></g><g id="Powerknopf" transform="translate(-.99046 17.713)"><ellipse cx="647.41" cy="617.8" rx="3.388" ry="3.046" fill="none" stroke="#737373" stroke-width=".9px"/><path d="m648.44 613.78c0-0.519-0.421-0.94-0.94-0.94s-0.94 0.421-0.94 0.94v3.82c0 0.519 0.421 0.94 0.94 0.94s0.94-0.421 0.94-0.94v-3.82z" fill="#666" stroke="#fff" stroke-linecap="round" stroke-width=".5px"/></g><g id="Ethernet - Beschriftung" transform="translate(-.48243 14.37)"><path d="m644.22 597.17-1.944 1.932 1.944 1.946" fill="none" stroke="#666" stroke-linecap="round" stroke-width=".85px"/><path d="m650.24 597.17 2.026 1.932-2.026 1.97" fill="none" stroke="#666" stroke-linecap="round" stroke-width=".85px"/><path d="m645.04 599.41h0.448" fill="none" stroke="#666" stroke-linecap="round" stroke-width=".85px"/><g transform="translate(1.9716)"><path d="m645.04 599.41h0.448" fill="none" stroke="#666" stroke-linecap="round" stroke-width=".85px"/></g><g transform="translate(3.9777 .010644)"><path d="m645.04 599.41h0.448" fill="none" stroke="#666" stroke-linecap="round" stroke-width=".85px"/></g></g></g><path d="m687.68 687.12 21.366-26.195c1.546-2.025 2.301-4.005 2.402-5.947l-2.402-456.13" fill="none" stroke="#666" stroke-width="1px"/><path d="m883.98 687.12-20.501-26.195c-0.915-1.355-1.331-2.827-1.405-4.38v-457.49" fill="none" stroke="#666" stroke-width="1px"/></g><g id="Bullet Links"><g id="Stecker1" transform="translate(-297.09 -2.1114)"><path d="m711.85 198.92v-16.8h18.796v-5.026h2.556v-2.37h104.4v2.37h2.613v5.026h19.691v16.8h-148.06z" fill="#ccc" stroke="#666" stroke-width="1px"/><rect x="743.23" y="166.63" width="88.62" height="8.092" fill="#ccc" stroke="#666" stroke-width="1px"/><rect x="737.09" y="75.984" width="97.798" height="90.645" fill="#ccc" stroke="#666" stroke-width="1px"/><rect x="733.53" y="104.15" width="106.88" height="53.564" fill="#ccc" stroke="#666" stroke-width="1px"/><g id="Rauten1"><g transform="translate(-.091004 7.5381)"><path d="m750.32 107.11 2.373 2.295-2.373 2.296-2.372-2.296 2.372-2.295z" fill="none" stroke="#666" stroke-width="1px"/></g><g transform="translate(6.6088 7.3486)"><path d="m750.32 107.11 2.373 2.295-2.373 2.296-2.372-2.296 2.372-2.295z" fill="none" stroke="#666" stroke-width="1px"/></g><g transform="translate(-7.6469 7.408)"><path d="m750.32 107.11 2.373 2.295-2.373 2.296-2.372-2.296 2.372-2.295z" fill="none" stroke="#666" stroke-width="1px"/></g><g transform="translate(14.766 7.3408)"><path d="m750.32 107.11 2.373 2.295-2.373 2.296-2.372-2.296 2.372-2.295z" fill="none" stroke="#666" stroke-width="1px"/></g><g transform="translate(21.814 7.2775)"><path d="m750.32 107.11 2.373 2.295-2.373 2.296-2.372-2.296 2.372-2.295z" fill="none" stroke="#666" stroke-width="1px"/></g><g transform="translate(.094915 21.926)"><g transform="translate(-.091004 7.5381)"><path d="m750.32 107.11 2.373 2.295-2.373 2.296-2.372-2.296 2.372-2.295z" fill="none" stroke="#666" stroke-width="1px"/></g><g transform="translate(6.6088 7.3486)"><path d="m750.32 107.11 2.373 2.295-2.373 2.296-2.372-2.296 2.372-2.295z" fill="none" stroke="#666" stroke-width="1px"/></g><g transform="translate(-7.6469 7.408)"><path d="m750.32 107.11 2.373 2.295-2.373 2.296-2.372-2.296 2.372-2.295z" fill="none" stroke="#666" stroke-width="1px"/></g><g transform="translate(14.766 7.3408)"><path d="m750.32 107.11 2.373 2.295-2.373 2.296-2.372-2.296 2.372-2.295z" fill="none" stroke="#666" stroke-width="1px"/></g><g transform="translate(21.814 7.2775)"><path d="m750.32 107.11 2.373 2.295-2.373 2.296-2.372-2.296 2.372-2.295z" fill="none" stroke="#666" stroke-width="1px"/></g></g><g transform="translate(37.487 21.796)"><g transform="translate(-.091004 7.5381)"><path d="m750.32 107.11 2.373 2.295-2.373 2.296-2.372-2.296 2.372-2.295z" fill="none" stroke="#666" stroke-width="1px"/></g><g transform="translate(6.6088 7.3486)"><path d="m750.32 107.11 2.373 2.295-2.373 2.296-2.372-2.296 2.372-2.295z" fill="none" stroke="#666" stroke-width="1px"/></g><g transform="translate(-7.6469 7.408)"><path d="m750.32 107.11 2.373 2.295-2.373 2.296-2.372-2.296 2.372-2.295z" fill="none" stroke="#666" stroke-width="1px"/></g><g transform="translate(14.766 7.3408)"><path d="m750.32 107.11 2.373 2.295-2.373 2.296-2.372-2.296 2.372-2.295z" fill="none" stroke="#666" stroke-width="1px"/></g><g transform="translate(21.814 7.2775)"><path d="m750.32 107.11 2.373 2.295-2.373 2.296-2.372-2.296 2.372-2.295z" fill="none" stroke="#666" stroke-width="1px"/></g></g><g transform="translate(37.274 .049057)"><g transform="translate(-.091004 7.5381)"><path d="m750.32 107.11 2.373 2.295-2.373 2.296-2.372-2.296 2.372-2.295z" fill="none" stroke="#666" stroke-width="1px"/></g><g transform="translate(6.6088 7.3486)"><path d="m750.32 107.11 2.373 2.295-2.373 2.296-2.372-2.296 2.372-2.295z" fill="none" stroke="#666" stroke-width="1px"/></g><g transform="translate(-7.6469 7.408)"><path d="m750.32 107.11 2.373 2.295-2.373 2.296-2.372-2.296 2.372-2.295z" fill="none" stroke="#666" stroke-width="1px"/></g><g transform="translate(14.766 7.3408)"><path d="m750.32 107.11 2.373 2.295-2.373 2.296-2.372-2.296 2.372-2.295z" fill="none" stroke="#666" stroke-width="1px"/></g><g transform="translate(21.814 7.2775)"><path d="m750.32 107.11 2.373 2.295-2.373 2.296-2.372-2.296 2.372-2.295z" fill="none" stroke="#666" stroke-width="1px"/></g></g><g transform="translate(74.488 7.5786)"><path d="m750.32 107.11 2.373 2.295-2.373 2.296-2.372-2.296 2.372-2.295z" fill="none" stroke="#666" stroke-width="1px"/></g><g transform="translate(81.188 7.3891)"><path d="m750.32 107.11 2.373 2.295-2.373 2.296-2.372-2.296 2.372-2.295z" fill="none" stroke="#666" stroke-width="1px"/></g><g transform="translate(66.932 7.4485)"><path d="m750.32 107.11 2.373 2.295-2.373 2.296-2.372-2.296 2.372-2.295z" fill="none" stroke="#666" stroke-width="1px"/></g><g transform="translate(-.094915 -7.5658)"><g transform="translate(-.091004 7.5381)"><path d="m750.32 107.11 2.373 2.295-2.373 2.296-2.372-2.296 2.372-2.295z" fill="none" stroke="#666" stroke-width="1px"/></g><g transform="translate(6.6088 7.3486)"><path d="m750.32 107.11 2.373 2.295-2.373 2.296-2.372-2.296 2.372-2.295z" fill="none" stroke="#666" stroke-width="1px"/></g><g transform="translate(-7.6469 7.408)"><path d="m750.32 107.11 2.373 2.295-2.373 2.296-2.372-2.296 2.372-2.295z" fill="none" stroke="#666" stroke-width="1px"/></g><g transform="translate(14.766 7.3408)"><path d="m750.32 107.11 2.373 2.295-2.373 2.296-2.372-2.296 2.372-2.295z" fill="none" stroke="#666" stroke-width="1px"/></g><g transform="translate(21.814 7.2775)"><path d="m750.32 107.11 2.373 2.295-2.373 2.296-2.372-2.296 2.372-2.295z" fill="none" stroke="#666" stroke-width="1px"/></g></g><g transform="translate(1.1369e-13 14.361)"><g transform="translate(-.091004 7.5381)"><path d="m750.32 107.11 2.373 2.295-2.373 2.296-2.372-2.296 2.372-2.295z" fill="none" stroke="#666" stroke-width="1px"/></g><g transform="translate(6.6088 7.3486)"><path d="m750.32 107.11 2.373 2.295-2.373 2.296-2.372-2.296 2.372-2.295z" fill="none" stroke="#666" stroke-width="1px"/></g><g transform="translate(-7.6469 7.408)"><path d="m750.32 107.11 2.373 2.295-2.373 2.296-2.372-2.296 2.372-2.295z" fill="none" stroke="#666" stroke-width="1px"/></g><g transform="translate(14.766 7.3408)"><path d="m750.32 107.11 2.373 2.295-2.373 2.296-2.372-2.296 2.372-2.295z" fill="none" stroke="#666" stroke-width="1px"/></g><g transform="translate(21.814 7.2775)"><path d="m750.32 107.11 2.373 2.295-2.373 2.296-2.372-2.296 2.372-2.295z" fill="none" stroke="#666" stroke-width="1px"/></g></g><g transform="translate(37.392 14.23)"><g transform="translate(-.091004 7.5381)"><path d="m750.32 107.11 2.373 2.295-2.373 2.296-2.372-2.296 2.372-2.295z" fill="none" stroke="#666" stroke-width="1px"/></g><g transform="translate(6.6088 7.3486)"><path d="m750.32 107.11 2.373 2.295-2.373 2.296-2.372-2.296 2.372-2.295z" fill="none" stroke="#666" stroke-width="1px"/></g><g transform="translate(-7.6469 7.408)"><path d="m750.32 107.11 2.373 2.295-2.373 2.296-2.372-2.296 2.372-2.295z" fill="none" stroke="#666" stroke-width="1px"/></g><g transform="translate(14.766 7.3408)"><path d="m750.32 107.11 2.373 2.295-2.373 2.296-2.372-2.296 2.372-2.295z" fill="none" stroke="#666" stroke-width="1px"/></g><g transform="translate(21.814 7.2775)"><path d="m750.32 107.11 2.373 2.295-2.373 2.296-2.372-2.296 2.372-2.295z" fill="none" stroke="#666" stroke-width="1px"/></g></g><g transform="translate(37.179 -7.5168)"><g transform="translate(-.091004 7.5381)"><path d="m750.32 107.11 2.373 2.295-2.373 2.296-2.372-2.296 2.372-2.295z" fill="none" stroke="#666" stroke-width="1px"/></g><g transform="translate(6.6088 7.3486)"><path d="m750.32 107.11 2.373 2.295-2.373 2.296-2.372-2.296 2.372-2.295z" fill="none" stroke="#666" stroke-width="1px"/></g><g transform="translate(-7.6469 7.408)"><path d="m750.32 107.11 2.373 2.295-2.373 2.296-2.372-2.296 2.372-2.295z" fill="none" stroke="#666" stroke-width="1px"/></g><g transform="translate(14.766 7.3408)"><path d="m750.32 107.11 2.373 2.295-2.373 2.296-2.372-2.296 2.372-2.295z" fill="none" stroke="#666" stroke-width="1px"/></g><g transform="translate(21.814 7.2775)"><path d="m750.32 107.11 2.373 2.295-2.373 2.296-2.372-2.296 2.372-2.295z" fill="none" stroke="#666" stroke-width="1px"/></g></g><g transform="translate(74.393 .012798)"><path d="m750.32 107.11 2.373 2.295-2.373 2.296-2.372-2.296 2.372-2.295z" fill="none" stroke="#666" stroke-width="1px"/></g><g transform="translate(81.093 -.17668)"><path d="m750.32 107.11 2.373 2.295-2.373 2.296-2.372-2.296 2.372-2.295z" fill="none" stroke="#666" stroke-width="1px"/></g><g transform="translate(-.68983)"><g transform="translate(88.506 -.3498)"><path d="m750.32 107.11 2.373 2.295-2.373 2.296-2.372-2.296 2.372-2.295z" fill="none" stroke="#666" stroke-width="1px"/></g><g transform="translate(88.352 7.4069)"><path d="m750.32 107.11 2.373 2.295-2.373 2.296-2.372-2.296 2.372-2.295z" fill="none" stroke="#666" stroke-width="1px"/></g><g transform="translate(88.352 14.233)"><path d="m750.32 107.11 2.373 2.295-2.373 2.296-2.372-2.296 2.372-2.295z" fill="none" stroke="#666" stroke-width="1px"/></g><g transform="translate(88.415 21.803)"><path d="m750.32 107.11 2.373 2.295-2.373 2.296-2.372-2.296 2.372-2.295z" fill="none" stroke="#666" stroke-width="1px"/></g><g transform="translate(88.261 29.56)"><path d="m750.32 107.11 2.373 2.295-2.373 2.296-2.372-2.296 2.372-2.295z" fill="none" stroke="#666" stroke-width="1px"/></g><g transform="translate(88.261 36.386)"><path d="m750.32 107.11 2.373 2.295-2.373 2.296-2.372-2.296 2.372-2.295z" fill="none" stroke="#666" stroke-width="1px"/></g><g transform="translate(88.203 43.662)"><path d="m750.32 107.11 2.373 2.295-2.373 2.296-2.372-2.296 2.372-2.295z" fill="none" stroke="#666" stroke-width="1px"/></g></g><g transform="translate(-102.94 .068137)"><g transform="translate(88.506 -.3498)"><path d="m750.32 107.11 2.373 2.295-2.373 2.296-2.372-2.296 2.372-2.295z" fill="none" stroke="#666" stroke-width="1px"/></g><g transform="translate(88.352 7.4069)"><path d="m750.32 107.11 2.373 2.295-2.373 2.296-2.372-2.296 2.372-2.295z" fill="none" stroke="#666" stroke-width="1px"/></g><g transform="translate(88.352 14.233)"><path d="m750.32 107.11 2.373 2.295-2.373 2.296-2.372-2.296 2.372-2.295z" fill="none" stroke="#666" stroke-width="1px"/></g><g transform="translate(88.415 21.803)"><path d="m750.32 107.11 2.373 2.295-2.373 2.296-2.372-2.296 2.372-2.295z" fill="none" stroke="#666" stroke-width="1px"/></g><g transform="translate(88.261 29.56)"><path d="m750.32 107.11 2.373 2.295-2.373 2.296-2.372-2.296 2.372-2.295z" fill="none" stroke="#666" stroke-width="1px"/></g><g transform="translate(88.261 36.386)"><path d="m750.32 107.11 2.373 2.295-2.373 2.296-2.372-2.296 2.372-2.295z" fill="none" stroke="#666" stroke-width="1px"/></g><g transform="translate(88.203 43.662)"><path d="m750.32 107.11 2.373 2.295-2.373 2.296-2.372-2.296 2.372-2.295z" fill="none" stroke="#666" stroke-width="1px"/></g></g><g transform="translate(66.837 -.11731)"><path d="m750.32 107.11 2.373 2.295-2.373 2.296-2.372-2.296 2.372-2.295z" fill="none" stroke="#666" stroke-width="1px"/></g><g transform="translate(-.070742 7.0056)"><g transform="translate(-.091004 7.5381)"><path d="m750.32 107.11 2.373 2.295-2.373 2.296-2.372-2.296 2.372-2.295z" fill="none" stroke="#666" stroke-width="1px"/></g><g transform="translate(6.6088 7.3486)"><path d="m750.32 107.11 2.373 2.295-2.373 2.296-2.372-2.296 2.372-2.295z" fill="none" stroke="#666" stroke-width="1px"/></g><g transform="translate(-7.6469 7.408)"><path d="m750.32 107.11 2.373 2.295-2.373 2.296-2.372-2.296 2.372-2.295z" fill="none" stroke="#666" stroke-width="1px"/></g><g transform="translate(14.766 7.3408)"><path d="m750.32 107.11 2.373 2.295-2.373 2.296-2.372-2.296 2.372-2.295z" fill="none" stroke="#666" stroke-width="1px"/></g><g transform="translate(21.814 7.2775)"><path d="m750.32 107.11 2.373 2.295-2.373 2.296-2.372-2.296 2.372-2.295z" fill="none" stroke="#666" stroke-width="1px"/></g></g><g transform="translate(.024173 28.932)"><g transform="translate(-.091004 7.5381)"><path d="m750.32 107.11 2.373 2.295-2.373 2.296-2.372-2.296 2.372-2.295z" fill="none" stroke="#666" stroke-width="1px"/></g><g transform="translate(6.6088 7.3486)"><path d="m750.32 107.11 2.373 2.295-2.373 2.296-2.372-2.296 2.372-2.295z" fill="none" stroke="#666" stroke-width="1px"/></g><g transform="translate(-7.6469 7.408)"><path d="m750.32 107.11 2.373 2.295-2.373 2.296-2.372-2.296 2.372-2.295z" fill="none" stroke="#666" stroke-width="1px"/></g><g transform="translate(14.766 7.3408)"><path d="m750.32 107.11 2.373 2.295-2.373 2.296-2.372-2.296 2.372-2.295z" fill="none" stroke="#666" stroke-width="1px"/></g><g transform="translate(21.814 7.2775)"><path d="m750.32 107.11 2.373 2.295-2.373 2.296-2.372-2.296 2.372-2.295z" fill="none" stroke="#666" stroke-width="1px"/></g></g><g transform="translate(-.10238 36.289)"><g transform="translate(-.091004 7.5381)"><path d="m750.32 107.11 2.373 2.295-2.373 2.296-2.372-2.296 2.372-2.295z" fill="none" stroke="#666" stroke-width="1px"/></g><g transform="translate(6.6088 7.3486)"><path d="m750.32 107.11 2.373 2.295-2.373 2.296-2.372-2.296 2.372-2.295z" fill="none" stroke="#666" stroke-width="1px"/></g><g transform="translate(-7.6469 7.408)"><path d="m750.32 107.11 2.373 2.295-2.373 2.296-2.372-2.296 2.372-2.295z" fill="none" stroke="#666" stroke-width="1px"/></g><g transform="translate(14.766 7.3408)"><path d="m750.32 107.11 2.373 2.295-2.373 2.296-2.372-2.296 2.372-2.295z" fill="none" stroke="#666" stroke-width="1px"/></g><g transform="translate(21.814 7.2775)"><path d="m750.32 107.11 2.373 2.295-2.373 2.296-2.372-2.296 2.372-2.295z" fill="none" stroke="#666" stroke-width="1px"/></g></g><g transform="translate(37.417 28.802)"><g transform="translate(-.091004 7.5381)"><path d="m750.32 107.11 2.373 2.295-2.373 2.296-2.372-2.296 2.372-2.295z" fill="none" stroke="#666" stroke-width="1px"/></g><g transform="translate(6.6088 7.3486)"><path d="m750.32 107.11 2.373 2.295-2.373 2.296-2.372-2.296 2.372-2.295z" fill="none" stroke="#666" stroke-width="1px"/></g><g transform="translate(-7.6469 7.408)"><path d="m750.32 107.11 2.373 2.295-2.373 2.296-2.372-2.296 2.372-2.295z" fill="none" stroke="#666" stroke-width="1px"/></g><g transform="translate(14.766 7.3408)"><path d="m750.32 107.11 2.373 2.295-2.373 2.296-2.372-2.296 2.372-2.295z" fill="none" stroke="#666" stroke-width="1px"/></g><g transform="translate(21.814 7.2775)"><path d="m750.32 107.11 2.373 2.295-2.373 2.296-2.372-2.296 2.372-2.295z" fill="none" stroke="#666" stroke-width="1px"/></g></g><g transform="translate(37.417 36.316)"><g transform="translate(-.091004 7.5381)"><path d="m750.32 107.11 2.373 2.295-2.373 2.296-2.372-2.296 2.372-2.295z" fill="none" stroke="#666" stroke-width="1px"/></g><g transform="translate(6.6088 7.3486)"><path d="m750.32 107.11 2.373 2.295-2.373 2.296-2.372-2.296 2.372-2.295z" fill="none" stroke="#666" stroke-width="1px"/></g><g transform="translate(-7.6469 7.408)"><path d="m750.32 107.11 2.373 2.295-2.373 2.296-2.372-2.296 2.372-2.295z" fill="none" stroke="#666" stroke-width="1px"/></g><g transform="translate(14.766 7.3408)"><path d="m750.32 107.11 2.373 2.295-2.373 2.296-2.372-2.296 2.372-2.295z" fill="none" stroke="#666" stroke-width="1px"/></g><g transform="translate(21.814 7.2775)"><path d="m750.32 107.11 2.373 2.295-2.373 2.296-2.372-2.296 2.372-2.295z" fill="none" stroke="#666" stroke-width="1px"/></g></g><g transform="translate(37.203 7.0546)"><g transform="translate(-.091004 7.5381)"><path d="m750.32 107.11 2.373 2.295-2.373 2.296-2.372-2.296 2.372-2.295z" fill="none" stroke="#666" stroke-width="1px"/></g><g transform="translate(6.6088 7.3486)"><path d="m750.32 107.11 2.373 2.295-2.373 2.296-2.372-2.296 2.372-2.295z" fill="none" stroke="#666" stroke-width="1px"/></g><g transform="translate(-7.6469 7.408)"><path d="m750.32 107.11 2.373 2.295-2.373 2.296-2.372-2.296 2.372-2.295z" fill="none" stroke="#666" stroke-width="1px"/></g><g transform="translate(14.766 7.3408)"><path d="m750.32 107.11 2.373 2.295-2.373 2.296-2.372-2.296 2.372-2.295z" fill="none" stroke="#666" stroke-width="1px"/></g><g transform="translate(21.814 7.2775)"><path d="m750.32 107.11 2.373 2.295-2.373 2.296-2.372-2.296 2.372-2.295z" fill="none" stroke="#666" stroke-width="1px"/></g></g><g transform="translate(74.417 14.584)"><path d="m750.32 107.11 2.373 2.295-2.373 2.296-2.372-2.296 2.372-2.295z" fill="none" stroke="#666" stroke-width="1px"/></g><g transform="translate(81.117 14.395)"><path d="m750.32 107.11 2.373 2.295-2.373 2.296-2.372-2.296 2.372-2.295z" fill="none" stroke="#666" stroke-width="1px"/></g><g transform="translate(66.861 14.454)"><path d="m750.32 107.11 2.373 2.295-2.373 2.296-2.372-2.296 2.372-2.295z" fill="none" stroke="#666" stroke-width="1px"/></g><g transform="translate(.036615 7.3486)"><g transform="translate(74.417 14.584)"><path d="m750.32 107.11 2.373 2.295-2.373 2.296-2.372-2.296 2.372-2.295z" fill="none" stroke="#666" stroke-width="1px"/></g><g transform="translate(81.117 14.395)"><path d="m750.32 107.11 2.373 2.295-2.373 2.296-2.372-2.296 2.372-2.295z" fill="none" stroke="#666" stroke-width="1px"/></g><g transform="translate(66.861 14.454)"><path d="m750.32 107.11 2.373 2.295-2.373 2.296-2.372-2.296 2.372-2.295z" fill="none" stroke="#666" stroke-width="1px"/></g></g><g transform="translate(-.093493 14.74)"><g transform="translate(74.417 14.584)"><path d="m750.32 107.11 2.373 2.295-2.373 2.296-2.372-2.296 2.372-2.295z" fill="none" stroke="#666" stroke-width="1px"/></g><g transform="translate(81.117 14.395)"><path d="m750.32 107.11 2.373 2.295-2.373 2.296-2.372-2.296 2.372-2.295z" fill="none" stroke="#666" stroke-width="1px"/></g><g transform="translate(66.861 14.454)"><path d="m750.32 107.11 2.373 2.295-2.373 2.296-2.372-2.296 2.372-2.295z" fill="none" stroke="#666" stroke-width="1px"/></g></g><g transform="translate(-.1845 21.927)"><g transform="translate(74.417 14.584)"><path d="m750.32 107.11 2.373 2.295-2.373 2.296-2.372-2.296 2.372-2.295z" fill="none" stroke="#666" stroke-width="1px"/></g><g transform="translate(81.117 14.395)"><path d="m750.32 107.11 2.373 2.295-2.373 2.296-2.372-2.296 2.372-2.295z" fill="none" stroke="#666" stroke-width="1px"/></g><g transform="translate(66.861 14.454)"><path d="m750.32 107.11 2.373 2.295-2.373 2.296-2.372-2.296 2.372-2.295z" fill="none" stroke="#666" stroke-width="1px"/></g></g><g transform="translate(-.40561 29.216)"><g transform="translate(74.417 14.584)"><path d="m750.32 107.11 2.373 2.295-2.373 2.296-2.372-2.296 2.372-2.295z" fill="none" stroke="#666" stroke-width="1px"/></g><g transform="translate(81.117 14.395)"><path d="m750.32 107.11 2.373 2.295-2.373 2.296-2.372-2.296 2.372-2.295z" fill="none" stroke="#666" stroke-width="1px"/></g><g transform="translate(66.861 14.454)"><path d="m750.32 107.11 2.373 2.295-2.373 2.296-2.372-2.296 2.372-2.295z" fill="none" stroke="#666" stroke-width="1px"/></g></g></g><path d="m730.79 180.87h109.46" fill="none" stroke="#666" stroke-width="1px"/></g><g id="Rumpf" stroke="#666" stroke-width="1px"><path d="m401.33 201.59 5.351-4.924h166.57l4.997 4.924 2.773 288.44 4.714 269.01 6.891 7.487v82.588h-208.27v-82.588l7.691-7.487 6.253-269.01 3.027-288.44z" fill="#737373"/><path d="m392.05 759.05h193.68l6.907 7.573h-208.17l7.582-7.573z" fill="#666"/><path d="m394.54 653.95h189.25l-19.025-14.177h-151.62l-18.603 14.177z" fill="#666"/><path d="m380.98 849.12v8.684h-7.715v31.889h231.72v-31.889h-7.751v-8.684h-216.26z" fill="#666"/><path d="m417.39 196.59-4.248 443.18h151.55l-4.758-443.18h-142.54z" fill="none"/></g><g id="gewinde"><path d="m425.85 922.29v-32.593h125.32v32.593h-125.32" fill="#262626" stroke="#666" stroke-width="1px"/><g transform="translate(0 .40157)"><path d="m520.08 921.64h-76.641l115.79-7.269v4.771l-39.15 2.498z" fill="#4d4d4d" stroke="#666" stroke-width="1px"/></g><path d="m560.18 891.95-140.15 7.761v5.31l140.15-7.973v-5.098z" fill="#4d4d4d" stroke="#666" stroke-width="1px"/><g transform="translate(-.19137 12.051)"><path d="m560.18 891.95-140.15 7.761v5.31l140.15-7.973v-5.098z" fill="#4d4d4d" stroke="#666" stroke-width="1px"/></g></g><g id="Deckel"><path d="m408.54 1008.6v24.31c1.14 6.09 4.691 9.95 12.326 10.02h135.55c9.182 0.23 14.404-2.79 14.493-10.02v-24.31h-162.37z" fill="#262626" stroke="#666" stroke-width="1px"/><rect x="403.97" y="922.28" width="169.05" height="86.39" fill="#262626" stroke="#666" stroke-width="1px"/><rect x="413.56" y="922.4" width="2.022" height="86.132" fill="#666" stroke="#666" stroke-width="1px"/><g transform="translate(25.555 -.046122)"><rect x="413.56" y="922.4" width="2.022" height="86.132" fill="#666" stroke="#666" stroke-width="1px"/></g><g transform="translate(51.536 -.12722)"><rect x="413.56" y="922.4" width="2.022" height="86.132" fill="#666" stroke="#666" stroke-width="1px"/></g><g transform="translate(77.365 -.21947)"><rect x="413.56" y="922.4" width="2.022" height="86.132" fill="#666" stroke="#666" stroke-width="1px"/></g><g transform="translate(103.15 .12878)"><rect x="413.56" y="922.4" width="2.022" height="86.132" fill="#666" stroke="#666" stroke-width="1px"/></g><g transform="translate(128.96 .057005)"><rect x="413.56" y="922.4" width="2.022" height="86.132" fill="#666" stroke="#666" stroke-width="1px"/></g><g transform="translate(-5.4353)"><rect x="413.56" y="922.4" width="2.022" height="86.132" fill="#666" stroke="#666" stroke-width="1px"/></g><g transform="matrix(.54336 0 0 1 179.44 -.01399)"><rect x="413.56" y="922.4" width="2.022" height="86.132" fill="#666" stroke="#666" stroke-width="1.24px"/></g><g transform="translate(20.12 -.046122)"><rect x="413.56" y="922.4" width="2.022" height="86.132" fill="#666" stroke="#666" stroke-width="1px"/></g><g transform="translate(46.1 -.12722)"><rect x="413.56" y="922.4" width="2.022" height="86.132" fill="#666" stroke="#666" stroke-width="1px"/></g><g transform="translate(71.93 -.21947)"><rect x="413.56" y="922.4" width="2.022" height="86.132" fill="#666" stroke="#666" stroke-width="1px"/></g><g transform="translate(97.712 .12878)"><rect x="413.56" y="922.4" width="2.022" height="86.132" fill="#666" stroke="#666" stroke-width="1px"/></g><g transform="translate(123.53 .057005)"><rect x="413.56" y="922.4" width="2.022" height="86.132" fill="#666" stroke="#666" stroke-width="1px"/></g><g transform="translate(5.0984 -.13266)"><rect x="413.56" y="922.4" width="2.022" height="86.132" fill="#666" stroke="#666" stroke-width="1px"/></g><g transform="translate(30.653 -.17879)"><rect x="413.56" y="922.4" width="2.022" height="86.132" fill="#666" stroke="#666" stroke-width="1px"/></g><g transform="translate(56.634 -.25989)"><rect x="413.56" y="922.4" width="2.022" height="86.132" fill="#666" stroke="#666" stroke-width="1px"/></g><g transform="translate(82.463 -.35213)"><rect x="413.56" y="922.4" width="2.022" height="86.132" fill="#666" stroke="#666" stroke-width="1px"/></g><g transform="translate(108.25 -.0038867)"><rect x="413.56" y="922.4" width="2.022" height="86.132" fill="#666" stroke="#666" stroke-width="1px"/></g><g transform="translate(134.06 -.075661)"><rect x="413.56" y="922.4" width="2.022" height="86.132" fill="#666" stroke="#666" stroke-width="1px"/></g><g transform="translate(10.212 .01762)"><rect x="413.56" y="922.4" width="2.022" height="86.132" fill="#666" stroke="#666" stroke-width="1px"/></g><g transform="translate(35.766 -.028502)"><rect x="413.56" y="922.4" width="2.022" height="86.132" fill="#666" stroke="#666" stroke-width="1px"/></g><g transform="translate(61.747 -.1096)"><rect x="413.56" y="922.4" width="2.022" height="86.132" fill="#666" stroke="#666" stroke-width="1px"/></g><g transform="translate(87.576 -.20185)"><rect x="413.56" y="922.4" width="2.022" height="86.132" fill="#666" stroke="#666" stroke-width="1px"/></g><g transform="translate(113.36 .1464)"><rect x="413.56" y="922.4" width="2.022" height="86.132" fill="#666" stroke="#666" stroke-width="1px"/></g><g transform="translate(139.17 .074624)"><rect x="413.56" y="922.4" width="2.022" height="86.132" fill="#666" stroke="#666" stroke-width="1px"/></g><g transform="translate(15.257 -.094835)"><rect x="413.56" y="922.4" width="2.022" height="86.132" fill="#666" stroke="#666" stroke-width="1px"/></g><g transform="translate(40.812 -.14096)"><rect x="413.56" y="922.4" width="2.022" height="86.132" fill="#666" stroke="#666" stroke-width="1px"/></g><g transform="translate(66.793 -.22206)"><rect x="413.56" y="922.4" width="2.022" height="86.132" fill="#666" stroke="#666" stroke-width="1px"/></g><g transform="translate(92.622 -.3143)"><rect x="413.56" y="922.4" width="2.022" height="86.132" fill="#666" stroke="#666" stroke-width="1px"/></g><g transform="translate(118.4 .033944)"><rect x="413.56" y="922.4" width="2.022" height="86.132" fill="#666" stroke="#666" stroke-width="1px"/></g><g transform="translate(144.22 -.03783)"><rect x="413.56" y="922.4" width="2.022" height="86.132" fill="#666" stroke="#666" stroke-width="1px"/></g><g transform="translate(149.34 .097685)"><rect x="413.56" y="922.4" width="2.022" height="86.132" fill="#666" stroke="#666" stroke-width="1px"/></g><g transform="translate(154.44 .046122)"><rect x="413.56" y="922.4" width="2.022" height="86.132" fill="#666" stroke="#666" stroke-width="1px"/></g></g></g><defs><linearGradient id="_Linear1" x2="1" gradientTransform="matrix(-.038329 -62.85 62.85 -.038329 651.08 586.75)" gradientUnits="userSpaceOnUse"><stop stop-color="#fff" offset="0"/><stop stop-color="#0b5d8d" offset="1"/></linearGradient></defs></svg>
