<?xml version="1.0" encoding="UTF-8"?>
<!DOCTYPE svg  PUBLIC '-//W3C//DTD SVG 1.1//EN'  'http://www.w3.org/Graphics/SVG/1.1/DTD/svg11.dtd'>
<svg clip-rule="evenodd" fill-rule="evenodd" stroke-linecap="round" stroke-linejoin="round" stroke-miterlimit="1.4142" version="1.1" viewBox="0 0 1280 1150" xmlns="http://www.w3.org/2000/svg"><g id="AntennenKupplung" transform="matrix(-2.4174e-16 -1.5033 1.3049 -2.0985e-16 368.79 1562.3)"><path d="m387.1 81.357h46.652v-1.521c-15.418-1.292-30.96-1.375-46.652 0v1.521z" fill="#ccc" stroke="#666" stroke-width=".71px"/><path d="m384.08 79.836v-1.764c17.517-1.87 34.941-1.856 52.274 0v1.764c-17.238-1.488-34.664-1.476-52.274 0z" fill="#ccc" stroke="#666" stroke-width=".71px"/><path d="m384.08 66.701c1.159-3.409 50.465-3.168 52.274 0v11.561c-16.989-2.01-34.374-2.144-52.274 0v-11.561z" fill="#ccc" stroke="#666" stroke-width=".71px"/><path d="m397.03 33.804c8.819-0.933 17.634-0.993 26.445 0v30.957c-8.854-0.876-17.663-0.737-26.445 0v-30.957z" fill="#ccc" stroke="#666" stroke-width=".71px"/><path d="m394.7 39.926c9.542-1.907 19.808-1.876 30.255-1.366" fill="none" stroke="#666" stroke-width="1.07px"/><g transform="translate(.19842 3.6457)"><path d="m394.7 39.926c9.542-1.907 19.808-1.876 30.255-1.366" fill="none" stroke="#666" stroke-width="1.07px"/></g><g transform="translate(.24877 7.237)"><path d="m394.7 39.926c9.542-1.907 19.808-1.876 30.255-1.366" fill="none" stroke="#666" stroke-width="1.07px"/></g><g transform="translate(.32929 10.984)"><path d="m394.7 39.926c9.542-1.907 19.808-1.876 30.255-1.366" fill="none" stroke="#666" stroke-width="1.07px"/></g><g transform="translate(.16826 14.577)"><path d="m394.7 39.926c9.542-1.907 19.808-1.876 30.255-1.366" fill="none" stroke="#666" stroke-width="1.07px"/></g><g transform="translate(.16525 18.39)"><path d="m394.7 39.926c9.542-1.907 19.808-1.876 30.255-1.366" fill="none" stroke="#666" stroke-width="1.07px"/></g><g transform="translate(.084734 21.832)"><path d="m394.7 39.926c9.542-1.907 19.808-1.876 30.255-1.366" fill="none" stroke="#666" stroke-width="1.07px"/></g></g><g id="nubsis"><path d="m474.04 1033.4v-20.22h37.625v26.33h-30.712c-2.988-1.59-5.221-3.67-6.913-6.11z" fill="#1a1919" stroke="#000" stroke-width="3px"/><g transform="matrix(-1 0 0 1 1331.4 0)"><path d="m474.04 1033.4v-20.22h37.625v26.33h-30.712c-2.988-1.59-5.221-3.67-6.913-6.11z" fill="#1a1919" stroke="#000" stroke-width="3px"/></g></g><g transform="matrix(1.58 0 0 1 -320.99 20.412)" fill-rule="nonzero"><path d="m541.9 1033.5h8.079c2.185 0 3.865 0.18 5.04 0.52s2.058 0.84 2.649 1.49c0.59 0.64 0.991 1.43 1.2 2.35 0.21 0.92 0.315 2.34 0.315 4.28v2.68c0 1.97-0.204 3.41-0.61 4.31-0.407 0.9-1.153 1.59-2.239 2.08-1.086 0.48-2.506 0.72-4.259 0.72h-2.153v12.42h-8.022v-30.85zm8.022 5.28v7.85c0.229 0.01 0.426 0.02 0.591 0.02 0.737 0 1.248-0.18 1.534-0.54s0.428-1.12 0.428-2.26v-2.53c0-1.06-0.165-1.74-0.495-2.06s-1.016-0.48-2.058-0.48z"/><path d="m578.68 1048v6.19c0 2.27-0.114 3.94-0.343 5-0.228 1.06-0.717 2.05-1.467 2.97-0.749 0.93-1.712 1.61-2.887 2.04-1.175 0.44-2.524 0.66-4.049 0.66-1.702 0-3.144-0.19-4.325-0.56-1.181-0.38-2.099-0.94-2.753-1.7-0.655-0.75-1.121-1.67-1.401-2.74-0.279-1.07-0.419-2.69-0.419-4.83v-6.48c0-2.35 0.254-4.19 0.762-5.51s1.423-2.38 2.744-3.18 3.01-1.2 5.068-1.2c1.728 0 3.211 0.26 4.45 0.77 1.238 0.52 2.194 1.19 2.867 2.01 0.673 0.83 1.134 1.68 1.382 2.56 0.247 0.87 0.371 2.21 0.371 4zm-7.698-1.91c0-1.29-0.07-2.11-0.209-2.45-0.14-0.33-0.439-0.5-0.896-0.5s-0.762 0.17-0.915 0.5c-0.152 0.34-0.228 1.16-0.228 2.45v11.42c0 1.19 0.076 1.97 0.228 2.33 0.153 0.36 0.451 0.54 0.896 0.54 0.457 0 0.759-0.16 0.905-0.49s0.219-1.04 0.219-2.14v-11.66z"/><path d="m581.44 1033.5h13.376v6.18h-5.354v5.85h5.011v5.87h-5.011v6.78h5.888v6.17h-13.91v-30.85z"/></g><g transform="matrix(1.58 0 0 1 -157.26 20.412)" fill-rule="nonzero"><path d="m549.92 1033.5v24.68h4.878v6.17h-12.9v-30.85h8.022z"/><path d="m571.57 1033.5 4.592 30.85h-8.212l-0.401-5.54h-2.877l-0.476 5.54h-8.308l4.078-30.85h11.604zm-4.249 19.84c-0.407-3.49-0.813-7.81-1.22-12.94-0.813 5.9-1.321 10.21-1.524 12.94h2.744z"/><path d="m595.44 1033.5v30.85h-7.031l-4.173-14.02v14.02h-6.707v-30.85h6.707l4.497 13.89v-13.89h6.707z"/></g><g fill-rule="nonzero"><g transform="matrix(1.58 0 0 1 -401.83 0)"><path d="m708.91 472.39h-6.354v-4.256c0-1.238-0.068-2.01-0.204-2.317s-0.435-0.46-0.898-0.46c-0.523 0-0.855 0.186-0.996 0.558s-0.212 1.177-0.212 2.415v11.35c0 1.188 0.071 1.963 0.212 2.325s0.458 0.543 0.951 0.543c0.473 0 0.782-0.181 0.928-0.543s0.219-1.213 0.219-2.551v-3.064h6.354v0.951c0 2.526-0.179 4.317-0.536 5.373-0.357 1.057-1.147 1.983-2.369 2.777-1.223 0.795-2.73 1.193-4.521 1.193-1.861 0-3.396-0.337-4.603-1.011-1.208-0.675-2.008-1.608-2.4-2.8-0.393-1.193-0.589-2.986-0.589-5.381v-7.139c0-1.761 0.06-3.082 0.181-3.962 0.121-0.881 0.481-1.729 1.079-2.544 0.599-0.815 1.429-1.456 2.491-1.924 1.061-0.468 2.281-0.702 3.66-0.702 1.872 0 3.416 0.362 4.634 1.087 1.217 0.724 2.017 1.627 2.4 2.709 0.382 1.082 0.573 2.765 0.573 5.049v2.324z"/><path d="m724.81 473.18v4.906c0 1.801-0.091 3.121-0.272 3.962-0.181 0.84-0.569 1.625-1.162 2.354-0.594 0.73-1.356 1.268-2.287 1.615s-2 0.521-3.207 0.521c-1.349 0-2.491-0.149-3.427-0.445-0.935-0.297-1.662-0.745-2.181-1.344-0.518-0.598-0.888-1.323-1.109-2.173s-0.332-2.126-0.332-3.826v-5.132c0-1.862 0.201-3.316 0.604-4.362 0.402-1.047 1.127-1.887 2.173-2.521 1.047-0.634 2.385-0.951 4.015-0.951 1.368 0 2.543 0.204 3.524 0.612 0.981 0.407 1.739 0.938 2.272 1.592s0.898 1.328 1.094 2.022c0.196 0.695 0.295 1.751 0.295 3.17zm-6.098-1.509c0-1.027-0.056-1.673-0.166-1.94-0.111-0.266-0.347-0.4-0.71-0.4-0.362 0-0.603 0.134-0.724 0.4-0.121 0.267-0.181 0.913-0.181 1.94v9.041c0 0.946 0.06 1.562 0.181 1.849s0.357 0.43 0.709 0.43c0.362 0 0.601-0.131 0.717-0.393 0.116-0.261 0.174-0.825 0.174-1.69v-9.237z"/><path d="m733.02 466.14-0.105 1.841c0.442-0.735 0.983-1.285 1.622-1.653 0.639-0.367 1.376-0.551 2.211-0.551 1.047 0 1.902 0.247 2.566 0.74s1.092 1.114 1.283 1.864 0.287 2 0.287 3.751v14.037h-6.098v-13.871c0-1.379-0.045-2.219-0.136-2.521-0.09-0.302-0.342-0.453-0.754-0.453-0.433 0-0.705 0.174-0.815 0.521-0.111 0.347-0.166 1.275-0.166 2.785v13.539h-6.098v-20.029h6.203z"/><path d="m749.18 466.14-0.106 1.841c0.443-0.735 0.983-1.285 1.622-1.653 0.639-0.367 1.376-0.551 2.212-0.551 1.046 0 1.901 0.247 2.566 0.74 0.664 0.493 1.091 1.114 1.282 1.864 0.192 0.75 0.287 2 0.287 3.751v14.037h-6.098v-13.871c0-1.379-0.045-2.219-0.135-2.521-0.091-0.302-0.343-0.453-0.755-0.453-0.433 0-0.704 0.174-0.815 0.521s-0.166 1.275-0.166 2.785v13.539h-6.098v-20.029h6.204z"/><path d="m772.95 476.51h-7.894v4.332c0 0.905 0.065 1.489 0.196 1.75 0.131 0.262 0.382 0.393 0.755 0.393 0.463 0 0.772-0.174 0.928-0.521s0.234-1.019 0.234-2.015v-2.641h5.781v1.479c0 1.238-0.078 2.189-0.234 2.853s-0.521 1.373-1.094 2.128c-0.574 0.755-1.301 1.321-2.181 1.698-0.881 0.377-1.985 0.566-3.313 0.566-1.288 0-2.426-0.186-3.412-0.559-0.986-0.372-1.753-0.883-2.301-1.532-0.549-0.649-0.929-1.363-1.14-2.143s-0.317-1.914-0.317-3.403v-5.842c0-1.75 0.237-3.132 0.709-4.143 0.473-1.011 1.248-1.786 2.325-2.324 1.077-0.539 2.314-0.808 3.713-0.808 1.71 0 3.122 0.325 4.234 0.974s1.891 1.509 2.339 2.581c0.448 1.071 0.672 2.578 0.672 4.52v2.657zm-6.113-3.26v-1.464c0-1.037-0.055-1.706-0.166-2.008s-0.337-0.453-0.679-0.453c-0.423 0-0.685 0.129-0.785 0.385-0.101 0.257-0.151 0.949-0.151 2.076v1.464h1.781z"/><path d="m788.42 473.71h-5.751v-2.309c0-0.805-0.065-1.351-0.196-1.638-0.131-0.286-0.373-0.43-0.725-0.43s-0.588 0.126-0.709 0.378c-0.121 0.251-0.181 0.815-0.181 1.69v9.449c0 0.714 0.09 1.25 0.271 1.607 0.182 0.357 0.448 0.536 0.8 0.536 0.413 0 0.692-0.186 0.838-0.559 0.146-0.372 0.219-1.076 0.219-2.113v-2.384h5.434c-0.01 1.599-0.068 2.799-0.174 3.599s-0.443 1.62-1.011 2.461c-0.569 0.84-1.311 1.474-2.227 1.901-0.915 0.428-2.047 0.642-3.396 0.642-1.72 0-3.084-0.294-4.09-0.883s-1.718-1.414-2.136-2.475c-0.417-1.062-0.626-2.569-0.626-4.521v-5.69c0-1.701 0.171-2.984 0.513-3.849s1.072-1.638 2.189-2.317 2.475-1.019 4.075-1.019c1.59 0 2.948 0.337 4.075 1.012 1.127 0.674 1.877 1.524 2.249 2.55 0.372 1.027 0.559 2.481 0.559 4.362z"/><path d="m796.67 463.47v3.155h1.645v3.169h-1.645v10.717c0 1.318 0.068 2.052 0.203 2.203 0.136 0.151 0.702 0.227 1.698 0.227v3.23h-2.46c-1.388 0-2.38-0.058-2.973-0.174-0.594-0.116-1.117-0.382-1.57-0.8-0.453-0.417-0.734-0.895-0.845-1.434-0.111-0.538-0.166-1.803-0.166-3.796v-10.173h-1.313v-3.169h1.313v-3.155h6.113z"/><path d="m813.45 473.18v4.906c0 1.801-0.091 3.121-0.272 3.962-0.181 0.84-0.569 1.625-1.162 2.354-0.594 0.73-1.356 1.268-2.287 1.615s-2 0.521-3.207 0.521c-1.349 0-2.491-0.149-3.427-0.445-0.935-0.297-1.662-0.745-2.181-1.344-0.518-0.598-0.888-1.323-1.109-2.173s-0.332-2.126-0.332-3.826v-5.132c0-1.862 0.201-3.316 0.604-4.362 0.402-1.047 1.127-1.887 2.173-2.521 1.047-0.634 2.385-0.951 4.015-0.951 1.369 0 2.543 0.204 3.524 0.612 0.982 0.407 1.739 0.938 2.272 1.592s0.898 1.328 1.094 2.022c0.197 0.695 0.295 1.751 0.295 3.17zm-6.098-1.509c0-1.027-0.055-1.673-0.166-1.94-0.111-0.266-0.347-0.4-0.71-0.4-0.362 0-0.603 0.134-0.724 0.4-0.121 0.267-0.181 0.913-0.181 1.94v9.041c0 0.946 0.06 1.562 0.181 1.849s0.357 0.43 0.709 0.43c0.363 0 0.602-0.131 0.717-0.393 0.116-0.261 0.174-0.825 0.174-1.69v-9.237z"/><path d="m821.56 466.14-0.242 2.626c0.886-1.882 2.169-2.878 3.849-2.989v7.049c-1.117 0-1.937 0.151-2.46 0.453s-0.845 0.722-0.966 1.26-0.181 1.779-0.181 3.721v7.909h-6.098v-20.029h6.098z"/></g><g transform="matrix(1.58 0 0 1 -401.83 0)"><path d="m700.32 494.38v3.154h1.645v3.17h-1.645v10.716c0 1.318 0.068 2.053 0.204 2.204 0.135 0.151 0.701 0.226 1.698 0.226v3.23h-2.461c-1.388 0-2.379-0.058-2.973-0.173-0.594-0.116-1.117-0.383-1.57-0.8-0.453-0.418-0.734-0.896-0.845-1.434-0.111-0.539-0.166-1.804-0.166-3.796v-10.173h-1.313v-3.17h1.313v-3.154h6.113z"/><path d="m717.11 504.09v4.905c0 1.801-0.091 3.122-0.272 3.962s-0.568 1.625-1.162 2.355c-0.594 0.729-1.356 1.267-2.287 1.615-0.93 0.347-2 0.52-3.207 0.52-1.348 0-2.491-0.148-3.426-0.445-0.936-0.297-1.663-0.744-2.181-1.343-0.519-0.599-0.888-1.323-1.11-2.174-0.221-0.85-0.332-2.125-0.332-3.826v-5.132c0-1.861 0.201-3.315 0.604-4.362 0.402-1.046 1.127-1.886 2.173-2.52 1.047-0.634 2.385-0.951 4.015-0.951 1.369 0 2.544 0.204 3.525 0.611 0.981 0.408 1.738 0.938 2.271 1.592 0.534 0.655 0.898 1.329 1.095 2.023 0.196 0.694 0.294 1.751 0.294 3.17zm-6.098-1.51c0-1.026-0.055-1.673-0.166-1.939-0.111-0.267-0.347-0.4-0.709-0.4-0.363 0-0.604 0.133-0.725 0.4-0.121 0.266-0.181 0.913-0.181 1.939v9.041c0 0.946 0.06 1.562 0.181 1.849s0.357 0.43 0.71 0.43c0.362 0 0.601-0.13 0.716-0.392 0.116-0.262 0.174-0.825 0.174-1.691v-9.237z"/><path d="m724.74 492.65h6.4c1.731 0 3.061 0.136 3.992 0.407 0.931 0.272 1.63 0.664 2.098 1.178 0.468 0.513 0.785 1.134 0.951 1.864 0.166 0.729 0.249 1.859 0.249 3.388v2.128c0 1.56-0.161 2.697-0.483 3.411-0.322 0.715-0.913 1.263-1.774 1.646-0.86 0.382-1.984 0.573-3.373 0.573h-1.705v9.841h-6.355v-24.436zm6.355 4.181v6.218c0.181 0.01 0.337 0.015 0.467 0.015 0.584 0 0.989-0.143 1.215-0.43 0.227-0.287 0.34-0.883 0.34-1.788v-2.008c0-0.835-0.131-1.378-0.392-1.63-0.262-0.252-0.805-0.377-1.63-0.377z"/><path d="m753.88 504.09v4.905c0 1.801-0.091 3.122-0.272 3.962s-0.569 1.625-1.162 2.355c-0.594 0.729-1.356 1.267-2.287 1.615-0.931 0.347-2 0.52-3.207 0.52-1.349 0-2.491-0.148-3.427-0.445-0.935-0.297-1.662-0.744-2.181-1.343-0.518-0.599-0.888-1.323-1.109-2.174-0.221-0.85-0.332-2.125-0.332-3.826v-5.132c0-1.861 0.201-3.315 0.604-4.362 0.402-1.046 1.127-1.886 2.173-2.52 1.047-0.634 2.385-0.951 4.015-0.951 1.369 0 2.543 0.204 3.524 0.611 0.981 0.408 1.739 0.938 2.272 1.592 0.533 0.655 0.898 1.329 1.094 2.023s0.295 1.751 0.295 3.17zm-6.098-1.51c0-1.026-0.056-1.673-0.166-1.939-0.111-0.267-0.347-0.4-0.71-0.4-0.362 0-0.603 0.133-0.724 0.4-0.121 0.266-0.181 0.913-0.181 1.939v9.041c0 0.946 0.06 1.562 0.181 1.849s0.357 0.43 0.709 0.43c0.363 0 0.602-0.13 0.717-0.392 0.116-0.262 0.174-0.825 0.174-1.691v-9.237z"/><path d="m775.58 497.06-2.43 20.029h-6.626c-0.362-2.445-0.78-5.665-1.253-9.66-0.161 1.751-0.387 3.522-0.679 5.313l-0.679 4.347h-6.626l-2.581-20.029h5.252c0.041 0.523 0.483 4.342 1.329 11.456 0.06-0.724 0.513-4.543 1.358-11.456h5.056l1.238 11.456c0.191-3.341 0.654-7.159 1.389-11.456h5.252z"/><path d="m790.39 507.42h-7.894v4.332c0 0.906 0.065 1.489 0.196 1.751s0.382 0.392 0.755 0.392c0.463 0 0.772-0.173 0.928-0.52s0.234-1.019 0.234-2.015v-2.642h5.781v1.479c0 1.238-0.078 2.189-0.234 2.853s-0.521 1.374-1.094 2.128c-0.574 0.755-1.301 1.321-2.181 1.698-0.881 0.378-1.985 0.566-3.313 0.566-1.288 0-2.426-0.186-3.412-0.558s-1.753-0.883-2.301-1.532c-0.549-0.649-0.929-1.364-1.14-2.143-0.211-0.78-0.317-1.915-0.317-3.404v-5.841c0-1.751 0.237-3.132 0.709-4.143 0.473-1.012 1.248-1.786 2.325-2.325 1.077-0.538 2.314-0.807 3.713-0.807 1.71 0 3.122 0.324 4.234 0.973s1.891 1.51 2.339 2.581c0.448 1.072 0.672 2.579 0.672 4.521v2.656zm-6.113-3.26v-1.464c0-1.036-0.055-1.706-0.166-2.007-0.111-0.302-0.337-0.453-0.679-0.453-0.423 0-0.685 0.128-0.785 0.385-0.101 0.256-0.151 0.948-0.151 2.075v1.464h1.781z"/><path d="m798.48 497.06-0.242 2.626c0.886-1.881 2.169-2.878 3.849-2.988v7.048c-1.117 0-1.937 0.151-2.46 0.453s-0.845 0.722-0.966 1.261c-0.121 0.538-0.181 1.778-0.181 3.72v7.909h-6.098v-20.029h6.098z"/><rect x="802.9" y="504.96" width="8.015" height="4.211"/><rect x="812.72" y="492.65" width="6.354" height="24.436"/><path d="m827.65 497.06-0.106 1.841c0.443-0.734 0.984-1.285 1.623-1.652 0.638-0.368 1.376-0.551 2.211-0.551 1.046 0 1.901 0.246 2.566 0.739 0.664 0.493 1.091 1.115 1.283 1.864 0.191 0.75 0.286 2 0.286 3.751v14.037h-6.097v-13.871c0-1.378-0.046-2.219-0.136-2.52-0.091-0.302-0.342-0.453-0.755-0.453-0.433 0-0.704 0.173-0.815 0.521-0.111 0.347-0.166 1.275-0.166 2.784v13.539h-6.098v-20.029h6.204z"/><path d="m844.07 492.65v3.184h-6.279v-3.184h6.279zm0 4.407v15.848c0 1.862-0.037 3.122-0.113 3.781-0.075 0.659-0.307 1.238-0.694 1.736-0.388 0.498-0.906 0.868-1.555 1.109-0.649 0.242-1.622 0.363-2.92 0.363h-2.355v-3.2c0.725 0 1.132-0.081 1.223-0.242 0.09-0.161 0.135-1.167 0.135-3.018v-16.377h6.279z"/><path d="m860.07 507.42h-7.893v4.332c0 0.906 0.065 1.489 0.196 1.751s0.382 0.392 0.754 0.392c0.463 0 0.773-0.173 0.929-0.52s0.234-1.019 0.234-2.015v-2.642h5.78v1.479c0 1.238-0.078 2.189-0.233 2.853-0.156 0.664-0.521 1.374-1.095 2.128-0.573 0.755-1.3 1.321-2.181 1.698-0.88 0.378-1.985 0.566-3.313 0.566-1.288 0-2.425-0.186-3.411-0.558s-1.753-0.883-2.302-1.532c-0.548-0.649-0.928-1.364-1.139-2.143-0.212-0.78-0.317-1.915-0.317-3.404v-5.841c0-1.751 0.236-3.132 0.709-4.143 0.473-1.012 1.248-1.786 2.325-2.325 1.076-0.538 2.314-0.807 3.713-0.807 1.71 0 3.121 0.324 4.233 0.973s1.892 1.51 2.34 2.581c0.448 1.072 0.671 2.579 0.671 4.521v2.656zm-6.112-3.26v-1.464c0-1.036-0.056-1.706-0.166-2.007-0.111-0.302-0.338-0.453-0.68-0.453-0.422 0-0.684 0.128-0.785 0.385-0.1 0.256-0.15 0.948-0.15 2.075v1.464h1.781z"/><path d="m875.54 504.62h-5.75v-2.309c0-0.805-0.066-1.351-0.197-1.638-0.13-0.287-0.372-0.43-0.724-0.43s-0.589 0.126-0.709 0.377c-0.121 0.252-0.182 0.815-0.182 1.691v9.448c0 0.715 0.091 1.25 0.272 1.608 0.181 0.357 0.448 0.535 0.8 0.535 0.413 0 0.692-0.186 0.838-0.558s0.219-1.077 0.219-2.113v-2.385h5.433c-0.01 1.6-0.068 2.8-0.173 3.6-0.106 0.8-0.443 1.62-1.012 2.46-0.568 0.84-1.31 1.474-2.226 1.902s-2.048 0.641-3.396 0.641c-1.721 0-3.084-0.294-4.09-0.883-1.006-0.588-1.718-1.413-2.136-2.475s-0.626-2.568-0.626-4.52v-5.691c0-1.7 0.171-2.983 0.513-3.849 0.342-0.865 1.071-1.637 2.188-2.316 1.117-0.68 2.476-1.019 4.076-1.019 1.59 0 2.948 0.337 4.075 1.011s1.877 1.525 2.249 2.551 0.558 2.48 0.558 4.362z"/><path d="m883.78 494.38v3.154h1.646v3.17h-1.646v10.716c0 1.318 0.068 2.053 0.204 2.204s0.702 0.226 1.698 0.226v3.23h-2.46c-1.389 0-2.38-0.058-2.974-0.173-0.593-0.116-1.116-0.383-1.569-0.8-0.453-0.418-0.735-0.896-0.845-1.434-0.111-0.539-0.167-1.804-0.167-3.796v-10.173h-1.313v-3.17h1.313v-3.154h6.113z"/><path d="m900.57 504.09v4.905c0 1.801-0.09 3.122-0.271 3.962s-0.569 1.625-1.163 2.355c-0.593 0.729-1.355 1.267-2.286 1.615-0.931 0.347-2 0.52-3.208 0.52-1.348 0-2.49-0.148-3.426-0.445s-1.663-0.744-2.181-1.343-0.888-1.323-1.109-2.174c-0.222-0.85-0.332-2.125-0.332-3.826v-5.132c0-1.861 0.201-3.315 0.603-4.362 0.403-1.046 1.127-1.886 2.174-2.52 1.046-0.634 2.385-0.951 4.015-0.951 1.368 0 2.543 0.204 3.524 0.611 0.981 0.408 1.738 0.938 2.272 1.592 0.533 0.655 0.898 1.329 1.094 2.023s0.294 1.751 0.294 3.17zm-6.097-1.51c0-1.026-0.056-1.673-0.166-1.939-0.111-0.267-0.348-0.4-0.71-0.4s-0.604 0.133-0.724 0.4c-0.121 0.266-0.181 0.913-0.181 1.939v9.041c0 0.946 0.06 1.562 0.181 1.849 0.12 0.287 0.357 0.43 0.709 0.43 0.362 0 0.601-0.13 0.717-0.392s0.174-0.825 0.174-1.691v-9.237z"/><path d="m908.68 497.06-0.242 2.626c0.886-1.881 2.168-2.878 3.849-2.988v7.048c-1.117 0-1.937 0.151-2.46 0.453-0.524 0.302-0.846 0.722-0.966 1.261-0.121 0.538-0.181 1.778-0.181 3.72v7.909h-6.098v-20.029h6.098z"/></g></g><g id="topower"><rect x="548" y="526.91" width="102.94" height="29.255" fill="#bdbebd" stroke="#000" stroke-width="3px"/><rect x="550.6" y="463.42" width="99.137" height="63.487" stroke="#000" stroke-width="3px"/><g transform="matrix(.1483 0 0 1 468.95 0)"><rect x="550.6" y="463.42" width="99.137" height="63.487" fill="#1b1a19" stroke="#000" stroke-width="1.4px"/></g><g transform="matrix(.022623 0 0 1 559.86 0)"><rect x="550.6" y="463.42" width="99.137" height="63.487" fill="#1b1a19" stroke="#000" stroke-width="1.41px"/></g><g transform="matrix(.022623 0 0 1 568.91 0)"><rect x="550.6" y="463.42" width="99.137" height="63.487" fill="#1b1a19" stroke="#000" stroke-width="1.41px"/></g><g transform="matrix(.022623 0 0 1 578.13 0)"><rect x="550.6" y="463.42" width="99.137" height="63.487" fill="#1b1a19" stroke="#000" stroke-width="1.41px"/></g><g transform="matrix(.022623 0 0 1 587.42 0)"><rect x="550.6" y="463.42" width="99.137" height="63.487" fill="#1b1a19" stroke="#000" stroke-width="1.41px"/></g><g transform="matrix(.022623 0 0 1 596.31 0)"><rect x="550.6" y="463.42" width="99.137" height="63.487" fill="#1b1a19" stroke="#000" stroke-width="1.41px"/></g><g transform="matrix(.022623 0 0 1 605.34 0)"><rect x="550.6" y="463.42" width="99.137" height="63.487" fill="#1b1a19" stroke="#000" stroke-width="1.41px"/></g><g transform="matrix(.022623 0 0 1 614.63 0)"><rect x="550.6" y="463.42" width="99.137" height="63.487" fill="#1b1a19" stroke="#000" stroke-width="1.41px"/></g><g transform="matrix(.14285 0 0 1 557.64 0)"><rect x="550.6" y="463.42" width="99.137" height="63.487" fill="#1b1a19" stroke="#000" stroke-width="1.4px"/></g><path d="m566.07 480.47h5.81v42.303h-5.81v-42.303" fill="#ddb945" stroke="#a98333" stroke-width=".25px"/><g transform="translate(9.137)"><path d="m566.07 480.47h5.81v42.303h-5.81v-42.303" fill="#ddb945" stroke="#a98333" stroke-width=".25px"/></g><g transform="translate(18.196)"><path d="m566.07 480.47h5.81v42.303h-5.81v-42.303" fill="#ddb945" stroke="#a98333" stroke-width=".25px"/></g><g transform="translate(27.323)"><path d="m566.07 480.47h5.81v42.303h-5.81v-42.303" fill="#ddb945" stroke="#a98333" stroke-width=".25px"/></g><g transform="translate(36.65)"><path d="m566.07 480.47h5.81v42.303h-5.81v-42.303" fill="#ddb945" stroke="#a98333" stroke-width=".25px"/></g><g transform="translate(45.596)"><path d="m566.07 480.47h5.81v42.303h-5.81v-42.303" fill="#ddb945" stroke="#a98333" stroke-width=".25px"/></g><g transform="translate(54.598)"><path d="m566.07 480.47h5.81v42.303h-5.81v-42.303" fill="#ddb945" stroke="#a98333" stroke-width=".25px"/></g><g transform="translate(63.839)"><path d="m566.07 480.47h5.81v42.303h-5.81v-42.303" fill="#ddb945" stroke="#a98333" stroke-width=".25px"/></g></g><rect id="case" x="474.04" y="548.25" width="383.22" height="471.94" fill="#2a2a29" stroke="#000" stroke-width="3px"/><rect x="474.04" y="-43.254" width="383.22" height="431.63" fill="#2a2a29" stroke="#000" stroke-width=".25px"/><g transform="matrix(1.58 0 0 1 -310.32 0)" fill="#fff" fill-rule="nonzero" stroke="#b3b3b3" stroke-linecap="butt" stroke-width="2.65px"><path d="m536.93 318.51h9.622c2.602 0 4.603 0.204 6.002 0.613 1.4 0.408 2.451 0.998 3.155 1.77 0.703 0.771 1.18 1.705 1.429 2.802 0.25 1.097 0.375 2.795 0.375 5.095v3.2c0 2.345-0.242 4.054-0.726 5.129-0.485 1.074-1.373 1.898-2.667 2.473-1.293 0.575-2.984 0.863-5.072 0.863h-2.564v14.796h-9.554v-36.741zm9.554 6.286v9.35c0.272 0.015 0.506 0.022 0.703 0.022 0.878 0 1.487-0.215 1.827-0.646 0.34-0.432 0.511-1.328 0.511-2.69v-3.018c0-1.256-0.197-2.072-0.59-2.451-0.394-0.378-1.211-0.567-2.451-0.567z"/><path d="m580.73 335.71v7.375c0 2.708-0.136 4.694-0.408 5.957s-0.855 2.443-1.748 3.54c-0.892 1.097-2.038 1.907-3.438 2.428-1.399 0.522-3.007 0.783-4.822 0.783-2.027 0-3.744-0.223-5.151-0.669s-2.501-1.12-3.28-2.02-1.335-1.989-1.668-3.268c-0.333-1.278-0.499-3.196-0.499-5.752v-7.716c0-2.799 0.303-4.985 0.908-6.559 0.605-1.573 1.694-2.836 3.268-3.79 1.573-0.953 3.585-1.429 6.036-1.429 2.058 0 3.824 0.306 5.299 0.919s2.614 1.411 3.416 2.394c0.801 0.983 1.35 1.997 1.645 3.041s0.442 2.632 0.442 4.766zm-9.168-2.27c0-1.543-0.083-2.515-0.25-2.916-0.166-0.401-0.521-0.601-1.066-0.601s-0.908 0.2-1.089 0.601c-0.182 0.401-0.273 1.373-0.273 2.916v13.594c0 1.422 0.091 2.348 0.273 2.78 0.181 0.431 0.537 0.646 1.066 0.646 0.545 0 0.904-0.196 1.078-0.59 0.174-0.393 0.261-1.24 0.261-2.541v-13.889z"/><path d="m584.02 318.51h15.931v7.353h-6.377v6.966h5.968v6.99h-5.968v8.079h7.012v7.353h-16.566v-36.741z"/><path d="m659.31 318.51v29.388h5.81v7.353h-15.364v-36.741h9.554z"/><path d="m685.09 318.51 5.469 36.741h-9.78l-0.477-6.604h-3.427l-0.567 6.604h-9.895l4.857-36.741h13.82zm-5.06 23.624c-0.484-4.161-0.969-9.297-1.453-15.409-0.968 7.02-1.573 12.156-1.815 15.409h3.268z"/><path d="m713.53 318.51v36.741h-8.374l-4.969-16.703v16.703h-7.989v-36.741h7.989l5.355 16.543v-16.543h7.988z"/></g><g transform="matrix(1.6039 0 0 1.1367 -4.8239 98.808)"><path d="m441.33 646.88c0-1.193-0.686-2.161-1.531-2.161h-45.769c-0.845 0-1.532 0.968-1.532 2.161v4.323c0 1.193 0.687 2.161 1.532 2.161h45.769c0.845 0 1.531-0.968 1.531-2.161v-4.323z" fill="#1a7ae6" stroke="#666" stroke-linecap="butt" stroke-width=".72px"/></g></svg>
