<svg xmlns="http://www.w3.org/2000/svg" viewBox="0 0 1600 1437.5" height="1437.5" width="1600"><g stroke="#666" stroke-miterlimit="10"><path d="M932.412 1221.426c2.972 5.569 8.713 8.177 17.354 7.682 115.14 3.375 230.273 4.457 345.384 0 5.912.177 10.587-2.137 13.65-7.682V495.904c.1-2.56-1.563-4.092-4.688-4.77H935.856c-2.506.256-3.989 1.518-3.444 4.77v725.522z" fill="#fff" fill-rule="evenodd" stroke-width="1.25"/><path d="M932.412 1009.541c6.69 2.378 14.178 3.195 22.212 2.944h329.788c9.638.11 18.288-.696 25.363-2.944M1162.763 914.056a6.277 6.277 0 0 0-6.275-6.274h-75.757a6.277 6.277 0 0 0-6.273 6.274v12.549a6.277 6.277 0 0 0 6.273 6.275h75.757a6.277 6.277 0 0 0 6.274-6.275v-12.549z" fill="none" stroke-width="1.25"/><path d="M1142.318 918.342a2.638 2.638 0 0 0-2.638-2.637h-44.426a2.638 2.638 0 0 0-2.638 2.637v5.274a2.638 2.638 0 0 0 2.638 2.638h44.426a2.638 2.638 0 0 0 2.637-2.638v-5.274z" fill="#33cc45" fill-rule="evenodd" stroke-width="1.25"/><path d="M1190.378 489.279h41.017v-2.546h-41.017v2.546z" fill="#efd800" fill-rule="evenodd" stroke-width="1.25"/><path d="M1187.715 487.943v-1.552a215.444 215.444 0 0 1 45.96 0v1.552c-15.155-1.31-30.477-1.3-45.96 0z" fill="#efd800" fill-rule="evenodd" stroke-width="1.25"/><path d="M1187.715 476.394c1.019-2.998 44.37-2.787 45.96 0v10.163c-14.936-1.766-30.222-1.885-45.96 0v-10.163z" fill="#efd800" fill-rule="evenodd" stroke-width="1.25"/><path d="M1199.106 474.688h23.251v-28.092h-23.25v28.091z" fill="#efd800" fill-rule="evenodd" stroke-width="1.25"/><path d="M1197.051 452.853c8.39-1.677 17.418-1.65 26.602-1.202M1197.226 456.058c8.39-1.677 17.416-1.65 26.601-1.202M1197.27 459.215c8.39-1.676 17.416-1.65 26.601-1.201M1197.341 462.51c8.39-1.678 17.417-1.65 26.602-1.202M1197.2 465.669c8.389-1.677 17.416-1.65 26.601-1.202M1197.197 469.021c8.39-1.676 17.417-1.65 26.602-1.201M1197.126 472.048c8.39-1.677 17.417-1.65 26.602-1.202" fill="none" stroke-width="1.875"/><path d="M1005.874 489.945h41.017v-2.546h-41.017v2.546z" fill="#efd800" fill-rule="evenodd" stroke-width="1.25"/><path d="M1003.211 488.607v-1.55a215.525 215.525 0 0 1 45.96 0v1.55c-15.156-1.308-30.477-1.298-45.96 0z" fill="#efd800" fill-rule="evenodd" stroke-width="1.25"/><path d="M1003.211 477.059c1.019-2.998 44.37-2.785 45.96 0v10.165c-14.936-1.768-30.222-1.886-45.96 0v-10.165z" fill="#efd800" fill-rule="evenodd" stroke-width="1.25"/><path d="M1014.601 475.354h23.251v-28.092h-23.25v28.092z" fill="#efd800" fill-rule="evenodd" stroke-width="1.25"/><path d="M1012.548 453.517c8.39-1.676 17.416-1.65 26.6-1.2M1012.722 456.723c8.39-1.677 17.417-1.65 26.602-1.202M1012.766 459.88c8.39-1.676 17.416-1.65 26.601-1.201M1012.837 463.175c8.39-1.676 17.417-1.65 26.602-1.201M1012.696 466.334c8.389-1.676 17.417-1.65 26.6-1.201M1012.692 469.686c8.39-1.676 17.418-1.65 26.602-1.201M1012.622 472.714c8.39-1.678 17.417-1.65 26.602-1.203" fill="none" stroke-width="1.875"/><path d="M716.104 305.783c0-15.652-12.707-28.36-28.358-28.36h-339.27c-15.651 0-28.357 12.708-28.357 28.36v895.498c0 15.652 12.706 28.358 28.357 28.358h339.27c15.652 0 28.358-12.706 28.358-28.358V305.783z" fill="#fff" fill-rule="evenodd" stroke-width="1.25"/><path d="M647.717 276.795h41.018v-2.546h-41.018v2.546z" fill="#ccc" fill-rule="evenodd" stroke-width="1.25"/><path d="M645.055 275.457v-1.55a215.607 215.607 0 0 1 45.96 0v1.55c-15.155-1.307-30.478-1.297-45.96 0z" fill="#ccc" fill-rule="evenodd" stroke-width="1.25"/><path d="M645.055 263.91c1.019-2.999 44.37-2.786 45.96 0v10.164c-14.936-1.768-30.223-1.885-45.96 0V263.91z" fill="#ccc" fill-rule="evenodd" stroke-width="1.25"/><path d="M656.446 262.204h23.251v-28.092h-23.25v28.092z" fill="#ccc" fill-rule="evenodd" stroke-width="1.25"/><path d="M654.391 240.368c8.39-1.677 17.417-1.65 26.602-1.202M654.566 243.574c8.39-1.678 17.417-1.65 26.602-1.203M654.61 246.731c8.39-1.676 17.416-1.65 26.601-1.201M654.681 250.025c8.39-1.676 17.416-1.65 26.601-1.201M654.54 253.185c8.389-1.678 17.416-1.65 26.601-1.203M654.538 256.537c8.388-1.676 17.416-1.65 26.6-1.2M654.466 259.564c8.39-1.676 17.416-1.65 26.601-1.201" fill="none" stroke-width="1.875"/><path d="M352.171 277.027h41.018v-2.546H352.17v2.546z" fill="#ccc" fill-rule="evenodd" stroke-width="1.25"/><path d="M349.507 275.69v-1.551a215.619 215.619 0 0 1 45.962 0v1.551c-15.156-1.309-30.478-1.297-45.961 0z" fill="#ccc" fill-rule="evenodd" stroke-width="1.25"/><path d="M349.507 264.141c1.02-2.997 44.37-2.785 45.962 0v10.165c-14.938-1.767-30.224-1.886-45.961 0v-10.165z" fill="#ccc" fill-rule="evenodd" stroke-width="1.25"/><path d="M360.899 262.436h23.25v-28.091H360.9v28.091z" fill="#ccc" fill-rule="evenodd" stroke-width="1.25"/><path d="M358.845 240.6c8.389-1.676 17.416-1.65 26.601-1.201M359.019 243.805c8.39-1.676 17.416-1.65 26.601-1.201M359.064 246.964c8.388-1.678 17.416-1.65 26.601-1.203M359.134 250.257c8.39-1.676 17.416-1.65 26.601-1.2M358.993 253.416c8.39-1.676 17.416-1.65 26.6-1.201M358.99 256.77c8.39-1.678 17.416-1.65 26.601-1.202M358.919 259.796c8.39-1.677 17.416-1.65 26.601-1.202" fill="none" stroke-width="1.875"/><path d="M351.774 278.454v430.504l50.391 519.73M687.9 278.186v433.769l-54.432 517.425M375.04 278.186v18.211l31.792 302.02c1.888 18.304 11.138 28.06 30.188 26.433h168.066c16.443-.71 28.128-6.956 28.439-26.434l32.102-302.019v-18.21" fill="none" stroke-width="1.25"/><path d="M551.659 808.601a2.702 2.702 0 0 0-2.701-2.701H493.32a2.703 2.703 0 0 0-2.701 2.701v5.404a2.703 2.703 0 0 0 2.701 2.701h55.638a2.702 2.702 0 0 0 2.7-2.701v-5.404z" fill="#197ae6" fill-rule="evenodd" stroke-width="1.25"/></g></svg>