<?xml version="1.0" encoding="UTF-8"?>
<!DOCTYPE svg  PUBLIC '-//W3C//DTD SVG 1.1//EN'  'http://www.w3.org/Graphics/SVG/1.1/DTD/svg11.dtd'>
<svg clip-rule="evenodd" fill-rule="evenodd" stroke-linejoin="round" stroke-miterlimit="1.4142" version="1.1" viewBox="0 0 1280 1150" xmlns="http://www.w3.org/2000/svg"><path d="m155.22 122.59h924.37c44.78 0 79.81 12.51 79.81 56.52v819.81c0 43.198-32.56 61.898-79.81 61.898h-924.37c-47.162 0-75.834-22.22-75.834-61.898v-819.81c0-43.166 27.482-56.52 75.834-56.52z" fill="#1b1a19" stroke="#000" stroke-width="3.5px"/><g id="Power" transform="matrix(.64747 0 0 .64747 681.54 403.66)"><g transform="matrix(1.0215 0 0 1.0215 -7.1918 -20.592)"><path d="m352.71 880.78c-5.564 4.804-4.789 15.455 0.978 17.129 2.933 0.851 5.837 1.06 8.683 0 7.882-2.935 7.043-12.38 1.468-17.129" fill="none" stroke="#fefefd" stroke-linecap="round" stroke-width="3.02px"/></g><g transform="translate(.27631 -2.3967)"><path d="m358.25 875.58v13.69" fill="#6dbd48" stroke="#fefefd" stroke-linecap="round" stroke-width="3.09px"/></g></g><g id="lan" transform="translate(263.68 370.79)"><path d="m271.16 602.03-5.552 5.752 5.552 5.958" fill="none" stroke="#fff" stroke-linecap="round" stroke-width="2.5px"/><g transform="matrix(-1 5.5511e-17 -5.5511e-17 -1 555.65 1215.8)"><path d="m271.16 602.03-5.552 5.752 5.552 5.958" fill="none" stroke="#fff" stroke-linecap="round" stroke-width="2.5px"/></g><g transform="translate(.090349 .094651)"><rect x="271.49" y="606.96" width="1.765" height="1.639" fill="#fff"/></g><g transform="translate(5.2774 .094651)"><rect x="271.49" y="606.96" width="1.765" height="1.639" fill="#fff"/></g><g transform="translate(10.84 .094651)"><rect x="271.49" y="606.96" width="1.765" height="1.639" fill="#fff"/></g></g><g transform="matrix(1.3931 0 0 1.3931 72.586 -20.629)" fill="#fff" fill-rule="nonzero"><path d="m160.76 683.84h-1.037v-7.907h-1.452l0.634-1.026h1.855v8.933z"/><path d="m205.95 683.84h-6.236l3.478-3.758c0.586-0.619 1.001-1.107 1.245-1.465s0.366-0.764 0.366-1.22-0.177-0.854-0.531-1.196c-0.353-0.342-0.793-0.513-1.318-0.513-0.524 0-0.962 0.186-1.311 0.556-0.35 0.37-0.55 0.897-0.598 1.58h-1.013c0.04-0.96 0.346-1.723 0.915-2.288 0.57-0.565 1.259-0.848 2.068-0.848 0.81 0 1.481 0.262 2.014 0.787s0.799 1.165 0.799 1.922c0 0.553-0.146 1.07-0.439 1.55s-0.736 1.037-1.33 1.672l-2.05 2.208h3.941v1.013z"/><path d="m250.31 678.82c0.48 0.235 0.852 0.561 1.116 0.976 0.265 0.415 0.397 0.866 0.397 1.354 0 0.798-0.291 1.483-0.873 2.057-0.581 0.573-1.316 0.86-2.202 0.86-0.798 0-1.45-0.23-1.959-0.69-0.508-0.459-0.852-1.141-1.031-2.044h1.037c0.155 0.578 0.385 1.007 0.69 1.288 0.305 0.28 0.74 0.421 1.305 0.421 0.566 0 1.04-0.177 1.422-0.531s0.574-0.799 0.574-1.336-0.218-0.964-0.653-1.282c-0.435-0.317-1.076-0.484-1.922-0.5v-0.976c0.61 0 1.102-0.13 1.476-0.391 0.375-0.26 0.562-0.583 0.562-0.97 0-0.386-0.145-0.708-0.434-0.964-0.288-0.256-0.638-0.384-1.049-0.384s-0.744 0.116-1.001 0.347c-0.256 0.232-0.474 0.584-0.653 1.056h-1.061c0.179-0.781 0.504-1.379 0.976-1.794s1.054-0.622 1.745-0.622c0.692 0 1.292 0.228 1.8 0.683 0.509 0.456 0.763 1.009 0.763 1.66 0 0.748-0.342 1.342-1.025 1.782z"/><path d="m294.8 681.81h-1.061v2.038h-1.038v-2.038h-4.283l5.016-7.114h0.305v6.101h1.061v1.013zm-2.099-1.013v-3.294l-2.33 3.294h2.33z"/><path d="m219.43 721.55h-4.43v-8.933h1.062v7.92h3.368v1.013z"/><path d="m228.52 721.55h-1.11l-1.379-2.99h-3.686l-1.367 2.99h-1.159l4.222-9.287h0.318l4.161 9.287zm-2.965-4.051-1.355-3.015-1.367 3.015h2.722z"/><path d="m236.73 721.55h-0.318l-5.662-6.48v6.48h-1.074v-8.933h0.318l5.699 6.566v-6.566h1.037v8.933z"/></g><g transform="matrix(1.3931 0 0 1.3931 611.72 31.352)" fill="#fff" fill-rule="nonzero"><path d="m167.96 674.91-2.563 9.153h-0.305l-2.538-6.675-2.587 6.675h-0.293l-2.514-9.153h1.086l1.721 6.322 2.441-6.322h0.292l2.417 6.334 1.757-6.334h1.086z"/><path d="m173.82 683.84h-4.43v-8.933h1.061v7.92h3.369v1.013z"/><path d="m182.91 683.84h-1.111l-1.378-2.99h-3.686l-1.367 2.99h-1.159l4.222-9.286h0.318l4.161 9.286zm-2.965-4.051-1.355-3.014-1.367 3.014h2.722z"/><path d="m191.12 683.84h-0.318l-5.662-6.48v6.48h-1.074v-8.933h0.318l5.698 6.566v-6.566h1.038v8.933z"/></g><g id="Globe" transform="matrix(.71136 0 0 .71136 380.79 346.35)"><g transform="matrix(.90867 0 0 1 39.854 0)"><ellipse cx="430.36" cy="888.68" rx="17.566" ry="15.305" fill="none" stroke="#fff" stroke-linecap="round" stroke-width="1.47px"/></g><path d="m436.47 886.42h5.937v1.516h-4.761l-2.33 2.251 4.747 4.699h2.344l1.321-3.159v-7.896l-2.15-2.702-5.108 5.291z" fill="#fff" stroke="#fff" stroke-linecap="round" stroke-width="1.41px"/><path d="m422.18 888.05 1.711-1.965 1.866-0.821 2.721-2.674 0.595-2.811-3.316 0.527-3.577-1.764-2.67 4.048 1.045 3.495 1.625 1.965z" fill="#fff" stroke="#fff" stroke-linecap="round" stroke-width="1.41px"/><path d="m426.64 888.72 3.366 2.798-1.558 6.43-1.808-0.588v-3.341l-3.035-2.501 3.035-2.798z" fill="#fff" stroke="#fff" stroke-linecap="round" stroke-width="1.41px"/></g></svg>
