<?xml version="1.0" encoding="UTF-8"?>
<!DOCTYPE svg  PUBLIC '-//W3C//DTD SVG 1.1//EN'  'http://www.w3.org/Graphics/SVG/1.1/DTD/svg11.dtd'>
<svg clip-rule="evenodd" fill-rule="evenodd" stroke-linecap="round" stroke-linejoin="round" stroke-miterlimit="1.4142" version="1.1" viewBox="0 0 1280 1150" xmlns="http://www.w3.org/2000/svg"><g id="Ebene2"><path d="m502.74 1015.7c1.487 27.35 6.168 46.21 15.188 53.57 14.153 9.96 30.149 14.09 47.464 14.35h163.83c15.162 0.16 28.624-4.28 39.997-14.35 6.947-7.37 11.655-21.44 11.121-53.57l3.297-857.28c2.42-39.839-22.153-56.968-66.11-57.788h-147.43c-39.605 1.088-64.472 17.343-65.834 57.788l-1.526 857.28z" fill="#e2e2e2" stroke="#000" stroke-width="1px"/><path d="m509.78 947.34h266.22v81.499c0.272 12.57-2.332 25.13-8.629 37.66-9.001 6.59-19.463 12.04-33.065 15.08h-36.08v-11.06c-8.744-3.33-17.197-2.98-25.441 0v11.06h-58.253v-11.06c-7.755-2.4-15.478-2.55-23.163 0v11.06h-26.704c-15.65-1.49-30.813-5.81-45.124-15.08-6.001-11.74-9.6-24.59-9.761-39.03v-80.129z" fill="#e2e2e2" stroke="#000" stroke-width="1px"/><path d="m509.95 947.39 265.96-0.071v-774.99c-0.266-10.453-0.631-20.896-1.594-31.284-0.606-10.507-3.591-16.279-6.578-19.413-6.34-5.75-12.949-9.427-19.767-11.505-9.307-3.481-20.391-4.352-31.787-4.765h-142.5c-14.882 6e-3 -25.17 1.918-33.204 4.765-6.499 2.588-12.526 6.189-17.754 11.505-4.724 6.372-6.457 12.891-8.133 19.413-2.723 10.483-4.134 20.905-4.647 31.284v775.06z" fill="#e2e2e2" stroke="#000" stroke-width="1px"/><g transform="translate(0 -1.1205)"><path d="m591.36 1082.7h23.163" fill="#e2e2e2" stroke="#000" stroke-width="1px"/></g><g transform="translate(0 -1.0343)"><path d="m672.78 1082.6h25.441" fill="#e2e2e2" stroke="#000" stroke-width="1px"/></g><g transform="translate(0 -3.3034)"><path d="m509.95 176.22h265.96c-0.231-10.422-0.548-20.848-1.563-31.314h-259.86c-2.962 10.209-3.859 20.744-4.54 31.314z" fill="url(#_Linear1)"/></g><path d="m509.95 947.39 265.96-0.071v-774.99c-0.266-10.453-0.631-20.896-1.594-31.284-0.606-10.507-3.591-16.279-6.578-19.413-6.34-5.75-12.949-9.427-19.767-11.505-9.307-3.481-20.391-4.352-31.787-4.765h-142.5c-14.882 6e-3 -25.17 1.918-33.204 4.765-6.499 2.588-12.526 6.189-17.754 11.505-4.724 6.372-6.457 12.891-8.133 19.413-2.723 10.483-4.134 20.905-4.647 31.284v775.06z" fill="none" stroke="#000" stroke-width="1px"/></g><defs><linearGradient id="_Linear1" x2="1" gradientTransform="matrix(.1188 33.136 -33.136 .1188 639.84 144.29)" gradientUnits="userSpaceOnUse"><stop stop-color="#dedede" offset="0"/><stop stop-color="#fff" offset=".5"/><stop stop-color="#dedede" offset="1"/></linearGradient></defs></svg>
