<?xml version="1.0" encoding="UTF-8"?>
<!DOCTYPE svg  PUBLIC '-//W3C//DTD SVG 1.1//EN'  'http://www.w3.org/Graphics/SVG/1.1/DTD/svg11.dtd'>
<svg clip-rule="evenodd" fill-rule="evenodd" stroke-linecap="round" stroke-linejoin="round" stroke-miterlimit="1.4142" version="1.1" viewBox="0 0 1280 1150" xmlns="http://www.w3.org/2000/svg"><g id="Picostation"><path d="m754.59 487.73c0-7.114-5.776-12.89-12.89-12.89h-158.74c-7.115 0-12.89 5.776-12.89 12.89v606.57c0 7.11 5.775 12.89 12.89 12.89h158.74c7.114 0 12.89-5.78 12.89-12.89v-606.57z" fill="#fff" stroke="#737373" stroke-width="1px"/><path d="m569.99 982.12c1.67 1.379 3.524 2.315 5.603 2.715h173.21c2.138-0.231 4.071-1.177 5.833-2.715" fill="#fff" stroke="#737373" stroke-width="1px"/><path d="m676.89 517.97c0-0.582-0.473-1.055-1.055-1.055h-41.094c-0.583 0-1.056 0.473-1.056 1.055v110.54c0 0.582 0.473 1.055 1.056 1.055h41.094c0.582 0 1.055-0.473 1.055-1.055v-110.54z" fill="#fff" stroke="#737373" stroke-width="1px"/><path d="m642.42 524.12h8.441v61.83h-2.662c-0.883-20.993-2.384-41.759-5.779-61.83z" fill="url(#_Linear1)" stroke="#808080" stroke-width=".02px"/><g id="LED"><g transform="translate(.081972 87.963)"><rect x="654.97" y="523.87" width="13.363" height="9.089" fill="#acc04c" stroke="#acc04c" stroke-width="1px"/></g><g transform="translate(-.13691 70.378)"><rect x="654.97" y="523.87" width="13.363" height="9.089" fill="#acc04c" stroke="#acc04c" stroke-width="1px"/></g><g transform="translate(.3317 52.869)"><rect x="654.97" y="523.87" width="13.363" height="9.089" fill="#d46f50" stroke="#d46f50" stroke-width="1px"/></g><g transform="translate(.0064318 35.215)"><rect x="654.97" y="523.87" width="13.363" height="9.089" fill="#dc8044" stroke="#dc8044" stroke-width="1px"/></g><g transform="translate(-.014701 17.382)"><rect x="654.97" y="523.87" width="13.363" height="9.089" fill="#acc04c" stroke="#acc04c" stroke-width="1px"/></g><rect x="654.97" y="523.87" width="13.363" height="9.089" fill="#acc04c" stroke="#acc04c" stroke-width="1px"/></g><g id="Powerknopf"><ellipse cx="647.41" cy="617.8" rx="3.388" ry="3.046" fill="none" stroke="#737373" stroke-linecap="butt" stroke-width=".9px"/><path d="m648.44 613.78c0-0.519-0.421-0.94-0.94-0.94s-0.94 0.421-0.94 0.94v3.82c0 0.519 0.421 0.94 0.94 0.94s0.94-0.421 0.94-0.94v-3.82z" fill="#666" stroke="#fff" stroke-width=".5px"/></g><g id="Ethernet - Beschriftung"><path d="m644.22 597.17-1.944 1.932 1.944 1.946" fill="none" stroke="#666" stroke-width=".85px"/><path d="m650.24 597.17 2.026 1.932-2.026 1.97" fill="none" stroke="#666" stroke-width=".85px"/><path d="m645.04 599.41h0.448" fill="none" stroke="#666" stroke-width=".85px"/><g transform="translate(1.9716)"><path d="m645.04 599.41h0.448" fill="none" stroke="#666" stroke-width=".85px"/></g><g transform="translate(3.9777 .010644)"><path d="m645.04 599.41h0.448" fill="none" stroke="#666" stroke-width=".85px"/></g></g><g id="Antenne"><path d="m637.79 474.82h48.104v-40.194-63.832c-0.89-47.912-2.773-95.34-8.024-141.12l-2.027-44.6-0.642-106.41h-26.665l-1.259 106.41c-0.218 14.93-0.893 29.798-2.057 44.6-5.176 46.573-7.144 93.692-7.267 141.12v63.832l-0.163 40.194z" fill="#fff" stroke="#737373" stroke-width=".85px"/><rect x="645.82" y="80.714" width="32.762" height="2.004" fill="#fff" stroke="#737373" stroke-linecap="butt" stroke-width=".85px"/><g transform="translate(-.16811 4.6438)"><rect x="645.82" y="80.714" width="32.762" height="2.004" fill="#fff" stroke="#737373" stroke-linecap="butt" stroke-width=".85px"/></g><path d="m645.84 78.658h32.614v-14.908c-2.991-17.298-28.712-19.285-32.614 0v14.908z" fill="#fff" stroke="#737373" stroke-width=".85px"/></g></g><defs><linearGradient id="_Linear1" x2="1" gradientTransform="matrix(-.038329 -62.85 62.85 -.038329 651.08 586.75)" gradientUnits="userSpaceOnUse"><stop stop-color="#fff" offset="0"/><stop stop-color="#0b5d8d" offset="1"/></linearGradient></defs></svg>
