<?xml version="1.0" encoding="UTF-8"?>
<!DOCTYPE svg  PUBLIC '-//W3C//DTD SVG 1.1//EN'  'http://www.w3.org/Graphics/SVG/1.1/DTD/svg11.dtd'>
<svg clip-rule="evenodd" fill-rule="evenodd" stroke-linecap="round" stroke-linejoin="round" stroke-miterlimit="1.4142" version="1.1" viewBox="0 0 1280 1150" xmlns="http://www.w3.org/2000/svg"><g id="fuesse" stroke-width=".9px"><g id="fuss"><path d="m153.5 704.94c4.75 9.765 44.658 9.665 48.671 0l-24.589-6.069-24.082 6.069z" fill="#292929" stroke="#292929"/><path d="m146.77 691.27v13.568c0 2.178 60.83 1.832 60.83 0v-13.568h-60.83z" fill="#babbbd" stroke="#babbbd"/></g><g id="fuss1" transform="translate(957.06)"><path d="m153.5 704.94c4.75 9.765 44.658 9.665 48.671 0l-24.589-6.069-24.082 6.069z" fill="#292929" stroke="#292929"/><path d="m146.77 691.27v13.568c0 2.178 60.83 1.832 60.83 0v-13.568h-60.83z" fill="#babbbd" stroke="#babbbd"/></g></g><g id="deckel" stroke-width=".65px"><g id="oben"><path d="m1185.4 521.67c-21.51-4.314-28.86-6.443-50.48-6.443h-956.05c-18.806 0-40.901 0.407-55.908 6.443v6.482h1062.4v-6.482z" fill="#adadad" stroke="#5e5e5e"/><path d="m1096.7 528.15c0-5.74 9.39-11.85 38.24-12.925h-956.05c20.019 3.832 33.312 4.355 33.312 10.484l884.5 2.441z" fill="#212025" stroke="#000"/></g><path d="m1252 536.13c-18.1-7.585-38.09-12.277-59.72-14.46h-1081.1c-18.807 1.333-34.646 6.338-49.653 12.374l0.251 6.941 1190.6 2.522-0.44-7.377z" fill="#1a1a1a" stroke="#000"/><path d="m1252 536.13c-19.52 1.161-1174.8 1.065-1190.5-2.086l0.251 6.941 1190.6 2.522-0.44-7.377z" stroke="#000"/></g><g id="schatten" fill="#a3a2a8" stroke="#0f1800" stroke-linecap="butt" stroke-width=".65px"><path d="m61.509 535.21-7.236 2.477 9.179 7.972-1.943-10.449z"/><path d="m1252.1 537.51 7.44 1.767-12.43 4.684 4.99-6.451z"/></g><g stroke-width=".65px"><path d="m41.432 545.23 12.841-7.538c-0.151 4.104 1205.3 5.245 1205.3 1.588 3.64 0.594 7.62 2.805 12.09 7.38l-12.94 103.61-37.38 42.683c-2.85 3.249-6.16 3.087-11.95 3.087h-1112.2c-2.118 0-3.109-1.745-5.641-4.547l-37.263-41.223-12.841-105.04z" fill="#cdced2" stroke="#cdced2"/><path d="m54.273 650.26c401.5 4.634 802.96 4.008 1204.4 0l12.94-103.61c-410.1 1.697-820.17 1.296-1230.2-1.43l12.841 105.04z" fill="#e6e6e8" stroke="#8b8b8b"/><path d="m41.432 545.23 12.841-7.538c-0.151 4.104 1205.3 5.245 1205.3 1.588 3.64 0.594 7.62 2.805 12.09 7.38l-12.94 103.61-37.38 42.683c-2.85 3.249-6.16 3.087-11.95 3.087h-1112.2c-2.118 0-3.109-1.745-5.641-4.547l-37.263-41.223-12.841-105.04z" fill="none" stroke="#0f1800"/></g><g id="panel"><g id="wifi"><g transform="translate(.45769 .48271)"><circle cx="617.48" cy="605.68" r="2.482" fill="#a5aaae" stroke="#9fa4a8" stroke-width=".9px"/></g><path d="m613.48 600.88c2.726-2.093 5.595-2.576 8.735 0" fill="none" stroke="#9fa4a8" stroke-width="1.5px"/><g transform="matrix(1.6436 0 0 1.6436 -397.59 -389.95)"><path d="m613.48 600.88c2.809-2.407 5.714-2.562 8.735 0" fill="none" stroke="#9fa4a8" stroke-width=".91px"/></g><g transform="matrix(2.3198 0 0 2.3198 -815.31 -799.28)"><path d="m613.48 600.88c2.704-2.272 5.61-2.344 8.735 0" fill="none" stroke="#9fa4a8" stroke-width=".65px"/></g></g><g id="power" transform="matrix(1.7831 0 0 1.7831 -1087 -140.8)" fill="none" stroke="#9fa4a8" stroke-width=".84px"><path d="m908.01 408.98v7.066"/><path d="m904.85 412c-2.669 2.655-2.702 5.318 0 8.009 1.732 1.413 4.052 1.483 6.151 0 2.861-2.575 2.941-5.349 0-8.009"/></g><g id="globe"><g transform="matrix(.94859 0 0 1 36.685 0)"><ellipse cx="702.96" cy="600.43" rx="10.587" ry="10.444" fill="none" stroke="#9fa4a8" stroke-width=".92px"/></g><g transform="translate(-.13774)"><path d="m709.27 608.96c-0.56-5.719-0.591-11.426 0-17.119" fill="none" stroke="#9fa4a8" stroke-width=".9px"/></g><g transform="matrix(-1 5.6655e-16 -5.6655e-16 -1 1407.4 1200.7)"><path d="m709.27 608.96c-0.56-5.719-0.591-11.426 0-17.119" fill="none" stroke="#9fa4a8" stroke-width=".9px"/></g><path d="m694.37 596.24c6.04 0.496 12.166 0.524 18.392 0" fill="none" stroke="#9fa4a8" stroke-width=".9px"/><g transform="matrix(-1 3.2162e-16 -3.2162e-16 -1 1407.1 1200.1)"><path d="m694.37 596.24c6.04 0.496 12.166 0.524 18.392 0" fill="none" stroke="#9fa4a8" stroke-width=".9px"/></g><path d="m703.72 589.99v20.782" fill="none" stroke="#9fa4a8" stroke-width=".9px"/></g><g id="LED"><rect x="520.8" y="618.71" width="21.779" height="4.062" fill="#4b87f9" stroke="#4c83f7" stroke-width=".65px"/><g transform="translate(86.022)"><rect x="520.8" y="618.71" width="21.779" height="4.062" fill="#4b87f9" stroke="#4c83f7" stroke-width=".65px"/></g><g transform="translate(171.33)"><rect x="520.8" y="618.71" width="21.779" height="4.062" fill="#4b87f9" stroke="#4c83f7" stroke-width=".65px"/></g><g transform="translate(256.77)"><rect x="520.8" y="618.71" width="21.779" height="4.062" fill="#4b87f9" stroke="#4c83f7" stroke-width=".65px"/></g></g><g id="WPS"><g transform="matrix(.9685 0 0 .99628 35.541 2.3386)"><ellipse cx="1091.7" cy="604.02" rx="26.529" ry="25.082" fill="#dddee2" stroke="#808080" stroke-width=".66px"/></g><g transform="translate(.7454 .068144)"><text x="1078.2px" y="609.144px" fill="rgb(75,135,249)" font-family="'LucidaGrande-Bold', 'Lucida Grande', sans-serif" font-size="13.247px" font-weight="600" stroke="rgb(76,131,247)" stroke-linecap="butt" stroke-width=".15px">WPS</text></g></g><g id="arrows"><path d="m797.25 596.72 2.086-0.771c-2.354-3.085-4.571-4.679-6.662-4.916-1.685 1.808-2.198 5.089-2.261 8.109l2.88-1.023c1.706 4.286-0.218 7.91-2.88 11.653 5.385-2.577 7.716-7.589 6.837-13.052z" fill="#9fa4a9" stroke="#9fa4a8" stroke-width=".9px"/><g transform="matrix(-1 3.2162e-16 -3.2162e-16 -1 1578.2 1201.7)"><path d="m797.25 596.72 2.086-0.771c-2.354-3.085-4.571-4.679-6.662-4.916-1.685 1.808-2.198 5.089-2.261 8.109l2.88-1.023c1.706 4.286-0.218 7.91-2.88 11.653 5.385-2.577 7.716-7.589 6.837-13.052z" fill="#9fa4a9" stroke="#9fa4a8" stroke-width=".9px"/></g></g></g></svg>
