<svg xmlns="http://www.w3.org/2000/svg" viewBox="0 0 1600 1437.5" height="1437.5" width="1600"><path d="M191.869 881.173c5.937 12.206 55.822 12.08 60.839 0l-30.737-7.587-30.102 7.587z" fill="#292929" fill-rule="evenodd" stroke="#292929" stroke-width="1.125" stroke-miterlimit="10"/><path d="M183.457 864.085v16.96c0 2.723 76.038 2.29 76.038 0v-16.96h-76.037z" fill="#babbbd" fill-rule="evenodd" stroke="#babbbd" stroke-width="1.125" stroke-miterlimit="10"/><path d="M1388.188 881.173c5.937 12.206 55.824 12.08 60.85 0l-30.738-7.587-30.113 7.587z" fill="#292929" fill-rule="evenodd" stroke="#292929" stroke-width="1.125" stroke-miterlimit="10"/><path d="M1379.787 864.085v16.96c0 2.723 76.038 2.29 76.038 0v-16.96h-76.038z" fill="#babbbd" fill-rule="evenodd" stroke="#babbbd" stroke-width="1.125" stroke-miterlimit="10"/><path d="M1481.8 652.083c-26.887-5.393-36.075-8.054-63.1-8.054H223.638c-23.508 0-51.127.509-69.885 8.054v8.102H1481.8v-8.102z" fill="#adadad" fill-rule="evenodd" stroke="#5e5e5e" stroke-width=".8125" stroke-miterlimit="10"/><path d="M1370.9 660.185c0-7.175 11.725-14.812 47.8-16.156H223.637c25.024 4.79 41.64 5.444 41.64 13.105l1105.623 3.051z" fill="#212025" fill-rule="evenodd" stroke="#000" stroke-width=".8125" stroke-miterlimit="10"/><path d="M1565.025 670.158c-22.625-9.482-47.613-15.347-74.65-18.075H139.015c-23.508 1.666-43.308 7.922-62.067 15.467l.315 8.676 1488.312 3.153-.55-9.222z" fill="#191919" fill-rule="evenodd" stroke="#000" stroke-width=".8125" stroke-miterlimit="10"/><path d="M1565.025 670.158c-24.4 1.45-1468.538 1.33-1488.077-2.608l.315 8.676 1488.312 3.153-.55-9.222z" fill-rule="evenodd" stroke="#000" stroke-width=".8125" stroke-miterlimit="10"/><path d="M76.886 669.015l-9.044 3.096 11.473 9.965-2.429-13.061zM1565.125 671.888l9.3 2.208-15.537 5.855 6.237-8.063z" fill="#a3a2a8" fill-rule="evenodd" stroke="#0f1800" stroke-width=".8125" stroke-miterlimit="10"/><path d="M51.79 681.534l16.052-9.423c-.19 5.13 1506.57 6.556 1506.583 1.985 4.55.743 9.525 3.506 15.113 9.225l-16.176 129.509-46.725 53.354c-3.562 4.061-7.7 3.858-14.937 3.858H121.472c-2.648 0-3.887-2.18-7.053-5.683L67.842 812.83 51.79 681.534z" fill="#cdced2" fill-rule="evenodd" stroke="#cdced2" stroke-width=".8125" stroke-miterlimit="10"/><path d="M67.842 812.83c501.87 5.793 1003.706 5.01 1505.52 0l16.176-129.509c-512.627 2.122-1025.213 1.62-1537.748-1.787L67.842 812.83z" fill="#e6e6e8" fill-rule="evenodd" stroke="#8b8b8b" stroke-width=".8125" stroke-miterlimit="10"/><path d="M51.79 681.534l16.052-9.423c-.19 5.13 1506.57 6.556 1506.583 1.985 4.55.743 9.525 3.506 15.113 9.225l-16.176 129.509-46.725 53.354c-3.562 4.061-7.7 3.858-14.937 3.858H121.472c-2.648 0-3.887-2.18-7.053-5.683L67.842 812.83 51.79 681.534z" fill="none" stroke="#0f1800" stroke-width=".8125" stroke-miterlimit="10"/><path d="M772.424 754.6a3.104 3.104 0 0 1 0 6.205 3.104 3.104 0 0 1 0-6.205z" fill="#a5aaae" fill-rule="evenodd" stroke="#9fa4a8" stroke-width="1.125" stroke-miterlimit="10"/><path d="M766.851 751.095c3.408-2.616 6.994-3.22 10.919 0M763.394 747.043c5.769-4.944 11.737-5.263 17.945 0M759.836 743.328c7.842-6.587 16.265-6.795 25.33 0M665.114 735.574v15.75M658.071 742.289c-5.95 5.916-6.022 11.852 0 17.851 3.861 3.149 9.031 3.305 13.71 0 6.375-5.74 6.554-11.922 0-17.851" fill="none" stroke="#9fa4a8" stroke-width="1.875" stroke-miterlimit="10"/><path d="M879.385 737.485c6.929 0 12.554 5.85 12.554 13.056 0 7.205-5.625 13.055-12.554 13.055s-12.554-5.85-12.554-13.055c0-7.206 5.625-13.056 12.554-13.056zM886.419 761.204c-.7-7.149-.739-14.283 0-21.399M872.616 739.62c.7 7.147.74 14.281 0 21.399M867.96 745.303c7.55.62 15.207.655 22.99 0M890.95 754.789c-7.55-.62-15.207-.655-22.99 0M879.652 737.487v25.978" fill="none" stroke="#9fa4a8" stroke-width="1.125" stroke-miterlimit="10"/><path d="M651.004 778.467h27.223v-5.077h-27.223v5.077zM758.531 778.467h27.224v-5.077h-27.224v5.077zM865.169 778.467h27.224v-5.077h-27.224v5.077zM971.971 778.467h27.224v-5.077h-27.224v5.077z" fill="#4b87f9" fill-rule="evenodd" stroke="#4c83f7" stroke-width=".8125" stroke-miterlimit="10"/><path d="M1366.05 723.913c17.725 0 32.125 13.996 32.125 31.236 0 17.239-14.4 31.235-32.125 31.235s-32.113-13.996-32.113-31.235c0-17.24 14.388-31.236 32.113-31.236z" fill="#dddee2" fill-rule="evenodd" stroke="gray" stroke-width=".8125" stroke-miterlimit="10"/><text style="-inkscape-font-specification:LucidaGrande-Bold" transform="matrix(1.25 0 0 1.25 1348.675 761.515)" font-weight="700" font-size="13.247" font-family="LucidaGrande" fill="#4b87f9" stroke="#4c83f7" stroke-width=".15" stroke-miterlimit="10"><tspan y="0" x="0 11.972187 20.096266">WPS</tspan></text><path d="M996.56 745.905l2.608-.964c-2.943-3.856-5.714-5.848-8.328-6.145-2.106 2.26-2.748 6.362-2.826 10.137l3.6-1.28c2.132 5.358-.273 9.888-3.6 14.567 6.731-3.221 9.645-9.486 8.546-16.315zM976.222 756.243l-2.608.963c2.943 3.857 5.715 5.849 8.327 6.145 2.108-2.26 2.749-6.361 2.828-10.136l-3.6 1.278c-2.133-5.357.272-9.887 3.6-14.565-6.732 3.22-9.645 9.486-8.547 16.315z" fill="#9fa4a9" fill-rule="evenodd" stroke="#9fa4a8" stroke-width="1.125" stroke-miterlimit="10"/></svg>