<svg xmlns="http://www.w3.org/2000/svg" viewBox="0 0 1600 1437.5" height="1437.5" width="1600"><g stroke-miterlimit="10"><path d="M903.82 884.284c-6.37-13.459-16.951-24.616-34.097-32.188l-40.615-15.728c-8.914-3.008-13.502-15.567-15.537-31.857l-68.127-666.399c-3.403-37.375-18.19-53.937-41.044-55.775l-27.916 14.238 80.157 707.936 33.644 87.1 113.535-7.327z" fill="#ccc" fill-rule="evenodd" stroke="#000" stroke-width="3.75"/><path d="M825.204 854.741l-29.1-10.717c-12.547-5.991-17.364-18.7-18.812-34.34L704.408 82.538l-35.4 11.875 73.243 771.67 82.954-11.342" fill="gray" fill-rule="evenodd" stroke="#000" stroke-width="3.75"/><path d="M496.124 1112.284l-223.425 62.575 46.283-144.818 177.142 82.243z" fill="#5d5b5c" fill-rule="evenodd" stroke="#000" stroke-width="3.75"/><path d="M342.386 1071.9c-8.272 11.383-12.771 32.237-18.675 54.735-7.519 22.304-20.174 36.225-36.607 43.976" fill="#5d5b5c" fill-rule="evenodd" stroke="#000" stroke-width="3.75"/><path d="M958.875 1271.769l82.656 93.325c-10.912 8.541-22.826 9.938-35.618 5.055v-25.701L363.174 1053.44l-18.998 61.065 661.736 255.643v-101.355" fill="#72716f" fill-rule="evenodd" stroke="#000" stroke-width="3.75"/><path d="M1043.924 1370.419L1577.637 1165v-32.579l-533.713 198.457-804.905-364.195-41.952 123.775 83.267 82.118c20.612-17.56 35.066-46.653 43.82-86.417 7.003-13.813 11.255-15.825 33.102-6.571l686.668 290.83z" fill="#9f9794" fill-rule="evenodd" stroke="#000" stroke-width="3.75"/><path d="M1043.924 1330.883v37.934" fill="none" stroke="#000" stroke-width="3.75"/><path d="M1043.924 1330.819l533.713-198.404-738.79-272.696c-23.392-8.635-43.873-4.839-67.937 0L238.991 966.666l804.933 364.153z" fill="#d8d8d6" fill-rule="evenodd" stroke="#000" stroke-width="3.75"/><path d="M86.299 71.025c-34.749 8.2-65.523 29.237-64.078 64.425l9.412 90.48 89.942 830.842c6.519 76.757 29.763 132.463 97.871 131.707 35.473-15.453 62.839-32.269 59.183-54.302 12.221-80.985-15.056-135.063-77.741-165.02L88.318 95.011l-2.02-23.987z" fill="gray" fill-rule="evenodd" stroke="#000" stroke-width="3.75"/><path d="M279.799 1172.974c40.816-31.076 50.046-118.511 0-176.54-18.505-20.366-42.561-29.955-67.843-37.166-6.585-2.832-10.66-22.617-13.571-50.267L105.129 67.288c-37.094 3.387-48.662 21.25-47.318 46.45l90.275 822.433c2.051 19.185 8.629 30.875 20.123 34.429l35.715 15.54c43.607 18.973 100.938 153.685 14.83 202.388l61.045-15.554z" fill="#ccc" fill-rule="evenodd" stroke="#000" stroke-width="3.75"/><path d="M172.86 998.785c30.424-7.114 64.294 26.33 75.586 74.635 11.294 48.305-4.238 93.296-34.662 100.41-30.424 7.113-64.293-26.33-75.585-74.635-11.294-48.305 4.237-93.297 34.661-100.41z" fill="#ccc" fill-rule="evenodd" stroke="#000" stroke-width="1.25"/><path d="M167.96 1003.021c27.341-6.391 58.172 25.347 68.806 70.83 10.634 45.484-2.931 87.6-30.272 93.993-27.342 6.392-58.172-25.345-68.805-70.829-10.634-45.485 2.93-87.601 30.271-93.994z" fill="gray" fill-rule="evenodd" stroke="#000" stroke-width="1.25"/><path d="M1346.05 1232.664c0-1.714-1.137-2.542-3.487-1.598l-16.95 6.553c-1.376.546-1.413 1.522-1.413 3.31v3.84c.1.997 1.025 1.596 2.875.901l16.7-6.256c1.613-.678 2.275-.694 2.275-2.807v-3.943z" fill="#86d1f9" fill-rule="evenodd" stroke="#50beff" stroke-width=".6875"/></g></svg>