<?xml version="1.0" encoding="UTF-8"?>
<!DOCTYPE svg  PUBLIC '-//W3C//DTD SVG 1.1//EN'  'http://www.w3.org/Graphics/SVG/1.1/DTD/svg11.dtd'>
<svg clip-rule="evenodd" fill-rule="evenodd" stroke-linecap="round" stroke-linejoin="round" stroke-miterlimit="1.4142" version="1.1" viewBox="0 0 1280 1150" xmlns="http://www.w3.org/2000/svg"><g id="Mi ANT rechts" stroke="#000" stroke-width="3px"><path d="m723.06 707.43c-5.096-10.767-13.561-19.693-27.278-25.75l-32.492-12.583c-7.131-2.406-10.801-12.453-12.429-25.485l-54.502-533.12c-2.722-29.897-14.552-43.152-32.835-44.617l-22.333 11.391 64.126 566.34 26.915 69.68 90.828-5.862z" fill="#ccc"/><path d="m660.16 683.79-23.28-8.574c-10.037-4.793-13.891-14.96-15.049-27.472l-58.308-581.71-28.32 9.499 58.594 617.33 66.363-9.073" fill="#808080"/></g><g id="Rolle unten" fill="#5d5b5c" stroke="#000" stroke-width="3px"><path d="m396.9 889.83-178.74 50.06 37.027-115.85 141.71 65.794z"/><path d="m273.91 857.52c-6.618 9.106-10.217 25.79-14.94 43.788-6.015 17.843-16.139 28.98-29.286 35.181"/></g><g id="seite" stroke="#000" stroke-width="3px"><path d="m767.1 1017.4 66.125 74.66c-8.73 6.83-18.261 7.95-28.495 4.04v-20.56l-514.19-232.81-15.198 48.852 529.39 204.52v-81.09" fill="#72716f"/><path d="m835.14 1096.3 426.97-164.34v-26.063l-426.97 158.76-643.92-291.35-33.561 99.02 66.613 65.695c16.49-14.048 28.053-37.323 35.056-69.134 5.603-11.05 9.004-12.66 26.482-5.257l549.33 232.67z" fill="#9f9794"/></g><g id="Deckel" stroke="#000" stroke-width="3px"><path d="m835.14 1064.7v30.34" fill="none"/><path id="deckel" d="m835.14 1064.6 426.97-158.72-591.03-218.16c-18.714-6.908-35.099-3.871-54.35 0l-425.54 85.558 643.95 291.32z" fill="#d8d8d6"/></g><g id="Mi ANT links" stroke="#000" stroke-width="3px"><path d="m69.039 56.823c-27.799 6.559-52.418 23.39-51.262 51.536l7.529 72.385 71.954 664.67c5.215 61.405 23.81 105.97 78.297 105.36 28.378-12.362 50.271-25.815 47.346-43.441 9.777-64.788-12.045-108.05-62.193-132.02l-90.056-699.32-1.615-19.182z" fill="#808080"/><path d="m223.84 938.38c32.653-24.861 40.037-94.809 0-141.23-14.804-16.293-34.049-23.964-54.274-29.733-5.268-2.265-8.528-18.093-10.857-40.213l-74.605-673.37c-29.675 2.71-38.93 17.005-37.854 37.161l72.22 657.95c1.641 15.348 6.903 24.7 16.098 27.543l28.572 12.432c34.886 15.178 80.751 122.95 11.864 161.91l48.836-12.443z" fill="#ccc"/></g><g id="kreis"><g transform="matrix(.8849 -.20688 .23456 1.0033 -191.55 30.449)"><ellipse cx="160.88" cy="869.01" rx="49.835" ry="69.787" fill="#ccc" stroke="#000" stroke-width="1.03px"/></g><g transform="matrix(.79524 -.18592 .22086 .94471 -170.09 77.296)"><ellipse cx="160.88" cy="869.01" rx="49.835" ry="69.787" fill="#808080" stroke="#000" stroke-width="1.12px"/></g></g><g transform="matrix(.22231 -.030998 .059409 .42607 808.95 737.36)"><path d="m1029 658.72c0.85-3.157-2.76-4.971-11.54-3.841l-63.051 7.718c-5.09 0.655-5.708 2.443-6.588 5.736l-1.889 7.071c-0.135 1.863 2.797 3.202 9.689 2.398l62.009-7.235c6.05-0.833 8.39-0.693 9.43-4.584l1.94-7.263z" fill="#86d1f9" stroke="#50beff" stroke-linejoin="miter" stroke-width="1.6px"/></g></svg>
